<svg height="660.0" width="1000.0" version="4.0" xmlns="http://www.w3.org/2000/svg" xmlns:xlink= "http://www.w3.org/1999/xlink">
<rect width="100%" height="100%" fill="white"/>
<rect x="100.0" y="66.0" width="800.0" height="528.0" style="fill:rgb(255,255,255);stroke-width:2.0;stroke:rgb(0.0,0.0,0.0)" />
<line x1="245.19427" y1="597.0" x2="245.19427" y2="594.0" style="stroke:rgb(0.0,0.0,0.0);stroke-width:2.0;opacity:1.0;stroke-linecap:round" />
<text x="226.21428" y="609.0" stroke="#000000" stroke-width="0.7" transform="rotate(-0.0,226.21428,609.0)">100.0</text>
<line x1="390.38855" y1="597.0" x2="390.38855" y2="594.0" style="stroke:rgb(0.0,0.0,0.0);stroke-width:2.0;opacity:1.0;stroke-linecap:round" />
<text x="371.08856" y="609.0" stroke="#000000" stroke-width="0.7" transform="rotate(-0.0,371.08856,609.0)">200.0</text>
<line x1="535.5828" y1="597.0" x2="535.5828" y2="594.0" style="stroke:rgb(0.0,0.0,0.0);stroke-width:2.0;opacity:1.0;stroke-linecap:round" />
<text x="516.28284" y="609.0" stroke="#000000" stroke-width="0.7" transform="rotate(-0.0,516.28284,609.0)">300.0</text>
<line x1="680.7771" y1="597.0" x2="680.7771" y2="594.0" style="stroke:rgb(0.0,0.0,0.0);stroke-width:2.0;opacity:1.0;stroke-linecap:round" />
<text x="661.4771" y="609.0" stroke="#000000" stroke-width="0.7" transform="rotate(-0.0,661.4771,609.0)">400.0</text>
<line x1="825.9714" y1="597.0" x2="825.9714" y2="594.0" style="stroke:rgb(0.0,0.0,0.0);stroke-width:2.0;opacity:1.0;stroke-linecap:round" />
<text x="806.6714" y="609.0" stroke="#000000" stroke-width="0.7" transform="rotate(-0.0,806.6714,609.0)">500.0</text>
<line x1="97.0" y1="446.5" x2="100.0" y2="446.5" style="stroke:rgb(0.0,0.0,0.0);stroke-width:2.0;opacity:1.0;stroke-linecap:round" />
<text x="57.04" y="450.5" stroke="#000000" stroke-width="0.7" transform="rotate(-0.0,57.04,450.5)">100.0</text>
<line x1="97.0" y1="299.0" x2="100.0" y2="299.0" style="stroke:rgb(0.0,0.0,0.0);stroke-width:2.0;opacity:1.0;stroke-linecap:round" />
<text x="56.4" y="303.0" stroke="#000000" stroke-width="0.7" transform="rotate(-0.0,56.4,303.0)">200.0</text>
<line x1="97.0" y1="151.5" x2="100.0" y2="151.5" style="stroke:rgb(0.0,0.0,0.0);stroke-width:2.0;opacity:1.0;stroke-linecap:round" />
<text x="56.4" y="155.5" stroke="#000000" stroke-width="0.7" transform="rotate(-0.0,56.4,155.5)">300.0</text>
<line x1="100.0" y1="594.0" x2="245.19427" y2="122.0" style="stroke:rgb(206.04001,206.04001,235.11);stroke-width:3.0;opacity:1.0;stroke-linecap:round" />
<line x1="245.19427" y1="122.0" x2="481.86096" y2="136.75" style="stroke:rgb(206.04001,206.04001,235.11);stroke-width:3.0;opacity:1.0;stroke-linecap:round" />
<line x1="481.86096" y1="136.75" x2="810.0" y2="343.25" style="stroke:rgb(206.04001,206.04001,235.11);stroke-width:3.0;opacity:1.0;stroke-linecap:round" />
<line x1="100.0" y1="594.0" x2="172.59714" y2="564.5" style="stroke:rgb(164.985,164.985,0.0);stroke-width:3.0;opacity:1.0;stroke-linecap:round" />
<line x1="172.59714" y1="564.5" x2="264.06952" y2="446.5" style="stroke:rgb(164.985,164.985,0.0);stroke-width:3.0;opacity:1.0;stroke-linecap:round" />
<line x1="264.06952" y1="446.5" x2="462.9857" y2="343.25" style="stroke:rgb(164.985,164.985,0.0);stroke-width:3.0;opacity:1.0;stroke-linecap:round" />
<text x="447.9" y="58.5" stroke="#000000" stroke-width="1.2"  transform="rotate(0,447.9,58.5)">MULTIPLE SERIES</text>
<text x="477.05" y="635.4" stroke="#000000" stroke-width="1.2"  transform="rotate(0,477.05,635.4)">X-Axis</text>
<text x="45.0" y="376.1" stroke="#000000" stroke-width="1.2"  transform="rotate(-90.0,45.0,376.1)">Y-Axis</text>
<rect x="120.0" y="86.0" width="67.880005" height="40.0" style="fill:rgb(255.0,255.0,255.0);stroke-width:2.0;stroke:rgb(0.0,0.0,0.0);opacity:0.7" />
<rect x="128.0" y="94.0" width="8.0" height="8.0" style="fill:rgb(206.04001,206.04001,235.11);stroke-width:0;stroke:rgb(0,0,0);opacity:1.0" />
<text x="144.0" y="102.0" stroke="#000000" stroke-width="1.2"  transform="rotate(0,144.0,102.0)">Plot 1</text>
<rect x="128.0" y="110.0" width="8.0" height="8.0" style="fill:rgb(164.985,164.985,0.0);stroke-width:0;stroke:rgb(0,0,0);opacity:1.0" />
<text x="144.0" y="118.0" stroke="#000000" stroke-width="1.2"  transform="rotate(0,144.0,118.0)">Plot 2</text>
</svg>