<svg height="660.0" width="1000.0" version="4.0" xmlns="http://www.w3.org/2000/svg" xmlns:xlink= "http://www.w3.org/1999/xlink">
<rect width="100%" height="100%" fill="white"/>
<rect x="50.0" y="66.0" width="400.0" height="528.0" style="fill:rgb(255,255,255);stroke-width:2.0;stroke:rgb(0.0,0.0,0.0)" />
<line x1="123.61963" y1="597.0" x2="123.61963" y2="594.0" style="stroke:rgb(0.0,0.0,0.0);stroke-width:2.0" />
<text x="104.63963" y="609.0" stroke="#000000" stroke-width="0.7" transform="rotate(-0.0,104.63963,609.0)">100.0</text>
<line x1="197.23926" y1="597.0" x2="197.23926" y2="594.0" style="stroke:rgb(0.0,0.0,0.0);stroke-width:2.0" />
<text x="177.93925" y="609.0" stroke="#000000" stroke-width="0.7" transform="rotate(-0.0,177.93925,609.0)">200.0</text>
<line x1="270.8589" y1="597.0" x2="270.8589" y2="594.0" style="stroke:rgb(0.0,0.0,0.0);stroke-width:2.0" />
<text x="251.55888" y="609.0" stroke="#000000" stroke-width="0.7" transform="rotate(-0.0,251.55888,609.0)">300.0</text>
<line x1="344.47852" y1="597.0" x2="344.47852" y2="594.0" style="stroke:rgb(0.0,0.0,0.0);stroke-width:2.0" />
<text x="325.17853" y="609.0" stroke="#000000" stroke-width="0.7" transform="rotate(-0.0,325.17853,609.0)">400.0</text>
<line x1="418.09814" y1="597.0" x2="418.09814" y2="594.0" style="stroke:rgb(0.0,0.0,0.0);stroke-width:2.0" />
<text x="398.79816" y="609.0" stroke="#000000" stroke-width="0.7" transform="rotate(-0.0,398.79816,609.0)">500.0</text>
<line x1="47.0" y1="446.5" x2="50.0" y2="446.5" style="stroke:rgb(0.0,0.0,0.0);stroke-width:2.0" />
<text x="7.040001" y="450.5" stroke="#000000" stroke-width="0.7" transform="rotate(-0.0,7.040001,450.5)">100.0</text>
<line x1="47.0" y1="299.0" x2="50.0" y2="299.0" style="stroke:rgb(0.0,0.0,0.0);stroke-width:2.0" />
<text x="6.4000015" y="303.0" stroke="#000000" stroke-width="0.7" transform="rotate(-0.0,6.4000015,303.0)">200.0</text>
<line x1="47.0" y1="151.5" x2="50.0" y2="151.5" style="stroke:rgb(0.0,0.0,0.0);stroke-width:2.0" />
<text x="6.4000015" y="155.5" stroke="#000000" stroke-width="0.7" transform="rotate(-0.0,6.4000015,155.5)">300.0</text>
<line x1="50.0" y1="594.0" x2="123.61964" y2="122.0" style="stroke:rgb(206.04001,206.04001,235.11);stroke-width:3.0" />
<line x1="123.61964" y1="122.0" x2="243.61964" y2="136.75" style="stroke:rgb(206.04001,206.04001,235.11);stroke-width:3.0" />
<line x1="243.61964" y1="136.75" x2="410.0" y2="343.25" style="stroke:rgb(206.04001,206.04001,235.11);stroke-width:3.0" />
<text x="226.475" y="58.5" stroke="#000000" stroke-width="1.2"  transform="rotate(0,226.475,58.5)">TITLE</text>
<text x="227.05" y="635.4" stroke="#000000" stroke-width="1.2"  transform="rotate(0,227.05,635.4)">X-Axis</text>
<text x="15.0" y="376.1" stroke="#000000" stroke-width="1.2"  transform="rotate(-90.0,15.0,376.1)">Y-Axis</text>
<rect x="70.0" y="86.0" width="67.23999" height="24.0" style="fill:rgb(255.0,255.0,255.0);stroke-width:2.0;stroke:rgb(0.0,0.0,0.0)" />
<rect x="78.0" y="94.0" width="8.0" height="8.0" style="fill:rgb(206.04001,206.04001,235.11);stroke-width:0;stroke:rgb(0,0,0)" />
<text x="94.0" y="102.0" stroke="#000000" stroke-width="1.2"  transform="rotate(0,94.0,102.0)">Plot 1</text>
<rect x="550.0" y="66.0" width="400.0" height="528.0" style="fill:rgb(255,255,255);stroke-width:2.0;stroke:rgb(0.0,0.0,0.0)" />
<line x1="623.6196" y1="597.0" x2="623.6196" y2="594.0" style="stroke:rgb(0.0,0.0,0.0);stroke-width:2.0" />
<text x="604.63965" y="609.0" stroke="#000000" stroke-width="0.7" transform="rotate(-0.0,604.63965,609.0)">100.0</text>
<line x1="697.23926" y1="597.0" x2="697.23926" y2="594.0" style="stroke:rgb(0.0,0.0,0.0);stroke-width:2.0" />
<text x="677.9393" y="609.0" stroke="#000000" stroke-width="0.7" transform="rotate(-0.0,677.9393,609.0)">200.0</text>
<line x1="770.8589" y1="597.0" x2="770.8589" y2="594.0" style="stroke:rgb(0.0,0.0,0.0);stroke-width:2.0" />
<text x="751.5589" y="609.0" stroke="#000000" stroke-width="0.7" transform="rotate(-0.0,751.5589,609.0)">300.0</text>
<line x1="844.4785" y1="597.0" x2="844.4785" y2="594.0" style="stroke:rgb(0.0,0.0,0.0);stroke-width:2.0" />
<text x="825.1785" y="609.0" stroke="#000000" stroke-width="0.7" transform="rotate(-0.0,825.1785,609.0)">400.0</text>
<line x1="918.09814" y1="597.0" x2="918.09814" y2="594.0" style="stroke:rgb(0.0,0.0,0.0);stroke-width:2.0" />
<text x="898.79816" y="609.0" stroke="#000000" stroke-width="0.7" transform="rotate(-0.0,898.79816,609.0)">500.0</text>
<line x1="547.0" y1="446.5" x2="550.0" y2="446.5" style="stroke:rgb(0.0,0.0,0.0);stroke-width:2.0" />
<text x="507.04" y="450.5" stroke="#000000" stroke-width="0.7" transform="rotate(-0.0,507.04,450.5)">100.0</text>
<line x1="547.0" y1="299.0" x2="550.0" y2="299.0" style="stroke:rgb(0.0,0.0,0.0);stroke-width:2.0" />
<text x="506.4" y="303.0" stroke="#000000" stroke-width="0.7" transform="rotate(-0.0,506.4,303.0)">200.0</text>
<line x1="547.0" y1="151.5" x2="550.0" y2="151.5" style="stroke:rgb(0.0,0.0,0.0);stroke-width:2.0" />
<text x="506.4" y="155.5" stroke="#000000" stroke-width="0.7" transform="rotate(-0.0,506.4,155.5)">300.0</text>
<line x1="550.0" y1="594.0" x2="623.6196" y2="122.0" style="stroke:rgb(164.985,164.985,0.0);stroke-width:3.0" />
<line x1="623.6196" y1="122.0" x2="743.6196" y2="136.75" style="stroke:rgb(164.985,164.985,0.0);stroke-width:3.0" />
<line x1="743.6196" y1="136.75" x2="910.0" y2="343.25" style="stroke:rgb(164.985,164.985,0.0);stroke-width:3.0" />
<text x="726.475" y="58.5" stroke="#000000" stroke-width="1.2"  transform="rotate(0,726.475,58.5)">TITLE</text>
<text x="727.05" y="635.4" stroke="#000000" stroke-width="1.2"  transform="rotate(0,727.05,635.4)">X-Axis</text>
<text x="515.0" y="376.1" stroke="#000000" stroke-width="1.2"  transform="rotate(-90.0,515.0,376.1)">Y-Axis</text>
<rect x="570.0" y="86.0" width="67.880005" height="24.0" style="fill:rgb(255.0,255.0,255.0);stroke-width:2.0;stroke:rgb(0.0,0.0,0.0)" />
<rect x="578.0" y="94.0" width="8.0" height="8.0" style="fill:rgb(164.985,164.985,0.0);stroke-width:0;stroke:rgb(0,0,0)" />
<text x="594.0" y="102.0" stroke="#000000" stroke-width="1.2"  transform="rotate(0,594.0,102.0)">Plot 2</text>
</svg>