<svg height="660.0" width="1000.0" version="4.0" xmlns="http://www.w3.org/2000/svg" xmlns:xlink= "http://www.w3.org/1999/xlink">
<rect width="100%" height="100%" fill="white"/>
<line x1="100.0" y1="297.0" x2="100.0" y2="33.0" style="stroke:rgb(127.5,127.5,127.5);stroke-width:0.5;opacity:1.0;stroke-linecap:round" />
<line x1="245.19427" y1="297.0" x2="245.19427" y2="33.0" style="stroke:rgb(127.5,127.5,127.5);stroke-width:0.5;opacity:1.0;stroke-linecap:round" />
<line x1="390.38855" y1="297.0" x2="390.38855" y2="33.0" style="stroke:rgb(127.5,127.5,127.5);stroke-width:0.5;opacity:1.0;stroke-linecap:round" />
<line x1="535.5828" y1="297.0" x2="535.5828" y2="33.0" style="stroke:rgb(127.5,127.5,127.5);stroke-width:0.5;opacity:1.0;stroke-linecap:round" />
<line x1="680.7771" y1="297.0" x2="680.7771" y2="33.0" style="stroke:rgb(127.5,127.5,127.5);stroke-width:0.5;opacity:1.0;stroke-linecap:round" />
<line x1="825.9714" y1="297.0" x2="825.9714" y2="33.0" style="stroke:rgb(127.5,127.5,127.5);stroke-width:0.5;opacity:1.0;stroke-linecap:round" />
<line x1="100.0" y1="297.0" x2="900.0" y2="297.0" style="stroke:rgb(127.5,127.5,127.5);stroke-width:0.5;opacity:1.0;stroke-linecap:round" />
<line x1="100.0" y1="221.6875" x2="900.0" y2="221.6875" style="stroke:rgb(127.5,127.5,127.5);stroke-width:0.5;opacity:1.0;stroke-linecap:round" />
<line x1="100.0" y1="146.375" x2="900.0" y2="146.375" style="stroke:rgb(127.5,127.5,127.5);stroke-width:0.5;opacity:1.0;stroke-linecap:round" />
<line x1="100.0" y1="71.0625" x2="900.0" y2="71.0625" style="stroke:rgb(127.5,127.5,127.5);stroke-width:0.5;opacity:1.0;stroke-linecap:round" />
<rect x="100.0" y="33.0" width="800.0" height="264.0" style="fill:rgb(255,255,255);stroke-width:2.0;stroke:rgb(0,0,0);opacity:1;fill-opacity:0;" />
<line x1="100.0" y1="300.0" x2="100.0" y2="297.0" style="stroke:rgb(0.0,0.0,0.0);stroke-width:2.0;opacity:1.0;stroke-linecap:round" />
<text x="91.58" y="312.0" stroke="#000000" stroke-width="0.7" transform="rotate(-0.0,91.58,312.0)">0.0</text>
<line x1="245.19427" y1="300.0" x2="245.19427" y2="297.0" style="stroke:rgb(0.0,0.0,0.0);stroke-width:2.0;opacity:1.0;stroke-linecap:round" />
<text x="234.21428" y="312.0" stroke="#000000" stroke-width="0.7" transform="rotate(-0.0,234.21428,312.0)">100.0</text>
<line x1="390.38855" y1="300.0" x2="390.38855" y2="297.0" style="stroke:rgb(0.0,0.0,0.0);stroke-width:2.0;opacity:1.0;stroke-linecap:round" />
<text x="379.08856" y="312.0" stroke="#000000" stroke-width="0.7" transform="rotate(-0.0,379.08856,312.0)">200.0</text>
<line x1="535.5828" y1="300.0" x2="535.5828" y2="297.0" style="stroke:rgb(0.0,0.0,0.0);stroke-width:2.0;opacity:1.0;stroke-linecap:round" />
<text x="524.28284" y="312.0" stroke="#000000" stroke-width="0.7" transform="rotate(-0.0,524.28284,312.0)">300.0</text>
<line x1="680.7771" y1="300.0" x2="680.7771" y2="297.0" style="stroke:rgb(0.0,0.0,0.0);stroke-width:2.0;opacity:1.0;stroke-linecap:round" />
<text x="669.4771" y="312.0" stroke="#000000" stroke-width="0.7" transform="rotate(-0.0,669.4771,312.0)">400.0</text>
<line x1="825.9714" y1="300.0" x2="825.9714" y2="297.0" style="stroke:rgb(0.0,0.0,0.0);stroke-width:2.0;opacity:1.0;stroke-linecap:round" />
<text x="814.6714" y="312.0" stroke="#000000" stroke-width="0.7" transform="rotate(-0.0,814.6714,312.0)">500.0</text>
<line x1="97.0" y1="297.0" x2="100.0" y2="297.0" style="stroke:rgb(0.0,0.0,0.0);stroke-width:2.0;opacity:1.0;stroke-linecap:round" />
<text x="62.16" y="301.0" stroke="#000000" stroke-width="0.7" transform="rotate(-0.0,62.16,301.0)">0.0</text>
<line x1="97.0" y1="221.6875" x2="100.0" y2="221.6875" style="stroke:rgb(0.0,0.0,0.0);stroke-width:2.0;opacity:1.0;stroke-linecap:round" />
<text x="57.04" y="225.6875" stroke="#000000" stroke-width="0.7" transform="rotate(-0.0,57.04,225.6875)">100.0</text>
<line x1="97.0" y1="146.375" x2="100.0" y2="146.375" style="stroke:rgb(0.0,0.0,0.0);stroke-width:2.0;opacity:1.0;stroke-linecap:round" />
<text x="56.4" y="150.375" stroke="#000000" stroke-width="0.7" transform="rotate(-0.0,56.4,150.375)">200.0</text>
<line x1="97.0" y1="71.0625" x2="100.0" y2="71.0625" style="stroke:rgb(0.0,0.0,0.0);stroke-width:2.0;opacity:1.0;stroke-linecap:round" />
<text x="56.4" y="75.0625" stroke="#000000" stroke-width="0.7" transform="rotate(-0.0,56.4,75.0625)">300.0</text>
<line x1="100.0" y1="297.0" x2="245.19427" y2="56.0" style="stroke:rgb(206.04001,206.04001,235.11);stroke-width:3.0;opacity:1.0;stroke-linecap:round" />
<line x1="245.19427" y1="56.0" x2="481.86096" y2="63.53125" style="stroke:rgb(206.04001,206.04001,235.11);stroke-width:3.0;opacity:1.0;stroke-linecap:round" />
<line x1="481.86096" y1="63.53125" x2="810.0" y2="168.96877" style="stroke:rgb(206.04001,206.04001,235.11);stroke-width:3.0;opacity:1.0;stroke-linecap:round" />
<text x="473.4" y="25.5" stroke="#000000" stroke-width="1.2" transform="rotate(-0.0,473.4,25.5)">PLOT 1</text>
<text x="476.8" y="320.2" stroke="#000000" stroke-width="1.2" transform="rotate(-0.0,476.8,320.2)">X-AXIS</text>
<text x="50.0" y="211.6" stroke="#000000" stroke-width="1.2" transform="rotate(-90.0,50.0,211.6)">Y-AXIS</text>
<rect x="120.0" y="53.0" width="67.23999" height="24.0" style="fill:rgb(255.0,255.0,255.0);stroke-width:2.0;stroke:rgb(0.0,0.0,0.0);opacity:0.7" />
<rect x="128.0" y="61.0" width="8.0" height="8.0" style="fill:rgb(206.04001,206.04001,235.11);stroke-width:0;stroke:rgb(0,0,0);opacity:1.0" />
<text x="144.0" y="69.0" stroke="#000000" stroke-width="1.2" transform="rotate(-0.0,144.0,69.0)">Plot 1</text>
<line x1="100.0" y1="627.0" x2="100.0" y2="363.0" style="stroke:rgb(127.5,127.5,127.5);stroke-width:0.5;opacity:1.0;stroke-linecap:round" />
<line x1="245.19427" y1="627.0" x2="245.19427" y2="363.0" style="stroke:rgb(127.5,127.5,127.5);stroke-width:0.5;opacity:1.0;stroke-linecap:round" />
<line x1="390.38855" y1="627.0" x2="390.38855" y2="363.0" style="stroke:rgb(127.5,127.5,127.5);stroke-width:0.5;opacity:1.0;stroke-linecap:round" />
<line x1="535.5828" y1="627.0" x2="535.5828" y2="363.0" style="stroke:rgb(127.5,127.5,127.5);stroke-width:0.5;opacity:1.0;stroke-linecap:round" />
<line x1="680.7771" y1="627.0" x2="680.7771" y2="363.0" style="stroke:rgb(127.5,127.5,127.5);stroke-width:0.5;opacity:1.0;stroke-linecap:round" />
<line x1="825.9714" y1="627.0" x2="825.9714" y2="363.0" style="stroke:rgb(127.5,127.5,127.5);stroke-width:0.5;opacity:1.0;stroke-linecap:round" />
<line x1="100.0" y1="627.0" x2="900.0" y2="627.0" style="stroke:rgb(127.5,127.5,127.5);stroke-width:0.5;opacity:1.0;stroke-linecap:round" />
<line x1="100.0" y1="551.6875" x2="900.0" y2="551.6875" style="stroke:rgb(127.5,127.5,127.5);stroke-width:0.5;opacity:1.0;stroke-linecap:round" />
<line x1="100.0" y1="476.375" x2="900.0" y2="476.375" style="stroke:rgb(127.5,127.5,127.5);stroke-width:0.5;opacity:1.0;stroke-linecap:round" />
<line x1="100.0" y1="401.0625" x2="900.0" y2="401.0625" style="stroke:rgb(127.5,127.5,127.5);stroke-width:0.5;opacity:1.0;stroke-linecap:round" />
<rect x="100.0" y="363.0" width="800.0" height="264.0" style="fill:rgb(255,255,255);stroke-width:2.0;stroke:rgb(0,0,0);opacity:1;fill-opacity:0;" />
<line x1="100.0" y1="630.0" x2="100.0" y2="627.0" style="stroke:rgb(0.0,0.0,0.0);stroke-width:2.0;opacity:1.0;stroke-linecap:round" />
<text x="91.58" y="642.0" stroke="#000000" stroke-width="0.7" transform="rotate(-0.0,91.58,642.0)">0.0</text>
<line x1="245.19427" y1="630.0" x2="245.19427" y2="627.0" style="stroke:rgb(0.0,0.0,0.0);stroke-width:2.0;opacity:1.0;stroke-linecap:round" />
<text x="234.21428" y="642.0" stroke="#000000" stroke-width="0.7" transform="rotate(-0.0,234.21428,642.0)">100.0</text>
<line x1="390.38855" y1="630.0" x2="390.38855" y2="627.0" style="stroke:rgb(0.0,0.0,0.0);stroke-width:2.0;opacity:1.0;stroke-linecap:round" />
<text x="379.08856" y="642.0" stroke="#000000" stroke-width="0.7" transform="rotate(-0.0,379.08856,642.0)">200.0</text>
<line x1="535.5828" y1="630.0" x2="535.5828" y2="627.0" style="stroke:rgb(0.0,0.0,0.0);stroke-width:2.0;opacity:1.0;stroke-linecap:round" />
<text x="524.28284" y="642.0" stroke="#000000" stroke-width="0.7" transform="rotate(-0.0,524.28284,642.0)">300.0</text>
<line x1="680.7771" y1="630.0" x2="680.7771" y2="627.0" style="stroke:rgb(0.0,0.0,0.0);stroke-width:2.0;opacity:1.0;stroke-linecap:round" />
<text x="669.4771" y="642.0" stroke="#000000" stroke-width="0.7" transform="rotate(-0.0,669.4771,642.0)">400.0</text>
<line x1="825.9714" y1="630.0" x2="825.9714" y2="627.0" style="stroke:rgb(0.0,0.0,0.0);stroke-width:2.0;opacity:1.0;stroke-linecap:round" />
<text x="814.6714" y="642.0" stroke="#000000" stroke-width="0.7" transform="rotate(-0.0,814.6714,642.0)">500.0</text>
<line x1="97.0" y1="627.0" x2="100.0" y2="627.0" style="stroke:rgb(0.0,0.0,0.0);stroke-width:2.0;opacity:1.0;stroke-linecap:round" />
<text x="62.16" y="631.0" stroke="#000000" stroke-width="0.7" transform="rotate(-0.0,62.16,631.0)">0.0</text>
<line x1="97.0" y1="551.6875" x2="100.0" y2="551.6875" style="stroke:rgb(0.0,0.0,0.0);stroke-width:2.0;opacity:1.0;stroke-linecap:round" />
<text x="57.04" y="555.6875" stroke="#000000" stroke-width="0.7" transform="rotate(-0.0,57.04,555.6875)">100.0</text>
<line x1="97.0" y1="476.375" x2="100.0" y2="476.375" style="stroke:rgb(0.0,0.0,0.0);stroke-width:2.0;opacity:1.0;stroke-linecap:round" />
<text x="56.4" y="480.375" stroke="#000000" stroke-width="0.7" transform="rotate(-0.0,56.4,480.375)">200.0</text>
<line x1="97.0" y1="401.0625" x2="100.0" y2="401.0625" style="stroke:rgb(0.0,0.0,0.0);stroke-width:2.0;opacity:1.0;stroke-linecap:round" />
<text x="56.4" y="405.0625" stroke="#000000" stroke-width="0.7" transform="rotate(-0.0,56.4,405.0625)">300.0</text>
<line x1="100.0" y1="627.0" x2="245.19427" y2="386.0" style="stroke:rgb(164.985,164.985,0.0);stroke-width:3.0;opacity:1.0;stroke-linecap:round" />
<line x1="245.19427" y1="386.0" x2="481.86096" y2="393.53125" style="stroke:rgb(164.985,164.985,0.0);stroke-width:3.0;opacity:1.0;stroke-linecap:round" />
<line x1="481.86096" y1="393.53125" x2="810.0" y2="498.96875" style="stroke:rgb(164.985,164.985,0.0);stroke-width:3.0;opacity:1.0;stroke-linecap:round" />
<text x="472.8" y="355.5" stroke="#000000" stroke-width="1.2" transform="rotate(-0.0,472.8,355.5)">PLOT 2</text>
<text x="476.8" y="650.2" stroke="#000000" stroke-width="1.2" transform="rotate(-0.0,476.8,650.2)">X-AXIS</text>
<text x="50.0" y="541.6" stroke="#000000" stroke-width="1.2" transform="rotate(-90.0,50.0,541.6)">Y-AXIS</text>
<rect x="120.0" y="383.0" width="67.880005" height="24.0" style="fill:rgb(255.0,255.0,255.0);stroke-width:2.0;stroke:rgb(0.0,0.0,0.0);opacity:0.7" />
<rect x="128.0" y="391.0" width="8.0" height="8.0" style="fill:rgb(164.985,164.985,0.0);stroke-width:0;stroke:rgb(0,0,0);opacity:1.0" />
<text x="144.0" y="399.0" stroke="#000000" stroke-width="1.2" transform="rotate(-0.0,144.0,399.0)">Plot 2</text>
</svg>