<svg height="660.0" width="1000.0" version="4.0" xmlns="http://www.w3.org/2000/svg" xmlns:xlink= "http://www.w3.org/1999/xlink">
<rect width="100%" height="100%" fill="white"/>
<defs><style type="text/css">@font-face {font-family: DejaVuSans;src: url('DejaVuSans.ttf');}</style></defs>
<line x1="100.0" y1="297.0" x2="100.0" y2="33.0" style="stroke:rgb(127.5,127.5,127.5);stroke-width:0.5;opacity:1.0;stroke-linecap:round" />
<line x1="245.19427" y1="297.0" x2="245.19427" y2="33.0" style="stroke:rgb(127.5,127.5,127.5);stroke-width:0.5;opacity:1.0;stroke-linecap:round" />
<line x1="390.38855" y1="297.0" x2="390.38855" y2="33.0" style="stroke:rgb(127.5,127.5,127.5);stroke-width:0.5;opacity:1.0;stroke-linecap:round" />
<line x1="535.5828" y1="297.0" x2="535.5828" y2="33.0" style="stroke:rgb(127.5,127.5,127.5);stroke-width:0.5;opacity:1.0;stroke-linecap:round" />
<line x1="680.7771" y1="297.0" x2="680.7771" y2="33.0" style="stroke:rgb(127.5,127.5,127.5);stroke-width:0.5;opacity:1.0;stroke-linecap:round" />
<line x1="825.9714" y1="297.0" x2="825.9714" y2="33.0" style="stroke:rgb(127.5,127.5,127.5);stroke-width:0.5;opacity:1.0;stroke-linecap:round" />
<line x1="100.0" y1="297.0" x2="900.0" y2="297.0" style="stroke:rgb(127.5,127.5,127.5);stroke-width:0.5;opacity:1.0;stroke-linecap:round" />
<line x1="100.0" y1="221.6875" x2="900.0" y2="221.6875" style="stroke:rgb(127.5,127.5,127.5);stroke-width:0.5;opacity:1.0;stroke-linecap:round" />
<line x1="100.0" y1="146.375" x2="900.0" y2="146.375" style="stroke:rgb(127.5,127.5,127.5);stroke-width:0.5;opacity:1.0;stroke-linecap:round" />
<line x1="100.0" y1="71.0625" x2="900.0" y2="71.0625" style="stroke:rgb(127.5,127.5,127.5);stroke-width:0.5;opacity:1.0;stroke-linecap:round" />
<rect x="100.0" y="33.0" width="800.0" height="264.0" style="fill:rgb(255,255,255);stroke-width:2.0;stroke:rgb(0,0,0);opacity:1;fill-opacity:0;" />
<line x1="100.0" y1="303.0" x2="100.0" y2="297.0" style="stroke:rgb(0.0,0.0,0.0);stroke-width:2.0;opacity:1.0;stroke-linecap:round" />
<text font-size="12.0" font-family="DejaVuSans" x="86.62" y="317.0" stroke="#000000" stroke-width="0.175" transform="rotate(-0.0,86.62,317.0)">0.0</text>
<line x1="245.19427" y1="303.0" x2="245.19427" y2="297.0" style="stroke:rgb(0.0,0.0,0.0);stroke-width:2.0;opacity:1.0;stroke-linecap:round" />
<text font-size="12.0" font-family="DejaVuSans" x="227.97427" y="317.0" stroke="#000000" stroke-width="0.175" transform="rotate(-0.0,227.97427,317.0)">100.0</text>
<line x1="390.38855" y1="303.0" x2="390.38855" y2="297.0" style="stroke:rgb(0.0,0.0,0.0);stroke-width:2.0;opacity:1.0;stroke-linecap:round" />
<text font-size="12.0" font-family="DejaVuSans" x="372.68854" y="317.0" stroke="#000000" stroke-width="0.175" transform="rotate(-0.0,372.68854,317.0)">200.0</text>
<line x1="535.5828" y1="303.0" x2="535.5828" y2="297.0" style="stroke:rgb(0.0,0.0,0.0);stroke-width:2.0;opacity:1.0;stroke-linecap:round" />
<text font-size="12.0" font-family="DejaVuSans" x="517.8828" y="317.0" stroke="#000000" stroke-width="0.175" transform="rotate(-0.0,517.8828,317.0)">300.0</text>
<line x1="680.7771" y1="303.0" x2="680.7771" y2="297.0" style="stroke:rgb(0.0,0.0,0.0);stroke-width:2.0;opacity:1.0;stroke-linecap:round" />
<text font-size="12.0" font-family="DejaVuSans" x="663.0771" y="317.0" stroke="#000000" stroke-width="0.175" transform="rotate(-0.0,663.0771,317.0)">400.0</text>
<line x1="825.9714" y1="303.0" x2="825.9714" y2="297.0" style="stroke:rgb(0.0,0.0,0.0);stroke-width:2.0;opacity:1.0;stroke-linecap:round" />
<text font-size="12.0" font-family="DejaVuSans" x="808.27136" y="317.0" stroke="#000000" stroke-width="0.175" transform="rotate(-0.0,808.27136,317.0)">500.0</text>
<line x1="94.0" y1="297.0" x2="100.0" y2="297.0" style="stroke:rgb(0.0,0.0,0.0);stroke-width:2.0;opacity:1.0;stroke-linecap:round" />
<text font-size="12.0" font-family="DejaVuSans" x="55.24" y="301.0" stroke="#000000" stroke-width="0.175" transform="rotate(-0.0,55.24,301.0)">0.0</text>
<line x1="94.0" y1="221.6875" x2="100.0" y2="221.6875" style="stroke:rgb(0.0,0.0,0.0);stroke-width:2.0;opacity:1.0;stroke-linecap:round" />
<text font-size="12.0" font-family="DejaVuSans" x="47.56" y="225.6875" stroke="#000000" stroke-width="0.175" transform="rotate(-0.0,47.56,225.6875)">100.0</text>
<line x1="94.0" y1="146.375" x2="100.0" y2="146.375" style="stroke:rgb(0.0,0.0,0.0);stroke-width:2.0;opacity:1.0;stroke-linecap:round" />
<text font-size="12.0" font-family="DejaVuSans" x="46.6" y="150.375" stroke="#000000" stroke-width="0.175" transform="rotate(-0.0,46.6,150.375)">200.0</text>
<line x1="94.0" y1="71.0625" x2="100.0" y2="71.0625" style="stroke:rgb(0.0,0.0,0.0);stroke-width:2.0;opacity:1.0;stroke-linecap:round" />
<text font-size="12.0" font-family="DejaVuSans" x="46.6" y="75.0625" stroke="#000000" stroke-width="0.175" transform="rotate(-0.0,46.6,75.0625)">300.0</text>
<line x1="100.0" y1="297.0" x2="245.19427" y2="56.0" style="stroke:rgb(206.04001,206.04001,235.11);stroke-width:3.0;opacity:1.0;stroke-linecap:round" />
<line x1="245.19427" y1="56.0" x2="481.86096" y2="63.53125" style="stroke:rgb(206.04001,206.04001,235.11);stroke-width:3.0;opacity:1.0;stroke-linecap:round" />
<line x1="481.86096" y1="63.53125" x2="810.0" y2="168.96877" style="stroke:rgb(206.04001,206.04001,235.11);stroke-width:3.0;opacity:1.0;stroke-linecap:round" />
<text font-size="20.0" font-family="DejaVuSans" x="468.7" y="23.0" stroke="#000000" stroke-width="0.3" transform="rotate(-0.0,468.7,23.0)">PLOT 1</text>
<text font-size="15.0" font-family="DejaVuSans" x="471.45" y="325.2" stroke="#000000" stroke-width="0.3" transform="rotate(-0.0,471.45,325.2)">X-AXIS</text>
<text font-size="15.0" font-family="DejaVuSans" x="45.0" y="222.4" stroke="#000000" stroke-width="0.3" transform="rotate(-90.0,45.0,222.4)">Y-AXIS</text>
<rect x="120.0" y="53.0" width="77.8" height="30.0" style="fill:rgb(255.0,255.0,255.0);stroke-width:2.0;stroke:rgb(0.0,0.0,0.0);opacity:0.7" />
<rect x="130.0" y="63.0" width="10.0" height="10.0" style="fill:rgb(206.04001,206.04001,235.11);stroke-width:0;stroke:rgb(0,0,0);opacity:1.0" />
<text font-size="10.0" font-family="DejaVuSans" x="150.0" y="73.0" stroke="#000000" stroke-width="0.3" transform="rotate(-0.0,150.0,73.0)">Plot 1</text>
<line x1="100.0" y1="627.0" x2="100.0" y2="363.0" style="stroke:rgb(127.5,127.5,127.5);stroke-width:0.5;opacity:1.0;stroke-linecap:round" />
<line x1="245.19427" y1="627.0" x2="245.19427" y2="363.0" style="stroke:rgb(127.5,127.5,127.5);stroke-width:0.5;opacity:1.0;stroke-linecap:round" />
<line x1="390.38855" y1="627.0" x2="390.38855" y2="363.0" style="stroke:rgb(127.5,127.5,127.5);stroke-width:0.5;opacity:1.0;stroke-linecap:round" />
<line x1="535.5828" y1="627.0" x2="535.5828" y2="363.0" style="stroke:rgb(127.5,127.5,127.5);stroke-width:0.5;opacity:1.0;stroke-linecap:round" />
<line x1="680.7771" y1="627.0" x2="680.7771" y2="363.0" style="stroke:rgb(127.5,127.5,127.5);stroke-width:0.5;opacity:1.0;stroke-linecap:round" />
<line x1="825.9714" y1="627.0" x2="825.9714" y2="363.0" style="stroke:rgb(127.5,127.5,127.5);stroke-width:0.5;opacity:1.0;stroke-linecap:round" />
<line x1="100.0" y1="627.0" x2="900.0" y2="627.0" style="stroke:rgb(127.5,127.5,127.5);stroke-width:0.5;opacity:1.0;stroke-linecap:round" />
<line x1="100.0" y1="551.6875" x2="900.0" y2="551.6875" style="stroke:rgb(127.5,127.5,127.5);stroke-width:0.5;opacity:1.0;stroke-linecap:round" />
<line x1="100.0" y1="476.375" x2="900.0" y2="476.375" style="stroke:rgb(127.5,127.5,127.5);stroke-width:0.5;opacity:1.0;stroke-linecap:round" />
<line x1="100.0" y1="401.0625" x2="900.0" y2="401.0625" style="stroke:rgb(127.5,127.5,127.5);stroke-width:0.5;opacity:1.0;stroke-linecap:round" />
<rect x="100.0" y="363.0" width="800.0" height="264.0" style="fill:rgb(255,255,255);stroke-width:2.0;stroke:rgb(0,0,0);opacity:1;fill-opacity:0;" />
<line x1="100.0" y1="633.0" x2="100.0" y2="627.0" style="stroke:rgb(0.0,0.0,0.0);stroke-width:2.0;opacity:1.0;stroke-linecap:round" />
<text font-size="12.0" font-family="DejaVuSans" x="86.62" y="647.0" stroke="#000000" stroke-width="0.175" transform="rotate(-0.0,86.62,647.0)">0.0</text>
<line x1="245.19427" y1="633.0" x2="245.19427" y2="627.0" style="stroke:rgb(0.0,0.0,0.0);stroke-width:2.0;opacity:1.0;stroke-linecap:round" />
<text font-size="12.0" font-family="DejaVuSans" x="227.97427" y="647.0" stroke="#000000" stroke-width="0.175" transform="rotate(-0.0,227.97427,647.0)">100.0</text>
<line x1="390.38855" y1="633.0" x2="390.38855" y2="627.0" style="stroke:rgb(0.0,0.0,0.0);stroke-width:2.0;opacity:1.0;stroke-linecap:round" />
<text font-size="12.0" font-family="DejaVuSans" x="372.68854" y="647.0" stroke="#000000" stroke-width="0.175" transform="rotate(-0.0,372.68854,647.0)">200.0</text>
<line x1="535.5828" y1="633.0" x2="535.5828" y2="627.0" style="stroke:rgb(0.0,0.0,0.0);stroke-width:2.0;opacity:1.0;stroke-linecap:round" />
<text font-size="12.0" font-family="DejaVuSans" x="517.8828" y="647.0" stroke="#000000" stroke-width="0.175" transform="rotate(-0.0,517.8828,647.0)">300.0</text>
<line x1="680.7771" y1="633.0" x2="680.7771" y2="627.0" style="stroke:rgb(0.0,0.0,0.0);stroke-width:2.0;opacity:1.0;stroke-linecap:round" />
<text font-size="12.0" font-family="DejaVuSans" x="663.0771" y="647.0" stroke="#000000" stroke-width="0.175" transform="rotate(-0.0,663.0771,647.0)">400.0</text>
<line x1="825.9714" y1="633.0" x2="825.9714" y2="627.0" style="stroke:rgb(0.0,0.0,0.0);stroke-width:2.0;opacity:1.0;stroke-linecap:round" />
<text font-size="12.0" font-family="DejaVuSans" x="808.27136" y="647.0" stroke="#000000" stroke-width="0.175" transform="rotate(-0.0,808.27136,647.0)">500.0</text>
<line x1="94.0" y1="627.0" x2="100.0" y2="627.0" style="stroke:rgb(0.0,0.0,0.0);stroke-width:2.0;opacity:1.0;stroke-linecap:round" />
<text font-size="12.0" font-family="DejaVuSans" x="55.24" y="631.0" stroke="#000000" stroke-width="0.175" transform="rotate(-0.0,55.24,631.0)">0.0</text>
<line x1="94.0" y1="551.6875" x2="100.0" y2="551.6875" style="stroke:rgb(0.0,0.0,0.0);stroke-width:2.0;opacity:1.0;stroke-linecap:round" />
<text font-size="12.0" font-family="DejaVuSans" x="47.56" y="555.6875" stroke="#000000" stroke-width="0.175" transform="rotate(-0.0,47.56,555.6875)">100.0</text>
<line x1="94.0" y1="476.375" x2="100.0" y2="476.375" style="stroke:rgb(0.0,0.0,0.0);stroke-width:2.0;opacity:1.0;stroke-linecap:round" />
<text font-size="12.0" font-family="DejaVuSans" x="46.6" y="480.375" stroke="#000000" stroke-width="0.175" transform="rotate(-0.0,46.6,480.375)">200.0</text>
<line x1="94.0" y1="401.0625" x2="100.0" y2="401.0625" style="stroke:rgb(0.0,0.0,0.0);stroke-width:2.0;opacity:1.0;stroke-linecap:round" />
<text font-size="12.0" font-family="DejaVuSans" x="46.6" y="405.0625" stroke="#000000" stroke-width="0.175" transform="rotate(-0.0,46.6,405.0625)">300.0</text>
<line x1="100.0" y1="627.0" x2="245.19427" y2="386.0" style="stroke:rgb(164.985,164.985,0.0);stroke-width:3.0;opacity:1.0;stroke-linecap:round" />
<line x1="245.19427" y1="386.0" x2="481.86096" y2="393.53125" style="stroke:rgb(164.985,164.985,0.0);stroke-width:3.0;opacity:1.0;stroke-linecap:round" />
<line x1="481.86096" y1="393.53125" x2="810.0" y2="498.96875" style="stroke:rgb(164.985,164.985,0.0);stroke-width:3.0;opacity:1.0;stroke-linecap:round" />
<text font-size="20.0" font-family="DejaVuSans" x="467.9" y="353.0" stroke="#000000" stroke-width="0.3" transform="rotate(-0.0,467.9,353.0)">PLOT 2</text>
<text font-size="15.0" font-family="DejaVuSans" x="471.45" y="655.2" stroke="#000000" stroke-width="0.3" transform="rotate(-0.0,471.45,655.2)">X-AXIS</text>
<text font-size="15.0" font-family="DejaVuSans" x="45.0" y="552.4" stroke="#000000" stroke-width="0.3" transform="rotate(-90.0,45.0,552.4)">Y-AXIS</text>
<rect x="120.0" y="383.0" width="78.600006" height="30.0" style="fill:rgb(255.0,255.0,255.0);stroke-width:2.0;stroke:rgb(0.0,0.0,0.0);opacity:0.7" />
<rect x="130.0" y="393.0" width="10.0" height="10.0" style="fill:rgb(164.985,164.985,0.0);stroke-width:0;stroke:rgb(0,0,0);opacity:1.0" />
<text font-size="10.0" font-family="DejaVuSans" x="150.0" y="403.0" stroke="#000000" stroke-width="0.3" transform="rotate(-0.0,150.0,403.0)">Plot 2</text>
</svg>