<svg height="660.0" width="1000.0" version="4.0" xmlns="http://www.w3.org/2000/svg" xmlns:xlink= "http://www.w3.org/1999/xlink">
<rect width="100%" height="100%" fill="white"/>
<defs><style>@import url("https://fonts.googleapis.com/css?family=Roboto");</style></defs>
<line x1="50.0" y1="297.0" x2="50.0" y2="33.0" style="stroke:rgb(127.5,127.5,127.5);stroke-width:0.5;opacity:1.0;stroke-linecap:round" />
<line x1="123.61963" y1="297.0" x2="123.61963" y2="33.0" style="stroke:rgb(127.5,127.5,127.5);stroke-width:0.5;opacity:1.0;stroke-linecap:round" />
<line x1="197.23926" y1="297.0" x2="197.23926" y2="33.0" style="stroke:rgb(127.5,127.5,127.5);stroke-width:0.5;opacity:1.0;stroke-linecap:round" />
<line x1="270.8589" y1="297.0" x2="270.8589" y2="33.0" style="stroke:rgb(127.5,127.5,127.5);stroke-width:0.5;opacity:1.0;stroke-linecap:round" />
<line x1="344.47852" y1="297.0" x2="344.47852" y2="33.0" style="stroke:rgb(127.5,127.5,127.5);stroke-width:0.5;opacity:1.0;stroke-linecap:round" />
<line x1="418.09814" y1="297.0" x2="418.09814" y2="33.0" style="stroke:rgb(127.5,127.5,127.5);stroke-width:0.5;opacity:1.0;stroke-linecap:round" />
<line x1="50.0" y1="297.0" x2="450.0" y2="297.0" style="stroke:rgb(127.5,127.5,127.5);stroke-width:0.5;opacity:1.0;stroke-linecap:round" />
<line x1="50.0" y1="221.6875" x2="450.0" y2="221.6875" style="stroke:rgb(127.5,127.5,127.5);stroke-width:0.5;opacity:1.0;stroke-linecap:round" />
<line x1="50.0" y1="146.375" x2="450.0" y2="146.375" style="stroke:rgb(127.5,127.5,127.5);stroke-width:0.5;opacity:1.0;stroke-linecap:round" />
<line x1="50.0" y1="71.0625" x2="450.0" y2="71.0625" style="stroke:rgb(127.5,127.5,127.5);stroke-width:0.5;opacity:1.0;stroke-linecap:round" />
<rect x="50.0" y="33.0" width="400.0" height="264.0" style="fill:rgb(255,255,255);stroke-width:2.0;stroke:rgb(0,0,0);opacity:1;fill-opacity:0;" />
<line x1="50.0" y1="303.0" x2="50.0" y2="297.0" style="stroke:rgb(0.0,0.0,0.0);stroke-width:2.0;opacity:1.0;stroke-linecap:round" />
<text font-size="12.0" font-family="Roboto" x="36.620003" y="317.0" stroke="#000000" stroke-width="0.175" transform="rotate(-0.0,36.620003,317.0)">0.0</text>
<line x1="123.61963" y1="303.0" x2="123.61963" y2="297.0" style="stroke:rgb(0.0,0.0,0.0);stroke-width:2.0;opacity:1.0;stroke-linecap:round" />
<text font-size="12.0" font-family="Roboto" x="106.39963" y="317.0" stroke="#000000" stroke-width="0.175" transform="rotate(-0.0,106.39963,317.0)">100.0</text>
<line x1="197.23926" y1="303.0" x2="197.23926" y2="297.0" style="stroke:rgb(0.0,0.0,0.0);stroke-width:2.0;opacity:1.0;stroke-linecap:round" />
<text font-size="12.0" font-family="Roboto" x="179.53926" y="317.0" stroke="#000000" stroke-width="0.175" transform="rotate(-0.0,179.53926,317.0)">200.0</text>
<line x1="270.8589" y1="303.0" x2="270.8589" y2="297.0" style="stroke:rgb(0.0,0.0,0.0);stroke-width:2.0;opacity:1.0;stroke-linecap:round" />
<text font-size="12.0" font-family="Roboto" x="253.15889" y="317.0" stroke="#000000" stroke-width="0.175" transform="rotate(-0.0,253.15889,317.0)">300.0</text>
<line x1="344.47852" y1="303.0" x2="344.47852" y2="297.0" style="stroke:rgb(0.0,0.0,0.0);stroke-width:2.0;opacity:1.0;stroke-linecap:round" />
<text font-size="12.0" font-family="Roboto" x="326.7785" y="317.0" stroke="#000000" stroke-width="0.175" transform="rotate(-0.0,326.7785,317.0)">400.0</text>
<line x1="418.09814" y1="303.0" x2="418.09814" y2="297.0" style="stroke:rgb(0.0,0.0,0.0);stroke-width:2.0;opacity:1.0;stroke-linecap:round" />
<text font-size="12.0" font-family="Roboto" x="400.39813" y="317.0" stroke="#000000" stroke-width="0.175" transform="rotate(-0.0,400.39813,317.0)">500.0</text>
<line x1="44.0" y1="297.0" x2="50.0" y2="297.0" style="stroke:rgb(0.0,0.0,0.0);stroke-width:2.0;opacity:1.0;stroke-linecap:round" />
<text font-size="12.0" font-family="Roboto" x="5.2400017" y="301.0" stroke="#000000" stroke-width="0.175" transform="rotate(-0.0,5.2400017,301.0)">0.0</text>
<line x1="44.0" y1="221.6875" x2="50.0" y2="221.6875" style="stroke:rgb(0.0,0.0,0.0);stroke-width:2.0;opacity:1.0;stroke-linecap:round" />
<text font-size="12.0" font-family="Roboto" x="-2.4399986" y="225.6875" stroke="#000000" stroke-width="0.175" transform="rotate(-0.0,-2.4399986,225.6875)">100.0</text>
<line x1="44.0" y1="146.375" x2="50.0" y2="146.375" style="stroke:rgb(0.0,0.0,0.0);stroke-width:2.0;opacity:1.0;stroke-linecap:round" />
<text font-size="12.0" font-family="Roboto" x="-3.4000015" y="150.375" stroke="#000000" stroke-width="0.175" transform="rotate(-0.0,-3.4000015,150.375)">200.0</text>
<line x1="44.0" y1="71.0625" x2="50.0" y2="71.0625" style="stroke:rgb(0.0,0.0,0.0);stroke-width:2.0;opacity:1.0;stroke-linecap:round" />
<text font-size="12.0" font-family="Roboto" x="-3.4000015" y="75.0625" stroke="#000000" stroke-width="0.175" transform="rotate(-0.0,-3.4000015,75.0625)">300.0</text>
<line x1="50.0" y1="297.0" x2="123.61964" y2="56.0" style="stroke:rgb(206.04001,206.04001,235.11);stroke-width:3.0;opacity:1.0;stroke-linecap:round" />
<line x1="123.61964" y1="56.0" x2="243.61964" y2="63.53125" style="stroke:rgb(206.04001,206.04001,235.11);stroke-width:3.0;opacity:1.0;stroke-linecap:round" />
<line x1="243.61964" y1="63.53125" x2="410.0" y2="168.96877" style="stroke:rgb(206.04001,206.04001,235.11);stroke-width:3.0;opacity:1.0;stroke-linecap:round" />
<text font-size="20.0" font-family="Roboto" x="218.7" y="23.0" stroke="#000000" stroke-width="0.3" transform="rotate(-0.0,218.7,23.0)">PLOT 1</text>
<text font-size="15.0" font-family="Roboto" x="221.45" y="325.2" stroke="#000000" stroke-width="0.3" transform="rotate(-0.0,221.45,325.2)">X-AXIS</text>
<text font-size="15.0" font-family="Roboto" x="15.0" y="222.4" stroke="#000000" stroke-width="0.3" transform="rotate(-90.0,15.0,222.4)">Y-AXIS</text>
<rect x="70.0" y="53.0" width="77.8" height="30.0" style="fill:rgb(255.0,255.0,255.0);stroke-width:2.0;stroke:rgb(0.0,0.0,0.0);opacity:0.7" />
<rect x="80.0" y="63.0" width="10.0" height="10.0" style="fill:rgb(206.04001,206.04001,235.11);stroke-width:0;stroke:rgb(0,0,0);opacity:1.0" />
<text font-size="10.0" font-family="Roboto" x="100.0" y="73.0" stroke="#000000" stroke-width="0.3" transform="rotate(-0.0,100.0,73.0)">Plot 1</text>
<line x1="550.0" y1="297.0" x2="550.0" y2="33.0" style="stroke:rgb(127.5,127.5,127.5);stroke-width:0.5;opacity:1.0;stroke-linecap:round" />
<line x1="623.6196" y1="297.0" x2="623.6196" y2="33.0" style="stroke:rgb(127.5,127.5,127.5);stroke-width:0.5;opacity:1.0;stroke-linecap:round" />
<line x1="697.23926" y1="297.0" x2="697.23926" y2="33.0" style="stroke:rgb(127.5,127.5,127.5);stroke-width:0.5;opacity:1.0;stroke-linecap:round" />
<line x1="770.8589" y1="297.0" x2="770.8589" y2="33.0" style="stroke:rgb(127.5,127.5,127.5);stroke-width:0.5;opacity:1.0;stroke-linecap:round" />
<line x1="844.4785" y1="297.0" x2="844.4785" y2="33.0" style="stroke:rgb(127.5,127.5,127.5);stroke-width:0.5;opacity:1.0;stroke-linecap:round" />
<line x1="918.09814" y1="297.0" x2="918.09814" y2="33.0" style="stroke:rgb(127.5,127.5,127.5);stroke-width:0.5;opacity:1.0;stroke-linecap:round" />
<line x1="550.0" y1="297.0" x2="950.0" y2="297.0" style="stroke:rgb(127.5,127.5,127.5);stroke-width:0.5;opacity:1.0;stroke-linecap:round" />
<line x1="550.0" y1="221.6875" x2="950.0" y2="221.6875" style="stroke:rgb(127.5,127.5,127.5);stroke-width:0.5;opacity:1.0;stroke-linecap:round" />
<line x1="550.0" y1="146.375" x2="950.0" y2="146.375" style="stroke:rgb(127.5,127.5,127.5);stroke-width:0.5;opacity:1.0;stroke-linecap:round" />
<line x1="550.0" y1="71.0625" x2="950.0" y2="71.0625" style="stroke:rgb(127.5,127.5,127.5);stroke-width:0.5;opacity:1.0;stroke-linecap:round" />
<rect x="550.0" y="33.0" width="400.0" height="264.0" style="fill:rgb(255,255,255);stroke-width:2.0;stroke:rgb(0,0,0);opacity:1;fill-opacity:0;" />
<line x1="550.0" y1="303.0" x2="550.0" y2="297.0" style="stroke:rgb(0.0,0.0,0.0);stroke-width:2.0;opacity:1.0;stroke-linecap:round" />
<text font-size="12.0" font-family="Roboto" x="536.62" y="317.0" stroke="#000000" stroke-width="0.175" transform="rotate(-0.0,536.62,317.0)">0.0</text>
<line x1="623.6196" y1="303.0" x2="623.6196" y2="297.0" style="stroke:rgb(0.0,0.0,0.0);stroke-width:2.0;opacity:1.0;stroke-linecap:round" />
<text font-size="12.0" font-family="Roboto" x="606.39966" y="317.0" stroke="#000000" stroke-width="0.175" transform="rotate(-0.0,606.39966,317.0)">100.0</text>
<line x1="697.23926" y1="303.0" x2="697.23926" y2="297.0" style="stroke:rgb(0.0,0.0,0.0);stroke-width:2.0;opacity:1.0;stroke-linecap:round" />
<text font-size="12.0" font-family="Roboto" x="679.53925" y="317.0" stroke="#000000" stroke-width="0.175" transform="rotate(-0.0,679.53925,317.0)">200.0</text>
<line x1="770.8589" y1="303.0" x2="770.8589" y2="297.0" style="stroke:rgb(0.0,0.0,0.0);stroke-width:2.0;opacity:1.0;stroke-linecap:round" />
<text font-size="12.0" font-family="Roboto" x="753.1589" y="317.0" stroke="#000000" stroke-width="0.175" transform="rotate(-0.0,753.1589,317.0)">300.0</text>
<line x1="844.4785" y1="303.0" x2="844.4785" y2="297.0" style="stroke:rgb(0.0,0.0,0.0);stroke-width:2.0;opacity:1.0;stroke-linecap:round" />
<text font-size="12.0" font-family="Roboto" x="826.7785" y="317.0" stroke="#000000" stroke-width="0.175" transform="rotate(-0.0,826.7785,317.0)">400.0</text>
<line x1="918.09814" y1="303.0" x2="918.09814" y2="297.0" style="stroke:rgb(0.0,0.0,0.0);stroke-width:2.0;opacity:1.0;stroke-linecap:round" />
<text font-size="12.0" font-family="Roboto" x="900.39813" y="317.0" stroke="#000000" stroke-width="0.175" transform="rotate(-0.0,900.39813,317.0)">500.0</text>
<line x1="544.0" y1="297.0" x2="550.0" y2="297.0" style="stroke:rgb(0.0,0.0,0.0);stroke-width:2.0;opacity:1.0;stroke-linecap:round" />
<text font-size="12.0" font-family="Roboto" x="505.24" y="301.0" stroke="#000000" stroke-width="0.175" transform="rotate(-0.0,505.24,301.0)">0.0</text>
<line x1="544.0" y1="221.6875" x2="550.0" y2="221.6875" style="stroke:rgb(0.0,0.0,0.0);stroke-width:2.0;opacity:1.0;stroke-linecap:round" />
<text font-size="12.0" font-family="Roboto" x="497.56" y="225.6875" stroke="#000000" stroke-width="0.175" transform="rotate(-0.0,497.56,225.6875)">100.0</text>
<line x1="544.0" y1="146.375" x2="550.0" y2="146.375" style="stroke:rgb(0.0,0.0,0.0);stroke-width:2.0;opacity:1.0;stroke-linecap:round" />
<text font-size="12.0" font-family="Roboto" x="496.6" y="150.375" stroke="#000000" stroke-width="0.175" transform="rotate(-0.0,496.6,150.375)">200.0</text>
<line x1="544.0" y1="71.0625" x2="550.0" y2="71.0625" style="stroke:rgb(0.0,0.0,0.0);stroke-width:2.0;opacity:1.0;stroke-linecap:round" />
<text font-size="12.0" font-family="Roboto" x="496.6" y="75.0625" stroke="#000000" stroke-width="0.175" transform="rotate(-0.0,496.6,75.0625)">300.0</text>
<line x1="550.0" y1="297.0" x2="623.6196" y2="56.0" style="stroke:rgb(164.985,164.985,0.0);stroke-width:3.0;opacity:1.0;stroke-linecap:round" />
<line x1="623.6196" y1="56.0" x2="743.6196" y2="63.53125" style="stroke:rgb(164.985,164.985,0.0);stroke-width:3.0;opacity:1.0;stroke-linecap:round" />
<line x1="743.6196" y1="63.53125" x2="910.0" y2="168.96877" style="stroke:rgb(164.985,164.985,0.0);stroke-width:3.0;opacity:1.0;stroke-linecap:round" />
<text font-size="20.0" font-family="Roboto" x="717.9" y="23.0" stroke="#000000" stroke-width="0.3" transform="rotate(-0.0,717.9,23.0)">PLOT 2</text>
<text font-size="15.0" font-family="Roboto" x="721.45" y="325.2" stroke="#000000" stroke-width="0.3" transform="rotate(-0.0,721.45,325.2)">X-AXIS</text>
<text font-size="15.0" font-family="Roboto" x="515.0" y="222.4" stroke="#000000" stroke-width="0.3" transform="rotate(-90.0,515.0,222.4)">Y-AXIS</text>
<rect x="570.0" y="53.0" width="78.600006" height="30.0" style="fill:rgb(255.0,255.0,255.0);stroke-width:2.0;stroke:rgb(0.0,0.0,0.0);opacity:0.7" />
<rect x="580.0" y="63.0" width="10.0" height="10.0" style="fill:rgb(164.985,164.985,0.0);stroke-width:0;stroke:rgb(0,0,0);opacity:1.0" />
<text font-size="10.0" font-family="Roboto" x="600.0" y="73.0" stroke="#000000" stroke-width="0.3" transform="rotate(-0.0,600.0,73.0)">Plot 2</text>
<line x1="50.0" y1="627.0" x2="50.0" y2="363.0" style="stroke:rgb(127.5,127.5,127.5);stroke-width:0.5;opacity:1.0;stroke-linecap:round" />
<line x1="123.61963" y1="627.0" x2="123.61963" y2="363.0" style="stroke:rgb(127.5,127.5,127.5);stroke-width:0.5;opacity:1.0;stroke-linecap:round" />
<line x1="197.23926" y1="627.0" x2="197.23926" y2="363.0" style="stroke:rgb(127.5,127.5,127.5);stroke-width:0.5;opacity:1.0;stroke-linecap:round" />
<line x1="270.8589" y1="627.0" x2="270.8589" y2="363.0" style="stroke:rgb(127.5,127.5,127.5);stroke-width:0.5;opacity:1.0;stroke-linecap:round" />
<line x1="344.47852" y1="627.0" x2="344.47852" y2="363.0" style="stroke:rgb(127.5,127.5,127.5);stroke-width:0.5;opacity:1.0;stroke-linecap:round" />
<line x1="418.09814" y1="627.0" x2="418.09814" y2="363.0" style="stroke:rgb(127.5,127.5,127.5);stroke-width:0.5;opacity:1.0;stroke-linecap:round" />
<line x1="50.0" y1="627.0" x2="450.0" y2="627.0" style="stroke:rgb(127.5,127.5,127.5);stroke-width:0.5;opacity:1.0;stroke-linecap:round" />
<line x1="50.0" y1="551.6875" x2="450.0" y2="551.6875" style="stroke:rgb(127.5,127.5,127.5);stroke-width:0.5;opacity:1.0;stroke-linecap:round" />
<line x1="50.0" y1="476.375" x2="450.0" y2="476.375" style="stroke:rgb(127.5,127.5,127.5);stroke-width:0.5;opacity:1.0;stroke-linecap:round" />
<line x1="50.0" y1="401.0625" x2="450.0" y2="401.0625" style="stroke:rgb(127.5,127.5,127.5);stroke-width:0.5;opacity:1.0;stroke-linecap:round" />
<rect x="50.0" y="363.0" width="400.0" height="264.0" style="fill:rgb(255,255,255);stroke-width:2.0;stroke:rgb(0,0,0);opacity:1;fill-opacity:0;" />
<line x1="50.0" y1="633.0" x2="50.0" y2="627.0" style="stroke:rgb(0.0,0.0,0.0);stroke-width:2.0;opacity:1.0;stroke-linecap:round" />
<text font-size="12.0" font-family="Roboto" x="36.620003" y="647.0" stroke="#000000" stroke-width="0.175" transform="rotate(-0.0,36.620003,647.0)">0.0</text>
<line x1="123.61963" y1="633.0" x2="123.61963" y2="627.0" style="stroke:rgb(0.0,0.0,0.0);stroke-width:2.0;opacity:1.0;stroke-linecap:round" />
<text font-size="12.0" font-family="Roboto" x="106.39963" y="647.0" stroke="#000000" stroke-width="0.175" transform="rotate(-0.0,106.39963,647.0)">100.0</text>
<line x1="197.23926" y1="633.0" x2="197.23926" y2="627.0" style="stroke:rgb(0.0,0.0,0.0);stroke-width:2.0;opacity:1.0;stroke-linecap:round" />
<text font-size="12.0" font-family="Roboto" x="179.53926" y="647.0" stroke="#000000" stroke-width="0.175" transform="rotate(-0.0,179.53926,647.0)">200.0</text>
<line x1="270.8589" y1="633.0" x2="270.8589" y2="627.0" style="stroke:rgb(0.0,0.0,0.0);stroke-width:2.0;opacity:1.0;stroke-linecap:round" />
<text font-size="12.0" font-family="Roboto" x="253.15889" y="647.0" stroke="#000000" stroke-width="0.175" transform="rotate(-0.0,253.15889,647.0)">300.0</text>
<line x1="344.47852" y1="633.0" x2="344.47852" y2="627.0" style="stroke:rgb(0.0,0.0,0.0);stroke-width:2.0;opacity:1.0;stroke-linecap:round" />
<text font-size="12.0" font-family="Roboto" x="326.7785" y="647.0" stroke="#000000" stroke-width="0.175" transform="rotate(-0.0,326.7785,647.0)">400.0</text>
<line x1="418.09814" y1="633.0" x2="418.09814" y2="627.0" style="stroke:rgb(0.0,0.0,0.0);stroke-width:2.0;opacity:1.0;stroke-linecap:round" />
<text font-size="12.0" font-family="Roboto" x="400.39813" y="647.0" stroke="#000000" stroke-width="0.175" transform="rotate(-0.0,400.39813,647.0)">500.0</text>
<line x1="44.0" y1="627.0" x2="50.0" y2="627.0" style="stroke:rgb(0.0,0.0,0.0);stroke-width:2.0;opacity:1.0;stroke-linecap:round" />
<text font-size="12.0" font-family="Roboto" x="5.2400017" y="631.0" stroke="#000000" stroke-width="0.175" transform="rotate(-0.0,5.2400017,631.0)">0.0</text>
<line x1="44.0" y1="551.6875" x2="50.0" y2="551.6875" style="stroke:rgb(0.0,0.0,0.0);stroke-width:2.0;opacity:1.0;stroke-linecap:round" />
<text font-size="12.0" font-family="Roboto" x="-2.4399986" y="555.6875" stroke="#000000" stroke-width="0.175" transform="rotate(-0.0,-2.4399986,555.6875)">100.0</text>
<line x1="44.0" y1="476.375" x2="50.0" y2="476.375" style="stroke:rgb(0.0,0.0,0.0);stroke-width:2.0;opacity:1.0;stroke-linecap:round" />
<text font-size="12.0" font-family="Roboto" x="-3.4000015" y="480.375" stroke="#000000" stroke-width="0.175" transform="rotate(-0.0,-3.4000015,480.375)">200.0</text>
<line x1="44.0" y1="401.0625" x2="50.0" y2="401.0625" style="stroke:rgb(0.0,0.0,0.0);stroke-width:2.0;opacity:1.0;stroke-linecap:round" />
<text font-size="12.0" font-family="Roboto" x="-3.4000015" y="405.0625" stroke="#000000" stroke-width="0.175" transform="rotate(-0.0,-3.4000015,405.0625)">300.0</text>
<line x1="50.0" y1="627.0" x2="123.61964" y2="386.0" style="stroke:rgb(68.850006,68.850006,25.5);stroke-width:3.0;opacity:1.0;stroke-linecap:round" />
<line x1="123.61964" y1="386.0" x2="243.61964" y2="393.53125" style="stroke:rgb(68.850006,68.850006,25.5);stroke-width:3.0;opacity:1.0;stroke-linecap:round" />
<line x1="243.61964" y1="393.53125" x2="410.0" y2="498.96875" style="stroke:rgb(68.850006,68.850006,25.5);stroke-width:3.0;opacity:1.0;stroke-linecap:round" />
<text font-size="20.0" font-family="Roboto" x="217.9" y="353.0" stroke="#000000" stroke-width="0.3" transform="rotate(-0.0,217.9,353.0)">PLOT 3</text>
<text font-size="15.0" font-family="Roboto" x="221.45" y="655.2" stroke="#000000" stroke-width="0.3" transform="rotate(-0.0,221.45,655.2)">X-AXIS</text>
<text font-size="15.0" font-family="Roboto" x="15.0" y="552.4" stroke="#000000" stroke-width="0.3" transform="rotate(-90.0,15.0,552.4)">Y-AXIS</text>
<rect x="70.0" y="383.0" width="78.600006" height="30.0" style="fill:rgb(255.0,255.0,255.0);stroke-width:2.0;stroke:rgb(0.0,0.0,0.0);opacity:0.7" />
<rect x="80.0" y="393.0" width="10.0" height="10.0" style="fill:rgb(68.850006,68.850006,25.5);stroke-width:0;stroke:rgb(0,0,0);opacity:1.0" />
<text font-size="10.0" font-family="Roboto" x="100.0" y="403.0" stroke="#000000" stroke-width="0.3" transform="rotate(-0.0,100.0,403.0)">Plot 3</text>
<line x1="550.0" y1="627.0" x2="550.0" y2="363.0" style="stroke:rgb(127.5,127.5,127.5);stroke-width:0.5;opacity:1.0;stroke-linecap:round" />
<line x1="623.6196" y1="627.0" x2="623.6196" y2="363.0" style="stroke:rgb(127.5,127.5,127.5);stroke-width:0.5;opacity:1.0;stroke-linecap:round" />
<line x1="697.23926" y1="627.0" x2="697.23926" y2="363.0" style="stroke:rgb(127.5,127.5,127.5);stroke-width:0.5;opacity:1.0;stroke-linecap:round" />
<line x1="770.8589" y1="627.0" x2="770.8589" y2="363.0" style="stroke:rgb(127.5,127.5,127.5);stroke-width:0.5;opacity:1.0;stroke-linecap:round" />
<line x1="844.4785" y1="627.0" x2="844.4785" y2="363.0" style="stroke:rgb(127.5,127.5,127.5);stroke-width:0.5;opacity:1.0;stroke-linecap:round" />
<line x1="918.09814" y1="627.0" x2="918.09814" y2="363.0" style="stroke:rgb(127.5,127.5,127.5);stroke-width:0.5;opacity:1.0;stroke-linecap:round" />
<line x1="550.0" y1="627.0" x2="950.0" y2="627.0" style="stroke:rgb(127.5,127.5,127.5);stroke-width:0.5;opacity:1.0;stroke-linecap:round" />
<line x1="550.0" y1="551.6875" x2="950.0" y2="551.6875" style="stroke:rgb(127.5,127.5,127.5);stroke-width:0.5;opacity:1.0;stroke-linecap:round" />
<line x1="550.0" y1="476.375" x2="950.0" y2="476.375" style="stroke:rgb(127.5,127.5,127.5);stroke-width:0.5;opacity:1.0;stroke-linecap:round" />
<line x1="550.0" y1="401.0625" x2="950.0" y2="401.0625" style="stroke:rgb(127.5,127.5,127.5);stroke-width:0.5;opacity:1.0;stroke-linecap:round" />
<rect x="550.0" y="363.0" width="400.0" height="264.0" style="fill:rgb(255,255,255);stroke-width:2.0;stroke:rgb(0,0,0);opacity:1;fill-opacity:0;" />
<line x1="550.0" y1="633.0" x2="550.0" y2="627.0" style="stroke:rgb(0.0,0.0,0.0);stroke-width:2.0;opacity:1.0;stroke-linecap:round" />
<text font-size="12.0" font-family="Roboto" x="536.62" y="647.0" stroke="#000000" stroke-width="0.175" transform="rotate(-0.0,536.62,647.0)">0.0</text>
<line x1="623.6196" y1="633.0" x2="623.6196" y2="627.0" style="stroke:rgb(0.0,0.0,0.0);stroke-width:2.0;opacity:1.0;stroke-linecap:round" />
<text font-size="12.0" font-family="Roboto" x="606.39966" y="647.0" stroke="#000000" stroke-width="0.175" transform="rotate(-0.0,606.39966,647.0)">100.0</text>
<line x1="697.23926" y1="633.0" x2="697.23926" y2="627.0" style="stroke:rgb(0.0,0.0,0.0);stroke-width:2.0;opacity:1.0;stroke-linecap:round" />
<text font-size="12.0" font-family="Roboto" x="679.53925" y="647.0" stroke="#000000" stroke-width="0.175" transform="rotate(-0.0,679.53925,647.0)">200.0</text>
<line x1="770.8589" y1="633.0" x2="770.8589" y2="627.0" style="stroke:rgb(0.0,0.0,0.0);stroke-width:2.0;opacity:1.0;stroke-linecap:round" />
<text font-size="12.0" font-family="Roboto" x="753.1589" y="647.0" stroke="#000000" stroke-width="0.175" transform="rotate(-0.0,753.1589,647.0)">300.0</text>
<line x1="844.4785" y1="633.0" x2="844.4785" y2="627.0" style="stroke:rgb(0.0,0.0,0.0);stroke-width:2.0;opacity:1.0;stroke-linecap:round" />
<text font-size="12.0" font-family="Roboto" x="826.7785" y="647.0" stroke="#000000" stroke-width="0.175" transform="rotate(-0.0,826.7785,647.0)">400.0</text>
<line x1="918.09814" y1="633.0" x2="918.09814" y2="627.0" style="stroke:rgb(0.0,0.0,0.0);stroke-width:2.0;opacity:1.0;stroke-linecap:round" />
<text font-size="12.0" font-family="Roboto" x="900.39813" y="647.0" stroke="#000000" stroke-width="0.175" transform="rotate(-0.0,900.39813,647.0)">500.0</text>
<line x1="544.0" y1="627.0" x2="550.0" y2="627.0" style="stroke:rgb(0.0,0.0,0.0);stroke-width:2.0;opacity:1.0;stroke-linecap:round" />
<text font-size="12.0" font-family="Roboto" x="505.24" y="631.0" stroke="#000000" stroke-width="0.175" transform="rotate(-0.0,505.24,631.0)">0.0</text>
<line x1="544.0" y1="551.6875" x2="550.0" y2="551.6875" style="stroke:rgb(0.0,0.0,0.0);stroke-width:2.0;opacity:1.0;stroke-linecap:round" />
<text font-size="12.0" font-family="Roboto" x="497.56" y="555.6875" stroke="#000000" stroke-width="0.175" transform="rotate(-0.0,497.56,555.6875)">100.0</text>
<line x1="544.0" y1="476.375" x2="550.0" y2="476.375" style="stroke:rgb(0.0,0.0,0.0);stroke-width:2.0;opacity:1.0;stroke-linecap:round" />
<text font-size="12.0" font-family="Roboto" x="496.6" y="480.375" stroke="#000000" stroke-width="0.175" transform="rotate(-0.0,496.6,480.375)">200.0</text>
<line x1="544.0" y1="401.0625" x2="550.0" y2="401.0625" style="stroke:rgb(0.0,0.0,0.0);stroke-width:2.0;opacity:1.0;stroke-linecap:round" />
<text font-size="12.0" font-family="Roboto" x="496.6" y="405.0625" stroke="#000000" stroke-width="0.175" transform="rotate(-0.0,496.6,405.0625)">300.0</text>
<line x1="550.0" y1="627.0" x2="623.6196" y2="386.0" style="stroke:rgb(127.5,127.5,0.0);stroke-width:3.0;opacity:1.0;stroke-linecap:round" />
<line x1="623.6196" y1="386.0" x2="743.6196" y2="393.53125" style="stroke:rgb(127.5,127.5,0.0);stroke-width:3.0;opacity:1.0;stroke-linecap:round" />
<line x1="743.6196" y1="393.53125" x2="910.0" y2="498.96875" style="stroke:rgb(127.5,127.5,0.0);stroke-width:3.0;opacity:1.0;stroke-linecap:round" />
<text font-size="20.0" font-family="Roboto" x="717.9" y="353.0" stroke="#000000" stroke-width="0.3" transform="rotate(-0.0,717.9,353.0)">PLOT 4</text>
<text font-size="15.0" font-family="Roboto" x="721.45" y="655.2" stroke="#000000" stroke-width="0.3" transform="rotate(-0.0,721.45,655.2)">X-AXIS</text>
<text font-size="15.0" font-family="Roboto" x="515.0" y="552.4" stroke="#000000" stroke-width="0.3" transform="rotate(-90.0,515.0,552.4)">Y-AXIS</text>
<rect x="570.0" y="383.0" width="78.600006" height="30.0" style="fill:rgb(255.0,255.0,255.0);stroke-width:2.0;stroke:rgb(0.0,0.0,0.0);opacity:0.7" />
<rect x="580.0" y="393.0" width="10.0" height="10.0" style="fill:rgb(127.5,127.5,0.0);stroke-width:0;stroke:rgb(0,0,0);opacity:1.0" />
<text font-size="10.0" font-family="Roboto" x="600.0" y="403.0" stroke="#000000" stroke-width="0.3" transform="rotate(-0.0,600.0,403.0)">Plot 4</text>
</svg>