<svg height="660.0" width="1000.0" version="4.0" xmlns="http://www.w3.org/2000/svg" xmlns:xlink= "http://www.w3.org/1999/xlink">
<rect width="100%" height="100%" fill="white"/>
<defs><style>@import url("https://fonts.googleapis.com/css?family=Roboto");</style></defs>
<line x1="60.0" y1="297.0" x2="60.0" y2="33.0" style="stroke:rgb(127.5,127.5,127.5);stroke-width:0.5;opacity:1.0;stroke-linecap:round" />
<line x1="137.70961" y1="297.0" x2="137.70961" y2="33.0" style="stroke:rgb(127.5,127.5,127.5);stroke-width:0.5;opacity:1.0;stroke-linecap:round" />
<line x1="215.41922" y1="297.0" x2="215.41922" y2="33.0" style="stroke:rgb(127.5,127.5,127.5);stroke-width:0.5;opacity:1.0;stroke-linecap:round" />
<line x1="293.12885" y1="297.0" x2="293.12885" y2="33.0" style="stroke:rgb(127.5,127.5,127.5);stroke-width:0.5;opacity:1.0;stroke-linecap:round" />
<line x1="370.83844" y1="297.0" x2="370.83844" y2="33.0" style="stroke:rgb(127.5,127.5,127.5);stroke-width:0.5;opacity:1.0;stroke-linecap:round" />
<line x1="448.54803" y1="297.0" x2="448.54803" y2="33.0" style="stroke:rgb(127.5,127.5,127.5);stroke-width:0.5;opacity:1.0;stroke-linecap:round" />
<line x1="50.0" y1="293.8" x2="450.0" y2="293.8" style="stroke:rgb(127.5,127.5,127.5);stroke-width:0.5;opacity:1.0;stroke-linecap:round" />
<line x1="50.0" y1="213.3" x2="450.0" y2="213.3" style="stroke:rgb(127.5,127.5,127.5);stroke-width:0.5;opacity:1.0;stroke-linecap:round" />
<line x1="50.0" y1="132.8" x2="450.0" y2="132.8" style="stroke:rgb(127.5,127.5,127.5);stroke-width:0.5;opacity:1.0;stroke-linecap:round" />
<line x1="50.0" y1="52.299988" x2="450.0" y2="52.299988" style="stroke:rgb(127.5,127.5,127.5);stroke-width:0.5;opacity:1.0;stroke-linecap:round" />
<rect x="50.0" y="33.0" width="400.0" height="264.0" style="fill:rgb(255,255,255);stroke-width:2.0;stroke:rgb(0,0,0);opacity:1;fill-opacity:0;" />
<line x1="60.0" y1="303.0" x2="60.0" y2="297.0" style="stroke:rgb(0.0,0.0,0.0);stroke-width:2.0;opacity:1.0;stroke-linecap:round" />
<text font-size="12.0" font-family="Roboto" x="46.620003" y="317.0" stroke="#000000" stroke-width="0.175" transform="rotate(-0.0,46.620003,317.0)">0.0</text>
<line x1="137.70961" y1="303.0" x2="137.70961" y2="297.0" style="stroke:rgb(0.0,0.0,0.0);stroke-width:2.0;opacity:1.0;stroke-linecap:round" />
<text font-size="12.0" font-family="Roboto" x="120.48961" y="317.0" stroke="#000000" stroke-width="0.175" transform="rotate(-0.0,120.48961,317.0)">100.0</text>
<line x1="215.41922" y1="303.0" x2="215.41922" y2="297.0" style="stroke:rgb(0.0,0.0,0.0);stroke-width:2.0;opacity:1.0;stroke-linecap:round" />
<text font-size="12.0" font-family="Roboto" x="197.71922" y="317.0" stroke="#000000" stroke-width="0.175" transform="rotate(-0.0,197.71922,317.0)">200.0</text>
<line x1="293.12885" y1="303.0" x2="293.12885" y2="297.0" style="stroke:rgb(0.0,0.0,0.0);stroke-width:2.0;opacity:1.0;stroke-linecap:round" />
<text font-size="12.0" font-family="Roboto" x="275.42883" y="317.0" stroke="#000000" stroke-width="0.175" transform="rotate(-0.0,275.42883,317.0)">300.0</text>
<line x1="370.83844" y1="303.0" x2="370.83844" y2="297.0" style="stroke:rgb(0.0,0.0,0.0);stroke-width:2.0;opacity:1.0;stroke-linecap:round" />
<text font-size="12.0" font-family="Roboto" x="353.13843" y="317.0" stroke="#000000" stroke-width="0.175" transform="rotate(-0.0,353.13843,317.0)">400.0</text>
<line x1="448.54803" y1="303.0" x2="448.54803" y2="297.0" style="stroke:rgb(0.0,0.0,0.0);stroke-width:2.0;opacity:1.0;stroke-linecap:round" />
<text font-size="12.0" font-family="Roboto" x="430.84802" y="317.0" stroke="#000000" stroke-width="0.175" transform="rotate(-0.0,430.84802,317.0)">500.0</text>
<line x1="44.0" y1="293.8" x2="50.0" y2="293.8" style="stroke:rgb(0.0,0.0,0.0);stroke-width:2.0;opacity:1.0;stroke-linecap:round" />
<text font-size="12.0" font-family="Roboto" x="5.2400017" y="297.8" stroke="#000000" stroke-width="0.175" transform="rotate(-0.0,5.2400017,297.8)">0.0</text>
<line x1="44.0" y1="213.3" x2="50.0" y2="213.3" style="stroke:rgb(0.0,0.0,0.0);stroke-width:2.0;opacity:1.0;stroke-linecap:round" />
<text font-size="12.0" font-family="Roboto" x="-2.4399986" y="217.3" stroke="#000000" stroke-width="0.175" transform="rotate(-0.0,-2.4399986,217.3)">100.0</text>
<line x1="44.0" y1="132.8" x2="50.0" y2="132.8" style="stroke:rgb(0.0,0.0,0.0);stroke-width:2.0;opacity:1.0;stroke-linecap:round" />
<text font-size="12.0" font-family="Roboto" x="-3.4000015" y="136.8" stroke="#000000" stroke-width="0.175" transform="rotate(-0.0,-3.4000015,136.8)">200.0</text>
<line x1="44.0" y1="52.299988" x2="50.0" y2="52.299988" style="stroke:rgb(0.0,0.0,0.0);stroke-width:2.0;opacity:1.0;stroke-linecap:round" />
<text font-size="12.0" font-family="Roboto" x="-3.4000015" y="56.300003" stroke="#000000" stroke-width="0.175" transform="rotate(-0.0,-3.4000015,56.300003)">300.0</text>
<line x1="60.0" y1="293.8" x2="137.70961" y2="36.19998" style="stroke:rgb(206.04001,206.04001,235.11);stroke-width:1.5;opacity:1.0;stroke-linecap:round" />
<line x1="137.70961" y1="36.19998" x2="264.37628" y2="44.25" style="stroke:rgb(206.04001,206.04001,235.11);stroke-width:1.5;opacity:1.0;stroke-linecap:round" />
<line x1="264.37628" y1="44.25" x2="440.0" y2="156.95" style="stroke:rgb(206.04001,206.04001,235.11);stroke-width:1.5;opacity:1.0;stroke-linecap:round" />
<text font-size="20.0" font-family="Roboto" x="218.7" y="23.0" stroke="#000000" stroke-width="0.3" transform="rotate(-0.0,218.7,23.0)">PLOT 1</text>
<text font-size="15.0" font-family="Roboto" x="221.45" y="325.2" stroke="#000000" stroke-width="0.3" transform="rotate(-0.0,221.45,325.2)">X-AXIS</text>
<text font-size="15.0" font-family="Roboto" x="15.0" y="222.4" stroke="#000000" stroke-width="0.3" transform="rotate(-90.0,15.0,222.4)">Y-AXIS</text>
<rect x="70.0" y="53.0" width="77.8" height="30.0" style="fill:rgb(255.0,255.0,255.0);stroke-width:2.0;stroke:rgb(0.0,0.0,0.0);opacity:0.7" />
<rect x="80.0" y="63.0" width="10.0" height="10.0" style="fill:rgb(206.04001,206.04001,235.11);stroke-width:0;stroke:rgb(0,0,0);opacity:1.0" />
<text font-size="10.0" font-family="Roboto" x="100.0" y="73.0" stroke="#000000" stroke-width="0.3" transform="rotate(-0.0,100.0,73.0)">Plot 1</text>
<line x1="560.0" y1="297.0" x2="560.0" y2="33.0" style="stroke:rgb(127.5,127.5,127.5);stroke-width:0.5;opacity:1.0;stroke-linecap:round" />
<line x1="637.7096" y1="297.0" x2="637.7096" y2="33.0" style="stroke:rgb(127.5,127.5,127.5);stroke-width:0.5;opacity:1.0;stroke-linecap:round" />
<line x1="715.4192" y1="297.0" x2="715.4192" y2="33.0" style="stroke:rgb(127.5,127.5,127.5);stroke-width:0.5;opacity:1.0;stroke-linecap:round" />
<line x1="793.12885" y1="297.0" x2="793.12885" y2="33.0" style="stroke:rgb(127.5,127.5,127.5);stroke-width:0.5;opacity:1.0;stroke-linecap:round" />
<line x1="870.83844" y1="297.0" x2="870.83844" y2="33.0" style="stroke:rgb(127.5,127.5,127.5);stroke-width:0.5;opacity:1.0;stroke-linecap:round" />
<line x1="948.54803" y1="297.0" x2="948.54803" y2="33.0" style="stroke:rgb(127.5,127.5,127.5);stroke-width:0.5;opacity:1.0;stroke-linecap:round" />
<line x1="550.0" y1="293.8" x2="950.0" y2="293.8" style="stroke:rgb(127.5,127.5,127.5);stroke-width:0.5;opacity:1.0;stroke-linecap:round" />
<line x1="550.0" y1="213.3" x2="950.0" y2="213.3" style="stroke:rgb(127.5,127.5,127.5);stroke-width:0.5;opacity:1.0;stroke-linecap:round" />
<line x1="550.0" y1="132.8" x2="950.0" y2="132.8" style="stroke:rgb(127.5,127.5,127.5);stroke-width:0.5;opacity:1.0;stroke-linecap:round" />
<line x1="550.0" y1="52.299988" x2="950.0" y2="52.299988" style="stroke:rgb(127.5,127.5,127.5);stroke-width:0.5;opacity:1.0;stroke-linecap:round" />
<rect x="550.0" y="33.0" width="400.0" height="264.0" style="fill:rgb(255,255,255);stroke-width:2.0;stroke:rgb(0,0,0);opacity:1;fill-opacity:0;" />
<line x1="560.0" y1="303.0" x2="560.0" y2="297.0" style="stroke:rgb(0.0,0.0,0.0);stroke-width:2.0;opacity:1.0;stroke-linecap:round" />
<text font-size="12.0" font-family="Roboto" x="546.62" y="317.0" stroke="#000000" stroke-width="0.175" transform="rotate(-0.0,546.62,317.0)">0.0</text>
<line x1="637.7096" y1="303.0" x2="637.7096" y2="297.0" style="stroke:rgb(0.0,0.0,0.0);stroke-width:2.0;opacity:1.0;stroke-linecap:round" />
<text font-size="12.0" font-family="Roboto" x="620.4896" y="317.0" stroke="#000000" stroke-width="0.175" transform="rotate(-0.0,620.4896,317.0)">100.0</text>
<line x1="715.4192" y1="303.0" x2="715.4192" y2="297.0" style="stroke:rgb(0.0,0.0,0.0);stroke-width:2.0;opacity:1.0;stroke-linecap:round" />
<text font-size="12.0" font-family="Roboto" x="697.71924" y="317.0" stroke="#000000" stroke-width="0.175" transform="rotate(-0.0,697.71924,317.0)">200.0</text>
<line x1="793.12885" y1="303.0" x2="793.12885" y2="297.0" style="stroke:rgb(0.0,0.0,0.0);stroke-width:2.0;opacity:1.0;stroke-linecap:round" />
<text font-size="12.0" font-family="Roboto" x="775.42883" y="317.0" stroke="#000000" stroke-width="0.175" transform="rotate(-0.0,775.42883,317.0)">300.0</text>
<line x1="870.83844" y1="303.0" x2="870.83844" y2="297.0" style="stroke:rgb(0.0,0.0,0.0);stroke-width:2.0;opacity:1.0;stroke-linecap:round" />
<text font-size="12.0" font-family="Roboto" x="853.1384" y="317.0" stroke="#000000" stroke-width="0.175" transform="rotate(-0.0,853.1384,317.0)">400.0</text>
<line x1="948.54803" y1="303.0" x2="948.54803" y2="297.0" style="stroke:rgb(0.0,0.0,0.0);stroke-width:2.0;opacity:1.0;stroke-linecap:round" />
<text font-size="12.0" font-family="Roboto" x="930.848" y="317.0" stroke="#000000" stroke-width="0.175" transform="rotate(-0.0,930.848,317.0)">500.0</text>
<line x1="544.0" y1="293.8" x2="550.0" y2="293.8" style="stroke:rgb(0.0,0.0,0.0);stroke-width:2.0;opacity:1.0;stroke-linecap:round" />
<text font-size="12.0" font-family="Roboto" x="505.24" y="297.8" stroke="#000000" stroke-width="0.175" transform="rotate(-0.0,505.24,297.8)">0.0</text>
<line x1="544.0" y1="213.3" x2="550.0" y2="213.3" style="stroke:rgb(0.0,0.0,0.0);stroke-width:2.0;opacity:1.0;stroke-linecap:round" />
<text font-size="12.0" font-family="Roboto" x="497.56" y="217.3" stroke="#000000" stroke-width="0.175" transform="rotate(-0.0,497.56,217.3)">100.0</text>
<line x1="544.0" y1="132.8" x2="550.0" y2="132.8" style="stroke:rgb(0.0,0.0,0.0);stroke-width:2.0;opacity:1.0;stroke-linecap:round" />
<text font-size="12.0" font-family="Roboto" x="496.6" y="136.8" stroke="#000000" stroke-width="0.175" transform="rotate(-0.0,496.6,136.8)">200.0</text>
<line x1="544.0" y1="52.299988" x2="550.0" y2="52.299988" style="stroke:rgb(0.0,0.0,0.0);stroke-width:2.0;opacity:1.0;stroke-linecap:round" />
<text font-size="12.0" font-family="Roboto" x="496.6" y="56.300003" stroke="#000000" stroke-width="0.175" transform="rotate(-0.0,496.6,56.300003)">300.0</text>
<line x1="560.0" y1="293.8" x2="637.7096" y2="36.19998" style="stroke:rgb(164.985,164.985,0.0);stroke-width:1.5;opacity:1.0;stroke-linecap:round" />
<line x1="637.7096" y1="36.19998" x2="764.3763" y2="44.25" style="stroke:rgb(164.985,164.985,0.0);stroke-width:1.5;opacity:1.0;stroke-linecap:round" />
<line x1="764.3763" y1="44.25" x2="940.0" y2="156.95" style="stroke:rgb(164.985,164.985,0.0);stroke-width:1.5;opacity:1.0;stroke-linecap:round" />
<text font-size="20.0" font-family="Roboto" x="717.9" y="23.0" stroke="#000000" stroke-width="0.3" transform="rotate(-0.0,717.9,23.0)">PLOT 2</text>
<text font-size="15.0" font-family="Roboto" x="721.45" y="325.2" stroke="#000000" stroke-width="0.3" transform="rotate(-0.0,721.45,325.2)">X-AXIS</text>
<text font-size="15.0" font-family="Roboto" x="515.0" y="222.4" stroke="#000000" stroke-width="0.3" transform="rotate(-90.0,515.0,222.4)">Y-AXIS</text>
<rect x="570.0" y="53.0" width="78.600006" height="30.0" style="fill:rgb(255.0,255.0,255.0);stroke-width:2.0;stroke:rgb(0.0,0.0,0.0);opacity:0.7" />
<rect x="580.0" y="63.0" width="10.0" height="10.0" style="fill:rgb(164.985,164.985,0.0);stroke-width:0;stroke:rgb(0,0,0);opacity:1.0" />
<text font-size="10.0" font-family="Roboto" x="600.0" y="73.0" stroke="#000000" stroke-width="0.3" transform="rotate(-0.0,600.0,73.0)">Plot 2</text>
<line x1="60.0" y1="627.0" x2="60.0" y2="363.0" style="stroke:rgb(127.5,127.5,127.5);stroke-width:0.5;opacity:1.0;stroke-linecap:round" />
<line x1="137.70961" y1="627.0" x2="137.70961" y2="363.0" style="stroke:rgb(127.5,127.5,127.5);stroke-width:0.5;opacity:1.0;stroke-linecap:round" />
<line x1="215.41922" y1="627.0" x2="215.41922" y2="363.0" style="stroke:rgb(127.5,127.5,127.5);stroke-width:0.5;opacity:1.0;stroke-linecap:round" />
<line x1="293.12885" y1="627.0" x2="293.12885" y2="363.0" style="stroke:rgb(127.5,127.5,127.5);stroke-width:0.5;opacity:1.0;stroke-linecap:round" />
<line x1="370.83844" y1="627.0" x2="370.83844" y2="363.0" style="stroke:rgb(127.5,127.5,127.5);stroke-width:0.5;opacity:1.0;stroke-linecap:round" />
<line x1="448.54803" y1="627.0" x2="448.54803" y2="363.0" style="stroke:rgb(127.5,127.5,127.5);stroke-width:0.5;opacity:1.0;stroke-linecap:round" />
<line x1="50.0" y1="623.8" x2="450.0" y2="623.8" style="stroke:rgb(127.5,127.5,127.5);stroke-width:0.5;opacity:1.0;stroke-linecap:round" />
<line x1="50.0" y1="543.3" x2="450.0" y2="543.3" style="stroke:rgb(127.5,127.5,127.5);stroke-width:0.5;opacity:1.0;stroke-linecap:round" />
<line x1="50.0" y1="462.8" x2="450.0" y2="462.8" style="stroke:rgb(127.5,127.5,127.5);stroke-width:0.5;opacity:1.0;stroke-linecap:round" />
<line x1="50.0" y1="382.3" x2="450.0" y2="382.3" style="stroke:rgb(127.5,127.5,127.5);stroke-width:0.5;opacity:1.0;stroke-linecap:round" />
<rect x="50.0" y="363.0" width="400.0" height="264.0" style="fill:rgb(255,255,255);stroke-width:2.0;stroke:rgb(0,0,0);opacity:1;fill-opacity:0;" />
<line x1="60.0" y1="633.0" x2="60.0" y2="627.0" style="stroke:rgb(0.0,0.0,0.0);stroke-width:2.0;opacity:1.0;stroke-linecap:round" />
<text font-size="12.0" font-family="Roboto" x="46.620003" y="647.0" stroke="#000000" stroke-width="0.175" transform="rotate(-0.0,46.620003,647.0)">0.0</text>
<line x1="137.70961" y1="633.0" x2="137.70961" y2="627.0" style="stroke:rgb(0.0,0.0,0.0);stroke-width:2.0;opacity:1.0;stroke-linecap:round" />
<text font-size="12.0" font-family="Roboto" x="120.48961" y="647.0" stroke="#000000" stroke-width="0.175" transform="rotate(-0.0,120.48961,647.0)">100.0</text>
<line x1="215.41922" y1="633.0" x2="215.41922" y2="627.0" style="stroke:rgb(0.0,0.0,0.0);stroke-width:2.0;opacity:1.0;stroke-linecap:round" />
<text font-size="12.0" font-family="Roboto" x="197.71922" y="647.0" stroke="#000000" stroke-width="0.175" transform="rotate(-0.0,197.71922,647.0)">200.0</text>
<line x1="293.12885" y1="633.0" x2="293.12885" y2="627.0" style="stroke:rgb(0.0,0.0,0.0);stroke-width:2.0;opacity:1.0;stroke-linecap:round" />
<text font-size="12.0" font-family="Roboto" x="275.42883" y="647.0" stroke="#000000" stroke-width="0.175" transform="rotate(-0.0,275.42883,647.0)">300.0</text>
<line x1="370.83844" y1="633.0" x2="370.83844" y2="627.0" style="stroke:rgb(0.0,0.0,0.0);stroke-width:2.0;opacity:1.0;stroke-linecap:round" />
<text font-size="12.0" font-family="Roboto" x="353.13843" y="647.0" stroke="#000000" stroke-width="0.175" transform="rotate(-0.0,353.13843,647.0)">400.0</text>
<line x1="448.54803" y1="633.0" x2="448.54803" y2="627.0" style="stroke:rgb(0.0,0.0,0.0);stroke-width:2.0;opacity:1.0;stroke-linecap:round" />
<text font-size="12.0" font-family="Roboto" x="430.84802" y="647.0" stroke="#000000" stroke-width="0.175" transform="rotate(-0.0,430.84802,647.0)">500.0</text>
<line x1="44.0" y1="623.8" x2="50.0" y2="623.8" style="stroke:rgb(0.0,0.0,0.0);stroke-width:2.0;opacity:1.0;stroke-linecap:round" />
<text font-size="12.0" font-family="Roboto" x="5.2400017" y="627.8" stroke="#000000" stroke-width="0.175" transform="rotate(-0.0,5.2400017,627.8)">0.0</text>
<line x1="44.0" y1="543.3" x2="50.0" y2="543.3" style="stroke:rgb(0.0,0.0,0.0);stroke-width:2.0;opacity:1.0;stroke-linecap:round" />
<text font-size="12.0" font-family="Roboto" x="-2.4399986" y="547.3" stroke="#000000" stroke-width="0.175" transform="rotate(-0.0,-2.4399986,547.3)">100.0</text>
<line x1="44.0" y1="462.8" x2="50.0" y2="462.8" style="stroke:rgb(0.0,0.0,0.0);stroke-width:2.0;opacity:1.0;stroke-linecap:round" />
<text font-size="12.0" font-family="Roboto" x="-3.4000015" y="466.8" stroke="#000000" stroke-width="0.175" transform="rotate(-0.0,-3.4000015,466.8)">200.0</text>
<line x1="44.0" y1="382.3" x2="50.0" y2="382.3" style="stroke:rgb(0.0,0.0,0.0);stroke-width:2.0;opacity:1.0;stroke-linecap:round" />
<text font-size="12.0" font-family="Roboto" x="-3.4000015" y="386.3" stroke="#000000" stroke-width="0.175" transform="rotate(-0.0,-3.4000015,386.3)">300.0</text>
<line x1="60.0" y1="623.8" x2="137.70961" y2="366.19998" style="stroke:rgb(68.850006,68.850006,25.5);stroke-width:1.5;opacity:1.0;stroke-linecap:round" />
<line x1="137.70961" y1="366.19998" x2="264.37628" y2="374.25" style="stroke:rgb(68.850006,68.850006,25.5);stroke-width:1.5;opacity:1.0;stroke-linecap:round" />
<line x1="264.37628" y1="374.25" x2="440.0" y2="486.95" style="stroke:rgb(68.850006,68.850006,25.5);stroke-width:1.5;opacity:1.0;stroke-linecap:round" />
<text font-size="20.0" font-family="Roboto" x="217.9" y="353.0" stroke="#000000" stroke-width="0.3" transform="rotate(-0.0,217.9,353.0)">PLOT 3</text>
<text font-size="15.0" font-family="Roboto" x="221.45" y="655.2" stroke="#000000" stroke-width="0.3" transform="rotate(-0.0,221.45,655.2)">X-AXIS</text>
<text font-size="15.0" font-family="Roboto" x="15.0" y="552.4" stroke="#000000" stroke-width="0.3" transform="rotate(-90.0,15.0,552.4)">Y-AXIS</text>
<rect x="70.0" y="383.0" width="78.600006" height="30.0" style="fill:rgb(255.0,255.0,255.0);stroke-width:2.0;stroke:rgb(0.0,0.0,0.0);opacity:0.7" />
<rect x="80.0" y="393.0" width="10.0" height="10.0" style="fill:rgb(68.850006,68.850006,25.5);stroke-width:0;stroke:rgb(0,0,0);opacity:1.0" />
<text font-size="10.0" font-family="Roboto" x="100.0" y="403.0" stroke="#000000" stroke-width="0.3" transform="rotate(-0.0,100.0,403.0)">Plot 3</text>
<line x1="560.0" y1="627.0" x2="560.0" y2="363.0" style="stroke:rgb(127.5,127.5,127.5);stroke-width:0.5;opacity:1.0;stroke-linecap:round" />
<line x1="637.7096" y1="627.0" x2="637.7096" y2="363.0" style="stroke:rgb(127.5,127.5,127.5);stroke-width:0.5;opacity:1.0;stroke-linecap:round" />
<line x1="715.4192" y1="627.0" x2="715.4192" y2="363.0" style="stroke:rgb(127.5,127.5,127.5);stroke-width:0.5;opacity:1.0;stroke-linecap:round" />
<line x1="793.12885" y1="627.0" x2="793.12885" y2="363.0" style="stroke:rgb(127.5,127.5,127.5);stroke-width:0.5;opacity:1.0;stroke-linecap:round" />
<line x1="870.83844" y1="627.0" x2="870.83844" y2="363.0" style="stroke:rgb(127.5,127.5,127.5);stroke-width:0.5;opacity:1.0;stroke-linecap:round" />
<line x1="948.54803" y1="627.0" x2="948.54803" y2="363.0" style="stroke:rgb(127.5,127.5,127.5);stroke-width:0.5;opacity:1.0;stroke-linecap:round" />
<line x1="550.0" y1="623.8" x2="950.0" y2="623.8" style="stroke:rgb(127.5,127.5,127.5);stroke-width:0.5;opacity:1.0;stroke-linecap:round" />
<line x1="550.0" y1="543.3" x2="950.0" y2="543.3" style="stroke:rgb(127.5,127.5,127.5);stroke-width:0.5;opacity:1.0;stroke-linecap:round" />
<line x1="550.0" y1="462.8" x2="950.0" y2="462.8" style="stroke:rgb(127.5,127.5,127.5);stroke-width:0.5;opacity:1.0;stroke-linecap:round" />
<line x1="550.0" y1="382.3" x2="950.0" y2="382.3" style="stroke:rgb(127.5,127.5,127.5);stroke-width:0.5;opacity:1.0;stroke-linecap:round" />
<rect x="550.0" y="363.0" width="400.0" height="264.0" style="fill:rgb(255,255,255);stroke-width:2.0;stroke:rgb(0,0,0);opacity:1;fill-opacity:0;" />
<line x1="560.0" y1="633.0" x2="560.0" y2="627.0" style="stroke:rgb(0.0,0.0,0.0);stroke-width:2.0;opacity:1.0;stroke-linecap:round" />
<text font-size="12.0" font-family="Roboto" x="546.62" y="647.0" stroke="#000000" stroke-width="0.175" transform="rotate(-0.0,546.62,647.0)">0.0</text>
<line x1="637.7096" y1="633.0" x2="637.7096" y2="627.0" style="stroke:rgb(0.0,0.0,0.0);stroke-width:2.0;opacity:1.0;stroke-linecap:round" />
<text font-size="12.0" font-family="Roboto" x="620.4896" y="647.0" stroke="#000000" stroke-width="0.175" transform="rotate(-0.0,620.4896,647.0)">100.0</text>
<line x1="715.4192" y1="633.0" x2="715.4192" y2="627.0" style="stroke:rgb(0.0,0.0,0.0);stroke-width:2.0;opacity:1.0;stroke-linecap:round" />
<text font-size="12.0" font-family="Roboto" x="697.71924" y="647.0" stroke="#000000" stroke-width="0.175" transform="rotate(-0.0,697.71924,647.0)">200.0</text>
<line x1="793.12885" y1="633.0" x2="793.12885" y2="627.0" style="stroke:rgb(0.0,0.0,0.0);stroke-width:2.0;opacity:1.0;stroke-linecap:round" />
<text font-size="12.0" font-family="Roboto" x="775.42883" y="647.0" stroke="#000000" stroke-width="0.175" transform="rotate(-0.0,775.42883,647.0)">300.0</text>
<line x1="870.83844" y1="633.0" x2="870.83844" y2="627.0" style="stroke:rgb(0.0,0.0,0.0);stroke-width:2.0;opacity:1.0;stroke-linecap:round" />
<text font-size="12.0" font-family="Roboto" x="853.1384" y="647.0" stroke="#000000" stroke-width="0.175" transform="rotate(-0.0,853.1384,647.0)">400.0</text>
<line x1="948.54803" y1="633.0" x2="948.54803" y2="627.0" style="stroke:rgb(0.0,0.0,0.0);stroke-width:2.0;opacity:1.0;stroke-linecap:round" />
<text font-size="12.0" font-family="Roboto" x="930.848" y="647.0" stroke="#000000" stroke-width="0.175" transform="rotate(-0.0,930.848,647.0)">500.0</text>
<line x1="544.0" y1="623.8" x2="550.0" y2="623.8" style="stroke:rgb(0.0,0.0,0.0);stroke-width:2.0;opacity:1.0;stroke-linecap:round" />
<text font-size="12.0" font-family="Roboto" x="505.24" y="627.8" stroke="#000000" stroke-width="0.175" transform="rotate(-0.0,505.24,627.8)">0.0</text>
<line x1="544.0" y1="543.3" x2="550.0" y2="543.3" style="stroke:rgb(0.0,0.0,0.0);stroke-width:2.0;opacity:1.0;stroke-linecap:round" />
<text font-size="12.0" font-family="Roboto" x="497.56" y="547.3" stroke="#000000" stroke-width="0.175" transform="rotate(-0.0,497.56,547.3)">100.0</text>
<line x1="544.0" y1="462.8" x2="550.0" y2="462.8" style="stroke:rgb(0.0,0.0,0.0);stroke-width:2.0;opacity:1.0;stroke-linecap:round" />
<text font-size="12.0" font-family="Roboto" x="496.6" y="466.8" stroke="#000000" stroke-width="0.175" transform="rotate(-0.0,496.6,466.8)">200.0</text>
<line x1="544.0" y1="382.3" x2="550.0" y2="382.3" style="stroke:rgb(0.0,0.0,0.0);stroke-width:2.0;opacity:1.0;stroke-linecap:round" />
<text font-size="12.0" font-family="Roboto" x="496.6" y="386.3" stroke="#000000" stroke-width="0.175" transform="rotate(-0.0,496.6,386.3)">300.0</text>
<line x1="560.0" y1="623.8" x2="637.7096" y2="366.19998" style="stroke:rgb(127.5,127.5,0.0);stroke-width:1.5;opacity:1.0;stroke-linecap:round" />
<line x1="637.7096" y1="366.19998" x2="764.3763" y2="374.25" style="stroke:rgb(127.5,127.5,0.0);stroke-width:1.5;opacity:1.0;stroke-linecap:round" />
<line x1="764.3763" y1="374.25" x2="940.0" y2="486.95" style="stroke:rgb(127.5,127.5,0.0);stroke-width:1.5;opacity:1.0;stroke-linecap:round" />
<text font-size="20.0" font-family="Roboto" x="717.9" y="353.0" stroke="#000000" stroke-width="0.3" transform="rotate(-0.0,717.9,353.0)">PLOT 4</text>
<text font-size="15.0" font-family="Roboto" x="721.45" y="655.2" stroke="#000000" stroke-width="0.3" transform="rotate(-0.0,721.45,655.2)">X-AXIS</text>
<text font-size="15.0" font-family="Roboto" x="515.0" y="552.4" stroke="#000000" stroke-width="0.3" transform="rotate(-90.0,515.0,552.4)">Y-AXIS</text>
<rect x="570.0" y="383.0" width="78.600006" height="30.0" style="fill:rgb(255.0,255.0,255.0);stroke-width:2.0;stroke:rgb(0.0,0.0,0.0);opacity:0.7" />
<rect x="580.0" y="393.0" width="10.0" height="10.0" style="fill:rgb(127.5,127.5,0.0);stroke-width:0;stroke:rgb(0,0,0);opacity:1.0" />
<text font-size="10.0" font-family="Roboto" x="600.0" y="403.0" stroke="#000000" stroke-width="0.3" transform="rotate(-0.0,600.0,403.0)">Plot 4</text>
</svg>