<svg height="660.0" width="1000.0" version="4.0" xmlns="http://www.w3.org/2000/svg" xmlns:xlink= "http://www.w3.org/1999/xlink">
<rect width="100%" height="100%" fill="white"/>
<defs><style>@import url("https://fonts.googleapis.com/css?family=Roboto");</style></defs>
<rect x="100.0" y="66.0" width="800.0" height="528.0" style="fill:rgb(255,255,255);stroke-width:2.0;stroke:rgb(0,0,0);opacity:1;fill-opacity:0;" />
<line x1="130.0" y1="600.0" x2="130.0" y2="594.0" style="stroke:rgb(0.0,0.0,0.0);stroke-width:2.0;opacity:1.0;stroke-linecap:round" />
<text font-size="12.0" font-family="Roboto" x="116.62" y="614.0" stroke="#000000" stroke-width="0.175" transform="rotate(-0.0,116.62,614.0)">0.0</text>
<line x1="240.11905" y1="600.0" x2="240.11905" y2="594.0" style="stroke:rgb(0.0,0.0,0.0);stroke-width:2.0;opacity:1.0;stroke-linecap:round" />
<text font-size="12.0" font-family="Roboto" x="222.89905" y="614.0" stroke="#000000" stroke-width="0.175" transform="rotate(-0.0,222.89905,614.0)">100.0</text>
<line x1="350.2381" y1="600.0" x2="350.2381" y2="594.0" style="stroke:rgb(0.0,0.0,0.0);stroke-width:2.0;opacity:1.0;stroke-linecap:round" />
<text font-size="12.0" font-family="Roboto" x="332.5381" y="614.0" stroke="#000000" stroke-width="0.175" transform="rotate(-0.0,332.5381,614.0)">200.0</text>
<line x1="460.35715" y1="600.0" x2="460.35715" y2="594.0" style="stroke:rgb(0.0,0.0,0.0);stroke-width:2.0;opacity:1.0;stroke-linecap:round" />
<text font-size="12.0" font-family="Roboto" x="442.65714" y="614.0" stroke="#000000" stroke-width="0.175" transform="rotate(-0.0,442.65714,614.0)">300.0</text>
<line x1="570.4762" y1="600.0" x2="570.4762" y2="594.0" style="stroke:rgb(0.0,0.0,0.0);stroke-width:2.0;opacity:1.0;stroke-linecap:round" />
<text font-size="12.0" font-family="Roboto" x="552.7762" y="614.0" stroke="#000000" stroke-width="0.175" transform="rotate(-0.0,552.7762,614.0)">400.0</text>
<line x1="680.5952" y1="600.0" x2="680.5952" y2="594.0" style="stroke:rgb(0.0,0.0,0.0);stroke-width:2.0;opacity:1.0;stroke-linecap:round" />
<text font-size="12.0" font-family="Roboto" x="662.8952" y="614.0" stroke="#000000" stroke-width="0.175" transform="rotate(-0.0,662.8952,614.0)">500.0</text>
<line x1="790.71423" y1="600.0" x2="790.71423" y2="594.0" style="stroke:rgb(0.0,0.0,0.0);stroke-width:2.0;opacity:1.0;stroke-linecap:round" />
<text font-size="12.0" font-family="Roboto" x="773.0142" y="614.0" stroke="#000000" stroke-width="0.175" transform="rotate(-0.0,773.0142,614.0)">600.0</text>
<line x1="94.0" y1="577.6" x2="100.0" y2="577.6" style="stroke:rgb(0.0,0.0,0.0);stroke-width:2.0;opacity:1.0;stroke-linecap:round" />
<text font-size="12.0" font-family="Roboto" x="55.24" y="581.6" stroke="#000000" stroke-width="0.175" transform="rotate(-0.0,55.24,581.6)">0.0</text>
<line x1="94.0" y1="498.7465" x2="100.0" y2="498.7465" style="stroke:rgb(0.0,0.0,0.0);stroke-width:2.0;opacity:1.0;stroke-linecap:round" />
<text font-size="12.0" font-family="Roboto" x="47.56" y="502.74646" stroke="#000000" stroke-width="0.175" transform="rotate(-0.0,47.56,502.74646)">100.0</text>
<line x1="94.0" y1="419.89297" x2="100.0" y2="419.89297" style="stroke:rgb(0.0,0.0,0.0);stroke-width:2.0;opacity:1.0;stroke-linecap:round" />
<text font-size="12.0" font-family="Roboto" x="46.6" y="423.89297" stroke="#000000" stroke-width="0.175" transform="rotate(-0.0,46.6,423.89297)">200.0</text>
<line x1="94.0" y1="341.03946" x2="100.0" y2="341.03946" style="stroke:rgb(0.0,0.0,0.0);stroke-width:2.0;opacity:1.0;stroke-linecap:round" />
<text font-size="12.0" font-family="Roboto" x="46.6" y="345.03946" stroke="#000000" stroke-width="0.175" transform="rotate(-0.0,46.6,345.03946)">300.0</text>
<line x1="94.0" y1="262.18594" x2="100.0" y2="262.18594" style="stroke:rgb(0.0,0.0,0.0);stroke-width:2.0;opacity:1.0;stroke-linecap:round" />
<text font-size="12.0" font-family="Roboto" x="46.6" y="266.18594" stroke="#000000" stroke-width="0.175" transform="rotate(-0.0,46.6,266.18594)">400.0</text>
<line x1="94.0" y1="183.33243" x2="100.0" y2="183.33243" style="stroke:rgb(0.0,0.0,0.0);stroke-width:2.0;opacity:1.0;stroke-linecap:round" />
<text font-size="12.0" font-family="Roboto" x="46.6" y="187.33243" stroke="#000000" stroke-width="0.175" transform="rotate(-0.0,46.6,187.33243)">500.0</text>
<line x1="94.0" y1="104.47888" x2="100.0" y2="104.47888" style="stroke:rgb(0.0,0.0,0.0);stroke-width:2.0;opacity:1.0;stroke-linecap:round" />
<text font-size="12.0" font-family="Roboto" x="46.6" y="108.47891" stroke="#000000" stroke-width="0.175" transform="rotate(-0.0,46.6,108.47891)">600.0</text>
<line x1="900.0" y1="577.6" x2="906.0" y2="577.6" style="stroke:rgb(0.0,0.0,0.0);stroke-width:2.0;opacity:1.0;stroke-linecap:round" />
<text font-size="12.0" font-family="Roboto" x="910.38" y="581.6" stroke="#000000" stroke-width="0.175" transform="rotate(-0.0,910.38,581.6)">0.0</text>
<line x1="900.0" y1="422.84998" x2="906.0" y2="422.84998" style="stroke:rgb(0.0,0.0,0.0);stroke-width:2.0;opacity:1.0;stroke-linecap:round" />
<text font-size="12.0" font-family="Roboto" x="914.22" y="426.84998" stroke="#000000" stroke-width="0.175" transform="rotate(-0.0,914.22,426.84998)">100.0</text>
<line x1="900.0" y1="268.09998" x2="906.0" y2="268.09998" style="stroke:rgb(0.0,0.0,0.0);stroke-width:2.0;opacity:1.0;stroke-linecap:round" />
<text font-size="12.0" font-family="Roboto" x="914.7" y="272.09998" stroke="#000000" stroke-width="0.175" transform="rotate(-0.0,914.7,272.09998)">200.0</text>
<line x1="900.0" y1="113.349976" x2="906.0" y2="113.349976" style="stroke:rgb(0.0,0.0,0.0);stroke-width:2.0;opacity:1.0;stroke-linecap:round" />
<text font-size="12.0" font-family="Roboto" x="914.7" y="117.349976" stroke="#000000" stroke-width="0.175" transform="rotate(-0.0,914.7,117.349976)">300.0</text>
<line x1="130.0" y1="577.6" x2="350.2381" y2="380.46625" style="stroke:rgb(206.04001,206.04001,235.11);stroke-width:1.5;opacity:1.0;stroke-linecap:round" />
<line x1="350.2381" y1="380.46625" x2="527.5298" y2="82.400024" style="stroke:rgb(206.04001,206.04001,235.11);stroke-width:1.5;opacity:1.0;stroke-linecap:round" />
<line x1="527.5298" y1="82.400024" x2="870.0" y2="387.56305" style="stroke:rgb(206.04001,206.04001,235.11);stroke-width:1.5;opacity:1.0;stroke-linecap:round" />
<line x1="130.0" y1="577.6" x2="240.11905" y2="82.39996" style="stroke:rgb(164.985,164.985,0.0);stroke-width:1.5;opacity:1.0;stroke-linecap:round;stroke-dasharray:4 1" />
<line x1="240.11905" y1="82.39996" x2="419.6131" y2="97.875" style="stroke:rgb(164.985,164.985,0.0);stroke-width:1.5;opacity:1.0;stroke-linecap:round;stroke-dasharray:4 1" />
<line x1="419.6131" y1="97.875" x2="668.4821" y2="314.525" style="stroke:rgb(164.985,164.985,0.0);stroke-width:1.5;opacity:1.0;stroke-linecap:round;stroke-dasharray:4 1" />
<text font-size="20.0" font-family="Roboto" x="434.0" y="56.0" stroke="#000000" stroke-width="0.3" transform="rotate(-0.0,434.0,56.0)">SECONDARY AXIS</text>
<text font-size="15.0" font-family="Roboto" x="471.45" y="635.4" stroke="#000000" stroke-width="0.3" transform="rotate(-0.0,471.45,635.4)">X-AXIS</text>
<text font-size="15.0" font-family="Roboto" x="45.0" y="387.4" stroke="#000000" stroke-width="0.3" transform="rotate(-90.0,45.0,387.4)">Y-AXIS</text>
<rect x="120.0" y="86.0" width="78.600006" height="50.0" style="fill:rgb(255.0,255.0,255.0);stroke-width:2.0;stroke:rgb(0.0,0.0,0.0);opacity:0.7" />
<rect x="130.0" y="96.0" width="10.0" height="10.0" style="fill:rgb(206.04001,206.04001,235.11);stroke-width:0;stroke:rgb(0,0,0);opacity:1.0" />
<text font-size="10.0" font-family="Roboto" x="150.0" y="106.0" stroke="#000000" stroke-width="0.3" transform="rotate(-0.0,150.0,106.0)">Plot 1</text>
<rect x="130.0" y="116.0" width="10.0" height="10.0" style="fill:rgb(164.985,164.985,0.0);stroke-width:0;stroke:rgb(0,0,0);opacity:1.0" />
<text font-size="10.0" font-family="Roboto" x="150.0" y="126.0" stroke="#000000" stroke-width="0.3" transform="rotate(-0.0,150.0,126.0)">Plot 2</text>
</svg>