<svg height="660.0" width="1000.0" version="4.0" xmlns="http://www.w3.org/2000/svg" xmlns:xlink= "http://www.w3.org/1999/xlink">
<rect width="100%" height="100%" fill="white"/>
<defs><style>@import url("https://fonts.googleapis.com/css?family=Roboto");</style></defs>
<rect x="100.0" y="66.0" width="800.0" height="528.0" style="fill:rgb(255,255,255);stroke-width:2.0;stroke:rgb(0,0,0);opacity:1;fill-opacity:0;" />
<line x1="117.915405" y1="600.0" x2="117.915405" y2="594.0" style="stroke:rgb(0.0,0.0,0.0);stroke-width:2.0;opacity:1.0;stroke-linecap:round" />
<text font-size="12.0" font-family="Roboto" x="104.53541" y="614.0" stroke="#000000" stroke-width="0.175" transform="rotate(-0.0,104.53541,614.0)">0.0</text>
<line x1="229.69789" y1="600.0" x2="229.69789" y2="594.0" style="stroke:rgb(0.0,0.0,0.0);stroke-width:2.0;opacity:1.0;stroke-linecap:round" />
<text font-size="12.0" font-family="Roboto" x="212.47789" y="614.0" stroke="#000000" stroke-width="0.175" transform="rotate(-0.0,212.47789,614.0)">100.0</text>
<line x1="341.48038" y1="600.0" x2="341.48038" y2="594.0" style="stroke:rgb(0.0,0.0,0.0);stroke-width:2.0;opacity:1.0;stroke-linecap:round" />
<text font-size="12.0" font-family="Roboto" x="323.7804" y="614.0" stroke="#000000" stroke-width="0.175" transform="rotate(-0.0,323.7804,614.0)">200.0</text>
<line x1="453.26285" y1="600.0" x2="453.26285" y2="594.0" style="stroke:rgb(0.0,0.0,0.0);stroke-width:2.0;opacity:1.0;stroke-linecap:round" />
<text font-size="12.0" font-family="Roboto" x="435.56284" y="614.0" stroke="#000000" stroke-width="0.175" transform="rotate(-0.0,435.56284,614.0)">300.0</text>
<line x1="565.0453" y1="600.0" x2="565.0453" y2="594.0" style="stroke:rgb(0.0,0.0,0.0);stroke-width:2.0;opacity:1.0;stroke-linecap:round" />
<text font-size="12.0" font-family="Roboto" x="547.34534" y="614.0" stroke="#000000" stroke-width="0.175" transform="rotate(-0.0,547.34534,614.0)">400.0</text>
<line x1="676.8278" y1="600.0" x2="676.8278" y2="594.0" style="stroke:rgb(0.0,0.0,0.0);stroke-width:2.0;opacity:1.0;stroke-linecap:round" />
<text font-size="12.0" font-family="Roboto" x="659.1278" y="614.0" stroke="#000000" stroke-width="0.175" transform="rotate(-0.0,659.1278,614.0)">500.0</text>
<line x1="788.6103" y1="600.0" x2="788.6103" y2="594.0" style="stroke:rgb(0.0,0.0,0.0);stroke-width:2.0;opacity:1.0;stroke-linecap:round" />
<text font-size="12.0" font-family="Roboto" x="770.9103" y="614.0" stroke="#000000" stroke-width="0.175" transform="rotate(-0.0,770.9103,614.0)">600.0</text>
<line x1="94.0" y1="547.0769" x2="100.0" y2="547.0769" style="stroke:rgb(0.0,0.0,0.0);stroke-width:2.0;opacity:1.0;stroke-linecap:round" />
<text font-size="12.0" font-family="Roboto" x="46.6" y="551.0769" stroke="#000000" stroke-width="0.175" transform="rotate(-0.0,46.6,551.0769)">200.0</text>
<line x1="94.0" y1="470.8923" x2="100.0" y2="470.8923" style="stroke:rgb(0.0,0.0,0.0);stroke-width:2.0;opacity:1.0;stroke-linecap:round" />
<text font-size="12.0" font-family="Roboto" x="46.6" y="474.89233" stroke="#000000" stroke-width="0.175" transform="rotate(-0.0,46.6,474.89233)">300.0</text>
<line x1="94.0" y1="394.7077" x2="100.0" y2="394.7077" style="stroke:rgb(0.0,0.0,0.0);stroke-width:2.0;opacity:1.0;stroke-linecap:round" />
<text font-size="12.0" font-family="Roboto" x="46.6" y="398.7077" stroke="#000000" stroke-width="0.175" transform="rotate(-0.0,46.6,398.7077)">400.0</text>
<line x1="94.0" y1="318.52307" x2="100.0" y2="318.52307" style="stroke:rgb(0.0,0.0,0.0);stroke-width:2.0;opacity:1.0;stroke-linecap:round" />
<text font-size="12.0" font-family="Roboto" x="46.6" y="322.52307" stroke="#000000" stroke-width="0.175" transform="rotate(-0.0,46.6,322.52307)">500.0</text>
<line x1="94.0" y1="242.33844" x2="100.0" y2="242.33844" style="stroke:rgb(0.0,0.0,0.0);stroke-width:2.0;opacity:1.0;stroke-linecap:round" />
<text font-size="12.0" font-family="Roboto" x="46.6" y="246.33844" stroke="#000000" stroke-width="0.175" transform="rotate(-0.0,46.6,246.33844)">600.0</text>
<line x1="94.0" y1="166.15381" x2="100.0" y2="166.15381" style="stroke:rgb(0.0,0.0,0.0);stroke-width:2.0;opacity:1.0;stroke-linecap:round" />
<text font-size="12.0" font-family="Roboto" x="46.6" y="170.15381" stroke="#000000" stroke-width="0.175" transform="rotate(-0.0,46.6,170.15381)">700.0</text>
<line x1="94.0" y1="89.96918" x2="100.0" y2="89.96918" style="stroke:rgb(0.0,0.0,0.0);stroke-width:2.0;opacity:1.0;stroke-linecap:round" />
<text font-size="12.0" font-family="Roboto" x="46.6" y="93.96918" stroke="#000000" stroke-width="0.175" transform="rotate(-0.0,46.6,93.96918)">800.0</text>
<line x1="900.0" y1="584.28357" x2="906.0" y2="584.28357" style="stroke:rgb(0.0,0.0,0.0);stroke-width:2.0;opacity:1.0;stroke-linecap:round" />
<text font-size="12.0" font-family="Roboto" x="910.38" y="588.28357" stroke="#000000" stroke-width="0.175" transform="rotate(-0.0,910.38,588.28357)">0.0</text>
<line x1="900.0" y1="521.6" x2="906.0" y2="521.6" style="stroke:rgb(0.0,0.0,0.0);stroke-width:2.0;opacity:1.0;stroke-linecap:round" />
<text font-size="12.0" font-family="Roboto" x="914.22" y="525.6" stroke="#000000" stroke-width="0.175" transform="rotate(-0.0,914.22,525.6)">100.0</text>
<line x1="900.0" y1="458.91644" x2="906.0" y2="458.91644" style="stroke:rgb(0.0,0.0,0.0);stroke-width:2.0;opacity:1.0;stroke-linecap:round" />
<text font-size="12.0" font-family="Roboto" x="914.7" y="462.91644" stroke="#000000" stroke-width="0.175" transform="rotate(-0.0,914.7,462.91644)">200.0</text>
<line x1="900.0" y1="396.2329" x2="906.0" y2="396.2329" style="stroke:rgb(0.0,0.0,0.0);stroke-width:2.0;opacity:1.0;stroke-linecap:round" />
<text font-size="12.0" font-family="Roboto" x="914.7" y="400.2329" stroke="#000000" stroke-width="0.175" transform="rotate(-0.0,914.7,400.2329)">300.0</text>
<line x1="900.0" y1="333.54938" x2="906.0" y2="333.54938" style="stroke:rgb(0.0,0.0,0.0);stroke-width:2.0;opacity:1.0;stroke-linecap:round" />
<text font-size="12.0" font-family="Roboto" x="914.7" y="337.54938" stroke="#000000" stroke-width="0.175" transform="rotate(-0.0,914.7,337.54938)">400.0</text>
<line x1="900.0" y1="270.86584" x2="906.0" y2="270.86584" style="stroke:rgb(0.0,0.0,0.0);stroke-width:2.0;opacity:1.0;stroke-linecap:round" />
<text font-size="12.0" font-family="Roboto" x="914.7" y="274.86584" stroke="#000000" stroke-width="0.175" transform="rotate(-0.0,914.7,274.86584)">500.0</text>
<line x1="900.0" y1="208.18231" x2="906.0" y2="208.18231" style="stroke:rgb(0.0,0.0,0.0);stroke-width:2.0;opacity:1.0;stroke-linecap:round" />
<text font-size="12.0" font-family="Roboto" x="914.7" y="212.18231" stroke="#000000" stroke-width="0.175" transform="rotate(-0.0,914.7,212.18231)">600.0</text>
<line x1="900.0" y1="145.49878" x2="906.0" y2="145.49878" style="stroke:rgb(0.0,0.0,0.0);stroke-width:2.0;opacity:1.0;stroke-linecap:round" />
<text font-size="12.0" font-family="Roboto" x="914.7" y="149.49878" stroke="#000000" stroke-width="0.175" transform="rotate(-0.0,914.7,149.49878)">700.0</text>
<line x1="900.0" y1="82.81525" x2="906.0" y2="82.81525" style="stroke:rgb(0.0,0.0,0.0);stroke-width:2.0;opacity:1.0;stroke-linecap:round" />
<text font-size="12.0" font-family="Roboto" x="914.7" y="86.81525" stroke="#000000" stroke-width="0.175" transform="rotate(-0.0,914.7,86.81525)">800.0</text>
<line x1="229.69789" y1="585.16925" x2="341.48035" y2="508.98462" style="stroke:rgb(206.04001,206.04001,235.11);stroke-width:3.0;opacity:1.0;stroke-linecap:round" />
<line x1="341.48035" y1="508.98462" x2="521.4502" y2="221.0068" style="stroke:rgb(206.04001,206.04001,235.11);stroke-width:3.0;opacity:1.0;stroke-linecap:round" />
<line x1="521.4502" y1="221.0068" x2="869.0937" y2="89.96924" style="stroke:rgb(206.04001,206.04001,235.11);stroke-width:3.0;opacity:1.0;stroke-linecap:round" />
<line x1="129.09366" y1="578.0152" x2="229.69789" y2="509.0633" style="stroke:rgb(164.985,164.985,0.0);stroke-width:3.0;opacity:1.0;stroke-linecap:round;stroke-dasharray:4 1" />
<line x1="229.69789" y1="509.0633" x2="411.90332" y2="270.8658" style="stroke:rgb(164.985,164.985,0.0);stroke-width:3.0;opacity:1.0;stroke-linecap:round;stroke-dasharray:4 1" />
<line x1="411.90332" y1="270.8658" x2="664.53174" y2="82.815186" style="stroke:rgb(164.985,164.985,0.0);stroke-width:3.0;opacity:1.0;stroke-linecap:round;stroke-dasharray:4 1" />
<text font-size="20.0" font-family="Roboto" x="434.0" y="56.0" stroke="#000000" stroke-width="0.3" transform="rotate(-0.0,434.0,56.0)">SECONDARY AXIS</text>
<text font-size="15.0" font-family="Roboto" x="471.45" y="635.4" stroke="#000000" stroke-width="0.3" transform="rotate(-0.0,471.45,635.4)">X-AXIS</text>
<text font-size="15.0" font-family="Roboto" x="45.0" y="387.4" stroke="#000000" stroke-width="0.3" transform="rotate(-90.0,45.0,387.4)">Y-AXIS</text>
<rect x="120.0" y="86.0" width="78.600006" height="50.0" style="fill:rgb(255.0,255.0,255.0);stroke-width:2.0;stroke:rgb(0.0,0.0,0.0);opacity:0.7" />
<rect x="130.0" y="96.0" width="10.0" height="10.0" style="fill:rgb(206.04001,206.04001,235.11);stroke-width:0;stroke:rgb(0,0,0);opacity:1.0" />
<text font-size="10.0" font-family="Roboto" x="150.0" y="106.0" stroke="#000000" stroke-width="0.3" transform="rotate(-0.0,150.0,106.0)">Plot 1</text>
<rect x="130.0" y="116.0" width="10.0" height="10.0" style="fill:rgb(164.985,164.985,0.0);stroke-width:0;stroke:rgb(0,0,0);opacity:1.0" />
<text font-size="10.0" font-family="Roboto" x="150.0" y="126.0" stroke="#000000" stroke-width="0.3" transform="rotate(-0.0,150.0,126.0)">Plot 2</text>
</svg>