<svg height="660.0" width="1000.0" version="4.0" xmlns="http://www.w3.org/2000/svg" xmlns:xlink= "http://www.w3.org/1999/xlink">
<rect width="100%" height="100%" fill="white"/>
<rect x="100.0" y="66.0" width="800.0" height="528.0" style="fill:rgb(255,255,255);stroke-width:2.0;stroke:rgb(0,0,0);opacity:1" />
<line x1="100.0" y1="597.0" x2="100.0" y2="594.0" style="stroke:rgb(0.0,0.0,0.0);stroke-width:2.0;opacity:1.0;stroke-linecap:round" />
<text x="91.58" y="609.0" stroke="#000000" stroke-width="0.7" transform="rotate(-0.0,91.58,609.0)">0.0</text>
<line x1="205.65475" y1="597.0" x2="205.65475" y2="594.0" style="stroke:rgb(0.0,0.0,0.0);stroke-width:2.0;opacity:1.0;stroke-linecap:round" />
<text x="194.67476" y="609.0" stroke="#000000" stroke-width="0.7" transform="rotate(-0.0,194.67476,609.0)">100.0</text>
<line x1="311.3095" y1="597.0" x2="311.3095" y2="594.0" style="stroke:rgb(0.0,0.0,0.0);stroke-width:2.0;opacity:1.0;stroke-linecap:round" />
<text x="300.00952" y="609.0" stroke="#000000" stroke-width="0.7" transform="rotate(-0.0,300.00952,609.0)">200.0</text>
<line x1="416.9643" y1="597.0" x2="416.9643" y2="594.0" style="stroke:rgb(0.0,0.0,0.0);stroke-width:2.0;opacity:1.0;stroke-linecap:round" />
<text x="405.6643" y="609.0" stroke="#000000" stroke-width="0.7" transform="rotate(-0.0,405.6643,609.0)">300.0</text>
<line x1="522.619" y1="597.0" x2="522.619" y2="594.0" style="stroke:rgb(0.0,0.0,0.0);stroke-width:2.0;opacity:1.0;stroke-linecap:round" />
<text x="511.31906" y="609.0" stroke="#000000" stroke-width="0.7" transform="rotate(-0.0,511.31906,609.0)">400.0</text>
<line x1="628.2738" y1="597.0" x2="628.2738" y2="594.0" style="stroke:rgb(0.0,0.0,0.0);stroke-width:2.0;opacity:1.0;stroke-linecap:round" />
<text x="616.9738" y="609.0" stroke="#000000" stroke-width="0.7" transform="rotate(-0.0,616.9738,609.0)">500.0</text>
<line x1="733.9286" y1="597.0" x2="733.9286" y2="594.0" style="stroke:rgb(0.0,0.0,0.0);stroke-width:2.0;opacity:1.0;stroke-linecap:round" />
<text x="722.6286" y="609.0" stroke="#000000" stroke-width="0.7" transform="rotate(-0.0,722.6286,609.0)">600.0</text>
<line x1="839.5834" y1="597.0" x2="839.5834" y2="594.0" style="stroke:rgb(0.0,0.0,0.0);stroke-width:2.0;opacity:1.0;stroke-linecap:round" />
<text x="828.2834" y="609.0" stroke="#000000" stroke-width="0.7" transform="rotate(-0.0,828.2834,609.0)">700.0</text>
<line x1="97.0" y1="594.0" x2="100.0" y2="594.0" style="stroke:rgb(0.0,0.0,0.0);stroke-width:2.0;opacity:1.0;stroke-linecap:round" />
<text x="62.16" y="598.0" stroke="#000000" stroke-width="0.7" transform="rotate(-0.0,62.16,598.0)">0.0</text>
<line x1="97.0" y1="518.84076" x2="100.0" y2="518.84076" style="stroke:rgb(0.0,0.0,0.0);stroke-width:2.0;opacity:1.0;stroke-linecap:round" />
<text x="57.04" y="522.84076" stroke="#000000" stroke-width="0.7" transform="rotate(-0.0,57.04,522.84076)">100.0</text>
<line x1="97.0" y1="443.68152" x2="100.0" y2="443.68152" style="stroke:rgb(0.0,0.0,0.0);stroke-width:2.0;opacity:1.0;stroke-linecap:round" />
<text x="56.4" y="447.68152" stroke="#000000" stroke-width="0.7" transform="rotate(-0.0,56.4,447.68152)">200.0</text>
<line x1="97.0" y1="368.5223" x2="100.0" y2="368.5223" style="stroke:rgb(0.0,0.0,0.0);stroke-width:2.0;opacity:1.0;stroke-linecap:round" />
<text x="56.4" y="372.5223" stroke="#000000" stroke-width="0.7" transform="rotate(-0.0,56.4,372.5223)">300.0</text>
<line x1="97.0" y1="293.36307" x2="100.0" y2="293.36307" style="stroke:rgb(0.0,0.0,0.0);stroke-width:2.0;opacity:1.0;stroke-linecap:round" />
<text x="56.4" y="297.36307" stroke="#000000" stroke-width="0.7" transform="rotate(-0.0,56.4,297.36307)">400.0</text>
<line x1="97.0" y1="218.20383" x2="100.0" y2="218.20383" style="stroke:rgb(0.0,0.0,0.0);stroke-width:2.0;opacity:1.0;stroke-linecap:round" />
<text x="56.4" y="222.20383" stroke="#000000" stroke-width="0.7" transform="rotate(-0.0,56.4,222.20383)">500.0</text>
<line x1="97.0" y1="143.04456" x2="100.0" y2="143.04456" style="stroke:rgb(0.0,0.0,0.0);stroke-width:2.0;opacity:1.0;stroke-linecap:round" />
<text x="56.4" y="147.04459" stroke="#000000" stroke-width="0.7" transform="rotate(-0.0,56.4,147.04459)">600.0</text>
<line x1="97.0" y1="67.885376" x2="100.0" y2="67.885376" style="stroke:rgb(0.0,0.0,0.0);stroke-width:2.0;opacity:1.0;stroke-linecap:round" />
<text x="56.4" y="71.885376" stroke="#000000" stroke-width="0.7" transform="rotate(-0.0,56.4,71.885376)">700.0</text>
<line x1="900.0" y1="594.0" x2="903.0" y2="594.0" style="stroke:rgb(0.0,0.0,0.0);stroke-width:2.0;opacity:1.0;stroke-linecap:round" />
<text x="911.42" y="598.0" stroke="#000000" stroke-width="0.7" transform="rotate(-0.0,911.42,598.0)">0.0</text>
<line x1="900.0" y1="446.5" x2="903.0" y2="446.5" style="stroke:rgb(0.0,0.0,0.0);stroke-width:2.0;opacity:1.0;stroke-linecap:round" />
<text x="913.98" y="450.5" stroke="#000000" stroke-width="0.7" transform="rotate(-0.0,913.98,450.5)">100.0</text>
<line x1="900.0" y1="299.0" x2="903.0" y2="299.0" style="stroke:rgb(0.0,0.0,0.0);stroke-width:2.0;opacity:1.0;stroke-linecap:round" />
<text x="914.3" y="303.0" stroke="#000000" stroke-width="0.7" transform="rotate(-0.0,914.3,303.0)">200.0</text>
<line x1="900.0" y1="151.5" x2="903.0" y2="151.5" style="stroke:rgb(0.0,0.0,0.0);stroke-width:2.0;opacity:1.0;stroke-linecap:round" />
<text x="914.3" y="155.5" stroke="#000000" stroke-width="0.7" transform="rotate(-0.0,914.3,155.5)">300.0</text>
<line x1="100.0" y1="594.0" x2="311.3095" y2="406.10193" style="stroke:rgb(206.04001,206.04001,235.11);stroke-width:3.0;opacity:1.0;stroke-linecap:round" />
<line x1="311.3095" y1="406.10193" x2="481.4137" y2="122.0" style="stroke:rgb(206.04001,206.04001,235.11);stroke-width:3.0;opacity:1.0;stroke-linecap:round" />
<line x1="481.4137" y1="122.0" x2="810.0" y2="412.86624" style="stroke:rgb(206.04001,206.04001,235.11);stroke-width:3.0;opacity:1.0;stroke-linecap:round" />
<line x1="100.0" y1="594.0" x2="205.65475" y2="122.0" style="stroke:rgb(164.985,164.985,0.0);stroke-width:3.0;opacity:1.0;stroke-linecap:round;stroke-dasharray:4 1" />
<line x1="205.65475" y1="122.0" x2="377.87204" y2="136.75" style="stroke:rgb(164.985,164.985,0.0);stroke-width:3.0;opacity:1.0;stroke-linecap:round;stroke-dasharray:4 1" />
<line x1="377.87204" y1="136.75" x2="616.6518" y2="343.25" style="stroke:rgb(164.985,164.985,0.0);stroke-width:3.0;opacity:1.0;stroke-linecap:round;stroke-dasharray:4 1" />
<text x="447.375" y="58.5" stroke="#000000" stroke-width="1.2" transform="rotate(-0.0,447.375,58.5)">SECONDARY AXIS</text>
<text x="476.8" y="630.4" stroke="#000000" stroke-width="1.2" transform="rotate(-0.0,476.8,630.4)">X-AXIS</text>
<text x="50.0" y="376.6" stroke="#000000" stroke-width="1.2" transform="rotate(-90.0,50.0,376.6)">Y-AXIS</text>
<rect x="120.0" y="86.0" width="67.880005" height="40.0" style="fill:rgb(255.0,255.0,255.0);stroke-width:2.0;stroke:rgb(0.0,0.0,0.0);opacity:0.7" />
<rect x="128.0" y="94.0" width="8.0" height="8.0" style="fill:rgb(206.04001,206.04001,235.11);stroke-width:0;stroke:rgb(0,0,0);opacity:1.0" />
<text x="144.0" y="102.0" stroke="#000000" stroke-width="1.2" transform="rotate(-0.0,144.0,102.0)">Plot 1</text>
<rect x="128.0" y="110.0" width="8.0" height="8.0" style="fill:rgb(164.985,164.985,0.0);stroke-width:0;stroke:rgb(0,0,0);opacity:1.0" />
<text x="144.0" y="118.0" stroke="#000000" stroke-width="1.2" transform="rotate(-0.0,144.0,118.0)">Plot 2</text>
</svg>