<svg height="660.0" width="1000.0" version="4.0" xmlns="http://www.w3.org/2000/svg" xmlns:xlink= "http://www.w3.org/1999/xlink">
<rect width="100%" height="100%" fill="white"/>
<defs><style type="text/css">@font-face {font-family: DejaVuSans;src: url('DejaVuSans.ttf');}</style></defs>
<rect x="100.0" y="66.0" width="800.0" height="528.0" style="fill:rgb(255,255,255);stroke-width:2.0;stroke:rgb(0,0,0);opacity:1;fill-opacity:0;" />
<line x1="100.0" y1="600.0" x2="100.0" y2="594.0" style="stroke:rgb(0.0,0.0,0.0);stroke-width:2.0;opacity:1.0;stroke-linecap:round" />
<text font-size="12.0" font-family="DejaVuSans" x="86.62" y="614.0" stroke="#000000" stroke-width="0.175" transform="rotate(-0.0,86.62,614.0)">0.0</text>
<line x1="205.65475" y1="600.0" x2="205.65475" y2="594.0" style="stroke:rgb(0.0,0.0,0.0);stroke-width:2.0;opacity:1.0;stroke-linecap:round" />
<text font-size="12.0" font-family="DejaVuSans" x="188.43475" y="614.0" stroke="#000000" stroke-width="0.175" transform="rotate(-0.0,188.43475,614.0)">100.0</text>
<line x1="311.3095" y1="600.0" x2="311.3095" y2="594.0" style="stroke:rgb(0.0,0.0,0.0);stroke-width:2.0;opacity:1.0;stroke-linecap:round" />
<text font-size="12.0" font-family="DejaVuSans" x="293.60953" y="614.0" stroke="#000000" stroke-width="0.175" transform="rotate(-0.0,293.60953,614.0)">200.0</text>
<line x1="416.9643" y1="600.0" x2="416.9643" y2="594.0" style="stroke:rgb(0.0,0.0,0.0);stroke-width:2.0;opacity:1.0;stroke-linecap:round" />
<text font-size="12.0" font-family="DejaVuSans" x="399.26428" y="614.0" stroke="#000000" stroke-width="0.175" transform="rotate(-0.0,399.26428,614.0)">300.0</text>
<line x1="522.619" y1="600.0" x2="522.619" y2="594.0" style="stroke:rgb(0.0,0.0,0.0);stroke-width:2.0;opacity:1.0;stroke-linecap:round" />
<text font-size="12.0" font-family="DejaVuSans" x="504.91904" y="614.0" stroke="#000000" stroke-width="0.175" transform="rotate(-0.0,504.91904,614.0)">400.0</text>
<line x1="628.2738" y1="600.0" x2="628.2738" y2="594.0" style="stroke:rgb(0.0,0.0,0.0);stroke-width:2.0;opacity:1.0;stroke-linecap:round" />
<text font-size="12.0" font-family="DejaVuSans" x="610.5738" y="614.0" stroke="#000000" stroke-width="0.175" transform="rotate(-0.0,610.5738,614.0)">500.0</text>
<line x1="733.9286" y1="600.0" x2="733.9286" y2="594.0" style="stroke:rgb(0.0,0.0,0.0);stroke-width:2.0;opacity:1.0;stroke-linecap:round" />
<text font-size="12.0" font-family="DejaVuSans" x="716.2286" y="614.0" stroke="#000000" stroke-width="0.175" transform="rotate(-0.0,716.2286,614.0)">600.0</text>
<line x1="839.5834" y1="600.0" x2="839.5834" y2="594.0" style="stroke:rgb(0.0,0.0,0.0);stroke-width:2.0;opacity:1.0;stroke-linecap:round" />
<text font-size="12.0" font-family="DejaVuSans" x="821.88336" y="614.0" stroke="#000000" stroke-width="0.175" transform="rotate(-0.0,821.88336,614.0)">700.0</text>
<line x1="94.0" y1="594.0" x2="100.0" y2="594.0" style="stroke:rgb(0.0,0.0,0.0);stroke-width:2.0;opacity:1.0;stroke-linecap:round" />
<text font-size="12.0" font-family="DejaVuSans" x="55.24" y="598.0" stroke="#000000" stroke-width="0.175" transform="rotate(-0.0,55.24,598.0)">0.0</text>
<line x1="94.0" y1="518.84076" x2="100.0" y2="518.84076" style="stroke:rgb(0.0,0.0,0.0);stroke-width:2.0;opacity:1.0;stroke-linecap:round" />
<text font-size="12.0" font-family="DejaVuSans" x="47.56" y="522.84076" stroke="#000000" stroke-width="0.175" transform="rotate(-0.0,47.56,522.84076)">100.0</text>
<line x1="94.0" y1="443.68152" x2="100.0" y2="443.68152" style="stroke:rgb(0.0,0.0,0.0);stroke-width:2.0;opacity:1.0;stroke-linecap:round" />
<text font-size="12.0" font-family="DejaVuSans" x="46.6" y="447.68152" stroke="#000000" stroke-width="0.175" transform="rotate(-0.0,46.6,447.68152)">200.0</text>
<line x1="94.0" y1="368.5223" x2="100.0" y2="368.5223" style="stroke:rgb(0.0,0.0,0.0);stroke-width:2.0;opacity:1.0;stroke-linecap:round" />
<text font-size="12.0" font-family="DejaVuSans" x="46.6" y="372.5223" stroke="#000000" stroke-width="0.175" transform="rotate(-0.0,46.6,372.5223)">300.0</text>
<line x1="94.0" y1="293.36307" x2="100.0" y2="293.36307" style="stroke:rgb(0.0,0.0,0.0);stroke-width:2.0;opacity:1.0;stroke-linecap:round" />
<text font-size="12.0" font-family="DejaVuSans" x="46.6" y="297.36307" stroke="#000000" stroke-width="0.175" transform="rotate(-0.0,46.6,297.36307)">400.0</text>
<line x1="94.0" y1="218.20383" x2="100.0" y2="218.20383" style="stroke:rgb(0.0,0.0,0.0);stroke-width:2.0;opacity:1.0;stroke-linecap:round" />
<text font-size="12.0" font-family="DejaVuSans" x="46.6" y="222.20383" stroke="#000000" stroke-width="0.175" transform="rotate(-0.0,46.6,222.20383)">500.0</text>
<line x1="94.0" y1="143.04456" x2="100.0" y2="143.04456" style="stroke:rgb(0.0,0.0,0.0);stroke-width:2.0;opacity:1.0;stroke-linecap:round" />
<text font-size="12.0" font-family="DejaVuSans" x="46.6" y="147.04459" stroke="#000000" stroke-width="0.175" transform="rotate(-0.0,46.6,147.04459)">600.0</text>
<line x1="94.0" y1="67.885376" x2="100.0" y2="67.885376" style="stroke:rgb(0.0,0.0,0.0);stroke-width:2.0;opacity:1.0;stroke-linecap:round" />
<text font-size="12.0" font-family="DejaVuSans" x="46.6" y="71.885376" stroke="#000000" stroke-width="0.175" transform="rotate(-0.0,46.6,71.885376)">700.0</text>
<line x1="900.0" y1="594.0" x2="906.0" y2="594.0" style="stroke:rgb(0.0,0.0,0.0);stroke-width:2.0;opacity:1.0;stroke-linecap:round" />
<text font-size="12.0" font-family="DejaVuSans" x="910.38" y="598.0" stroke="#000000" stroke-width="0.175" transform="rotate(-0.0,910.38,598.0)">0.0</text>
<line x1="900.0" y1="446.5" x2="906.0" y2="446.5" style="stroke:rgb(0.0,0.0,0.0);stroke-width:2.0;opacity:1.0;stroke-linecap:round" />
<text font-size="12.0" font-family="DejaVuSans" x="914.22" y="450.5" stroke="#000000" stroke-width="0.175" transform="rotate(-0.0,914.22,450.5)">100.0</text>
<line x1="900.0" y1="299.0" x2="906.0" y2="299.0" style="stroke:rgb(0.0,0.0,0.0);stroke-width:2.0;opacity:1.0;stroke-linecap:round" />
<text font-size="12.0" font-family="DejaVuSans" x="914.7" y="303.0" stroke="#000000" stroke-width="0.175" transform="rotate(-0.0,914.7,303.0)">200.0</text>
<line x1="900.0" y1="151.5" x2="906.0" y2="151.5" style="stroke:rgb(0.0,0.0,0.0);stroke-width:2.0;opacity:1.0;stroke-linecap:round" />
<text font-size="12.0" font-family="DejaVuSans" x="914.7" y="155.5" stroke="#000000" stroke-width="0.175" transform="rotate(-0.0,914.7,155.5)">300.0</text>
<line x1="100.0" y1="594.0" x2="311.3095" y2="406.10193" style="stroke:rgb(206.04001,206.04001,235.11);stroke-width:3.0;opacity:1.0;stroke-linecap:round" />
<line x1="311.3095" y1="406.10193" x2="481.4137" y2="122.0" style="stroke:rgb(206.04001,206.04001,235.11);stroke-width:3.0;opacity:1.0;stroke-linecap:round" />
<line x1="481.4137" y1="122.0" x2="810.0" y2="412.86624" style="stroke:rgb(206.04001,206.04001,235.11);stroke-width:3.0;opacity:1.0;stroke-linecap:round" />
<line x1="100.0" y1="594.0" x2="205.65475" y2="122.0" style="stroke:rgb(164.985,164.985,0.0);stroke-width:3.0;opacity:1.0;stroke-linecap:round;stroke-dasharray:4 1" />
<line x1="205.65475" y1="122.0" x2="377.87204" y2="136.75" style="stroke:rgb(164.985,164.985,0.0);stroke-width:3.0;opacity:1.0;stroke-linecap:round;stroke-dasharray:4 1" />
<line x1="377.87204" y1="136.75" x2="616.6518" y2="343.25" style="stroke:rgb(164.985,164.985,0.0);stroke-width:3.0;opacity:1.0;stroke-linecap:round;stroke-dasharray:4 1" />
<text font-size="20.0" font-family="DejaVuSans" x="434.0" y="56.0" stroke="#000000" stroke-width="0.3" transform="rotate(-0.0,434.0,56.0)">SECONDARY AXIS</text>
<text font-size="15.0" font-family="DejaVuSans" x="471.45" y="635.4" stroke="#000000" stroke-width="0.3" transform="rotate(-0.0,471.45,635.4)">X-AXIS</text>
<text font-size="15.0" font-family="DejaVuSans" x="45.0" y="387.4" stroke="#000000" stroke-width="0.3" transform="rotate(-90.0,45.0,387.4)">Y-AXIS</text>
<rect x="120.0" y="86.0" width="78.600006" height="50.0" style="fill:rgb(255.0,255.0,255.0);stroke-width:2.0;stroke:rgb(0.0,0.0,0.0);opacity:0.7" />
<rect x="130.0" y="96.0" width="10.0" height="10.0" style="fill:rgb(206.04001,206.04001,235.11);stroke-width:0;stroke:rgb(0,0,0);opacity:1.0" />
<text font-size="10.0" font-family="DejaVuSans" x="150.0" y="106.0" stroke="#000000" stroke-width="0.3" transform="rotate(-0.0,150.0,106.0)">Plot 1</text>
<rect x="130.0" y="116.0" width="10.0" height="10.0" style="fill:rgb(164.985,164.985,0.0);stroke-width:0;stroke:rgb(0,0,0);opacity:1.0" />
<text font-size="10.0" font-family="DejaVuSans" x="150.0" y="126.0" stroke="#000000" stroke-width="0.3" transform="rotate(-0.0,150.0,126.0)">Plot 2</text>
</svg>