<svg height="660.0" width="1000.0" version="4.0" xmlns="http://www.w3.org/2000/svg" xmlns:xlink= "http://www.w3.org/1999/xlink">
<rect width="100%" height="100%" fill="white"/>
<line x1="200.0" y1="594.0" x2="200.0" y2="66.0" style="stroke:rgb(127.5,127.5,127.5);stroke-width:0.5;opacity:1.0;stroke-linecap:round" />
<line x1="400.0" y1="594.0" x2="400.0" y2="66.0" style="stroke:rgb(127.5,127.5,127.5);stroke-width:0.5;opacity:1.0;stroke-linecap:round" />
<line x1="600.0" y1="594.0" x2="600.0" y2="66.0" style="stroke:rgb(127.5,127.5,127.5);stroke-width:0.5;opacity:1.0;stroke-linecap:round" />
<line x1="800.0" y1="594.0" x2="800.0" y2="66.0" style="stroke:rgb(127.5,127.5,127.5);stroke-width:0.5;opacity:1.0;stroke-linecap:round" />
<line x1="100.0" y1="506.0" x2="900.0" y2="506.0" style="stroke:rgb(127.5,127.5,127.5);stroke-width:0.5;opacity:1.0;stroke-linecap:round" />
<line x1="100.0" y1="427.33334" x2="900.0" y2="427.33334" style="stroke:rgb(127.5,127.5,127.5);stroke-width:0.5;opacity:1.0;stroke-linecap:round" />
<line x1="100.0" y1="348.6667" x2="900.0" y2="348.6667" style="stroke:rgb(127.5,127.5,127.5);stroke-width:0.5;opacity:1.0;stroke-linecap:round" />
<line x1="100.0" y1="270.00003" x2="900.0" y2="270.00003" style="stroke:rgb(127.5,127.5,127.5);stroke-width:0.5;opacity:1.0;stroke-linecap:round" />
<line x1="100.0" y1="191.33337" x2="900.0" y2="191.33337" style="stroke:rgb(127.5,127.5,127.5);stroke-width:0.5;opacity:1.0;stroke-linecap:round" />
<line x1="100.0" y1="112.66675" x2="900.0" y2="112.66675" style="stroke:rgb(127.5,127.5,127.5);stroke-width:0.5;opacity:1.0;stroke-linecap:round" />
<line x1="100.0" y1="584.6667" x2="900.0" y2="584.6667" style="stroke:rgb(127.5,127.5,127.5);stroke-width:0.5;opacity:1.0;stroke-linecap:round" />
<rect x="100.0" y="66.0" width="800.0" height="528.0" style="fill:rgb(255,255,255);stroke-width:2.0;stroke:rgb(0,0,0);opacity:1;fill-opacity:0;" />
<line x1="200.0" y1="597.0" x2="200.0" y2="594.0" style="stroke:rgb(0.0,0.0,0.0);stroke-width:2.0;opacity:1.0;stroke-linecap:round" />
<text x="181.74" y="610.0" stroke="#000000" stroke-width="0.7" transform="rotate(-0.0,181.74,610.0)">2008</text>
<line x1="400.0" y1="597.0" x2="400.0" y2="594.0" style="stroke:rgb(0.0,0.0,0.0);stroke-width:2.0;opacity:1.0;stroke-linecap:round" />
<text x="381.74" y="610.0" stroke="#000000" stroke-width="0.7" transform="rotate(-0.0,381.74,610.0)">2009</text>
<line x1="600.0" y1="597.0" x2="600.0" y2="594.0" style="stroke:rgb(0.0,0.0,0.0);stroke-width:2.0;opacity:1.0;stroke-linecap:round" />
<text x="582.06" y="610.0" stroke="#000000" stroke-width="0.7" transform="rotate(-0.0,582.06,610.0)">2010</text>
<line x1="800.0" y1="597.0" x2="800.0" y2="594.0" style="stroke:rgb(0.0,0.0,0.0);stroke-width:2.0;opacity:1.0;stroke-linecap:round" />
<text x="782.38" y="610.0" stroke="#000000" stroke-width="0.7" transform="rotate(-0.0,782.38,610.0)">2011</text>
<line x1="97.0" y1="506.0" x2="100.0" y2="506.0" style="stroke:rgb(0.0,0.0,0.0);stroke-width:2.0;opacity:1.0;stroke-linecap:round" />
<text x="62.16" y="510.0" stroke="#000000" stroke-width="0.7" transform="rotate(-0.0,62.16,510.0)">0.0</text>
<line x1="97.0" y1="427.33334" x2="100.0" y2="427.33334" style="stroke:rgb(0.0,0.0,0.0);stroke-width:2.0;opacity:1.0;stroke-linecap:round" />
<text x="57.04" y="431.33334" stroke="#000000" stroke-width="0.7" transform="rotate(-0.0,57.04,431.33334)">100.0</text>
<line x1="97.0" y1="348.6667" x2="100.0" y2="348.6667" style="stroke:rgb(0.0,0.0,0.0);stroke-width:2.0;opacity:1.0;stroke-linecap:round" />
<text x="56.4" y="352.6667" stroke="#000000" stroke-width="0.7" transform="rotate(-0.0,56.4,352.6667)">200.0</text>
<line x1="97.0" y1="270.00003" x2="100.0" y2="270.00003" style="stroke:rgb(0.0,0.0,0.0);stroke-width:2.0;opacity:1.0;stroke-linecap:round" />
<text x="56.4" y="274.00003" stroke="#000000" stroke-width="0.7" transform="rotate(-0.0,56.4,274.00003)">300.0</text>
<line x1="97.0" y1="191.33337" x2="100.0" y2="191.33337" style="stroke:rgb(0.0,0.0,0.0);stroke-width:2.0;opacity:1.0;stroke-linecap:round" />
<text x="56.4" y="195.33337" stroke="#000000" stroke-width="0.7" transform="rotate(-0.0,56.4,195.33337)">400.0</text>
<line x1="97.0" y1="112.66675" x2="100.0" y2="112.66675" style="stroke:rgb(0.0,0.0,0.0);stroke-width:2.0;opacity:1.0;stroke-linecap:round" />
<text x="56.4" y="116.66672" stroke="#000000" stroke-width="0.7" transform="rotate(-0.0,56.4,116.66672)">500.0</text>
<line x1="97.0" y1="584.6667" x2="100.0" y2="584.6667" style="stroke:rgb(0.0,0.0,0.0);stroke-width:2.0;opacity:1.0;stroke-linecap:round" />
<text x="54.32" y="588.6667" stroke="#000000" stroke-width="0.7" transform="rotate(-0.0,54.32,588.6667)">-100.0</text>
<rect x="110.0" y="254.26666" width="180.0" height="251.73334" style="fill:rgb(164.985,164.985,0.0);stroke-width:0;stroke:rgb(0,0,0);opacity:1.0" /><defs><pattern id="gridHatch" width="10" height="10" patternUnits="userSpaceOnUse"><line x1="0" y1="5" x2="10" y2="5" style="stroke:black; stroke-width:1" /><line x1="5" y1="0" x2="5" y2="10" style="stroke:black; stroke-width:1" /></pattern></defs><rect x="110.0" y="254.26666" width="180.0" height="251.73334" style="fill:url(#gridHatch);opacity:1" />
<rect x="310.0" y="506.0" width="180.0" height="78.666664" style="fill:rgb(164.985,164.985,0.0);stroke-width:0;stroke:rgb(0,0,0);opacity:1.0" /><rect x="310.0" y="506.0" width="180.0" height="78.666664" style="fill:url(#gridHatch);opacity:1" />
<rect x="510.0" y="175.6" width="180.0" height="330.4" style="fill:rgb(164.985,164.985,0.0);stroke-width:0;stroke:rgb(0,0,0);opacity:1.0" /><rect x="510.0" y="175.6" width="180.0" height="330.4" style="fill:url(#gridHatch);opacity:1" />
<rect x="710.0" y="112.66669" width="180.0" height="393.3333" style="fill:rgb(164.985,164.985,0.0);stroke-width:0;stroke:rgb(0,0,0);opacity:1.0" /><rect x="710.0" y="112.66669" width="180.0" height="393.3333" style="fill:url(#gridHatch);opacity:1" />
<text x="438.9" y="58.5" stroke="#000000" stroke-width="1.2" transform="rotate(-0.0,438.9,58.5)">HATCHED BAR CHART</text>
<text x="476.8" y="630.4" stroke="#000000" stroke-width="1.2" transform="rotate(-0.0,476.8,630.4)">X-AXIS</text>
<text x="50.0" y="376.6" stroke="#000000" stroke-width="1.2" transform="rotate(-90.0,50.0,376.6)">Y-AXIS</text>
<rect x="120.0" y="86.0" width="67.23999" height="24.0" style="fill:rgb(255.0,255.0,255.0);stroke-width:2.0;stroke:rgb(0.0,0.0,0.0);opacity:0.7" />
<rect x="128.0" y="94.0" width="8.0" height="8.0" style="fill:rgb(164.985,164.985,0.0);stroke-width:0;stroke:rgb(0,0,0);opacity:1.0" />
<text x="144.0" y="102.0" stroke="#000000" stroke-width="1.2" transform="rotate(-0.0,144.0,102.0)">Plot 1</text>
</svg>