<svg height="660.0" width="1000.0" version="4.0" xmlns="http://www.w3.org/2000/svg" xmlns:xlink= "http://www.w3.org/1999/xlink">
<rect width="100%" height="100%" fill="white"/>
<line x1="200.0" y1="594.0" x2="200.0" y2="66.0" style="stroke:rgb(127.5,127.5,127.5);stroke-width:0.5;opacity:1.0;stroke-linecap:round" />
<line x1="400.0" y1="594.0" x2="400.0" y2="66.0" style="stroke:rgb(127.5,127.5,127.5);stroke-width:0.5;opacity:1.0;stroke-linecap:round" />
<line x1="600.0" y1="594.0" x2="600.0" y2="66.0" style="stroke:rgb(127.5,127.5,127.5);stroke-width:0.5;opacity:1.0;stroke-linecap:round" />
<line x1="800.0" y1="594.0" x2="800.0" y2="66.0" style="stroke:rgb(127.5,127.5,127.5);stroke-width:0.5;opacity:1.0;stroke-linecap:round" />
<line x1="100.0" y1="531.5148" x2="900.0" y2="531.5148" style="stroke:rgb(127.5,127.5,127.5);stroke-width:0.5;opacity:1.0;stroke-linecap:round" />
<line x1="100.0" y1="475.6568" x2="900.0" y2="475.6568" style="stroke:rgb(127.5,127.5,127.5);stroke-width:0.5;opacity:1.0;stroke-linecap:round" />
<line x1="100.0" y1="419.79883" x2="900.0" y2="419.79883" style="stroke:rgb(127.5,127.5,127.5);stroke-width:0.5;opacity:1.0;stroke-linecap:round" />
<line x1="100.0" y1="363.94086" x2="900.0" y2="363.94086" style="stroke:rgb(127.5,127.5,127.5);stroke-width:0.5;opacity:1.0;stroke-linecap:round" />
<line x1="100.0" y1="308.08286" x2="900.0" y2="308.08286" style="stroke:rgb(127.5,127.5,127.5);stroke-width:0.5;opacity:1.0;stroke-linecap:round" />
<line x1="100.0" y1="252.22485" x2="900.0" y2="252.22485" style="stroke:rgb(127.5,127.5,127.5);stroke-width:0.5;opacity:1.0;stroke-linecap:round" />
<line x1="100.0" y1="196.36688" x2="900.0" y2="196.36688" style="stroke:rgb(127.5,127.5,127.5);stroke-width:0.5;opacity:1.0;stroke-linecap:round" />
<line x1="100.0" y1="140.50891" x2="900.0" y2="140.50891" style="stroke:rgb(127.5,127.5,127.5);stroke-width:0.5;opacity:1.0;stroke-linecap:round" />
<line x1="100.0" y1="84.65094" x2="900.0" y2="84.65094" style="stroke:rgb(127.5,127.5,127.5);stroke-width:0.5;opacity:1.0;stroke-linecap:round" />
<line x1="100.0" y1="587.3728" x2="900.0" y2="587.3728" style="stroke:rgb(127.5,127.5,127.5);stroke-width:0.5;opacity:1.0;stroke-linecap:round" />
<rect x="100.0" y="66.0" width="800.0" height="528.0" style="fill:rgb(255,255,255);stroke-width:2.0;stroke:rgb(0,0,0);opacity:1;fill-opacity:0;" />
<line x1="200.0" y1="597.0" x2="200.0" y2="594.0" style="stroke:rgb(0.0,0.0,0.0);stroke-width:2.0;opacity:1.0;stroke-linecap:round" />
<text x="181.74" y="610.0" stroke="#000000" stroke-width="0.7" transform="rotate(-0.0,181.74,610.0)">2008</text>
<line x1="400.0" y1="597.0" x2="400.0" y2="594.0" style="stroke:rgb(0.0,0.0,0.0);stroke-width:2.0;opacity:1.0;stroke-linecap:round" />
<text x="381.74" y="610.0" stroke="#000000" stroke-width="0.7" transform="rotate(-0.0,381.74,610.0)">2009</text>
<line x1="600.0" y1="597.0" x2="600.0" y2="594.0" style="stroke:rgb(0.0,0.0,0.0);stroke-width:2.0;opacity:1.0;stroke-linecap:round" />
<text x="582.06" y="610.0" stroke="#000000" stroke-width="0.7" transform="rotate(-0.0,582.06,610.0)">2010</text>
<line x1="800.0" y1="597.0" x2="800.0" y2="594.0" style="stroke:rgb(0.0,0.0,0.0);stroke-width:2.0;opacity:1.0;stroke-linecap:round" />
<text x="782.38" y="610.0" stroke="#000000" stroke-width="0.7" transform="rotate(-0.0,782.38,610.0)">2011</text>
<line x1="97.0" y1="531.5148" x2="100.0" y2="531.5148" style="stroke:rgb(0.0,0.0,0.0);stroke-width:2.0;opacity:1.0;stroke-linecap:round" />
<text x="62.16" y="535.5148" stroke="#000000" stroke-width="0.7" transform="rotate(-0.0,62.16,535.5148)">0.0</text>
<line x1="97.0" y1="475.6568" x2="100.0" y2="475.6568" style="stroke:rgb(0.0,0.0,0.0);stroke-width:2.0;opacity:1.0;stroke-linecap:round" />
<text x="57.04" y="479.6568" stroke="#000000" stroke-width="0.7" transform="rotate(-0.0,57.04,479.6568)">100.0</text>
<line x1="97.0" y1="419.79883" x2="100.0" y2="419.79883" style="stroke:rgb(0.0,0.0,0.0);stroke-width:2.0;opacity:1.0;stroke-linecap:round" />
<text x="56.4" y="423.79883" stroke="#000000" stroke-width="0.7" transform="rotate(-0.0,56.4,423.79883)">200.0</text>
<line x1="97.0" y1="363.94086" x2="100.0" y2="363.94086" style="stroke:rgb(0.0,0.0,0.0);stroke-width:2.0;opacity:1.0;stroke-linecap:round" />
<text x="56.4" y="367.94086" stroke="#000000" stroke-width="0.7" transform="rotate(-0.0,56.4,367.94086)">300.0</text>
<line x1="97.0" y1="308.08286" x2="100.0" y2="308.08286" style="stroke:rgb(0.0,0.0,0.0);stroke-width:2.0;opacity:1.0;stroke-linecap:round" />
<text x="56.4" y="312.08286" stroke="#000000" stroke-width="0.7" transform="rotate(-0.0,56.4,312.08286)">400.0</text>
<line x1="97.0" y1="252.22485" x2="100.0" y2="252.22485" style="stroke:rgb(0.0,0.0,0.0);stroke-width:2.0;opacity:1.0;stroke-linecap:round" />
<text x="56.4" y="256.22485" stroke="#000000" stroke-width="0.7" transform="rotate(-0.0,56.4,256.22485)">500.0</text>
<line x1="97.0" y1="196.36688" x2="100.0" y2="196.36688" style="stroke:rgb(0.0,0.0,0.0);stroke-width:2.0;opacity:1.0;stroke-linecap:round" />
<text x="56.4" y="200.36688" stroke="#000000" stroke-width="0.7" transform="rotate(-0.0,56.4,200.36688)">600.0</text>
<line x1="97.0" y1="140.50891" x2="100.0" y2="140.50891" style="stroke:rgb(0.0,0.0,0.0);stroke-width:2.0;opacity:1.0;stroke-linecap:round" />
<text x="56.4" y="144.50891" stroke="#000000" stroke-width="0.7" transform="rotate(-0.0,56.4,144.50891)">700.0</text>
<line x1="97.0" y1="84.65094" x2="100.0" y2="84.65094" style="stroke:rgb(0.0,0.0,0.0);stroke-width:2.0;opacity:1.0;stroke-linecap:round" />
<text x="56.4" y="88.65094" stroke="#000000" stroke-width="0.7" transform="rotate(-0.0,56.4,88.65094)">800.0</text>
<line x1="97.0" y1="587.3728" x2="100.0" y2="587.3728" style="stroke:rgb(0.0,0.0,0.0);stroke-width:2.0;opacity:1.0;stroke-linecap:round" />
<text x="54.32" y="591.3728" stroke="#000000" stroke-width="0.7" transform="rotate(-0.0,54.32,591.3728)">-100.0</text>
<rect x="110.0" y="352.76923" width="180.0" height="178.74557" style="fill:rgb(164.985,164.985,0.0);stroke-width:0;stroke:rgb(0,0,0);opacity:1.0" />
<rect x="110.0" y="296.91122" width="180.0" height="55.858" style="fill:rgb(0.0,0.0,255.0);stroke-width:0;stroke:rgb(0,0,0);opacity:1.0" />
<rect x="310.0" y="531.5148" width="180.0" height="55.857986" style="fill:rgb(164.985,164.985,0.0);stroke-width:0;stroke:rgb(0,0,0);opacity:1.0" />
<rect x="310.0" y="475.6568" width="180.0" height="55.857986" style="fill:rgb(0.0,0.0,255.0);stroke-width:0;stroke:rgb(0,0,0);opacity:1.0" />
<rect x="510.0" y="296.91125" width="180.0" height="234.60355" style="fill:rgb(164.985,164.985,0.0);stroke-width:0;stroke:rgb(0,0,0);opacity:1.0" />
<rect x="510.0" y="174.02368" width="180.0" height="122.88757" style="fill:rgb(0.0,0.0,255.0);stroke-width:0;stroke:rgb(0,0,0);opacity:1.0" />
<rect x="710.0" y="252.22488" width="180.0" height="279.28992" style="fill:rgb(164.985,164.985,0.0);stroke-width:0;stroke:rgb(0,0,0);opacity:1.0" />
<rect x="710.0" y="115.3728" width="180.0" height="136.85208" style="fill:rgb(0.0,0.0,255.0);stroke-width:0;stroke:rgb(0,0,0);opacity:1.0" />
<text x="461.4" y="58.5" stroke="#000000" stroke-width="1.2" transform="rotate(-0.0,461.4,58.5)">BAR CHART</text>
<text x="476.8" y="630.4" stroke="#000000" stroke-width="1.2" transform="rotate(-0.0,476.8,630.4)">X-AXIS</text>
<text x="50.0" y="376.6" stroke="#000000" stroke-width="1.2" transform="rotate(-90.0,50.0,376.6)">Y-AXIS</text>
<rect x="120.0" y="86.0" width="67.880005" height="40.0" style="fill:rgb(255.0,255.0,255.0);stroke-width:2.0;stroke:rgb(0.0,0.0,0.0);opacity:0.7" />
<rect x="128.0" y="94.0" width="8.0" height="8.0" style="fill:rgb(164.985,164.985,0.0);stroke-width:0;stroke:rgb(0,0,0);opacity:1.0" />
<text x="144.0" y="102.0" stroke="#000000" stroke-width="1.2" transform="rotate(-0.0,144.0,102.0)">Plot 1</text>
<rect x="128.0" y="110.0" width="8.0" height="8.0" style="fill:rgb(0.0,0.0,255.0);stroke-width:0;stroke:rgb(0,0,0);opacity:1.0" />
<text x="144.0" y="118.0" stroke="#000000" stroke-width="1.2" transform="rotate(-0.0,144.0,118.0)">Plot 2</text>
</svg>