<svg height="660.0" width="1000.0" version="4.0" xmlns="http://www.w3.org/2000/svg" xmlns:xlink= "http://www.w3.org/1999/xlink">
<rect width="100%" height="100%" fill="white"/>
<defs><style type="text/css">@font-face {font-family: DejaVuSans;src: url('DejaVuSans.ttf');}</style></defs>
<line x1="269.31216" y1="594.0" x2="269.31216" y2="66.0" style="stroke:rgb(127.5,127.5,127.5);stroke-width:0.5;opacity:1.0;stroke-linecap:round" />
<line x1="344.44446" y1="594.0" x2="344.44446" y2="66.0" style="stroke:rgb(127.5,127.5,127.5);stroke-width:0.5;opacity:1.0;stroke-linecap:round" />
<line x1="419.57672" y1="594.0" x2="419.57672" y2="66.0" style="stroke:rgb(127.5,127.5,127.5);stroke-width:0.5;opacity:1.0;stroke-linecap:round" />
<line x1="494.70898" y1="594.0" x2="494.70898" y2="66.0" style="stroke:rgb(127.5,127.5,127.5);stroke-width:0.5;opacity:1.0;stroke-linecap:round" />
<line x1="569.84125" y1="594.0" x2="569.84125" y2="66.0" style="stroke:rgb(127.5,127.5,127.5);stroke-width:0.5;opacity:1.0;stroke-linecap:round" />
<line x1="644.9735" y1="594.0" x2="644.9735" y2="66.0" style="stroke:rgb(127.5,127.5,127.5);stroke-width:0.5;opacity:1.0;stroke-linecap:round" />
<line x1="720.1058" y1="594.0" x2="720.1058" y2="66.0" style="stroke:rgb(127.5,127.5,127.5);stroke-width:0.5;opacity:1.0;stroke-linecap:round" />
<line x1="795.23804" y1="594.0" x2="795.23804" y2="66.0" style="stroke:rgb(127.5,127.5,127.5);stroke-width:0.5;opacity:1.0;stroke-linecap:round" />
<line x1="870.3703" y1="594.0" x2="870.3703" y2="66.0" style="stroke:rgb(127.5,127.5,127.5);stroke-width:0.5;opacity:1.0;stroke-linecap:round" />
<line x1="194.17989" y1="594.0" x2="194.17989" y2="66.0" style="stroke:rgb(127.5,127.5,127.5);stroke-width:0.5;opacity:1.0;stroke-linecap:round" />
<line x1="119.04761" y1="594.0" x2="119.04761" y2="66.0" style="stroke:rgb(127.5,127.5,127.5);stroke-width:0.5;opacity:1.0;stroke-linecap:round" />
<line x1="100.0" y1="528.0" x2="900.0" y2="528.0" style="stroke:rgb(127.5,127.5,127.5);stroke-width:0.5;opacity:1.0;stroke-linecap:round" />
<line x1="100.0" y1="396.0" x2="900.0" y2="396.0" style="stroke:rgb(127.5,127.5,127.5);stroke-width:0.5;opacity:1.0;stroke-linecap:round" />
<line x1="100.0" y1="264.0" x2="900.0" y2="264.0" style="stroke:rgb(127.5,127.5,127.5);stroke-width:0.5;opacity:1.0;stroke-linecap:round" />
<line x1="100.0" y1="132.0" x2="900.0" y2="132.0" style="stroke:rgb(127.5,127.5,127.5);stroke-width:0.5;opacity:1.0;stroke-linecap:round" />
<rect x="100.0" y="66.0" width="800.0" height="528.0" style="fill:rgb(255,255,255);stroke-width:2.0;stroke:rgb(0,0,0);opacity:1;fill-opacity:0;" />
<line x1="269.31216" y1="600.0" x2="269.31216" y2="594.0" style="stroke:rgb(0.0,0.0,0.0);stroke-width:2.0;opacity:1.0;stroke-linecap:round" />
<text font-size="12.0" font-family="DejaVuSans" x="258.93216" y="614.0" stroke="#000000" stroke-width="0.175" transform="rotate(-0.0,258.93216,614.0)">0.0</text>
<line x1="344.44446" y1="600.0" x2="344.44446" y2="594.0" style="stroke:rgb(0.0,0.0,0.0);stroke-width:2.0;opacity:1.0;stroke-linecap:round" />
<text font-size="12.0" font-family="DejaVuSans" x="330.22443" y="614.0" stroke="#000000" stroke-width="0.175" transform="rotate(-0.0,330.22443,614.0)">100.0</text>
<line x1="419.57672" y1="600.0" x2="419.57672" y2="594.0" style="stroke:rgb(0.0,0.0,0.0);stroke-width:2.0;opacity:1.0;stroke-linecap:round" />
<text font-size="12.0" font-family="DejaVuSans" x="404.8767" y="614.0" stroke="#000000" stroke-width="0.175" transform="rotate(-0.0,404.8767,614.0)">200.0</text>
<line x1="494.70898" y1="600.0" x2="494.70898" y2="594.0" style="stroke:rgb(0.0,0.0,0.0);stroke-width:2.0;opacity:1.0;stroke-linecap:round" />
<text font-size="12.0" font-family="DejaVuSans" x="480.00897" y="614.0" stroke="#000000" stroke-width="0.175" transform="rotate(-0.0,480.00897,614.0)">300.0</text>
<line x1="569.84125" y1="600.0" x2="569.84125" y2="594.0" style="stroke:rgb(0.0,0.0,0.0);stroke-width:2.0;opacity:1.0;stroke-linecap:round" />
<text font-size="12.0" font-family="DejaVuSans" x="555.14124" y="614.0" stroke="#000000" stroke-width="0.175" transform="rotate(-0.0,555.14124,614.0)">400.0</text>
<line x1="644.9735" y1="600.0" x2="644.9735" y2="594.0" style="stroke:rgb(0.0,0.0,0.0);stroke-width:2.0;opacity:1.0;stroke-linecap:round" />
<text font-size="12.0" font-family="DejaVuSans" x="630.2735" y="614.0" stroke="#000000" stroke-width="0.175" transform="rotate(-0.0,630.2735,614.0)">500.0</text>
<line x1="720.1058" y1="600.0" x2="720.1058" y2="594.0" style="stroke:rgb(0.0,0.0,0.0);stroke-width:2.0;opacity:1.0;stroke-linecap:round" />
<text font-size="12.0" font-family="DejaVuSans" x="705.40576" y="614.0" stroke="#000000" stroke-width="0.175" transform="rotate(-0.0,705.40576,614.0)">600.0</text>
<line x1="795.23804" y1="600.0" x2="795.23804" y2="594.0" style="stroke:rgb(0.0,0.0,0.0);stroke-width:2.0;opacity:1.0;stroke-linecap:round" />
<text font-size="12.0" font-family="DejaVuSans" x="780.538" y="614.0" stroke="#000000" stroke-width="0.175" transform="rotate(-0.0,780.538,614.0)">700.0</text>
<line x1="870.3703" y1="600.0" x2="870.3703" y2="594.0" style="stroke:rgb(0.0,0.0,0.0);stroke-width:2.0;opacity:1.0;stroke-linecap:round" />
<text font-size="12.0" font-family="DejaVuSans" x="855.6703" y="614.0" stroke="#000000" stroke-width="0.175" transform="rotate(-0.0,855.6703,614.0)">800.0</text>
<line x1="194.17989" y1="600.0" x2="194.17989" y2="594.0" style="stroke:rgb(0.0,0.0,0.0);stroke-width:2.0;opacity:1.0;stroke-linecap:round" />
<text font-size="12.0" font-family="DejaVuSans" x="177.91989" y="614.0" stroke="#000000" stroke-width="0.175" transform="rotate(-0.0,177.91989,614.0)">-100.0</text>
<line x1="119.04761" y1="600.0" x2="119.04761" y2="594.0" style="stroke:rgb(0.0,0.0,0.0);stroke-width:2.0;opacity:1.0;stroke-linecap:round" />
<text font-size="12.0" font-family="DejaVuSans" x="102.30761" y="614.0" stroke="#000000" stroke-width="0.175" transform="rotate(-0.0,102.30761,614.0)">-200.0</text>
<line x1="94.0" y1="528.0" x2="100.0" y2="528.0" style="stroke:rgb(0.0,0.0,0.0);stroke-width:2.0;opacity:1.0;stroke-linecap:round" />
<text font-size="12.0" font-family="DejaVuSans" x="49.264" y="534.0" stroke="#000000" stroke-width="0.175" transform="rotate(-0.0,49.264,534.0)">2008</text>
<line x1="94.0" y1="396.0" x2="100.0" y2="396.0" style="stroke:rgb(0.0,0.0,0.0);stroke-width:2.0;opacity:1.0;stroke-linecap:round" />
<text font-size="12.0" font-family="DejaVuSans" x="49.264" y="402.0" stroke="#000000" stroke-width="0.175" transform="rotate(-0.0,49.264,402.0)">2009</text>
<line x1="94.0" y1="264.0" x2="100.0" y2="264.0" style="stroke:rgb(0.0,0.0,0.0);stroke-width:2.0;opacity:1.0;stroke-linecap:round" />
<text font-size="12.0" font-family="DejaVuSans" x="50.415997" y="270.0" stroke="#000000" stroke-width="0.175" transform="rotate(-0.0,50.415997,270.0)">2010</text>
<line x1="94.0" y1="132.0" x2="100.0" y2="132.0" style="stroke:rgb(0.0,0.0,0.0);stroke-width:2.0;opacity:1.0;stroke-linecap:round" />
<text font-size="12.0" font-family="DejaVuSans" x="51.567997" y="138.0" stroke="#000000" stroke-width="0.175" transform="rotate(-0.0,51.567997,138.0)">2011</text>
<rect x="269.31216" y="472.0" width="240.42328" height="112.0" style="fill:rgb(164.985,164.985,0.0);stroke-width:0;stroke:rgb(0,0,0);opacity:1.0" />
<rect x="509.73544" y="472.0" width="75.13229" height="112.0" style="fill:rgb(0.0,0.0,255.0);stroke-width:0;stroke:rgb(0,0,0);opacity:1.0" />
<rect x="194.17989" y="340.0" width="75.13228" height="112.0" style="fill:rgb(164.985,164.985,0.0);stroke-width:0;stroke:rgb(0,0,0);opacity:1.0" />
<rect x="269.31216" y="340.0" width="75.13228" height="112.0" style="fill:rgb(0.0,0.0,255.0);stroke-width:0;stroke:rgb(0,0,0);opacity:1.0" />
<rect x="269.31216" y="208.0" width="315.55554" height="112.0" style="fill:rgb(164.985,164.985,0.0);stroke-width:0;stroke:rgb(0,0,0);opacity:1.0" />
<rect x="584.8677" y="208.0" width="165.29099" height="112.0" style="fill:rgb(0.0,0.0,255.0);stroke-width:0;stroke:rgb(0,0,0);opacity:1.0" />
<rect x="269.31216" y="76.0" width="375.66135" height="112.0" style="fill:rgb(164.985,164.985,0.0);stroke-width:0;stroke:rgb(0,0,0);opacity:1.0" />
<rect x="644.9735" y="76.0" width="184.0741" height="112.0" style="fill:rgb(0.0,0.0,255.0);stroke-width:0;stroke:rgb(0,0,0);opacity:1.0" />
<text font-size="20.0" font-family="DejaVuSans" x="452.7" y="56.0" stroke="#000000" stroke-width="0.3" transform="rotate(-0.0,452.7,56.0)">BAR CHART</text>
<text font-size="15.0" font-family="DejaVuSans" x="471.45" y="635.4" stroke="#000000" stroke-width="0.3" transform="rotate(-0.0,471.45,635.4)">X-AXIS</text>
<text font-size="15.0" font-family="DejaVuSans" x="45.0" y="387.4" stroke="#000000" stroke-width="0.3" transform="rotate(-90.0,45.0,387.4)">Y-AXIS</text>
<rect x="120.0" y="86.0" width="78.600006" height="50.0" style="fill:rgb(255.0,255.0,255.0);stroke-width:2.0;stroke:rgb(0.0,0.0,0.0);opacity:0.7" />
<rect x="130.0" y="96.0" width="10.0" height="10.0" style="fill:rgb(164.985,164.985,0.0);stroke-width:0;stroke:rgb(0,0,0);opacity:1.0" />
<text font-size="10.0" font-family="DejaVuSans" x="150.0" y="106.0" stroke="#000000" stroke-width="0.3" transform="rotate(-0.0,150.0,106.0)">Plot 1</text>
<rect x="130.0" y="116.0" width="10.0" height="10.0" style="fill:rgb(0.0,0.0,255.0);stroke-width:0;stroke:rgb(0,0,0);opacity:1.0" />
<text font-size="10.0" font-family="DejaVuSans" x="150.0" y="126.0" stroke="#000000" stroke-width="0.3" transform="rotate(-0.0,150.0,126.0)">Plot 2</text>
</svg>