<svg height="1000.0" width="1000.0" version="4.0" xmlns="http://www.w3.org/2000/svg" xmlns:xlink= "http://www.w3.org/1999/xlink">
<rect width="100%" height="100%" fill="white"/>
<rect x="100.0" y="100.0" width="800.0" height="800.0" style="fill:rgb(255,255,255);stroke-width:2.0;stroke:rgb(0,0,0);opacity:1" />
<line x1="163.63637" y1="903.0" x2="163.63637" y2="900.0" style="stroke:rgb(0.0,0.0,0.0);stroke-width:2.0;opacity:1.0;stroke-linecap:round" />
<text x="154.09636" y="915.0" stroke="#000000" stroke-width="0.7" transform="rotate(-0.0,154.09636,915.0)">10.0</text>
<line x1="235.35353" y1="903.0" x2="235.35353" y2="900.0" style="stroke:rgb(0.0,0.0,0.0);stroke-width:2.0;opacity:1.0;stroke-linecap:round" />
<text x="225.49353" y="915.0" stroke="#000000" stroke-width="0.7" transform="rotate(-0.0,225.49353,915.0)">20.0</text>
<line x1="307.0707" y1="903.0" x2="307.0707" y2="900.0" style="stroke:rgb(0.0,0.0,0.0);stroke-width:2.0;opacity:1.0;stroke-linecap:round" />
<text x="297.2107" y="915.0" stroke="#000000" stroke-width="0.7" transform="rotate(-0.0,297.2107,915.0)">30.0</text>
<line x1="378.78787" y1="903.0" x2="378.78787" y2="900.0" style="stroke:rgb(0.0,0.0,0.0);stroke-width:2.0;opacity:1.0;stroke-linecap:round" />
<text x="368.92786" y="915.0" stroke="#000000" stroke-width="0.7" transform="rotate(-0.0,368.92786,915.0)">40.0</text>
<line x1="450.50504" y1="903.0" x2="450.50504" y2="900.0" style="stroke:rgb(0.0,0.0,0.0);stroke-width:2.0;opacity:1.0;stroke-linecap:round" />
<text x="440.64502" y="915.0" stroke="#000000" stroke-width="0.7" transform="rotate(-0.0,440.64502,915.0)">50.0</text>
<line x1="522.22217" y1="903.0" x2="522.22217" y2="900.0" style="stroke:rgb(0.0,0.0,0.0);stroke-width:2.0;opacity:1.0;stroke-linecap:round" />
<text x="512.3622" y="915.0" stroke="#000000" stroke-width="0.7" transform="rotate(-0.0,512.3622,915.0)">60.0</text>
<line x1="593.93933" y1="903.0" x2="593.93933" y2="900.0" style="stroke:rgb(0.0,0.0,0.0);stroke-width:2.0;opacity:1.0;stroke-linecap:round" />
<text x="584.07935" y="915.0" stroke="#000000" stroke-width="0.7" transform="rotate(-0.0,584.07935,915.0)">70.0</text>
<line x1="665.65656" y1="903.0" x2="665.65656" y2="900.0" style="stroke:rgb(0.0,0.0,0.0);stroke-width:2.0;opacity:1.0;stroke-linecap:round" />
<text x="655.7966" y="915.0" stroke="#000000" stroke-width="0.7" transform="rotate(-0.0,655.7966,915.0)">80.0</text>
<line x1="737.3737" y1="903.0" x2="737.3737" y2="900.0" style="stroke:rgb(0.0,0.0,0.0);stroke-width:2.0;opacity:1.0;stroke-linecap:round" />
<text x="727.51373" y="915.0" stroke="#000000" stroke-width="0.7" transform="rotate(-0.0,727.51373,915.0)">90.0</text>
<line x1="809.0909" y1="903.0" x2="809.0909" y2="900.0" style="stroke:rgb(0.0,0.0,0.0);stroke-width:2.0;opacity:1.0;stroke-linecap:round" />
<text x="798.1109" y="915.0" stroke="#000000" stroke-width="0.7" transform="rotate(-0.0,798.1109,915.0)">100.0</text>
<line x1="880.80804" y1="903.0" x2="880.80804" y2="900.0" style="stroke:rgb(0.0,0.0,0.0);stroke-width:2.0;opacity:1.0;stroke-linecap:round" />
<text x="870.1481" y="915.0" stroke="#000000" stroke-width="0.7" transform="rotate(-0.0,870.1481,915.0)">110.0</text>
<line x1="97.0" y1="875.43353" x2="100.0" y2="875.43353" style="stroke:rgb(0.0,0.0,0.0);stroke-width:2.0;opacity:1.0;stroke-linecap:round" />
<text x="62.16" y="879.43353" stroke="#000000" stroke-width="0.7" transform="rotate(-0.0,62.16,879.43353)">0.0</text>
<line x1="97.0" y1="539.82275" x2="100.0" y2="539.82275" style="stroke:rgb(0.0,0.0,0.0);stroke-width:2.0;opacity:1.0;stroke-linecap:round" />
<text x="57.04" y="543.82275" stroke="#000000" stroke-width="0.7" transform="rotate(-0.0,57.04,543.82275)">100.0</text>
<line x1="97.0" y1="204.21191" x2="100.0" y2="204.21191" style="stroke:rgb(0.0,0.0,0.0);stroke-width:2.0;opacity:1.0;stroke-linecap:round" />
<text x="56.4" y="208.21191" stroke="#000000" stroke-width="0.7" transform="rotate(-0.0,56.4,208.21191)">200.0</text>
<circle cx="106.26263" cy="875.2525" r="5.0"  style="fill:rgb(213.63663,213.63663,0.6706861);opacity:1.0" />
<circle cx="113.43434" cy="863.0517" r="5.0"  style="fill:rgb(209.84813,209.84813,5.1807933);opacity:1.0" />
<circle cx="120.606064" cy="877.0669" r="5.0"  style="fill:rgb(214.2,214.2,0.0);opacity:1.0" />
<circle cx="127.77778" cy="814.8031" r="5.0"  style="fill:rgb(194.86642,194.86642,23.016165);opacity:1.0" />
<circle cx="134.9495" cy="821.6288" r="5.0"  style="fill:rgb(196.98587,196.98587,20.49301);opacity:1.0" />
<circle cx="142.12122" cy="817.8171" r="5.0"  style="fill:rgb(195.80228,195.80228,21.90204);opacity:1.0" />
<circle cx="149.29294" cy="848.01794" r="5.0"  style="fill:rgb(205.18,205.18,10.738107);opacity:1.0" />
<circle cx="156.46465" cy="800.6642" r="5.0"  style="fill:rgb(190.47612,190.47612,28.24271);opacity:1.0" />
<circle cx="163.63637" cy="835.0593" r="5.0"  style="fill:rgb(201.15619,201.15619,15.528333);opacity:1.0" />
<circle cx="170.80807" cy="793.5821" r="5.0"  style="fill:rgb(188.27704,188.27704,30.860651);opacity:1.0" />
<circle cx="177.9798" cy="773.1377" r="5.0"  style="fill:rgb(181.92885,181.92885,38.418034);opacity:1.0" />
<circle cx="185.15152" cy="795.3371" r="5.0"  style="fill:rgb(188.82199,188.82199,30.211899);opacity:1.0" />
<circle cx="192.32323" cy="755.8293" r="5.0"  style="fill:rgb(176.5544,176.5544,44.816196);opacity:1.0" />
<circle cx="199.49495" cy="801.6167" r="5.0"  style="fill:rgb(190.77187,190.77187,27.890621);opacity:1.0" />
<circle cx="206.66666" cy="791.71344" r="5.0"  style="fill:rgb(187.69681,187.69681,31.551409);opacity:1.0" />
<circle cx="213.83838" cy="773.0111" r="5.0"  style="fill:rgb(181.88954,181.88954,38.464832);opacity:1.0" />
<circle cx="221.0101" cy="724.7759" r="5.0"  style="fill:rgb(166.91199,166.91199,56.295265);opacity:1.0" />
<circle cx="228.18181" cy="762.3817" r="5.0"  style="fill:rgb(178.58897,178.58897,42.394066);opacity:1.0" />
<circle cx="235.35353" cy="715.93823" r="5.0"  style="fill:rgb(164.16777,164.16777,59.562172);opacity:1.0" />
<circle cx="242.52525" cy="714.271" r="5.0"  style="fill:rgb(163.65009,163.65009,60.178455);opacity:1.0" />
<circle cx="249.69696" cy="742.42444" r="5.0"  style="fill:rgb(172.39204,172.39204,49.77139);opacity:1.0" />
<circle cx="256.86868" cy="704.9098" r="5.0"  style="fill:rgb(160.74332,160.74332,63.6389);opacity:1.0" />
<circle cx="264.0404" cy="734.34875" r="5.0"  style="fill:rgb(169.88445,169.88445,52.75661);opacity:1.0" />
<circle cx="271.2121" cy="718.54553" r="5.0"  style="fill:rgb(164.97737,164.97737,58.59836);opacity:1.0" />
<circle cx="278.38385" cy="687.5594" r="5.0"  style="fill:rgb(155.35583,155.35583,70.05257);opacity:1.0" />
<circle cx="285.55554" cy="723.81726" r="5.0"  style="fill:rgb(166.61429,166.61429,56.649643);opacity:1.0" />
<circle cx="292.72726" cy="692.2383" r="5.0"  style="fill:rgb(156.8087,156.8087,68.322975);opacity:1.0" />
<circle cx="299.899" cy="693.5375" r="5.0"  style="fill:rgb(157.2121,157.2121,67.842735);opacity:1.0" />
<circle cx="307.0707" cy="650.33997" r="5.0"  style="fill:rgb(143.7988,143.7988,83.81096);opacity:1.0" />
<circle cx="314.24243" cy="666.8675" r="5.0"  style="fill:rgb(148.93077,148.93077,77.701454);opacity:1.0" />
<circle cx="321.41412" cy="638.53613" r="5.0"  style="fill:rgb(140.13358,140.13358,88.17432);opacity:1.0" />
<circle cx="328.58588" cy="645.8839" r="5.0"  style="fill:rgb(142.41515,142.41515,85.45816);opacity:1.0" />
<circle cx="335.75757" cy="642.3656" r="5.0"  style="fill:rgb(141.32266,141.32266,86.758736);opacity:1.0" />
<circle cx="342.9293" cy="658.1698" r="5.0"  style="fill:rgb(146.23004,146.23004,80.916595);opacity:1.0" />
<circle cx="350.101" cy="657.3971" r="5.0"  style="fill:rgb(145.99011,145.99011,81.20224);opacity:1.0" />
<circle cx="357.27274" cy="660.2623" r="5.0"  style="fill:rgb(146.87978,146.87978,80.143105);opacity:1.0" />
<circle cx="364.44443" cy="626.96265" r="5.0"  style="fill:rgb(136.53989,136.53989,92.45252);opacity:1.0" />
<circle cx="371.61615" cy="626.7798" r="5.0"  style="fill:rgb(136.4831,136.4831,92.5201);opacity:1.0" />
<circle cx="378.78787" cy="590.0642" r="5.0"  style="fill:rgb(125.08252,125.08252,106.09224);opacity:1.0" />
<circle cx="385.9596" cy="619.70337" r="5.0"  style="fill:rgb(134.28578,134.28578,95.13596);opacity:1.0" />
<circle cx="393.13132" cy="585.28143" r="5.0"  style="fill:rgb(123.59741,123.59741,107.86023);opacity:1.0" />
<circle cx="400.30304" cy="559.40295" r="5.0"  style="fill:rgb(115.56185,115.56185,117.42636);opacity:1.0" />
<circle cx="407.47473" cy="600.9392" r="5.0"  style="fill:rgb(128.45932,128.45932,102.07223);opacity:1.0" />
<circle cx="414.64645" cy="560.5393" r="5.0"  style="fill:rgb(115.91469,115.91469,117.00632);opacity:1.0" />
<circle cx="421.81818" cy="574.42993" r="5.0"  style="fill:rgb(120.22789,120.22789,111.87155);opacity:1.0" />
<circle cx="428.9899" cy="580.7268" r="5.0"  style="fill:rgb(122.18315,122.18315,109.54387);opacity:1.0" />
<circle cx="436.16162" cy="545.43414" r="5.0"  style="fill:rgb(111.22438,111.22438,122.59002);opacity:1.0" />
<circle cx="443.33334" cy="538.42255" r="5.0"  style="fill:rgb(109.0472,109.0472,125.1819);opacity:1.0" />
<circle cx="450.50504" cy="547.92944" r="5.0"  style="fill:rgb(111.9992,111.9992,121.667625);opacity:1.0" />
<circle cx="457.67676" cy="539.0493" r="5.0"  style="fill:rgb(109.24181,109.24181,124.95021);opacity:1.0" />
<circle cx="464.84848" cy="519.798" r="5.0"  style="fill:rgb(103.26408,103.26408,132.06656);opacity:1.0" />
<circle cx="472.0202" cy="551.81934" r="5.0"  style="fill:rgb(113.20706,113.20706,120.22969);opacity:1.0" />
<circle cx="479.19193" cy="494.36783" r="5.0"  style="fill:rgb(95.36773,95.36773,141.46698);opacity:1.0" />
<circle cx="486.36365" cy="491.93353" r="5.0"  style="fill:rgb(94.611855,94.611855,142.36684);opacity:1.0" />
<circle cx="493.53534" cy="523.7431" r="5.0"  style="fill:rgb(104.48907,104.48907,130.60825);opacity:1.0" />
<circle cx="500.70706" cy="517.279" r="5.0"  style="fill:rgb(102.481895,102.481895,132.99774);opacity:1.0" />
<circle cx="507.87878" cy="481.95557" r="5.0"  style="fill:rgb(91.51358,91.51358,146.05525);opacity:1.0" />
<circle cx="515.05054" cy="481.26807" r="5.0"  style="fill:rgb(91.30011,91.30011,146.30939);opacity:1.0" />
<circle cx="522.2222" cy="456.64648" r="5.0"  style="fill:rgb(83.65485,83.65485,155.4109);opacity:1.0" />
<circle cx="529.3939" cy="433.5686" r="5.0"  style="fill:rgb(76.48891,76.48891,163.94177);opacity:1.0" />
<circle cx="536.5657" cy="433.8805" r="5.0"  style="fill:rgb(76.585754,76.585754,163.82648);opacity:1.0" />
<circle cx="543.73737" cy="481.92664" r="5.0"  style="fill:rgb(91.50459,91.50459,146.06595);opacity:1.0" />
<circle cx="550.90906" cy="424.21942" r="5.0"  style="fill:rgb(73.58587,73.58587,167.39777);opacity:1.0" />
<circle cx="558.0808" cy="455.39697" r="5.0"  style="fill:rgb(83.26685,83.26685,155.87279);opacity:1.0" />
<circle cx="565.25256" cy="407.35938" r="5.0"  style="fill:rgb(68.35065,68.35065,173.63017);opacity:1.0" />
<circle cx="572.4242" cy="454.13403" r="5.0"  style="fill:rgb(82.87468,82.87468,156.33966);opacity:1.0" />
<circle cx="579.59595" cy="429.17603" r="5.0"  style="fill:rgb(75.12495,75.12495,165.56554);opacity:1.0" />
<circle cx="586.7677" cy="379.719" r="5.0"  style="fill:rgb(59.768,59.768,183.84761);opacity:1.0" />
<circle cx="593.9394" cy="380.76245" r="5.0"  style="fill:rgb(60.092007,60.092007,183.4619);opacity:1.0" />
<circle cx="601.1111" cy="384.53162" r="5.0"  style="fill:rgb(61.262375,61.262375,182.0686);opacity:1.0" />
<circle cx="608.28284" cy="420.865" r="5.0"  style="fill:rgb(72.54428,72.54428,168.63776);opacity:1.0" />
<circle cx="615.4545" cy="411.24225" r="5.0"  style="fill:rgb(69.55632,69.55632,172.19485);opacity:1.0" />
<circle cx="622.6263" cy="375.76324" r="5.0"  style="fill:rgb(58.539692,58.539692,185.30989);opacity:1.0" />
<circle cx="629.798" cy="350.44977" r="5.0"  style="fill:rgb(50.679577,50.679577,194.66718);opacity:1.0" />
<circle cx="636.96967" cy="349.73798" r="5.0"  style="fill:rgb(50.45856,50.45856,194.93028);opacity:1.0" />
<circle cx="644.1414" cy="344.9192" r="5.0"  style="fill:rgb(48.96227,48.96227,196.71158);opacity:1.0" />
<circle cx="651.3131" cy="349.42108" r="5.0"  style="fill:rgb(50.36016,50.36016,195.04742);opacity:1.0" />
<circle cx="658.48486" cy="343.1963" r="5.0"  style="fill:rgb(48.42729,48.42729,197.34846);opacity:1.0" />
<circle cx="665.65656" cy="309.1955" r="5.0"  style="fill:rgb(37.869667,37.869667,209.91705);opacity:1.0" />
<circle cx="672.8283" cy="350.83185" r="5.0"  style="fill:rgb(50.79822,50.79822,194.52592);opacity:1.0" />
<circle cx="680.0" cy="316.14716" r="5.0"  style="fill:rgb(40.028236,40.028236,207.34734);opacity:1.0" />
<circle cx="687.1717" cy="299.79065" r="5.0"  style="fill:rgb(34.949364,34.949364,213.39362);opacity:1.0" />
<circle cx="694.34344" cy="291.50745" r="5.0"  style="fill:rgb(32.37734,32.37734,216.45555);opacity:1.0" />
<circle cx="701.51514" cy="313.51538" r="5.0"  style="fill:rgb(39.211037,39.211037,208.32019);opacity:1.0" />
<circle cx="708.6869" cy="320.69574" r="5.0"  style="fill:rgb(41.44062,41.44062,205.66592);opacity:1.0" />
<circle cx="715.8586" cy="270.28864" r="5.0"  style="fill:rgb(25.78866,25.78866,224.29921);opacity:1.0" />
<circle cx="723.0303" cy="282.85394" r="5.0"  style="fill:rgb(29.690327,29.690327,219.65437);opacity:1.0" />
<circle cx="730.202" cy="284.53882" r="5.0"  style="fill:rgb(30.213505,30.213505,219.03154);opacity:1.0" />
<circle cx="737.3737" cy="249.79663" r="5.0"  style="fill:rgb(19.425673,19.425673,231.87419);opacity:1.0" />
<circle cx="744.5455" cy="237.69232" r="5.0"  style="fill:rgb(15.667142,15.667142,236.34863);opacity:1.0" />
<circle cx="751.71716" cy="268.7046" r="5.0"  style="fill:rgb(25.296799,25.296799,224.88477);opacity:1.0" />
<circle cx="758.8889" cy="267.27106" r="5.0"  style="fill:rgb(24.851667,24.851667,225.41469);opacity:1.0" />
<circle cx="766.0606" cy="216.47961" r="5.0"  style="fill:rgb(9.08037,9.08037,244.19003);opacity:1.0" />
<circle cx="773.2323" cy="211.62909" r="5.0"  style="fill:rgb(7.574222,7.574222,245.98306);opacity:1.0" />
<circle cx="780.40405" cy="256.09045" r="5.0"  style="fill:rgb(21.379967,21.379967,229.54765);opacity:1.0" />
<circle cx="787.57574" cy="227.3103" r="5.0"  style="fill:rgb(12.44342,12.44342,240.1864);opacity:1.0" />
<circle cx="794.7475" cy="241.3902" r="5.0"  style="fill:rgb(16.815384,16.815384,234.98169);opacity:1.0" />
<circle cx="801.9192" cy="193.83551" r="5.0"  style="fill:rgb(2.0491283,2.0491283,252.56056);opacity:1.0" />
<circle cx="809.0909" cy="187.23633" r="5.0"  style="fill:rgb(0.0,0.0,255.0);opacity:1.0" />
<polygon points="106.26263,875.83777 104.79317,878.81525 101.50735,879.2927 103.88499,881.61035 103.3237,884.8829 106.26263,883.33777 109.20155,884.8829 108.64027,881.61035 111.017914,879.2927 107.73209,878.81525 106.26263,875.83777 104.79317,878.81525 " style="fill:rgb(127.5,127.5,0.0);opacity:1.0" />
<polygon points="113.43434,857.749 111.96488,860.72644 108.67906,861.2039 111.0567,863.52155 110.495415,866.79407 113.43434,865.249 116.37327,866.79407 115.81198,863.52155 118.18963,861.2039 114.90381,860.72644 113.43435,857.749 111.96488,860.72644 " style="fill:rgb(127.5,127.5,0.0);opacity:1.0" />
<polygon points="120.606064,829.6575 119.1366,832.63495 115.85078,833.1124 118.22842,835.43005 117.66714,838.7026 120.606064,837.1575 123.54499,838.7026 122.9837,835.43005 125.36134,833.1124 122.07553,832.63495 120.60606,829.6575 119.1366,832.63495 " style="fill:rgb(127.5,127.5,0.0);opacity:1.0" />
<polygon points="127.77778,861.00183 126.30832,863.97925 123.02249,864.4567 125.40014,866.77435 124.83885,870.0469 127.77778,868.50183 130.7167,870.0469 130.15543,866.77435 132.53307,864.4567 129.24724,863.97925 127.77778,861.00183 126.30832,863.97925 " style="fill:rgb(127.5,127.5,0.0);opacity:1.0" />
<polygon points="134.9495,829.69006 133.48004,832.66754 130.19421,833.145 132.57185,835.46265 132.01057,838.73517 134.9495,837.19006 137.88843,838.73517 137.32715,835.46265 139.70477,833.145 136.41896,832.66754 134.9495,829.69006 133.48004,832.66754 " style="fill:rgb(127.5,127.5,0.0);opacity:1.0" />
<polygon points="142.12122,863.6941 140.65175,866.6716 137.36594,867.14905 139.74358,869.4667 139.18228,872.7392 142.12122,871.1941 145.06013,872.7392 144.49886,869.4667 146.8765,867.14905 143.59067,866.6716 142.12122,863.6941 140.65175,866.6716 " style="fill:rgb(127.5,127.5,0.0);opacity:1.0" />
<polygon points="149.29294,821.1547 147.82347,824.1322 144.53764,824.6096 146.91528,826.92725 146.354,830.1998 149.29294,828.6547 152.23186,830.1998 151.67056,826.92725 154.04822,824.6096 150.76239,824.1322 149.29292,821.1547 147.82347,824.1322 " style="fill:rgb(127.5,127.5,0.0);opacity:1.0" />
<polygon points="156.46465,842.3401 154.99518,845.3175 151.70937,845.795 154.087,848.1126 153.52573,851.38513 156.46465,849.8401 159.40358,851.38513 158.84229,848.1126 161.21994,845.795 157.93411,845.3175 156.46465,842.3401 154.99518,845.3175 " style="fill:rgb(127.5,127.5,0.0);opacity:1.0" />
<polygon points="163.63637,849.6836 162.1669,852.661 158.88107,853.1385 161.25873,855.4561 160.69743,858.72864 163.63637,857.1836 166.57529,858.72864 166.014,855.4561 168.39165,853.1385 165.10583,852.661 163.63637,849.6836 162.1669,852.661 " style="fill:rgb(127.5,127.5,0.0);opacity:1.0" />
<polygon points="170.80807,832.62024 169.33862,835.5977 166.0528,836.0752 168.43044,838.3928 167.86914,841.66534 170.80807,840.12024 173.747,841.66534 173.18571,838.3928 175.56335,836.0752 172.27753,835.5977 170.80807,832.62024 169.33862,835.5977 " style="fill:rgb(127.5,127.5,0.0);opacity:1.0" />
<polygon points="177.9798,851.26917 176.51035,854.2466 173.22452,854.72406 175.60216,857.0417 175.04086,860.3142 177.9798,858.76917 180.91872,860.3142 180.35744,857.0417 182.73508,854.72406 179.44925,854.2466 177.9798,851.26917 176.51035,854.2466 " style="fill:rgb(127.5,127.5,0.0);opacity:1.0" />
<polygon points="185.15152,813.714 183.68205,816.6914 180.39624,817.1689 182.77386,819.4865 182.21259,822.75903 185.1515,821.214 188.09044,822.75903 187.52914,819.4865 189.9068,817.1689 186.62099,816.6914 185.15152,813.714 183.68207,816.6914 " style="fill:rgb(127.5,127.5,0.0);opacity:1.0" />
<polygon points="192.32323,814.789 190.85376,817.7665 187.56795,818.2439 189.94559,820.5615 189.38431,823.8341 192.32321,822.289 195.26215,823.8341 194.70087,820.5616 197.07849,818.2439 193.7927,817.7665 192.32321,814.78906 190.85378,817.7665 " style="fill:rgb(127.5,127.5,0.0);opacity:1.0" />
<polygon points="199.49495,839.00085 198.02548,841.97833 194.73967,842.45575 197.11731,844.7734 196.55603,848.0459 199.49495,846.50085 202.43387,848.04596 201.87259,844.7734 204.25023,842.4558 200.96442,841.97833 199.49496,839.00085 198.02548,841.97833 " style="fill:rgb(127.5,127.5,0.0);opacity:1.0" />
<polygon points="206.66666,834.3375 205.1972,837.31494 201.91138,837.7924 204.28903,840.11005 203.72774,843.38257 206.66666,841.8375 209.60559,843.38257 209.04431,840.11005 211.42195,837.7924 208.13612,837.31494 206.66666,834.3375 205.1972,837.31494 " style="fill:rgb(127.5,127.5,0.0);opacity:1.0" />
<polygon points="213.83838,790.12646 212.36893,793.10394 209.0831,793.5814 211.46074,795.89905 210.89946,799.1716 213.83838,797.62646 216.77731,799.1716 216.21602,795.89905 218.59366,793.5814 215.30786,793.10394 213.83838,790.12646 212.36893,793.10394 " style="fill:rgb(127.5,127.5,0.0);opacity:1.0" />
<polygon points="221.0101,827.35986 219.54065,830.33734 216.25482,830.8148 218.63246,833.13245 218.07118,836.40497 221.0101,834.85986 223.94904,836.40497 223.38774,833.13245 225.76538,830.8148 222.47958,830.33734 221.0101,827.35986 219.54065,830.33734 " style="fill:rgb(127.5,127.5,0.0);opacity:1.0" />
<polygon points="228.18181,806.55817 226.71234,809.53564 223.42653,810.01306 225.80417,812.3307 225.24289,815.6033 228.18181,814.05817 231.12073,815.6032 230.55945,812.3307 232.93707,810.01306 229.65128,809.53564 228.18181,806.55817 226.71234,809.53564 " style="fill:rgb(127.5,127.5,0.0);opacity:1.0" />
<polygon points="235.35353,799.05505 233.88406,802.0325 230.59825,802.50995 232.97589,804.8276 232.41461,808.1001 235.35353,806.55505 238.29245,808.1001 237.73117,804.8276 240.1088,802.50995 236.823,802.0325 235.35353,799.05505 233.88408,802.0325 " style="fill:rgb(127.5,127.5,0.0);opacity:1.0" />
<polygon points="242.52525,796.4079 241.05579,799.3854 237.76997,799.8628 240.14761,802.1804 239.58633,805.453 242.52525,803.9079 245.46417,805.453 244.9029,802.1804 247.28052,799.8628 243.99472,799.3854 242.52525,796.4079 241.0558,799.3854 " style="fill:rgb(127.5,127.5,0.0);opacity:1.0" />
<polygon points="249.69696,766.7439 248.2275,769.7213 244.94168,770.1988 247.31932,772.5164 246.75803,775.78894 249.69696,774.2439 252.63588,775.78894 252.0746,772.5164 254.45224,770.1988 251.16643,769.7213 249.69698,766.7439 248.22751,769.7213 " style="fill:rgb(127.5,127.5,0.0);opacity:1.0" />
<polygon points="256.86868,825.4325 255.39922,828.4099 252.1134,828.8874 254.49104,831.205 253.92976,834.47754 256.86868,832.9325 259.80762,834.47754 259.24634,831.205 261.62396,828.8874 258.33813,828.4099 256.86868,825.4325 255.39923,828.4099 " style="fill:rgb(127.5,127.5,0.0);opacity:1.0" />
<polygon points="264.0404,765.4745 262.57092,768.45197 259.28513,768.92944 261.66278,771.2471 261.10147,774.5196 264.0404,772.9745 266.9793,774.5196 266.41803,771.2471 268.7957,768.92944 265.50983,768.45197 264.0404,765.4745 262.57092,768.452 " style="fill:rgb(127.5,127.5,0.0);opacity:1.0" />
<polygon points="271.2121,754.5292 269.74265,757.50665 266.45685,757.9841 268.83447,760.30176 268.2732,763.5742 271.21213,762.0292 274.15103,763.5743 273.58975,760.3017 275.9674,757.98413 272.68155,757.5066 271.21213,754.5292 269.7426,757.50665 " style="fill:rgb(127.5,127.5,0.0);opacity:1.0" />
<polygon points="278.38385,749.7625 276.91437,752.74 273.62854,753.2174 276.0062,755.53503 275.4449,758.8076 278.38385,757.2625 281.32275,758.8076 280.76147,755.53503 283.1391,753.2174 279.85327,752.74 278.38385,749.7625 276.91437,752.74 " style="fill:rgb(127.5,127.5,0.0);opacity:1.0" />
<polygon points="285.55554,783.39215 284.0861,786.3696 280.8003,786.84705 283.17792,789.1647 282.61664,792.43726 285.55554,790.89215 288.49448,792.4372 287.9332,789.1647 290.31082,786.84705 287.02502,786.3696 285.55554,783.39215 284.08612,786.3696 " style="fill:rgb(127.5,127.5,0.0);opacity:1.0" />
<polygon points="292.72726,751.28784 291.2578,754.26526 287.972,754.74274 290.3496,757.06036 289.78833,760.3329 292.7273,758.78784 295.6662,760.3329 295.10492,757.0603 297.48254,754.74274 294.19672,754.26526 292.7273,751.28784 291.25778,754.26526 " style="fill:rgb(127.5,127.5,0.0);opacity:1.0" />
<polygon points="299.899,769.4177 298.42953,772.39514 295.1437,772.8726 297.52136,775.1902 296.96008,778.46277 299.899,776.91766 302.8379,778.46277 302.2766,775.19025 304.65424,772.8726 301.36847,772.39514 299.899,769.4177 298.42957,772.39514 " style="fill:rgb(127.5,127.5,0.0);opacity:1.0" />
<polygon points="307.0707,779.7311 305.60126,782.70856 302.31543,783.18604 304.69305,785.50366 304.13177,788.7762 307.0707,787.2311 310.00964,788.7762 309.44836,785.50366 311.826,783.18604 308.54016,782.70856 307.0707,779.7311 305.60126,782.70856 " style="fill:rgb(127.5,127.5,0.0);opacity:1.0" />
<polygon points="314.24243,752.2315 312.77295,755.209 309.48712,755.6864 311.86478,758.004 311.30347,761.2766 314.24243,759.7315 317.18134,761.2766 316.62006,758.004 318.99768,755.6864 315.71185,755.209 314.24243,752.2315 312.77295,755.209 " style="fill:rgb(127.5,127.5,0.0);opacity:1.0" />
<polygon points="321.41412,776.98413 319.94467,779.9616 316.65887,780.4391 319.0365,782.7567 318.47522,786.02924 321.41412,784.48413 324.35306,786.0292 323.79178,782.7567 326.1694,780.4391 322.8836,779.9616 321.41412,776.98413 319.9447,779.9616 " style="fill:rgb(127.5,127.5,0.0);opacity:1.0" />
<polygon points="328.58588,728.69275 327.1164,731.6702 323.83057,732.14764 326.20822,734.46533 325.6469,737.7378 328.58588,736.19275 331.52478,737.73785 330.9635,734.4653 333.34113,732.1477 330.0553,731.67017 328.58588,728.69275 327.1164,731.6702 " style="fill:rgb(127.5,127.5,0.0);opacity:1.0" />
<polygon points="335.75757,767.4259 334.28812,770.4033 331.0023,770.8808 333.37994,773.19836 332.81866,776.47095 335.75757,774.92584 338.69647,776.47095 338.1352,773.19836 340.51282,770.8808 337.22702,770.4033 335.75757,767.4259 334.28812,770.4033 " style="fill:rgb(127.5,127.5,0.0);opacity:1.0" />
<polygon points="342.9293,773.9763 341.45984,776.9538 338.174,777.4313 340.55164,779.7489 339.99036,783.0214 342.9293,781.4763 345.86823,783.0214 345.30695,779.7489 347.68457,777.4313 344.39874,776.9538 342.9293,773.9764 341.45984,776.9538 " style="fill:rgb(127.5,127.5,0.0);opacity:1.0" />
<polygon points="350.101,727.5615 348.63153,730.539 345.34573,731.0165 347.7234,733.3341 347.16208,736.6066 350.101,735.0615 353.03992,736.6066 352.47864,733.3341 354.8563,731.0165 351.57043,730.539 350.101,727.5615 348.63153,730.53906 " style="fill:rgb(127.5,127.5,0.0);opacity:1.0" />
<polygon points="357.27274,758.2715 355.80328,761.2489 352.51746,761.7264 354.89508,764.044 354.3338,767.3165 357.27274,765.7715 360.21164,767.3165 359.6504,764.044 362.028,761.7264 358.7422,761.2489 357.27277,758.2715 355.80325,761.2489 " style="fill:rgb(127.5,127.5,0.0);opacity:1.0" />
<polygon points="364.44443,746.6813 362.97498,749.6587 359.68915,750.13617 362.0668,752.4538 361.5055,755.7263 364.44443,754.1812 367.38333,755.7263 366.82205,752.4538 369.1997,750.13617 365.91388,749.6587 364.44446,746.6813 362.97498,749.6587 " style="fill:rgb(127.5,127.5,0.0);opacity:1.0" />
<polygon points="371.61615,767.7991 370.1467,770.7765 366.86087,771.25397 369.23853,773.57153 368.67722,776.8441 371.61615,775.299 374.55508,776.8441 373.99377,773.5716 376.37143,771.25397 373.0856,770.7765 371.61615,767.7991 370.1467,770.7765 " style="fill:rgb(127.5,127.5,0.0);opacity:1.0" />
<polygon points="378.78787,749.15686 377.31842,752.1343 374.0326,752.61176 376.41025,754.9294 375.84894,758.2019 378.78787,756.65686 381.72678,758.2019 381.1655,754.9294 383.54315,752.6118 380.25732,752.13434 378.7879,749.15686 377.31842,752.13434 " style="fill:rgb(127.5,127.5,0.0);opacity:1.0" />
<polygon points="385.9596,749.49585 384.49014,752.4733 381.2043,752.9508 383.58197,755.26843 383.02066,758.54095 385.9596,756.99585 388.8985,758.54095 388.33722,755.26843 390.71487,752.9508 387.42905,752.4734 385.95963,749.4959 384.49014,752.4734 " style="fill:rgb(127.5,127.5,0.0);opacity:1.0" />
<polygon points="393.13132,729.4321 391.66187,732.4096 388.37604,732.8871 390.7537,735.2047 390.19238,738.47723 393.13132,736.9321 396.07022,738.47723 395.50894,735.2047 397.8866,732.8871 394.60077,732.40967 393.13135,729.4322 391.66187,732.40967 " style="fill:rgb(127.5,127.5,0.0);opacity:1.0" />
<polygon points="400.30304,740.64734 398.8336,743.6248 395.54776,744.10223 397.9254,746.41986 397.3641,749.6924 400.30304,748.14734 403.24194,749.69244 402.68066,746.41986 405.05832,744.1023 401.7725,743.6248 400.30307,740.64734 398.8336,743.6248 " style="fill:rgb(127.5,127.5,0.0);opacity:1.0" />
<polygon points="407.47473,698.82983 406.00528,701.8073 402.71945,702.2847 405.0971,704.60236 404.5358,707.8749 407.47473,706.32983 410.41364,707.87494 409.85236,704.60236 412.23,702.2848 408.94418,701.8073 407.47476,698.82983 406.00528,701.8073 " style="fill:rgb(127.5,127.5,0.0);opacity:1.0" />
<polygon points="414.64645,713.44617 413.177,716.42365 409.89117,716.90106 412.26883,719.2187 411.70752,722.4912 414.64645,720.94617 417.58536,722.4913 417.02408,719.2187 419.40173,716.9011 416.1159,716.42365 414.64648,713.44617 413.177,716.42365 " style="fill:rgb(127.5,127.5,0.0);opacity:1.0" />
<polygon points="421.81818,730.75366 420.34872,733.73114 417.0629,734.2086 419.44055,736.52625 418.87924,739.79877 421.81818,738.25366 424.75708,739.79877 424.1958,736.52625 426.57346,734.2086 423.28763,733.7312 421.8182,730.7537 420.34872,733.7312 " style="fill:rgb(127.5,127.5,0.0);opacity:1.0" />
<polygon points="428.9899,689.959 427.52045,692.93646 424.23462,693.41394 426.61227,695.73157 426.05096,699.0041 428.9899,697.459 431.9288,699.0041 431.36752,695.73157 433.74518,693.41394 430.45935,692.9365 428.98993,689.95905 427.52045,692.9365 " style="fill:rgb(127.5,127.5,0.0);opacity:1.0" />
<polygon points="436.16162,733.296 434.69217,736.27344 431.40634,736.7509 433.784,739.06854 433.2227,742.34106 436.16162,740.79596 439.10052,742.34106 438.53925,739.06854 440.9169,736.7509 437.63107,736.27344 436.16165,733.296 434.69217,736.27344 " style="fill:rgb(127.5,127.5,0.0);opacity:1.0" />
<polygon points="443.33334,706.4778 441.8639,709.45526 438.57806,709.93274 440.95572,712.25037 440.3944,715.5229 443.33334,713.9778 446.27225,715.5229 445.71097,712.25037 448.08862,709.93274 444.8028,709.4553 443.33337,706.47784 441.8639,709.4553 " style="fill:rgb(127.5,127.5,0.0);opacity:1.0" />
<polygon points="450.50504,672.03503 449.03558,675.0125 445.74976,675.49 448.1274,677.8076 447.5661,681.08014 450.50504,679.53503 453.44394,681.08014 452.88266,677.8076 455.2603,675.49 451.9745,675.0126 450.50507,672.0351 449.03558,675.0126 " style="fill:rgb(127.5,127.5,0.0);opacity:1.0" />
<polygon points="457.67676,689.0753 456.2073,692.0528 452.92148,692.5303 455.29913,694.8479 454.73782,698.1204 457.67676,696.5753 460.61566,698.1204 460.05438,694.8479 462.43204,692.5303 459.1462,692.05286 457.6768,689.0754 456.2073,692.05286 " style="fill:rgb(127.5,127.5,0.0);opacity:1.0" />
<polygon points="464.84848,665.04333 463.37903,668.0208 460.0932,668.4982 462.47086,670.81586 461.90955,674.0884 464.84848,672.54333 467.78738,674.08844 467.2261,670.81586 469.60376,668.4983 466.31793,668.0208 464.8485,665.04333 463.37903,668.0208 " style="fill:rgb(127.5,127.5,0.0);opacity:1.0" />
<polygon points="472.0202,704.12415 470.55075,707.1016 467.26492,707.5791 469.64258,709.8967 469.08127,713.16925 472.0202,711.62415 474.9591,713.16925 474.39783,709.8967 476.77548,707.5791 473.48965,707.1017 472.02023,704.1242 470.55075,707.1017 " style="fill:rgb(127.5,127.5,0.0);opacity:1.0" />
<polygon points="479.19193,662.1559 477.72247,665.13336 474.43665,665.6108 476.8143,667.9284 476.253,671.2009 479.19193,669.6559 482.13083,671.201 481.56955,667.9284 483.9472,665.61084 480.66138,665.13336 479.19196,662.1559 477.72247,665.13336 " style="fill:rgb(127.5,127.5,0.0);opacity:1.0" />
<polygon points="486.36365,712.8804 484.8942,715.85785 481.60837,716.33527 483.98602,718.6529 483.4247,721.9254 486.36365,720.3804 489.30255,721.9255 488.74127,718.6529 491.11893,716.3353 487.8331,715.85785 486.36368,712.8804 484.8942,715.85785 " style="fill:rgb(127.5,127.5,0.0);opacity:1.0" />
<polygon points="493.53534,695.94543 492.0659,698.92285 488.78006,699.4003 491.1577,701.71796 490.5964,704.9905 493.53534,703.4454 496.47424,704.9905 495.91296,701.71796 498.29062,699.4003 495.0048,698.92285 493.53537,695.94543 492.0659,698.92285 " style="fill:rgb(127.5,127.5,0.0);opacity:1.0" />
<polygon points="500.70706,655.6644 499.2376,658.64185 495.95178,659.1193 498.32944,661.43695 497.76813,664.7095 500.70706,663.16437 503.64597,664.7095 503.0847,661.43695 505.46234,659.1193 502.1765,658.64185 500.7071,655.6644 499.2376,658.64185 " style="fill:rgb(127.5,127.5,0.0);opacity:1.0" />
<polygon points="507.87878,663.8545 506.40933,666.832 503.1235,667.3094 505.50116,669.627 504.93985,672.89954 507.87878,671.3545 510.8177,672.8996 510.2564,669.627 512.63403,667.30945 509.34824,666.832 507.8788,663.8545 506.40933,666.832 " style="fill:rgb(127.5,127.5,0.0);opacity:1.0" />
<polygon points="515.05054,703.84534 513.58105,706.8228 510.29523,707.3003 512.67285,709.6179 512.1116,712.89044 515.05054,711.34534 517.9894,712.89044 517.4281,709.6179 519.8058,707.3003 516.51996,706.8229 515.05054,703.8454 513.58105,706.8229 " style="fill:rgb(127.5,127.5,0.0);opacity:1.0" />
<polygon points="522.2222,658.0374 520.7528,661.0149 517.4669,661.4923 519.8446,663.80994 519.2833,667.0825 522.2222,665.5374 525.16113,667.0825 524.59985,663.80994 526.97754,661.4924 523.69165,661.0149 522.2223,658.0374 520.7528,661.0149 " style="fill:rgb(127.5,127.5,0.0);opacity:1.0" />
<polygon points="529.3939,661.2864 527.9245,664.2638 524.6387,664.7413 527.01636,667.0589 526.455,670.3314 529.3939,668.7863 532.3329,670.3314 531.7716,667.0589 534.14923,664.7413 530.8634,664.2638 529.394,661.2864 527.9245,664.2638 " style="fill:rgb(127.5,127.5,0.0);opacity:1.0" />
<polygon points="536.5657,644.89 535.0962,647.8675 531.81036,648.3449 534.188,650.66254 533.6267,653.93506 536.5657,652.39 539.5045,653.9351 538.94324,650.66254 541.3209,648.345 538.0351,647.8675 536.5657,644.89 535.0962,647.8675 " style="fill:rgb(127.5,127.5,0.0);opacity:1.0" />
<polygon points="543.73737,654.81055 542.26794,657.788 538.98206,658.26544 541.35974,660.58307 540.79846,663.8556 543.73737,662.31055 546.6763,663.85565 546.115,660.58307 548.4927,658.2655 545.2068,657.788 543.7374,654.81055 542.26794,657.788 " style="fill:rgb(127.5,127.5,0.0);opacity:1.0" />
<polygon points="550.90906,625.44226 549.43964,628.4197 546.1538,628.8972 548.53143,631.2148 547.9702,634.4873 550.90906,632.94226 553.848,634.4873 553.28674,631.21484 555.66437,628.89716 552.37854,628.41974 550.90906,625.44226 549.43964,628.4197 " style="fill:rgb(127.5,127.5,0.0);opacity:1.0" />
<polygon points="558.0808,675.2295 556.6113,678.207 553.32556,678.6844 555.7032,681.002 555.14185,684.27454 558.0808,682.7295 561.0197,684.2746 560.45844,681.002 562.83606,678.68445 559.5503,678.207 558.0808,675.2295 556.6113,678.207 " style="fill:rgb(127.5,127.5,0.0);opacity:1.0" />
<polygon points="565.25256,627.0797 563.7831,630.0571 560.49725,630.53467 562.8749,632.85223 562.3136,636.12476 565.2525,634.5797 568.19147,636.12476 567.6301,632.8523 570.0078,630.5346 566.72205,630.0572 565.2525,627.0797 563.7831,630.0571 " style="fill:rgb(127.5,127.5,0.0);opacity:1.0" />
<polygon points="572.4242,671.6864 570.9548,674.6638 567.66895,675.1413 570.04663,677.4589 569.4853,680.73145 572.4242,679.18634 575.36316,680.73145 574.8019,677.4589 577.1795,675.1413 573.8937,674.6638 572.42426,671.6864 570.9548,674.6638 " style="fill:rgb(127.5,127.5,0.0);opacity:1.0" />
<polygon points="579.59595,646.21875 578.12646,649.1962 574.8407,649.6737 577.2183,651.99133 576.657,655.26385 579.59595,653.71875 582.53485,655.26385 581.9736,651.99133 584.3512,649.6737 581.0654,649.1963 579.59595,646.2188 578.12646,649.1963 " style="fill:rgb(127.5,127.5,0.0);opacity:1.0" />
<polygon points="586.7677,655.33813 585.2982,658.3156 582.0124,658.793 584.39,661.11066 583.82874,664.3832 586.7677,662.83813 589.70654,664.38324 589.14526,661.11066 591.52295,658.7931 588.2371,658.3156 586.7677,655.33813 585.2982,658.3156 " style="fill:rgb(127.5,127.5,0.0);opacity:1.0" />
<polygon points="593.9394,637.7504 592.47,640.7279 589.1841,641.2053 591.56177,643.52295 591.0005,646.79553 593.93933,645.2504 596.8783,646.7955 596.317,643.523 598.69464,641.2053 595.4089,640.7279 593.93933,637.7505 592.47,640.7279 " style="fill:rgb(127.5,127.5,0.0);opacity:1.0" />
<polygon points="601.1111,646.0222 599.64166,648.9997 596.35583,649.4771 598.7335,651.79474 598.1722,655.06726 601.1111,653.5222 604.05005,655.0673 603.4888,651.79474 605.8664,649.4772 602.58057,648.9997 601.11115,646.0222 599.64166,648.9997 " style="fill:rgb(127.5,127.5,0.0);opacity:1.0" />
<polygon points="608.28284,635.4514 606.81335,638.4289 603.5276,638.9064 605.90515,641.224 605.34393,644.4965 608.28284,642.9514 611.2218,644.4965 610.66046,641.224 613.0381,638.9064 609.7523,638.42896 608.28284,635.4515 606.81335,638.4289 " style="fill:rgb(127.5,127.5,0.0);opacity:1.0" />
<polygon points="615.4545,617.70856 613.98505,620.68604 610.6992,621.16345 613.07684,623.4811 612.5156,626.75366 615.4545,625.2086 618.39343,626.75366 617.8322,623.4811 620.2098,621.16345 616.924,620.686 615.4545,617.7086 613.98505,620.686 " style="fill:rgb(127.5,127.5,0.0);opacity:1.0" />
<polygon points="622.6263,604.6481 621.1568,607.62555 617.871,608.103 620.2486,610.42065 619.6874,613.69324 622.6263,612.14813 625.56525,613.6932 625.00397,610.42065 627.3816,608.10297 624.09576,607.6255 622.6262,604.6481 621.1568,607.6255 " style="fill:rgb(127.5,127.5,0.0);opacity:1.0" />
<polygon points="629.798,617.3662 628.3285,620.3436 625.04266,620.82117 627.4203,623.1388 626.8591,626.4113 629.798,624.8662 632.73694,626.41125 632.17566,623.1388 634.5533,620.82104 631.26746,620.3436 629.7979,617.3662 628.3285,620.3436 " style="fill:rgb(127.5,127.5,0.0);opacity:1.0" />
<polygon points="636.96967,610.2004 635.5002,613.17786 632.21436,613.6553 634.592,615.9729 634.03076,619.2455 636.96967,617.70044 639.9086,619.2455 639.34735,615.9729 641.725,613.6553 638.43915,613.1778 636.9696,610.2003 635.5002,613.1778 " style="fill:rgb(127.5,127.5,0.0);opacity:1.0" />
<polygon points="644.1414,631.546 642.67194,634.52344 639.3861,635.001 641.76373,637.3186 641.2025,640.5911 644.1414,639.046 647.0804,640.59106 646.5191,637.3186 648.8967,635.00085 645.6109,634.52344 644.14136,631.546 642.67194,634.52344 " style="fill:rgb(127.5,127.5,0.0);opacity:1.0" />
<polygon points="651.3131,600.6252 649.8436,603.60266 646.5578,604.0801 648.9354,606.3977 648.3742,609.6703 651.3131,608.12524 654.2521,609.6703 653.6908,606.3977 656.0684,604.0801 652.7826,603.6026 651.31305,600.6251 649.8436,603.6026 " style="fill:rgb(127.5,127.5,0.0);opacity:1.0" />
<polygon points="658.48486,630.5051 657.0154,633.4826 653.72955,633.9601 656.1072,636.2777 655.54596,639.5503 658.48486,638.0052 661.4238,639.55023 660.86255,636.2777 663.2402,633.96 659.95435,633.48254 658.4848,630.5051 657.0154,633.48254 " style="fill:rgb(127.5,127.5,0.0);opacity:1.0" />
<polygon points="665.65656,619.2115 664.1871,622.18896 660.90125,622.6664 663.2789,624.984 662.71765,628.2566 665.65656,626.71155 668.5955,628.2566 668.03424,624.984 670.41187,622.6664 667.12604,622.1889 665.6565,619.2114 664.1871,622.1889 " style="fill:rgb(127.5,127.5,0.0);opacity:1.0" />
<polygon points="672.8283,566.2262 671.3588,569.2037 668.073,569.68115 670.4506,571.9988 669.8894,575.27136 672.8283,573.72626 675.7673,575.2713 675.206,571.9988 677.5836,569.6811 674.2978,569.2036 672.82825,566.2262 671.3588,569.2036 " style="fill:rgb(127.5,127.5,0.0);opacity:1.0" />
<polygon points="680.0,563.3448 678.5305,566.32227 675.2447,566.7997 677.6223,569.1173 677.0611,572.3899 680.0,570.84485 682.93896,572.3899 682.3777,569.1173 684.7553,566.7997 681.4695,566.3222 679.99994,563.3447 678.5305,566.3222 " style="fill:rgb(127.5,127.5,0.0);opacity:1.0" />
<polygon points="687.1717,562.6297 685.7022,565.6072 682.4164,566.0846 684.794,568.4022 684.2328,571.6748 687.1717,570.12976 690.11066,571.6748 689.5494,568.4022 691.927,566.0846 688.6412,565.6071 687.17163,562.62964 685.7022,565.6071 " style="fill:rgb(127.5,127.5,0.0);opacity:1.0" />
<polygon points="694.34344,570.7086 692.87396,573.68604 689.58813,574.1636 691.96576,576.4812 691.40454,579.7537 694.34344,578.2086 697.2824,579.75366 696.7211,576.4812 699.09875,574.16345 695.8129,573.68604 694.3434,570.7086 692.87396,573.68604 " style="fill:rgb(127.5,127.5,0.0);opacity:1.0" />
<polygon points="701.51514,565.0714 700.04565,568.0488 696.7598,568.5263 699.13745,570.84393 698.57623,574.11646 701.51514,572.5714 704.4541,574.11646 703.8928,570.84393 706.27045,568.52625 702.9846,568.0488 701.5151,565.07135 700.04565,568.0488 " style="fill:rgb(127.5,127.5,0.0);opacity:1.0" />
<polygon points="708.6869,604.9519 707.2174,607.9293 703.9316,608.40686 706.3092,610.7245 705.748,613.997 708.6869,612.4519 711.62585,613.99695 711.0646,610.7245 713.4422,608.40674 710.1564,607.9293 708.6868,604.9519 707.2174,607.9293 " style="fill:rgb(127.5,127.5,0.0);opacity:1.0" />
<polygon points="715.8586,601.1445 714.3891,604.12195 711.1033,604.59937 713.4809,606.917 712.9197,610.1896 715.8586,608.64453 718.79755,610.1896 718.23627,606.917 720.6139,604.59937 717.32806,604.1219 715.8585,601.1444 714.3891,604.1219 " style="fill:rgb(127.5,127.5,0.0);opacity:1.0" />
<polygon points="723.0303,557.1172 721.5608,560.09467 718.27496,560.57214 720.6526,562.8898 720.0914,566.16235 723.0303,564.61725 725.96924,566.1623 725.40796,562.8898 727.7856,560.5721 724.49976,560.0946 723.0302,557.1172 721.5608,560.0946 " style="fill:rgb(127.5,127.5,0.0);opacity:1.0" />
<polygon points="730.202,593.2209 728.73254,596.19836 725.4467,596.6758 727.82434,598.9934 727.2631,602.266 730.202,600.72095 733.141,602.266 732.5797,598.9934 734.95734,596.6758 731.6715,596.1983 730.20197,593.2208 728.73254,596.1983 " style="fill:rgb(127.5,127.5,0.0);opacity:1.0" />
<polygon points="737.3737,585.9874 735.90424,588.96484 732.6184,589.4424 734.99603,591.76 734.4348,595.03253 737.3737,593.4874 740.3127,595.0325 739.7514,591.76 742.129,589.44226 738.8432,588.96484 737.37366,585.9874 735.90424,588.96484 " style="fill:rgb(127.5,127.5,0.0);opacity:1.0" />
<polygon points="744.5455,584.8944 743.076,587.8718 739.79016,588.34937 742.1678,590.667 741.60657,593.9395 744.5455,592.3944 747.48444,593.93945 746.92316,590.667 749.3008,588.34924 746.01495,587.8718 744.5454,584.8944 743.076,587.8718 " style="fill:rgb(127.5,127.5,0.0);opacity:1.0" />
<polygon points="751.71716,532.8203 750.2477,535.7978 746.96185,536.27527 749.3395,538.5929 748.77826,541.8655 751.71716,540.3204 754.6561,541.8654 754.09485,538.5929 756.4725,536.2752 753.18665,535.7977 751.7171,532.8203 750.2477,535.7977 " style="fill:rgb(127.5,127.5,0.0);opacity:1.0" />
<polygon points="758.8889,570.50037 757.41943,573.4778 754.1336,573.9553 756.5112,576.27295 755.95,579.5455 758.8889,578.00037 761.8279,579.5454 761.2666,576.27295 763.6442,573.9552 760.3584,573.4778 758.88885,570.50037 757.41943,573.4778 " style="fill:rgb(127.5,127.5,0.0);opacity:1.0" />
<polygon points="766.0606,586.4997 764.5911,589.4772 761.3053,589.9546 763.6829,592.2722 763.1217,595.5448 766.0606,593.99976 768.9996,595.5448 768.4383,592.2722 770.8159,589.9546 767.5301,589.4771 766.06055,586.49963 764.5911,589.4771 " style="fill:rgb(127.5,127.5,0.0);opacity:1.0" />
<polygon points="773.2323,572.183 771.7628,575.1604 768.477,575.63794 770.8546,577.95557 770.2934,581.2281 773.2323,579.683 776.17126,581.228 775.61,577.95557 777.9876,575.6378 774.7018,575.1604 773.23224,572.183 771.7628,575.1604 " style="fill:rgb(127.5,127.5,0.0);opacity:1.0" />
<polygon points="780.40405,532.745 778.9346,535.7224 775.64874,536.1999 778.02637,538.5175 777.46515,541.79004 780.40405,540.245 783.343,541.79004 782.78174,538.5175 785.15936,536.1998 781.87354,535.7224 780.404,532.74493 778.9346,535.7224 " style="fill:rgb(127.5,127.5,0.0);opacity:1.0" />
<polygon points="787.57574,522.2069 786.10626,525.1843 782.82043,525.6618 785.19806,527.97943 784.63684,531.25195 787.57574,529.7069 790.5147,531.25195 789.9534,527.97943 792.33105,525.66174 789.0452,525.1843 787.5757,522.20685 786.10626,525.1843 " style="fill:rgb(127.5,127.5,0.0);opacity:1.0" />
<polygon points="794.7475,526.73303 793.278,529.7105 789.9922,530.188 792.3698,532.5056 791.8086,535.7782 794.7475,534.2331 797.68646,535.77814 797.1252,532.5056 799.5028,530.1879 796.217,529.71045 794.74744,526.73303 793.278,529.71045 " style="fill:rgb(127.5,127.5,0.0);opacity:1.0" />
<polygon points="801.9192,568.3982 800.4497,571.3756 797.1639,571.8531 799.5415,574.1707 798.9803,577.44324 801.9192,575.8982 804.85815,577.44324 804.2969,574.1707 806.6745,571.853 803.3887,571.3756 801.9191,568.39813 800.4497,571.3756 " style="fill:rgb(127.5,127.5,0.0);opacity:1.0" />
<polygon points="809.0909,532.7422 807.6214,535.71967 804.3356,536.19714 806.7132,538.5148 806.152,541.78735 809.0909,540.24225 812.02985,541.7873 811.46857,538.5148 813.8462,536.1971 810.56036,535.7196 809.0908,532.7422 807.6214,535.7196 " style="fill:rgb(127.5,127.5,0.0);opacity:1.0" />
<text x="456.15" y="92.5" stroke="#000000" stroke-width="1.2" transform="rotate(-0.0,456.15,92.5)">SCATTER PLOT</text>
<text x="476.8" y="950.0" stroke="#000000" stroke-width="1.2" transform="rotate(-0.0,476.8,950.0)">X-AXIS</text>
<text x="50.0" y="546.6" stroke="#000000" stroke-width="1.2" transform="rotate(-90.0,50.0,546.6)">Y-AXIS</text>
<rect x="120.0" y="120.0" width="67.880005" height="40.0" style="fill:rgb(255.0,255.0,255.0);stroke-width:2.0;stroke:rgb(0.0,0.0,0.0);opacity:0.7" />
<circle cx="132.0" cy="132.0" r="4.0"  style="fill:rgb(214.2,214.2,0.0);opacity:1.0" />
<text x="144.0" y="136.0" stroke="#000000" stroke-width="1.2" transform="rotate(-0.0,144.0,136.0)">Plot 1</text>
<polygon points="132.0,144.0 130.82443,146.38196 128.19577,146.76392 130.09789,148.61804 129.64885,151.23608 132.0,150.0 134.35115,151.23608 133.90211,148.61804 135.80424,146.76392 133.17558,146.38196 131.99998,144.0 130.82443,146.38196 " style="fill:rgb(127.5,127.5,0.0);opacity:1.0" />
<text x="144.0" y="152.0" stroke="#000000" stroke-width="1.2" transform="rotate(-0.0,144.0,152.0)">Plot 2</text>
</svg>