<svg height="1000.0" width="1000.0" version="4.0" xmlns="http://www.w3.org/2000/svg" xmlns:xlink= "http://www.w3.org/1999/xlink">
<rect width="100%" height="100%" fill="white"/>
<rect x="100.0" y="100.0" width="800.0" height="800.0" style="fill:rgb(255,255,255);stroke-width:2.0;stroke:rgb(0,0,0);opacity:1" />
<line x1="163.63637" y1="903.0" x2="163.63637" y2="900.0" style="stroke:rgb(0.0,0.0,0.0);stroke-width:2.0;opacity:1.0;stroke-linecap:round" />
<text x="154.09636" y="915.0" stroke="#000000" stroke-width="0.7" transform="rotate(-0.0,154.09636,915.0)">10.0</text>
<line x1="235.35353" y1="903.0" x2="235.35353" y2="900.0" style="stroke:rgb(0.0,0.0,0.0);stroke-width:2.0;opacity:1.0;stroke-linecap:round" />
<text x="225.49353" y="915.0" stroke="#000000" stroke-width="0.7" transform="rotate(-0.0,225.49353,915.0)">20.0</text>
<line x1="307.0707" y1="903.0" x2="307.0707" y2="900.0" style="stroke:rgb(0.0,0.0,0.0);stroke-width:2.0;opacity:1.0;stroke-linecap:round" />
<text x="297.2107" y="915.0" stroke="#000000" stroke-width="0.7" transform="rotate(-0.0,297.2107,915.0)">30.0</text>
<line x1="378.78787" y1="903.0" x2="378.78787" y2="900.0" style="stroke:rgb(0.0,0.0,0.0);stroke-width:2.0;opacity:1.0;stroke-linecap:round" />
<text x="368.92786" y="915.0" stroke="#000000" stroke-width="0.7" transform="rotate(-0.0,368.92786,915.0)">40.0</text>
<line x1="450.50504" y1="903.0" x2="450.50504" y2="900.0" style="stroke:rgb(0.0,0.0,0.0);stroke-width:2.0;opacity:1.0;stroke-linecap:round" />
<text x="440.64502" y="915.0" stroke="#000000" stroke-width="0.7" transform="rotate(-0.0,440.64502,915.0)">50.0</text>
<line x1="522.22217" y1="903.0" x2="522.22217" y2="900.0" style="stroke:rgb(0.0,0.0,0.0);stroke-width:2.0;opacity:1.0;stroke-linecap:round" />
<text x="512.3622" y="915.0" stroke="#000000" stroke-width="0.7" transform="rotate(-0.0,512.3622,915.0)">60.0</text>
<line x1="593.93933" y1="903.0" x2="593.93933" y2="900.0" style="stroke:rgb(0.0,0.0,0.0);stroke-width:2.0;opacity:1.0;stroke-linecap:round" />
<text x="584.07935" y="915.0" stroke="#000000" stroke-width="0.7" transform="rotate(-0.0,584.07935,915.0)">70.0</text>
<line x1="665.65656" y1="903.0" x2="665.65656" y2="900.0" style="stroke:rgb(0.0,0.0,0.0);stroke-width:2.0;opacity:1.0;stroke-linecap:round" />
<text x="655.7966" y="915.0" stroke="#000000" stroke-width="0.7" transform="rotate(-0.0,655.7966,915.0)">80.0</text>
<line x1="737.3737" y1="903.0" x2="737.3737" y2="900.0" style="stroke:rgb(0.0,0.0,0.0);stroke-width:2.0;opacity:1.0;stroke-linecap:round" />
<text x="727.51373" y="915.0" stroke="#000000" stroke-width="0.7" transform="rotate(-0.0,727.51373,915.0)">90.0</text>
<line x1="809.0909" y1="903.0" x2="809.0909" y2="900.0" style="stroke:rgb(0.0,0.0,0.0);stroke-width:2.0;opacity:1.0;stroke-linecap:round" />
<text x="798.1109" y="915.0" stroke="#000000" stroke-width="0.7" transform="rotate(-0.0,798.1109,915.0)">100.0</text>
<line x1="880.80804" y1="903.0" x2="880.80804" y2="900.0" style="stroke:rgb(0.0,0.0,0.0);stroke-width:2.0;opacity:1.0;stroke-linecap:round" />
<text x="870.1481" y="915.0" stroke="#000000" stroke-width="0.7" transform="rotate(-0.0,870.1481,915.0)">110.0</text>
<line x1="97.0" y1="889.6443" x2="100.0" y2="889.6443" style="stroke:rgb(0.0,0.0,0.0);stroke-width:2.0;opacity:1.0;stroke-linecap:round" />
<text x="62.16" y="893.6443" stroke="#000000" stroke-width="0.7" transform="rotate(-0.0,62.16,893.6443)">0.0</text>
<line x1="97.0" y1="541.2449" x2="100.0" y2="541.2449" style="stroke:rgb(0.0,0.0,0.0);stroke-width:2.0;opacity:1.0;stroke-linecap:round" />
<text x="57.04" y="545.2449" stroke="#000000" stroke-width="0.7" transform="rotate(-0.0,57.04,545.2449)">100.0</text>
<line x1="97.0" y1="192.84546" x2="100.0" y2="192.84546" style="stroke:rgb(0.0,0.0,0.0);stroke-width:2.0;opacity:1.0;stroke-linecap:round" />
<text x="56.4" y="196.84546" stroke="#000000" stroke-width="0.7" transform="rotate(-0.0,56.4,196.84546)">200.0</text>
<circle cx="106.26263" cy="873.9701" r="5.0"  style="fill:rgb(211.88705,211.88705,2.7534935);opacity:1.0" />
<circle cx="113.43434" cy="867.2835" r="5.0"  style="fill:rgb(209.81917,209.81917,5.2152867);opacity:1.0" />
<circle cx="120.606064" cy="840.60364" r="5.0"  style="fill:rgb(201.56804,201.56804,15.03804);opacity:1.0" />
<circle cx="127.77778" cy="871.8892" r="5.0"  style="fill:rgb(211.24353,211.24353,3.519597);opacity:1.0" />
<circle cx="134.9495" cy="881.4489" r="5.0"  style="fill:rgb(214.2,214.2,0.0);opacity:1.0" />
<circle cx="142.12122" cy="867.51935" r="5.0"  style="fill:rgb(209.89209,209.89209,5.128462);opacity:1.0" />
<circle cx="149.29294" cy="862.6542" r="5.0"  style="fill:rgb(208.38748,208.38748,6.919662);opacity:1.0" />
<circle cx="156.46465" cy="829.67487" r="5.0"  style="fill:rgb(198.18817,198.18817,19.061687);opacity:1.0" />
<circle cx="163.63637" cy="795.7158" r="5.0"  style="fill:rgb(187.68591,187.68591,31.564394);opacity:1.0" />
<circle cx="170.80807" cy="787.1113" r="5.0"  style="fill:rgb(185.02484,185.02484,34.73232);opacity:1.0" />
<circle cx="177.9798" cy="833.5814" r="5.0"  style="fill:rgb(199.39633,199.39633,17.6234);opacity:1.0" />
<circle cx="185.15152" cy="768.95917" r="5.0"  style="fill:rgb(179.41106,179.41106,41.41541);opacity:1.0" />
<circle cx="192.32323" cy="797.4219" r="5.0"  style="fill:rgb(188.21352,188.21352,30.936277);opacity:1.0" />
<circle cx="199.49495" cy="770.5304" r="5.0"  style="fill:rgb(179.89699,179.89699,40.83693);opacity:1.0" />
<circle cx="206.66666" cy="766.1686" r="5.0"  style="fill:rgb(178.54802,178.54802,42.44282);opacity:1.0" />
<circle cx="213.83838" cy="769.32623" r="5.0"  style="fill:rgb(179.52457,179.52457,41.280266);opacity:1.0" />
<circle cx="221.0101" cy="785.6456" r="5.0"  style="fill:rgb(184.57155,184.57155,35.27196);opacity:1.0" />
<circle cx="228.18181" cy="752.14056" r="5.0"  style="fill:rgb(174.20967,174.20967,47.607517);opacity:1.0" />
<circle cx="235.35353" cy="721.1162" r="5.0"  style="fill:rgb(164.61497,164.61497,59.029774);opacity:1.0" />
<circle cx="242.52525" cy="763.224" r="5.0"  style="fill:rgb(177.63736,177.63736,43.52693);opacity:1.0" />
<circle cx="249.69696" cy="728.692" r="5.0"  style="fill:rgb(166.95792,166.95792,56.240578);opacity:1.0" />
<circle cx="256.86868" cy="757.5669" r="5.0"  style="fill:rgb(175.88783,175.88783,45.60971);opacity:1.0" />
<circle cx="264.0404" cy="695.2907" r="5.0"  style="fill:rgb(156.62811,156.62811,68.537964);opacity:1.0" />
<circle cx="271.2121" cy="697.09467" r="5.0"  style="fill:rgb(157.18602,157.18602,67.87379);opacity:1.0" />
<circle cx="278.38385" cy="680.1642" r="5.0"  style="fill:rgb(151.95003,151.95003,74.1071);opacity:1.0" />
<circle cx="285.55554" cy="713.5624" r="5.0"  style="fill:rgb(162.27888,162.27888,61.810863);opacity:1.0" />
<circle cx="292.72726" cy="673.0718" r="5.0"  style="fill:rgb(149.75662,149.75662,76.71831);opacity:1.0" />
<circle cx="299.899" cy="672.66675" r="5.0"  style="fill:rgb(149.63135,149.63135,76.86744);opacity:1.0" />
<circle cx="307.0707" cy="646.2522" r="5.0"  style="fill:rgb(141.46231,141.46231,86.5925);opacity:1.0" />
<circle cx="314.24243" cy="702.6117" r="5.0"  style="fill:rgb(158.89221,158.89221,65.84258);opacity:1.0" />
<circle cx="321.41412" cy="648.698" r="5.0"  style="fill:rgb(142.2187,142.2187,85.69202);opacity:1.0" />
<circle cx="328.58588" cy="689.74" r="5.0"  style="fill:rgb(154.91147,154.91147,70.58158);opacity:1.0" />
<circle cx="335.75757" cy="635.5285" r="5.0"  style="fill:rgb(138.14586,138.14586,90.54064);opacity:1.0" />
<circle cx="342.9293" cy="660.8562" r="5.0"  style="fill:rgb(145.97878,145.97878,81.21573);opacity:1.0" />
<circle cx="350.101" cy="660.184" r="5.0"  style="fill:rgb(145.77089,145.77089,81.46321);opacity:1.0" />
<circle cx="357.27274" cy="613.00507" r="5.0"  style="fill:rgb(131.18018,131.18018,98.83311);opacity:1.0" />
<circle cx="364.44443" cy="641.41296" r="5.0"  style="fill:rgb(139.96568,139.96568,88.37416);opacity:1.0" />
<circle cx="371.61615" cy="604.6766" r="5.0"  style="fill:rgb(128.60449,128.60449,101.899414);opacity:1.0" />
<circle cx="378.78787" cy="602.86523" r="5.0"  style="fill:rgb(128.0443,128.0443,102.56631);opacity:1.0" />
<circle cx="385.9596" cy="607.6201" r="5.0"  style="fill:rgb(129.5148,129.5148,100.8157);opacity:1.0" />
<circle cx="393.13132" cy="626.0555" r="5.0"  style="fill:rgb(135.2162,135.2162,94.028336);opacity:1.0" />
<circle cx="400.30304" cy="578.8331" r="5.0"  style="fill:rgb(120.61205,120.61205,111.41421);opacity:1.0" />
<circle cx="407.47473" cy="587.1646" r="5.0"  style="fill:rgb(123.188675,123.188675,108.3468);opacity:1.0" />
<circle cx="414.64645" cy="600.00806" r="5.0"  style="fill:rgb(127.16069,127.16069,103.61822);opacity:1.0" />
<circle cx="421.81818" cy="583.1116" r="5.0"  style="fill:rgb(121.935234,121.935234,109.839);opacity:1.0" />
<circle cx="428.9899" cy="581.9348" r="5.0"  style="fill:rgb(121.5713,121.5713,110.272255);opacity:1.0" />
<circle cx="436.16162" cy="584.0494" r="5.0"  style="fill:rgb(122.22525,122.22525,109.49374);opacity:1.0" />
<circle cx="443.33334" cy="554.1147" r="5.0"  style="fill:rgb(112.96756,112.96756,120.5148);opacity:1.0" />
<circle cx="450.50504" cy="567.6156" r="5.0"  style="fill:rgb(117.1429,117.1429,115.544174);opacity:1.0" />
<circle cx="457.67676" cy="548.5598" r="5.0"  style="fill:rgb(111.24963,111.24963,122.55996);opacity:1.0" />
<circle cx="464.84848" cy="526.9506" r="5.0"  style="fill:rgb(104.56672,104.56672,130.51581);opacity:1.0" />
<circle cx="472.0202" cy="545.8833" r="5.0"  style="fill:rgb(110.4219,110.4219,123.545364);opacity:1.0" />
<circle cx="479.19193" cy="505.45883" r="5.0"  style="fill:rgb(97.92009,97.92009,138.42845);opacity:1.0" />
<circle cx="486.36365" cy="523.5774" r="5.0"  style="fill:rgb(103.52349,103.52349,131.75775);opacity:1.0" />
<circle cx="493.53534" cy="486.82886" r="5.0"  style="fill:rgb(92.15852,92.15852,145.28748);opacity:1.0" />
<circle cx="500.70706" cy="478.86853" r="5.0"  style="fill:rgb(89.69669,89.69669,148.21822);opacity:1.0" />
<circle cx="507.87878" cy="493.5301" r="5.0"  style="fill:rgb(94.23098,94.23098,142.82027);opacity:1.0" />
<circle cx="515.05054" cy="489.73517" r="5.0"  style="fill:rgb(93.05734,93.05734,144.21745);opacity:1.0" />
<circle cx="522.2222" cy="506.34937" r="5.0"  style="fill:rgb(98.19551,98.19551,138.10059);opacity:1.0" />
<circle cx="529.3939" cy="449.81238" r="5.0"  style="fill:rgb(80.7107,80.7107,158.91583);opacity:1.0" />
<circle cx="536.5657" cy="457.2572" r="5.0"  style="fill:rgb(83.01309,83.01309,156.17488);opacity:1.0" />
<circle cx="543.73737" cy="446.3097" r="5.0"  style="fill:rgb(79.62746,79.62746,160.20541);opacity:1.0" />
<circle cx="550.90906" cy="424.54675" r="5.0"  style="fill:rgb(72.89696,72.89696,168.2179);opacity:1.0" />
<circle cx="558.0808" cy="459.41766" r="5.0"  style="fill:rgb(83.68125,83.68125,155.37946);opacity:1.0" />
<circle cx="565.25256" cy="424.08893" r="5.0"  style="fill:rgb(72.75539,72.75539,168.38644);opacity:1.0" />
<circle cx="572.4242" cy="415.78076" r="5.0"  style="fill:rgb(70.18597,70.18597,171.44528);opacity:1.0" />
<circle cx="579.59595" cy="430.75006" r="5.0"  style="fill:rgb(74.815414,74.815414,165.93402);opacity:1.0" />
<circle cx="586.7677" cy="375.62512" r="5.0"  style="fill:rgb(57.76731,57.76731,186.22939);opacity:1.0" />
<circle cx="593.9394" cy="378.92847" r="5.0"  style="fill:rgb(58.788914,58.788914,185.0132);opacity:1.0" />
<circle cx="601.1111" cy="396.05493" r="5.0"  style="fill:rgb(64.08549,64.08549,178.70775);opacity:1.0" />
<circle cx="608.28284" cy="421.32654" r="5.0"  style="fill:rgb(71.901085,71.901085,169.40347);opacity:1.0" />
<circle cx="615.4545" cy="360.79016" r="5.0"  style="fill:rgb(53.179417,53.179417,191.69118);opacity:1.0" />
<circle cx="622.6263" cy="375.72644" r="5.0"  style="fill:rgb(57.79864,57.79864,186.1921);opacity:1.0" />
<circle cx="629.798" cy="336.22205" r="5.0"  style="fill:rgb(45.581394,45.581394,200.73643);opacity:1.0" />
<circle cx="636.96967" cy="354.64673" r="5.0"  style="fill:rgb(51.279472,51.279472,193.953);opacity:1.0" />
<circle cx="644.1414" cy="366.86316" r="5.0"  style="fill:rgb(55.057564,55.057564,189.45528);opacity:1.0" />
<circle cx="651.3131" cy="322.0365" r="5.0"  style="fill:rgb(41.19433,41.19433,205.95914);opacity:1.0" />
<circle cx="658.48486" cy="327.995" r="5.0"  style="fill:rgb(43.03707,43.03707,203.76538);opacity:1.0" />
<circle cx="665.65656" cy="333.04456" r="5.0"  style="fill:rgb(44.59872,44.59872,201.90628);opacity:1.0" />
<circle cx="672.8283" cy="348.7201" r="5.0"  style="fill:rgb(49.446583,49.446583,196.13503);opacity:1.0" />
<circle cx="680.0" cy="334.52026" r="5.0"  style="fill:rgb(45.0551,45.0551,201.36298);opacity:1.0" />
<circle cx="687.1717" cy="315.9547" r="5.0"  style="fill:rgb(39.313457,39.313457,208.19826);opacity:1.0" />
<circle cx="694.34344" cy="293.68054" r="5.0"  style="fill:rgb(32.42488,32.42488,216.39896);opacity:1.0" />
<circle cx="701.51514" cy="308.1405" r="5.0"  style="fill:rgb(36.896812,36.896812,211.07523);opacity:1.0" />
<circle cx="708.6869" cy="258.64563" r="5.0"  style="fill:rgb(21.589874,21.589874,229.29778);opacity:1.0" />
<circle cx="715.8586" cy="281.18274" r="5.0"  style="fill:rgb(28.559767,28.559767,221.00027);opacity:1.0" />
<circle cx="723.0303" cy="260.46204" r="5.0"  style="fill:rgb(22.151611,22.151611,228.62903);opacity:1.0" />
<circle cx="730.202" cy="303.38403" r="5.0"  style="fill:rgb(35.42581,35.42581,212.82642);opacity:1.0" />
<circle cx="737.3737" cy="292.4784" r="5.0"  style="fill:rgb(32.053097,32.053097,216.84155);opacity:1.0" />
<circle cx="744.5455" cy="276.83606" r="5.0"  style="fill:rgb(27.215496,27.215496,222.6006);opacity:1.0" />
<circle cx="751.71716" cy="237.47095" r="5.0"  style="fill:rgb(15.041313,15.041313,237.09367);opacity:1.0" />
<circle cx="758.8889" cy="235.25964" r="5.0"  style="fill:rgb(14.357445,14.357445,237.9078);opacity:1.0" />
<circle cx="766.0606" cy="241.32971" r="5.0"  style="fill:rgb(16.234688,16.234688,235.67299);opacity:1.0" />
<circle cx="773.2323" cy="213.02429" r="5.0"  style="fill:rgb(7.4808674,7.4808674,246.09421);opacity:1.0" />
<circle cx="780.40405" cy="246.15369" r="5.0"  style="fill:rgb(17.726574,17.726574,233.89694);opacity:1.0" />
<circle cx="787.57574" cy="243.807" r="5.0"  style="fill:rgb(17.00083,17.00083,234.76093);opacity:1.0" />
<circle cx="794.7475" cy="196.54443" r="5.0"  style="fill:rgb(2.3842576,2.3842576,252.16159);opacity:1.0" />
<circle cx="801.9192" cy="189.02197" r="5.0"  style="fill:rgb(0.057835937,0.057835937,254.93115);opacity:1.0" />
<circle cx="809.0909" cy="188.83496" r="5.0"  style="fill:rgb(0.0,0.0,255.0);opacity:1.0" />
<polygon points="106.26263,893.83496 104.79317,896.81244 101.50735,897.2899 103.88499,899.60754 103.3237,902.88007 106.26263,901.33496 109.20155,902.88007 108.64027,899.60754 111.01791,897.2899 107.732086,896.81244 106.26263,893.83496 104.79317,896.81244 " style="fill:rgb(127.5,127.5,0.0);opacity:1.0" />
<polygon points="113.43434,848.7114 111.96488,851.6889 108.67906,852.1664 111.0567,854.484 110.495415,857.75653 113.43434,856.2114 116.37327,857.75653 115.81198,854.484 118.18963,852.1664 114.90381,851.6889 113.43435,848.7114 111.96489,851.6889 " style="fill:rgb(127.5,127.5,0.0);opacity:1.0" />
<polygon points="120.606064,859.37036 119.1366,862.34784 115.85078,862.8253 118.228424,865.14294 117.66713,868.41547 120.60606,866.87036 123.54498,868.41547 122.9837,865.14294 125.36134,862.8253 122.07552,862.34784 120.606064,859.37036 119.1366,862.34784 " style="fill:rgb(127.5,127.5,0.0);opacity:1.0" />
<polygon points="127.77778,862.6684 126.30832,865.6459 123.02249,866.1233 125.40014,868.441 124.83885,871.7135 127.77778,870.1684 130.7167,871.7135 130.15543,868.441 132.53307,866.1233 129.24724,865.6459 127.77778,862.6684 126.30832,865.6459 " style="fill:rgb(127.5,127.5,0.0);opacity:1.0" />
<polygon points="134.9495,854.01514 133.48004,856.9926 130.19421,857.47003 132.57185,859.78766 132.01057,863.06024 134.9495,861.51514 137.88843,863.06024 137.32713,859.78766 139.70477,857.47003 136.41896,856.9926 134.9495,854.01514 133.48004,856.9926 " style="fill:rgb(127.5,127.5,0.0);opacity:1.0" />
<polygon points="142.12122,847.9863 140.65175,850.9638 137.36594,851.4413 139.74358,853.7589 139.18228,857.03143 142.12122,855.4863 145.06013,857.03143 144.49886,853.7589 146.8765,851.4413 143.59067,850.9638 142.12122,847.9863 140.65175,850.9638 " style="fill:rgb(127.5,127.5,0.0);opacity:1.0" />
<polygon points="149.29294,872.62286 147.82347,875.60034 144.53764,876.07776 146.91528,878.3954 146.354,881.66797 149.29294,880.12286 152.23186,881.66797 151.67058,878.3954 154.04822,876.07776 150.76239,875.60034 149.29294,872.62286 147.82347,875.60034 " style="fill:rgb(127.5,127.5,0.0);opacity:1.0" />
<polygon points="156.46465,818.69446 154.99518,821.67194 151.70937,822.1494 154.087,824.46704 153.52573,827.7396 156.46465,826.19446 159.40358,827.73956 158.84229,824.46704 161.21992,822.1494 157.93411,821.672 156.46465,818.69446 154.9952,821.67194 " style="fill:rgb(127.5,127.5,0.0);opacity:1.0" />
<polygon points="163.63637,842.4165 162.1669,845.394 158.88107,845.87146 161.25873,848.1891 160.69743,851.4616 163.63637,849.9165 166.57529,851.4616 166.014,848.1891 168.39165,845.87146 165.10583,845.394 163.63637,842.4165 162.1669,845.394 " style="fill:rgb(127.5,127.5,0.0);opacity:1.0" />
<polygon points="170.80807,811.8462 169.33862,814.82367 166.0528,815.30115 168.43044,817.6188 167.86916,820.8913 170.80807,819.3462 173.74701,820.8913 173.18571,817.6188 175.56335,815.30115 172.27756,814.82367 170.80807,811.8462 169.33862,814.82367 " style="fill:rgb(127.5,127.5,0.0);opacity:1.0" />
<polygon points="177.9798,838.2333 176.51035,841.21075 173.22452,841.68823 175.60216,844.00586 175.04086,847.2784 177.9798,845.7333 180.91872,847.2784 180.35744,844.00586 182.73508,841.68823 179.44925,841.21075 177.9798,838.2333 176.51035,841.21075 " style="fill:rgb(127.5,127.5,0.0);opacity:1.0" />
<polygon points="185.15152,809.095 183.68205,812.07245 180.39624,812.5499 182.77386,814.86755 182.21259,818.1401 185.1515,816.595 188.09044,818.1401 187.52914,814.86755 189.9068,812.5499 186.62099,812.0725 185.15152,809.09503 183.68207,812.07245 " style="fill:rgb(127.5,127.5,0.0);opacity:1.0" />
<polygon points="192.32323,865.1674 190.85376,868.1449 187.56795,868.6223 189.94559,870.93994 189.38431,874.2125 192.32323,872.6674 195.26215,874.2125 194.70087,870.93994 197.0785,868.6223 193.7927,868.1449 192.32324,865.1674 190.85376,868.1449 " style="fill:rgb(127.5,127.5,0.0);opacity:1.0" />
<polygon points="199.49495,853.4054 198.02548,856.3828 194.73967,856.8603 197.11731,859.1779 196.55603,862.45044 199.49495,860.9054 202.43387,862.45044 201.87259,859.1779 204.25023,856.8603 200.96442,856.3828 199.49496,853.4054 198.02548,856.3828 " style="fill:rgb(127.5,127.5,0.0);opacity:1.0" />
<polygon points="206.66666,827.1331 205.1972,830.1106 201.91138,830.588 204.28903,832.90564 203.72774,836.1782 206.66666,834.6331 209.60559,836.1782 209.04431,832.90564 211.42195,830.588 208.13614,830.1106 206.66667,827.1331 205.1972,830.1106 " style="fill:rgb(127.5,127.5,0.0);opacity:1.0" />
<polygon points="213.83838,851.3224 212.36893,854.2998 209.0831,854.7773 211.46074,857.0949 210.89944,860.36743 213.83838,858.8224 216.7773,860.36743 216.21602,857.0949 218.59366,854.7773 215.30783,854.2998 213.83838,851.3224 212.36893,854.2998 " style="fill:rgb(127.5,127.5,0.0);opacity:1.0" />
<polygon points="221.0101,827.9075 219.54065,830.8849 216.25482,831.3624 218.63246,833.68 218.07118,836.9525 221.0101,835.4075 223.94904,836.9525 223.38774,833.68005 225.76538,831.36237 222.47958,830.88495 221.0101,827.9075 219.54065,830.8849 " style="fill:rgb(127.5,127.5,0.0);opacity:1.0" />
<polygon points="228.18181,787.12555 226.71234,790.103 223.42653,790.58044 225.80417,792.8981 225.24289,796.17065 228.18181,794.62555 231.12073,796.17065 230.55945,792.8981 232.93707,790.58044 229.65128,790.103 228.18181,787.1256 226.71234,790.103 " style="fill:rgb(127.5,127.5,0.0);opacity:1.0" />
<polygon points="235.35353,829.25806 233.88406,832.23553 230.59825,832.713 232.97589,835.03064 232.41461,838.30316 235.35353,836.75806 238.29245,838.30316 237.73117,835.03064 240.10881,832.713 236.823,832.23553 235.35353,829.25806 233.88408,832.23553 " style="fill:rgb(127.5,127.5,0.0);opacity:1.0" />
<polygon points="242.52525,842.7287 241.05579,845.7062 237.76997,846.1836 240.14761,848.5012 239.58633,851.7738 242.52525,850.2287 245.46417,851.7738 244.9029,848.5012 247.28053,846.1836 243.99472,845.7062 242.52525,842.7287 241.05579,845.7062 " style="fill:rgb(127.5,127.5,0.0);opacity:1.0" />
<polygon points="249.69696,832.26776 248.2275,835.24524 244.94168,835.72266 247.31932,838.0403 246.75804,841.31287 249.69696,839.76776 252.63588,841.31287 252.0746,838.0403 254.45224,835.72266 251.16643,835.24524 249.69696,832.26776 248.2275,835.24524 " style="fill:rgb(127.5,127.5,0.0);opacity:1.0" />
<polygon points="256.86868,772.5897 255.39922,775.56714 252.1134,776.0446 254.49104,778.36224 253.92976,781.63477 256.86868,780.0897 259.80762,781.63477 259.24634,778.36224 261.62396,776.0446 258.33813,775.56714 256.86868,772.5897 255.39923,775.56714 " style="fill:rgb(127.5,127.5,0.0);opacity:1.0" />
<polygon points="264.0404,776.67255 262.57092,779.65 259.28513,780.12744 261.66278,782.44507 261.1015,785.71765 264.0404,784.17255 266.9793,785.71765 266.41803,782.44507 268.79565,780.12744 265.5099,779.65 264.0404,776.6726 262.57095,779.65 " style="fill:rgb(127.5,127.5,0.0);opacity:1.0" />
<polygon points="271.2121,830.91113 269.74265,833.8886 266.45685,834.3661 268.83447,836.6837 268.2732,839.95624 271.2121,838.41113 274.15103,839.95624 273.58975,836.6837 275.9674,834.3661 272.68158,833.8886 271.2121,830.91113 269.74265,833.8886 " style="fill:rgb(127.5,127.5,0.0);opacity:1.0" />
<polygon points="278.38385,810.1696 276.91437,813.1471 273.62854,813.6245 276.0062,815.94214 275.44492,819.2147 278.38385,817.6696 281.32275,819.21466 280.76147,815.94214 283.1391,813.6245 279.8533,813.1471 278.38385,810.1696 276.91437,813.1471 " style="fill:rgb(127.5,127.5,0.0);opacity:1.0" />
<polygon points="285.55554,818.0702 284.0861,821.04767 280.8003,821.52515 283.17792,823.8428 282.61664,827.1153 285.55554,825.5702 288.49448,827.1153 287.9332,823.8428 290.31082,821.52515 287.02502,821.0477 285.55554,818.07025 284.08612,821.04767 " style="fill:rgb(127.5,127.5,0.0);opacity:1.0" />
<polygon points="292.72726,816.4633 291.2578,819.4408 287.972,819.9182 290.3496,822.23584 289.78833,825.5084 292.72726,823.9633 295.6662,825.50836 295.10492,822.23584 297.48254,819.9182 294.19672,819.4408 292.72726,816.4633 291.2578,819.4408 " style="fill:rgb(127.5,127.5,0.0);opacity:1.0" />
<polygon points="299.899,796.041 298.4295,799.0185 295.1437,799.496 297.52136,801.8136 296.96008,805.0861 299.899,803.541 302.8379,805.0861 302.2766,801.8136 304.65424,799.496 301.36847,799.0185 299.899,796.0411 298.42953,799.0185 " style="fill:rgb(127.5,127.5,0.0);opacity:1.0" />
<polygon points="307.0707,756.30896 305.60126,759.2864 302.31543,759.76385 304.69305,762.0815 304.13177,765.354 307.07074,763.80896 310.00964,765.354 309.44836,762.0815 311.826,759.76385 308.54016,759.2864 307.07074,756.30896 305.60123,759.28644 " style="fill:rgb(127.5,127.5,0.0);opacity:1.0" />
<polygon points="314.24243,752.56213 312.77295,755.5396 309.48712,756.017 311.86478,758.3347 311.30347,761.6072 314.24243,760.06213 317.18134,761.60724 316.62006,758.33466 318.99768,756.0171 315.71185,755.53955 314.24243,752.56213 312.77295,755.5396 " style="fill:rgb(127.5,127.5,0.0);opacity:1.0" />
<polygon points="321.41412,771.8671 319.94467,774.8446 316.65887,775.322 319.0365,777.63965 318.47522,780.91223 321.41412,779.3671 324.35306,780.91223 323.79178,777.63965 326.1694,775.322 322.8836,774.8446 321.41412,771.8671 319.9447,774.8446 " style="fill:rgb(127.5,127.5,0.0);opacity:1.0" />
<polygon points="328.58588,737.7489 327.1164,740.7263 323.83057,741.2038 326.20822,743.5214 325.6469,746.79395 328.58588,745.2489 331.52478,746.79395 330.9635,743.5214 333.34113,741.2038 330.0553,740.7263 328.58588,737.7489 327.1164,740.7264 " style="fill:rgb(127.5,127.5,0.0);opacity:1.0" />
<polygon points="335.75757,734.5311 334.2881,737.5086 331.0023,737.9861 333.37994,740.3037 332.81863,743.57623 335.75757,742.0311 338.69647,743.57623 338.1352,740.3037 340.51285,737.9861 337.227,737.5086 335.75757,734.5311 334.2881,737.50867 " style="fill:rgb(127.5,127.5,0.0);opacity:1.0" />
<polygon points="342.9293,744.6363 341.45984,747.6138 338.174,748.0912 340.55164,750.4088 339.99036,753.68134 342.92932,752.1363 345.86823,753.6814 345.30695,750.4088 347.68457,748.0912 344.39874,747.6137 342.92932,744.6363 341.4598,747.6138 " style="fill:rgb(127.5,127.5,0.0);opacity:1.0" />
<polygon points="350.101,761.5574 348.63153,764.53485 345.34573,765.01227 347.7234,767.32996 347.16208,770.6024 350.101,769.0574 353.03992,770.6025 352.47864,767.3299 354.8563,765.0123 351.57043,764.5348 350.101,761.5574 348.63153,764.53485 " style="fill:rgb(127.5,127.5,0.0);opacity:1.0" />
<polygon points="357.27274,746.63947 355.80328,749.61694 352.51746,750.09436 354.89508,752.412 354.3338,755.6845 357.27274,754.13947 360.21164,755.6846 359.6504,752.412 362.028,750.09436 358.7422,749.6169 357.27277,746.63947 355.80325,749.61694 " style="fill:rgb(127.5,127.5,0.0);opacity:1.0" />
<polygon points="364.44443,773.80725 362.97498,776.7847 359.68915,777.2622 362.06677,779.57983 361.5055,782.85236 364.4444,781.30725 367.38336,782.85236 366.82205,779.57983 369.1997,777.2622 365.9139,776.7848 364.44443,773.80725 362.975,776.7847 " style="fill:rgb(127.5,127.5,0.0);opacity:1.0" />
<polygon points="371.61615,750.0653 370.1467,753.0428 366.86087,753.52026 369.23853,755.8379 368.67722,759.1104 371.61615,757.5653 374.55505,759.1104 373.99377,755.8379 376.37143,753.52026 373.0856,753.0428 371.61618,750.0653 370.1467,753.0428 " style="fill:rgb(127.5,127.5,0.0);opacity:1.0" />
<polygon points="378.78787,737.6699 377.31842,740.64734 374.0326,741.1248 376.41025,743.44244 375.84894,746.71497 378.78787,745.16986 381.72678,746.71497 381.1655,743.44244 383.54315,741.1248 380.25732,740.64734 378.7879,737.6699 377.31842,740.64734 " style="fill:rgb(127.5,127.5,0.0);opacity:1.0" />
<polygon points="385.9596,732.085 384.49014,735.0625 381.2043,735.5399 383.58197,737.85754 383.02066,741.1301 385.9596,739.585 388.8985,741.1301 388.33722,737.85754 390.71487,735.54 387.42905,735.0625 385.95963,732.085 384.49014,735.0625 " style="fill:rgb(127.5,127.5,0.0);opacity:1.0" />
<polygon points="393.13132,731.8258 391.66187,734.8033 388.37604,735.28076 390.7537,737.5984 390.19238,740.8709 393.13132,739.3258 396.07022,740.8709 395.50894,737.5984 397.8866,735.28076 394.60077,734.80334 393.13135,731.82587 391.66187,734.80334 " style="fill:rgb(127.5,127.5,0.0);opacity:1.0" />
<polygon points="400.30304,730.5199 398.8336,733.4973 395.54776,733.9748 397.9254,736.2924 397.3641,739.56494 400.30304,738.0199 403.24194,739.56494 402.68066,736.2924 405.05832,733.97485 401.7725,733.4974 400.30307,730.5199 398.8336,733.4974 " style="fill:rgb(127.5,127.5,0.0);opacity:1.0" />
<polygon points="407.47473,733.5014 406.00528,736.4789 402.71945,736.9563 405.0971,739.2739 404.5358,742.5465 407.47473,741.0014 410.41364,742.5465 409.85236,739.2739 412.23,736.95636 408.94418,736.4789 407.47476,733.5014 406.00528,736.4789 " style="fill:rgb(127.5,127.5,0.0);opacity:1.0" />
<polygon points="414.64645,708.1713 413.177,711.1488 409.89117,711.6262 412.26883,713.94385 411.70752,717.2164 414.64645,715.67126 417.58536,717.21643 417.02408,713.94385 419.40173,711.6262 416.1159,711.1488 414.64648,708.1713 413.177,711.1488 " style="fill:rgb(127.5,127.5,0.0);opacity:1.0" />
<polygon points="421.81818,708.0381 420.34872,711.0155 417.0629,711.493 419.44055,713.8106 418.87924,717.0831 421.81818,715.538 424.75708,717.0831 424.1958,713.8106 426.57346,711.493 423.28763,711.0155 421.8182,708.0381 420.34872,711.0155 " style="fill:rgb(127.5,127.5,0.0);opacity:1.0" />
<polygon points="428.9899,739.85297 427.52045,742.83044 424.23462,743.30786 426.61227,745.6255 426.05096,748.8981 428.9899,747.35297 431.9288,748.8981 431.36752,745.6255 433.74518,743.3079 430.45935,742.83044 428.98993,739.85297 427.52045,742.83044 " style="fill:rgb(127.5,127.5,0.0);opacity:1.0" />
<polygon points="436.16162,704.92175 434.69217,707.8992 431.40634,708.37665 433.784,710.6943 433.2227,713.9668 436.16162,712.42175 439.10052,713.9668 438.53925,710.6943 440.9169,708.3767 437.63107,707.89923 436.16165,704.92175 434.69217,707.89923 " style="fill:rgb(127.5,127.5,0.0);opacity:1.0" />
<polygon points="443.33334,736.4273 441.8639,739.4048 438.57806,739.8822 440.95572,742.1998 440.3944,745.4724 443.33334,743.9273 446.27225,745.4724 445.71097,742.1998 448.08862,739.88226 444.8028,739.4048 443.33337,736.4273 441.8639,739.4048 " style="fill:rgb(127.5,127.5,0.0);opacity:1.0" />
<polygon points="450.50504,710.00854 449.03558,712.98596 445.74976,713.46344 448.1274,715.78107 447.5661,719.0536 450.50504,717.5085 453.44394,719.0536 452.88266,715.78107 455.2603,713.46344 451.9745,712.98596 450.50507,710.00854 449.03558,712.98596 " style="fill:rgb(127.5,127.5,0.0);opacity:1.0" />
<polygon points="457.67676,719.74133 456.2073,722.7188 452.92148,723.1963 455.29913,725.5139 454.73782,728.78644 457.67676,727.24133 460.61566,728.78644 460.05438,725.5139 462.43204,723.1963 459.1462,722.7188 457.6768,719.74133 456.2073,722.7188 " style="fill:rgb(127.5,127.5,0.0);opacity:1.0" />
<polygon points="464.84848,691.69977 463.37903,694.67725 460.0932,695.15466 462.47086,697.4723 461.90955,700.7448 464.84848,699.1997 467.78738,700.7449 467.2261,697.4723 469.60376,695.15466 466.31793,694.67725 464.8485,691.69977 463.37903,694.67725 " style="fill:rgb(127.5,127.5,0.0);opacity:1.0" />
<polygon points="472.0202,670.7383 470.55075,673.71576 467.26492,674.19324 469.64258,676.51086 469.08127,679.7834 472.0202,678.2383 474.9591,679.7834 474.39783,676.51086 476.77548,674.19324 473.48965,673.7158 472.02023,670.73834 470.55075,673.7158 " style="fill:rgb(127.5,127.5,0.0);opacity:1.0" />
<polygon points="479.19193,710.88696 477.72247,713.86444 474.43665,714.34186 476.8143,716.6595 476.253,719.932 479.19193,718.38696 482.13083,719.93207 481.56955,716.6595 483.9472,714.3419 480.66138,713.86444 479.19196,710.88696 477.72247,713.86444 " style="fill:rgb(127.5,127.5,0.0);opacity:1.0" />
<polygon points="486.36365,686.03094 484.8942,689.0084 481.60837,689.48584 483.98602,691.80347 483.4247,695.07605 486.36365,693.53094 489.30255,695.07605 488.74127,691.80347 491.11893,689.4859 487.8331,689.0084 486.36368,686.03094 484.8942,689.0084 " style="fill:rgb(127.5,127.5,0.0);opacity:1.0" />
<polygon points="493.53534,705.54803 492.0659,708.5255 488.78006,709.0029 491.1577,711.32056 490.5964,714.5931 493.53534,713.048 496.47424,714.59314 495.91296,711.32056 498.29062,709.0029 495.0048,708.5255 493.53537,705.54803 492.0659,708.5255 " style="fill:rgb(127.5,127.5,0.0);opacity:1.0" />
<polygon points="500.70706,706.422 499.2376,709.3995 495.95178,709.87695 498.32944,712.1946 497.76813,715.4671 500.70706,713.922 503.64597,715.4671 503.0847,712.1946 505.46234,709.87695 502.1765,709.39954 500.7071,706.42206 499.2376,709.39954 " style="fill:rgb(127.5,127.5,0.0);opacity:1.0" />
<polygon points="507.87878,666.2613 506.40933,669.2388 503.1235,669.7162 505.50116,672.0338 504.93985,675.3064 507.87878,673.7613 510.8177,675.3064 510.2564,672.0338 512.63403,669.71625 509.34824,669.2388 507.8788,666.26135 506.40933,669.2388 " style="fill:rgb(127.5,127.5,0.0);opacity:1.0" />
<polygon points="515.05054,659.9581 513.58105,662.9356 510.29523,663.4131 512.67285,665.7307 512.1116,669.00323 515.05054,667.4581 517.9894,669.00323 517.4281,665.7307 519.8058,663.4131 516.51996,662.9356 515.05054,659.9581 513.58105,662.9356 " style="fill:rgb(127.5,127.5,0.0);opacity:1.0" />
<polygon points="522.2222,646.16235 520.7528,649.1398 517.4669,649.61725 519.8446,651.9349 519.2833,655.2074 522.2222,653.66235 525.16113,655.2074 524.59985,651.9349 526.97754,649.6173 523.69165,649.13983 522.2223,646.16235 520.7528,649.13983 " style="fill:rgb(127.5,127.5,0.0);opacity:1.0" />
<polygon points="529.3939,676.364 527.9245,679.34143 524.6387,679.8189 527.01636,682.13654 526.455,685.40906 529.3939,683.86395 532.3329,685.40906 531.7716,682.13654 534.14923,679.8189 530.8634,679.34143 529.394,676.364 527.9245,679.34143 " style="fill:rgb(127.5,127.5,0.0);opacity:1.0" />
<polygon points="536.5657,697.9928 535.0962,700.9703 531.81036,701.44775 534.188,703.7654 533.6267,707.0379 536.5657,705.4928 539.5045,707.0379 538.94324,703.7654 541.3209,701.44775 538.0351,700.97034 536.5657,697.99286 535.0962,700.97034 " style="fill:rgb(127.5,127.5,0.0);opacity:1.0" />
<polygon points="543.73737,652.3175 542.26794,655.295 538.98206,655.7724 541.35974,658.09 540.79846,661.36255 543.73737,659.8175 546.6763,661.3626 546.115,658.09 548.4927,655.77246 545.2068,655.295 543.7374,652.3175 542.26794,655.295 " style="fill:rgb(127.5,127.5,0.0);opacity:1.0" />
<polygon points="550.90906,647.64453 549.43964,650.62195 546.1538,651.0994 548.5315,653.41705 547.97015,656.6896 550.90906,655.1445 553.848,656.6896 553.28674,653.41705 555.66437,651.0994 552.37854,650.62195 550.9091,647.64453 549.43964,650.62195 " style="fill:rgb(127.5,127.5,0.0);opacity:1.0" />
<polygon points="558.0808,637.7748 556.6113,640.7522 553.32556,641.22974 555.7031,643.5473 555.1419,646.8199 558.0808,645.2748 561.0198,646.8198 560.45844,643.54736 562.83606,641.2297 559.5503,640.75226 558.0808,637.7748 556.6113,640.7522 " style="fill:rgb(127.5,127.5,0.0);opacity:1.0" />
<polygon points="565.25256,652.9981 563.7831,655.9756 560.49725,656.453 562.8749,658.7706 562.3136,662.0432 565.25256,660.4981 568.1914,662.0432 567.6301,658.7706 570.0078,656.45306 566.722,655.9756 565.25256,652.9981 563.7831,655.9756 " style="fill:rgb(127.5,127.5,0.0);opacity:1.0" />
<polygon points="572.4242,631.31836 570.9548,634.29584 567.66895,634.7733 570.0466,637.09094 569.48535,640.36346 572.4242,638.81836 575.36316,640.36346 574.8019,637.09094 577.1795,634.7733 573.8937,634.2959 572.4242,631.31836 570.9548,634.29584 " style="fill:rgb(127.5,127.5,0.0);opacity:1.0" />
<polygon points="579.59595,682.56305 578.12646,685.5405 574.8407,686.01794 577.2183,688.3356 576.657,691.60815 579.59595,690.06305 582.53485,691.60815 581.9736,688.3356 584.3512,686.018 581.0654,685.5405 579.59595,682.56305 578.12646,685.5405 " style="fill:rgb(127.5,127.5,0.0);opacity:1.0" />
<polygon points="586.7677,612.6841 585.2982,615.66156 582.0124,616.13904 584.39,618.45667 583.82874,621.7292 586.76764,620.1841 589.7066,621.7292 589.14526,618.45667 591.52295,616.13904 588.2372,615.6616 586.76764,612.6841 585.2982,615.66156 " style="fill:rgb(127.5,127.5,0.0);opacity:1.0" />
<polygon points="593.9394,644.4004 592.47,647.3778 589.1841,647.8553 591.56177,650.1729 591.0005,653.44543 593.9394,651.9004 596.8783,653.44543 596.317,650.1729 598.6947,647.85535 595.4088,647.37787 593.93945,644.4004 592.47,647.37787 " style="fill:rgb(127.5,127.5,0.0);opacity:1.0" />
<polygon points="601.1111,625.9069 599.64166,628.8844 596.35583,629.3618 598.73346,631.67944 598.17224,634.952 601.1111,633.4069 604.05005,634.952 603.4888,631.6795 605.8664,629.3618 602.58057,628.8844 601.1111,625.9069 599.64166,628.8844 " style="fill:rgb(127.5,127.5,0.0);opacity:1.0" />
<polygon points="608.28284,621.2544 606.81335,624.2318 603.5276,624.70935 605.90515,627.0269 605.34393,630.29944 608.28284,628.7544 611.2218,630.29944 610.66046,627.027 613.0381,624.7093 609.7523,624.2319 608.28284,621.2544 606.81335,624.2318 " style="fill:rgb(127.5,127.5,0.0);opacity:1.0" />
<polygon points="615.4545,597.61237 613.98505,600.58984 610.6992,601.06726 613.07684,603.3849 612.5156,606.6575 615.4545,605.1124 618.39343,606.6575 617.8322,603.3849 620.2098,601.06726 616.924,600.5898 615.4545,597.6124 613.98505,600.5898 " style="fill:rgb(127.5,127.5,0.0);opacity:1.0" />
<polygon points="622.6263,638.89484 621.1568,641.8723 617.871,642.34973 620.2486,644.66736 619.6874,647.93994 622.6263,646.3949 625.56525,647.93994 625.00397,644.66736 627.3816,642.34973 624.09576,641.87225 622.6262,638.8948 621.1568,641.87225 " style="fill:rgb(127.5,127.5,0.0);opacity:1.0" />
<polygon points="629.798,650.8709 628.3285,653.8484 625.04266,654.3258 627.42035,656.6435 626.859,659.916 629.798,658.3709 632.7369,659.916 632.1756,656.64343 634.5533,654.32587 631.26746,653.8484 629.79803,650.8709 628.32855,653.8484 " style="fill:rgb(127.5,127.5,0.0);opacity:1.0" />
<polygon points="636.96967,621.8717 635.5002,624.8492 632.21436,625.32666 634.592,627.6443 634.03076,630.9169 636.96967,629.37177 639.9086,630.9168 639.34735,627.6443 641.725,625.3266 638.43915,624.8491 636.9696,621.8717 635.5002,624.8491 " style="fill:rgb(127.5,127.5,0.0);opacity:1.0" />
<polygon points="644.1414,591.9879 642.67194,594.9654 639.3861,595.4429 641.76373,597.7605 641.2025,601.0331 644.1414,599.488 647.0804,601.033 646.5191,597.7605 648.8967,595.4428 645.6109,594.96533 644.14136,591.9879 642.67194,594.96533 " style="fill:rgb(127.5,127.5,0.0);opacity:1.0" />
<polygon points="651.3131,586.72943 649.8436,589.7069 646.5578,590.1843 648.9354,592.50195 648.3742,595.77454 651.3131,594.2295 654.2521,595.77454 653.6908,592.50195 656.0684,590.1843 652.7826,589.70685 651.31305,586.7294 649.8436,589.70685 " style="fill:rgb(127.5,127.5,0.0);opacity:1.0" />
<polygon points="658.48486,587.1272 657.0154,590.1046 653.72955,590.5821 656.1072,592.8997 655.54596,596.17224 658.48486,594.6272 661.4238,596.17224 660.86255,592.8997 663.2402,590.58203 659.95435,590.1046 658.4848,587.12714 657.0154,590.1046 " style="fill:rgb(127.5,127.5,0.0);opacity:1.0" />
<polygon points="665.65656,627.76416 664.1871,630.7416 660.90125,631.2191 663.2789,633.53674 662.71765,636.80927 665.65656,635.26416 668.5955,636.8092 668.03424,633.53674 670.41187,631.219 667.12604,630.7416 665.6565,627.76416 664.1871,630.7416 " style="fill:rgb(127.5,127.5,0.0);opacity:1.0" />
<polygon points="672.8283,629.9383 671.3588,632.9158 668.073,633.3932 670.4506,635.7108 669.8894,638.9834 672.8283,637.43835 675.7673,638.9834 675.206,635.7108 677.5836,633.3932 674.2978,632.9157 672.82825,629.93823 671.3588,632.9157 " style="fill:rgb(127.5,127.5,0.0);opacity:1.0" />
<polygon points="680.0,633.4445 678.5305,636.422 675.2447,636.8994 677.6223,639.21704 677.0611,642.4896 680.0,640.9446 682.93896,642.4896 682.3777,639.21704 684.7553,636.8994 681.4695,636.42194 679.99994,633.44446 678.5305,636.42194 " style="fill:rgb(127.5,127.5,0.0);opacity:1.0" />
<polygon points="687.1717,580.06213 685.7022,583.0396 682.4164,583.5171 684.794,585.8347 684.2328,589.1073 687.1717,587.5622 690.11066,589.10724 689.5494,585.8347 691.927,583.517 688.6412,583.03955 687.17163,580.06213 685.7022,583.03955 " style="fill:rgb(127.5,127.5,0.0);opacity:1.0" />
<polygon points="694.34344,589.1948 692.87396,592.17224 689.58813,592.6498 691.96576,594.9674 691.40454,598.2399 694.34344,596.6948 697.2824,598.23987 696.7211,594.9674 699.09875,592.64966 695.8129,592.17224 694.3434,589.1948 692.87396,592.17224 " style="fill:rgb(127.5,127.5,0.0);opacity:1.0" />
<polygon points="701.51514,584.57117 700.04565,587.5486 696.7598,588.0261 699.13745,590.34375 698.57623,593.6163 701.51514,592.07117 704.4541,593.6162 703.8928,590.34375 706.27045,588.026 702.9846,587.5486 701.5151,584.57117 700.04565,587.5486 " style="fill:rgb(127.5,127.5,0.0);opacity:1.0" />
<polygon points="708.6869,574.3639 707.2174,577.3413 703.9316,577.81885 706.3092,580.1365 705.748,583.409 708.6869,581.8639 711.62585,583.40894 711.0646,580.1365 713.4422,577.8187 710.1564,577.3413 708.6868,574.3639 707.2174,577.3413 " style="fill:rgb(127.5,127.5,0.0);opacity:1.0" />
<polygon points="715.8586,575.80066 714.3891,578.77814 711.1033,579.2556 713.4809,581.57324 712.9197,584.8458 715.8586,583.3007 718.79755,584.84576 718.23627,581.57324 720.6139,579.25555 717.32806,578.7781 715.8585,575.80066 714.3891,578.7781 " style="fill:rgb(127.5,127.5,0.0);opacity:1.0" />
<polygon points="723.0303,555.933 721.5608,558.9104 718.27496,559.38794 720.6526,561.70557 720.0914,564.9781 723.0303,563.433 725.96924,564.978 725.40796,561.70557 727.7856,559.3878 724.49976,558.9104 723.0302,555.933 721.5608,558.9104 " style="fill:rgb(127.5,127.5,0.0);opacity:1.0" />
<polygon points="730.202,578.5318 728.73254,581.5093 725.4467,581.9867 727.82434,584.3043 727.2631,587.5769 730.202,586.03186 733.141,587.5769 732.5797,584.3043 734.95734,581.9867 731.6715,581.5092 730.20197,578.53174 728.73254,581.5092 " style="fill:rgb(127.5,127.5,0.0);opacity:1.0" />
<polygon points="737.3737,601.80115 735.90424,604.7786 732.6184,605.2561 734.99603,607.5737 734.4348,610.8463 737.3737,609.3012 740.3127,610.84625 739.7514,607.5737 742.129,605.25604 738.8432,604.77856 737.37366,601.80115 735.90424,604.77856 " style="fill:rgb(127.5,127.5,0.0);opacity:1.0" />
<polygon points="744.5455,601.2126 743.076,604.19006 739.79016,604.6675 742.1678,606.9851 741.60657,610.2577 744.5455,608.71265 747.48444,610.2577 746.92316,606.9851 749.3008,604.6675 746.01495,604.19 744.5454,601.2125 743.076,604.19 " style="fill:rgb(127.5,127.5,0.0);opacity:1.0" />
<polygon points="751.71716,537.8688 750.2477,540.8462 746.96185,541.32367 749.3395,543.6413 748.77826,546.9138 751.71716,545.3688 754.6561,546.9138 754.09485,543.6413 756.4725,541.3236 753.18665,540.8462 751.7171,537.8687 750.2477,540.8462 " style="fill:rgb(127.5,127.5,0.0);opacity:1.0" />
<polygon points="758.8889,528.23206 757.41943,531.20953 754.1336,531.687 756.5112,534.00464 755.95,537.2772 758.8889,535.7321 761.8279,537.27716 761.2666,534.00464 763.6442,531.68695 760.3584,531.2095 758.88885,528.23206 757.41943,531.2095 " style="fill:rgb(127.5,127.5,0.0);opacity:1.0" />
<polygon points="766.0606,551.7241 764.5911,554.70154 761.3053,555.179 763.6829,557.49664 763.1217,560.76917 766.0606,559.2241 768.9996,560.76917 768.4383,557.49664 770.8159,555.17896 767.5301,554.70154 766.06055,551.72406 764.5911,554.70154 " style="fill:rgb(127.5,127.5,0.0);opacity:1.0" />
<polygon points="773.2323,563.42926 771.7628,566.40674 768.477,566.88416 770.8546,569.2018 770.2934,572.47437 773.2323,570.9293 776.17126,572.47437 775.61,569.2018 777.9876,566.88416 774.7018,566.4067 773.23224,563.4292 771.7628,566.4067 " style="fill:rgb(127.5,127.5,0.0);opacity:1.0" />
<polygon points="780.40405,527.8497 778.9346,530.82715 775.64874,531.30457 778.02637,533.6222 777.46515,536.8948 780.40405,535.34973 783.343,536.8948 782.78174,533.6222 785.15936,531.30457 781.87354,530.8271 780.404,527.8496 778.9346,530.8271 " style="fill:rgb(127.5,127.5,0.0);opacity:1.0" />
<polygon points="787.57574,560.83936 786.10626,563.8168 782.82043,564.2943 785.19806,566.61194 784.63684,569.88446 787.57574,568.33936 790.5147,569.8844 789.9534,566.61194 792.33105,564.2942 789.0452,563.8168 787.5757,560.83936 786.10626,563.8168 " style="fill:rgb(127.5,127.5,0.0);opacity:1.0" />
<polygon points="794.7475,544.22864 793.278,547.20605 789.9922,547.6836 792.3698,550.0012 791.8086,553.27374 794.7475,551.72864 797.68646,553.2737 797.1252,550.0012 799.5028,547.6835 796.217,547.20605 794.74744,544.22864 793.278,547.20605 " style="fill:rgb(127.5,127.5,0.0);opacity:1.0" />
<polygon points="801.9192,544.4108 800.4497,547.3883 797.1639,547.8657 799.5415,550.18335 798.9803,553.45593 801.9192,551.9109 804.85815,553.45593 804.2969,550.18335 806.6745,547.8657 803.3887,547.38824 801.9191,544.41077 800.4497,547.38824 " style="fill:rgb(127.5,127.5,0.0);opacity:1.0" />
<polygon points="809.0909,567.38727 807.6214,570.36475 804.3356,570.84216 806.7132,573.1598 806.152,576.4324 809.0909,574.8873 812.02985,576.4324 811.46857,573.1598 813.8462,570.84216 810.56036,570.3647 809.0908,567.3872 807.6214,570.3647 " style="fill:rgb(127.5,127.5,0.0);opacity:1.0" />
<text x="456.15" y="92.5" stroke="#000000" stroke-width="1.2" transform="rotate(-0.0,456.15,92.5)">SCATTER PLOT</text>
<text x="476.8" y="950.0" stroke="#000000" stroke-width="1.2" transform="rotate(-0.0,476.8,950.0)">X-AXIS</text>
<text x="50.0" y="546.6" stroke="#000000" stroke-width="1.2" transform="rotate(-90.0,50.0,546.6)">Y-AXIS</text>
<rect x="120.0" y="120.0" width="67.880005" height="40.0" style="fill:rgb(255.0,255.0,255.0);stroke-width:2.0;stroke:rgb(0.0,0.0,0.0);opacity:0.7" />
<circle cx="132.0" cy="132.0" r="4.0"  style="fill:rgb(214.2,214.2,0.0);opacity:1.0" />
<text x="144.0" y="136.0" stroke="#000000" stroke-width="1.2" transform="rotate(-0.0,144.0,136.0)">Plot 1</text>
<polygon points="132.0,144.0 130.82443,146.38196 128.19577,146.76392 130.09789,148.61804 129.64885,151.23608 132.0,150.0 134.35115,151.23608 133.90211,148.61804 135.80424,146.76392 133.17558,146.38196 131.99998,144.0 130.82443,146.38196 " style="fill:rgb(127.5,127.5,0.0);opacity:1.0" />
<text x="144.0" y="152.0" stroke="#000000" stroke-width="1.2" transform="rotate(-0.0,144.0,152.0)">Plot 2</text>
</svg>