<svg height="660.0" width="1000.0" version="4.0" xmlns="http://www.w3.org/2000/svg" xmlns:xlink= "http://www.w3.org/1999/xlink">
<rect width="100%" height="100%" fill="white"/>
<rect x="100.0" y="66.0" width="800.0" height="528.0" style="fill:rgb(255,255,255);stroke-width:2.0;stroke:rgb(0,0,0);opacity:1" />
<line x1="163.63637" y1="597.0" x2="163.63637" y2="594.0" style="stroke:rgb(0.0,0.0,0.0);stroke-width:2.0;opacity:1.0;stroke-linecap:round" />
<text x="154.09636" y="609.0" stroke="#000000" stroke-width="0.7" transform="rotate(-0.0,154.09636,609.0)">10.0</text>
<line x1="235.35353" y1="597.0" x2="235.35353" y2="594.0" style="stroke:rgb(0.0,0.0,0.0);stroke-width:2.0;opacity:1.0;stroke-linecap:round" />
<text x="225.49353" y="609.0" stroke="#000000" stroke-width="0.7" transform="rotate(-0.0,225.49353,609.0)">20.0</text>
<line x1="307.0707" y1="597.0" x2="307.0707" y2="594.0" style="stroke:rgb(0.0,0.0,0.0);stroke-width:2.0;opacity:1.0;stroke-linecap:round" />
<text x="297.2107" y="609.0" stroke="#000000" stroke-width="0.7" transform="rotate(-0.0,297.2107,609.0)">30.0</text>
<line x1="378.78787" y1="597.0" x2="378.78787" y2="594.0" style="stroke:rgb(0.0,0.0,0.0);stroke-width:2.0;opacity:1.0;stroke-linecap:round" />
<text x="368.92786" y="609.0" stroke="#000000" stroke-width="0.7" transform="rotate(-0.0,368.92786,609.0)">40.0</text>
<line x1="450.50504" y1="597.0" x2="450.50504" y2="594.0" style="stroke:rgb(0.0,0.0,0.0);stroke-width:2.0;opacity:1.0;stroke-linecap:round" />
<text x="440.64502" y="609.0" stroke="#000000" stroke-width="0.7" transform="rotate(-0.0,440.64502,609.0)">49.0</text>
<line x1="522.22217" y1="597.0" x2="522.22217" y2="594.0" style="stroke:rgb(0.0,0.0,0.0);stroke-width:2.0;opacity:1.0;stroke-linecap:round" />
<text x="512.3622" y="609.0" stroke="#000000" stroke-width="0.7" transform="rotate(-0.0,512.3622,609.0)">59.0</text>
<line x1="593.93933" y1="597.0" x2="593.93933" y2="594.0" style="stroke:rgb(0.0,0.0,0.0);stroke-width:2.0;opacity:1.0;stroke-linecap:round" />
<text x="584.07935" y="609.0" stroke="#000000" stroke-width="0.7" transform="rotate(-0.0,584.07935,609.0)">69.0</text>
<line x1="665.65656" y1="597.0" x2="665.65656" y2="594.0" style="stroke:rgb(0.0,0.0,0.0);stroke-width:2.0;opacity:1.0;stroke-linecap:round" />
<text x="655.7966" y="609.0" stroke="#000000" stroke-width="0.7" transform="rotate(-0.0,655.7966,609.0)">80.0</text>
<line x1="737.3737" y1="597.0" x2="737.3737" y2="594.0" style="stroke:rgb(0.0,0.0,0.0);stroke-width:2.0;opacity:1.0;stroke-linecap:round" />
<text x="727.51373" y="609.0" stroke="#000000" stroke-width="0.7" transform="rotate(-0.0,727.51373,609.0)">90.0</text>
<line x1="809.0909" y1="597.0" x2="809.0909" y2="594.0" style="stroke:rgb(0.0,0.0,0.0);stroke-width:2.0;opacity:1.0;stroke-linecap:round" />
<text x="799.2309" y="609.0" stroke="#000000" stroke-width="0.7" transform="rotate(-0.0,799.2309,609.0)">99.0</text>
<line x1="880.80804" y1="597.0" x2="880.80804" y2="594.0" style="stroke:rgb(0.0,0.0,0.0);stroke-width:2.0;opacity:1.0;stroke-linecap:round" />
<text x="869.82806" y="609.0" stroke="#000000" stroke-width="0.7" transform="rotate(-0.0,869.82806,609.0)">109.0</text>
<line x1="97.0" y1="589.17786" x2="100.0" y2="589.17786" style="stroke:rgb(0.0,0.0,0.0);stroke-width:2.0;opacity:1.0;stroke-linecap:round" />
<text x="62.16" y="593.17786" stroke="#000000" stroke-width="0.7" transform="rotate(-0.0,62.16,593.17786)">0.0</text>
<line x1="97.0" y1="362.05096" x2="100.0" y2="362.05096" style="stroke:rgb(0.0,0.0,0.0);stroke-width:2.0;opacity:1.0;stroke-linecap:round" />
<text x="57.04" y="366.05096" stroke="#000000" stroke-width="0.7" transform="rotate(-0.0,57.04,366.05096)">100.0</text>
<line x1="97.0" y1="134.92401" x2="100.0" y2="134.92401" style="stroke:rgb(0.0,0.0,0.0);stroke-width:2.0;opacity:1.0;stroke-linecap:round" />
<text x="56.4" y="138.92401" stroke="#000000" stroke-width="0.7" transform="rotate(-0.0,56.4,138.92401)">200.0</text>
<circle cx="106.26263" cy="588.0645" r="5.0"  style="fill:rgb(214.2,214.2,0.0);opacity:1.0" />
<circle cx="113.43434" cy="577.07495" r="5.0"  style="fill:rgb(209.1548,209.1548,6.0061646);opacity:1.0" />
<circle cx="120.606064" cy="548.82513" r="5.0"  style="fill:rgb(196.18562,196.18562,21.445692);opacity:1.0" />
<circle cx="127.77778" cy="552.2477" r="5.0"  style="fill:rgb(197.7569,197.7569,19.575125);opacity:1.0" />
<circle cx="134.9495" cy="555.16125" r="5.0"  style="fill:rgb(199.09445,199.09445,17.982788);opacity:1.0" />
<circle cx="142.12122" cy="556.902" r="5.0"  style="fill:rgb(199.89362,199.89362,17.031414);opacity:1.0" />
<circle cx="149.29294" cy="570.2416" r="5.0"  style="fill:rgb(206.0177,206.0177,9.740832);opacity:1.0" />
<circle cx="156.46465" cy="568.9119" r="5.0"  style="fill:rgb(205.40726,205.40726,10.467563);opacity:1.0" />
<circle cx="163.63637" cy="522.19336" r="5.0"  style="fill:rgb(183.95927,183.95927,36.000862);opacity:1.0" />
<circle cx="170.80807" cy="543.0386" r="5.0"  style="fill:rgb(193.52907,193.52907,24.608248);opacity:1.0" />
<circle cx="177.9798" cy="523.2782" r="5.0"  style="fill:rgb(184.4573,184.4573,35.407963);opacity:1.0" />
<circle cx="185.15152" cy="524.93884" r="5.0"  style="fill:rgb(185.2197,185.2197,34.50035);opacity:1.0" />
<circle cx="192.32323" cy="531.93756" r="5.0"  style="fill:rgb(188.43271,188.43271,30.675339);opacity:1.0" />
<circle cx="199.49495" cy="503.37695" r="5.0"  style="fill:rgb(175.32086,175.32086,46.2847);opacity:1.0" />
<circle cx="206.66666" cy="524.2462" r="5.0"  style="fill:rgb(184.90172,184.90172,34.878906);opacity:1.0" />
<circle cx="213.83838" cy="532.2043" r="5.0"  style="fill:rgb(188.55516,188.55516,30.529562);opacity:1.0" />
<circle cx="221.0101" cy="509.32117" r="5.0"  style="fill:rgb(178.04979,178.04979,43.03597);opacity:1.0" />
<circle cx="228.18181" cy="508.07657" r="5.0"  style="fill:rgb(177.47838,177.47838,43.716194);opacity:1.0" />
<circle cx="235.35353" cy="481.39948" r="5.0"  style="fill:rgb(165.23123,165.23123,58.296154);opacity:1.0" />
<circle cx="242.52525" cy="486.2786" r="5.0"  style="fill:rgb(167.47118,167.47118,55.629543);opacity:1.0" />
<circle cx="249.69696" cy="468.9462" r="5.0"  style="fill:rgb(159.51405,159.51405,65.1023);opacity:1.0" />
<circle cx="256.86868" cy="477.44748" r="5.0"  style="fill:rgb(163.4169,163.4169,60.45606);opacity:1.0" />
<circle cx="264.0404" cy="458.99" r="5.0"  style="fill:rgb(154.94327,154.94327,70.543724);opacity:1.0" />
<circle cx="271.2121" cy="468.9898" r="5.0"  style="fill:rgb(159.53407,159.53407,65.07847);opacity:1.0" />
<circle cx="278.38385" cy="455.7801" r="5.0"  style="fill:rgb(153.46964,153.46964,72.29805);opacity:1.0" />
<circle cx="285.55554" cy="471.1582" r="5.0"  style="fill:rgb(160.52957,160.52957,63.89336);opacity:1.0" />
<circle cx="292.72726" cy="484.59726" r="5.0"  style="fill:rgb(166.6993,166.6993,56.548454);opacity:1.0" />
<circle cx="299.899" cy="466.91174" r="5.0"  style="fill:rgb(158.58005,158.58005,66.21421);opacity:1.0" />
<circle cx="307.0707" cy="444.8487" r="5.0"  style="fill:rgb(148.45116,148.45116,78.27243);opacity:1.0" />
<circle cx="314.24243" cy="470.2116" r="5.0"  style="fill:rgb(160.095,160.095,64.41071);opacity:1.0" />
<circle cx="321.41412" cy="456.47043" r="5.0"  style="fill:rgb(153.78656,153.78656,71.920746);opacity:1.0" />
<circle cx="328.58588" cy="439.30334" r="5.0"  style="fill:rgb(145.90533,145.90533,81.30317);opacity:1.0" />
<circle cx="335.75757" cy="417.16556" r="5.0"  style="fill:rgb(135.74211,135.74211,93.40224);opacity:1.0" />
<circle cx="342.9293" cy="427.80255" r="5.0"  style="fill:rgb(140.62546,140.62546,87.588745);opacity:1.0" />
<circle cx="350.101" cy="436.88983" r="5.0"  style="fill:rgb(144.79733,144.79733,82.62222);opacity:1.0" />
<circle cx="357.27274" cy="439.03964" r="5.0"  style="fill:rgb(145.78427,145.78427,81.44728);opacity:1.0" />
<circle cx="364.44443" cy="435.5617" r="5.0"  style="fill:rgb(144.18759,144.18759,83.34809);opacity:1.0" />
<circle cx="371.61615" cy="432.14142" r="5.0"  style="fill:rgb(142.61739,142.61739,85.2174);opacity:1.0" />
<circle cx="378.78787" cy="409.58575" r="5.0"  style="fill:rgb(132.2623,132.2623,97.54487);opacity:1.0" />
<circle cx="385.9596" cy="384.28442" r="5.0"  style="fill:rgb(120.646736,120.646736,111.372925);opacity:1.0" />
<circle cx="393.13132" cy="394.3241" r="5.0"  style="fill:rgb(125.25586,125.25586,105.88589);opacity:1.0" />
<circle cx="400.30304" cy="401.13782" r="5.0"  style="fill:rgb(128.38396,128.38396,102.16196);opacity:1.0" />
<circle cx="407.47473" cy="400.65503" r="5.0"  style="fill:rgb(128.16231,128.16231,102.425804);opacity:1.0" />
<circle cx="414.64645" cy="391.43988" r="5.0"  style="fill:rgb(123.93175,123.93175,107.462204);opacity:1.0" />
<circle cx="421.81818" cy="383.95938" r="5.0"  style="fill:rgb(120.49753,120.49753,111.55056);opacity:1.0" />
<circle cx="428.9899" cy="379.22998" r="5.0"  style="fill:rgb(118.32631,118.32631,114.135345);opacity:1.0" />
<circle cx="436.16162" cy="377.13968" r="5.0"  style="fill:rgb(117.366684,117.366684,115.27776);opacity:1.0" />
<circle cx="443.33334" cy="350.19717" r="5.0"  style="fill:rgb(104.99765,104.99765,130.00279);opacity:1.0" />
<circle cx="450.50504" cy="345.3099" r="5.0"  style="fill:rgb(102.75397,102.75397,132.67384);opacity:1.0" />
<circle cx="457.67676" cy="345.84323" r="5.0"  style="fill:rgb(102.9988,102.9988,132.38237);opacity:1.0" />
<circle cx="464.84848" cy="352.19318" r="5.0"  style="fill:rgb(105.914,105.914,128.9119);opacity:1.0" />
<circle cx="472.0202" cy="337.63675" r="5.0"  style="fill:rgb(99.23129,99.23129,136.86751);opacity:1.0" />
<circle cx="479.19193" cy="342.1486" r="5.0"  style="fill:rgb(101.30264,101.30264,134.40161);opacity:1.0" />
<circle cx="486.36365" cy="331.3929" r="5.0"  style="fill:rgb(96.36482,96.36482,140.27997);opacity:1.0" />
<circle cx="493.53534" cy="316.01065" r="5.0"  style="fill:rgb(89.302986,89.302986,148.68692);opacity:1.0" />
<circle cx="500.70706" cy="348.9301" r="5.0"  style="fill:rgb(104.41597,104.41597,130.69527);opacity:1.0" />
<circle cx="507.87878" cy="333.019" r="5.0"  style="fill:rgb(97.11135,97.11135,139.39125);opacity:1.0" />
<circle cx="515.05054" cy="334.26846" r="5.0"  style="fill:rgb(97.68496,97.68496,138.70837);opacity:1.0" />
<circle cx="522.2222" cy="310.64078" r="5.0"  style="fill:rgb(86.837746,86.837746,151.62173);opacity:1.0" />
<circle cx="529.3939" cy="329.03897" r="5.0"  style="fill:rgb(95.28415,95.28415,141.56648);opacity:1.0" />
<circle cx="536.5657" cy="301.7053" r="5.0"  style="fill:rgb(82.73556,82.73556,156.5053);opacity:1.0" />
<circle cx="543.73737" cy="314.80554" r="5.0"  style="fill:rgb(88.74974,88.74974,149.34555);opacity:1.0" />
<circle cx="550.90906" cy="276.51837" r="5.0"  style="fill:rgb(71.17251,71.17251,170.27083);opacity:1.0" />
<circle cx="558.0808" cy="305.55673" r="5.0"  style="fill:rgb(84.50371,84.50371,154.40034);opacity:1.0" />
<circle cx="565.25256" cy="271.53253" r="5.0"  style="fill:rgb(68.88357,68.88357,172.99574);opacity:1.0" />
<circle cx="572.4242" cy="306.80692" r="5.0"  style="fill:rgb(85.07765,85.07765,153.71707);opacity:1.0" />
<circle cx="579.59595" cy="278.8016" r="5.0"  style="fill:rgb(72.22072,72.22072,169.02295);opacity:1.0" />
<circle cx="586.7677" cy="280.2506" r="5.0"  style="fill:rgb(72.88594,72.88594,168.23102);opacity:1.0" />
<circle cx="593.9394" cy="249.73654" r="5.0"  style="fill:rgb(58.877262,58.877262,184.90802);opacity:1.0" />
<circle cx="601.1111" cy="246.34348" r="5.0"  style="fill:rgb(57.31954,57.31954,186.76245);opacity:1.0" />
<circle cx="608.28284" cy="253.35849" r="5.0"  style="fill:rgb(60.540066,60.540066,182.9285);opacity:1.0" />
<circle cx="615.4545" cy="278.7093" r="5.0"  style="fill:rgb(72.178345,72.178345,169.0734);opacity:1.0" />
<circle cx="622.6263" cy="271.58746" r="5.0"  style="fill:rgb(68.90878,68.90878,172.96573);opacity:1.0" />
<circle cx="629.798" cy="252.72525" r="5.0"  style="fill:rgb(60.24934,60.24934,183.2746);opacity:1.0" />
<circle cx="636.96967" cy="238.94925" r="5.0"  style="fill:rgb(53.924934,53.924934,190.80365);opacity:1.0" />
<circle cx="644.1414" cy="221.26523" r="5.0"  style="fill:rgb(45.806393,45.806393,200.46858);opacity:1.0" />
<circle cx="651.3131" cy="237.00455" r="5.0"  style="fill:rgb(53.032143,53.032143,191.8665);opacity:1.0" />
<circle cx="658.48486" cy="249.17703" r="5.0"  style="fill:rgb(58.620396,58.620396,185.2138);opacity:1.0" />
<circle cx="665.65656" cy="241.36502" r="5.0"  style="fill:rgb(55.03398,55.03398,189.48335);opacity:1.0" />
<circle cx="672.8283" cy="200.53989" r="5.0"  style="fill:rgb(36.291603,36.291603,211.79572);opacity:1.0" />
<circle cx="680.0" cy="210.3364" r="5.0"  style="fill:rgb(40.789078,40.789078,206.44157);opacity:1.0" />
<circle cx="687.1717" cy="202.65225" r="5.0"  style="fill:rgb(37.26137,37.26137,210.64122);opacity:1.0" />
<circle cx="694.34344" cy="198.71457" r="5.0"  style="fill:rgb(35.45362,35.45362,212.7933);opacity:1.0" />
<circle cx="701.51514" cy="217.44669" r="5.0"  style="fill:rgb(44.053337,44.053337,202.55554);opacity:1.0" />
<circle cx="708.6869" cy="201.21896" r="5.0"  style="fill:rgb(36.603367,36.603367,211.42456);opacity:1.0" />
<circle cx="715.8586" cy="184.89447" r="5.0"  style="fill:rgb(29.108967,29.108967,220.34647);opacity:1.0" />
<circle cx="723.0303" cy="200.19315" r="5.0"  style="fill:rgb(36.13242,36.13242,211.98521);opacity:1.0" />
<circle cx="730.202" cy="180.98724" r="5.0"  style="fill:rgb(27.315197,27.315197,222.4819);opacity:1.0" />
<circle cx="737.3737" cy="160.68793" r="5.0"  style="fill:rgb(17.996002,17.996002,233.57619);opacity:1.0" />
<circle cx="744.5455" cy="184.16644" r="5.0"  style="fill:rgb(28.77473,28.77473,220.74437);opacity:1.0" />
<circle cx="751.71716" cy="182.84805" r="5.0"  style="fill:rgb(28.169472,28.169472,221.46492);opacity:1.0" />
<circle cx="758.8889" cy="177.3963" r="5.0"  style="fill:rgb(25.666632,25.666632,224.44449);opacity:1.0" />
<circle cx="766.0606" cy="182.95169" r="5.0"  style="fill:rgb(28.217054,28.217054,221.40826);opacity:1.0" />
<circle cx="773.2323" cy="154.50043" r="5.0"  style="fill:rgb(15.15539,15.15539,236.95787);opacity:1.0" />
<circle cx="780.40405" cy="143.41473" r="5.0"  style="fill:rgb(10.066071,10.066071,243.01659);opacity:1.0" />
<circle cx="787.57574" cy="152.61966" r="5.0"  style="fill:rgb(14.291949,14.291949,237.98578);opacity:1.0" />
<circle cx="794.7475" cy="165.15088" r="5.0"  style="fill:rgb(20.044888,20.044888,231.13704);opacity:1.0" />
<circle cx="801.9192" cy="121.48859" r="5.0"  style="fill:rgb(0.0,0.0,255.0);opacity:1.0" />
<circle cx="809.0909" cy="124.56641" r="5.0"  style="fill:rgb(1.4129843,1.4129843,253.31787);opacity:1.0" />
<polygon points="106.26263,583.86395 111.26263,592.5242 101.26263,592.5242" style="fill:rgb(127.5,127.5,0.0);opacity:1.0" />
<polygon points="113.43434,577.59894 118.43434,586.2592 108.43434,586.2592" style="fill:rgb(127.5,127.5,0.0);opacity:1.0" />
<polygon points="120.606064,558.49 125.606064,567.15027 115.606064,567.15027" style="fill:rgb(127.5,127.5,0.0);opacity:1.0" />
<polygon points="127.77778,579.75073 132.77777,588.41095 122.77778,588.41095" style="fill:rgb(127.5,127.5,0.0);opacity:1.0" />
<polygon points="134.9495,582.0127 139.9495,590.6729 129.9495,590.6729" style="fill:rgb(127.5,127.5,0.0);opacity:1.0" />
<polygon points="142.12122,549.9354 147.12122,558.59564 137.12122,558.59564" style="fill:rgb(127.5,127.5,0.0);opacity:1.0" />
<polygon points="149.29294,587.1581 154.29294,595.81836 144.29294,595.81836" style="fill:rgb(127.5,127.5,0.0);opacity:1.0" />
<polygon points="156.46465,573.46216 161.46465,582.1224 151.46465,582.1224" style="fill:rgb(127.5,127.5,0.0);opacity:1.0" />
<polygon points="163.63637,577.1296 168.63637,585.7898 158.63637,585.7898" style="fill:rgb(127.5,127.5,0.0);opacity:1.0" />
<polygon points="170.80807,580.0879 175.80807,588.74817 165.80807,588.74817" style="fill:rgb(127.5,127.5,0.0);opacity:1.0" />
<polygon points="177.9798,544.3711 182.9798,553.0314 172.9798,553.0314" style="fill:rgb(127.5,127.5,0.0);opacity:1.0" />
<polygon points="185.15152,538.4608 190.15152,547.1211 180.15152,547.1211" style="fill:rgb(127.5,127.5,0.0);opacity:1.0" />
<polygon points="192.32323,551.1051 197.32323,559.7653 187.32323,559.7653" style="fill:rgb(127.5,127.5,0.0);opacity:1.0" />
<polygon points="199.49495,548.0368 204.49495,556.6971 194.49495,556.6971" style="fill:rgb(127.5,127.5,0.0);opacity:1.0" />
<polygon points="206.66666,541.23645 211.66666,549.89667 201.66666,549.89667" style="fill:rgb(127.5,127.5,0.0);opacity:1.0" />
<polygon points="213.83838,553.37695 218.83838,562.0372 208.83838,562.0372" style="fill:rgb(127.5,127.5,0.0);opacity:1.0" />
<polygon points="221.0101,534.3906 226.0101,543.0509 216.0101,543.0509" style="fill:rgb(127.5,127.5,0.0);opacity:1.0" />
<polygon points="228.18181,532.80347 233.18181,541.4637 223.18181,541.4637" style="fill:rgb(127.5,127.5,0.0);opacity:1.0" />
<polygon points="235.35353,532.5787 240.35353,541.23895 230.35353,541.23895" style="fill:rgb(127.5,127.5,0.0);opacity:1.0" />
<polygon points="242.52525,531.3972 247.52525,540.0575 237.52525,540.0575" style="fill:rgb(127.5,127.5,0.0);opacity:1.0" />
<polygon points="249.69696,519.95013 254.69696,528.6104 244.69696,528.6104" style="fill:rgb(127.5,127.5,0.0);opacity:1.0" />
<polygon points="256.86868,545.51843 261.86868,554.1787 251.86868,554.1787" style="fill:rgb(127.5,127.5,0.0);opacity:1.0" />
<polygon points="264.0404,541.5594 269.0404,550.21967 259.0404,550.21967" style="fill:rgb(127.5,127.5,0.0);opacity:1.0" />
<polygon points="271.2121,536.496 276.2121,545.15625 266.2121,545.15625" style="fill:rgb(127.5,127.5,0.0);opacity:1.0" />
<polygon points="278.38385,540.6193 283.38385,549.2796 273.38385,549.2796" style="fill:rgb(127.5,127.5,0.0);opacity:1.0" />
<polygon points="285.55554,524.869 290.55554,533.52924 280.55554,533.52924" style="fill:rgb(127.5,127.5,0.0);opacity:1.0" />
<polygon points="292.72726,541.2046 297.72726,549.86487 287.72726,549.86487" style="fill:rgb(127.5,127.5,0.0);opacity:1.0" />
<polygon points="299.899,529.719 304.899,538.3792 294.899,538.3792" style="fill:rgb(127.5,127.5,0.0);opacity:1.0" />
<polygon points="307.0707,526.0765 312.0707,534.73676 302.0707,534.73676" style="fill:rgb(127.5,127.5,0.0);opacity:1.0" />
<polygon points="314.24243,526.3887 319.24243,535.04895 309.24243,535.04895" style="fill:rgb(127.5,127.5,0.0);opacity:1.0" />
<polygon points="321.41412,489.70804 326.41412,498.3683 316.41412,498.3683" style="fill:rgb(127.5,127.5,0.0);opacity:1.0" />
<polygon points="328.58588,502.21008 333.58588,510.87036 323.58588,510.87036" style="fill:rgb(127.5,127.5,0.0);opacity:1.0" />
<polygon points="335.75757,489.31793 340.75757,497.9782 330.75757,497.9782" style="fill:rgb(127.5,127.5,0.0);opacity:1.0" />
<polygon points="342.9293,510.10944 347.9293,518.76965 337.9293,518.76965" style="fill:rgb(127.5,127.5,0.0);opacity:1.0" />
<polygon points="350.101,513.37756 355.101,522.03784 345.101,522.03784" style="fill:rgb(127.5,127.5,0.0);opacity:1.0" />
<polygon points="357.27274,508.51035 362.27274,517.1706 352.27274,517.1706" style="fill:rgb(127.5,127.5,0.0);opacity:1.0" />
<polygon points="364.44443,518.16846 369.44443,526.82874 359.44443,526.82874" style="fill:rgb(127.5,127.5,0.0);opacity:1.0" />
<polygon points="371.61615,507.23483 376.61615,515.8951 366.61615,515.8951" style="fill:rgb(127.5,127.5,0.0);opacity:1.0" />
<polygon points="378.78787,503.9135 383.78787,512.5737 373.78787,512.5737" style="fill:rgb(127.5,127.5,0.0);opacity:1.0" />
<polygon points="385.9596,502.63538 390.9596,511.29565 380.9596,511.29565" style="fill:rgb(127.5,127.5,0.0);opacity:1.0" />
<polygon points="393.13132,486.39874 398.13132,495.059 388.13132,495.059" style="fill:rgb(127.5,127.5,0.0);opacity:1.0" />
<polygon points="400.30304,498.56946 405.30304,507.2297 395.30304,507.2297" style="fill:rgb(127.5,127.5,0.0);opacity:1.0" />
<polygon points="407.47473,489.71893 412.47473,498.3792 402.47473,498.3792" style="fill:rgb(127.5,127.5,0.0);opacity:1.0" />
<polygon points="414.64645,458.7055 419.64645,467.36575 409.64645,467.36575" style="fill:rgb(127.5,127.5,0.0);opacity:1.0" />
<polygon points="421.81818,480.18307 426.81818,488.84332 416.81818,488.84332" style="fill:rgb(127.5,127.5,0.0);opacity:1.0" />
<polygon points="428.9899,467.2615 433.9899,475.92175 423.9899,475.92175" style="fill:rgb(127.5,127.5,0.0);opacity:1.0" />
<polygon points="436.16162,492.12662 441.16162,500.78687 431.16162,500.78687" style="fill:rgb(127.5,127.5,0.0);opacity:1.0" />
<polygon points="443.33334,450.18524 448.33334,458.84546 438.33334,458.84546" style="fill:rgb(127.5,127.5,0.0);opacity:1.0" />
<polygon points="450.50504,466.46765 455.50504,475.1279 445.50504,475.1279" style="fill:rgb(127.5,127.5,0.0);opacity:1.0" />
<polygon points="457.67676,471.56 462.67676,480.22025 452.67676,480.22025" style="fill:rgb(127.5,127.5,0.0);opacity:1.0" />
<polygon points="464.84848,449.39984 469.84848,458.0601 459.84848,458.0601" style="fill:rgb(127.5,127.5,0.0);opacity:1.0" />
<polygon points="472.0202,449.2445 477.0202,457.90475 467.0202,457.90475" style="fill:rgb(127.5,127.5,0.0);opacity:1.0" />
<polygon points="479.19193,469.62006 484.19193,478.28033 474.19193,478.28033" style="fill:rgb(127.5,127.5,0.0);opacity:1.0" />
<polygon points="486.36365,447.9532 491.36365,456.61346 481.36365,456.61346" style="fill:rgb(127.5,127.5,0.0);opacity:1.0" />
<polygon points="493.53534,478.7868 498.53534,487.44705 488.53534,487.44705" style="fill:rgb(127.5,127.5,0.0);opacity:1.0" />
<polygon points="500.70706,455.59882 505.70706,464.2591 495.70706,464.2591" style="fill:rgb(127.5,127.5,0.0);opacity:1.0" />
<polygon points="507.87878,468.2599 512.8788,476.92014 502.87878,476.92014" style="fill:rgb(127.5,127.5,0.0);opacity:1.0" />
<polygon points="515.05054,468.6842 520.05054,477.34448 510.0505,477.34448" style="fill:rgb(127.5,127.5,0.0);opacity:1.0" />
<polygon points="522.2222,467.6583 527.2222,476.31854 517.2222,476.31854" style="fill:rgb(127.5,127.5,0.0);opacity:1.0" />
<polygon points="529.3939,436.90775 534.3939,445.568 524.3939,445.568" style="fill:rgb(127.5,127.5,0.0);opacity:1.0" />
<polygon points="536.5657,420.1496 541.5657,428.80984 531.5657,428.80984" style="fill:rgb(127.5,127.5,0.0);opacity:1.0" />
<polygon points="543.73737,449.7487 548.73737,458.40894 538.73737,458.40894" style="fill:rgb(127.5,127.5,0.0);opacity:1.0" />
<polygon points="550.90906,443.05695 555.90906,451.71716 545.90906,451.71716" style="fill:rgb(127.5,127.5,0.0);opacity:1.0" />
<polygon points="558.0808,456.92023 563.0808,465.58047 553.0808,465.58047" style="fill:rgb(127.5,127.5,0.0);opacity:1.0" />
<polygon points="565.25256,437.07016 570.25256,445.7304 560.25256,445.7304" style="fill:rgb(127.5,127.5,0.0);opacity:1.0" />
<polygon points="572.4242,432.5305 577.4242,441.19073 567.4242,441.19073" style="fill:rgb(127.5,127.5,0.0);opacity:1.0" />
<polygon points="579.59595,450.25006 584.59595,458.9103 574.59595,458.9103" style="fill:rgb(127.5,127.5,0.0);opacity:1.0" />
<polygon points="586.7677,427.8171 591.7677,436.47736 581.7677,436.47736" style="fill:rgb(127.5,127.5,0.0);opacity:1.0" />
<polygon points="593.9394,409.97192 598.9394,418.6322 588.9394,418.6322" style="fill:rgb(127.5,127.5,0.0);opacity:1.0" />
<polygon points="601.1111,411.70013 606.1111,420.3604 596.1111,420.3604" style="fill:rgb(127.5,127.5,0.0);opacity:1.0" />
<polygon points="608.28284,429.89395 613.28284,438.5542 603.28284,438.5542" style="fill:rgb(127.5,127.5,0.0);opacity:1.0" />
<polygon points="615.4545,405.531 620.4545,414.19125 610.4545,414.19125" style="fill:rgb(127.5,127.5,0.0);opacity:1.0" />
<polygon points="622.6263,435.15683 627.6263,443.81708 617.6263,443.81708" style="fill:rgb(127.5,127.5,0.0);opacity:1.0" />
<polygon points="629.798,393.90863 634.798,402.56888 624.798,402.56888" style="fill:rgb(127.5,127.5,0.0);opacity:1.0" />
<polygon points="636.96967,394.5263 641.96967,403.18655 631.96967,403.18655" style="fill:rgb(127.5,127.5,0.0);opacity:1.0" />
<polygon points="644.1414,389.55444 649.1414,398.21466 639.1414,398.21466" style="fill:rgb(127.5,127.5,0.0);opacity:1.0" />
<polygon points="651.3131,389.62695 656.3131,398.28717 646.3131,398.28717" style="fill:rgb(127.5,127.5,0.0);opacity:1.0" />
<polygon points="658.48486,409.54327 663.48486,418.20355 653.48486,418.20355" style="fill:rgb(127.5,127.5,0.0);opacity:1.0" />
<polygon points="665.65656,408.0221 670.65656,416.68234 660.65656,416.68234" style="fill:rgb(127.5,127.5,0.0);opacity:1.0" />
<polygon points="672.8283,402.8501 677.8283,411.5103 667.8283,411.5103" style="fill:rgb(127.5,127.5,0.0);opacity:1.0" />
<polygon points="680.0,414.82275 685.0,423.483 675.0,423.483" style="fill:rgb(127.5,127.5,0.0);opacity:1.0" />
<polygon points="687.1717,385.08743 692.1717,393.74768 682.1717,393.74768" style="fill:rgb(127.5,127.5,0.0);opacity:1.0" />
<polygon points="694.34344,403.73367 699.34344,412.39392 689.34344,412.39392" style="fill:rgb(127.5,127.5,0.0);opacity:1.0" />
<polygon points="701.51514,399.0273 706.51514,407.68756 696.51514,407.68756" style="fill:rgb(127.5,127.5,0.0);opacity:1.0" />
<polygon points="708.6869,407.66968 713.6869,416.3299 703.6869,416.3299" style="fill:rgb(127.5,127.5,0.0);opacity:1.0" />
<polygon points="715.8586,408.08173 720.8586,416.74197 710.8586,416.74197" style="fill:rgb(127.5,127.5,0.0);opacity:1.0" />
<polygon points="723.0303,372.4895 728.0303,381.14978 718.0303,381.14978" style="fill:rgb(127.5,127.5,0.0);opacity:1.0" />
<polygon points="730.202,381.0692 735.202,389.72946 725.202,389.72946" style="fill:rgb(127.5,127.5,0.0);opacity:1.0" />
<polygon points="737.3737,369.3348 742.3737,377.99506 732.3737,377.99506" style="fill:rgb(127.5,127.5,0.0);opacity:1.0" />
<polygon points="744.5455,356.81958 749.5455,365.4798 739.5455,365.4798" style="fill:rgb(127.5,127.5,0.0);opacity:1.0" />
<polygon points="751.71716,358.03717 756.71716,366.69745 746.71716,366.69745" style="fill:rgb(127.5,127.5,0.0);opacity:1.0" />
<polygon points="758.8889,371.02692 763.8889,379.68716 753.8889,379.68716" style="fill:rgb(127.5,127.5,0.0);opacity:1.0" />
<polygon points="766.0606,387.70847 771.0606,396.3687 761.0606,396.3687" style="fill:rgb(127.5,127.5,0.0);opacity:1.0" />
<polygon points="773.2323,374.6126 778.2323,383.27283 768.2323,383.27283" style="fill:rgb(127.5,127.5,0.0);opacity:1.0" />
<polygon points="780.40405,343.6936 785.40405,352.35388 775.40405,352.35388" style="fill:rgb(127.5,127.5,0.0);opacity:1.0" />
<polygon points="787.57574,359.414 792.57574,368.07422 782.57574,368.07422" style="fill:rgb(127.5,127.5,0.0);opacity:1.0" />
<polygon points="794.7475,351.8576 799.7475,360.51785 789.7475,360.51785" style="fill:rgb(127.5,127.5,0.0);opacity:1.0" />
<polygon points="801.9192,372.9245 806.9192,381.58478 796.9192,381.58478" style="fill:rgb(127.5,127.5,0.0);opacity:1.0" />
<polygon points="809.0909,344.86816 814.0909,353.5284 804.0909,353.5284" style="fill:rgb(127.5,127.5,0.0);opacity:1.0" />
<text x="456.15" y="58.5" stroke="#000000" stroke-width="1.2" transform="rotate(-0.0,456.15,58.5)">SCATTER PLOT</text>
<text x="476.8" y="635.4" stroke="#000000" stroke-width="1.2" transform="rotate(-0.0,476.8,635.4)">X-AXIS</text>
<text x="45.0" y="376.6" stroke="#000000" stroke-width="1.2" transform="rotate(-90.0,45.0,376.6)">Y-AXIS</text>
<rect x="120.0" y="86.0" width="67.880005" height="40.0" style="fill:rgb(255.0,255.0,255.0);stroke-width:2.0;stroke:rgb(0.0,0.0,0.0);opacity:0.7" />
<circle cx="132.0" cy="98.0" r="4.0"  style="fill:rgb(214.2,214.2,0.0);opacity:1.0" />
<text x="144.0" y="102.0" stroke="#000000" stroke-width="1.2" transform="rotate(-0.0,144.0,102.0)">Plot 1</text>
<polygon points="132.0,110.0 135.4641,116.0 128.5359,116.0" style="fill:rgb(127.5,127.5,0.0);opacity:1.0" />
<text x="144.0" y="118.0" stroke="#000000" stroke-width="1.2" transform="rotate(-0.0,144.0,118.0)">Plot 2</text>
</svg>