<svg height="660.0" width="1000.0" version="4.0" xmlns="http://www.w3.org/2000/svg" xmlns:xlink= "http://www.w3.org/1999/xlink">
<rect width="100%" height="100%" fill="white"/>
<rect x="100.0" y="66.0" width="800.0" height="528.0" style="fill:rgb(255,255,255);stroke-width:2.0;stroke:rgb(0,0,0);opacity:1" />
<line x1="163.63637" y1="597.0" x2="163.63637" y2="594.0" style="stroke:rgb(0.0,0.0,0.0);stroke-width:2.0;opacity:1.0;stroke-linecap:round" />
<text x="154.09636" y="609.0" stroke="#000000" stroke-width="0.7" transform="rotate(-0.0,154.09636,609.0)">10.0</text>
<line x1="235.35353" y1="597.0" x2="235.35353" y2="594.0" style="stroke:rgb(0.0,0.0,0.0);stroke-width:2.0;opacity:1.0;stroke-linecap:round" />
<text x="225.49353" y="609.0" stroke="#000000" stroke-width="0.7" transform="rotate(-0.0,225.49353,609.0)">20.0</text>
<line x1="307.0707" y1="597.0" x2="307.0707" y2="594.0" style="stroke:rgb(0.0,0.0,0.0);stroke-width:2.0;opacity:1.0;stroke-linecap:round" />
<text x="297.2107" y="609.0" stroke="#000000" stroke-width="0.7" transform="rotate(-0.0,297.2107,609.0)">30.0</text>
<line x1="378.78787" y1="597.0" x2="378.78787" y2="594.0" style="stroke:rgb(0.0,0.0,0.0);stroke-width:2.0;opacity:1.0;stroke-linecap:round" />
<text x="368.92786" y="609.0" stroke="#000000" stroke-width="0.7" transform="rotate(-0.0,368.92786,609.0)">40.0</text>
<line x1="450.50504" y1="597.0" x2="450.50504" y2="594.0" style="stroke:rgb(0.0,0.0,0.0);stroke-width:2.0;opacity:1.0;stroke-linecap:round" />
<text x="440.64502" y="609.0" stroke="#000000" stroke-width="0.7" transform="rotate(-0.0,440.64502,609.0)">49.0</text>
<line x1="522.22217" y1="597.0" x2="522.22217" y2="594.0" style="stroke:rgb(0.0,0.0,0.0);stroke-width:2.0;opacity:1.0;stroke-linecap:round" />
<text x="512.3622" y="609.0" stroke="#000000" stroke-width="0.7" transform="rotate(-0.0,512.3622,609.0)">59.0</text>
<line x1="593.93933" y1="597.0" x2="593.93933" y2="594.0" style="stroke:rgb(0.0,0.0,0.0);stroke-width:2.0;opacity:1.0;stroke-linecap:round" />
<text x="584.07935" y="609.0" stroke="#000000" stroke-width="0.7" transform="rotate(-0.0,584.07935,609.0)">69.0</text>
<line x1="665.65656" y1="597.0" x2="665.65656" y2="594.0" style="stroke:rgb(0.0,0.0,0.0);stroke-width:2.0;opacity:1.0;stroke-linecap:round" />
<text x="655.7966" y="609.0" stroke="#000000" stroke-width="0.7" transform="rotate(-0.0,655.7966,609.0)">80.0</text>
<line x1="737.3737" y1="597.0" x2="737.3737" y2="594.0" style="stroke:rgb(0.0,0.0,0.0);stroke-width:2.0;opacity:1.0;stroke-linecap:round" />
<text x="727.51373" y="609.0" stroke="#000000" stroke-width="0.7" transform="rotate(-0.0,727.51373,609.0)">90.0</text>
<line x1="809.0909" y1="597.0" x2="809.0909" y2="594.0" style="stroke:rgb(0.0,0.0,0.0);stroke-width:2.0;opacity:1.0;stroke-linecap:round" />
<text x="799.2309" y="609.0" stroke="#000000" stroke-width="0.7" transform="rotate(-0.0,799.2309,609.0)">99.0</text>
<line x1="880.80804" y1="597.0" x2="880.80804" y2="594.0" style="stroke:rgb(0.0,0.0,0.0);stroke-width:2.0;opacity:1.0;stroke-linecap:round" />
<text x="869.82806" y="609.0" stroke="#000000" stroke-width="0.7" transform="rotate(-0.0,869.82806,609.0)">109.0</text>
<line x1="97.0" y1="583.4073" x2="100.0" y2="583.4073" style="stroke:rgb(0.0,0.0,0.0);stroke-width:2.0;opacity:1.0;stroke-linecap:round" />
<text x="62.16" y="587.4073" stroke="#000000" stroke-width="0.7" transform="rotate(-0.0,62.16,587.4073)">0.0</text>
<line x1="97.0" y1="362.6521" x2="100.0" y2="362.6521" style="stroke:rgb(0.0,0.0,0.0);stroke-width:2.0;opacity:1.0;stroke-linecap:round" />
<text x="57.04" y="366.6521" stroke="#000000" stroke-width="0.7" transform="rotate(-0.0,57.04,366.6521)">100.0</text>
<line x1="97.0" y1="141.89691" x2="100.0" y2="141.89691" style="stroke:rgb(0.0,0.0,0.0);stroke-width:2.0;opacity:1.0;stroke-linecap:round" />
<text x="56.4" y="145.89691" stroke="#000000" stroke-width="0.7" transform="rotate(-0.0,56.4,145.89691)">200.0</text>
<circle cx="106.26263" cy="592.8765" r="5.0"  style="fill:rgb(214.2,214.2,0.0);opacity:1.0" />
<circle cx="113.43434" cy="560.85144" r="5.0"  style="fill:rgb(199.66658,199.66658,17.30169);opacity:1.0" />
<circle cx="120.606064" cy="582.00244" r="5.0"  style="fill:rgb(209.26518,209.26518,5.87478);opacity:1.0" />
<circle cx="127.77778" cy="547.3535" r="5.0"  style="fill:rgb(193.54102,193.54102,24.594013);opacity:1.0" />
<circle cx="134.9495" cy="555.33795" r="5.0"  style="fill:rgb(197.16449,197.16449,20.280365);opacity:1.0" />
<circle cx="142.12122" cy="553.7305" r="5.0"  style="fill:rgb(196.43501,196.43501,21.148785);opacity:1.0" />
<circle cx="149.29294" cy="549.51074" r="5.0"  style="fill:rgb(194.52002,194.52002,23.428555);opacity:1.0" />
<circle cx="156.46465" cy="546.3291" r="5.0"  style="fill:rgb(193.07614,193.07614,25.147446);opacity:1.0" />
<circle cx="163.63637" cy="554.22266" r="5.0"  style="fill:rgb(196.65833,196.65833,20.88293);opacity:1.0" />
<circle cx="170.80807" cy="537.732" r="5.0"  style="fill:rgb(189.17465,189.17465,29.792057);opacity:1.0" />
<circle cx="177.9798" cy="536.4496" r="5.0"  style="fill:rgb(188.5927,188.5927,30.484886);opacity:1.0" />
<circle cx="185.15152" cy="541.4926" r="5.0"  style="fill:rgb(190.88126,190.88126,27.760391);opacity:1.0" />
<circle cx="192.32323" cy="524.6963" r="5.0"  style="fill:rgb(183.2589,183.2589,36.83465);opacity:1.0" />
<circle cx="199.49495" cy="516.68616" r="5.0"  style="fill:rgb(179.62376,179.62376,41.162186);opacity:1.0" />
<circle cx="206.66666" cy="516.9791" r="5.0"  style="fill:rgb(179.75671,179.75671,41.00391);opacity:1.0" />
<circle cx="213.83838" cy="517.44006" r="5.0"  style="fill:rgb(179.96591,179.96591,40.75486);opacity:1.0" />
<circle cx="221.0101" cy="487.25757" r="5.0"  style="fill:rgb(166.26868,166.26868,57.06109);opacity:1.0" />
<circle cx="228.18181" cy="480.8468" r="5.0"  style="fill:rgb(163.3594,163.3594,60.52453);opacity:1.0" />
<circle cx="235.35353" cy="492.82806" r="5.0"  style="fill:rgb(168.79665,168.79665,54.051617);opacity:1.0" />
<circle cx="242.52525" cy="469.51398" r="5.0"  style="fill:rgb(158.2164,158.2164,66.64714);opacity:1.0" />
<circle cx="249.69696" cy="489.7155" r="5.0"  style="fill:rgb(167.38414,167.38414,55.733173);opacity:1.0" />
<circle cx="256.86868" cy="482.7259" r="5.0"  style="fill:rgb(164.21216,164.21216,59.509342);opacity:1.0" />
<circle cx="264.0404" cy="476.22668" r="5.0"  style="fill:rgb(161.26271,161.26271,63.02058);opacity:1.0" />
<circle cx="271.2121" cy="480.87268" r="5.0"  style="fill:rgb(163.37112,163.37112,60.510548);opacity:1.0" />
<circle cx="278.38385" cy="449.68854" r="5.0"  style="fill:rgb(149.21935,149.21935,77.357925);opacity:1.0" />
<circle cx="285.55554" cy="468.25897" r="5.0"  style="fill:rgb(157.64687,157.64687,67.32516);opacity:1.0" />
<circle cx="292.72726" cy="474.9879" r="5.0"  style="fill:rgb(160.70053,160.70053,63.689827);opacity:1.0" />
<circle cx="299.899" cy="445.50165" r="5.0"  style="fill:rgb(147.31927,147.31927,79.6199);opacity:1.0" />
<circle cx="307.0707" cy="443.16776" r="5.0"  style="fill:rgb(146.26015,146.26015,80.8808);opacity:1.0" />
<circle cx="314.24243" cy="465.73822" r="5.0"  style="fill:rgb(156.50291,156.50291,68.687004);opacity:1.0" />
<circle cx="321.41412" cy="441.607" r="5.0"  style="fill:rgb(145.55183,145.55183,81.724014);opacity:1.0" />
<circle cx="328.58588" cy="416.72125" r="5.0"  style="fill:rgb(134.25833,134.25833,95.16865);opacity:1.0" />
<circle cx="335.75757" cy="443.82306" r="5.0"  style="fill:rgb(146.55751,146.55751,80.526764);opacity:1.0" />
<circle cx="342.9293" cy="444.73517" r="5.0"  style="fill:rgb(146.97145,146.97145,80.03399);opacity:1.0" />
<circle cx="350.101" cy="418.28802" r="5.0"  style="fill:rgb(134.96936,134.96936,94.32219);opacity:1.0" />
<circle cx="357.27274" cy="414.5931" r="5.0"  style="fill:rgb(133.29256,133.29256,96.318375);opacity:1.0" />
<circle cx="364.44443" cy="394.8006" r="5.0"  style="fill:rgb(124.31046,124.31046,107.01135);opacity:1.0" />
<circle cx="371.61615" cy="422.65567" r="5.0"  style="fill:rgb(136.95146,136.95146,91.96254);opacity:1.0" />
<circle cx="378.78787" cy="402.44418" r="5.0"  style="fill:rgb(127.779205,127.779205,102.88188);opacity:1.0" />
<circle cx="385.9596" cy="385.6932" r="5.0"  style="fill:rgb(120.17741,120.17741,111.93166);opacity:1.0" />
<circle cx="393.13132" cy="411.24744" r="5.0"  style="fill:rgb(131.77425,131.77425,98.1259);opacity:1.0" />
<circle cx="400.30304" cy="389.08502" r="5.0"  style="fill:rgb(121.71666,121.71666,110.09921);opacity:1.0" />
<circle cx="407.47473" cy="377.81305" r="5.0"  style="fill:rgb(116.60128,116.60128,116.18895);opacity:1.0" />
<circle cx="414.64645" cy="367.6919" r="5.0"  style="fill:rgb(112.00816,112.00816,121.65694);opacity:1.0" />
<circle cx="421.81818" cy="359.86465" r="5.0"  style="fill:rgb(108.456055,108.456055,125.88565);opacity:1.0" />
<circle cx="428.9899" cy="383.11157" r="5.0"  style="fill:rgb(119.00582,119.00582,113.32639);opacity:1.0" />
<circle cx="436.16162" cy="368.1571" r="5.0"  style="fill:rgb(112.21928,112.21928,121.405624);opacity:1.0" />
<circle cx="443.33334" cy="377.82062" r="5.0"  style="fill:rgb(116.60471,116.60471,116.18486);opacity:1.0" />
<circle cx="450.50504" cy="374.6819" r="5.0"  style="fill:rgb(115.1803,115.1803,117.88058);opacity:1.0" />
<circle cx="457.67676" cy="347.11157" r="5.0"  style="fill:rgb(102.668526,102.668526,132.77556);opacity:1.0" />
<circle cx="464.84848" cy="362.902" r="5.0"  style="fill:rgb(109.83445,109.83445,124.244705);opacity:1.0" />
<circle cx="472.0202" cy="366.32373" r="5.0"  style="fill:rgb(111.387276,111.387276,122.396095);opacity:1.0" />
<circle cx="479.19193" cy="363.15186" r="5.0"  style="fill:rgb(109.94782,109.94782,124.109726);opacity:1.0" />
<circle cx="486.36365" cy="350.3953" r="5.0"  style="fill:rgb(104.15873,104.15873,131.00151);opacity:1.0" />
<circle cx="493.53534" cy="343.09882" r="5.0"  style="fill:rgb(100.84749,100.84749,134.94347);opacity:1.0" />
<circle cx="500.70706" cy="318.3652" r="5.0"  style="fill:rgb(89.62304,89.62304,148.30591);opacity:1.0" />
<circle cx="507.87878" cy="308.78488" r="5.0"  style="fill:rgb(85.27536,85.27536,153.48172);opacity:1.0" />
<circle cx="515.05054" cy="329.07736" r="5.0"  style="fill:rgb(94.48435,94.48435,142.51862);opacity:1.0" />
<circle cx="522.2222" cy="316.04633" r="5.0"  style="fill:rgb(88.5707,88.5707,149.55869);opacity:1.0" />
<circle cx="529.3939" cy="315.03537" r="5.0"  style="fill:rgb(88.111916,88.111916,150.10486);opacity:1.0" />
<circle cx="536.5657" cy="307.00864" r="5.0"  style="fill:rgb(84.46927,84.46927,154.44135);opacity:1.0" />
<circle cx="543.73737" cy="318.21194" r="5.0"  style="fill:rgb(89.55348,89.55348,148.38872);opacity:1.0" />
<circle cx="550.90906" cy="296.57413" r="5.0"  style="fill:rgb(79.73395,79.73395,160.07863);opacity:1.0" />
<circle cx="558.0808" cy="283.7104" r="5.0"  style="fill:rgb(73.89621,73.89621,167.02832);opacity:1.0" />
<circle cx="565.25256" cy="277.3441" r="5.0"  style="fill:rgb(71.007095,71.007095,170.46774);opacity:1.0" />
<circle cx="572.4242" cy="266.76373" r="5.0"  style="fill:rgb(66.20559,66.20559,176.18382);opacity:1.0" />
<circle cx="579.59595" cy="280.4495" r="5.0"  style="fill:rgb(72.416374,72.416374,168.79002);opacity:1.0" />
<circle cx="586.7677" cy="266.02267" r="5.0"  style="fill:rgb(65.869286,65.869286,176.58418);opacity:1.0" />
<circle cx="593.9394" cy="293.26398" r="5.0"  style="fill:rgb(78.23176,78.23176,161.86696);opacity:1.0" />
<circle cx="601.1111" cy="251.37479" r="5.0"  style="fill:rgb(59.221878,59.221878,184.49776);opacity:1.0" />
<circle cx="608.28284" cy="253.2598" r="5.0"  style="fill:rgb(60.077328,60.077328,183.47937);opacity:1.0" />
<circle cx="615.4545" cy="271.77087" r="5.0"  style="fill:rgb(68.4779,68.4779,173.47868);opacity:1.0" />
<circle cx="622.6263" cy="257.46448" r="5.0"  style="fill:rgb(61.985466,61.985466,181.20778);opacity:1.0" />
<circle cx="629.798" cy="247.50656" r="5.0"  style="fill:rgb(57.466423,57.466423,186.58759);opacity:1.0" />
<circle cx="636.96967" cy="239.79767" r="5.0"  style="fill:rgb(53.968025,53.968025,190.75235);opacity:1.0" />
<circle cx="644.1414" cy="253.39441" r="5.0"  style="fill:rgb(60.138405,60.138405,183.40666);opacity:1.0" />
<circle cx="651.3131" cy="229.9502" r="5.0"  style="fill:rgb(49.499107,49.499107,196.0725);opacity:1.0" />
<circle cx="658.48486" cy="237.65149" r="5.0"  style="fill:rgb(52.994057,52.994057,191.91183);opacity:1.0" />
<circle cx="665.65656" cy="242.37448" r="5.0"  style="fill:rgb(55.137424,55.137424,189.36021);opacity:1.0" />
<circle cx="672.8283" cy="211.46716" r="5.0"  style="fill:rgb(41.111263,41.111263,206.05801);opacity:1.0" />
<circle cx="680.0" cy="231.87845" r="5.0"  style="fill:rgb(50.37418,50.37418,195.03073);opacity:1.0" />
<circle cx="687.1717" cy="232.4082" r="5.0"  style="fill:rgb(50.614586,50.614586,194.74454);opacity:1.0" />
<circle cx="694.34344" cy="228.45667" r="5.0"  style="fill:rgb(48.82133,48.82133,196.87936);opacity:1.0" />
<circle cx="701.51514" cy="217.44919" r="5.0"  style="fill:rgb(43.825977,43.825977,202.82622);opacity:1.0" />
<circle cx="708.6869" cy="220.31213" r="5.0"  style="fill:rgb(45.125233,45.125233,201.27948);opacity:1.0" />
<circle cx="715.8586" cy="190.95074" r="5.0"  style="fill:rgb(31.800636,31.800636,217.1421);opacity:1.0" />
<circle cx="723.0303" cy="193.7262" r="5.0"  style="fill:rgb(33.06017,33.06017,215.64265);opacity:1.0" />
<circle cx="730.202" cy="176.67035" r="5.0"  style="fill:rgb(25.319998,25.319998,224.85715);opacity:1.0" />
<circle cx="737.3737" cy="208.01953" r="5.0"  style="fill:rgb(39.54668,39.54668,207.92062);opacity:1.0" />
<circle cx="744.5455" cy="168.76276" r="5.0"  style="fill:rgb(21.731426,21.731426,229.12926);opacity:1.0" />
<circle cx="751.71716" cy="191.04755" r="5.0"  style="fill:rgb(31.844555,31.844555,217.08981);opacity:1.0" />
<circle cx="758.8889" cy="163.44345" r="5.0"  style="fill:rgb(19.317446,19.317446,232.00304);opacity:1.0" />
<circle cx="766.0606" cy="169.3451" r="5.0"  style="fill:rgb(21.995695,21.995695,228.81465);opacity:1.0" />
<circle cx="773.2323" cy="156.43533" r="5.0"  style="fill:rgb(16.13707,16.13707,235.7892);opacity:1.0" />
<circle cx="780.40405" cy="161.03891" r="5.0"  style="fill:rgb(18.226234,18.226234,233.3021);opacity:1.0" />
<circle cx="787.57574" cy="158.27838" r="5.0"  style="fill:rgb(16.973469,16.973469,234.79349);opacity:1.0" />
<circle cx="794.7475" cy="171.3927" r="5.0"  style="fill:rgb(22.924927,22.924927,227.70842);opacity:1.0" />
<circle cx="801.9192" cy="142.64734" r="5.0"  style="fill:rgb(9.879871,9.879871,243.23825);opacity:1.0" />
<circle cx="809.0909" cy="120.876526" r="5.0"  style="fill:rgb(0.0,0.0,255.0);opacity:1.0" />
<polygon points="106.26263,563.64526 104.79317,566.62274 101.50735,567.10016 103.88499,569.4178 103.3237,572.69037 106.26263,571.14526 109.20155,572.69037 108.64027,569.4178 111.017914,567.10016 107.73209,566.62274 106.26263,563.64526 104.79317,566.62274 " style="fill:rgb(127.5,127.5,0.0);opacity:1.0" />
<polygon points="113.43434,570.95105 111.96488,573.92847 108.67906,574.40594 111.0567,576.7236 110.495415,579.9961 113.43434,578.45105 116.37327,579.9961 115.81198,576.7236 118.18963,574.40594 114.90381,573.92847 113.43435,570.95105 111.96488,573.92847 " style="fill:rgb(127.5,127.5,0.0);opacity:1.0" />
<polygon points="120.606064,549.2634 119.1366,552.2409 115.85078,552.7183 118.228424,555.03595 117.66713,558.30853 120.60606,556.7634 123.54498,558.30853 122.9837,555.03595 125.36134,552.7183 122.07552,552.2409 120.606064,549.2634 119.1366,552.2409 " style="fill:rgb(127.5,127.5,0.0);opacity:1.0" />
<polygon points="127.77778,564.4515 126.30832,567.42896 123.02249,567.90643 125.40014,570.22406 124.83885,573.4966 127.77778,571.9515 130.7167,573.4966 130.15543,570.22406 132.53307,567.90643 129.24724,567.42896 127.77778,564.4515 126.30832,567.42896 " style="fill:rgb(127.5,127.5,0.0);opacity:1.0" />
<polygon points="134.9495,576.82025 133.48004,579.7977 130.19421,580.27515 132.57185,582.5928 132.01057,585.86536 134.9495,584.32025 137.88843,585.86536 137.32713,582.5928 139.70477,580.27515 136.41896,579.7977 134.9495,576.82025 133.48004,579.7977 " style="fill:rgb(127.5,127.5,0.0);opacity:1.0" />
<polygon points="142.12122,561.5874 140.65175,564.5649 137.36594,565.0423 139.74356,567.3599 139.18228,570.6325 142.12122,569.0874 145.06013,570.6325 144.49886,567.3599 146.8765,565.0423 143.59067,564.5649 142.12122,561.5874 140.65175,564.5649 " style="fill:rgb(127.5,127.5,0.0);opacity:1.0" />
<polygon points="149.29294,575.3888 147.82347,578.3663 144.53764,578.84375 146.91528,581.1614 146.354,584.4339 149.29294,582.8888 152.23186,584.4339 151.67058,581.1614 154.04822,578.84375 150.76239,578.3663 149.29294,575.3888 147.82347,578.3663 " style="fill:rgb(127.5,127.5,0.0);opacity:1.0" />
<polygon points="156.46465,544.9121 154.99518,547.8896 151.70937,548.36707 154.087,550.6847 153.52573,553.9572 156.46465,552.4121 159.40358,553.9572 158.84229,550.6847 161.21994,548.36707 157.93411,547.8896 156.46465,544.9121 154.9952,547.8896 " style="fill:rgb(127.5,127.5,0.0);opacity:1.0" />
<polygon points="163.63637,551.2182 162.1669,554.1957 158.88107,554.6731 161.25873,556.9907 160.69743,560.2633 163.63637,558.7182 166.57529,560.2633 166.014,556.9907 168.39165,554.6731 165.10583,554.1957 163.63637,551.2182 162.1669,554.1957 " style="fill:rgb(127.5,127.5,0.0);opacity:1.0" />
<polygon points="170.80807,565.18884 169.33862,568.16626 166.0528,568.64374 168.43044,570.96136 167.86914,574.2339 170.80807,572.68884 173.747,574.2339 173.18571,570.96136 175.56335,568.64374 172.27753,568.16626 170.80807,565.18884 169.33862,568.16626 " style="fill:rgb(127.5,127.5,0.0);opacity:1.0" />
<polygon points="177.9798,538.03577 176.51035,541.0132 173.22452,541.49066 175.60216,543.8083 175.04086,547.0808 177.9798,545.53577 180.91872,547.0808 180.35744,543.8083 182.73508,541.49066 179.44925,541.0132 177.9798,538.03577 176.51035,541.0132 " style="fill:rgb(127.5,127.5,0.0);opacity:1.0" />
<polygon points="185.15152,534.80444 183.68205,537.78186 180.39624,538.25934 182.77386,540.57697 182.21259,543.8495 185.15152,542.30444 188.09044,543.8495 187.52914,540.57697 189.9068,538.25934 186.62097,537.78186 185.15152,534.80444 183.68205,537.78186 " style="fill:rgb(127.5,127.5,0.0);opacity:1.0" />
<polygon points="192.32323,562.96893 190.85376,565.94635 187.56795,566.4238 189.94559,568.74146 189.38431,572.014 192.32323,570.46893 195.26215,572.014 194.70087,568.74146 197.0785,566.4238 193.7927,565.9464 192.32324,562.96893 190.85376,565.9464 " style="fill:rgb(127.5,127.5,0.0);opacity:1.0" />
<polygon points="199.49495,540.12744 198.02548,543.1049 194.73967,543.5824 197.11731,545.9 196.55603,549.17255 199.49495,547.62744 202.43387,549.17255 201.87259,545.9 204.25023,543.5824 200.96442,543.1049 199.49496,540.12744 198.02548,543.1049 " style="fill:rgb(127.5,127.5,0.0);opacity:1.0" />
<polygon points="206.66666,563.66174 205.1972,566.6392 201.91138,567.1167 204.28903,569.4343 203.72774,572.70685 206.66666,571.16174 209.60559,572.70685 209.04431,569.4343 211.42194,567.1167 208.13612,566.6392 206.66666,563.66174 205.1972,566.6392 " style="fill:rgb(127.5,127.5,0.0);opacity:1.0" />
<polygon points="213.83838,562.65424 212.36893,565.6317 209.0831,566.10913 211.46074,568.42676 210.89944,571.69934 213.83838,570.15424 216.7773,571.69934 216.21602,568.42676 218.59366,566.10913 215.30783,565.6317 213.83838,562.65424 212.36893,565.6317 " style="fill:rgb(127.5,127.5,0.0);opacity:1.0" />
<polygon points="221.0101,519.38477 219.54065,522.3622 216.25482,522.83966 218.63246,525.1573 218.07118,528.4298 221.0101,526.88477 223.94904,528.4298 223.38774,525.15735 225.76538,522.83966 222.47958,522.3622 221.0101,519.38477 219.54065,522.3622 " style="fill:rgb(127.5,127.5,0.0);opacity:1.0" />
<polygon points="228.18181,552.94464 226.71234,555.9221 223.42653,556.39954 225.80417,558.71716 225.24289,561.98975 228.18181,560.44464 231.12073,561.98975 230.55945,558.71716 232.93709,556.39954 229.65128,555.9221 228.18181,552.94464 226.71234,555.9221 " style="fill:rgb(127.5,127.5,0.0);opacity:1.0" />
<polygon points="235.35353,514.6941 233.88406,517.6715 230.59825,518.149 232.97589,520.4666 232.41461,523.73914 235.35353,522.1941 238.29245,523.73914 237.73117,520.4666 240.1088,518.149 236.823,517.6715 235.35353,514.6941 233.88408,517.6715 " style="fill:rgb(127.5,127.5,0.0);opacity:1.0" />
<polygon points="242.52525,518.90594 241.05579,521.8834 237.76997,522.36084 240.14761,524.67847 239.58633,527.95105 242.52525,526.40594 245.46417,527.95105 244.9029,524.67847 247.28052,522.36084 243.99472,521.8834 242.52525,518.906 241.0558,521.8834 " style="fill:rgb(127.5,127.5,0.0);opacity:1.0" />
<polygon points="249.69696,538.1954 248.2275,541.17285 244.94168,541.65027 247.31932,543.96796 246.75804,547.2405 249.69696,545.6954 252.63588,547.2405 252.0746,543.9679 254.45224,541.6503 251.16643,541.17285 249.69696,538.1954 248.2275,541.17285 " style="fill:rgb(127.5,127.5,0.0);opacity:1.0" />
<polygon points="256.86868,540.0064 255.39922,542.9839 252.1134,543.4613 254.49104,545.77893 253.92976,549.0515 256.86868,547.5064 259.80762,549.0515 259.24634,545.77893 261.62396,543.4613 258.33813,542.9839 256.86868,540.0064 255.39922,542.9839 " style="fill:rgb(127.5,127.5,0.0);opacity:1.0" />
<polygon points="264.0404,505.04852 262.57092,508.02597 259.28513,508.50342 261.66278,510.82104 261.1015,514.0936 264.0404,512.5485 266.9793,514.0936 266.41803,510.82104 268.79565,508.50342 265.5099,508.02597 264.0404,505.04852 262.57095,508.02597 " style="fill:rgb(127.5,127.5,0.0);opacity:1.0" />
<polygon points="271.2121,510.13376 269.74265,513.1112 266.45685,513.5887 268.83447,515.9063 268.2732,519.17883 271.2121,517.6338 274.15103,519.17883 273.58975,515.9063 275.96738,513.5887 272.68158,513.1112 271.2121,510.1338 269.74268,513.1112 " style="fill:rgb(127.5,127.5,0.0);opacity:1.0" />
<polygon points="278.38385,528.966 276.91437,531.9435 273.62854,532.4209 276.0062,534.7385 275.44492,538.0111 278.38385,536.466 281.32275,538.01105 280.76147,534.7385 283.1391,532.4209 279.8533,531.9435 278.38385,528.966 276.91437,531.9435 " style="fill:rgb(127.5,127.5,0.0);opacity:1.0" />
<polygon points="285.55554,504.86896 284.0861,507.8464 280.8003,508.32388 283.17792,510.6415 282.61664,513.91406 285.55554,512.36896 288.49448,513.91406 287.9332,510.6415 290.31082,508.32388 287.02502,507.84644 285.55554,504.86896 284.08612,507.8464 " style="fill:rgb(127.5,127.5,0.0);opacity:1.0" />
<polygon points="292.72726,523.8723 291.2578,526.8498 287.972,527.3273 290.3496,529.6449 289.78833,532.9174 292.72726,531.3723 295.6662,532.9174 295.10492,529.6449 297.48254,527.3273 294.19672,526.8498 292.72726,523.8723 291.2578,526.8498 " style="fill:rgb(127.5,127.5,0.0);opacity:1.0" />
<polygon points="299.899,533.06323 298.4295,536.04065 295.1437,536.5181 297.52136,538.83575 296.96008,542.1083 299.899,540.56323 302.8379,542.1083 302.2766,538.83575 304.65427,536.5181 301.36847,536.04065 299.899,533.06323 298.4295,536.04065 " style="fill:rgb(127.5,127.5,0.0);opacity:1.0" />
<polygon points="307.0707,511.18167 305.60126,514.1591 302.31543,514.6366 304.69305,516.9542 304.13177,520.22675 307.0707,518.68164 310.00964,520.22675 309.44836,516.9542 311.826,514.6366 308.54016,514.1591 307.0707,511.18167 305.60126,514.1591 " style="fill:rgb(127.5,127.5,0.0);opacity:1.0" />
<polygon points="314.24243,496.8435 312.77295,499.82098 309.48712,500.29843 311.86478,502.61606 311.3035,505.8886 314.24243,504.3435 317.18134,505.8886 316.62006,502.61606 318.99768,500.29843 315.71188,499.82098 314.24243,496.84354 312.77295,499.82098 " style="fill:rgb(127.5,127.5,0.0);opacity:1.0" />
<polygon points="321.41412,491.87427 319.94467,494.8517 316.65887,495.3292 319.0365,497.64682 318.47522,500.91934 321.41412,499.37427 324.35306,500.91934 323.79178,497.64682 326.1694,495.3292 322.8836,494.85175 321.41412,491.87427 319.9447,494.8517 " style="fill:rgb(127.5,127.5,0.0);opacity:1.0" />
<polygon points="328.58588,508.6405 327.1164,511.61795 323.83057,512.0954 326.20822,514.413 325.64694,517.68555 328.58588,516.1405 331.52478,517.68555 330.9635,514.413 333.34113,512.0954 330.05533,511.61795 328.58588,508.6405 327.1164,511.61795 " style="fill:rgb(127.5,127.5,0.0);opacity:1.0" />
<polygon points="335.75757,495.88995 334.2881,498.8674 331.0023,499.34485 333.37994,501.66248 332.81866,504.93503 335.75757,503.38995 338.69647,504.935 338.1352,501.66248 340.51282,499.34485 337.22705,498.8674 335.75757,495.88995 334.28812,498.8674 " style="fill:rgb(127.5,127.5,0.0);opacity:1.0" />
<polygon points="342.9293,498.93826 341.45984,501.9157 338.174,502.3932 340.55164,504.71082 339.99036,507.98334 342.9293,506.43826 345.86823,507.98334 345.30695,504.71082 347.68457,502.3932 344.39874,501.91574 342.9293,498.9383 341.45984,501.9157 " style="fill:rgb(127.5,127.5,0.0);opacity:1.0" />
<polygon points="350.101,504.21802 348.63153,507.1955 345.34573,507.67294 347.7234,509.99057 347.1621,513.2631 350.101,511.71802 353.03992,513.2631 352.47864,509.99057 354.85626,507.67294 351.5705,507.1955 350.101,504.21805 348.63156,507.1955 " style="fill:rgb(127.5,127.5,0.0);opacity:1.0" />
<polygon points="357.27274,506.47122 355.80328,509.44867 352.51746,509.92615 354.89508,512.2438 354.3338,515.5163 357.27274,513.9712 360.21167,515.5163 359.6504,512.2438 362.028,509.92612 358.74222,509.44867 357.27274,506.47122 355.80328,509.44867 " style="fill:rgb(127.5,127.5,0.0);opacity:1.0" />
<polygon points="364.44443,474.42334 362.97498,477.40082 359.68915,477.87827 362.06677,480.1959 361.5055,483.46844 364.4444,481.92337 367.38336,483.46844 366.82205,480.19592 369.1997,477.87827 365.9139,477.40085 364.44443,474.42334 362.975,477.40082 " style="fill:rgb(127.5,127.5,0.0);opacity:1.0" />
<polygon points="371.61615,501.10715 370.1467,504.0846 366.86087,504.56207 369.2385,506.87967 368.67722,510.15222 371.61612,508.60715 374.55508,510.15222 373.99377,506.8797 376.37143,504.56204 373.08563,504.08463 371.61615,501.10715 370.14673,504.0846 " style="fill:rgb(127.5,127.5,0.0);opacity:1.0" />
<polygon points="378.78787,511.12216 377.31842,514.0996 374.0326,514.5771 376.41022,516.8947 375.84894,520.16724 378.78784,518.6222 381.7268,520.16724 381.1655,516.8948 383.54315,514.5771 380.25735,514.0997 378.78787,511.12216 377.31845,514.0996 " style="fill:rgb(127.5,127.5,0.0);opacity:1.0" />
<polygon points="385.9596,472.54385 384.49014,475.5213 381.2043,475.99878 383.58194,478.3164 383.02066,481.58893 385.95956,480.04388 388.89853,481.58896 388.33722,478.31644 390.71487,475.99878 387.42908,475.52136 385.9596,472.54385 384.49017,475.5213 " style="fill:rgb(127.5,127.5,0.0);opacity:1.0" />
<polygon points="393.13132,479.84042 391.66187,482.81787 388.37604,483.29535 390.75366,485.61295 390.19238,488.8855 393.1313,487.34042 396.07025,488.8855 395.50894,485.61298 397.8866,483.29532 394.6008,482.8179 393.13132,479.84042 391.6619,482.81787 " style="fill:rgb(127.5,127.5,0.0);opacity:1.0" />
<polygon points="400.30304,470.15448 398.8336,473.13196 395.54776,473.6094 397.92538,475.927 397.3641,479.1996 400.303,477.65448 403.24197,479.1996 402.68066,475.92706 405.05832,473.6094 401.77252,473.13196 400.30304,470.15448 398.83362,473.13193 " style="fill:rgb(127.5,127.5,0.0);opacity:1.0" />
<polygon points="407.47473,491.3353 406.00528,494.31274 402.71945,494.79022 405.09708,497.10782 404.5358,500.38037 407.4747,498.8353 410.41367,500.38037 409.85236,497.10785 412.23,494.7902 408.9442,494.31277 407.47473,491.3353 406.0053,494.31274 " style="fill:rgb(127.5,127.5,0.0);opacity:1.0" />
<polygon points="414.64645,500.1637 413.177,503.14114 409.89117,503.6186 412.2688,505.93622 411.70752,509.20877 414.64642,507.6637 417.5854,509.20877 417.02408,505.93628 419.40173,503.6186 416.11594,503.14117 414.64645,500.1637 413.17703,503.14114 " style="fill:rgb(127.5,127.5,0.0);opacity:1.0" />
<polygon points="421.81818,477.20914 420.34872,480.18658 417.0629,480.66406 419.44052,482.9817 418.87924,486.2542 421.81815,484.70917 424.7571,486.25424 424.1958,482.98172 426.57346,480.66406 423.28766,480.18665 421.81818,477.20914 420.34875,480.18658 " style="fill:rgb(127.5,127.5,0.0);opacity:1.0" />
<polygon points="428.9899,467.9866 427.52045,470.96405 424.23462,471.44153 426.61224,473.75916 426.05096,477.03168 428.98987,475.48663 431.92883,477.0317 431.36752,473.7592 433.74518,471.44153 430.45938,470.9641 428.9899,467.9866 427.52048,470.96405 " style="fill:rgb(127.5,127.5,0.0);opacity:1.0" />
<polygon points="436.16162,488.73523 434.69217,491.7127 431.40634,492.19016 433.78397,494.50775 433.2227,497.78033 436.1616,496.23523 439.10056,497.78033 438.53925,494.5078 440.9169,492.19016 437.6311,491.7127 436.16162,488.73523 434.6922,491.71268 " style="fill:rgb(127.5,127.5,0.0);opacity:1.0" />
<polygon points="443.33334,452.74722 441.8639,455.72467 438.57806,456.20215 440.95572,458.51978 440.3944,461.7923 443.33334,460.2472 446.27225,461.7923 445.71097,458.51978 448.08862,456.20215 444.8028,455.7247 443.33337,452.74725 441.8639,455.7247 " style="fill:rgb(127.5,127.5,0.0);opacity:1.0" />
<polygon points="450.50504,462.62274 449.03558,465.60022 445.74976,466.07764 448.1274,468.39526 447.5661,471.66782 450.50504,470.1227 453.44397,471.66782 452.88266,468.39526 455.2603,466.07764 451.9745,465.60022 450.50504,462.62274 449.03558,465.60022 " style="fill:rgb(127.5,127.5,0.0);opacity:1.0" />
<polygon points="457.67676,453.05737 456.2073,456.03485 452.92148,456.51227 455.29913,458.8299 454.73782,462.10245 457.67676,460.55737 460.61566,462.10248 460.05438,458.8299 462.43204,456.51233 459.1462,456.03485 457.6768,453.05737 456.2073,456.03485 " style="fill:rgb(127.5,127.5,0.0);opacity:1.0" />
<polygon points="464.84848,471.54776 463.37903,474.5252 460.0932,475.0027 462.47083,477.32028 461.90955,480.59283 464.84845,479.04776 467.7874,480.59283 467.2261,477.32034 469.60376,475.0027 466.31796,474.52524 464.84848,471.54776 463.37906,474.5252 " style="fill:rgb(127.5,127.5,0.0);opacity:1.0" />
<polygon points="472.0202,439.5216 470.55075,442.49908 467.26492,442.97653 469.64258,445.29416 469.08127,448.5667 472.0202,447.0216 474.9591,448.5667 474.39783,445.29416 476.77548,442.97656 473.48965,442.49908 472.02023,439.52164 470.55075,442.49908 " style="fill:rgb(127.5,127.5,0.0);opacity:1.0" />
<polygon points="479.19193,447.79575 477.72247,450.7732 474.43665,451.25067 476.8143,453.5683 476.253,456.84082 479.19193,455.29572 482.13083,456.84082 481.56955,453.5683 483.9472,451.25067 480.66138,450.77322 479.19196,447.79578 477.72247,450.77322 " style="fill:rgb(127.5,127.5,0.0);opacity:1.0" />
<polygon points="486.36365,437.8291 484.8942,440.80658 481.60837,441.284 483.98602,443.60162 483.4247,446.87418 486.36365,445.3291 489.30255,446.8742 488.74127,443.60162 491.11893,441.28406 487.8331,440.80658 486.36368,437.8291 484.8942,440.80658 " style="fill:rgb(127.5,127.5,0.0);opacity:1.0" />
<polygon points="493.53534,448.23077 492.0659,451.20825 488.78006,451.68567 491.1577,454.0033 490.5964,457.27585 493.53534,455.73077 496.47424,457.27588 495.91296,454.0033 498.29062,451.68573 495.0048,451.20825 493.53537,448.23077 492.0659,451.20825 " style="fill:rgb(127.5,127.5,0.0);opacity:1.0" />
<polygon points="500.70706,444.65192 499.2376,447.6294 495.95178,448.10684 498.32944,450.42447 497.76813,453.69702 500.70706,452.15192 503.64597,453.69702 503.0847,450.42447 505.46234,448.10687 502.1765,447.6294 500.7071,444.65195 499.2376,447.6294 " style="fill:rgb(127.5,127.5,0.0);opacity:1.0" />
<polygon points="507.87878,441.67792 506.40933,444.6554 503.1235,445.1328 505.50116,447.45044 504.93985,450.723 507.87878,449.17792 510.8177,450.72302 510.2564,447.45044 512.63403,445.13287 509.34824,444.6554 507.8788,441.67792 506.40933,444.6554 " style="fill:rgb(127.5,127.5,0.0);opacity:1.0" />
<polygon points="515.05054,461.34888 513.58105,464.32635 510.29523,464.8038 512.67285,467.12146 512.1116,470.39398 515.05054,468.8489 517.98944,470.39398 517.42816,467.12143 519.8058,464.80377 516.52,464.32632 515.05054,461.34888 513.58105,464.32632 " style="fill:rgb(127.5,127.5,0.0);opacity:1.0" />
<polygon points="522.2222,456.77026 520.7528,459.74774 517.4669,460.2252 519.8446,462.54282 519.2833,465.81537 522.2222,464.27026 525.16113,465.81537 524.59985,462.54282 526.97754,460.22522 523.69165,459.74774 522.2223,456.7703 520.7528,459.74774 " style="fill:rgb(127.5,127.5,0.0);opacity:1.0" />
<polygon points="529.3939,443.89462 527.9245,446.87207 524.6387,447.34955 527.01636,449.66718 526.455,452.9397 529.3939,451.3946 532.3329,452.9397 531.7716,449.66718 534.14923,447.34955 530.8634,446.8721 529.394,443.89465 527.9245,446.8721 " style="fill:rgb(127.5,127.5,0.0);opacity:1.0" />
<polygon points="536.5657,451.9006 535.0962,454.87805 531.81036,455.35553 534.188,457.67316 533.6267,460.94568 536.5657,459.40057 539.5045,460.94568 538.94324,457.67316 541.3209,455.35553 538.0351,454.87808 536.5657,451.90063 535.0962,454.87808 " style="fill:rgb(127.5,127.5,0.0);opacity:1.0" />
<polygon points="543.73737,449.4029 542.26794,452.38037 538.98206,452.8578 541.35974,455.1754 540.79846,458.44797 543.73737,456.9029 546.6763,458.448 546.115,455.1754 548.4927,452.85785 545.2068,452.38037 543.7374,449.4029 542.26794,452.38037 " style="fill:rgb(127.5,127.5,0.0);opacity:1.0" />
<polygon points="550.90906,424.83386 549.43964,427.8113 546.1538,428.28876 548.5315,430.60638 547.97015,433.8789 550.90906,432.33383 553.848,433.87894 553.28674,430.60638 555.66437,428.2888 552.37854,427.81134 550.9091,424.83386 549.43964,427.81134 " style="fill:rgb(127.5,127.5,0.0);opacity:1.0" />
<polygon points="558.0808,420.06015 556.6113,423.0376 553.32556,423.51508 555.7032,425.8327 555.14185,429.10522 558.0808,427.56012 561.0197,429.10522 560.45844,425.8327 562.83606,423.51508 559.5503,423.03763 558.0808,420.06018 556.6113,423.03763 " style="fill:rgb(127.5,127.5,0.0);opacity:1.0" />
<polygon points="565.25256,424.588 563.7831,427.5655 560.49725,428.04294 562.8749,430.36057 562.3136,433.63312 565.25256,432.088 568.1914,433.63312 567.6301,430.36057 570.0078,428.04297 566.722,427.5655 565.25256,424.58804 563.7831,427.5655 " style="fill:rgb(127.5,127.5,0.0);opacity:1.0" />
<polygon points="572.4242,421.50165 570.9548,424.47913 567.66895,424.95654 570.04663,427.27417 569.4853,430.54672 572.4242,429.00165 575.36316,430.54675 574.8019,427.27417 577.1795,424.9566 573.8937,424.47913 572.42426,421.50165 570.9548,424.47913 " style="fill:rgb(127.5,127.5,0.0);opacity:1.0" />
<polygon points="579.59595,437.11212 578.12646,440.0896 574.8407,440.56702 577.2183,442.88464 576.657,446.1572 579.59595,444.61212 582.53485,446.15723 581.9736,442.88464 584.3512,440.56708 581.0654,440.0896 579.59595,437.11212 578.12646,440.0896 " style="fill:rgb(127.5,127.5,0.0);opacity:1.0" />
<polygon points="586.7677,420.24298 585.2982,423.22046 582.0124,423.69788 584.39,426.0155 583.82874,429.28806 586.7677,427.74298 589.70654,429.2881 589.14526,426.0155 591.52295,423.69794 588.2371,423.22046 586.7677,420.24298 585.2982,423.22046 " style="fill:rgb(127.5,127.5,0.0);opacity:1.0" />
<polygon points="593.9394,426.38336 592.47,429.3608 589.1841,429.83826 591.56177,432.15588 591.0005,435.4284 593.9394,433.88333 596.8783,435.42844 596.317,432.15588 598.6947,429.8383 595.4088,429.36084 593.93945,426.38336 592.47,429.36084 " style="fill:rgb(127.5,127.5,0.0);opacity:1.0" />
<polygon points="601.1111,436.3911 599.64166,439.36856 596.35583,439.846 598.7335,442.16364 598.1722,445.43616 601.1111,443.89108 604.05005,445.4362 603.4888,442.16364 605.8664,439.84604 602.58057,439.3686 601.11115,436.3911 599.64166,439.3686 " style="fill:rgb(127.5,127.5,0.0);opacity:1.0" />
<polygon points="608.28284,407.66602 606.81335,410.6435 603.5276,411.12094 605.9052,413.43857 605.3439,416.71112 608.28284,415.16602 611.22174,416.71112 610.66046,413.43857 613.03815,411.12097 609.7523,410.6435 608.28284,407.66602 606.81335,410.6435 " style="fill:rgb(127.5,127.5,0.0);opacity:1.0" />
<polygon points="615.4545,414.12598 613.98505,417.10345 610.6992,417.5809 613.0769,419.89856 612.5156,423.17108 615.4545,421.62598 618.39343,423.17105 617.83215,419.89853 620.2098,417.58093 616.924,417.10345 615.4545,414.12604 613.9851,417.10345 " style="fill:rgb(127.5,127.5,0.0);opacity:1.0" />
<polygon points="622.6263,396.95248 621.1568,399.92993 617.871,400.4074 620.24866,402.72504 619.6873,405.9976 622.6263,404.45245 625.5652,405.99762 625.0039,402.72504 627.3816,400.40744 624.09576,399.92996 622.62634,396.95245 621.15686,399.92993 " style="fill:rgb(127.5,127.5,0.0);opacity:1.0" />
<polygon points="629.798,401.45865 628.3285,404.4361 625.04266,404.91357 627.42035,407.2312 626.859,410.50375 629.798,408.95862 632.7369,410.50378 632.1756,407.2312 634.5533,404.9136 631.26746,404.43613 629.79803,401.45862 628.32855,404.4361 " style="fill:rgb(127.5,127.5,0.0);opacity:1.0" />
<polygon points="636.96967,416.0153 635.5002,418.99274 632.21436,419.4702 634.59204,421.78784 634.0307,425.0604 636.96967,423.51526 639.90857,425.06042 639.3473,421.78784 641.725,419.47025 638.43915,418.99277 636.9697,416.01526 635.50024,418.99274 " style="fill:rgb(127.5,127.5,0.0);opacity:1.0" />
<polygon points="644.1414,405.69525 642.67194,408.6727 639.3861,409.15015 641.7638,411.4678 641.20245,414.74036 644.1414,413.19522 647.0803,414.74036 646.51904,411.46777 648.8967,409.15018 645.6109,408.67273 644.1415,405.69522 642.672,408.67267 " style="fill:rgb(127.5,127.5,0.0);opacity:1.0" />
<polygon points="651.3131,386.1839 649.8436,389.16138 646.5578,389.63882 648.9355,391.95648 648.37415,395.229 651.3131,393.6839 654.252,395.22903 653.69073,391.95645 656.0684,389.63885 652.7826,389.16138 651.3132,386.1839 649.8437,389.16138 " style="fill:rgb(127.5,127.5,0.0);opacity:1.0" />
<polygon points="658.48486,391.6823 657.0154,394.65976 653.72955,395.1372 656.10724,397.45486 655.5459,400.72742 658.48486,399.18228 661.42377,400.72742 660.8625,397.45483 663.2402,395.13724 659.95435,394.6598 658.4849,391.68228 657.01544,394.65973 " style="fill:rgb(127.5,127.5,0.0);opacity:1.0" />
<polygon points="665.65656,402.70734 664.1871,405.68478 660.90125,406.16223 663.27893,408.4799 662.7176,411.75244 665.65656,410.2073 668.59546,411.75244 668.0342,408.47986 670.41187,406.16226 667.12604,405.6848 665.6566,402.7073 664.18713,405.68475 " style="fill:rgb(127.5,127.5,0.0);opacity:1.0" />
<polygon points="672.8283,383.05283 671.3588,386.03027 668.073,386.50775 670.4507,388.82538 669.88934,392.09793 672.8283,390.5528 675.7672,392.09796 675.20593,388.82538 677.5836,386.50778 674.2978,386.0303 672.82837,383.0528 671.3589,386.03027 " style="fill:rgb(127.5,127.5,0.0);opacity:1.0" />
<polygon points="680.0,389.661 678.5305,392.63846 675.2447,393.1159 677.6224,395.43356 677.06104,398.70612 680.0,397.16098 682.9389,398.70612 682.3776,395.43353 684.7553,393.11594 681.4695,392.6385 680.00006,389.66098 678.5306,392.63843 " style="fill:rgb(127.5,127.5,0.0);opacity:1.0" />
<polygon points="687.1717,406.021 685.7022,408.99847 682.4164,409.4759 684.79407,411.79358 684.2327,415.0661 687.1717,413.521 690.1106,415.06613 689.5493,411.79352 691.927,409.47595 688.6412,408.99847 687.17175,406.021 685.7023,408.99844 " style="fill:rgb(127.5,127.5,0.0);opacity:1.0" />
<polygon points="694.34344,387.4502 692.87396,390.42767 689.58813,390.9051 691.9658,393.22278 691.4045,396.4953 694.34344,394.9502 697.28235,396.49533 696.72107,393.22272 699.09875,390.90515 695.8129,390.42767 694.3435,387.4502 692.874,390.42764 " style="fill:rgb(127.5,127.5,0.0);opacity:1.0" />
<polygon points="701.51514,375.17227 700.04565,378.14972 696.7598,378.6272 699.1375,380.94482 698.5762,384.21738 701.51514,382.67224 704.45404,384.2174 703.89276,380.94482 706.27045,378.62723 702.9846,378.14975 701.5152,375.17224 700.0457,378.14972 " style="fill:rgb(127.5,127.5,0.0);opacity:1.0" />
<polygon points="708.6869,385.88458 707.2174,388.86206 703.9316,389.33948 706.30927,391.65717 705.7479,394.9297 708.6869,393.38458 711.6258,394.92972 711.0645,391.6571 713.4422,389.33954 710.1564,388.86206 708.68695,385.88458 707.21747,388.86203 " style="fill:rgb(127.5,127.5,0.0);opacity:1.0" />
<polygon points="715.8586,406.4831 714.3891,409.46057 711.1033,409.938 713.48096,412.25568 712.9196,415.5282 715.8586,413.9831 718.7975,415.52823 718.2362,412.2556 720.6139,409.93805 717.32806,409.46057 715.85864,406.4831 714.38916,409.46054 " style="fill:rgb(127.5,127.5,0.0);opacity:1.0" />
<polygon points="723.0303,378.0769 721.5608,381.05435 718.27496,381.5318 720.65265,383.84946 720.0913,387.122 723.0303,385.57687 725.9692,387.122 725.4079,383.84943 727.7856,381.53183 724.49976,381.05438 723.03033,378.07687 721.56085,381.05432 " style="fill:rgb(127.5,127.5,0.0);opacity:1.0" />
<polygon points="730.202,400.54376 728.73254,403.5212 725.4467,403.99866 727.8244,406.3163 727.26306,409.58887 730.202,408.04373 733.1409,409.58887 732.57965,406.31628 734.95734,403.9987 731.6715,403.52124 730.2021,400.54373 728.7326,403.52118 " style="fill:rgb(127.5,127.5,0.0);opacity:1.0" />
<polygon points="737.3737,378.32336 735.90424,381.30084 732.6184,381.7783 734.9961,384.09595 734.43475,387.36847 737.3737,385.82336 740.3126,387.3685 739.75134,384.09592 742.129,381.77832 738.8432,381.30084 737.3738,378.32336 735.9043,381.30084 " style="fill:rgb(127.5,127.5,0.0);opacity:1.0" />
<polygon points="744.5455,355.8266 743.076,358.80408 739.79016,359.2815 742.16785,361.59918 741.6065,364.8717 744.5455,363.3266 747.4844,364.87173 746.9231,361.59912 749.3008,359.28156 746.01495,358.80408 744.54553,355.8266 743.07605,358.80405 " style="fill:rgb(127.5,127.5,0.0);opacity:1.0" />
<polygon points="751.71716,364.36526 750.2477,367.3427 746.96185,367.8202 749.33954,370.13782 748.7782,373.41037 751.71716,371.86523 754.65607,373.4104 754.0948,370.13782 756.4725,367.82022 753.18665,367.34274 751.7172,364.36523 750.24774,367.3427 " style="fill:rgb(127.5,127.5,0.0);opacity:1.0" />
<polygon points="758.8889,361.06372 757.41943,364.0412 754.1336,364.51865 756.5113,366.8363 755.94995,370.10883 758.8889,368.56372 761.8278,370.10886 761.26654,366.83627 763.6442,364.51868 760.3584,364.0412 758.889,361.06372 757.4195,364.0412 " style="fill:rgb(127.5,127.5,0.0);opacity:1.0" />
<polygon points="766.0606,368.08124 764.5911,371.0587 761.3053,371.53613 763.683,373.8538 763.12164,377.12634 766.0606,375.5812 768.9995,377.12634 768.43823,373.85376 770.8159,371.53616 767.5301,371.05872 766.06067,368.0812 764.5912,371.05865 " style="fill:rgb(127.5,127.5,0.0);opacity:1.0" />
<polygon points="773.2323,385.4018 771.7628,388.37927 768.477,388.8567 770.8547,391.17438 770.29333,394.4469 773.2323,392.9018 776.1712,394.44693 775.6099,391.17432 777.9876,388.85675 774.7018,388.37927 773.23236,385.4018 771.7629,388.37924 " style="fill:rgb(127.5,127.5,0.0);opacity:1.0" />
<polygon points="780.40405,385.87445 778.9346,388.85193 775.64874,389.32935 778.0264,391.64703 777.4651,394.91956 780.40405,393.37445 783.34296,394.9196 782.7817,391.64697 785.15936,389.3294 781.87354,388.85193 780.4041,385.87445 778.93463,388.8519 " style="fill:rgb(127.5,127.5,0.0);opacity:1.0" />
<polygon points="787.57574,380.10498 786.10626,383.08246 782.82043,383.55988 785.1981,385.87756 784.6368,389.1501 787.57574,387.60498 790.51465,389.15012 789.95337,385.8775 792.33105,383.55994 789.0452,383.08246 787.5758,380.10498 786.1063,383.08243 " style="fill:rgb(127.5,127.5,0.0);opacity:1.0" />
<polygon points="794.7475,348.2331 793.278,351.21057 789.9922,351.68802 792.3699,354.00568 791.80853,357.2782 794.7475,355.7331 797.6864,357.27823 797.1251,354.00565 799.5028,351.68805 796.217,351.21057 794.74756,348.2331 793.2781,351.21057 " style="fill:rgb(127.5,127.5,0.0);opacity:1.0" />
<polygon points="801.9192,369.9184 800.4497,372.89584 797.1639,373.3733 799.54156,375.69095 798.9802,378.9635 801.9192,377.41837 804.8581,378.9635 804.2968,375.69092 806.6745,373.37332 803.3887,372.89587 801.91925,369.91837 800.44977,372.8958 " style="fill:rgb(127.5,127.5,0.0);opacity:1.0" />
<polygon points="809.0909,361.26086 807.6214,364.23834 804.3356,364.7158 806.71326,367.03345 806.1519,370.30597 809.0909,368.76086 812.0298,370.306 811.4685,367.03342 813.8462,364.71582 810.56036,364.23834 809.09094,361.26086 807.62146,364.23834 " style="fill:rgb(127.5,127.5,0.0);opacity:1.0" />
<text x="456.15" y="58.5" stroke="#000000" stroke-width="1.2" transform="rotate(-0.0,456.15,58.5)">SCATTER PLOT</text>
<text x="476.8" y="630.4" stroke="#000000" stroke-width="1.2" transform="rotate(-0.0,476.8,630.4)">X-AXIS</text>
<text x="50.0" y="376.6" stroke="#000000" stroke-width="1.2" transform="rotate(-90.0,50.0,376.6)">Y-AXIS</text>
<rect x="120.0" y="86.0" width="67.880005" height="40.0" style="fill:rgb(255.0,255.0,255.0);stroke-width:2.0;stroke:rgb(0.0,0.0,0.0);opacity:0.7" />
<circle cx="132.0" cy="98.0" r="4.0"  style="fill:rgb(214.2,214.2,0.0);opacity:1.0" />
<text x="144.0" y="102.0" stroke="#000000" stroke-width="1.2" transform="rotate(-0.0,144.0,102.0)">Plot 1</text>
<polygon points="132.0,110.0 130.82443,112.38196 128.19577,112.763916 130.09789,114.61804 129.64885,117.236084 132.0,116.0 134.35115,117.236084 133.90211,114.61804 135.80424,112.763916 133.17558,112.38196 131.99998,110.0 130.82443,112.38196 " style="fill:rgb(127.5,127.5,0.0);opacity:1.0" />
<text x="144.0" y="118.0" stroke="#000000" stroke-width="1.2" transform="rotate(-0.0,144.0,118.0)">Plot 2</text>
</svg>