<svg height="1000.0" width="1000.0" version="4.0" xmlns="http://www.w3.org/2000/svg" xmlns:xlink= "http://www.w3.org/1999/xlink">
<rect width="100%" height="100%" fill="white"/>
<rect x="100.0" y="100.0" width="800.0" height="800.0" style="fill:rgb(255,255,255);stroke-width:2.0;stroke:rgb(0,0,0);opacity:1" />
<line x1="163.63637" y1="903.0" x2="163.63637" y2="900.0" style="stroke:rgb(0.0,0.0,0.0);stroke-width:2.0;opacity:1.0;stroke-linecap:round" />
<text x="154.09636" y="915.0" stroke="#000000" stroke-width="0.7" transform="rotate(-0.0,154.09636,915.0)">10.0</text>
<line x1="235.35353" y1="903.0" x2="235.35353" y2="900.0" style="stroke:rgb(0.0,0.0,0.0);stroke-width:2.0;opacity:1.0;stroke-linecap:round" />
<text x="225.49353" y="915.0" stroke="#000000" stroke-width="0.7" transform="rotate(-0.0,225.49353,915.0)">20.0</text>
<line x1="307.0707" y1="903.0" x2="307.0707" y2="900.0" style="stroke:rgb(0.0,0.0,0.0);stroke-width:2.0;opacity:1.0;stroke-linecap:round" />
<text x="297.2107" y="915.0" stroke="#000000" stroke-width="0.7" transform="rotate(-0.0,297.2107,915.0)">30.0</text>
<line x1="378.78787" y1="903.0" x2="378.78787" y2="900.0" style="stroke:rgb(0.0,0.0,0.0);stroke-width:2.0;opacity:1.0;stroke-linecap:round" />
<text x="368.92786" y="915.0" stroke="#000000" stroke-width="0.7" transform="rotate(-0.0,368.92786,915.0)">40.0</text>
<line x1="450.50504" y1="903.0" x2="450.50504" y2="900.0" style="stroke:rgb(0.0,0.0,0.0);stroke-width:2.0;opacity:1.0;stroke-linecap:round" />
<text x="440.64502" y="915.0" stroke="#000000" stroke-width="0.7" transform="rotate(-0.0,440.64502,915.0)">50.0</text>
<line x1="522.22217" y1="903.0" x2="522.22217" y2="900.0" style="stroke:rgb(0.0,0.0,0.0);stroke-width:2.0;opacity:1.0;stroke-linecap:round" />
<text x="512.3622" y="915.0" stroke="#000000" stroke-width="0.7" transform="rotate(-0.0,512.3622,915.0)">60.0</text>
<line x1="593.93933" y1="903.0" x2="593.93933" y2="900.0" style="stroke:rgb(0.0,0.0,0.0);stroke-width:2.0;opacity:1.0;stroke-linecap:round" />
<text x="584.07935" y="915.0" stroke="#000000" stroke-width="0.7" transform="rotate(-0.0,584.07935,915.0)">70.0</text>
<line x1="665.65656" y1="903.0" x2="665.65656" y2="900.0" style="stroke:rgb(0.0,0.0,0.0);stroke-width:2.0;opacity:1.0;stroke-linecap:round" />
<text x="655.7966" y="915.0" stroke="#000000" stroke-width="0.7" transform="rotate(-0.0,655.7966,915.0)">80.0</text>
<line x1="737.3737" y1="903.0" x2="737.3737" y2="900.0" style="stroke:rgb(0.0,0.0,0.0);stroke-width:2.0;opacity:1.0;stroke-linecap:round" />
<text x="727.51373" y="915.0" stroke="#000000" stroke-width="0.7" transform="rotate(-0.0,727.51373,915.0)">90.0</text>
<line x1="809.0909" y1="903.0" x2="809.0909" y2="900.0" style="stroke:rgb(0.0,0.0,0.0);stroke-width:2.0;opacity:1.0;stroke-linecap:round" />
<text x="799.2309" y="915.0" stroke="#000000" stroke-width="0.7" transform="rotate(-0.0,799.2309,915.0)">100.0</text>
<line x1="880.80804" y1="903.0" x2="880.80804" y2="900.0" style="stroke:rgb(0.0,0.0,0.0);stroke-width:2.0;opacity:1.0;stroke-linecap:round" />
<text x="869.82806" y="915.0" stroke="#000000" stroke-width="0.7" transform="rotate(-0.0,869.82806,915.0)">110.0</text>
<line x1="97.0" y1="870.74304" x2="100.0" y2="870.74304" style="stroke:rgb(0.0,0.0,0.0);stroke-width:2.0;opacity:1.0;stroke-linecap:round" />
<text x="62.16" y="874.74304" stroke="#000000" stroke-width="0.7" transform="rotate(-0.0,62.16,874.74304)">0.0</text>
<line x1="97.0" y1="544.7596" x2="100.0" y2="544.7596" style="stroke:rgb(0.0,0.0,0.0);stroke-width:2.0;opacity:1.0;stroke-linecap:round" />
<text x="57.04" y="548.7596" stroke="#000000" stroke-width="0.7" transform="rotate(-0.0,57.04,548.7596)">100.0</text>
<line x1="97.0" y1="218.77612" x2="100.0" y2="218.77612" style="stroke:rgb(0.0,0.0,0.0);stroke-width:2.0;opacity:1.0;stroke-linecap:round" />
<text x="56.4" y="222.77612" stroke="#000000" stroke-width="0.7" transform="rotate(-0.0,56.4,222.77612)">200.0</text>
<circle cx="106.26263" cy="883.733" r="5.0"  style="fill:rgb(214.2,214.2,0.0);opacity:1.0" />
<circle cx="113.43434" cy="871.30945" r="5.0"  style="fill:rgb(210.38216,210.38216,4.545038);opacity:1.0" />
<circle cx="120.606064" cy="853.9624" r="5.0"  style="fill:rgb(205.0513,205.0513,10.891288);opacity:1.0" />
<circle cx="127.77778" cy="809.8455" r="5.0"  style="fill:rgb(191.49391,191.49391,27.031046);opacity:1.0" />
<circle cx="134.9495" cy="847.8174" r="5.0"  style="fill:rgb(203.1629,203.1629,13.139396);opacity:1.0" />
<circle cx="142.12122" cy="857.18634" r="5.0"  style="fill:rgb(206.04204,206.04204,9.711833);opacity:1.0" />
<circle cx="149.29294" cy="814.3505" r="5.0"  style="fill:rgb(192.87834,192.87834,25.382927);opacity:1.0" />
<circle cx="156.46465" cy="823.14276" r="5.0"  style="fill:rgb(195.58025,195.58025,22.166365);opacity:1.0" />
<circle cx="163.63637" cy="798.9492" r="5.0"  style="fill:rgb(188.14542,188.14542,31.017353);opacity:1.0" />
<circle cx="170.80807" cy="786.2378" r="5.0"  style="fill:rgb(184.23912,184.23912,35.667717);opacity:1.0" />
<circle cx="177.9798" cy="807.42816" r="5.0"  style="fill:rgb(190.75105,190.75105,27.915403);opacity:1.0" />
<circle cx="185.15152" cy="796.497" r="5.0"  style="fill:rgb(187.39185,187.39185,31.914473);opacity:1.0" />
<circle cx="192.32323" cy="811.4369" r="5.0"  style="fill:rgb(191.98297,191.98297,26.448841);opacity:1.0" />
<circle cx="199.49495" cy="768.48553" r="5.0"  style="fill:rgb(178.78374,178.78374,42.162216);opacity:1.0" />
<circle cx="206.66666" cy="756.4656" r="5.0"  style="fill:rgb(175.08992,175.08992,46.559593);opacity:1.0" />
<circle cx="213.83838" cy="751.1969" r="5.0"  style="fill:rgb(173.47083,173.47083,48.4871);opacity:1.0" />
<circle cx="221.0101" cy="725.30884" r="5.0"  style="fill:rgb(165.51526,165.51526,57.958023);opacity:1.0" />
<circle cx="228.18181" cy="748.8464" r="5.0"  style="fill:rgb(172.7485,172.7485,49.34701);opacity:1.0" />
<circle cx="235.35353" cy="757.42255" r="5.0"  style="fill:rgb(175.38402,175.38402,46.20951);opacity:1.0" />
<circle cx="242.52525" cy="736.84174" r="5.0"  style="fill:rgb(169.05939,169.05939,53.738808);opacity:1.0" />
<circle cx="249.69696" cy="727.93787" r="5.0"  style="fill:rgb(166.32317,166.32317,56.996204);opacity:1.0" />
<circle cx="256.86868" cy="698.02094" r="5.0"  style="fill:rgb(157.12952,157.12952,67.94104);opacity:1.0" />
<circle cx="264.0404" cy="689.2529" r="5.0"  style="fill:rgb(154.43507,154.43507,71.14873);opacity:1.0" />
<circle cx="271.2121" cy="710.09326" r="5.0"  style="fill:rgb(160.83945,160.83945,63.52448);opacity:1.0" />
<circle cx="278.38385" cy="705.3039" r="5.0"  style="fill:rgb(159.36761,159.36761,65.27664);opacity:1.0" />
<circle cx="285.55554" cy="670.59216" r="5.0"  style="fill:rgb(148.70047,148.70047,77.97561);opacity:1.0" />
<circle cx="292.72726" cy="679.1485" r="5.0"  style="fill:rgb(151.32991,151.32991,74.84535);opacity:1.0" />
<circle cx="299.899" cy="660.5625" r="5.0"  style="fill:rgb(145.6183,145.6183,81.644875);opacity:1.0" />
<circle cx="307.0707" cy="645.42944" r="5.0"  style="fill:rgb(140.96783,140.96783,87.18116);opacity:1.0" />
<circle cx="314.24243" cy="690.6803" r="5.0"  style="fill:rgb(154.8737,154.8737,70.62653);opacity:1.0" />
<circle cx="321.41412" cy="651.6754" r="5.0"  style="fill:rgb(142.88725,142.88725,84.89612);opacity:1.0" />
<circle cx="328.58588" cy="624.5321" r="5.0"  style="fill:rgb(134.54594,134.54594,94.826256);opacity:1.0" />
<circle cx="335.75757" cy="681.51086" r="5.0"  style="fill:rgb(152.05588,152.05588,73.98109);opacity:1.0" />
<circle cx="342.9293" cy="642.1554" r="5.0"  style="fill:rgb(139.96169,139.96169,88.37894);opacity:1.0" />
<circle cx="350.101" cy="627.20306" r="5.0"  style="fill:rgb(135.36674,135.36674,93.849106);opacity:1.0" />
<circle cx="357.27274" cy="600.27" r="5.0"  style="fill:rgb(127.090065,127.090065,103.70231);opacity:1.0" />
<circle cx="364.44443" cy="591.68835" r="5.0"  style="fill:rgb(124.45284,124.45284,106.841835);opacity:1.0" />
<circle cx="371.61615" cy="601.98956" r="5.0"  style="fill:rgb(127.61848,127.61848,103.073235);opacity:1.0" />
<circle cx="378.78787" cy="607.06165" r="5.0"  style="fill:rgb(129.17715,129.17715,101.21766);opacity:1.0" />
<circle cx="385.9596" cy="600.47394" r="5.0"  style="fill:rgb(127.152725,127.152725,103.627716);opacity:1.0" />
<circle cx="393.13132" cy="594.43384" r="5.0"  style="fill:rgb(125.29656,125.29656,105.837425);opacity:1.0" />
<circle cx="400.30304" cy="571.4437" r="5.0"  style="fill:rgb(118.23155,118.23155,114.24815);opacity:1.0" />
<circle cx="407.47473" cy="600.173" r="5.0"  style="fill:rgb(127.060234,127.060234,103.737816);opacity:1.0" />
<circle cx="414.64645" cy="603.41315" r="5.0"  style="fill:rgb(128.05595,128.05595,102.55243);opacity:1.0" />
<circle cx="421.81818" cy="545.757" r="5.0"  style="fill:rgb(110.33786,110.33786,123.64539);opacity:1.0" />
<circle cx="428.9899" cy="585.9462" r="5.0"  style="fill:rgb(122.68826,122.68826,108.94254);opacity:1.0" />
<circle cx="436.16162" cy="537.2366" r="5.0"  style="fill:rgb(107.719475,107.719475,126.76252);opacity:1.0" />
<circle cx="443.33334" cy="564.72675" r="5.0"  style="fill:rgb(116.16738,116.16738,116.70549);opacity:1.0" />
<circle cx="450.50504" cy="555.67126" r="5.0"  style="fill:rgb(113.384575,113.384575,120.018364);opacity:1.0" />
<circle cx="457.67676" cy="566.06683" r="5.0"  style="fill:rgb(116.579185,116.579185,116.21523);opacity:1.0" />
<circle cx="464.84848" cy="559.7179" r="5.0"  style="fill:rgb(114.62813,114.62813,118.53794);opacity:1.0" />
<circle cx="472.0202" cy="507.37714" r="5.0"  style="fill:rgb(98.54349,98.54349,137.68633);opacity:1.0" />
<circle cx="479.19193" cy="530.7364" r="5.0"  style="fill:rgb(105.72193,105.72193,129.14055);opacity:1.0" />
<circle cx="486.36365" cy="532.90125" r="5.0"  style="fill:rgb(106.38721,106.38721,128.34856);opacity:1.0" />
<circle cx="493.53534" cy="498.2533" r="5.0"  style="fill:rgb(95.73968,95.73968,141.02419);opacity:1.0" />
<circle cx="500.70706" cy="517.3102" r="5.0"  style="fill:rgb(101.59597,101.59597,134.05241);opacity:1.0" />
<circle cx="507.87878" cy="506.8462" r="5.0"  style="fill:rgb(98.38033,98.38033,137.88055);opacity:1.0" />
<circle cx="515.05054" cy="464.00745" r="5.0"  style="fill:rgb(85.215706,85.215706,153.55272);opacity:1.0" />
<circle cx="522.2222" cy="497.55975" r="5.0"  style="fill:rgb(95.52654,95.52654,141.27792);opacity:1.0" />
<circle cx="529.3939" cy="459.76892" r="5.0"  style="fill:rgb(83.913185,83.913185,155.10335);opacity:1.0" />
<circle cx="536.5657" cy="494.5725" r="5.0"  style="fill:rgb(94.60854,94.60854,142.37077);opacity:1.0" />
<circle cx="543.73737" cy="464.51825" r="5.0"  style="fill:rgb(85.37269,85.37269,153.36584);opacity:1.0" />
<circle cx="550.90906" cy="475.1515" r="5.0"  style="fill:rgb(88.640335,88.640335,149.47578);opacity:1.0" />
<circle cx="558.0808" cy="471.65363" r="5.0"  style="fill:rgb(87.56543,87.56543,150.75543);opacity:1.0" />
<circle cx="565.25256" cy="420.7072" r="5.0"  style="fill:rgb(71.90927,71.90927,169.39372);opacity:1.0" />
<circle cx="572.4242" cy="412.11908" r="5.0"  style="fill:rgb(69.27009,69.27009,172.53561);opacity:1.0" />
<circle cx="579.59595" cy="449.24127" r="5.0"  style="fill:rgb(80.67798,80.67798,158.95479);opacity:1.0" />
<circle cx="586.7677" cy="447.96625" r="5.0"  style="fill:rgb(80.28615,80.28615,159.42125);opacity:1.0" />
<circle cx="593.9394" cy="426.35657" r="5.0"  style="fill:rgb(73.645355,73.645355,167.32695);opacity:1.0" />
<circle cx="601.1111" cy="438.8073" r="5.0"  style="fill:rgb(77.47155,77.47155,162.77196);opacity:1.0" />
<circle cx="608.28284" cy="391.1098" r="5.0"  style="fill:rgb(62.81381,62.81381,180.22165);opacity:1.0" />
<circle cx="615.4545" cy="416.80878" r="5.0"  style="fill:rgb(70.711266,70.711266,170.81993);opacity:1.0" />
<circle cx="622.6263" cy="359.66913" r="5.0"  style="fill:rgb(53.151875,53.151875,191.72395);opacity:1.0" />
<circle cx="629.798" cy="388.88123" r="5.0"  style="fill:rgb(62.12894,62.12894,181.03697);opacity:1.0" />
<circle cx="636.96967" cy="352.01648" r="5.0"  style="fill:rgb(50.800175,50.800175,194.5236);opacity:1.0" />
<circle cx="644.1414" cy="400.53406" r="5.0"  style="fill:rgb(65.70994,65.70994,176.77388);opacity:1.0" />
<circle cx="651.3131" cy="340.41998" r="5.0"  style="fill:rgb(47.236496,47.236496,198.76607);opacity:1.0" />
<circle cx="658.48486" cy="347.3418" r="5.0"  style="fill:rgb(49.363605,49.363605,196.2338);opacity:1.0" />
<circle cx="665.65656" cy="380.53632" r="5.0"  style="fill:rgb(59.564503,59.564503,184.08987);opacity:1.0" />
<circle cx="672.8283" cy="335.6095" r="5.0"  style="fill:rgb(45.758198,45.758198,200.52596);opacity:1.0" />
<circle cx="680.0" cy="350.00726" r="5.0"  style="fill:rgb(50.18272,50.18272,195.25867);opacity:1.0" />
<circle cx="687.1717" cy="355.0088" r="5.0"  style="fill:rgb(51.719727,51.719727,193.4289);opacity:1.0" />
<circle cx="694.34344" cy="318.34174" r="5.0"  style="fill:rgb(40.451702,40.451702,206.8432);opacity:1.0" />
<circle cx="701.51514" cy="304.1427" r="5.0"  style="fill:rgb(36.088257,36.088257,212.03778);opacity:1.0" />
<circle cx="708.6869" cy="289.18225" r="5.0"  style="fill:rgb(31.49081,31.49081,217.51094);opacity:1.0" />
<circle cx="715.8586" cy="309.0821" r="5.0"  style="fill:rgb(37.606163,37.606163,210.23076);opacity:1.0" />
<circle cx="723.0303" cy="296.98035" r="5.0"  style="fill:rgb(33.887222,33.887222,214.65807);opacity:1.0" />
<circle cx="730.202" cy="315.88678" r="5.0"  style="fill:rgb(39.697285,39.697285,207.74133);opacity:1.0" />
<circle cx="737.3737" cy="260.02094" r="5.0"  style="fill:rgb(22.529356,22.529356,228.17934);opacity:1.0" />
<circle cx="744.5455" cy="253.08936" r="5.0"  style="fill:rgb(20.399246,20.399246,230.71518);opacity:1.0" />
<circle cx="751.71716" cy="293.41754" r="5.0"  style="fill:rgb(32.79235,32.79235,215.96149);opacity:1.0" />
<circle cx="758.8889" cy="256.44122" r="5.0"  style="fill:rgb(21.429287,21.429287,229.48894);opacity:1.0" />
<circle cx="766.0606" cy="263.98877" r="5.0"  style="fill:rgb(23.7487,23.7487,226.72774);opacity:1.0" />
<circle cx="773.2323" cy="238.23633" r="5.0"  style="fill:rgb(15.834815,15.834815,236.14903);opacity:1.0" />
<circle cx="780.40405" cy="226.83691" r="5.0"  style="fill:rgb(12.331706,12.331706,240.3194);opacity:1.0" />
<circle cx="787.57574" cy="231.38367" r="5.0"  style="fill:rgb(13.728949,13.728949,238.656);opacity:1.0" />
<circle cx="794.7475" cy="249.16547" r="5.0"  style="fill:rgb(19.19341,19.19341,232.1507);opacity:1.0" />
<circle cx="801.9192" cy="215.79742" r="5.0"  style="fill:rgb(8.9392,8.9392,244.3581);opacity:1.0" />
<circle cx="809.0909" cy="186.70856" r="5.0"  style="fill:rgb(0.0,0.0,255.0);opacity:1.0" />
<polygon points="106.26263,891.7086 104.79317,894.68604 101.50735,895.1635 103.88499,897.48114 103.3237,900.75366 106.26263,899.2086 109.20155,900.75366 108.64027,897.48114 111.01791,895.1635 107.732086,894.68604 106.26263,891.7086 104.79317,894.68604 " style="fill:rgb(127.5,127.5,0.0);opacity:1.0" />
<polygon points="113.43434,880.5531 111.96488,883.5305 108.67906,884.008 111.0567,886.3256 110.49542,889.59814 113.43434,888.0531 116.37327,889.59814 115.81198,886.3256 118.18962,884.008 114.90381,883.5305 113.43435,880.5531 111.96488,883.5305 " style="fill:rgb(127.5,127.5,0.0);opacity:1.0" />
<polygon points="120.606064,850.3839 119.1366,853.3614 115.85078,853.83887 118.228424,856.1565 117.66713,859.429 120.60606,857.8839 123.54498,859.429 122.983696,856.1565 125.36134,853.83887 122.07552,853.3614 120.606064,850.3839 119.136604,853.3614 " style="fill:rgb(127.5,127.5,0.0);opacity:1.0" />
<polygon points="127.77778,875.11163 126.30832,878.0891 123.02249,878.5665 125.40014,880.88416 124.83885,884.15674 127.77778,882.61163 130.7167,884.15674 130.15543,880.88416 132.53307,878.5665 129.24724,878.0891 127.77778,875.11163 126.30832,878.0891 " style="fill:rgb(127.5,127.5,0.0);opacity:1.0" />
<polygon points="134.9495,831.96326 133.48004,834.9407 130.19421,835.41815 132.57185,837.7358 132.01057,841.0083 134.9495,839.46326 137.88843,841.0083 137.32713,837.7358 139.70477,835.41815 136.41896,834.9407 134.9495,831.96326 133.48004,834.9407 " style="fill:rgb(127.5,127.5,0.0);opacity:1.0" />
<polygon points="142.12122,826.7921 140.65175,829.7696 137.36594,830.2471 139.74356,832.5647 139.18228,835.8372 142.12122,834.2921 145.06015,835.8372 144.49886,832.5647 146.8765,830.2471 143.59067,829.7696 142.12122,826.7921 140.65175,829.7696 " style="fill:rgb(127.5,127.5,0.0);opacity:1.0" />
<polygon points="149.29294,829.1889 147.82347,832.1664 144.53764,832.6438 146.91528,834.9614 146.354,838.234 149.29294,836.6889 152.23186,838.234 151.67058,834.9614 154.04822,832.6438 150.76239,832.1664 149.29294,829.1889 147.82347,832.1664 " style="fill:rgb(127.5,127.5,0.0);opacity:1.0" />
<polygon points="156.46465,812.22894 154.99518,815.2064 151.70937,815.68384 154.087,818.00146 153.52573,821.27405 156.46465,819.72894 159.40358,821.27405 158.84229,818.00146 161.21992,815.68384 157.93411,815.2064 156.46465,812.22894 154.9952,815.2064 " style="fill:rgb(127.5,127.5,0.0);opacity:1.0" />
<polygon points="163.63637,840.1272 162.1669,843.1047 158.88107,843.58215 161.25873,845.8998 160.69743,849.1723 163.63637,847.6272 166.57529,849.1723 166.014,845.8998 168.39165,843.58215 165.10583,843.1047 163.63637,840.1272 162.1669,843.1047 " style="fill:rgb(127.5,127.5,0.0);opacity:1.0" />
<polygon points="170.80807,805.24567 169.33862,808.22314 166.0528,808.70056 168.43044,811.0182 167.86916,814.2908 170.80807,812.74567 173.74701,814.2908 173.18571,811.0182 175.56335,808.70056 172.27756,808.22314 170.80807,805.24567 169.33862,808.22314 " style="fill:rgb(127.5,127.5,0.0);opacity:1.0" />
<polygon points="177.9798,855.8296 176.51035,858.80707 173.22452,859.28455 175.60216,861.6022 175.04086,864.8747 177.9798,863.3296 180.91872,864.8747 180.35744,861.6022 182.73508,859.28455 179.44925,858.80707 177.9798,855.8296 176.51035,858.80707 " style="fill:rgb(127.5,127.5,0.0);opacity:1.0" />
<polygon points="185.15152,826.48865 183.68205,829.46606 180.39624,829.94354 182.77386,832.26117 182.21259,835.5337 185.1515,833.98865 188.09044,835.5337 187.52914,832.26117 189.9068,829.94354 186.62099,829.46606 185.15152,826.48865 183.68207,829.46606 " style="fill:rgb(127.5,127.5,0.0);opacity:1.0" />
<polygon points="192.32323,806.8575 190.85376,809.83496 187.56795,810.3124 189.94559,812.63 189.38431,815.9026 192.32321,814.3575 195.26215,815.9025 194.70087,812.63 197.07849,810.3124 193.7927,809.83496 192.32321,806.8575 190.85378,809.8349 " style="fill:rgb(127.5,127.5,0.0);opacity:1.0" />
<polygon points="199.49495,821.1915 198.02548,824.169 194.73967,824.6465 197.11731,826.9641 196.55603,830.23663 199.49493,828.6915 202.43387,830.23663 201.87259,826.9641 204.25021,824.6465 200.96442,824.16907 199.49493,821.1916 198.0255,824.169 " style="fill:rgb(127.5,127.5,0.0);opacity:1.0" />
<polygon points="206.66666,827.848 205.1972,830.82544 201.91138,831.3029 204.28903,833.62054 203.72774,836.89307 206.66666,835.348 209.60559,836.89307 209.04431,833.62054 211.42195,831.3029 208.13614,830.82544 206.66667,827.848 205.1972,830.82544 " style="fill:rgb(127.5,127.5,0.0);opacity:1.0" />
<polygon points="213.83838,795.9651 212.36893,798.94257 209.0831,799.42004 211.46074,801.7377 210.89946,805.0102 213.83838,803.4651 216.77731,805.0102 216.21602,801.7377 218.59366,799.42004 215.30786,798.94257 213.83838,795.9651 212.36893,798.94257 " style="fill:rgb(127.5,127.5,0.0);opacity:1.0" />
<polygon points="221.0101,775.52844 219.54065,778.5059 216.25482,778.9834 218.63246,781.301 218.07118,784.57355 221.0101,783.02844 223.94904,784.57355 223.38774,781.301 225.76538,778.9834 222.47958,778.5059 221.0101,775.52844 219.54065,778.5059 " style="fill:rgb(127.5,127.5,0.0);opacity:1.0" />
<polygon points="228.18181,802.35516 226.71234,805.33264 223.42653,805.81006 225.80417,808.1277 225.24289,811.40027 228.18181,809.85516 231.12073,811.40027 230.55945,808.1277 232.93707,805.81006 229.65128,805.33264 228.18181,802.35516 226.71234,805.33264 " style="fill:rgb(127.5,127.5,0.0);opacity:1.0" />
<polygon points="235.35353,775.72974 233.88406,778.7072 230.59825,779.1847 232.97589,781.5023 232.41461,784.77484 235.35353,783.22974 238.29245,784.77484 237.73117,781.5023 240.1088,779.1847 236.823,778.7072 235.35353,775.7298 233.88408,778.7072 " style="fill:rgb(127.5,127.5,0.0);opacity:1.0" />
<polygon points="242.52525,807.1848 241.05579,810.16223 237.76997,810.6397 240.14761,812.95734 239.58633,816.22986 242.52525,814.6848 245.46417,816.22986 244.9029,812.95734 247.28052,810.6397 243.99472,810.16223 242.52525,807.1848 241.0558,810.16223 " style="fill:rgb(127.5,127.5,0.0);opacity:1.0" />
<polygon points="249.69696,780.3941 248.2275,783.3716 244.94168,783.849 247.31932,786.1666 246.75804,789.4392 249.69696,787.8941 252.63588,789.4392 252.0746,786.1666 254.45222,783.849 251.16643,783.3716 249.69696,780.39417 248.22751,783.3716 " style="fill:rgb(127.5,127.5,0.0);opacity:1.0" />
<polygon points="256.86868,790.25574 255.39922,793.23315 252.1134,793.71063 254.49104,796.02826 253.92976,799.3008 256.86868,797.75574 259.80762,799.3008 259.24634,796.02826 261.62396,793.71063 258.33813,793.23315 256.86868,790.25574 255.39923,793.23315 " style="fill:rgb(127.5,127.5,0.0);opacity:1.0" />
<polygon points="264.0404,766.34766 262.57092,769.3251 259.28513,769.80255 261.66278,772.1202 261.10147,775.3927 264.0404,773.84766 266.9793,775.3927 266.41803,772.1202 268.7957,769.80255 265.5099,769.3251 264.0404,766.34766 262.57095,769.3251 " style="fill:rgb(127.5,127.5,0.0);opacity:1.0" />
<polygon points="271.2121,761.6173 269.74265,764.5948 266.45685,765.0722 268.83447,767.3899 268.2732,770.66235 271.21213,769.1173 274.15103,770.6624 273.58975,767.38983 275.9674,765.07227 272.68155,764.5947 271.21213,761.6173 269.7426,764.5948 " style="fill:rgb(127.5,127.5,0.0);opacity:1.0" />
<polygon points="278.38385,812.8204 276.91437,815.79785 273.62854,816.27527 276.0062,818.5929 275.44492,821.8655 278.38385,820.3204 281.32275,821.8655 280.76147,818.5929 283.1391,816.27527 279.8533,815.79785 278.38385,812.8204 276.91437,815.79785 " style="fill:rgb(127.5,127.5,0.0);opacity:1.0" />
<polygon points="285.55554,753.0263 284.0861,756.0038 280.8003,756.4812 283.17792,758.7988 282.61664,762.0714 285.55557,760.5263 288.49448,762.0714 287.9332,758.7988 290.31085,756.4812 287.025,756.0038 285.55557,753.0263 284.08606,756.0038 " style="fill:rgb(127.5,127.5,0.0);opacity:1.0" />
<polygon points="292.72726,744.6282 291.2578,747.60565 287.972,748.0831 290.3496,750.40076 289.78833,753.6733 292.7273,752.1282 295.6662,753.6733 295.10492,750.40076 297.48254,748.0831 294.19672,747.60565 292.7273,744.6282 291.25778,747.6057 " style="fill:rgb(127.5,127.5,0.0);opacity:1.0" />
<polygon points="299.899,782.7477 298.4295,785.72516 295.1437,786.20264 297.52136,788.52026 296.96008,791.7928 299.899,790.2477 302.8379,791.7928 302.2766,788.52026 304.65424,786.20264 301.36847,785.72516 299.899,782.7477 298.42953,785.72516 " style="fill:rgb(127.5,127.5,0.0);opacity:1.0" />
<polygon points="307.0707,736.3404 305.60126,739.3179 302.31543,739.7953 304.69305,742.113 304.13177,745.3855 307.07074,743.8404 310.00964,745.3855 309.44836,742.1129 311.826,739.79535 308.54016,739.3179 307.07074,736.3404 305.60123,739.3179 " style="fill:rgb(127.5,127.5,0.0);opacity:1.0" />
<polygon points="314.24243,744.09503 312.77295,747.0725 309.48712,747.5499 311.86478,749.86755 311.30347,753.14014 314.24243,751.59503 317.18134,753.14014 316.62006,749.86755 318.99768,747.5499 315.71185,747.0725 314.24243,744.09503 312.77295,747.0725 " style="fill:rgb(127.5,127.5,0.0);opacity:1.0" />
<polygon points="321.41412,761.3094 319.94467,764.28687 316.65887,764.7643 319.0365,767.0819 318.47522,770.3545 321.41415,768.8094 324.35306,770.3545 323.79178,767.0819 326.16943,764.7643 322.88358,764.28687 321.41415,761.3094 319.94464,764.28687 " style="fill:rgb(127.5,127.5,0.0);opacity:1.0" />
<polygon points="328.58588,735.148 327.1164,738.1255 323.83057,738.6029 326.20822,740.92053 325.6469,744.1931 328.58588,742.648 331.52478,744.1931 330.9635,740.92053 333.34113,738.6029 330.0553,738.1255 328.58588,735.148 327.1164,738.1255 " style="fill:rgb(127.5,127.5,0.0);opacity:1.0" />
<polygon points="335.75757,779.6205 334.2881,782.5979 331.0023,783.0754 333.37994,785.393 332.81866,788.6655 335.75757,787.1205 338.69647,788.6655 338.1352,785.393 340.51282,783.0754 337.22705,782.5979 335.75757,779.6205 334.28812,782.5979 " style="fill:rgb(127.5,127.5,0.0);opacity:1.0" />
<polygon points="342.9293,779.1792 341.45984,782.1566 338.174,782.63416 340.55164,784.9518 339.99036,788.22424 342.9293,786.6792 345.86823,788.22424 345.30695,784.9518 347.68457,782.63416 344.39874,782.1567 342.9293,779.1792 341.45984,782.1566 " style="fill:rgb(127.5,127.5,0.0);opacity:1.0" />
<polygon points="350.101,756.3109 348.63153,759.2884 345.34573,759.7658 347.7234,762.0835 347.16208,765.35596 350.101,763.8109 353.03992,765.356 352.47864,762.08344 354.8563,759.76587 351.57043,759.2883 350.101,756.3109 348.63153,759.2884 " style="fill:rgb(127.5,127.5,0.0);opacity:1.0" />
<polygon points="357.27274,758.25226 355.80328,761.22974 352.51746,761.70715 354.89508,764.0248 354.3338,767.29736 357.27274,765.75226 360.21164,767.29736 359.6504,764.0248 362.028,761.7072 358.7422,761.22974 357.27277,758.25226 355.80325,761.22974 " style="fill:rgb(127.5,127.5,0.0);opacity:1.0" />
<polygon points="364.44443,728.3534 362.97498,731.3309 359.68915,731.80835 362.0668,734.126 361.5055,737.3985 364.44443,735.8534 367.38333,737.3985 366.82205,734.126 369.1997,731.80835 365.91388,731.33093 364.44446,728.35345 362.97498,731.33093 " style="fill:rgb(127.5,127.5,0.0);opacity:1.0" />
<polygon points="371.61615,710.5696 370.1467,713.54706 366.86087,714.02454 369.23853,716.34216 368.67722,719.6147 371.61615,718.0696 374.55505,719.6147 373.99377,716.34216 376.37143,714.02454 373.0856,713.5471 371.61618,710.56964 370.1467,713.5471 " style="fill:rgb(127.5,127.5,0.0);opacity:1.0" />
<polygon points="378.78787,717.53467 377.31842,720.5121 374.0326,720.98956 376.41025,723.3072 375.84894,726.5797 378.78787,725.0346 381.72678,726.5797 381.1655,723.3072 383.54315,720.98956 380.25732,720.5121 378.7879,717.53467 377.31842,720.5121 " style="fill:rgb(127.5,127.5,0.0);opacity:1.0" />
<polygon points="385.9596,712.489 384.49014,715.46643 381.2043,715.9439 383.58197,718.26154 383.02066,721.53406 385.9596,719.989 388.8985,721.53406 388.33722,718.26154 390.71487,715.944 387.42905,715.4665 385.95963,712.489 384.49014,715.4665 " style="fill:rgb(127.5,127.5,0.0);opacity:1.0" />
<polygon points="393.13132,729.81396 391.66187,732.7914 388.37604,733.26886 390.7537,735.5865 390.19238,738.859 393.13132,737.31396 396.07022,738.859 395.50894,735.5865 397.8866,733.2689 394.60077,732.79144 393.13135,729.81396 391.66187,732.79144 " style="fill:rgb(127.5,127.5,0.0);opacity:1.0" />
<polygon points="400.30304,704.3593 398.8336,707.3368 395.54776,707.8142 397.9254,710.13184 397.3641,713.40436 400.30304,711.85925 403.24194,713.4044 402.68066,710.13184 405.05832,707.8142 401.7725,707.3368 400.30307,704.3593 398.8336,707.3368 " style="fill:rgb(127.5,127.5,0.0);opacity:1.0" />
<polygon points="407.47473,720.88184 406.00528,723.8593 402.71945,724.33673 405.0971,726.65436 404.5358,729.9269 407.47473,728.38184 410.41364,729.92694 409.85236,726.65436 412.23,724.3368 408.94418,723.8593 407.47476,720.88184 406.00528,723.8593 " style="fill:rgb(127.5,127.5,0.0);opacity:1.0" />
<polygon points="414.64645,721.5995 413.177,724.5769 409.89117,725.0544 412.26883,727.372 411.70752,730.64453 414.64645,729.0994 417.58536,730.64453 417.02408,727.372 419.40173,725.0544 416.1159,724.5769 414.64648,721.5995 413.177,724.5769 " style="fill:rgb(127.5,127.5,0.0);opacity:1.0" />
<polygon points="421.81818,710.26794 420.34872,713.24536 417.0629,713.72284 419.44055,716.04047 418.87924,719.313 421.81818,717.76794 424.75708,719.313 424.1958,716.04047 426.57346,713.7229 423.28763,713.2454 421.8182,710.26794 420.34872,713.2454 " style="fill:rgb(127.5,127.5,0.0);opacity:1.0" />
<polygon points="428.9899,737.3344 427.52045,740.3119 424.23462,740.7893 426.61227,743.10693 426.05096,746.3795 428.9899,744.8344 431.9288,746.3795 431.36752,743.10693 433.74518,740.78937 430.45935,740.3119 428.98993,737.3344 427.52045,740.3119 " style="fill:rgb(127.5,127.5,0.0);opacity:1.0" />
<polygon points="436.16162,724.79346 434.69217,727.7709 431.40634,728.24835 433.784,730.566 433.2227,733.8385 436.16162,732.2934 439.10052,733.8385 438.53925,730.566 440.9169,728.24835 437.63107,727.7709 436.16165,724.79346 434.69217,727.7709 " style="fill:rgb(127.5,127.5,0.0);opacity:1.0" />
<polygon points="443.33334,673.5962 441.8639,676.57367 438.57806,677.0511 440.95572,679.3687 440.3944,682.64124 443.33334,681.0962 446.27225,682.6413 445.71097,679.3687 448.08862,677.05115 444.8028,676.57367 443.33337,673.5962 441.8639,676.57367 " style="fill:rgb(127.5,127.5,0.0);opacity:1.0" />
<polygon points="450.50504,726.6602 449.03558,729.6377 445.74976,730.1151 448.1274,732.43274 447.5661,735.70526 450.50504,734.16016 453.44394,735.7053 452.88266,732.43274 455.2603,730.1151 451.9745,729.6377 450.50507,726.6602 449.03558,729.6377 " style="fill:rgb(127.5,127.5,0.0);opacity:1.0" />
<polygon points="457.67676,680.54724 456.2073,683.5247 452.92148,684.00214 455.29913,686.31976 454.73782,689.5923 457.67676,688.04724 460.61566,689.59235 460.05438,686.31976 462.43204,684.0022 459.1462,683.5247 457.6768,680.54724 456.2073,683.5247 " style="fill:rgb(127.5,127.5,0.0);opacity:1.0" />
<polygon points="464.84848,665.5855 463.37903,668.563 460.0932,669.0404 462.47086,671.35803 461.90955,674.63055 464.84848,673.08545 467.78738,674.6306 467.2261,671.35803 469.60376,669.0404 466.31793,668.563 464.8485,665.5855 463.37903,668.563 " style="fill:rgb(127.5,127.5,0.0);opacity:1.0" />
<polygon points="472.0202,672.3684 470.55075,675.3459 467.26492,675.82336 469.64258,678.141 469.08127,681.4135 472.0202,679.8684 474.9591,681.4135 474.39783,678.141 476.77548,675.82336 473.48965,675.3459 472.02023,672.3684 470.55075,675.3459 " style="fill:rgb(127.5,127.5,0.0);opacity:1.0" />
<polygon points="479.19193,685.24084 477.72247,688.2183 474.43665,688.6958 476.8143,691.0134 476.253,694.28595 479.19193,692.74084 482.13083,694.28595 481.56955,691.0134 483.9472,688.6958 480.66138,688.2184 479.19196,685.2409 477.72247,688.2184 " style="fill:rgb(127.5,127.5,0.0);opacity:1.0" />
<polygon points="486.36365,699.1375 484.8942,702.115 481.60837,702.5924 483.98602,704.91003 483.4247,708.1826 486.36365,706.6375 489.30255,708.1826 488.74127,704.91003 491.11893,702.59247 487.8331,702.115 486.36368,699.1376 484.8942,702.115 " style="fill:rgb(127.5,127.5,0.0);opacity:1.0" />
<polygon points="493.53534,656.869 492.0659,659.8465 488.78006,660.3239 491.1577,662.64154 490.5964,665.91406 493.53534,664.369 496.47424,665.9141 495.91296,662.64154 498.29062,660.324 495.0048,659.8465 493.53537,656.869 492.0659,659.8465 " style="fill:rgb(127.5,127.5,0.0);opacity:1.0" />
<polygon points="500.70706,686.8107 499.2376,689.7882 495.95178,690.2656 498.32944,692.58325 497.76813,695.85583 500.70706,694.3107 503.64597,695.85583 503.0847,692.58325 505.46234,690.2657 502.1765,689.7882 500.7071,686.8108 499.2376,689.7882 " style="fill:rgb(127.5,127.5,0.0);opacity:1.0" />
<polygon points="507.87878,675.3236 506.40933,678.3011 503.1235,678.7785 505.50116,681.0961 504.93985,684.36865 507.87878,682.8236 510.8177,684.3687 510.2564,681.0961 512.63403,678.77856 509.34824,678.3011 507.8788,675.3236 506.40933,678.3011 " style="fill:rgb(127.5,127.5,0.0);opacity:1.0" />
<polygon points="515.05054,699.092 513.58105,702.06946 510.29523,702.5469 512.67285,704.8645 512.1116,708.1371 515.05054,706.592 517.9894,708.1371 517.4281,704.8645 519.8058,702.54694 516.51996,702.06946 515.05054,699.092 513.58105,702.06946 " style="fill:rgb(127.5,127.5,0.0);opacity:1.0" />
<polygon points="522.2222,655.77966 520.7528,658.7571 517.4669,659.23456 519.8446,661.5522 519.2833,664.8247 522.2222,663.2796 525.16113,664.8247 524.59985,661.5522 526.97754,659.23456 523.69165,658.7571 522.2223,655.77966 520.7528,658.7571 " style="fill:rgb(127.5,127.5,0.0);opacity:1.0" />
<polygon points="529.3939,667.38745 527.9245,670.3649 524.6387,670.8424 527.01636,673.16003 526.455,676.43256 529.3939,674.88745 532.3329,676.43256 531.7716,673.16003 534.14923,670.8424 530.8634,670.3649 529.394,667.38745 527.9245,670.3649 " style="fill:rgb(127.5,127.5,0.0);opacity:1.0" />
<polygon points="536.5657,688.1439 535.0962,691.1214 531.81036,691.5989 534.188,693.9165 533.6267,697.189 536.5657,695.6439 539.5045,697.189 538.94324,693.9165 541.3209,691.5989 538.0351,691.12146 536.5657,688.144 535.0962,691.12146 " style="fill:rgb(127.5,127.5,0.0);opacity:1.0" />
<polygon points="543.73737,690.25476 542.26794,693.2322 538.98206,693.70966 541.35974,696.0273 540.79846,699.2998 543.73737,697.7547 546.6763,699.2998 546.115,696.0273 548.4927,693.70966 545.2068,693.2322 543.7374,690.25476 542.26794,693.2322 " style="fill:rgb(127.5,127.5,0.0);opacity:1.0" />
<polygon points="550.90906,633.6922 549.43964,636.6697 546.1538,637.1471 548.53143,639.4647 547.9702,642.7373 550.90906,641.1922 553.848,642.7373 553.28674,639.4648 555.66437,637.1471 552.37854,636.6697 550.90906,633.6922 549.43964,636.6697 " style="fill:rgb(127.5,127.5,0.0);opacity:1.0" />
<polygon points="558.0808,686.228 556.6113,689.20544 553.32556,689.6829 555.7032,692.00055 555.14185,695.2731 558.0808,693.728 561.0197,695.2731 560.45844,692.00055 562.83606,689.683 559.5503,689.2055 558.0808,686.228 556.6113,689.2055 " style="fill:rgb(127.5,127.5,0.0);opacity:1.0" />
<polygon points="565.25256,651.94275 563.7831,654.9202 560.49725,655.3977 562.8749,657.71533 562.3136,660.98785 565.25256,659.44275 568.1914,660.98785 567.6301,657.71533 570.0078,655.3977 566.722,654.9203 565.25256,651.9428 563.7831,654.9203 " style="fill:rgb(127.5,127.5,0.0);opacity:1.0" />
<polygon points="572.4242,615.67114 570.9548,618.64856 567.66895,619.1261 570.0466,621.44366 569.48535,624.7162 572.4242,623.17114 575.36316,624.7162 574.8019,621.4437 577.1795,619.12604 573.8937,618.6486 572.4242,615.67114 570.9548,618.64856 " style="fill:rgb(127.5,127.5,0.0);opacity:1.0" />
<polygon points="579.59595,634.1227 578.12646,637.1001 574.8407,637.57764 577.21826,639.8952 576.65704,643.1677 579.59595,641.6227 582.5349,643.1677 581.9736,639.89526 584.3512,637.5776 581.0654,637.10016 579.59595,634.1227 578.12646,637.1001 " style="fill:rgb(127.5,127.5,0.0);opacity:1.0" />
<polygon points="586.7677,612.3208 585.2982,615.2983 582.0124,615.77576 584.39,618.0934 583.82874,621.3659 586.76764,619.8208 589.7066,621.3659 589.14526,618.0934 591.52295,615.77576 588.2372,615.29834 586.76764,612.3208 585.2982,615.2983 " style="fill:rgb(127.5,127.5,0.0);opacity:1.0" />
<polygon points="593.9394,661.0341 592.47,664.0116 589.1841,664.489 591.56177,666.80664 591.0005,670.0792 593.9394,668.5341 596.8783,670.0792 596.317,666.80664 598.6947,664.4891 595.4088,664.0116 593.93945,661.0341 592.47,664.0116 " style="fill:rgb(127.5,127.5,0.0);opacity:1.0" />
<polygon points="601.1111,612.6611 599.64166,615.63855 596.35583,616.11597 598.73346,618.4336 598.17224,621.7062 601.1111,620.1611 604.05005,621.7062 603.4888,618.43365 605.8664,616.11597 602.58057,615.63855 601.1111,612.6611 599.64166,615.63855 " style="fill:rgb(127.5,127.5,0.0);opacity:1.0" />
<polygon points="608.28284,601.9211 606.81335,604.89856 603.5276,605.376 605.90515,607.6936 605.34393,610.9662 608.28284,609.4211 611.2218,610.9662 610.66046,607.69366 613.0381,605.376 609.7523,604.89856 608.28284,601.92114 606.81335,604.89856 " style="fill:rgb(127.5,127.5,0.0);opacity:1.0" />
<polygon points="615.4545,645.3428 613.98505,648.3202 610.6992,648.79767 613.0769,651.11536 612.5156,654.3878 615.4545,652.8428 618.39343,654.3878 617.83215,651.1153 620.2098,648.79767 616.924,648.32025 615.4545,645.3428 613.9851,648.3202 " style="fill:rgb(127.5,127.5,0.0);opacity:1.0" />
<polygon points="622.6263,604.412 621.1568,607.3894 617.871,607.86694 620.2486,610.1846 619.6874,613.4571 622.6263,611.912 625.56525,613.45703 625.00397,610.1846 627.3816,607.8668 624.09576,607.3894 622.6262,604.412 621.1568,607.3894 " style="fill:rgb(127.5,127.5,0.0);opacity:1.0" />
<polygon points="629.798,625.10974 628.3285,628.08716 625.04266,628.5647 627.4203,630.8823 626.8591,634.15485 629.798,632.60974 632.73694,634.1548 632.17566,630.8823 634.5533,628.5646 631.26746,628.08716 629.7979,625.10974 628.3285,628.08716 " style="fill:rgb(127.5,127.5,0.0);opacity:1.0" />
<polygon points="636.96967,638.17487 635.5002,641.15234 632.21436,641.62976 634.592,643.9474 634.03076,647.22 636.96967,645.6749 639.9086,647.22 639.34735,643.9474 641.725,641.62976 638.43915,641.1523 636.9696,638.1748 635.5002,641.1523 " style="fill:rgb(127.5,127.5,0.0);opacity:1.0" />
<polygon points="644.1414,638.83484 642.67194,641.81226 639.3861,642.2898 641.76373,644.6074 641.2025,647.87994 644.1414,646.3349 647.0804,647.8799 646.5191,644.6074 648.8967,642.2897 645.6109,641.81226 644.14136,638.83484 642.67194,641.81226 " style="fill:rgb(127.5,127.5,0.0);opacity:1.0" />
<polygon points="651.3131,615.16406 649.8436,618.1415 646.5578,618.61896 648.9354,620.9366 648.3742,624.2091 651.3131,622.66406 654.2521,624.2091 653.6908,620.9366 656.0684,618.6189 652.7826,618.1415 651.31305,615.164 649.8436,618.1415 " style="fill:rgb(127.5,127.5,0.0);opacity:1.0" />
<polygon points="658.48486,606.94946 657.0154,609.9269 653.72955,610.4044 656.1072,612.72205 655.54596,615.99457 658.48486,614.44946 661.4238,615.9945 660.86255,612.72205 663.2402,610.4043 659.95435,609.9269 658.4848,606.94946 657.0154,609.9269 " style="fill:rgb(127.5,127.5,0.0);opacity:1.0" />
<polygon points="665.65656,614.9949 664.1871,617.9723 660.90125,618.4498 663.2789,620.76746 662.71765,624.04 665.65656,622.4949 668.5955,624.0399 668.03424,620.76746 670.41187,618.4497 667.12604,617.9723 665.6565,614.9949 664.1871,617.9723 " style="fill:rgb(127.5,127.5,0.0);opacity:1.0" />
<polygon points="672.8283,630.49774 671.3588,633.4752 668.073,633.95264 670.4506,636.27026 669.8894,639.54285 672.8283,637.9978 675.7673,639.54285 675.206,636.27026 677.5836,633.95264 674.2978,633.47516 672.82825,630.4977 671.3588,633.47516 " style="fill:rgb(127.5,127.5,0.0);opacity:1.0" />
<polygon points="680.0,615.34973 678.5305,618.32715 675.2447,618.8047 677.6223,621.1223 677.0611,624.39484 680.0,622.84973 682.93896,624.3948 682.3777,621.1223 684.7553,618.80457 681.4695,618.32715 679.99994,615.34973 678.5305,618.32715 " style="fill:rgb(127.5,127.5,0.0);opacity:1.0" />
<polygon points="687.1717,590.27783 685.7022,593.25525 682.4164,593.7328 684.794,596.0504 684.2328,599.32294 687.1717,597.77783 690.11066,599.3229 689.5494,596.0504 691.927,593.73267 688.6412,593.25525 687.17163,590.27783 685.7022,593.25525 " style="fill:rgb(127.5,127.5,0.0);opacity:1.0" />
<polygon points="694.34344,605.31476 692.87396,608.29224 689.58813,608.76965 691.96576,611.0873 691.40454,614.35986 694.34344,612.8148 697.2824,614.35986 696.7211,611.0873 699.09875,608.76965 695.8129,608.2922 694.3434,605.3147 692.87396,608.2922 " style="fill:rgb(127.5,127.5,0.0);opacity:1.0" />
<polygon points="701.51514,567.20917 700.04565,570.18665 696.7598,570.66406 699.13745,572.9817 698.57623,576.2543 701.51514,574.7092 704.4541,576.2543 703.8928,572.9817 706.27045,570.66406 702.9846,570.1866 701.5151,567.2091 700.04565,570.1866 " style="fill:rgb(127.5,127.5,0.0);opacity:1.0" />
<polygon points="708.6869,575.08044 707.2174,578.05786 703.9316,578.5354 706.3092,580.853 705.748,584.12555 708.6869,582.58044 711.62585,584.1255 711.0646,580.853 713.4422,578.5353 710.1564,578.05786 708.6868,575.08044 707.2174,578.05786 " style="fill:rgb(127.5,127.5,0.0);opacity:1.0" />
<polygon points="715.8586,578.3601 714.3891,581.3375 711.1033,581.81506 713.4809,584.1327 712.9197,587.4052 715.8586,585.8601 718.79755,587.40515 718.23627,584.1327 720.6139,581.81494 717.32806,581.3375 715.8585,578.3601 714.3891,581.3375 " style="fill:rgb(127.5,127.5,0.0);opacity:1.0" />
<polygon points="723.0303,573.6914 721.5608,576.6688 718.27496,577.14636 720.6526,579.464 720.0914,582.7365 723.0303,581.1914 725.96924,582.73645 725.40796,579.464 727.7856,577.14624 724.49976,576.6688 723.0302,573.6914 721.5608,576.6688 " style="fill:rgb(127.5,127.5,0.0);opacity:1.0" />
<polygon points="730.202,595.2372 728.73254,598.2146 725.4467,598.69214 727.82434,601.00977 727.2631,604.2823 730.202,602.7372 733.141,604.2822 732.5797,601.00977 734.95734,598.692 731.6715,598.2146 730.20197,595.2372 728.73254,598.2146 " style="fill:rgb(127.5,127.5,0.0);opacity:1.0" />
<polygon points="737.3737,574.6034 735.90424,577.5808 732.6184,578.05835 734.99603,580.376 734.4348,583.6485 737.3737,582.1034 740.3127,583.64844 739.7514,580.376 742.129,578.0582 738.8432,577.5808 737.37366,574.6034 735.90424,577.5808 " style="fill:rgb(127.5,127.5,0.0);opacity:1.0" />
<polygon points="744.5455,554.0278 743.076,557.00525 739.79016,557.48267 742.1678,559.8003 741.60657,563.0729 744.5455,561.52783 747.48444,563.0729 746.92316,559.8003 749.3008,557.48267 746.01495,557.0052 744.5454,554.0277 743.076,557.0052 " style="fill:rgb(127.5,127.5,0.0);opacity:1.0" />
<polygon points="751.71716,573.9276 750.2477,576.905 746.96185,577.38257 749.3395,579.7002 748.77826,582.9727 751.71716,581.4276 754.6561,582.97266 754.09485,579.7002 756.4725,577.38245 753.18665,576.905 751.7171,573.9276 750.2477,576.905 " style="fill:rgb(127.5,127.5,0.0);opacity:1.0" />
<polygon points="758.8889,584.2759 757.41943,587.2533 754.1336,587.73083 756.5112,590.04846 755.95,593.321 758.8889,591.7759 761.8279,593.3209 761.2666,590.04846 763.6442,587.7307 760.3584,587.2533 758.88885,584.2759 757.41943,587.2533 " style="fill:rgb(127.5,127.5,0.0);opacity:1.0" />
<polygon points="766.0606,574.07465 764.5911,577.0521 761.3053,577.52954 763.6829,579.84717 763.1217,583.11975 766.0606,581.5747 768.9996,583.11975 768.4383,579.84717 770.8159,577.52954 767.5301,577.05206 766.06055,574.0746 764.5911,577.05206 " style="fill:rgb(127.5,127.5,0.0);opacity:1.0" />
<polygon points="773.2323,545.88947 771.7628,548.86694 768.477,549.34436 770.8546,551.662 770.2934,554.9346 773.2323,553.3895 776.17126,554.9346 775.61,551.662 777.9876,549.34436 774.7018,548.8669 773.23224,545.8894 771.7628,548.8669 " style="fill:rgb(127.5,127.5,0.0);opacity:1.0" />
<polygon points="780.40405,550.1319 778.9346,553.1094 775.64874,553.5868 778.02637,555.9044 777.46515,559.177 780.40405,557.63196 783.343,559.177 782.78174,555.9044 785.15936,553.5868 781.87354,553.1093 780.404,550.13184 778.9346,553.1093 " style="fill:rgb(127.5,127.5,0.0);opacity:1.0" />
<polygon points="787.57574,539.30664 786.10626,542.28406 782.82043,542.7616 785.19806,545.0792 784.63684,548.35175 787.57574,546.80664 790.5147,548.3517 789.9534,545.0792 792.33105,542.7615 789.0452,542.28406 787.5757,539.30664 786.10626,542.28406 " style="fill:rgb(127.5,127.5,0.0);opacity:1.0" />
<polygon points="794.7475,541.0101 793.278,543.98755 789.9922,544.46497 792.3698,546.7826 791.8086,550.0552 794.7475,548.51013 797.68646,550.0552 797.1252,546.7826 799.5028,544.46497 796.217,543.9875 794.74744,541.01 793.278,543.9875 " style="fill:rgb(127.5,127.5,0.0);opacity:1.0" />
<polygon points="801.9192,525.2335 800.4497,528.21094 797.1639,528.6885 799.5415,531.0061 798.9803,534.2786 801.9192,532.7335 804.85815,534.27856 804.2969,531.0061 806.6745,528.68835 803.3887,528.21094 801.9191,525.2335 800.4497,528.21094 " style="fill:rgb(127.5,127.5,0.0);opacity:1.0" />
<polygon points="809.0909,534.9884 807.6214,537.9658 804.3356,538.44336 806.7132,540.761 806.152,544.0335 809.0909,542.4884 812.02985,544.03345 811.46857,540.761 813.8462,538.44324 810.56036,537.9658 809.0908,534.9884 807.6214,537.9658 " style="fill:rgb(127.5,127.5,0.0);opacity:1.0" />
<text x="456.15" y="92.5" stroke="#000000" stroke-width="1.2" transform="rotate(-0.0,456.15,92.5)">SCATTER PLOT</text>
<text x="476.8" y="950.0" stroke="#000000" stroke-width="1.2" transform="rotate(-0.0,476.8,950.0)">X-AXIS</text>
<text x="50.0" y="546.6" stroke="#000000" stroke-width="1.2" transform="rotate(-90.0,50.0,546.6)">Y-AXIS</text>
<rect x="120.0" y="120.0" width="67.880005" height="40.0" style="fill:rgb(255.0,255.0,255.0);stroke-width:2.0;stroke:rgb(0.0,0.0,0.0);opacity:0.7" />
<circle cx="132.0" cy="132.0" r="4.0"  style="fill:rgb(214.2,214.2,0.0);opacity:1.0" />
<text x="144.0" y="136.0" stroke="#000000" stroke-width="1.2" transform="rotate(-0.0,144.0,136.0)">Plot 1</text>
<polygon points="132.0,144.0 130.82443,146.38196 128.19577,146.76392 130.09789,148.61804 129.64885,151.23608 132.0,150.0 134.35115,151.23608 133.90211,148.61804 135.80424,146.76392 133.17558,146.38196 131.99998,144.0 130.82443,146.38196 " style="fill:rgb(127.5,127.5,0.0);opacity:1.0" />
<text x="144.0" y="152.0" stroke="#000000" stroke-width="1.2" transform="rotate(-0.0,144.0,152.0)">Plot 2</text>
</svg>