<svg height="1000.0" width="1000.0" version="4.0" xmlns="http://www.w3.org/2000/svg" xmlns:xlink= "http://www.w3.org/1999/xlink">
<rect width="100%" height="100%" fill="white"/>
<rect x="100.0" y="100.0" width="800.0" height="800.0" style="fill:rgb(255,255,255);stroke-width:2.0;stroke:rgb(0,0,0);opacity:1" />
<line x1="163.63637" y1="903.0" x2="163.63637" y2="900.0" style="stroke:rgb(0.0,0.0,0.0);stroke-width:2.0;opacity:1.0;stroke-linecap:round" />
<text x="154.09636" y="915.0" stroke="#000000" stroke-width="0.7" transform="rotate(-0.0,154.09636,915.0)">10.0</text>
<line x1="235.35353" y1="903.0" x2="235.35353" y2="900.0" style="stroke:rgb(0.0,0.0,0.0);stroke-width:2.0;opacity:1.0;stroke-linecap:round" />
<text x="225.49353" y="915.0" stroke="#000000" stroke-width="0.7" transform="rotate(-0.0,225.49353,915.0)">20.0</text>
<line x1="307.0707" y1="903.0" x2="307.0707" y2="900.0" style="stroke:rgb(0.0,0.0,0.0);stroke-width:2.0;opacity:1.0;stroke-linecap:round" />
<text x="297.2107" y="915.0" stroke="#000000" stroke-width="0.7" transform="rotate(-0.0,297.2107,915.0)">30.0</text>
<line x1="378.78787" y1="903.0" x2="378.78787" y2="900.0" style="stroke:rgb(0.0,0.0,0.0);stroke-width:2.0;opacity:1.0;stroke-linecap:round" />
<text x="368.92786" y="915.0" stroke="#000000" stroke-width="0.7" transform="rotate(-0.0,368.92786,915.0)">40.0</text>
<line x1="450.50504" y1="903.0" x2="450.50504" y2="900.0" style="stroke:rgb(0.0,0.0,0.0);stroke-width:2.0;opacity:1.0;stroke-linecap:round" />
<text x="440.64502" y="915.0" stroke="#000000" stroke-width="0.7" transform="rotate(-0.0,440.64502,915.0)">49.0</text>
<line x1="522.22217" y1="903.0" x2="522.22217" y2="900.0" style="stroke:rgb(0.0,0.0,0.0);stroke-width:2.0;opacity:1.0;stroke-linecap:round" />
<text x="512.3622" y="915.0" stroke="#000000" stroke-width="0.7" transform="rotate(-0.0,512.3622,915.0)">59.0</text>
<line x1="593.93933" y1="903.0" x2="593.93933" y2="900.0" style="stroke:rgb(0.0,0.0,0.0);stroke-width:2.0;opacity:1.0;stroke-linecap:round" />
<text x="584.07935" y="915.0" stroke="#000000" stroke-width="0.7" transform="rotate(-0.0,584.07935,915.0)">69.0</text>
<line x1="665.65656" y1="903.0" x2="665.65656" y2="900.0" style="stroke:rgb(0.0,0.0,0.0);stroke-width:2.0;opacity:1.0;stroke-linecap:round" />
<text x="655.7966" y="915.0" stroke="#000000" stroke-width="0.7" transform="rotate(-0.0,655.7966,915.0)">80.0</text>
<line x1="737.3737" y1="903.0" x2="737.3737" y2="900.0" style="stroke:rgb(0.0,0.0,0.0);stroke-width:2.0;opacity:1.0;stroke-linecap:round" />
<text x="727.51373" y="915.0" stroke="#000000" stroke-width="0.7" transform="rotate(-0.0,727.51373,915.0)">90.0</text>
<line x1="809.0909" y1="903.0" x2="809.0909" y2="900.0" style="stroke:rgb(0.0,0.0,0.0);stroke-width:2.0;opacity:1.0;stroke-linecap:round" />
<text x="799.2309" y="915.0" stroke="#000000" stroke-width="0.7" transform="rotate(-0.0,799.2309,915.0)">99.0</text>
<line x1="880.80804" y1="903.0" x2="880.80804" y2="900.0" style="stroke:rgb(0.0,0.0,0.0);stroke-width:2.0;opacity:1.0;stroke-linecap:round" />
<text x="869.82806" y="915.0" stroke="#000000" stroke-width="0.7" transform="rotate(-0.0,869.82806,915.0)">109.0</text>
<line x1="97.0" y1="879.0546" x2="100.0" y2="879.0546" style="stroke:rgb(0.0,0.0,0.0);stroke-width:2.0;opacity:1.0;stroke-linecap:round" />
<text x="62.16" y="883.0546" stroke="#000000" stroke-width="0.7" transform="rotate(-0.0,62.16,883.0546)">0.0</text>
<line x1="97.0" y1="546.92096" x2="100.0" y2="546.92096" style="stroke:rgb(0.0,0.0,0.0);stroke-width:2.0;opacity:1.0;stroke-linecap:round" />
<text x="57.04" y="550.92096" stroke="#000000" stroke-width="0.7" transform="rotate(-0.0,57.04,550.92096)">100.0</text>
<line x1="97.0" y1="214.78723" x2="100.0" y2="214.78723" style="stroke:rgb(0.0,0.0,0.0);stroke-width:2.0;opacity:1.0;stroke-linecap:round" />
<text x="56.4" y="218.78723" stroke="#000000" stroke-width="0.7" transform="rotate(-0.0,56.4,218.78723)">200.0</text>
<circle cx="106.26263" cy="897.6437" r="5.0"  style="fill:rgb(214.2,214.2,0.0);opacity:1.0" />
<circle cx="113.43434" cy="884.3187" r="5.0"  style="fill:rgb(210.18001,210.18001,4.785701);opacity:1.0" />
<circle cx="120.606064" cy="880.2183" r="5.0"  style="fill:rgb(208.94293,208.94293,6.2583966);opacity:1.0" />
<circle cx="127.77778" cy="850.87964" r="5.0"  style="fill:rgb(200.09177,200.09177,16.79551);opacity:1.0" />
<circle cx="134.9495" cy="871.31274" r="5.0"  style="fill:rgb(206.25621,206.25621,9.456883);opacity:1.0" />
<circle cx="142.12122" cy="811.6924" r="5.0"  style="fill:rgb(188.26935,188.26935,30.869812);opacity:1.0" />
<circle cx="149.29294" cy="837.142" r="5.0"  style="fill:rgb(195.94725,195.94725,21.729454);opacity:1.0" />
<circle cx="156.46465" cy="832.3922" r="5.0"  style="fill:rgb(194.51428,194.51428,23.435362);opacity:1.0" />
<circle cx="163.63637" cy="783.3037" r="5.0"  style="fill:rgb(179.70476,179.70476,41.065746);opacity:1.0" />
<circle cx="170.80807" cy="809.27216" r="5.0"  style="fill:rgb(187.53918,187.53918,31.739054);opacity:1.0" />
<circle cx="177.9798" cy="809.14124" r="5.0"  style="fill:rgb(187.4997,187.4997,31.786074);opacity:1.0" />
<circle cx="185.15152" cy="767.8755" r="5.0"  style="fill:rgb(175.05022,175.05022,46.606865);opacity:1.0" />
<circle cx="192.32323" cy="764.40546" r="5.0"  style="fill:rgb(174.00334,174.00334,47.853146);opacity:1.0" />
<circle cx="199.49495" cy="793.981" r="5.0"  style="fill:rgb(182.92601,182.92601,37.230938);opacity:1.0" />
<circle cx="206.66666" cy="804.74817" r="5.0"  style="fill:rgb(186.17433,186.17433,33.36388);opacity:1.0" />
<circle cx="213.83838" cy="767.3304" r="5.0"  style="fill:rgb(174.88579,174.88579,46.802643);opacity:1.0" />
<circle cx="221.0101" cy="764.3055" r="5.0"  style="fill:rgb(173.97318,173.97318,47.889057);opacity:1.0" />
<circle cx="228.18181" cy="744.62256" r="5.0"  style="fill:rgb(168.03503,168.03503,54.958282);opacity:1.0" />
<circle cx="235.35353" cy="769.2897" r="5.0"  style="fill:rgb(175.47687,175.47687,46.09896);opacity:1.0" />
<circle cx="242.52525" cy="730.46564" r="5.0"  style="fill:rgb(163.76404,163.76404,60.042797);opacity:1.0" />
<circle cx="249.69696" cy="734.808" r="5.0"  style="fill:rgb(165.07407,165.07407,58.483234);opacity:1.0" />
<circle cx="256.86868" cy="699.1022" r="5.0"  style="fill:rgb(154.302,154.302,71.307144);opacity:1.0" />
<circle cx="264.0404" cy="718.7333" r="5.0"  style="fill:rgb(160.22452,160.22452,64.25654);opacity:1.0" />
<circle cx="271.2121" cy="700.26117" r="5.0"  style="fill:rgb(154.65164,154.65164,70.8909);opacity:1.0" />
<circle cx="278.38385" cy="716.21277" r="5.0"  style="fill:rgb(159.4641,159.4641,65.1618);opacity:1.0" />
<circle cx="285.55554" cy="700.2505" r="5.0"  style="fill:rgb(154.64842,154.64842,70.89473);opacity:1.0" />
<circle cx="292.72726" cy="696.3158" r="5.0"  style="fill:rgb(153.46138,153.46138,72.30788);opacity:1.0" />
<circle cx="299.899" cy="660.126" r="5.0"  style="fill:rgb(142.54326,142.54326,85.305626);opacity:1.0" />
<circle cx="307.0707" cy="674.42053" r="5.0"  style="fill:rgb(146.85579,146.85579,80.17167);opacity:1.0" />
<circle cx="314.24243" cy="650.03644" r="5.0"  style="fill:rgb(139.49934,139.49934,88.92935);opacity:1.0" />
<circle cx="321.41412" cy="653.61816" r="5.0"  style="fill:rgb(140.5799,140.5799,87.64297);opacity:1.0" />
<circle cx="328.58588" cy="686.84485" r="5.0"  style="fill:rgb(150.60408,150.60408,75.70942);opacity:1.0" />
<circle cx="335.75757" cy="667.60284" r="5.0"  style="fill:rgb(144.79897,144.79897,82.620285);opacity:1.0" />
<circle cx="342.9293" cy="618.7064" r="5.0"  style="fill:rgb(130.04738,130.04738,100.18169);opacity:1.0" />
<circle cx="350.101" cy="619.7611" r="5.0"  style="fill:rgb(130.36557,130.36557,99.80289);opacity:1.0" />
<circle cx="357.27274" cy="611.3755" r="5.0"  style="fill:rgb(127.83572,127.83572,102.81461);opacity:1.0" />
<circle cx="364.44443" cy="600.0814" r="5.0"  style="fill:rgb(124.42841,124.42841,106.87094);opacity:1.0" />
<circle cx="371.61615" cy="588.1157" r="5.0"  style="fill:rgb(120.818474,120.818474,111.16849);opacity:1.0" />
<circle cx="378.78787" cy="632.021" r="5.0"  style="fill:rgb(134.06427,134.06427,95.39967);opacity:1.0" />
<circle cx="385.9596" cy="622.79224" r="5.0"  style="fill:rgb(131.28004,131.28004,98.714226);opacity:1.0" />
<circle cx="393.13132" cy="593.74176" r="5.0"  style="fill:rgb(122.515785,122.515785,109.14786);opacity:1.0" />
<circle cx="400.30304" cy="560.4309" r="5.0"  style="fill:rgb(112.466225,112.466225,121.111626);opacity:1.0" />
<circle cx="407.47473" cy="554.8196" r="5.0"  style="fill:rgb(110.77336,110.77336,123.12696);opacity:1.0" />
<circle cx="414.64645" cy="562.6791" r="5.0"  style="fill:rgb(113.14448,113.14448,120.304184);opacity:1.0" />
<circle cx="421.81818" cy="549.1345" r="5.0"  style="fill:rgb(109.05822,109.05822,125.16878);opacity:1.0" />
<circle cx="428.9899" cy="551.6656" r="5.0"  style="fill:rgb(109.82184,109.82184,124.25973);opacity:1.0" />
<circle cx="436.16162" cy="555.3961" r="5.0"  style="fill:rgb(110.947296,110.947296,122.91988);opacity:1.0" />
<circle cx="443.33334" cy="542.89734" r="5.0"  style="fill:rgb(107.176544,107.176544,127.408875);opacity:1.0" />
<circle cx="450.50504" cy="567.88855" r="5.0"  style="fill:rgb(114.71615,114.71615,118.43315);opacity:1.0" />
<circle cx="457.67676" cy="565.11755" r="5.0"  style="fill:rgb(113.88017,113.88017,119.42837);opacity:1.0" />
<circle cx="464.84848" cy="521.7141" r="5.0"  style="fill:rgb(100.78578,100.78578,135.01692);opacity:1.0" />
<circle cx="472.0202" cy="515.1538" r="5.0"  style="fill:rgb(98.806595,98.806595,137.37311);opacity:1.0" />
<circle cx="479.19193" cy="518.38666" r="5.0"  style="fill:rgb(99.78191,99.78191,136.212);opacity:1.0" />
<circle cx="486.36365" cy="542.8713" r="5.0"  style="fill:rgb(107.16867,107.16867,127.41824);opacity:1.0" />
<circle cx="493.53534" cy="474.0747" r="5.0"  style="fill:rgb(86.41342,86.41342,152.12688);opacity:1.0" />
<circle cx="500.70706" cy="502.81537" r="5.0"  style="fill:rgb(95.084206,95.084206,141.80452);opacity:1.0" />
<circle cx="507.87878" cy="506.26306" r="5.0"  style="fill:rgb(96.12433,96.12433,140.56627);opacity:1.0" />
<circle cx="515.05054" cy="500.42813" r="5.0"  style="fill:rgb(94.364,94.364,142.6619);opacity:1.0" />
<circle cx="522.2222" cy="450.30005" r="5.0"  style="fill:rgb(79.24087,79.24087,160.66563);opacity:1.0" />
<circle cx="529.3939" cy="486.8614" r="5.0"  style="fill:rgb(90.27104,90.27104,147.53447);opacity:1.0" />
<circle cx="536.5657" cy="447.9314" r="5.0"  style="fill:rgb(78.52624,78.52624,161.51639);opacity:1.0" />
<circle cx="543.73737" cy="479.44934" r="5.0"  style="fill:rgb(88.034904,88.034904,150.19653);opacity:1.0" />
<circle cx="550.90906" cy="457.6839" r="5.0"  style="fill:rgb(81.46849,81.46849,158.0137);opacity:1.0" />
<circle cx="558.0808" cy="415.98096" r="5.0"  style="fill:rgb(68.8871,68.8871,172.99153);opacity:1.0" />
<circle cx="565.25256" cy="441.06342" r="5.0"  style="fill:rgb(76.454254,76.454254,163.98303);opacity:1.0" />
<circle cx="572.4242" cy="459.08997" r="5.0"  style="fill:rgb(81.892685,81.892685,157.50871);opacity:1.0" />
<circle cx="579.59595" cy="433.01746" r="5.0"  style="fill:rgb(74.02687,74.02687,166.87277);opacity:1.0" />
<circle cx="586.7677" cy="419.81403" r="5.0"  style="fill:rgb(70.04352,70.04352,171.61485);opacity:1.0" />
<circle cx="593.9394" cy="381.42584" r="5.0"  style="fill:rgb(58.462173,58.462173,185.40218);opacity:1.0" />
<circle cx="601.1111" cy="404.1996" r="5.0"  style="fill:rgb(65.33279,65.33279,177.22287);opacity:1.0" />
<circle cx="608.28284" cy="388.33832" r="5.0"  style="fill:rgb(60.54761,60.54761,182.91951);opacity:1.0" />
<circle cx="615.4545" cy="407.24573" r="5.0"  style="fill:rgb(66.25179,66.25179,176.12881);opacity:1.0" />
<circle cx="622.6263" cy="400.4475" r="5.0"  style="fill:rgb(64.200836,64.200836,178.57043);opacity:1.0" />
<circle cx="629.798" cy="397.60492" r="5.0"  style="fill:rgb(63.343243,63.343243,179.59137);opacity:1.0" />
<circle cx="636.96967" cy="349.7556" r="5.0"  style="fill:rgb(48.907574,48.907574,196.7767);opacity:1.0" />
<circle cx="644.1414" cy="354.42963" r="5.0"  style="fill:rgb(50.317684,50.317684,195.09799);opacity:1.0" />
<circle cx="651.3131" cy="359.7539" r="5.0"  style="fill:rgb(51.923965,51.923965,193.18576);opacity:1.0" />
<circle cx="658.48486" cy="355.36438" r="5.0"  style="fill:rgb(50.59969,50.59969,194.76227);opacity:1.0" />
<circle cx="665.65656" cy="375.70508" r="5.0"  style="fill:rgb(56.73627,56.73627,187.45682);opacity:1.0" />
<circle cx="672.8283" cy="367.94604" r="5.0"  style="fill:rgb(54.39545,54.39545,190.24352);opacity:1.0" />
<circle cx="680.0" cy="327.7964" r="5.0"  style="fill:rgb(42.282692,42.282692,204.66347);opacity:1.0" />
<circle cx="687.1717" cy="327.2351" r="5.0"  style="fill:rgb(42.113358,42.113358,204.86505);opacity:1.0" />
<circle cx="694.34344" cy="291.72595" r="5.0"  style="fill:rgb(31.400597,31.400597,217.61833);opacity:1.0" />
<circle cx="701.51514" cy="281.38617" r="5.0"  style="fill:rgb(28.281199,28.281199,221.33191);opacity:1.0" />
<circle cx="708.6869" cy="338.60504" r="5.0"  style="fill:rgb(45.543564,45.543564,200.78146);opacity:1.0" />
<circle cx="715.8586" cy="334.11053" r="5.0"  style="fill:rgb(44.18761,44.18761,202.3957);opacity:1.0" />
<circle cx="723.0303" cy="285.53107" r="5.0"  style="fill:rgb(29.531666,29.531666,219.84325);opacity:1.0" />
<circle cx="730.202" cy="263.8725" r="5.0"  style="fill:rgb(22.997496,22.997496,227.62202);opacity:1.0" />
<circle cx="737.3737" cy="288.28937" r="5.0"  style="fill:rgb(30.363815,30.363815,218.8526);opacity:1.0" />
<circle cx="744.5455" cy="273.63055" r="5.0"  style="fill:rgb(25.941397,25.941397,224.11739);opacity:1.0" />
<circle cx="751.71716" cy="284.1855" r="5.0"  style="fill:rgb(29.125717,29.125717,220.32652);opacity:1.0" />
<circle cx="758.8889" cy="285.08453" r="5.0"  style="fill:rgb(29.396946,29.396946,220.00363);opacity:1.0" />
<circle cx="766.0606" cy="266.36456" r="5.0"  style="fill:rgb(23.749325,23.749325,226.72699);opacity:1.0" />
<circle cx="773.2323" cy="255.37689" r="5.0"  style="fill:rgb(20.434444,20.434444,230.67328);opacity:1.0" />
<circle cx="780.40405" cy="208.65533" r="5.0"  style="fill:rgb(6.3390226,6.3390226,247.45354);opacity:1.0" />
<circle cx="787.57574" cy="250.79102" r="5.0"  style="fill:rgb(19.05094,19.05094,232.32031);opacity:1.0" />
<circle cx="794.7475" cy="199.41205" r="5.0"  style="fill:rgb(3.5504115,3.5504115,250.77332);opacity:1.0" />
<circle cx="801.9192" cy="239.62091" r="5.0"  style="fill:rgb(15.681021,15.681021,236.33212);opacity:1.0" />
<circle cx="809.0909" cy="187.64368" r="5.0"  style="fill:rgb(1.2767315e-05,1.2767315e-05,254.99998);opacity:1.0" />
<polygon points="106.26263,867.11774 104.79317,870.0952 101.50735,870.57263 103.88499,872.89026 103.3237,876.1628 106.26263,874.61774 109.20155,876.16284 108.64027,872.89026 111.017914,870.57263 107.73209,870.0952 106.26263,867.11774 104.79317,870.0952 " style="fill:rgb(127.5,127.5,0.0);opacity:1.0" />
<polygon points="113.43434,887.4258 111.96488,890.4032 108.67906,890.8807 111.0567,893.1983 110.495415,896.4708 113.43434,894.9258 116.37327,896.4708 115.81198,893.1983 118.18963,890.8807 114.90381,890.4032 113.43434,887.4258 111.96488,890.4032 " style="fill:rgb(127.5,127.5,0.0);opacity:1.0" />
<polygon points="120.606064,841.2517 119.1366,844.2291 115.85078,844.7066 118.228424,847.02423 117.66713,850.29675 120.60606,848.7517 123.54498,850.29675 122.9837,847.02423 125.36134,844.7066 122.07552,844.2291 120.606064,841.2517 119.1366,844.2291 " style="fill:rgb(127.5,127.5,0.0);opacity:1.0" />
<polygon points="127.77778,824.581 126.30832,827.5585 123.02249,828.0359 125.40013,830.3535 124.83885,833.6261 127.77778,832.081 130.7167,833.6261 130.15543,830.3535 132.53305,828.0359 129.24724,827.5585 127.77777,824.581 126.30831,827.5585 " style="fill:rgb(127.5,127.5,0.0);opacity:1.0" />
<polygon points="134.9495,883.8623 133.48004,886.8398 130.19421,887.31726 132.57185,889.6349 132.01057,892.9074 134.9495,891.3623 137.88843,892.9074 137.32713,889.6349 139.70477,887.31726 136.41896,886.8398 134.9495,883.8623 133.48004,886.8398 " style="fill:rgb(127.5,127.5,0.0);opacity:1.0" />
<polygon points="142.12122,844.75476 140.65175,847.7322 137.36594,848.20966 139.74358,850.5273 139.18228,853.7998 142.12122,852.25476 145.06013,853.7998 144.49884,850.5273 146.8765,848.20966 143.59067,847.7322 142.12122,844.75476 140.65175,847.7322 " style="fill:rgb(127.5,127.5,0.0);opacity:1.0" />
<polygon points="149.29294,839.1787 147.82347,842.1561 144.53764,842.6336 146.91528,844.95123 146.354,848.22375 149.29294,846.6787 152.23186,848.22375 151.67056,844.95123 154.04822,842.6336 150.76239,842.1561 149.29294,839.1787 147.82347,842.1561 " style="fill:rgb(127.5,127.5,0.0);opacity:1.0" />
<polygon points="156.46465,831.75903 154.99518,834.73645 151.70937,835.2139 154.087,837.53156 153.52573,840.8041 156.46465,839.25903 159.40358,840.8041 158.84229,837.53156 161.21992,835.2139 157.93411,834.73645 156.46466,831.75903 154.9952,834.73645 " style="fill:rgb(127.5,127.5,0.0);opacity:1.0" />
<polygon points="163.63637,861.15515 162.1669,864.13257 158.88107,864.61005 161.25873,866.9277 160.69743,870.2002 163.63637,868.65515 166.57529,870.2002 166.014,866.9277 168.39165,864.61005 165.10583,864.13257 163.63637,861.15515 162.1669,864.13257 " style="fill:rgb(127.5,127.5,0.0);opacity:1.0" />
<polygon points="170.80807,846.7212 169.33862,849.6986 166.0528,850.1761 168.43044,852.4937 167.86914,855.76624 170.80807,854.2212 173.747,855.76624 173.18571,852.4937 175.56335,850.1761 172.27753,849.6986 170.80807,846.7212 169.33862,849.6986 " style="fill:rgb(127.5,127.5,0.0);opacity:1.0" />
<polygon points="177.9798,867.2822 176.51035,870.25964 173.22452,870.7371 175.60216,873.05475 175.04086,876.3273 177.9798,874.7822 180.91872,876.3273 180.35744,873.05475 182.73508,870.7371 179.44925,870.25964 177.9798,867.2822 176.51035,870.25964 " style="fill:rgb(127.5,127.5,0.0);opacity:1.0" />
<polygon points="185.15152,798.176 183.68205,801.1535 180.39624,801.631 182.77386,803.9486 182.21259,807.2211 185.1515,805.676 188.09044,807.2211 187.52914,803.9486 189.9068,801.631 186.62099,801.1535 185.15152,798.176 183.68207,801.1535 " style="fill:rgb(127.5,127.5,0.0);opacity:1.0" />
<polygon points="192.32323,804.6391 190.85376,807.6166 187.56795,808.094 189.94559,810.4116 189.38431,813.6842 192.32321,812.1391 195.26215,813.6842 194.70087,810.4116 197.07849,808.094 193.7927,807.6166 192.32321,804.6391 190.85378,807.6166 " style="fill:rgb(127.5,127.5,0.0);opacity:1.0" />
<polygon points="199.49495,834.73 198.02548,837.7074 194.73967,838.1849 197.11731,840.5025 196.55603,843.775 199.49495,842.23 202.43387,843.775 201.87259,840.5025 204.25023,838.1849 200.96442,837.7074 199.49496,834.73 198.02548,837.7074 " style="fill:rgb(127.5,127.5,0.0);opacity:1.0" />
<polygon points="206.66666,810.5968 205.1972,813.5742 201.91138,814.0517 204.28903,816.3693 203.72774,819.64185 206.66666,818.0968 209.60559,819.64185 209.04431,816.3693 211.42194,814.0517 208.13614,813.5742 206.66666,810.5968 205.1972,813.5742 " style="fill:rgb(127.5,127.5,0.0);opacity:1.0" />
<polygon points="213.83838,816.0004 212.36893,818.9779 209.0831,819.4553 211.46074,821.77295 210.89946,825.04553 213.83838,823.5004 216.77731,825.04553 216.21602,821.77295 218.59366,819.4553 215.30786,818.9779 213.83838,816.0004 212.36893,818.9779 " style="fill:rgb(127.5,127.5,0.0);opacity:1.0" />
<polygon points="221.0101,814.42395 219.54065,817.40137 216.25482,817.87885 218.63246,820.1965 218.07118,823.469 221.0101,821.92395 223.94904,823.469 223.38774,820.1965 225.76538,817.87885 222.47958,817.40137 221.0101,814.42395 219.54065,817.40137 " style="fill:rgb(127.5,127.5,0.0);opacity:1.0" />
<polygon points="228.18181,816.4499 226.71234,819.42737 223.42653,819.9048 225.80417,822.2224 225.24289,825.495 228.18181,823.9499 231.12073,825.495 230.55945,822.2224 232.93707,819.9048 229.65128,819.42737 228.18181,816.44995 226.71234,819.42737 " style="fill:rgb(127.5,127.5,0.0);opacity:1.0" />
<polygon points="235.35353,820.8169 233.88406,823.7944 230.59825,824.27185 232.97589,826.5895 232.41461,829.862 235.35353,828.3169 238.29245,829.862 237.73117,826.5895 240.1088,824.27185 236.823,823.79443 235.35353,820.81696 233.88408,823.7944 " style="fill:rgb(127.5,127.5,0.0);opacity:1.0" />
<polygon points="242.52525,819.3195 241.05579,822.297 237.76997,822.7744 240.14761,825.09204 239.58633,828.3646 242.52525,826.8195 245.46417,828.3646 244.9029,825.09204 247.28052,822.7744 243.99472,822.297 242.52525,819.3196 241.0558,822.297 " style="fill:rgb(127.5,127.5,0.0);opacity:1.0" />
<polygon points="249.69696,822.8201 248.2275,825.7976 244.94168,826.275 247.31932,828.59265 246.75804,831.86523 249.69696,830.3201 252.63588,831.8652 252.0746,828.59265 254.45222,826.275 251.16643,825.7976 249.69696,822.8201 248.22751,825.7976 " style="fill:rgb(127.5,127.5,0.0);opacity:1.0" />
<polygon points="256.86868,808.806 255.39922,811.7835 252.1134,812.261 254.49104,814.5786 253.92976,817.85114 256.86868,816.306 259.80762,817.85114 259.24634,814.5786 261.62396,812.261 258.33813,811.7835 256.86868,808.806 255.39923,811.7835 " style="fill:rgb(127.5,127.5,0.0);opacity:1.0" />
<polygon points="264.0404,799.3522 262.57092,802.32965 259.28513,802.8071 261.66278,805.12476 261.1015,808.3973 264.0404,806.8522 266.9793,808.3972 266.41803,805.12476 268.79565,802.8071 265.5099,802.32965 264.0404,799.3522 262.57095,802.32965 " style="fill:rgb(127.5,127.5,0.0);opacity:1.0" />
<polygon points="271.2121,823.1244 269.74265,826.10187 266.45685,826.57935 268.83447,828.897 268.2732,832.1695 271.2121,830.6244 274.15103,832.1695 273.58975,828.897 275.96738,826.57935 272.68158,826.10187 271.2121,823.12445 269.74268,826.10187 " style="fill:rgb(127.5,127.5,0.0);opacity:1.0" />
<polygon points="278.38385,792.4603 276.91437,795.43774 273.62854,795.9152 276.0062,798.23285 275.44492,801.5054 278.38385,799.9603 281.32275,801.5054 280.76147,798.23285 283.1391,795.9152 279.8533,795.43774 278.38385,792.4603 276.91437,795.43774 " style="fill:rgb(127.5,127.5,0.0);opacity:1.0" />
<polygon points="285.55554,790.54956 284.0861,793.527 280.8003,794.00446 283.17792,796.3221 282.61664,799.5946 285.55554,798.04956 288.49448,799.5946 287.9332,796.3221 290.31082,794.00446 287.02502,793.527 285.55554,790.54956 284.08612,793.527 " style="fill:rgb(127.5,127.5,0.0);opacity:1.0" />
<polygon points="292.72726,785.2983 291.2578,788.27576 287.972,788.7532 290.3496,791.0708 289.78833,794.3434 292.72726,792.7983 295.6662,794.3434 295.10492,791.0708 297.48254,788.7532 294.19672,788.27576 292.72726,785.2983 291.2578,788.27576 " style="fill:rgb(127.5,127.5,0.0);opacity:1.0" />
<polygon points="299.899,795.3675 298.4295,798.345 295.1437,798.8224 297.52136,801.14 296.96008,804.4126 299.899,802.8675 302.8379,804.4126 302.2766,801.14 304.65424,798.8224 301.36847,798.345 299.899,795.3675 298.42953,798.345 " style="fill:rgb(127.5,127.5,0.0);opacity:1.0" />
<polygon points="307.0707,756.8685 305.60126,759.846 302.31543,760.3234 304.69305,762.6411 304.13177,765.9136 307.07074,764.3685 310.00964,765.91364 309.44836,762.64105 311.826,760.3235 308.54016,759.84595 307.07074,756.8685 305.60123,759.846 " style="fill:rgb(127.5,127.5,0.0);opacity:1.0" />
<polygon points="314.24243,738.39307 312.77295,741.37054 309.48712,741.848 311.86478,744.16565 311.30347,747.4382 314.24243,745.89307 317.18134,747.4382 316.62006,744.16565 318.99768,741.848 315.71185,741.37054 314.24243,738.39307 312.77295,741.3706 " style="fill:rgb(127.5,127.5,0.0);opacity:1.0" />
<polygon points="321.41412,757.521 319.94467,760.4985 316.65887,760.97595 319.0365,763.2936 318.47522,766.5661 321.41415,765.021 324.35306,766.5661 323.79178,763.2935 326.16943,760.97595 322.88358,760.4985 321.41415,757.521 319.94464,760.4985 " style="fill:rgb(127.5,127.5,0.0);opacity:1.0" />
<polygon points="328.58588,759.7649 327.1164,762.7423 323.83057,763.2198 326.20822,765.5374 325.6469,768.80994 328.58588,767.2649 331.52478,768.80994 330.9635,765.53735 333.34113,763.2198 330.0553,762.7423 328.58588,759.7649 327.1164,762.7423 " style="fill:rgb(127.5,127.5,0.0);opacity:1.0" />
<polygon points="335.75757,785.49255 334.2881,788.47003 331.0023,788.9475 333.37994,791.26514 332.81866,794.53766 335.75757,792.99255 338.69647,794.53766 338.1352,791.26514 340.51282,788.9475 337.22705,788.4701 335.75757,785.4926 334.28812,788.47003 " style="fill:rgb(127.5,127.5,0.0);opacity:1.0" />
<polygon points="342.9293,771.82306 341.45984,774.80054 338.174,775.27795 340.55164,777.5956 339.99036,780.86816 342.9293,779.32306 345.86823,780.8681 345.30695,777.5956 347.68457,775.27795 344.39874,774.80054 342.9293,771.82306 341.45984,774.80054 " style="fill:rgb(127.5,127.5,0.0);opacity:1.0" />
<polygon points="350.101,774.48315 348.63153,777.46063 345.34573,777.9381 347.7234,780.25574 347.1621,783.52826 350.101,781.98315 353.03992,783.52826 352.47864,780.25574 354.85626,777.9381 351.5705,777.46063 350.101,774.4832 348.63156,777.46063 " style="fill:rgb(127.5,127.5,0.0);opacity:1.0" />
<polygon points="357.27274,721.2196 355.80328,724.197 352.51746,724.6745 354.89508,726.9921 354.3338,730.26465 357.27274,728.7196 360.21164,730.26465 359.6504,726.9921 362.028,724.6745 358.7422,724.197 357.27277,721.2196 355.80325,724.197 " style="fill:rgb(127.5,127.5,0.0);opacity:1.0" />
<polygon points="364.44443,716.08093 362.97498,719.05835 359.68915,719.5358 362.0668,721.85345 361.5055,725.126 364.44443,723.58093 367.38333,725.126 366.82205,721.85345 369.1997,719.5359 365.91388,719.0584 364.44446,716.08093 362.97498,719.0584 " style="fill:rgb(127.5,127.5,0.0);opacity:1.0" />
<polygon points="371.61615,766.78723 370.1467,769.7647 366.86087,770.2422 369.23853,772.5598 368.67722,775.83234 371.61615,774.28723 374.55508,775.83234 373.99377,772.5598 376.37143,770.2422 373.0856,769.7648 371.61615,766.78723 370.1467,769.7648 " style="fill:rgb(127.5,127.5,0.0);opacity:1.0" />
<polygon points="378.78787,712.7446 377.31842,715.7221 374.0326,716.1996 376.41025,718.5172 375.84894,721.78973 378.78787,720.2446 381.72678,721.78973 381.1655,718.5172 383.54315,716.1996 380.25732,715.72217 378.7879,712.7447 377.31842,715.72217 " style="fill:rgb(127.5,127.5,0.0);opacity:1.0" />
<polygon points="385.9596,767.7112 384.49014,770.68866 381.2043,771.16614 383.58197,773.48376 383.02066,776.7563 385.9596,775.2112 388.89853,776.7563 388.33722,773.48376 390.71487,771.16614 387.42905,770.68866 385.9596,767.7112 384.49014,770.68866 " style="fill:rgb(127.5,127.5,0.0);opacity:1.0" />
<polygon points="393.13132,728.1823 391.66187,731.1598 388.37604,731.6372 390.7537,733.95483 390.19238,737.22736 393.13132,735.68225 396.07022,737.2274 395.50894,733.95483 397.8866,731.6372 394.60077,731.1598 393.13135,728.1823 391.66187,731.1598 " style="fill:rgb(127.5,127.5,0.0);opacity:1.0" />
<polygon points="400.30304,722.8366 398.8336,725.8141 395.54776,726.2915 397.9254,728.60913 397.3641,731.8817 400.30304,730.3366 403.24194,731.8817 402.68066,728.60913 405.05832,726.29156 401.7725,725.8141 400.30307,722.8367 398.8336,725.8141 " style="fill:rgb(127.5,127.5,0.0);opacity:1.0" />
<polygon points="407.47473,732.1069 406.00528,735.08435 402.71945,735.56177 405.0971,737.8794 404.5358,741.152 407.47473,739.6069 410.41364,741.152 409.85236,737.8794 412.23,735.5618 408.94418,735.08435 407.47476,732.10693 406.00528,735.08435 " style="fill:rgb(127.5,127.5,0.0);opacity:1.0" />
<polygon points="414.64645,728.4511 413.177,731.4286 409.89117,731.906 412.26883,734.22363 411.70752,737.4962 414.64645,735.9511 417.58536,737.4962 417.02408,734.22363 419.40173,731.90607 416.1159,731.4286 414.64648,728.4512 413.177,731.4286 " style="fill:rgb(127.5,127.5,0.0);opacity:1.0" />
<polygon points="421.81818,696.0544 420.34872,699.03186 417.0629,699.5093 419.44055,701.8269 418.87924,705.0995 421.81818,703.5544 424.75708,705.0995 424.1958,701.8269 426.57346,699.50934 423.28763,699.03186 421.8182,696.0544 420.34872,699.03186 " style="fill:rgb(127.5,127.5,0.0);opacity:1.0" />
<polygon points="428.9899,737.7317 427.52045,740.70917 424.23462,741.18665 426.61227,743.5043 426.05096,746.7768 428.9899,745.2317 431.9288,746.7768 431.36752,743.5043 433.74518,741.18665 430.45935,740.7092 428.98993,737.73175 427.52045,740.7092 " style="fill:rgb(127.5,127.5,0.0);opacity:1.0" />
<polygon points="436.16162,734.7596 434.69217,737.73706 431.40634,738.2145 433.784,740.5321 433.2227,743.8047 436.16162,742.2596 439.10052,743.8047 438.53925,740.5321 440.9169,738.21454 437.63107,737.73706 436.16165,734.75964 434.69217,737.73706 " style="fill:rgb(127.5,127.5,0.0);opacity:1.0" />
<polygon points="443.33334,699.3064 441.8639,702.2838 438.57806,702.7613 440.95572,705.0789 440.3944,708.35144 443.33334,706.80634 446.27225,708.35144 445.71097,705.0789 448.08862,702.7613 444.8028,702.2838 443.33337,699.3064 441.8639,702.2838 " style="fill:rgb(127.5,127.5,0.0);opacity:1.0" />
<polygon points="450.50504,726.03796 449.03558,729.01544 445.74976,729.49286 448.1274,731.8105 447.5661,735.083 450.50504,733.53796 453.44394,735.08307 452.88266,731.8105 455.2603,729.4929 451.9745,729.01544 450.50507,726.03796 449.03558,729.01544 " style="fill:rgb(127.5,127.5,0.0);opacity:1.0" />
<polygon points="457.67676,706.9398 456.2073,709.9173 452.92148,710.3948 455.29913,712.7124 454.73782,715.9849 457.67676,714.4398 460.61566,715.9849 460.05438,712.7124 462.43204,710.3948 459.1462,709.9173 457.6768,706.9398 456.2073,709.9173 " style="fill:rgb(127.5,127.5,0.0);opacity:1.0" />
<polygon points="464.84848,669.01666 463.37903,671.99414 460.0932,672.47156 462.47086,674.7892 461.90955,678.06177 464.84848,676.51666 467.78738,678.06177 467.2261,674.7892 469.60376,672.4716 466.31793,671.99414 464.8485,669.01666 463.37903,671.99414 " style="fill:rgb(127.5,127.5,0.0);opacity:1.0" />
<polygon points="472.0202,721.11774 470.55075,724.0952 467.26492,724.57263 469.64258,726.89026 469.08127,730.16284 472.0202,728.61774 474.9591,730.16284 474.39783,726.89026 476.77548,724.5727 473.48965,724.0952 472.02023,721.11774 470.55075,724.0952 " style="fill:rgb(127.5,127.5,0.0);opacity:1.0" />
<polygon points="479.19193,700.89526 477.72247,703.87274 474.43665,704.35016 476.8143,706.6678 476.253,709.9403 479.19193,708.39526 482.13083,709.94037 481.56955,706.6678 483.9472,704.3502 480.66138,703.87274 479.19196,700.89526 477.72247,703.87274 " style="fill:rgb(127.5,127.5,0.0);opacity:1.0" />
<polygon points="486.36365,722.26904 484.8942,725.2465 481.60837,725.724 483.98602,728.0416 483.4247,731.31415 486.36365,729.76904 489.30255,731.31415 488.74127,728.0416 491.11893,725.724 487.8331,725.2466 486.36368,722.2691 484.8942,725.2466 " style="fill:rgb(127.5,127.5,0.0);opacity:1.0" />
<polygon points="493.53534,703.4228 492.0659,706.40027 488.78006,706.8777 491.1577,709.1953 490.5964,712.4679 493.53534,710.9228 496.47424,712.4679 495.91296,709.1953 498.29062,706.87775 495.0048,706.40027 493.53537,703.42285 492.0659,706.40027 " style="fill:rgb(127.5,127.5,0.0);opacity:1.0" />
<polygon points="500.70706,661.719 499.2376,664.6964 495.95178,665.1739 498.32944,667.4915 497.76813,670.76404 500.70706,669.219 503.64597,670.76404 503.0847,667.4915 505.46234,665.17395 502.1765,664.6965 500.7071,661.719 499.2376,664.6965 " style="fill:rgb(127.5,127.5,0.0);opacity:1.0" />
<polygon points="507.87878,658.35815 506.40933,661.3356 503.1235,661.81305 505.50116,664.1307 504.93985,667.4032 507.87878,665.85815 510.8177,667.4032 510.2564,664.1307 512.63403,661.8131 509.34824,661.33563 507.8788,658.35815 506.40933,661.33563 " style="fill:rgb(127.5,127.5,0.0);opacity:1.0" />
<polygon points="515.05054,664.3259 513.58105,667.3034 510.29523,667.7808 512.67285,670.09845 512.1116,673.371 515.05054,671.8259 517.9894,673.37103 517.4281,670.09845 519.8058,667.7809 516.51996,667.3034 515.05054,664.3259 513.58105,667.3034 " style="fill:rgb(127.5,127.5,0.0);opacity:1.0" />
<polygon points="522.2222,657.50806 520.7528,660.48553 517.4669,660.963 519.8446,663.28064 519.2833,666.55316 522.2222,665.00806 525.16113,666.55316 524.59985,663.28064 526.97754,660.963 523.69165,660.48553 522.2223,657.50806 520.7528,660.48553 " style="fill:rgb(127.5,127.5,0.0);opacity:1.0" />
<polygon points="529.3939,667.6982 527.9245,670.67566 524.6387,671.1531 527.01636,673.4707 526.455,676.7432 529.3939,675.1981 532.3329,676.7433 531.7716,673.4707 534.14923,671.1531 530.8634,670.67566 529.394,667.6982 527.9245,670.67566 " style="fill:rgb(127.5,127.5,0.0);opacity:1.0" />
<polygon points="536.5657,660.57446 535.0962,663.55194 531.81036,664.0294 534.188,666.34705 533.6267,669.61957 536.5657,668.07446 539.5045,669.61957 538.94324,666.34705 541.3209,664.0294 538.0351,663.55194 536.5657,660.57446 535.0962,663.55194 " style="fill:rgb(127.5,127.5,0.0);opacity:1.0" />
<polygon points="543.73737,648.9471 542.26794,651.92456 538.98206,652.402 541.35974,654.7196 540.79846,657.9921 543.73737,656.447 546.6763,657.9922 546.115,654.7196 548.4927,652.402 545.2068,651.92456 543.7374,648.9471 542.26794,651.92456 " style="fill:rgb(127.5,127.5,0.0);opacity:1.0" />
<polygon points="550.90906,665.40594 549.43964,668.3834 546.1538,668.86084 548.5315,671.17847 547.97015,674.45105 550.90906,672.90594 553.848,674.45105 553.28674,671.17847 555.66437,668.8609 552.37854,668.3834 550.9091,665.406 549.43964,668.3834 " style="fill:rgb(127.5,127.5,0.0);opacity:1.0" />
<polygon points="558.0808,645.0213 556.6113,647.9988 553.32556,648.4762 555.7032,650.7938 555.14185,654.0664 558.0808,652.5213 561.0197,654.0664 560.45844,650.7938 562.83606,648.47626 559.5503,647.9988 558.0808,645.0213 556.6113,647.9988 " style="fill:rgb(127.5,127.5,0.0);opacity:1.0" />
<polygon points="565.25256,633.29376 563.7831,636.27124 560.49725,636.74866 562.8749,639.0663 562.3136,642.33887 565.2525,640.79376 568.19147,642.33887 567.6301,639.06635 570.0078,636.74866 566.72205,636.27124 565.2525,633.29376 563.7831,636.27124 " style="fill:rgb(127.5,127.5,0.0);opacity:1.0" />
<polygon points="572.4242,628.92285 570.9548,631.90027 567.66895,632.37775 570.0466,634.6953 569.48535,637.9679 572.4242,636.42285 575.36316,637.9679 574.8019,634.69543 577.1795,632.3777 573.8937,631.90027 572.4242,628.92285 570.9548,631.90027 " style="fill:rgb(127.5,127.5,0.0);opacity:1.0" />
<polygon points="579.59595,665.30035 578.12646,668.27783 574.8407,668.75525 577.2183,671.0729 576.657,674.34546 579.59595,672.80035 582.53485,674.34546 581.9736,671.0729 584.3512,668.7553 581.0654,668.27783 579.59595,665.30035 578.12646,668.27783 " style="fill:rgb(127.5,127.5,0.0);opacity:1.0" />
<polygon points="586.7677,622.5748 585.2982,625.55225 582.0124,626.0298 584.39,628.34735 583.82874,631.6199 586.76764,630.0748 589.7066,631.6199 589.14526,628.3474 591.52295,626.0297 588.2372,625.5523 586.76764,622.5748 585.2982,625.55225 " style="fill:rgb(127.5,127.5,0.0);opacity:1.0" />
<polygon points="593.9394,639.1024 592.47,642.07983 589.1841,642.5573 591.56177,644.8749 591.0005,648.14746 593.93933,646.6024 596.8783,648.14746 596.317,644.87494 598.69464,642.55725 595.4089,642.07983 593.93933,639.1024 592.47,642.07983 " style="fill:rgb(127.5,127.5,0.0);opacity:1.0" />
<polygon points="601.1111,645.7305 599.64166,648.708 596.35583,649.1854 598.7335,651.50305 598.1722,654.77563 601.1111,653.2305 604.05005,654.77563 603.4888,651.50305 605.8664,649.1855 602.58057,648.708 601.11115,645.7306 599.64166,648.708 " style="fill:rgb(127.5,127.5,0.0);opacity:1.0" />
<polygon points="608.28284,636.7602 606.81335,639.7377 603.5276,640.2151 605.90515,642.5327 605.34393,645.8053 608.28284,644.2602 611.2218,645.80524 610.66046,642.5328 613.0381,640.2151 609.7523,639.7377 608.28284,636.76025 606.81335,639.7377 " style="fill:rgb(127.5,127.5,0.0);opacity:1.0" />
<polygon points="615.4545,636.04767 613.98505,639.02515 610.6992,639.50256 613.07684,641.8202 612.5156,645.0928 615.4545,643.5477 618.3935,645.0927 617.8322,641.8202 620.2098,639.50256 616.924,639.0251 615.45447,636.0477 613.98505,639.0251 " style="fill:rgb(127.5,127.5,0.0);opacity:1.0" />
<polygon points="622.6263,659.0581 621.1568,662.0356 617.871,662.51306 620.24866,664.8307 619.6873,668.1032 622.6263,666.5581 625.5652,668.1033 625.0039,664.8307 627.3816,662.51306 624.09576,662.0356 622.62634,659.0581 621.15686,662.0356 " style="fill:rgb(127.5,127.5,0.0);opacity:1.0" />
<polygon points="629.798,622.2903 628.3285,625.26776 625.04266,625.74524 627.4203,628.06287 626.8591,631.33545 629.798,629.79034 632.73694,631.3354 632.17566,628.06287 634.5533,625.7452 631.26746,625.2677 629.7979,622.2903 628.3285,625.2677 " style="fill:rgb(127.5,127.5,0.0);opacity:1.0" />
<polygon points="636.96967,639.43317 635.5002,642.41064 632.21436,642.88806 634.592,645.2057 634.03076,648.4783 636.96967,646.9332 639.9086,648.4783 639.34735,645.2057 641.725,642.88806 638.43915,642.4106 636.9696,639.4331 635.5002,642.4106 " style="fill:rgb(127.5,127.5,0.0);opacity:1.0" />
<polygon points="644.1414,589.06506 642.67194,592.04254 639.3861,592.52 641.76373,594.83765 641.2025,598.1102 644.1414,596.5651 647.0804,598.11017 646.5191,594.83765 648.8967,592.51996 645.6109,592.0425 644.14136,589.06506 642.67194,592.0425 " style="fill:rgb(127.5,127.5,0.0);opacity:1.0" />
<polygon points="651.3131,639.5384 649.8436,642.51587 646.55786,642.9933 648.9355,645.3109 648.3742,648.58344 651.3131,647.0383 654.252,648.58344 653.69073,645.3109 656.06836,642.9933 652.7826,642.51587 651.3131,639.53845 649.8436,642.5158 " style="fill:rgb(127.5,127.5,0.0);opacity:1.0" />
<polygon points="658.48486,641.4735 657.0154,644.4509 653.72955,644.9284 656.10724,647.24603 655.5459,650.51855 658.48486,648.97345 661.42377,650.5186 660.8625,647.24603 663.2402,644.92847 659.95435,644.4509 658.4849,641.4735 657.01544,644.4509 " style="fill:rgb(127.5,127.5,0.0);opacity:1.0" />
<polygon points="665.65656,579.7217 664.1871,582.69916 660.90125,583.17664 663.2789,585.49426 662.71765,588.76685 665.65656,587.22174 668.5955,588.7668 668.03424,585.49426 670.41187,583.1766 667.12604,582.6991 665.6565,579.7217 664.1871,582.6991 " style="fill:rgb(127.5,127.5,0.0);opacity:1.0" />
<polygon points="672.8283,603.72815 671.3588,606.70557 668.073,607.1831 670.4506,609.50073 669.8894,612.77325 672.8283,611.22815 675.7673,612.7732 675.206,609.50073 677.5836,607.183 674.2978,606.70557 672.82825,603.72815 671.3588,606.70557 " style="fill:rgb(127.5,127.5,0.0);opacity:1.0" />
<polygon points="680.0,614.76135 678.5305,617.73883 675.2447,618.2163 677.6223,620.53394 677.0611,623.8065 680.0,622.2614 682.93896,623.80646 682.3777,620.53394 684.7553,618.21625 681.4695,617.7388 679.99994,614.76135 678.5305,617.7388 " style="fill:rgb(127.5,127.5,0.0);opacity:1.0" />
<polygon points="687.1717,570.8511 685.7022,573.82855 682.4164,574.306 684.794,576.62366 684.2328,579.89624 687.1717,578.35114 690.11066,579.8962 689.5494,576.62366 691.927,574.30597 688.6412,573.8285 687.17163,570.8511 685.7022,573.8285 " style="fill:rgb(127.5,127.5,0.0);opacity:1.0" />
<polygon points="694.34344,619.9308 692.87396,622.9082 689.58813,623.3857 691.96576,625.7033 691.40454,628.9758 694.34344,627.4308 697.2824,628.9758 696.7211,625.7033 699.09875,623.3856 695.8129,622.9082 694.3434,619.9307 692.87396,622.9082 " style="fill:rgb(127.5,127.5,0.0);opacity:1.0" />
<polygon points="701.51514,570.76 700.04565,573.7374 696.7598,574.21497 699.13745,576.5326 698.57623,579.8051 701.51514,578.26 704.4541,579.80505 703.8928,576.5326 706.27045,574.21484 702.9846,573.7374 701.5151,570.76 700.04565,573.7374 " style="fill:rgb(127.5,127.5,0.0);opacity:1.0" />
<polygon points="708.6869,601.3951 707.2174,604.37256 703.9316,604.85 706.3092,607.1676 705.748,610.4402 708.6869,608.89514 711.62585,610.4402 711.0646,607.1676 713.4422,604.85 710.1564,604.3725 708.6868,601.395 707.2174,604.3725 " style="fill:rgb(127.5,127.5,0.0);opacity:1.0" />
<polygon points="715.8586,590.0419 714.3891,593.0193 711.1033,593.49677 713.4809,595.8144 712.9197,599.0869 715.8586,597.5419 718.79755,599.0869 718.23627,595.8144 720.6139,593.4967 717.32806,593.0193 715.8585,590.0418 714.3891,593.0193 " style="fill:rgb(127.5,127.5,0.0);opacity:1.0" />
<polygon points="723.0303,599.78253 721.5608,602.76 718.27496,603.2374 720.6526,605.55505 720.0914,608.82764 723.0303,607.2826 725.96924,608.82764 725.40796,605.55505 727.7856,603.2374 724.49976,602.75995 723.0302,599.7825 721.5608,602.75995 " style="fill:rgb(127.5,127.5,0.0);opacity:1.0" />
<polygon points="730.202,567.83325 728.73254,570.8107 725.4467,571.2882 727.82434,573.60583 727.2631,576.8784 730.202,575.3333 733.141,576.87836 732.5797,573.60583 734.95734,571.28815 731.6715,570.81067 730.20197,567.83325 728.73254,570.81067 " style="fill:rgb(127.5,127.5,0.0);opacity:1.0" />
<polygon points="737.3737,562.366 735.90424,565.3435 732.6184,565.8209 734.99603,568.13855 734.4348,571.41113 737.3737,569.8661 740.3127,571.41113 739.7514,568.13855 742.129,565.8209 738.8432,565.34344 737.37366,562.36597 735.90424,565.34344 " style="fill:rgb(127.5,127.5,0.0);opacity:1.0" />
<polygon points="744.5455,549.7215 743.076,552.699 739.79016,553.1764 742.1678,555.494 741.60657,558.7666 744.5455,557.22156 747.48444,558.7666 746.92316,555.494 749.3008,553.1764 746.01495,552.6989 744.5454,549.72144 743.076,552.6989 " style="fill:rgb(127.5,127.5,0.0);opacity:1.0" />
<polygon points="751.71716,547.0292 750.2477,550.0066 746.96185,550.48413 749.3395,552.80176 748.77826,556.0743 751.71716,554.5292 754.6561,556.0742 754.09485,552.80176 756.4725,550.484 753.18665,550.0066 751.7171,547.0292 750.2477,550.0066 " style="fill:rgb(127.5,127.5,0.0);opacity:1.0" />
<polygon points="758.8889,583.23663 757.41943,586.2141 754.1336,586.6915 756.5112,589.00916 755.95,592.28174 758.8889,590.7367 761.8279,592.28174 761.2666,589.00916 763.6442,586.6915 760.3584,586.21405 758.88885,583.2366 757.41943,586.21405 " style="fill:rgb(127.5,127.5,0.0);opacity:1.0" />
<polygon points="766.0606,575.6043 764.5911,578.5818 761.3053,579.0592 763.6829,581.37683 763.1217,584.6494 766.0606,583.1044 768.9996,584.6494 768.4383,581.37683 770.8159,579.0592 767.5301,578.5817 766.06055,575.60425 764.5911,578.5817 " style="fill:rgb(127.5,127.5,0.0);opacity:1.0" />
<polygon points="773.2323,562.03345 771.7628,565.01086 768.477,565.48834 770.8546,567.80597 770.2934,571.0785 773.2323,569.53345 776.17126,571.0785 775.61,567.80597 777.9876,565.4883 774.7018,565.01086 773.23224,562.0334 771.7628,565.01086 " style="fill:rgb(127.5,127.5,0.0);opacity:1.0" />
<polygon points="780.40405,556.25525 778.9346,559.23267 775.64874,559.7102 778.02637,562.02783 777.46515,565.30035 780.40405,563.75525 783.343,565.3003 782.78174,562.02783 785.15936,559.7101 781.87354,559.23267 780.404,556.25525 778.9346,559.23267 " style="fill:rgb(127.5,127.5,0.0);opacity:1.0" />
<polygon points="787.57574,537.694 786.10626,540.6714 782.82043,541.1489 785.19806,543.46655 784.63684,546.7391 787.57574,545.194 790.5147,546.739 789.9534,543.46655 792.33105,541.1488 789.0452,540.6714 787.5757,537.694 786.10626,540.6714 " style="fill:rgb(127.5,127.5,0.0);opacity:1.0" />
<polygon points="794.7475,540.958 793.278,543.9354 789.9922,544.41296 792.3698,546.7306 791.8086,550.0031 794.7475,548.458 797.68646,550.00305 797.1252,546.7306 799.5028,544.41284 796.217,543.9354 794.74744,540.958 793.278,543.9354 " style="fill:rgb(127.5,127.5,0.0);opacity:1.0" />
<polygon points="801.9192,540.44354 800.4497,543.421 797.1639,543.89844 799.5415,546.21606 798.9803,549.48865 801.9192,547.9436 804.85815,549.48865 804.2969,546.21606 806.6745,543.89844 803.3887,543.42096 801.9191,540.4435 800.4497,543.42096 " style="fill:rgb(127.5,127.5,0.0);opacity:1.0" />
<polygon points="809.0909,558.55005 807.6214,561.52747 804.3356,562.00494 806.7132,564.3226 806.152,567.5951 809.0909,566.05005 812.02985,567.5951 811.46857,564.3226 813.8462,562.0049 810.56036,561.52747 809.0908,558.55 807.6214,561.52747 " style="fill:rgb(127.5,127.5,0.0);opacity:1.0" />
<text x="456.15" y="92.5" stroke="#000000" stroke-width="1.2" transform="rotate(-0.0,456.15,92.5)">SCATTER PLOT</text>
<text x="476.8" y="950.0" stroke="#000000" stroke-width="1.2" transform="rotate(-0.0,476.8,950.0)">X-AXIS</text>
<text x="50.0" y="546.6" stroke="#000000" stroke-width="1.2" transform="rotate(-90.0,50.0,546.6)">Y-AXIS</text>
<rect x="120.0" y="120.0" width="67.880005" height="40.0" style="fill:rgb(255.0,255.0,255.0);stroke-width:2.0;stroke:rgb(0.0,0.0,0.0);opacity:0.7" />
<circle cx="132.0" cy="132.0" r="4.0"  style="fill:rgb(214.2,214.2,0.0);opacity:1.0" />
<text x="144.0" y="136.0" stroke="#000000" stroke-width="1.2" transform="rotate(-0.0,144.0,136.0)">Plot 1</text>
<polygon points="132.0,144.0 130.82443,146.38196 128.19577,146.76392 130.09789,148.61804 129.64885,151.23608 132.0,150.0 134.35115,151.23608 133.90211,148.61804 135.80424,146.76392 133.17558,146.38196 131.99998,144.0 130.82443,146.38196 " style="fill:rgb(127.5,127.5,0.0);opacity:1.0" />
<text x="144.0" y="152.0" stroke="#000000" stroke-width="1.2" transform="rotate(-0.0,144.0,152.0)">Plot 2</text>
</svg>