<svg height="660.0" width="1000.0" version="4.0" xmlns="http://www.w3.org/2000/svg" xmlns:xlink= "http://www.w3.org/1999/xlink">
<rect width="100%" height="100%" fill="white"/>
<rect x="100.0" y="66.0" width="800.0" height="528.0" style="fill:rgb(255,255,255);stroke-width:2.0;stroke:rgb(0,0,0);opacity:1" />
<line x1="163.63637" y1="597.0" x2="163.63637" y2="594.0" style="stroke:rgb(0.0,0.0,0.0);stroke-width:2.0;opacity:1.0;stroke-linecap:round" />
<text x="154.09636" y="609.0" stroke="#000000" stroke-width="0.7" transform="rotate(-0.0,154.09636,609.0)">10.0</text>
<line x1="235.35353" y1="597.0" x2="235.35353" y2="594.0" style="stroke:rgb(0.0,0.0,0.0);stroke-width:2.0;opacity:1.0;stroke-linecap:round" />
<text x="225.49353" y="609.0" stroke="#000000" stroke-width="0.7" transform="rotate(-0.0,225.49353,609.0)">20.0</text>
<line x1="307.0707" y1="597.0" x2="307.0707" y2="594.0" style="stroke:rgb(0.0,0.0,0.0);stroke-width:2.0;opacity:1.0;stroke-linecap:round" />
<text x="297.2107" y="609.0" stroke="#000000" stroke-width="0.7" transform="rotate(-0.0,297.2107,609.0)">30.0</text>
<line x1="378.78787" y1="597.0" x2="378.78787" y2="594.0" style="stroke:rgb(0.0,0.0,0.0);stroke-width:2.0;opacity:1.0;stroke-linecap:round" />
<text x="368.92786" y="609.0" stroke="#000000" stroke-width="0.7" transform="rotate(-0.0,368.92786,609.0)">40.0</text>
<line x1="450.50504" y1="597.0" x2="450.50504" y2="594.0" style="stroke:rgb(0.0,0.0,0.0);stroke-width:2.0;opacity:1.0;stroke-linecap:round" />
<text x="440.64502" y="609.0" stroke="#000000" stroke-width="0.7" transform="rotate(-0.0,440.64502,609.0)">49.0</text>
<line x1="522.22217" y1="597.0" x2="522.22217" y2="594.0" style="stroke:rgb(0.0,0.0,0.0);stroke-width:2.0;opacity:1.0;stroke-linecap:round" />
<text x="512.3622" y="609.0" stroke="#000000" stroke-width="0.7" transform="rotate(-0.0,512.3622,609.0)">59.0</text>
<line x1="593.93933" y1="597.0" x2="593.93933" y2="594.0" style="stroke:rgb(0.0,0.0,0.0);stroke-width:2.0;opacity:1.0;stroke-linecap:round" />
<text x="584.07935" y="609.0" stroke="#000000" stroke-width="0.7" transform="rotate(-0.0,584.07935,609.0)">69.0</text>
<line x1="665.65656" y1="597.0" x2="665.65656" y2="594.0" style="stroke:rgb(0.0,0.0,0.0);stroke-width:2.0;opacity:1.0;stroke-linecap:round" />
<text x="655.7966" y="609.0" stroke="#000000" stroke-width="0.7" transform="rotate(-0.0,655.7966,609.0)">80.0</text>
<line x1="737.3737" y1="597.0" x2="737.3737" y2="594.0" style="stroke:rgb(0.0,0.0,0.0);stroke-width:2.0;opacity:1.0;stroke-linecap:round" />
<text x="727.51373" y="609.0" stroke="#000000" stroke-width="0.7" transform="rotate(-0.0,727.51373,609.0)">90.0</text>
<line x1="809.0909" y1="597.0" x2="809.0909" y2="594.0" style="stroke:rgb(0.0,0.0,0.0);stroke-width:2.0;opacity:1.0;stroke-linecap:round" />
<text x="799.2309" y="609.0" stroke="#000000" stroke-width="0.7" transform="rotate(-0.0,799.2309,609.0)">99.0</text>
<line x1="880.80804" y1="597.0" x2="880.80804" y2="594.0" style="stroke:rgb(0.0,0.0,0.0);stroke-width:2.0;opacity:1.0;stroke-linecap:round" />
<text x="869.82806" y="609.0" stroke="#000000" stroke-width="0.7" transform="rotate(-0.0,869.82806,609.0)">109.0</text>
<line x1="97.0" y1="585.4339" x2="100.0" y2="585.4339" style="stroke:rgb(0.0,0.0,0.0);stroke-width:2.0;opacity:1.0;stroke-linecap:round" />
<text x="62.16" y="589.4339" stroke="#000000" stroke-width="0.7" transform="rotate(-0.0,62.16,589.4339)">0.0</text>
<line x1="97.0" y1="359.93817" x2="100.0" y2="359.93817" style="stroke:rgb(0.0,0.0,0.0);stroke-width:2.0;opacity:1.0;stroke-linecap:round" />
<text x="57.04" y="363.93817" stroke="#000000" stroke-width="0.7" transform="rotate(-0.0,57.04,363.93817)">100.0</text>
<line x1="97.0" y1="134.4425" x2="100.0" y2="134.4425" style="stroke:rgb(0.0,0.0,0.0);stroke-width:2.0;opacity:1.0;stroke-linecap:round" />
<text x="56.4" y="138.4425" stroke="#000000" stroke-width="0.7" transform="rotate(-0.0,56.4,138.4425)">200.0</text>
<circle cx="106.26263" cy="593.0915" r="5.0"  style="fill:rgb(164.985,164.985,0.0);opacity:1.0" />
<circle cx="113.43434" cy="563.83765" r="5.0"  style="fill:rgb(164.985,164.985,0.0);opacity:1.0" />
<circle cx="120.606064" cy="547.95404" r="5.0"  style="fill:rgb(164.985,164.985,0.0);opacity:1.0" />
<circle cx="127.77778" cy="555.3498" r="5.0"  style="fill:rgb(164.985,164.985,0.0);opacity:1.0" />
<circle cx="134.9495" cy="540.60223" r="5.0"  style="fill:rgb(164.985,164.985,0.0);opacity:1.0" />
<circle cx="142.12122" cy="548.33057" r="5.0"  style="fill:rgb(164.985,164.985,0.0);opacity:1.0" />
<circle cx="149.29294" cy="528.9455" r="5.0"  style="fill:rgb(164.985,164.985,0.0);opacity:1.0" />
<circle cx="156.46465" cy="531.7102" r="5.0"  style="fill:rgb(164.985,164.985,0.0);opacity:1.0" />
<circle cx="163.63637" cy="526.16003" r="5.0"  style="fill:rgb(164.985,164.985,0.0);opacity:1.0" />
<circle cx="170.80807" cy="542.5721" r="5.0"  style="fill:rgb(164.985,164.985,0.0);opacity:1.0" />
<circle cx="177.9798" cy="524.6201" r="5.0"  style="fill:rgb(164.985,164.985,0.0);opacity:1.0" />
<circle cx="185.15152" cy="533.7564" r="5.0"  style="fill:rgb(164.985,164.985,0.0);opacity:1.0" />
<circle cx="192.32323" cy="532.60986" r="5.0"  style="fill:rgb(164.985,164.985,0.0);opacity:1.0" />
<circle cx="199.49495" cy="536.20374" r="5.0"  style="fill:rgb(164.985,164.985,0.0);opacity:1.0" />
<circle cx="206.66666" cy="533.553" r="5.0"  style="fill:rgb(164.985,164.985,0.0);opacity:1.0" />
<circle cx="213.83838" cy="526.35364" r="5.0"  style="fill:rgb(164.985,164.985,0.0);opacity:1.0" />
<circle cx="221.0101" cy="503.3641" r="5.0"  style="fill:rgb(164.985,164.985,0.0);opacity:1.0" />
<circle cx="228.18181" cy="512.0161" r="5.0"  style="fill:rgb(164.985,164.985,0.0);opacity:1.0" />
<circle cx="235.35353" cy="510.2475" r="5.0"  style="fill:rgb(164.985,164.985,0.0);opacity:1.0" />
<circle cx="242.52525" cy="507.7184" r="5.0"  style="fill:rgb(164.985,164.985,0.0);opacity:1.0" />
<circle cx="249.69696" cy="496.02722" r="5.0"  style="fill:rgb(164.985,164.985,0.0);opacity:1.0" />
<circle cx="256.86868" cy="481.77917" r="5.0"  style="fill:rgb(164.985,164.985,0.0);opacity:1.0" />
<circle cx="264.0404" cy="487.931" r="5.0"  style="fill:rgb(164.985,164.985,0.0);opacity:1.0" />
<circle cx="271.2121" cy="465.78186" r="5.0"  style="fill:rgb(164.985,164.985,0.0);opacity:1.0" />
<circle cx="278.38385" cy="462.9253" r="5.0"  style="fill:rgb(164.985,164.985,0.0);opacity:1.0" />
<circle cx="285.55554" cy="472.87793" r="5.0"  style="fill:rgb(164.985,164.985,0.0);opacity:1.0" />
<circle cx="292.72726" cy="457.48645" r="5.0"  style="fill:rgb(164.985,164.985,0.0);opacity:1.0" />
<circle cx="299.899" cy="432.85278" r="5.0"  style="fill:rgb(164.985,164.985,0.0);opacity:1.0" />
<circle cx="307.0707" cy="446.9626" r="5.0"  style="fill:rgb(164.985,164.985,0.0);opacity:1.0" />
<circle cx="314.24243" cy="446.77332" r="5.0"  style="fill:rgb(164.985,164.985,0.0);opacity:1.0" />
<circle cx="321.41412" cy="419.49365" r="5.0"  style="fill:rgb(164.985,164.985,0.0);opacity:1.0" />
<circle cx="328.58588" cy="425.96936" r="5.0"  style="fill:rgb(164.985,164.985,0.0);opacity:1.0" />
<circle cx="335.75757" cy="449.84842" r="5.0"  style="fill:rgb(164.985,164.985,0.0);opacity:1.0" />
<circle cx="342.9293" cy="418.03745" r="5.0"  style="fill:rgb(164.985,164.985,0.0);opacity:1.0" />
<circle cx="350.101" cy="402.3595" r="5.0"  style="fill:rgb(164.985,164.985,0.0);opacity:1.0" />
<circle cx="357.27274" cy="433.2046" r="5.0"  style="fill:rgb(164.985,164.985,0.0);opacity:1.0" />
<circle cx="364.44443" cy="428.79974" r="5.0"  style="fill:rgb(164.985,164.985,0.0);opacity:1.0" />
<circle cx="371.61615" cy="395.61868" r="5.0"  style="fill:rgb(164.985,164.985,0.0);opacity:1.0" />
<circle cx="378.78787" cy="426.1678" r="5.0"  style="fill:rgb(164.985,164.985,0.0);opacity:1.0" />
<circle cx="385.9596" cy="388.451" r="5.0"  style="fill:rgb(164.985,164.985,0.0);opacity:1.0" />
<circle cx="393.13132" cy="402.26614" r="5.0"  style="fill:rgb(164.985,164.985,0.0);opacity:1.0" />
<circle cx="400.30304" cy="384.11646" r="5.0"  style="fill:rgb(164.985,164.985,0.0);opacity:1.0" />
<circle cx="407.47473" cy="387.52997" r="5.0"  style="fill:rgb(164.985,164.985,0.0);opacity:1.0" />
<circle cx="414.64645" cy="369.1613" r="5.0"  style="fill:rgb(164.985,164.985,0.0);opacity:1.0" />
<circle cx="421.81818" cy="367.36017" r="5.0"  style="fill:rgb(164.985,164.985,0.0);opacity:1.0" />
<circle cx="428.9899" cy="392.86285" r="5.0"  style="fill:rgb(164.985,164.985,0.0);opacity:1.0" />
<circle cx="436.16162" cy="348.52744" r="5.0"  style="fill:rgb(164.985,164.985,0.0);opacity:1.0" />
<circle cx="443.33334" cy="373.0078" r="5.0"  style="fill:rgb(164.985,164.985,0.0);opacity:1.0" />
<circle cx="450.50504" cy="371.3433" r="5.0"  style="fill:rgb(164.985,164.985,0.0);opacity:1.0" />
<circle cx="457.67676" cy="363.22366" r="5.0"  style="fill:rgb(164.985,164.985,0.0);opacity:1.0" />
<circle cx="464.84848" cy="336.78232" r="5.0"  style="fill:rgb(164.985,164.985,0.0);opacity:1.0" />
<circle cx="472.0202" cy="341.59366" r="5.0"  style="fill:rgb(164.985,164.985,0.0);opacity:1.0" />
<circle cx="479.19193" cy="330.25262" r="5.0"  style="fill:rgb(164.985,164.985,0.0);opacity:1.0" />
<circle cx="486.36365" cy="315.73685" r="5.0"  style="fill:rgb(164.985,164.985,0.0);opacity:1.0" />
<circle cx="493.53534" cy="340.41235" r="5.0"  style="fill:rgb(164.985,164.985,0.0);opacity:1.0" />
<circle cx="500.70706" cy="306.69287" r="5.0"  style="fill:rgb(164.985,164.985,0.0);opacity:1.0" />
<circle cx="507.87878" cy="302.07568" r="5.0"  style="fill:rgb(164.985,164.985,0.0);opacity:1.0" />
<circle cx="515.05054" cy="321.41357" r="5.0"  style="fill:rgb(164.985,164.985,0.0);opacity:1.0" />
<circle cx="522.2222" cy="323.3541" r="5.0"  style="fill:rgb(164.985,164.985,0.0);opacity:1.0" />
<circle cx="529.3939" cy="294.20715" r="5.0"  style="fill:rgb(164.985,164.985,0.0);opacity:1.0" />
<circle cx="536.5657" cy="310.5462" r="5.0"  style="fill:rgb(164.985,164.985,0.0);opacity:1.0" />
<circle cx="543.73737" cy="317.05835" r="5.0"  style="fill:rgb(164.985,164.985,0.0);opacity:1.0" />
<circle cx="550.90906" cy="317.19315" r="5.0"  style="fill:rgb(164.985,164.985,0.0);opacity:1.0" />
<circle cx="558.0808" cy="301.604" r="5.0"  style="fill:rgb(164.985,164.985,0.0);opacity:1.0" />
<circle cx="565.25256" cy="288.48312" r="5.0"  style="fill:rgb(164.985,164.985,0.0);opacity:1.0" />
<circle cx="572.4242" cy="265.93097" r="5.0"  style="fill:rgb(164.985,164.985,0.0);opacity:1.0" />
<circle cx="579.59595" cy="256.91327" r="5.0"  style="fill:rgb(164.985,164.985,0.0);opacity:1.0" />
<circle cx="586.7677" cy="276.68326" r="5.0"  style="fill:rgb(164.985,164.985,0.0);opacity:1.0" />
<circle cx="593.9394" cy="254.99893" r="5.0"  style="fill:rgb(164.985,164.985,0.0);opacity:1.0" />
<circle cx="601.1111" cy="283.94296" r="5.0"  style="fill:rgb(164.985,164.985,0.0);opacity:1.0" />
<circle cx="608.28284" cy="277.46982" r="5.0"  style="fill:rgb(164.985,164.985,0.0);opacity:1.0" />
<circle cx="615.4545" cy="255.06927" r="5.0"  style="fill:rgb(164.985,164.985,0.0);opacity:1.0" />
<circle cx="622.6263" cy="246.228" r="5.0"  style="fill:rgb(164.985,164.985,0.0);opacity:1.0" />
<circle cx="629.798" cy="242.97137" r="5.0"  style="fill:rgb(164.985,164.985,0.0);opacity:1.0" />
<circle cx="636.96967" cy="247.6221" r="5.0"  style="fill:rgb(164.985,164.985,0.0);opacity:1.0" />
<circle cx="644.1414" cy="227.70618" r="5.0"  style="fill:rgb(164.985,164.985,0.0);opacity:1.0" />
<circle cx="651.3131" cy="218.1084" r="5.0"  style="fill:rgb(164.985,164.985,0.0);opacity:1.0" />
<circle cx="658.48486" cy="213.68594" r="5.0"  style="fill:rgb(164.985,164.985,0.0);opacity:1.0" />
<circle cx="665.65656" cy="202.49985" r="5.0"  style="fill:rgb(164.985,164.985,0.0);opacity:1.0" />
<circle cx="672.8283" cy="237.45926" r="5.0"  style="fill:rgb(164.985,164.985,0.0);opacity:1.0" />
<circle cx="680.0" cy="200.30563" r="5.0"  style="fill:rgb(164.985,164.985,0.0);opacity:1.0" />
<circle cx="687.1717" cy="200.85626" r="5.0"  style="fill:rgb(164.985,164.985,0.0);opacity:1.0" />
<circle cx="694.34344" cy="203.79321" r="5.0"  style="fill:rgb(164.985,164.985,0.0);opacity:1.0" />
<circle cx="701.51514" cy="197.72583" r="5.0"  style="fill:rgb(164.985,164.985,0.0);opacity:1.0" />
<circle cx="708.6869" cy="202.73474" r="5.0"  style="fill:rgb(164.985,164.985,0.0);opacity:1.0" />
<circle cx="715.8586" cy="212.7649" r="5.0"  style="fill:rgb(164.985,164.985,0.0);opacity:1.0" />
<circle cx="723.0303" cy="197.23227" r="5.0"  style="fill:rgb(164.985,164.985,0.0);opacity:1.0" />
<circle cx="730.202" cy="205.2554" r="5.0"  style="fill:rgb(164.985,164.985,0.0);opacity:1.0" />
<circle cx="737.3737" cy="190.603" r="5.0"  style="fill:rgb(164.985,164.985,0.0);opacity:1.0" />
<circle cx="744.5455" cy="190.7673" r="5.0"  style="fill:rgb(164.985,164.985,0.0);opacity:1.0" />
<circle cx="751.71716" cy="187.60065" r="5.0"  style="fill:rgb(164.985,164.985,0.0);opacity:1.0" />
<circle cx="758.8889" cy="146.75757" r="5.0"  style="fill:rgb(164.985,164.985,0.0);opacity:1.0" />
<circle cx="766.0606" cy="165.876" r="5.0"  style="fill:rgb(164.985,164.985,0.0);opacity:1.0" />
<circle cx="773.2323" cy="138.97644" r="5.0"  style="fill:rgb(164.985,164.985,0.0);opacity:1.0" />
<circle cx="780.40405" cy="132.56079" r="5.0"  style="fill:rgb(164.985,164.985,0.0);opacity:1.0" />
<circle cx="787.57574" cy="128.19019" r="5.0"  style="fill:rgb(164.985,164.985,0.0);opacity:1.0" />
<circle cx="794.7475" cy="155.94693" r="5.0"  style="fill:rgb(164.985,164.985,0.0);opacity:1.0" />
<circle cx="801.9192" cy="121.09143" r="5.0"  style="fill:rgb(164.985,164.985,0.0);opacity:1.0" />
<circle cx="809.0909" cy="156.90308" r="5.0"  style="fill:rgb(164.985,164.985,0.0);opacity:1.0" />
<polygon points="106.26263,565.0537 111.26263,573.7139 101.26263,573.7139" style="fill:rgb(0.0,0.0,255.0);opacity:1.0" />
<polygon points="113.43434,561.68066 118.43434,570.34094 108.43434,570.34094" style="fill:rgb(0.0,0.0,255.0);opacity:1.0" />
<polygon points="120.606064,571.9245 125.606064,580.5848 115.606064,580.5848" style="fill:rgb(0.0,0.0,255.0);opacity:1.0" />
<polygon points="127.77778,580.8789 132.77777,589.5392 122.77778,589.5392" style="fill:rgb(0.0,0.0,255.0);opacity:1.0" />
<polygon points="134.9495,571.5885 139.9495,580.2488 129.9495,580.2488" style="fill:rgb(0.0,0.0,255.0);opacity:1.0" />
<polygon points="142.12122,561.9398 147.12122,570.60004 137.12122,570.60004" style="fill:rgb(0.0,0.0,255.0);opacity:1.0" />
<polygon points="149.29294,573.72156 154.29294,582.3818 144.29294,582.3818" style="fill:rgb(0.0,0.0,255.0);opacity:1.0" />
<polygon points="156.46465,538.4442 161.46465,547.1045 151.46465,547.1045" style="fill:rgb(0.0,0.0,255.0);opacity:1.0" />
<polygon points="163.63637,564.7195 168.63637,573.37976 158.63637,573.37976" style="fill:rgb(0.0,0.0,255.0);opacity:1.0" />
<polygon points="170.80807,576.04535 175.80807,584.7056 165.80807,584.7056" style="fill:rgb(0.0,0.0,255.0);opacity:1.0" />
<polygon points="177.9798,557.9637 182.9798,566.62396 172.9798,566.62396" style="fill:rgb(0.0,0.0,255.0);opacity:1.0" />
<polygon points="185.15152,538.90955 190.15152,547.5698 180.15152,547.5698" style="fill:rgb(0.0,0.0,255.0);opacity:1.0" />
<polygon points="192.32323,560.42615 197.32323,569.08636 187.32323,569.08636" style="fill:rgb(0.0,0.0,255.0);opacity:1.0" />
<polygon points="199.49495,527.34686 204.49495,536.00714 194.49495,536.00714" style="fill:rgb(0.0,0.0,255.0);opacity:1.0" />
<polygon points="206.66666,530.24976 211.66666,538.91 201.66666,538.91" style="fill:rgb(0.0,0.0,255.0);opacity:1.0" />
<polygon points="213.83838,522.99756 218.83838,531.65784 208.83838,531.65784" style="fill:rgb(0.0,0.0,255.0);opacity:1.0" />
<polygon points="221.0101,541.42554 226.0101,550.0858 216.0101,550.0858" style="fill:rgb(0.0,0.0,255.0);opacity:1.0" />
<polygon points="228.18181,537.36145 233.18181,546.02167 223.18181,546.02167" style="fill:rgb(0.0,0.0,255.0);opacity:1.0" />
<polygon points="235.35353,556.6338 240.35353,565.29407 230.35353,565.29407" style="fill:rgb(0.0,0.0,255.0);opacity:1.0" />
<polygon points="242.52525,541.9292 247.52525,550.5895 237.52525,550.5895" style="fill:rgb(0.0,0.0,255.0);opacity:1.0" />
<polygon points="249.69696,522.1756 254.69696,530.8359 244.69696,530.8359" style="fill:rgb(0.0,0.0,255.0);opacity:1.0" />
<polygon points="256.86868,537.1594 261.86868,545.81964 251.86868,545.81964" style="fill:rgb(0.0,0.0,255.0);opacity:1.0" />
<polygon points="264.0404,510.30368 269.0404,518.9639 259.0404,518.9639" style="fill:rgb(0.0,0.0,255.0);opacity:1.0" />
<polygon points="271.2121,539.9503 276.2121,548.6106 266.2121,548.6106" style="fill:rgb(0.0,0.0,255.0);opacity:1.0" />
<polygon points="278.38385,529.6424 283.38385,538.3027 273.38385,538.3027" style="fill:rgb(0.0,0.0,255.0);opacity:1.0" />
<polygon points="285.55554,520.5233 290.55554,529.1836 280.55554,529.1836" style="fill:rgb(0.0,0.0,255.0);opacity:1.0" />
<polygon points="292.72726,530.9321 297.72726,539.59235 287.72726,539.59235" style="fill:rgb(0.0,0.0,255.0);opacity:1.0" />
<polygon points="299.899,523.0928 304.899,531.75305 294.899,531.75305" style="fill:rgb(0.0,0.0,255.0);opacity:1.0" />
<polygon points="307.0707,499.89575 312.0707,508.556 302.0707,508.556" style="fill:rgb(0.0,0.0,255.0);opacity:1.0" />
<polygon points="314.24243,487.9054 319.24243,496.56564 309.24243,496.56564" style="fill:rgb(0.0,0.0,255.0);opacity:1.0" />
<polygon points="321.41412,501.32346 326.41412,509.9837 316.41412,509.9837" style="fill:rgb(0.0,0.0,255.0);opacity:1.0" />
<polygon points="328.58588,490.91144 333.58588,499.57172 323.58588,499.57172" style="fill:rgb(0.0,0.0,255.0);opacity:1.0" />
<polygon points="335.75757,495.3802 340.75757,504.04047 330.75757,504.04047" style="fill:rgb(0.0,0.0,255.0);opacity:1.0" />
<polygon points="342.9293,493.16202 347.9293,501.82227 337.9293,501.82227" style="fill:rgb(0.0,0.0,255.0);opacity:1.0" />
<polygon points="350.101,478.80804 355.101,487.4683 345.101,487.4683" style="fill:rgb(0.0,0.0,255.0);opacity:1.0" />
<polygon points="357.27274,477.68488 362.27274,486.34512 352.27274,486.34512" style="fill:rgb(0.0,0.0,255.0);opacity:1.0" />
<polygon points="364.44443,515.7414 369.44443,524.4016 359.44443,524.4016" style="fill:rgb(0.0,0.0,255.0);opacity:1.0" />
<polygon points="371.61615,470.31586 376.61615,478.9761 366.61615,478.9761" style="fill:rgb(0.0,0.0,255.0);opacity:1.0" />
<polygon points="378.78787,477.8576 383.78787,486.51788 373.78787,486.51788" style="fill:rgb(0.0,0.0,255.0);opacity:1.0" />
<polygon points="385.9596,492.1994 390.9596,500.85965 380.9596,500.85965" style="fill:rgb(0.0,0.0,255.0);opacity:1.0" />
<polygon points="393.13132,485.22543 398.13132,493.88568 388.13132,493.88568" style="fill:rgb(0.0,0.0,255.0);opacity:1.0" />
<polygon points="400.30304,485.78812 405.30304,494.44836 395.30304,494.44836" style="fill:rgb(0.0,0.0,255.0);opacity:1.0" />
<polygon points="407.47473,494.21417 412.47473,502.87445 402.47473,502.87445" style="fill:rgb(0.0,0.0,255.0);opacity:1.0" />
<polygon points="414.64645,473.88556 419.64645,482.5458 409.64645,482.5458" style="fill:rgb(0.0,0.0,255.0);opacity:1.0" />
<polygon points="421.81818,461.47824 426.81818,470.1385 416.81818,470.1385" style="fill:rgb(0.0,0.0,255.0);opacity:1.0" />
<polygon points="428.9899,456.61908 433.9899,465.2793 423.9899,465.2793" style="fill:rgb(0.0,0.0,255.0);opacity:1.0" />
<polygon points="436.16162,485.4817 441.16162,494.14194 431.16162,494.14194" style="fill:rgb(0.0,0.0,255.0);opacity:1.0" />
<polygon points="443.33334,458.9558 448.33334,467.61603 438.33334,467.61603" style="fill:rgb(0.0,0.0,255.0);opacity:1.0" />
<polygon points="450.50504,483.36255 455.50504,492.0228 445.50504,492.0228" style="fill:rgb(0.0,0.0,255.0);opacity:1.0" />
<polygon points="457.67676,452.4938 462.67676,461.15405 452.67676,461.15405" style="fill:rgb(0.0,0.0,255.0);opacity:1.0" />
<polygon points="464.84848,447.846 469.84848,456.50626 459.84848,456.50626" style="fill:rgb(0.0,0.0,255.0);opacity:1.0" />
<polygon points="472.0202,454.67004 477.0202,463.33026 467.0202,463.33026" style="fill:rgb(0.0,0.0,255.0);opacity:1.0" />
<polygon points="479.19193,471.80084 484.19193,480.4611 474.19193,480.4611" style="fill:rgb(0.0,0.0,255.0);opacity:1.0" />
<polygon points="486.36365,456.95966 491.36365,465.61987 481.36365,465.61987" style="fill:rgb(0.0,0.0,255.0);opacity:1.0" />
<polygon points="493.53534,443.4807 498.53534,452.14096 488.53534,452.14096" style="fill:rgb(0.0,0.0,255.0);opacity:1.0" />
<polygon points="500.70706,439.73056 505.70706,448.3908 495.70706,448.3908" style="fill:rgb(0.0,0.0,255.0);opacity:1.0" />
<polygon points="507.87878,445.35995 512.8788,454.0202 502.87878,454.0202" style="fill:rgb(0.0,0.0,255.0);opacity:1.0" />
<polygon points="515.05054,446.774 520.05054,455.4342 510.0505,455.4342" style="fill:rgb(0.0,0.0,255.0);opacity:1.0" />
<polygon points="522.2222,427.0757 527.2222,435.73596 517.2222,435.73596" style="fill:rgb(0.0,0.0,255.0);opacity:1.0" />
<polygon points="529.3939,449.82077 534.3939,458.48102 524.3939,458.48102" style="fill:rgb(0.0,0.0,255.0);opacity:1.0" />
<polygon points="536.5657,432.40228 541.5657,441.06256 531.5657,441.06256" style="fill:rgb(0.0,0.0,255.0);opacity:1.0" />
<polygon points="543.73737,424.80557 548.73737,433.46582 538.73737,433.46582" style="fill:rgb(0.0,0.0,255.0);opacity:1.0" />
<polygon points="550.90906,453.8979 555.90906,462.55814 545.90906,462.55814" style="fill:rgb(0.0,0.0,255.0);opacity:1.0" />
<polygon points="558.0808,412.80142 563.0808,421.46167 553.0808,421.46167" style="fill:rgb(0.0,0.0,255.0);opacity:1.0" />
<polygon points="565.25256,447.32016 570.25256,455.9804 560.25256,455.9804" style="fill:rgb(0.0,0.0,255.0);opacity:1.0" />
<polygon points="572.4242,448.48352 577.4242,457.14374 567.4242,457.14374" style="fill:rgb(0.0,0.0,255.0);opacity:1.0" />
<polygon points="579.59595,417.39883 584.59595,426.05908 574.59595,426.05908" style="fill:rgb(0.0,0.0,255.0);opacity:1.0" />
<polygon points="586.7677,421.6635 591.7677,430.32376 581.7677,430.32376" style="fill:rgb(0.0,0.0,255.0);opacity:1.0" />
<polygon points="593.9394,431.5772 598.9394,440.23743 588.9394,440.23743" style="fill:rgb(0.0,0.0,255.0);opacity:1.0" />
<polygon points="601.1111,432.455 606.1111,441.11523 596.1111,441.11523" style="fill:rgb(0.0,0.0,255.0);opacity:1.0" />
<polygon points="608.28284,438.28354 613.28284,446.9438 603.28284,446.9438" style="fill:rgb(0.0,0.0,255.0);opacity:1.0" />
<polygon points="615.4545,397.5645 620.4545,406.2248 610.4545,406.2248" style="fill:rgb(0.0,0.0,255.0);opacity:1.0" />
<polygon points="622.6263,424.1229 627.6263,432.78314 617.6263,432.78314" style="fill:rgb(0.0,0.0,255.0);opacity:1.0" />
<polygon points="629.798,406.04688 634.798,414.70715 624.798,414.70715" style="fill:rgb(0.0,0.0,255.0);opacity:1.0" />
<polygon points="636.96967,412.82513 641.96967,421.48535 631.96967,421.48535" style="fill:rgb(0.0,0.0,255.0);opacity:1.0" />
<polygon points="644.1414,407.0813 649.1414,415.74155 639.1414,415.74155" style="fill:rgb(0.0,0.0,255.0);opacity:1.0" />
<polygon points="651.3131,381.575 656.3131,390.23523 646.3131,390.23523" style="fill:rgb(0.0,0.0,255.0);opacity:1.0" />
<polygon points="658.48486,400.6077 663.48486,409.26794 653.48486,409.26794" style="fill:rgb(0.0,0.0,255.0);opacity:1.0" />
<polygon points="665.65656,420.0813 670.65656,428.74152 660.65656,428.74152" style="fill:rgb(0.0,0.0,255.0);opacity:1.0" />
<polygon points="672.8283,387.30136 677.8283,395.9616 667.8283,395.9616" style="fill:rgb(0.0,0.0,255.0);opacity:1.0" />
<polygon points="680.0,391.2298 685.0,399.89005 675.0,399.89005" style="fill:rgb(0.0,0.0,255.0);opacity:1.0" />
<polygon points="687.1717,374.2705 692.1717,382.93073 682.1717,382.93073" style="fill:rgb(0.0,0.0,255.0);opacity:1.0" />
<polygon points="694.34344,408.11282 699.34344,416.77307 689.34344,416.77307" style="fill:rgb(0.0,0.0,255.0);opacity:1.0" />
<polygon points="701.51514,395.0547 706.51514,403.71497 696.51514,403.71497" style="fill:rgb(0.0,0.0,255.0);opacity:1.0" />
<polygon points="708.6869,369.58313 713.6869,378.24338 703.6869,378.24338" style="fill:rgb(0.0,0.0,255.0);opacity:1.0" />
<polygon points="715.8586,392.4649 720.8586,401.12515 710.8586,401.12515" style="fill:rgb(0.0,0.0,255.0);opacity:1.0" />
<polygon points="723.0303,397.21075 728.0303,405.87103 718.0303,405.87103" style="fill:rgb(0.0,0.0,255.0);opacity:1.0" />
<polygon points="730.202,375.84167 735.202,384.5019 725.202,384.5019" style="fill:rgb(0.0,0.0,255.0);opacity:1.0" />
<polygon points="737.3737,395.26465 742.3737,403.92493 732.3737,403.92493" style="fill:rgb(0.0,0.0,255.0);opacity:1.0" />
<polygon points="744.5455,367.45807 749.5455,376.11835 739.5455,376.11835" style="fill:rgb(0.0,0.0,255.0);opacity:1.0" />
<polygon points="751.71716,367.9793 756.71716,376.6396 746.71716,376.6396" style="fill:rgb(0.0,0.0,255.0);opacity:1.0" />
<polygon points="758.8889,347.61353 763.8889,356.27374 753.8889,356.27374" style="fill:rgb(0.0,0.0,255.0);opacity:1.0" />
<polygon points="766.0606,364.27582 771.0606,372.93604 761.0606,372.93604" style="fill:rgb(0.0,0.0,255.0);opacity:1.0" />
<polygon points="773.2323,384.55536 778.2323,393.21558 768.2323,393.21558" style="fill:rgb(0.0,0.0,255.0);opacity:1.0" />
<polygon points="780.40405,381.4892 785.40405,390.1494 775.40405,390.1494" style="fill:rgb(0.0,0.0,255.0);opacity:1.0" />
<polygon points="787.57574,354.2246 792.57574,362.88486 782.57574,362.88486" style="fill:rgb(0.0,0.0,255.0);opacity:1.0" />
<polygon points="794.7475,337.9564 799.7475,346.61664 789.7475,346.61664" style="fill:rgb(0.0,0.0,255.0);opacity:1.0" />
<polygon points="801.9192,369.2423 806.9192,377.9026 796.9192,377.9026" style="fill:rgb(0.0,0.0,255.0);opacity:1.0" />
<polygon points="809.0909,369.92383 814.0909,378.58408 804.0909,378.58408" style="fill:rgb(0.0,0.0,255.0);opacity:1.0" />
<text x="456.15" y="58.5" stroke="#000000" stroke-width="1.2" transform="rotate(-0.0,456.15,58.5)">SCATTER PLOT</text>
<text x="477.05" y="635.4" stroke="#000000" stroke-width="1.2" transform="rotate(-0.0,477.05,635.4)">X-Axis</text>
<text x="45.0" y="376.1" stroke="#000000" stroke-width="1.2" transform="rotate(-90.0,45.0,376.1)">Y-Axis</text>
<rect x="120.0" y="86.0" width="67.880005" height="40.0" style="fill:rgb(255.0,255.0,255.0);stroke-width:2.0;stroke:rgb(0.0,0.0,0.0);opacity:0.7" />
<circle cx="132.0" cy="98.0" r="4.0"  style="fill:rgb(164.985,164.985,0.0);opacity:1.0" />
<text x="144.0" y="102.0" stroke="#000000" stroke-width="1.2" transform="rotate(-0.0,144.0,102.0)">Plot 1</text>
<polygon points="132.0,110.0 135.4641,116.0 128.5359,116.0" style="fill:rgb(0.0,0.0,255.0);opacity:1.0" />
<text x="144.0" y="118.0" stroke="#000000" stroke-width="1.2" transform="rotate(-0.0,144.0,118.0)">Plot 2</text>
</svg>