<svg height="660.0" width="1000.0" version="4.0" xmlns="http://www.w3.org/2000/svg" xmlns:xlink= "http://www.w3.org/1999/xlink">
<rect width="100%" height="100%" fill="white"/>
<rect x="100.0" y="66.0" width="800.0" height="528.0" style="fill:rgb(255,255,255);stroke-width:2.0;stroke:rgb(0,0,0);opacity:1" />
<line x1="163.63637" y1="597.0" x2="163.63637" y2="594.0" style="stroke:rgb(0.0,0.0,0.0);stroke-width:2.0;opacity:1.0;stroke-linecap:round" />
<text x="154.09636" y="609.0" stroke="#000000" stroke-width="0.7" transform="rotate(-0.0,154.09636,609.0)">10.0</text>
<line x1="235.35353" y1="597.0" x2="235.35353" y2="594.0" style="stroke:rgb(0.0,0.0,0.0);stroke-width:2.0;opacity:1.0;stroke-linecap:round" />
<text x="225.49353" y="609.0" stroke="#000000" stroke-width="0.7" transform="rotate(-0.0,225.49353,609.0)">20.0</text>
<line x1="307.0707" y1="597.0" x2="307.0707" y2="594.0" style="stroke:rgb(0.0,0.0,0.0);stroke-width:2.0;opacity:1.0;stroke-linecap:round" />
<text x="297.2107" y="609.0" stroke="#000000" stroke-width="0.7" transform="rotate(-0.0,297.2107,609.0)">30.0</text>
<line x1="378.78787" y1="597.0" x2="378.78787" y2="594.0" style="stroke:rgb(0.0,0.0,0.0);stroke-width:2.0;opacity:1.0;stroke-linecap:round" />
<text x="368.92786" y="609.0" stroke="#000000" stroke-width="0.7" transform="rotate(-0.0,368.92786,609.0)">40.0</text>
<line x1="450.50504" y1="597.0" x2="450.50504" y2="594.0" style="stroke:rgb(0.0,0.0,0.0);stroke-width:2.0;opacity:1.0;stroke-linecap:round" />
<text x="440.64502" y="609.0" stroke="#000000" stroke-width="0.7" transform="rotate(-0.0,440.64502,609.0)">49.0</text>
<line x1="522.22217" y1="597.0" x2="522.22217" y2="594.0" style="stroke:rgb(0.0,0.0,0.0);stroke-width:2.0;opacity:1.0;stroke-linecap:round" />
<text x="512.3622" y="609.0" stroke="#000000" stroke-width="0.7" transform="rotate(-0.0,512.3622,609.0)">59.0</text>
<line x1="593.93933" y1="597.0" x2="593.93933" y2="594.0" style="stroke:rgb(0.0,0.0,0.0);stroke-width:2.0;opacity:1.0;stroke-linecap:round" />
<text x="584.07935" y="609.0" stroke="#000000" stroke-width="0.7" transform="rotate(-0.0,584.07935,609.0)">69.0</text>
<line x1="665.65656" y1="597.0" x2="665.65656" y2="594.0" style="stroke:rgb(0.0,0.0,0.0);stroke-width:2.0;opacity:1.0;stroke-linecap:round" />
<text x="655.7966" y="609.0" stroke="#000000" stroke-width="0.7" transform="rotate(-0.0,655.7966,609.0)">80.0</text>
<line x1="737.3737" y1="597.0" x2="737.3737" y2="594.0" style="stroke:rgb(0.0,0.0,0.0);stroke-width:2.0;opacity:1.0;stroke-linecap:round" />
<text x="727.51373" y="609.0" stroke="#000000" stroke-width="0.7" transform="rotate(-0.0,727.51373,609.0)">90.0</text>
<line x1="809.0909" y1="597.0" x2="809.0909" y2="594.0" style="stroke:rgb(0.0,0.0,0.0);stroke-width:2.0;opacity:1.0;stroke-linecap:round" />
<text x="799.2309" y="609.0" stroke="#000000" stroke-width="0.7" transform="rotate(-0.0,799.2309,609.0)">99.0</text>
<line x1="880.80804" y1="597.0" x2="880.80804" y2="594.0" style="stroke:rgb(0.0,0.0,0.0);stroke-width:2.0;opacity:1.0;stroke-linecap:round" />
<text x="869.82806" y="609.0" stroke="#000000" stroke-width="0.7" transform="rotate(-0.0,869.82806,609.0)">109.0</text>
<line x1="97.0" y1="580.63464" x2="100.0" y2="580.63464" style="stroke:rgb(0.0,0.0,0.0);stroke-width:2.0;opacity:1.0;stroke-linecap:round" />
<text x="62.16" y="584.63464" stroke="#000000" stroke-width="0.7" transform="rotate(-0.0,62.16,584.63464)">0.0</text>
<line x1="97.0" y1="347.99072" x2="100.0" y2="347.99072" style="stroke:rgb(0.0,0.0,0.0);stroke-width:2.0;opacity:1.0;stroke-linecap:round" />
<text x="57.04" y="351.99072" stroke="#000000" stroke-width="0.7" transform="rotate(-0.0,57.04,351.99072)">100.0</text>
<line x1="97.0" y1="115.3468" x2="100.0" y2="115.3468" style="stroke:rgb(0.0,0.0,0.0);stroke-width:2.0;opacity:1.0;stroke-linecap:round" />
<text x="56.4" y="119.34677" stroke="#000000" stroke-width="0.7" transform="rotate(-0.0,56.4,119.34677)">200.0</text>
<circle cx="106.26263" cy="562.8288" r="5.0"  style="fill:rgb(164.985,164.985,0.0);opacity:1.0" />
<circle cx="113.43434" cy="576.45337" r="5.0"  style="fill:rgb(164.985,164.985,0.0);opacity:1.0" />
<circle cx="120.606064" cy="582.3585" r="5.0"  style="fill:rgb(164.985,164.985,0.0);opacity:1.0" />
<circle cx="127.77778" cy="552.49207" r="5.0"  style="fill:rgb(164.985,164.985,0.0);opacity:1.0" />
<circle cx="134.9495" cy="557.27704" r="5.0"  style="fill:rgb(164.985,164.985,0.0);opacity:1.0" />
<circle cx="142.12122" cy="557.4673" r="5.0"  style="fill:rgb(164.985,164.985,0.0);opacity:1.0" />
<circle cx="149.29294" cy="545.44305" r="5.0"  style="fill:rgb(164.985,164.985,0.0);opacity:1.0" />
<circle cx="156.46465" cy="525.5707" r="5.0"  style="fill:rgb(164.985,164.985,0.0);opacity:1.0" />
<circle cx="163.63637" cy="554.7991" r="5.0"  style="fill:rgb(164.985,164.985,0.0);opacity:1.0" />
<circle cx="170.80807" cy="513.6121" r="5.0"  style="fill:rgb(164.985,164.985,0.0);opacity:1.0" />
<circle cx="177.9798" cy="543.52075" r="5.0"  style="fill:rgb(164.985,164.985,0.0);opacity:1.0" />
<circle cx="185.15152" cy="509.4519" r="5.0"  style="fill:rgb(164.985,164.985,0.0);opacity:1.0" />
<circle cx="192.32323" cy="495.31055" r="5.0"  style="fill:rgb(164.985,164.985,0.0);opacity:1.0" />
<circle cx="199.49495" cy="514.36346" r="5.0"  style="fill:rgb(164.985,164.985,0.0);opacity:1.0" />
<circle cx="206.66666" cy="516.5349" r="5.0"  style="fill:rgb(164.985,164.985,0.0);opacity:1.0" />
<circle cx="213.83838" cy="511.13843" r="5.0"  style="fill:rgb(164.985,164.985,0.0);opacity:1.0" />
<circle cx="221.0101" cy="488.27844" r="5.0"  style="fill:rgb(164.985,164.985,0.0);opacity:1.0" />
<circle cx="228.18181" cy="496.0973" r="5.0"  style="fill:rgb(164.985,164.985,0.0);opacity:1.0" />
<circle cx="235.35353" cy="492.1386" r="5.0"  style="fill:rgb(164.985,164.985,0.0);opacity:1.0" />
<circle cx="242.52525" cy="494.77344" r="5.0"  style="fill:rgb(164.985,164.985,0.0);opacity:1.0" />
<circle cx="249.69696" cy="457.70892" r="5.0"  style="fill:rgb(164.985,164.985,0.0);opacity:1.0" />
<circle cx="256.86868" cy="461.2012" r="5.0"  style="fill:rgb(164.985,164.985,0.0);opacity:1.0" />
<circle cx="264.0404" cy="485.75156" r="5.0"  style="fill:rgb(164.985,164.985,0.0);opacity:1.0" />
<circle cx="271.2121" cy="483.2951" r="5.0"  style="fill:rgb(164.985,164.985,0.0);opacity:1.0" />
<circle cx="278.38385" cy="472.54236" r="5.0"  style="fill:rgb(164.985,164.985,0.0);opacity:1.0" />
<circle cx="285.55554" cy="439.0609" r="5.0"  style="fill:rgb(164.985,164.985,0.0);opacity:1.0" />
<circle cx="292.72726" cy="433.56488" r="5.0"  style="fill:rgb(164.985,164.985,0.0);opacity:1.0" />
<circle cx="299.899" cy="430.88934" r="5.0"  style="fill:rgb(164.985,164.985,0.0);opacity:1.0" />
<circle cx="307.0707" cy="441.86786" r="5.0"  style="fill:rgb(164.985,164.985,0.0);opacity:1.0" />
<circle cx="314.24243" cy="455.2567" r="5.0"  style="fill:rgb(164.985,164.985,0.0);opacity:1.0" />
<circle cx="321.41412" cy="453.04437" r="5.0"  style="fill:rgb(164.985,164.985,0.0);opacity:1.0" />
<circle cx="328.58588" cy="435.51605" r="5.0"  style="fill:rgb(164.985,164.985,0.0);opacity:1.0" />
<circle cx="335.75757" cy="429.57874" r="5.0"  style="fill:rgb(164.985,164.985,0.0);opacity:1.0" />
<circle cx="342.9293" cy="439.32544" r="5.0"  style="fill:rgb(164.985,164.985,0.0);opacity:1.0" />
<circle cx="350.101" cy="424.2228" r="5.0"  style="fill:rgb(164.985,164.985,0.0);opacity:1.0" />
<circle cx="357.27274" cy="423.50183" r="5.0"  style="fill:rgb(164.985,164.985,0.0);opacity:1.0" />
<circle cx="364.44443" cy="413.0558" r="5.0"  style="fill:rgb(164.985,164.985,0.0);opacity:1.0" />
<circle cx="371.61615" cy="406.81705" r="5.0"  style="fill:rgb(164.985,164.985,0.0);opacity:1.0" />
<circle cx="378.78787" cy="384.93585" r="5.0"  style="fill:rgb(164.985,164.985,0.0);opacity:1.0" />
<circle cx="385.9596" cy="383.6478" r="5.0"  style="fill:rgb(164.985,164.985,0.0);opacity:1.0" />
<circle cx="393.13132" cy="377.73764" r="5.0"  style="fill:rgb(164.985,164.985,0.0);opacity:1.0" />
<circle cx="400.30304" cy="383.43686" r="5.0"  style="fill:rgb(164.985,164.985,0.0);opacity:1.0" />
<circle cx="407.47473" cy="385.29773" r="5.0"  style="fill:rgb(164.985,164.985,0.0);opacity:1.0" />
<circle cx="414.64645" cy="362.56488" r="5.0"  style="fill:rgb(164.985,164.985,0.0);opacity:1.0" />
<circle cx="421.81818" cy="384.60468" r="5.0"  style="fill:rgb(164.985,164.985,0.0);opacity:1.0" />
<circle cx="428.9899" cy="343.0783" r="5.0"  style="fill:rgb(164.985,164.985,0.0);opacity:1.0" />
<circle cx="436.16162" cy="351.09137" r="5.0"  style="fill:rgb(164.985,164.985,0.0);opacity:1.0" />
<circle cx="443.33334" cy="359.2423" r="5.0"  style="fill:rgb(164.985,164.985,0.0);opacity:1.0" />
<circle cx="450.50504" cy="356.42932" r="5.0"  style="fill:rgb(164.985,164.985,0.0);opacity:1.0" />
<circle cx="457.67676" cy="329.39413" r="5.0"  style="fill:rgb(164.985,164.985,0.0);opacity:1.0" />
<circle cx="464.84848" cy="322.61395" r="5.0"  style="fill:rgb(164.985,164.985,0.0);opacity:1.0" />
<circle cx="472.0202" cy="348.2238" r="5.0"  style="fill:rgb(164.985,164.985,0.0);opacity:1.0" />
<circle cx="479.19193" cy="323.4663" r="5.0"  style="fill:rgb(164.985,164.985,0.0);opacity:1.0" />
<circle cx="486.36365" cy="330.265" r="5.0"  style="fill:rgb(164.985,164.985,0.0);opacity:1.0" />
<circle cx="493.53534" cy="322.28534" r="5.0"  style="fill:rgb(164.985,164.985,0.0);opacity:1.0" />
<circle cx="500.70706" cy="327.48105" r="5.0"  style="fill:rgb(164.985,164.985,0.0);opacity:1.0" />
<circle cx="507.87878" cy="306.76608" r="5.0"  style="fill:rgb(164.985,164.985,0.0);opacity:1.0" />
<circle cx="515.05054" cy="316.05014" r="5.0"  style="fill:rgb(164.985,164.985,0.0);opacity:1.0" />
<circle cx="522.2222" cy="309.56918" r="5.0"  style="fill:rgb(164.985,164.985,0.0);opacity:1.0" />
<circle cx="529.3939" cy="305.20584" r="5.0"  style="fill:rgb(164.985,164.985,0.0);opacity:1.0" />
<circle cx="536.5657" cy="281.3745" r="5.0"  style="fill:rgb(164.985,164.985,0.0);opacity:1.0" />
<circle cx="543.73737" cy="305.39996" r="5.0"  style="fill:rgb(164.985,164.985,0.0);opacity:1.0" />
<circle cx="550.90906" cy="276.47794" r="5.0"  style="fill:rgb(164.985,164.985,0.0);opacity:1.0" />
<circle cx="558.0808" cy="259.7741" r="5.0"  style="fill:rgb(164.985,164.985,0.0);opacity:1.0" />
<circle cx="565.25256" cy="267.22903" r="5.0"  style="fill:rgb(164.985,164.985,0.0);opacity:1.0" />
<circle cx="572.4242" cy="281.75522" r="5.0"  style="fill:rgb(164.985,164.985,0.0);opacity:1.0" />
<circle cx="579.59595" cy="247.2204" r="5.0"  style="fill:rgb(164.985,164.985,0.0);opacity:1.0" />
<circle cx="586.7677" cy="244.55432" r="5.0"  style="fill:rgb(164.985,164.985,0.0);opacity:1.0" />
<circle cx="593.9394" cy="253.98865" r="5.0"  style="fill:rgb(164.985,164.985,0.0);opacity:1.0" />
<circle cx="601.1111" cy="272.8098" r="5.0"  style="fill:rgb(164.985,164.985,0.0);opacity:1.0" />
<circle cx="608.28284" cy="258.29095" r="5.0"  style="fill:rgb(164.985,164.985,0.0);opacity:1.0" />
<circle cx="615.4545" cy="219.70078" r="5.0"  style="fill:rgb(164.985,164.985,0.0);opacity:1.0" />
<circle cx="622.6263" cy="226.2937" r="5.0"  style="fill:rgb(164.985,164.985,0.0);opacity:1.0" />
<circle cx="629.798" cy="238.95319" r="5.0"  style="fill:rgb(164.985,164.985,0.0);opacity:1.0" />
<circle cx="636.96967" cy="246.47446" r="5.0"  style="fill:rgb(164.985,164.985,0.0);opacity:1.0" />
<circle cx="644.1414" cy="216.77118" r="5.0"  style="fill:rgb(164.985,164.985,0.0);opacity:1.0" />
<circle cx="651.3131" cy="198.87946" r="5.0"  style="fill:rgb(164.985,164.985,0.0);opacity:1.0" />
<circle cx="658.48486" cy="196.0759" r="5.0"  style="fill:rgb(164.985,164.985,0.0);opacity:1.0" />
<circle cx="665.65656" cy="187.32254" r="5.0"  style="fill:rgb(164.985,164.985,0.0);opacity:1.0" />
<circle cx="672.8283" cy="198.12305" r="5.0"  style="fill:rgb(164.985,164.985,0.0);opacity:1.0" />
<circle cx="680.0" cy="197.02731" r="5.0"  style="fill:rgb(164.985,164.985,0.0);opacity:1.0" />
<circle cx="687.1717" cy="178.6456" r="5.0"  style="fill:rgb(164.985,164.985,0.0);opacity:1.0" />
<circle cx="694.34344" cy="177.66013" r="5.0"  style="fill:rgb(164.985,164.985,0.0);opacity:1.0" />
<circle cx="701.51514" cy="167.06506" r="5.0"  style="fill:rgb(164.985,164.985,0.0);opacity:1.0" />
<circle cx="708.6869" cy="190.74954" r="5.0"  style="fill:rgb(164.985,164.985,0.0);opacity:1.0" />
<circle cx="715.8586" cy="186.78671" r="5.0"  style="fill:rgb(164.985,164.985,0.0);opacity:1.0" />
<circle cx="723.0303" cy="177.91306" r="5.0"  style="fill:rgb(164.985,164.985,0.0);opacity:1.0" />
<circle cx="730.202" cy="172.14862" r="5.0"  style="fill:rgb(164.985,164.985,0.0);opacity:1.0" />
<circle cx="737.3737" cy="179.82883" r="5.0"  style="fill:rgb(164.985,164.985,0.0);opacity:1.0" />
<circle cx="744.5455" cy="160.6175" r="5.0"  style="fill:rgb(164.985,164.985,0.0);opacity:1.0" />
<circle cx="751.71716" cy="133.62354" r="5.0"  style="fill:rgb(164.985,164.985,0.0);opacity:1.0" />
<circle cx="758.8889" cy="139.95117" r="5.0"  style="fill:rgb(164.985,164.985,0.0);opacity:1.0" />
<circle cx="766.0606" cy="136.78821" r="5.0"  style="fill:rgb(164.985,164.985,0.0);opacity:1.0" />
<circle cx="773.2323" cy="122.61096" r="5.0"  style="fill:rgb(164.985,164.985,0.0);opacity:1.0" />
<circle cx="780.40405" cy="120.58246" r="5.0"  style="fill:rgb(164.985,164.985,0.0);opacity:1.0" />
<circle cx="787.57574" cy="133.9862" r="5.0"  style="fill:rgb(164.985,164.985,0.0);opacity:1.0" />
<circle cx="794.7475" cy="141.16461" r="5.0"  style="fill:rgb(164.985,164.985,0.0);opacity:1.0" />
<circle cx="801.9192" cy="127.0791" r="5.0"  style="fill:rgb(164.985,164.985,0.0);opacity:1.0" />
<circle cx="809.0909" cy="129.68707" r="5.0"  style="fill:rgb(164.985,164.985,0.0);opacity:1.0" />
<polygon points="106.26263,550.1839 111.26263,558.8441 101.26263,558.8441" style="fill:rgb(0.0,0.0,255.0);opacity:1.0" />
<polygon points="113.43434,560.51733 118.43434,569.17755 108.43434,569.17755" style="fill:rgb(0.0,0.0,255.0);opacity:1.0" />
<polygon points="120.606064,570.9087 125.606064,579.5689 115.606064,579.5689" style="fill:rgb(0.0,0.0,255.0);opacity:1.0" />
<polygon points="127.77778,572.76166 132.77777,581.4219 122.77778,581.4219" style="fill:rgb(0.0,0.0,255.0);opacity:1.0" />
<polygon points="134.9495,565.0221 139.9495,573.6823 129.9495,573.6823" style="fill:rgb(0.0,0.0,255.0);opacity:1.0" />
<polygon points="142.12122,572.5947 147.12122,581.255 137.12122,581.255" style="fill:rgb(0.0,0.0,255.0);opacity:1.0" />
<polygon points="149.29294,570.17096 154.29294,578.8312 144.29294,578.8312" style="fill:rgb(0.0,0.0,255.0);opacity:1.0" />
<polygon points="156.46465,566.9432 161.46465,575.6034 151.46465,575.6034" style="fill:rgb(0.0,0.0,255.0);opacity:1.0" />
<polygon points="163.63637,551.3722 168.63637,560.0325 158.63637,560.0325" style="fill:rgb(0.0,0.0,255.0);opacity:1.0" />
<polygon points="170.80807,558.2 175.80807,566.8603 165.80807,566.8603" style="fill:rgb(0.0,0.0,255.0);opacity:1.0" />
<polygon points="177.9798,546.95685 182.9798,555.6171 172.9798,555.6171" style="fill:rgb(0.0,0.0,255.0);opacity:1.0" />
<polygon points="185.15152,530.8552 190.15152,539.5155 180.15152,539.5155" style="fill:rgb(0.0,0.0,255.0);opacity:1.0" />
<polygon points="192.32323,563.5848 197.32323,572.24506 187.32323,572.24506" style="fill:rgb(0.0,0.0,255.0);opacity:1.0" />
<polygon points="199.49495,520.81085 204.49495,529.47107 194.49495,529.47107" style="fill:rgb(0.0,0.0,255.0);opacity:1.0" />
<polygon points="206.66666,527.1417 211.66666,535.80194 201.66666,535.80194" style="fill:rgb(0.0,0.0,255.0);opacity:1.0" />
<polygon points="213.83838,541.8069 218.83838,550.46716 208.83838,550.46716" style="fill:rgb(0.0,0.0,255.0);opacity:1.0" />
<polygon points="221.0101,548.47455 226.0101,557.1348 216.0101,557.1348" style="fill:rgb(0.0,0.0,255.0);opacity:1.0" />
<polygon points="228.18181,514.8186 233.18181,523.4788 223.18181,523.4788" style="fill:rgb(0.0,0.0,255.0);opacity:1.0" />
<polygon points="235.35353,519.262 240.35353,527.9223 230.35353,527.9223" style="fill:rgb(0.0,0.0,255.0);opacity:1.0" />
<polygon points="242.52525,542.52576 247.52525,551.18604 237.52525,551.18604" style="fill:rgb(0.0,0.0,255.0);opacity:1.0" />
<polygon points="249.69696,533.267 254.69696,541.9273 244.69696,541.9273" style="fill:rgb(0.0,0.0,255.0);opacity:1.0" />
<polygon points="256.86868,533.97144 261.86868,542.6317 251.86868,542.6317" style="fill:rgb(0.0,0.0,255.0);opacity:1.0" />
<polygon points="264.0404,532.3385 269.0404,540.9988 259.0404,540.9988" style="fill:rgb(0.0,0.0,255.0);opacity:1.0" />
<polygon points="271.2121,538.7435 276.2121,547.40375 266.2121,547.40375" style="fill:rgb(0.0,0.0,255.0);opacity:1.0" />
<polygon points="278.38385,530.59644 283.38385,539.25665 273.38385,539.25665" style="fill:rgb(0.0,0.0,255.0);opacity:1.0" />
<polygon points="285.55554,495.0177 290.55554,503.67795 280.55554,503.67795" style="fill:rgb(0.0,0.0,255.0);opacity:1.0" />
<polygon points="292.72726,518.0492 297.72726,526.7095 287.72726,526.7095" style="fill:rgb(0.0,0.0,255.0);opacity:1.0" />
<polygon points="299.899,511.77026 304.899,520.43054 294.899,520.43054" style="fill:rgb(0.0,0.0,255.0);opacity:1.0" />
<polygon points="307.0707,493.21173 312.0707,501.872 302.0707,501.872" style="fill:rgb(0.0,0.0,255.0);opacity:1.0" />
<polygon points="314.24243,495.6545 319.24243,504.31476 309.24243,504.31476" style="fill:rgb(0.0,0.0,255.0);opacity:1.0" />
<polygon points="321.41412,503.55173 326.41412,512.212 316.41412,512.212" style="fill:rgb(0.0,0.0,255.0);opacity:1.0" />
<polygon points="328.58588,502.63394 333.58588,511.2942 323.58588,511.2942" style="fill:rgb(0.0,0.0,255.0);opacity:1.0" />
<polygon points="335.75757,514.3856 340.75757,523.0459 330.75757,523.0459" style="fill:rgb(0.0,0.0,255.0);opacity:1.0" />
<polygon points="342.9293,498.9217 347.9293,507.58197 337.9293,507.58197" style="fill:rgb(0.0,0.0,255.0);opacity:1.0" />
<polygon points="350.101,469.16113 355.101,477.82138 345.101,477.82138" style="fill:rgb(0.0,0.0,255.0);opacity:1.0" />
<polygon points="357.27274,466.76312 362.27274,475.42337 352.27274,475.42337" style="fill:rgb(0.0,0.0,255.0);opacity:1.0" />
<polygon points="364.44443,506.86942 369.44443,515.52966 359.44443,515.52966" style="fill:rgb(0.0,0.0,255.0);opacity:1.0" />
<polygon points="371.61615,498.6998 376.61615,507.36005 366.61615,507.36005" style="fill:rgb(0.0,0.0,255.0);opacity:1.0" />
<polygon points="378.78787,499.01398 383.78787,507.67426 373.78787,507.67426" style="fill:rgb(0.0,0.0,255.0);opacity:1.0" />
<polygon points="385.9596,467.60907 390.9596,476.26935 380.9596,476.26935" style="fill:rgb(0.0,0.0,255.0);opacity:1.0" />
<polygon points="393.13132,484.50226 398.13132,493.16254 388.13132,493.16254" style="fill:rgb(0.0,0.0,255.0);opacity:1.0" />
<polygon points="400.30304,478.41406 405.30304,487.07434 395.30304,487.07434" style="fill:rgb(0.0,0.0,255.0);opacity:1.0" />
<polygon points="407.47473,454.65366 412.47473,463.3139 402.47473,463.3139" style="fill:rgb(0.0,0.0,255.0);opacity:1.0" />
<polygon points="414.64645,491.67615 419.64645,500.3364 409.64645,500.3364" style="fill:rgb(0.0,0.0,255.0);opacity:1.0" />
<polygon points="421.81818,471.06842 426.81818,479.7287 416.81818,479.7287" style="fill:rgb(0.0,0.0,255.0);opacity:1.0" />
<polygon points="428.9899,450.52435 433.9899,459.18463 423.9899,459.18463" style="fill:rgb(0.0,0.0,255.0);opacity:1.0" />
<polygon points="436.16162,483.6262 441.16162,492.28644 431.16162,492.28644" style="fill:rgb(0.0,0.0,255.0);opacity:1.0" />
<polygon points="443.33334,462.63843 448.33334,471.29868 438.33334,471.29868" style="fill:rgb(0.0,0.0,255.0);opacity:1.0" />
<polygon points="450.50504,474.1116 455.50504,482.77185 445.50504,482.77185" style="fill:rgb(0.0,0.0,255.0);opacity:1.0" />
<polygon points="457.67676,453.15546 462.67676,461.81567 452.67676,461.81567" style="fill:rgb(0.0,0.0,255.0);opacity:1.0" />
<polygon points="464.84848,459.85202 469.84848,468.51227 459.84848,468.51227" style="fill:rgb(0.0,0.0,255.0);opacity:1.0" />
<polygon points="472.0202,436.54453 477.0202,445.20477 467.0202,445.20477" style="fill:rgb(0.0,0.0,255.0);opacity:1.0" />
<polygon points="479.19193,466.35913 484.19193,475.0194 474.19193,475.0194" style="fill:rgb(0.0,0.0,255.0);opacity:1.0" />
<polygon points="486.36365,450.0157 491.36365,458.6759 481.36365,458.6759" style="fill:rgb(0.0,0.0,255.0);opacity:1.0" />
<polygon points="493.53534,437.635 498.53534,446.2953 488.53534,446.2953" style="fill:rgb(0.0,0.0,255.0);opacity:1.0" />
<polygon points="500.70706,455.88446 505.70706,464.5447 495.70706,464.5447" style="fill:rgb(0.0,0.0,255.0);opacity:1.0" />
<polygon points="507.87878,441.63025 512.8788,450.29047 502.87878,450.29047" style="fill:rgb(0.0,0.0,255.0);opacity:1.0" />
<polygon points="515.05054,432.41904 520.05054,441.07928 510.0505,441.07928" style="fill:rgb(0.0,0.0,255.0);opacity:1.0" />
<polygon points="522.2222,445.47552 527.2222,454.13574 517.2222,454.13574" style="fill:rgb(0.0,0.0,255.0);opacity:1.0" />
<polygon points="529.3939,421.95465 534.3939,430.61493 524.3939,430.61493" style="fill:rgb(0.0,0.0,255.0);opacity:1.0" />
<polygon points="536.5657,446.04102 541.5657,454.70123 531.5657,454.70123" style="fill:rgb(0.0,0.0,255.0);opacity:1.0" />
<polygon points="543.73737,436.78464 548.73737,445.4449 538.73737,445.4449" style="fill:rgb(0.0,0.0,255.0);opacity:1.0" />
<polygon points="550.90906,431.14044 555.90906,439.80072 545.90906,439.80072" style="fill:rgb(0.0,0.0,255.0);opacity:1.0" />
<polygon points="558.0808,400.41266 563.0808,409.0729 553.0808,409.0729" style="fill:rgb(0.0,0.0,255.0);opacity:1.0" />
<polygon points="565.25256,432.99185 570.25256,441.6521 560.25256,441.6521" style="fill:rgb(0.0,0.0,255.0);opacity:1.0" />
<polygon points="572.4242,430.09607 577.4242,438.75632 567.4242,438.75632" style="fill:rgb(0.0,0.0,255.0);opacity:1.0" />
<polygon points="579.59595,403.31952 584.59595,411.97974 574.59595,411.97974" style="fill:rgb(0.0,0.0,255.0);opacity:1.0" />
<polygon points="586.7677,413.82574 591.7677,422.486 581.7677,422.486" style="fill:rgb(0.0,0.0,255.0);opacity:1.0" />
<polygon points="593.9394,414.2979 598.9394,422.95813 588.9394,422.95813" style="fill:rgb(0.0,0.0,255.0);opacity:1.0" />
<polygon points="601.1111,409.2276 606.1111,417.88782 596.1111,417.88782" style="fill:rgb(0.0,0.0,255.0);opacity:1.0" />
<polygon points="608.28284,416.87677 613.28284,425.537 603.28284,425.537" style="fill:rgb(0.0,0.0,255.0);opacity:1.0" />
<polygon points="615.4545,412.5012 620.4545,421.16144 610.4545,421.16144" style="fill:rgb(0.0,0.0,255.0);opacity:1.0" />
<polygon points="622.6263,393.35846 627.6263,402.01874 617.6263,402.01874" style="fill:rgb(0.0,0.0,255.0);opacity:1.0" />
<polygon points="629.798,405.50842 634.798,414.16867 624.798,414.16867" style="fill:rgb(0.0,0.0,255.0);opacity:1.0" />
<polygon points="636.96967,398.82465 641.96967,407.48492 631.96967,407.48492" style="fill:rgb(0.0,0.0,255.0);opacity:1.0" />
<polygon points="644.1414,393.41852 649.1414,402.07874 639.1414,402.07874" style="fill:rgb(0.0,0.0,255.0);opacity:1.0" />
<polygon points="651.3131,399.6623 656.3131,408.32254 646.3131,408.32254" style="fill:rgb(0.0,0.0,255.0);opacity:1.0" />
<polygon points="658.48486,401.41068 663.48486,410.07092 653.48486,410.07092" style="fill:rgb(0.0,0.0,255.0);opacity:1.0" />
<polygon points="665.65656,383.2046 670.65656,391.8648 660.65656,391.8648" style="fill:rgb(0.0,0.0,255.0);opacity:1.0" />
<polygon points="672.8283,406.97644 677.8283,415.63666 667.8283,415.63666" style="fill:rgb(0.0,0.0,255.0);opacity:1.0" />
<polygon points="680.0,399.2941 685.0,407.95435 675.0,407.95435" style="fill:rgb(0.0,0.0,255.0);opacity:1.0" />
<polygon points="687.1717,402.19843 692.1717,410.85864 682.1717,410.85864" style="fill:rgb(0.0,0.0,255.0);opacity:1.0" />
<polygon points="694.34344,366.2576 699.34344,374.91785 689.34344,374.91785" style="fill:rgb(0.0,0.0,255.0);opacity:1.0" />
<polygon points="701.51514,399.80487 706.51514,408.4651 696.51514,408.4651" style="fill:rgb(0.0,0.0,255.0);opacity:1.0" />
<polygon points="708.6869,360.4243 713.6869,369.08453 703.6869,369.08453" style="fill:rgb(0.0,0.0,255.0);opacity:1.0" />
<polygon points="715.8586,363.7055 720.8586,372.36578 710.8586,372.36578" style="fill:rgb(0.0,0.0,255.0);opacity:1.0" />
<polygon points="723.0303,360.34412 728.0303,369.0044 718.0303,369.0044" style="fill:rgb(0.0,0.0,255.0);opacity:1.0" />
<polygon points="730.202,363.89258 735.202,372.5528 725.202,372.5528" style="fill:rgb(0.0,0.0,255.0);opacity:1.0" />
<polygon points="737.3737,378.48694 742.3737,387.14716 732.3737,387.14716" style="fill:rgb(0.0,0.0,255.0);opacity:1.0" />
<polygon points="744.5455,362.6595 749.5455,371.31973 739.5455,371.31973" style="fill:rgb(0.0,0.0,255.0);opacity:1.0" />
<polygon points="751.71716,339.71777 756.71716,348.378 746.71716,348.378" style="fill:rgb(0.0,0.0,255.0);opacity:1.0" />
<polygon points="758.8889,344.56006 763.8889,353.22028 753.8889,353.22028" style="fill:rgb(0.0,0.0,255.0);opacity:1.0" />
<polygon points="766.0606,349.2398 771.0606,357.90002 761.0606,357.90002" style="fill:rgb(0.0,0.0,255.0);opacity:1.0" />
<polygon points="773.2323,369.54294 778.2323,378.2032 768.2323,378.2032" style="fill:rgb(0.0,0.0,255.0);opacity:1.0" />
<polygon points="780.40405,371.4616 785.40405,380.12183 775.40405,380.12183" style="fill:rgb(0.0,0.0,255.0);opacity:1.0" />
<polygon points="787.57574,337.82657 792.57574,346.48682 782.57574,346.48682" style="fill:rgb(0.0,0.0,255.0);opacity:1.0" />
<polygon points="794.7475,346.00943 799.7475,354.66968 789.7475,354.66968" style="fill:rgb(0.0,0.0,255.0);opacity:1.0" />
<polygon points="801.9192,337.48782 806.9192,346.14807 796.9192,346.14807" style="fill:rgb(0.0,0.0,255.0);opacity:1.0" />
<polygon points="809.0909,349.8175 814.0909,358.47775 804.0909,358.47775" style="fill:rgb(0.0,0.0,255.0);opacity:1.0" />
<text x="456.15" y="58.5" stroke="#000000" stroke-width="1.2" transform="rotate(-0.0,456.15,58.5)">SCATTER PLOT</text>
<text x="476.8" y="635.4" stroke="#000000" stroke-width="1.2" transform="rotate(-0.0,476.8,635.4)">X-AXIS</text>
<text x="45.0" y="376.6" stroke="#000000" stroke-width="1.2" transform="rotate(-90.0,45.0,376.6)">Y-AXIS</text>
<rect x="120.0" y="86.0" width="67.880005" height="40.0" style="fill:rgb(255.0,255.0,255.0);stroke-width:2.0;stroke:rgb(0.0,0.0,0.0);opacity:0.7" />
<circle cx="132.0" cy="98.0" r="4.0"  style="fill:rgb(164.985,164.985,0.0);opacity:1.0" />
<text x="144.0" y="102.0" stroke="#000000" stroke-width="1.2" transform="rotate(-0.0,144.0,102.0)">Plot 1</text>
<polygon points="132.0,110.0 135.4641,116.0 128.5359,116.0" style="fill:rgb(0.0,0.0,255.0);opacity:1.0" />
<text x="144.0" y="118.0" stroke="#000000" stroke-width="1.2" transform="rotate(-0.0,144.0,118.0)">Plot 2</text>
</svg>