<svg height="1000.0" width="1000.0" version="4.0" xmlns="http://www.w3.org/2000/svg" xmlns:xlink= "http://www.w3.org/1999/xlink">
<rect width="100%" height="100%" fill="white"/>
<line x1="163.63637" y1="900.0" x2="163.63637" y2="100.0" style="stroke:rgb(127.5,127.5,127.5);stroke-width:0.5;opacity:1.0;stroke-linecap:round" />
<line x1="235.35353" y1="900.0" x2="235.35353" y2="100.0" style="stroke:rgb(127.5,127.5,127.5);stroke-width:0.5;opacity:1.0;stroke-linecap:round" />
<line x1="307.0707" y1="900.0" x2="307.0707" y2="100.0" style="stroke:rgb(127.5,127.5,127.5);stroke-width:0.5;opacity:1.0;stroke-linecap:round" />
<line x1="378.78787" y1="900.0" x2="378.78787" y2="100.0" style="stroke:rgb(127.5,127.5,127.5);stroke-width:0.5;opacity:1.0;stroke-linecap:round" />
<line x1="450.50504" y1="900.0" x2="450.50504" y2="100.0" style="stroke:rgb(127.5,127.5,127.5);stroke-width:0.5;opacity:1.0;stroke-linecap:round" />
<line x1="522.22217" y1="900.0" x2="522.22217" y2="100.0" style="stroke:rgb(127.5,127.5,127.5);stroke-width:0.5;opacity:1.0;stroke-linecap:round" />
<line x1="593.93933" y1="900.0" x2="593.93933" y2="100.0" style="stroke:rgb(127.5,127.5,127.5);stroke-width:0.5;opacity:1.0;stroke-linecap:round" />
<line x1="665.65656" y1="900.0" x2="665.65656" y2="100.0" style="stroke:rgb(127.5,127.5,127.5);stroke-width:0.5;opacity:1.0;stroke-linecap:round" />
<line x1="737.3737" y1="900.0" x2="737.3737" y2="100.0" style="stroke:rgb(127.5,127.5,127.5);stroke-width:0.5;opacity:1.0;stroke-linecap:round" />
<line x1="809.0909" y1="900.0" x2="809.0909" y2="100.0" style="stroke:rgb(127.5,127.5,127.5);stroke-width:0.5;opacity:1.0;stroke-linecap:round" />
<line x1="880.80804" y1="900.0" x2="880.80804" y2="100.0" style="stroke:rgb(127.5,127.5,127.5);stroke-width:0.5;opacity:1.0;stroke-linecap:round" />
<line x1="100.0" y1="550.41266" x2="900.0" y2="550.41266" style="stroke:rgb(127.5,127.5,127.5);stroke-width:0.5;opacity:1.0;stroke-linecap:round" />
<line x1="100.0" y1="197.26343" x2="900.0" y2="197.26343" style="stroke:rgb(127.5,127.5,127.5);stroke-width:0.5;opacity:1.0;stroke-linecap:round" />
<rect x="100.0" y="100.0" width="800.0" height="800.0" style="fill:rgb(255,255,255);stroke-width:2.0;stroke:rgb(0,0,0);opacity:1;fill-opacity:0;" />
<line x1="163.63637" y1="903.0" x2="163.63637" y2="900.0" style="stroke:rgb(0.0,0.0,0.0);stroke-width:2.0;opacity:1.0;stroke-linecap:round" />
<text x="154.09636" y="915.0" stroke="#000000" stroke-width="0.7" transform="rotate(-0.0,154.09636,915.0)">10.0</text>
<line x1="235.35353" y1="903.0" x2="235.35353" y2="900.0" style="stroke:rgb(0.0,0.0,0.0);stroke-width:2.0;opacity:1.0;stroke-linecap:round" />
<text x="225.49353" y="915.0" stroke="#000000" stroke-width="0.7" transform="rotate(-0.0,225.49353,915.0)">20.0</text>
<line x1="307.0707" y1="903.0" x2="307.0707" y2="900.0" style="stroke:rgb(0.0,0.0,0.0);stroke-width:2.0;opacity:1.0;stroke-linecap:round" />
<text x="297.2107" y="915.0" stroke="#000000" stroke-width="0.7" transform="rotate(-0.0,297.2107,915.0)">30.0</text>
<line x1="378.78787" y1="903.0" x2="378.78787" y2="900.0" style="stroke:rgb(0.0,0.0,0.0);stroke-width:2.0;opacity:1.0;stroke-linecap:round" />
<text x="368.92786" y="915.0" stroke="#000000" stroke-width="0.7" transform="rotate(-0.0,368.92786,915.0)">40.0</text>
<line x1="450.50504" y1="903.0" x2="450.50504" y2="900.0" style="stroke:rgb(0.0,0.0,0.0);stroke-width:2.0;opacity:1.0;stroke-linecap:round" />
<text x="440.64502" y="915.0" stroke="#000000" stroke-width="0.7" transform="rotate(-0.0,440.64502,915.0)">50.0</text>
<line x1="522.22217" y1="903.0" x2="522.22217" y2="900.0" style="stroke:rgb(0.0,0.0,0.0);stroke-width:2.0;opacity:1.0;stroke-linecap:round" />
<text x="512.3622" y="915.0" stroke="#000000" stroke-width="0.7" transform="rotate(-0.0,512.3622,915.0)">60.0</text>
<line x1="593.93933" y1="903.0" x2="593.93933" y2="900.0" style="stroke:rgb(0.0,0.0,0.0);stroke-width:2.0;opacity:1.0;stroke-linecap:round" />
<text x="584.07935" y="915.0" stroke="#000000" stroke-width="0.7" transform="rotate(-0.0,584.07935,915.0)">70.0</text>
<line x1="665.65656" y1="903.0" x2="665.65656" y2="900.0" style="stroke:rgb(0.0,0.0,0.0);stroke-width:2.0;opacity:1.0;stroke-linecap:round" />
<text x="655.7966" y="915.0" stroke="#000000" stroke-width="0.7" transform="rotate(-0.0,655.7966,915.0)">80.0</text>
<line x1="737.3737" y1="903.0" x2="737.3737" y2="900.0" style="stroke:rgb(0.0,0.0,0.0);stroke-width:2.0;opacity:1.0;stroke-linecap:round" />
<text x="727.51373" y="915.0" stroke="#000000" stroke-width="0.7" transform="rotate(-0.0,727.51373,915.0)">90.0</text>
<line x1="809.0909" y1="903.0" x2="809.0909" y2="900.0" style="stroke:rgb(0.0,0.0,0.0);stroke-width:2.0;opacity:1.0;stroke-linecap:round" />
<text x="799.2309" y="915.0" stroke="#000000" stroke-width="0.7" transform="rotate(-0.0,799.2309,915.0)">100.0</text>
<line x1="880.80804" y1="903.0" x2="880.80804" y2="900.0" style="stroke:rgb(0.0,0.0,0.0);stroke-width:2.0;opacity:1.0;stroke-linecap:round" />
<text x="869.82806" y="915.0" stroke="#000000" stroke-width="0.7" transform="rotate(-0.0,869.82806,915.0)">110.0</text>
<line x1="97.0" y1="550.41266" x2="100.0" y2="550.41266" style="stroke:rgb(0.0,0.0,0.0);stroke-width:2.0;opacity:1.0;stroke-linecap:round" />
<text x="57.04" y="554.41266" stroke="#000000" stroke-width="0.7" transform="rotate(-0.0,57.04,554.41266)">100.0</text>
<line x1="97.0" y1="197.26343" x2="100.0" y2="197.26343" style="stroke:rgb(0.0,0.0,0.0);stroke-width:2.0;opacity:1.0;stroke-linecap:round" />
<text x="56.4" y="201.26343" stroke="#000000" stroke-width="0.7" transform="rotate(-0.0,56.4,201.26343)">200.0</text>
<circle cx="106.26263" cy="879.88" r="5.0"  style="fill:rgb(212.27068,212.27068,2.2968054);opacity:1.0" />
<circle cx="113.43434" cy="876.62286" r="5.0"  style="fill:rgb(211.26788,211.26788,3.4905987);opacity:1.0" />
<circle cx="120.606064" cy="855.4014" r="5.0"  style="fill:rgb(204.73442,204.73442,11.26853);opacity:1.0" />
<circle cx="127.77778" cy="858.1508" r="5.0"  style="fill:rgb(205.58089,205.58089,10.260847);opacity:1.0" />
<circle cx="134.9495" cy="885.1161" r="5.0"  style="fill:rgb(213.8827,213.8827,0.37771353);opacity:1.0" />
<circle cx="142.12122" cy="886.14667" r="5.0"  style="fill:rgb(214.2,214.2,0.0);opacity:1.0" />
<circle cx="149.29294" cy="837.49475" r="5.0"  style="fill:rgb(199.22147,199.22147,17.831577);opacity:1.0" />
<circle cx="156.46465" cy="830.5379" r="5.0"  style="fill:rgb(197.07967,197.07967,20.381348);opacity:1.0" />
<circle cx="163.63637" cy="837.77844" r="5.0"  style="fill:rgb(199.3088,199.3088,17.727592);opacity:1.0" />
<circle cx="170.80807" cy="811.5114" r="5.0"  style="fill:rgb(191.22195,191.22195,27.354803);opacity:1.0" />
<circle cx="177.9798" cy="817.55084" r="5.0"  style="fill:rgb(193.08131,193.08131,25.14127);opacity:1.0" />
<circle cx="185.15152" cy="797.7177" r="5.0"  style="fill:rgb(186.97528,186.97528,32.410374);opacity:1.0" />
<circle cx="192.32323" cy="771.9053" r="5.0"  style="fill:rgb(179.0284,179.0284,41.87096);opacity:1.0" />
<circle cx="199.49495" cy="788.5549" r="5.0"  style="fill:rgb(184.15431,184.15431,35.768677);opacity:1.0" />
<circle cx="206.66666" cy="818.4576" r="5.0"  style="fill:rgb(193.3605,193.3605,24.808935);opacity:1.0" />
<circle cx="213.83838" cy="779.41345" r="5.0"  style="fill:rgb(181.33994,181.33994,39.119118);opacity:1.0" />
<circle cx="221.0101" cy="750.3193" r="5.0"  style="fill:rgb(172.38269,172.38269,49.78251);opacity:1.0" />
<circle cx="228.18181" cy="789.81744" r="5.0"  style="fill:rgb(184.54301,184.54301,35.305927);opacity:1.0" />
<circle cx="235.35353" cy="769.4022" r="5.0"  style="fill:rgb(178.25775,178.25775,42.78838);opacity:1.0" />
<circle cx="242.52525" cy="748.7583" r="5.0"  style="fill:rgb(171.9021,171.9021,50.354633);opacity:1.0" />
<circle cx="249.69696" cy="743.8685" r="5.0"  style="fill:rgb(170.39667,170.39667,52.14681);opacity:1.0" />
<circle cx="256.86868" cy="740.1956" r="5.0"  style="fill:rgb(169.2659,169.2659,53.49296);opacity:1.0" />
<circle cx="264.0404" cy="767.95667" r="5.0"  style="fill:rgb(177.81271,177.81271,43.318195);opacity:1.0" />
<circle cx="271.2121" cy="707.5725" r="5.0"  style="fill:rgb(159.2222,159.2222,65.44976);opacity:1.0" />
<circle cx="278.38385" cy="695.89606" r="5.0"  style="fill:rgb(155.62735,155.62735,69.72933);opacity:1.0" />
<circle cx="285.55554" cy="729.5086" r="5.0"  style="fill:rgb(165.9757,165.9757,57.409893);opacity:1.0" />
<circle cx="292.72726" cy="699.1691" r="5.0"  style="fill:rgb(156.63503,156.63503,68.52972);opacity:1.0" />
<circle cx="299.899" cy="722.3308" r="5.0"  style="fill:rgb(163.76587,163.76587,60.04064);opacity:1.0" />
<circle cx="307.0707" cy="683.00964" r="5.0"  style="fill:rgb(151.66,151.66,74.45237);opacity:1.0" />
<circle cx="314.24243" cy="654.1003" r="5.0"  style="fill:rgb(142.75964,142.75964,85.048035);opacity:1.0" />
<circle cx="321.41412" cy="678.5169" r="5.0"  style="fill:rgb(150.27681,150.27681,76.09902);opacity:1.0" />
<circle cx="328.58588" cy="639.7626" r="5.0"  style="fill:rgb(138.34549,138.34549,90.30299);opacity:1.0" />
<circle cx="335.75757" cy="680.08057" r="5.0"  style="fill:rgb(150.75822,150.75822,75.525925);opacity:1.0" />
<circle cx="342.9293" cy="667.39795" r="5.0"  style="fill:rgb(146.85362,146.85362,80.174255);opacity:1.0" />
<circle cx="350.101" cy="684.2223" r="5.0"  style="fill:rgb(152.03334,152.03334,74.00792);opacity:1.0" />
<circle cx="357.27274" cy="610.4778" r="5.0"  style="fill:rgb(129.32956,129.32956,101.036255);opacity:1.0" />
<circle cx="364.44443" cy="667.1191" r="5.0"  style="fill:rgb(146.76776,146.76776,80.27647);opacity:1.0" />
<circle cx="371.61615" cy="646.2158" r="5.0"  style="fill:rgb(140.33224,140.33224,87.93779);opacity:1.0" />
<circle cx="378.78787" cy="627.0283" r="5.0"  style="fill:rgb(134.42496,134.42496,94.970276);opacity:1.0" />
<circle cx="385.9596" cy="606.6145" r="5.0"  style="fill:rgb(128.14014,128.14014,102.452194);opacity:1.0" />
<circle cx="393.13132" cy="619.68896" r="5.0"  style="fill:rgb(132.1654,132.1654,97.66023);opacity:1.0" />
<circle cx="400.30304" cy="621.51025" r="5.0"  style="fill:rgb(132.72612,132.72612,96.99271);opacity:1.0" />
<circle cx="407.47473" cy="593.90094" r="5.0"  style="fill:rgb(124.22602,124.22602,107.111885);opacity:1.0" />
<circle cx="414.64645" cy="603.9271" r="5.0"  style="fill:rgb(127.312775,127.312775,103.43716);opacity:1.0" />
<circle cx="421.81818" cy="604.75635" r="5.0"  style="fill:rgb(127.56809,127.56809,103.133224);opacity:1.0" />
<circle cx="428.9899" cy="551.4099" r="5.0"  style="fill:rgb(111.14425,111.14425,122.68541);opacity:1.0" />
<circle cx="436.16162" cy="532.71204" r="5.0"  style="fill:rgb(105.38773,105.38773,129.5384);opacity:1.0" />
<circle cx="443.33334" cy="574.5908" r="5.0"  style="fill:rgb(118.281,118.281,114.18928);opacity:1.0" />
<circle cx="450.50504" cy="554.24866" r="5.0"  style="fill:rgb(112.01825,112.01825,121.64495);opacity:1.0" />
<circle cx="457.67676" cy="528.4242" r="5.0"  style="fill:rgb(104.06763,104.06763,131.10995);opacity:1.0" />
<circle cx="464.84848" cy="565.97974" r="5.0"  style="fill:rgb(115.62989,115.62989,117.34536);opacity:1.0" />
<circle cx="472.0202" cy="514.8108" r="5.0"  style="fill:rgb(99.87646,99.87646,136.09946);opacity:1.0" />
<circle cx="479.19193" cy="547.6763" r="5.0"  style="fill:rgb(109.99478,109.99478,124.053825);opacity:1.0" />
<circle cx="486.36365" cy="549.8721" r="5.0"  style="fill:rgb(110.67081,110.67081,123.24904);opacity:1.0" />
<circle cx="493.53534" cy="508.55664" r="5.0"  style="fill:rgb(97.95099,97.95099,138.39168);opacity:1.0" />
<circle cx="500.70706" cy="528.5213" r="5.0"  style="fill:rgb(104.09752,104.09752,131.07437);opacity:1.0" />
<circle cx="507.87878" cy="496.08652" r="5.0"  style="fill:rgb(94.11179,94.11179,142.96214);opacity:1.0" />
<circle cx="515.05054" cy="514.7916" r="5.0"  style="fill:rgb(99.87057,99.87057,136.10646);opacity:1.0" />
<circle cx="522.2222" cy="466.3272" r="5.0"  style="fill:rgb(84.94977,84.94977,153.86932);opacity:1.0" />
<circle cx="529.3939" cy="501.12198" r="5.0"  style="fill:rgb(95.66206,95.66206,141.11658);opacity:1.0" />
<circle cx="536.5657" cy="473.4289" r="5.0"  style="fill:rgb(87.13617,87.13617,151.26646);opacity:1.0" />
<circle cx="543.73737" cy="424.50714" r="5.0"  style="fill:rgb(72.07458,72.07458,169.19693);opacity:1.0" />
<circle cx="550.90906" cy="442.64496" r="5.0"  style="fill:rgb(77.6587,77.6587,162.54916);opacity:1.0" />
<circle cx="558.0808" cy="464.9087" r="5.0"  style="fill:rgb(84.51306,84.51306,154.3892);opacity:1.0" />
<circle cx="565.25256" cy="406.06622" r="5.0"  style="fill:rgb(66.397156,66.397156,175.95576);opacity:1.0" />
<circle cx="572.4242" cy="417.57404" r="5.0"  style="fill:rgb(69.94007,69.94007,171.738);opacity:1.0" />
<circle cx="579.59595" cy="449.82617" r="5.0"  style="fill:rgb(79.86957,79.86957,159.91718);opacity:1.0" />
<circle cx="586.7677" cy="411.89087" r="5.0"  style="fill:rgb(68.19041,68.19041,173.82094);opacity:1.0" />
<circle cx="593.9394" cy="418.6073" r="5.0"  style="fill:rgb(70.2582,70.2582,171.35928);opacity:1.0" />
<circle cx="601.1111" cy="431.09753" r="5.0"  style="fill:rgb(74.10356,74.10356,166.78148);opacity:1.0" />
<circle cx="608.28284" cy="386.95117" r="5.0"  style="fill:rgb(60.512196,60.512196,182.96167);opacity:1.0" />
<circle cx="615.4545" cy="399.36462" r="5.0"  style="fill:rgb(64.33392,64.33392,178.41199);opacity:1.0" />
<circle cx="622.6263" cy="406.60986" r="5.0"  style="fill:rgb(66.56454,66.56454,175.7565);opacity:1.0" />
<circle cx="629.798" cy="352.35938" r="5.0"  style="fill:rgb(49.862377,49.862377,195.64003);opacity:1.0" />
<circle cx="636.96967" cy="344.52325" r="5.0"  style="fill:rgb(47.449867,47.449867,198.51207);opacity:1.0" />
<circle cx="644.1414" cy="332.66742" r="5.0"  style="fill:rgb(43.799805,43.799805,202.85738);opacity:1.0" />
<circle cx="651.3131" cy="326.9234" r="5.0"  style="fill:rgb(42.03138,42.03138,204.96265);opacity:1.0" />
<circle cx="658.48486" cy="342.64905" r="5.0"  style="fill:rgb(46.87286,46.87286,199.19897);opacity:1.0" />
<circle cx="665.65656" cy="363.05908" r="5.0"  style="fill:rgb(53.15651,53.15651,191.71844);opacity:1.0" />
<circle cx="672.8283" cy="299.03174" r="5.0"  style="fill:rgb(33.44435,33.44435,215.1853);opacity:1.0" />
<circle cx="680.0" cy="355.8797" r="5.0"  style="fill:rgb(50.946182,50.946182,194.34978);opacity:1.0" />
<circle cx="687.1717" cy="347.49628" r="5.0"  style="fill:rgb(48.36518,48.36518,197.42241);opacity:1.0" />
<circle cx="694.34344" cy="314.70453" r="5.0"  style="fill:rgb(38.26955,38.26955,209.44101);opacity:1.0" />
<circle cx="701.51514" cy="317.71295" r="5.0"  style="fill:rgb(39.19576,39.19576,208.33838);opacity:1.0" />
<circle cx="708.6869" cy="313.89575" r="5.0"  style="fill:rgb(38.02055,38.02055,209.73744);opacity:1.0" />
<circle cx="715.8586" cy="261.85706" r="5.0"  style="fill:rgb(21.999348,21.999348,228.8103);opacity:1.0" />
<circle cx="723.0303" cy="286.6034" r="5.0"  style="fill:rgb(29.618025,29.618025,219.74045);opacity:1.0" />
<circle cx="730.202" cy="269.69318" r="5.0"  style="fill:rgb(24.411858,24.411858,225.93826);opacity:1.0" />
<circle cx="737.3737" cy="260.63623" r="5.0"  style="fill:rgb(21.62349,21.62349,229.25775);opacity:1.0" />
<circle cx="744.5455" cy="237.88849" r="5.0"  style="fill:rgb(14.62012,14.62012,237.5951);opacity:1.0" />
<circle cx="751.71716" cy="228.43951" r="5.0"  style="fill:rgb(11.711049,11.711049,241.05827);opacity:1.0" />
<circle cx="758.8889" cy="269.9049" r="5.0"  style="fill:rgb(24.477047,24.477047,225.86066);opacity:1.0" />
<circle cx="766.0606" cy="258.4286" r="5.0"  style="fill:rgb(20.943823,20.943823,230.06688);opacity:1.0" />
<circle cx="773.2323" cy="198.62958" r="5.0"  style="fill:rgb(2.5334437,2.5334437,251.984);opacity:1.0" />
<circle cx="780.40405" cy="255.09412" r="5.0"  style="fill:rgb(19.917229,19.917229,231.28902);opacity:1.0" />
<circle cx="787.57574" cy="227.42902" r="5.0"  style="fill:rgb(11.399948,11.399948,241.42863);opacity:1.0" />
<circle cx="794.7475" cy="215.87836" r="5.0"  style="fill:rgb(7.843842,7.843842,245.6621);opacity:1.0" />
<circle cx="801.9192" cy="190.4007" r="5.0"  style="fill:rgb(0.0,0.0,255.0);opacity:1.0" />
<circle cx="809.0909" cy="225.8125" r="5.0"  style="fill:rgb(10.902265,10.902265,242.02112);opacity:1.0" />
<polygon points="106.26263,851.08606 104.79317,854.06354 101.50735,854.541 103.88499,856.85864 103.3237,860.13116 106.26263,858.58606 109.20155,860.13116 108.64027,856.85864 111.017914,854.541 107.73209,854.06354 106.26263,851.08606 104.79317,854.06354 " style="fill:rgb(127.5,127.5,0.0);opacity:1.0" />
<polygon points="113.43434,845.7895 111.96488,848.76697 108.67906,849.2444 111.0567,851.562 110.495415,854.8346 113.43434,853.2895 116.37327,854.8346 115.81198,851.562 118.18963,849.2444 114.90381,848.76697 113.43435,845.7895 111.96489,848.76697 " style="fill:rgb(127.5,127.5,0.0);opacity:1.0" />
<polygon points="120.606064,859.1767 119.1366,862.1542 115.85078,862.6316 118.228424,864.9492 117.66713,868.2218 120.60606,866.6767 123.54498,868.2218 122.9837,864.9492 125.36134,862.6316 122.07552,862.1542 120.606064,859.1767 119.1366,862.1542 " style="fill:rgb(127.5,127.5,0.0);opacity:1.0" />
<polygon points="127.77778,860.7279 126.30832,863.7053 123.02249,864.1828 125.40014,866.5004 124.83885,869.77295 127.77778,868.2279 130.7167,869.77295 130.15543,866.5004 132.53307,864.1828 129.24724,863.7053 127.77778,860.7279 126.30832,863.7053 " style="fill:rgb(127.5,127.5,0.0);opacity:1.0" />
<polygon points="134.9495,839.7036 133.48004,842.6811 130.19421,843.15857 132.57185,845.4762 132.01057,848.7487 134.9495,847.2036 137.88843,848.7487 137.32713,845.4762 139.70477,843.15857 136.41896,842.6811 134.9495,839.7036 133.48004,842.6811 " style="fill:rgb(127.5,127.5,0.0);opacity:1.0" />
<polygon points="142.12122,846.17566 140.65175,849.15314 137.36594,849.6306 139.74358,851.94824 139.18228,855.22076 142.12122,853.67566 145.06013,855.22076 144.49886,851.94824 146.8765,849.6306 143.59067,849.15314 142.12122,846.17566 140.65175,849.15314 " style="fill:rgb(127.5,127.5,0.0);opacity:1.0" />
<polygon points="149.29294,824.41016 147.82347,827.38763 144.53764,827.8651 146.91528,830.18274 146.354,833.4553 149.29294,831.91016 152.23186,833.45526 151.67056,830.18274 154.04822,827.8651 150.76239,827.3877 149.29292,824.41016 147.82347,827.38763 " style="fill:rgb(127.5,127.5,0.0);opacity:1.0" />
<polygon points="156.46465,825.22107 154.99518,828.19855 151.70937,828.676 154.087,830.99365 153.52573,834.2662 156.46465,832.72107 159.40358,834.2662 158.84229,830.99365 161.21992,828.676 157.93411,828.19855 156.46465,825.22107 154.9952,828.19855 " style="fill:rgb(127.5,127.5,0.0);opacity:1.0" />
<polygon points="163.63637,832.419 162.1669,835.3965 158.88109,835.8739 161.25873,838.1915 160.69743,841.4641 163.63637,839.919 166.57529,841.4641 166.014,838.1915 168.39165,835.8739 165.10583,835.3965 163.63637,832.419 162.1669,835.3965 " style="fill:rgb(127.5,127.5,0.0);opacity:1.0" />
<polygon points="170.80807,800.76733 169.33862,803.74475 166.0528,804.2222 168.43044,806.53986 167.86916,809.8124 170.80807,808.26733 173.74701,809.8124 173.18571,806.5399 175.56335,804.2222 172.27756,803.74475 170.80807,800.76733 169.33862,803.74475 " style="fill:rgb(127.5,127.5,0.0);opacity:1.0" />
<polygon points="177.9798,840.0854 176.51035,843.06287 173.22452,843.5403 175.60216,845.8579 175.04086,849.1305 177.9798,847.5854 180.91872,849.1305 180.35744,845.8579 182.73508,843.5403 179.44925,843.06287 177.9798,840.0854 176.51035,843.06287 " style="fill:rgb(127.5,127.5,0.0);opacity:1.0" />
<polygon points="185.15152,830.40955 183.68205,833.38696 180.39624,833.86444 182.77386,836.18207 182.21259,839.4546 185.1515,837.90955 188.09044,839.4546 187.52914,836.18207 189.9068,833.86444 186.62097,833.38696 185.15152,830.40955 183.68207,833.38696 " style="fill:rgb(127.5,127.5,0.0);opacity:1.0" />
<polygon points="192.32323,826.505 190.85376,829.4824 187.56795,829.9599 189.94559,832.27747 189.38431,835.55005 192.32321,834.005 195.26215,835.55005 194.70087,832.2775 197.07849,829.95984 193.7927,829.4824 192.32321,826.505 190.85378,829.4824 " style="fill:rgb(127.5,127.5,0.0);opacity:1.0" />
<polygon points="199.49495,808.10693 198.02548,811.08435 194.73967,811.5618 197.11731,813.87946 196.55603,817.152 199.49493,815.60693 202.43387,817.152 201.87259,813.87946 204.25021,811.5618 200.96442,811.08435 199.49493,808.10693 198.0255,811.08435 " style="fill:rgb(127.5,127.5,0.0);opacity:1.0" />
<polygon points="206.66666,775.30225 205.1972,778.2797 201.91138,778.7572 204.28903,781.0748 203.72774,784.34735 206.66666,782.80225 209.60559,784.34735 209.04431,781.0748 211.42194,778.7572 208.13614,778.2797 206.66666,775.30225 205.1972,778.2797 " style="fill:rgb(127.5,127.5,0.0);opacity:1.0" />
<polygon points="213.83838,806.2938 212.36893,809.2713 209.0831,809.7488 211.46074,812.0664 210.89946,815.3389 213.83838,813.7938 216.77731,815.3389 216.21602,812.0664 218.59366,809.7488 215.30786,809.2713 213.83838,806.2938 212.36893,809.2713 " style="fill:rgb(127.5,127.5,0.0);opacity:1.0" />
<polygon points="221.0101,764.18933 219.54065,767.1668 216.25482,767.6443 218.63248,769.9619 218.07117,773.23444 221.0101,771.68933 223.94902,773.23444 223.38773,769.9619 225.76538,767.6443 222.47955,767.1669 221.0101,764.18933 219.54065,767.1669 " style="fill:rgb(127.5,127.5,0.0);opacity:1.0" />
<polygon points="228.18181,785.22546 226.71234,788.20294 223.42653,788.6804 225.80417,790.99805 225.24289,794.27057 228.18181,792.72546 231.12073,794.27057 230.55945,790.99805 232.93707,788.6804 229.65128,788.20294 228.18181,785.2255 226.71234,788.20294 " style="fill:rgb(127.5,127.5,0.0);opacity:1.0" />
<polygon points="235.35353,778.81976 233.88406,781.79724 230.59825,782.27466 232.97589,784.5923 232.41461,787.86487 235.35353,786.31976 238.29245,787.8648 237.73117,784.5923 240.1088,782.27466 236.823,781.79724 235.35353,778.81976 233.88408,781.79724 " style="fill:rgb(127.5,127.5,0.0);opacity:1.0" />
<polygon points="242.52525,773.4467 241.05579,776.4242 237.76997,776.9016 240.14761,779.21924 239.58633,782.4918 242.52525,780.9467 245.46417,782.49176 244.9029,779.21924 247.28052,776.9016 243.99472,776.4242 242.52525,773.4467 241.0558,776.4242 " style="fill:rgb(127.5,127.5,0.0);opacity:1.0" />
<polygon points="249.69696,737.1319 248.2275,740.1094 244.94168,740.5868 247.31932,742.9044 246.75803,746.177 249.69698,744.6319 252.63588,746.177 252.0746,742.9044 254.45224,740.5868 251.1664,740.1094 249.69698,737.1319 248.22748,740.1094 " style="fill:rgb(127.5,127.5,0.0);opacity:1.0" />
<polygon points="256.86868,749.5935 255.39922,752.571 252.1134,753.04846 254.49104,755.3661 253.92975,758.6386 256.8687,757.0935 259.80762,758.6386 259.24634,755.3661 261.62396,753.04846 258.33813,752.571 256.8687,749.5935 255.3992,752.57104 " style="fill:rgb(127.5,127.5,0.0);opacity:1.0" />
<polygon points="264.0404,763.3839 262.57092,766.3614 259.28513,766.8388 261.66278,769.1565 261.10147,772.42896 264.0404,770.8839 266.9793,772.429 266.41803,769.15643 268.7957,766.83887 265.50983,766.3613 264.0404,763.3839 262.57092,766.3614 " style="fill:rgb(127.5,127.5,0.0);opacity:1.0" />
<polygon points="271.2121,703.81836 269.74265,706.79584 266.45685,707.2733 268.83447,709.59094 268.2732,712.86346 271.21213,711.31836 274.15103,712.86346 273.58975,709.59094 275.9674,707.2733 272.68155,706.79584 271.21213,703.81836 269.7426,706.7959 " style="fill:rgb(127.5,127.5,0.0);opacity:1.0" />
<polygon points="278.38385,715.1725 276.91437,718.14996 273.62854,718.62744 276.0062,720.94507 275.4449,724.2176 278.38385,722.6725 281.32275,724.2176 280.76147,720.94507 283.1391,718.62744 279.85327,718.14996 278.38385,715.1725 276.91437,718.15 " style="fill:rgb(127.5,127.5,0.0);opacity:1.0" />
<polygon points="285.55554,736.5602 284.0861,739.53766 280.8003,740.0151 283.17792,742.33276 282.61664,745.6052 285.55557,744.0602 288.49448,745.6053 287.9332,742.3327 290.31085,740.01514 287.025,739.5376 285.55557,736.5602 284.08606,739.53766 " style="fill:rgb(127.5,127.5,0.0);opacity:1.0" />
<polygon points="292.72726,694.9808 291.2578,697.95825 287.972,698.43567 290.3496,700.75336 289.78833,704.0259 292.7273,702.4808 295.6662,704.0259 295.10492,700.7533 297.48254,698.4357 294.19672,697.95825 292.7273,694.9808 291.25778,697.95825 " style="fill:rgb(127.5,127.5,0.0);opacity:1.0" />
<polygon points="299.899,702.68835 298.4295,705.6658 295.1437,706.14325 297.52136,708.4609 296.96005,711.7334 299.899,710.18835 302.8379,711.7334 302.2766,708.4608 304.65427,706.14325 301.3684,705.6658 299.899,702.68835 298.4295,705.6658 " style="fill:rgb(127.5,127.5,0.0);opacity:1.0" />
<polygon points="307.0707,694.6919 305.60126,697.6694 302.31543,698.14685 304.69305,700.4645 304.13177,703.737 307.07074,702.1919 310.00964,703.737 309.44836,700.4645 311.826,698.14685 308.54016,697.6694 307.07074,694.6919 305.60123,697.66943 " style="fill:rgb(127.5,127.5,0.0);opacity:1.0" />
<polygon points="314.24243,687.0379 312.77295,690.0154 309.48712,690.4928 311.86478,692.8104 311.30347,696.08295 314.24243,694.5379 317.18134,696.083 316.62006,692.8104 318.99768,690.4928 315.71185,690.0153 314.24243,687.0379 312.77295,690.0154 " style="fill:rgb(127.5,127.5,0.0);opacity:1.0" />
<polygon points="321.41412,697.0 319.94467,699.9775 316.65887,700.45496 319.0365,702.7726 318.47522,706.0451 321.41415,704.5 324.35306,706.0451 323.79178,702.7725 326.16943,700.45496 322.88358,699.9775 321.41415,697.0 319.94464,699.9775 " style="fill:rgb(127.5,127.5,0.0);opacity:1.0" />
<polygon points="328.58588,688.98376 327.1164,691.9612 323.83057,692.43866 326.20822,694.7563 325.6469,698.0288 328.58588,696.48376 331.52478,698.0288 330.9635,694.7562 333.34113,692.43866 330.0553,691.9612 328.58588,688.98376 327.1164,691.9612 " style="fill:rgb(127.5,127.5,0.0);opacity:1.0" />
<polygon points="335.75757,668.81335 334.2881,671.7908 331.0023,672.26825 333.37994,674.5859 332.81863,677.8584 335.75757,676.31335 338.69647,677.8584 338.1352,674.5859 340.51285,672.26825 337.227,671.7908 335.75757,668.81335 334.2881,671.79083 " style="fill:rgb(127.5,127.5,0.0);opacity:1.0" />
<polygon points="342.9293,618.58014 341.45984,621.5576 338.174,622.03503 340.55164,624.35266 339.99036,627.62524 342.9293,626.0802 345.86823,627.62524 345.30695,624.35266 347.68457,622.03503 344.39877,621.5576 342.9293,618.5802 341.45984,621.5576 " style="fill:rgb(127.5,127.5,0.0);opacity:1.0" />
<polygon points="350.101,648.8308 348.63153,651.8083 345.34573,652.28577 347.7234,654.6034 347.16208,657.8759 350.101,656.3308 353.03992,657.8759 352.47864,654.6034 354.8563,652.28577 351.57043,651.8083 350.101,648.8308 348.63153,651.80835 " style="fill:rgb(127.5,127.5,0.0);opacity:1.0" />
<polygon points="357.27274,627.7177 355.80328,630.6952 352.51746,631.1726 354.89508,633.49023 354.3338,636.7628 357.27274,635.2178 360.21164,636.7628 359.6504,633.49023 362.028,631.1726 358.74222,630.6952 357.27274,627.7177 355.80328,630.6952 " style="fill:rgb(127.5,127.5,0.0);opacity:1.0" />
<polygon points="364.44443,664.15106 362.97498,667.12854 359.68915,667.60596 362.0668,669.9236 361.5055,673.19617 364.44443,671.65106 367.38333,673.19617 366.82205,669.9236 369.1997,667.606 365.91388,667.12854 364.44446,664.15106 362.97498,667.12854 " style="fill:rgb(127.5,127.5,0.0);opacity:1.0" />
<polygon points="371.61615,640.00165 370.1467,642.9791 366.86087,643.45654 369.2385,645.7742 368.67725,649.04675 371.61612,647.50165 374.55508,649.0467 373.99377,645.77423 376.3714,643.45654 373.08563,642.9791 371.61612,640.0017 370.1467,642.9791 " style="fill:rgb(127.5,127.5,0.0);opacity:1.0" />
<polygon points="378.78787,600.1741 377.31842,603.1515 374.0326,603.62897 376.41022,605.94653 375.84897,609.2191 378.78784,607.6741 381.7268,609.2191 381.1655,605.94666 383.54315,603.6289 380.25735,603.1515 378.78784,600.1741 377.31842,603.1515 " style="fill:rgb(127.5,127.5,0.0);opacity:1.0" />
<polygon points="385.9596,638.8512 384.49014,641.8286 381.2043,642.3061 383.58194,644.62366 383.0207,647.89624 385.95956,646.3512 388.89853,647.89624 388.33722,644.6237 390.71484,642.306 387.42908,641.8286 385.95956,638.8512 384.49014,641.8286 " style="fill:rgb(127.5,127.5,0.0);opacity:1.0" />
<polygon points="393.13132,611.53 391.66187,614.5075 388.37604,614.985 390.75366,617.3026 390.1924,620.57513 393.1313,619.03 396.07025,620.57513 395.50894,617.3026 397.8866,614.985 394.6008,614.50757 393.1313,611.53 391.66187,614.5075 " style="fill:rgb(127.5,127.5,0.0);opacity:1.0" />
<polygon points="400.30304,622.5767 398.8336,625.5542 395.54776,626.0316 397.92538,628.34924 397.36414,631.6218 400.303,630.0767 403.24197,631.6218 402.68066,628.3493 405.05832,626.0316 401.77252,625.5542 400.303,622.5767 398.8336,625.5542 " style="fill:rgb(127.5,127.5,0.0);opacity:1.0" />
<polygon points="407.47473,609.8869 406.00528,612.8644 402.71945,613.3418 405.09708,615.6594 404.53583,618.932 407.4747,617.3869 410.41367,618.932 409.85236,615.6595 412.23,613.3418 408.9442,612.8644 407.4747,609.8869 406.00528,612.8644 " style="fill:rgb(127.5,127.5,0.0);opacity:1.0" />
<polygon points="414.64645,581.1177 413.177,584.0951 409.89117,584.57263 412.2688,586.8902 411.70755,590.1627 414.64642,588.6177 417.5854,590.1627 417.02408,586.89026 419.40173,584.5726 416.11594,584.09515 414.64642,581.1177 413.177,584.0951 " style="fill:rgb(127.5,127.5,0.0);opacity:1.0" />
<polygon points="421.81818,599.9549 420.34872,602.9324 417.0629,603.4098 419.44052,605.7274 418.87927,609.0 421.81815,607.4549 424.7571,609.0 424.1958,605.7275 426.57346,603.4098 423.28766,602.9324 421.81815,599.9549 420.34872,602.9324 " style="fill:rgb(127.5,127.5,0.0);opacity:1.0" />
<polygon points="428.9899,547.1123 427.52045,550.0897 424.23462,550.5672 426.61224,552.88477 426.051,556.15735 428.98987,554.6123 431.92883,556.15735 431.36752,552.8849 433.74518,550.56714 430.45938,550.0897 428.98987,547.1123 427.52045,550.0897 " style="fill:rgb(127.5,127.5,0.0);opacity:1.0" />
<polygon points="436.16162,587.1589 434.69217,590.13635 431.40634,590.6138 433.78397,592.9314 433.22272,596.204 436.1616,594.6589 439.10056,596.204 438.53925,592.93146 440.9169,590.6138 437.6311,590.13635 436.1616,587.1589 434.69217,590.13635 " style="fill:rgb(127.5,127.5,0.0);opacity:1.0" />
<polygon points="443.33334,517.2339 441.8639,520.21136 438.57806,520.68884 440.9557,523.0065 440.39444,526.279 443.3333,524.7339 446.27228,526.279 445.71097,523.0065 448.08862,520.68884 444.80283,520.2114 443.3333,517.2339 441.8639,520.21136 " style="fill:rgb(127.5,127.5,0.0);opacity:1.0" />
<polygon points="450.50504,537.20905 449.03558,540.1865 445.74976,540.66394 448.12738,542.98157 447.56613,546.25415 450.505,544.70905 453.44397,546.25415 452.88266,542.9816 455.2603,540.66394 451.97452,540.1865 450.505,537.20905 449.03558,540.1865 " style="fill:rgb(127.5,127.5,0.0);opacity:1.0" />
<polygon points="457.67676,524.1021 456.2073,527.0796 452.92148,527.557 455.2991,529.87463 454.73785,533.1472 457.67673,531.6021 460.6157,533.1472 460.05438,529.8747 462.43204,527.557 459.14624,527.0796 457.67673,524.1021 456.2073,527.0796 " style="fill:rgb(127.5,127.5,0.0);opacity:1.0" />
<polygon points="464.84848,563.2899 463.37903,566.26733 460.0932,566.7449 462.47083,569.06244 461.90958,572.33496 464.84845,570.7899 467.7874,572.33496 467.2261,569.0625 469.60376,566.7448 466.31796,566.2674 464.84845,563.2899 463.37903,566.26733 " style="fill:rgb(127.5,127.5,0.0);opacity:1.0" />
<polygon points="472.0202,525.7958 470.55075,528.7732 467.26492,529.25073 469.64255,531.5683 469.0813,534.8408 472.02017,533.2958 474.95914,534.8408 474.39783,531.56836 476.77548,529.2507 473.4897,528.77325 472.02017,525.7958 470.55075,528.7732 " style="fill:rgb(127.5,127.5,0.0);opacity:1.0" />
<polygon points="479.19193,495.67755 477.72247,498.655 474.43665,499.13248 476.81427,501.45007 476.25302,504.72263 479.1919,503.17755 482.13086,504.72263 481.56955,501.45013 483.9472,499.13245 480.6614,498.65503 479.1919,495.67755 477.72247,498.655 " style="fill:rgb(127.5,127.5,0.0);opacity:1.0" />
<polygon points="486.36365,509.20578 484.8942,512.1832 481.60837,512.6607 483.986,514.9783 483.42474,518.25085 486.36362,516.7058 489.30258,518.25085 488.74127,514.9784 491.11893,512.66064 487.83313,512.1832 486.36362,509.20578 484.8942,512.1832 " style="fill:rgb(127.5,127.5,0.0);opacity:1.0" />
<polygon points="493.53534,518.51843 492.0659,521.49585 488.78006,521.9734 491.15768,524.29095 490.59644,527.5635 493.5353,526.01843 496.47427,527.5635 495.91296,524.291 498.29062,521.9733 495.00482,521.4959 493.5353,518.51843 492.0659,521.49585 " style="fill:rgb(127.5,127.5,0.0);opacity:1.0" />
<polygon points="500.70706,522.51807 499.2376,525.49554 495.95178,525.973 498.3294,528.29065 497.76816,531.5632 500.70703,530.01807 503.646,531.5632 503.0847,528.29065 505.46234,525.973 502.17654,525.4956 500.70703,522.51807 499.2376,525.49554 " style="fill:rgb(127.5,127.5,0.0);opacity:1.0" />
<polygon points="507.87878,468.66028 506.40933,471.63776 503.1235,472.11523 505.50113,474.43286 504.93988,477.70538 507.87875,476.16028 510.81772,477.70538 510.2564,474.43286 512.63403,472.11523 509.34827,471.63782 507.87875,468.66028 506.40933,471.63776 " style="fill:rgb(127.5,127.5,0.0);opacity:1.0" />
<polygon points="515.05054,450.06952 513.58105,453.047 510.29523,453.5244 512.67285,455.84204 512.1116,459.11462 515.0505,457.56952 517.98944,459.11462 517.4281,455.8421 519.8058,453.5244 516.52,453.047 515.0505,450.06952 513.58105,453.047 " style="fill:rgb(127.5,127.5,0.0);opacity:1.0" />
<polygon points="522.2222,504.52725 520.7528,507.5047 517.4669,507.98218 519.8446,510.29977 519.2833,513.5723 522.22217,512.0272 525.16113,513.5723 524.59985,510.29984 526.97754,507.98215 523.6917,507.50473 522.22217,504.52725 520.7528,507.5047 " style="fill:rgb(127.5,127.5,0.0);opacity:1.0" />
<polygon points="529.3939,490.79617 527.9245,493.77362 524.6387,494.2511 527.0163,496.5687 526.4551,499.84125 529.3939,498.29617 532.3329,499.84125 531.7716,496.56876 534.14923,494.25107 530.8634,493.77365 529.3939,490.79617 527.9245,493.77362 " style="fill:rgb(127.5,127.5,0.0);opacity:1.0" />
<polygon points="536.5657,443.93042 535.0962,446.9079 531.81036,447.38538 534.188,449.703 533.6267,452.97552 536.5656,451.43042 539.5046,452.97552 538.94324,449.703 541.3209,447.38538 538.03516,446.90796 536.5656,443.93042 535.0962,446.9079 " style="fill:rgb(127.5,127.5,0.0);opacity:1.0" />
<polygon points="543.73737,441.41418 542.26794,444.3916 538.98206,444.86914 541.35974,447.1867 540.79846,450.45923 543.7373,448.91418 546.6763,450.45923 546.115,447.18677 548.4927,444.86908 545.20685,444.39166 543.7373,441.41418 542.26794,444.3916 " style="fill:rgb(127.5,127.5,0.0);opacity:1.0" />
<polygon points="550.90906,416.41998 549.43964,419.39746 546.1538,419.87488 548.53143,422.1925 547.9702,425.4651 550.90906,423.91998 553.848,425.4651 553.28674,422.19257 555.66437,419.87488 552.37854,419.39746 550.90906,416.41998 549.43964,419.39746 " style="fill:rgb(127.5,127.5,0.0);opacity:1.0" />
<polygon points="558.0808,454.34924 556.6113,457.32666 553.32556,457.80414 555.7031,460.1217 555.1419,463.3943 558.0808,461.84924 561.0198,463.3943 560.45844,460.12183 562.83606,457.80408 559.5503,457.32666 558.0808,454.34924 556.6113,457.32666 " style="fill:rgb(127.5,127.5,0.0);opacity:1.0" />
<polygon points="565.25256,403.78833 563.7831,406.76575 560.49725,407.24323 562.8749,409.5608 562.3136,412.83337 565.2525,411.28833 568.19147,412.83337 567.6301,409.5609 570.0078,407.24316 566.72205,406.76575 565.2525,403.78833 563.7831,406.76575 " style="fill:rgb(127.5,127.5,0.0);opacity:1.0" />
<polygon points="572.4242,427.41785 570.9548,430.39526 567.66895,430.87274 570.0466,433.1903 569.48535,436.4629 572.4242,434.91785 575.36316,436.4629 574.8019,433.19043 577.1795,430.87268 573.8937,430.39526 572.4242,427.41785 570.9548,430.39526 " style="fill:rgb(127.5,127.5,0.0);opacity:1.0" />
<polygon points="579.59595,424.75018 578.12646,427.72766 574.8407,428.20508 577.21826,430.5227 576.65704,433.7953 579.59595,432.25018 582.5349,433.7953 581.9736,430.52277 584.3512,428.20508 581.0654,427.72766 579.59595,424.75018 578.12646,427.72766 " style="fill:rgb(127.5,127.5,0.0);opacity:1.0" />
<polygon points="586.7677,384.39722 585.2982,387.3747 582.0123,387.85217 584.39,390.1698 583.82874,393.44238 586.7677,391.89728 589.7066,393.44238 589.1453,390.1698 591.52295,387.85217 588.2372,387.3747 586.7677,384.39722 585.2982,387.3747 " style="fill:rgb(127.5,127.5,0.0);opacity:1.0" />
<polygon points="593.9394,417.81848 592.47,420.7959 589.1841,421.27338 591.56177,423.59094 591.0005,426.86353 593.93933,425.31848 596.8783,426.86353 596.317,423.59106 598.6947,421.27332 595.4089,420.7959 593.93933,417.81848 592.47,420.7959 " style="fill:rgb(127.5,127.5,0.0);opacity:1.0" />
<polygon points="601.1111,397.4568 599.64166,400.4342 596.35583,400.91168 598.73346,403.22925 598.17224,406.50183 601.1111,404.9568 604.05005,406.50183 603.4888,403.22937 605.8664,400.91162 602.58057,400.4342 601.1111,397.4568 599.64166,400.4342 " style="fill:rgb(127.5,127.5,0.0);opacity:1.0" />
<polygon points="608.28284,390.3993 606.81335,393.37677 603.5276,393.85425 605.90515,396.17188 605.34393,399.4444 608.28284,397.8993 611.2218,399.4444 610.66046,396.17188 613.0381,393.85425 609.7523,393.37683 608.28284,390.39935 606.81335,393.37677 " style="fill:rgb(127.5,127.5,0.0);opacity:1.0" />
<polygon points="615.4545,398.46234 613.98505,401.43982 610.6992,401.91724 613.07684,404.23486 612.5156,407.50745 615.4545,405.9624 618.39343,407.50745 617.8322,404.23486 620.2098,401.91724 616.924,401.43976 615.4545,398.4624 613.98505,401.43976 " style="fill:rgb(127.5,127.5,0.0);opacity:1.0" />
<polygon points="622.6263,359.50403 621.1568,362.4815 617.871,362.95892 620.24866,365.2766 619.6873,368.54913 622.62634,367.00403 625.5652,368.54913 625.00397,365.2765 627.3816,362.95898 624.0957,362.48145 622.62634,359.50403 621.15674,362.4815 " style="fill:rgb(127.5,127.5,0.0);opacity:1.0" />
<polygon points="629.798,374.9475 628.3285,377.925 625.04266,378.4024 627.42035,380.7201 626.859,383.9926 629.79803,382.4475 632.7369,383.9926 632.17566,380.71997 634.5533,378.40247 631.2674,377.92493 629.79803,374.9475 628.3284,377.925 " style="fill:rgb(127.5,127.5,0.0);opacity:1.0" />
<polygon points="636.96967,340.56567 635.5002,343.54315 632.21436,344.02057 634.59204,346.33826 634.0307,349.61078 636.9697,348.06567 639.90857,349.61078 639.34735,346.33813 641.725,344.02063 638.4391,343.5431 636.9697,340.56567 635.5001,343.54315 " style="fill:rgb(127.5,127.5,0.0);opacity:1.0" />
<polygon points="644.1414,341.5905 642.67194,344.568 639.3861,345.0454 641.7638,347.3631 641.20245,350.63562 644.1415,349.0905 647.0803,350.63562 646.5191,347.36298 648.8967,345.04547 645.61084,344.56793 644.1415,341.5905 642.6719,344.568 " style="fill:rgb(127.5,127.5,0.0);opacity:1.0" />
<polygon points="651.3131,380.24255 649.8436,383.22003 646.5578,383.69745 648.9355,386.01514 648.37415,389.28766 651.3132,387.74255 654.252,389.28772 653.6908,386.015 656.0684,383.6975 652.78253,383.21997 651.3132,380.24255 649.84357,383.22003 " style="fill:rgb(127.5,127.5,0.0);opacity:1.0" />
<polygon points="658.48486,339.0761 657.0154,342.0536 653.72955,342.531 656.10724,344.8487 655.5459,348.12122 658.4849,346.5761 661.42377,348.12122 660.86255,344.84857 663.2402,342.53107 659.9543,342.05353 658.4849,339.0761 657.0153,342.0536 " style="fill:rgb(127.5,127.5,0.0);opacity:1.0" />
<polygon points="665.65656,345.4992 664.1871,348.47668 660.90125,348.9541 663.27893,351.2718 662.7176,354.5443 665.6566,352.9992 668.59546,354.5443 668.03424,351.27167 670.41187,348.95416 667.126,348.47662 665.6566,345.4992 664.187,348.47668 " style="fill:rgb(127.5,127.5,0.0);opacity:1.0" />
<polygon points="672.8283,330.4461 671.3588,333.42358 668.073,333.901 670.4507,336.2187 669.88934,339.4912 672.82837,337.9461 675.7672,339.4912 675.206,336.21857 677.5836,333.90106 674.2977,333.42352 672.82837,330.4461 671.35876,333.42358 " style="fill:rgb(127.5,127.5,0.0);opacity:1.0" />
<polygon points="680.0,328.9256 678.5305,331.90308 675.2447,332.3805 677.6224,334.69818 677.06104,337.9707 680.00006,336.4256 682.9389,337.9707 682.3777,334.69806 684.7553,332.38055 681.4694,331.903 680.00006,328.9256 678.53046,331.90308 " style="fill:rgb(127.5,127.5,0.0);opacity:1.0" />
<polygon points="687.1717,278.37067 685.7022,281.34814 682.4164,281.82556 684.79407,284.14325 684.2327,287.41577 687.17175,285.87067 690.1106,287.41577 689.5494,284.14313 691.927,281.82562 688.6411,281.34808 687.17175,278.37067 685.70215,281.34814 " style="fill:rgb(127.5,127.5,0.0);opacity:1.0" />
<polygon points="694.34344,324.58215 692.87396,327.55963 689.58813,328.03705 691.9658,330.35474 691.4045,333.62726 694.3435,332.08215 697.28235,333.62726 696.7211,330.3546 699.09875,328.0371 695.81287,327.55957 694.3435,324.58215 692.8739,327.55963 " style="fill:rgb(127.5,127.5,0.0);opacity:1.0" />
<polygon points="701.51514,272.2484 700.04565,275.2259 696.7598,275.7033 699.1375,278.021 698.5762,281.29352 701.5152,279.7484 704.45404,281.29352 703.8928,278.02087 706.27045,275.70337 702.98456,275.22583 701.5152,272.2484 700.0456,275.2259 " style="fill:rgb(127.5,127.5,0.0);opacity:1.0" />
<polygon points="708.6869,279.44354 707.2174,282.42102 703.9316,282.89844 706.30927,285.21613 705.7479,288.48865 708.68695,286.94354 711.6258,288.48865 711.0646,285.216 713.4422,282.8985 710.1563,282.42096 708.68695,279.44354 707.21735,282.42102 " style="fill:rgb(127.5,127.5,0.0);opacity:1.0" />
<polygon points="715.8586,278.65417 714.3891,281.63165 711.1033,282.10907 713.48096,284.42676 712.9196,287.69928 715.85864,286.15417 718.7975,287.69928 718.23627,284.42664 720.6139,282.10913 717.328,281.6316 715.85864,278.65417 714.38904,281.63165 " style="fill:rgb(127.5,127.5,0.0);opacity:1.0" />
<polygon points="723.0303,280.0868 721.5608,283.06427 718.27496,283.5417 720.65265,285.85938 720.0913,289.1319 723.03033,287.5868 725.9692,289.1319 725.40796,285.85925 727.7856,283.54175 724.4997,283.0642 723.03033,280.0868 721.5607,283.06427 " style="fill:rgb(127.5,127.5,0.0);opacity:1.0" />
<polygon points="730.202,264.70868 728.73254,267.68616 725.4467,268.16357 727.8244,270.48126 727.26306,273.75378 730.2021,272.20868 733.1409,273.75378 732.5797,270.48114 734.95734,268.16364 731.67145,267.6861 730.2021,264.70868 728.7325,267.68616 " style="fill:rgb(127.5,127.5,0.0);opacity:1.0" />
<polygon points="737.3737,294.51837 735.90424,297.49585 732.6184,297.97327 734.9961,300.29095 734.43475,303.56348 737.3738,302.01837 740.3126,303.56348 739.7514,300.29083 742.129,297.97333 738.84314,297.4958 737.3738,294.51837 735.9042,297.49585 " style="fill:rgb(127.5,127.5,0.0);opacity:1.0" />
<polygon points="744.5455,290.70343 743.076,293.6809 739.79016,294.15833 742.16785,296.476 741.6065,299.74854 744.54553,298.20343 747.4844,299.74854 746.92316,296.4759 749.3008,294.1584 746.0149,293.68085 744.54553,290.70343 743.0759,293.6809 " style="fill:rgb(127.5,127.5,0.0);opacity:1.0" />
<polygon points="751.71716,259.26892 750.2477,262.2464 746.96185,262.72382 749.33954,265.0415 748.7782,268.31403 751.7172,266.76892 754.65607,268.31403 754.09485,265.04138 756.4725,262.72388 753.1866,262.24634 751.7172,259.26892 750.2476,262.2464 " style="fill:rgb(127.5,127.5,0.0);opacity:1.0" />
<polygon points="758.8889,249.27844 757.41943,252.25592 754.1336,252.73334 756.5113,255.05103 755.94995,258.32355 758.889,256.77844 761.8278,258.32355 761.2666,255.0509 763.6442,252.7334 760.35834,252.25586 758.889,249.27844 757.4194,252.25592 " style="fill:rgb(127.5,127.5,0.0);opacity:1.0" />
<polygon points="766.0606,209.63867 764.5911,212.61615 761.3053,213.09357 763.683,215.41125 763.12164,218.68378 766.06067,217.13867 768.9995,218.68378 768.4383,215.41113 770.8159,213.09363 767.53,212.61609 766.06067,209.63867 764.59106,212.61615 " style="fill:rgb(127.5,127.5,0.0);opacity:1.0" />
<polygon points="773.2323,235.42902 771.7628,238.4065 768.477,238.88391 770.8547,241.2016 770.29333,244.47412 773.23236,242.92902 776.1712,244.47412 775.61,241.20148 777.9876,238.88397 774.7017,238.40643 773.23236,235.42902 771.76276,238.4065 " style="fill:rgb(127.5,127.5,0.0);opacity:1.0" />
<polygon points="780.40405,221.9444 778.9346,224.92188 775.64874,225.39929 778.0264,227.71698 777.4651,230.9895 780.4041,229.4444 783.34296,230.9895 782.78174,227.71686 785.15936,225.39935 781.8735,224.92181 780.4041,221.9444 778.9345,224.92188 " style="fill:rgb(127.5,127.5,0.0);opacity:1.0" />
<polygon points="787.57574,242.99695 786.10626,245.97443 782.82043,246.45184 785.1981,248.76953 784.6368,252.04205 787.5758,250.49695 790.51465,252.04205 789.9534,248.76941 792.33105,246.4519 789.04517,245.97437 787.5758,242.99695 786.1062,245.97443 " style="fill:rgb(127.5,127.5,0.0);opacity:1.0" />
<polygon points="794.7475,240.82391 793.278,243.80139 789.9922,244.27881 792.3699,246.5965 791.80853,249.86902 794.74756,248.32391 797.6864,249.86902 797.1252,246.59637 799.5028,244.27887 796.2169,243.80133 794.74756,240.82391 793.27795,243.80139 " style="fill:rgb(127.5,127.5,0.0);opacity:1.0" />
<polygon points="801.9192,195.27277 800.4497,198.25024 797.1639,198.72766 799.54156,201.04535 798.9802,204.31787 801.91925,202.77277 804.8581,204.31787 804.2969,201.04523 806.6745,198.72772 803.3886,198.25018 801.91925,195.27277 800.44965,198.25024 " style="fill:rgb(127.5,127.5,0.0);opacity:1.0" />
<polygon points="809.0909,220.73364 807.6214,223.71112 804.3356,224.18854 806.71326,226.50623 806.1519,229.77875 809.09094,228.23364 812.0298,229.77875 811.46857,226.5061 813.8462,224.1886 810.5603,223.71106 809.09094,220.73364 807.62134,223.71112 " style="fill:rgb(127.5,127.5,0.0);opacity:1.0" />
<text x="456.15" y="92.5" stroke="#000000" stroke-width="1.2" transform="rotate(-0.0,456.15,92.5)">SCATTER PLOT</text>
<text x="476.8" y="950.0" stroke="#000000" stroke-width="1.2" transform="rotate(-0.0,476.8,950.0)">X-AXIS</text>
<text x="50.0" y="546.6" stroke="#000000" stroke-width="1.2" transform="rotate(-90.0,50.0,546.6)">Y-AXIS</text>
<rect x="120.0" y="120.0" width="67.880005" height="40.0" style="fill:rgb(255.0,255.0,255.0);stroke-width:2.0;stroke:rgb(0.0,0.0,0.0);opacity:0.7" />
<circle cx="132.0" cy="132.0" r="4.0"  style="fill:rgb(214.2,214.2,0.0);opacity:1.0" />
<text x="144.0" y="136.0" stroke="#000000" stroke-width="1.2" transform="rotate(-0.0,144.0,136.0)">Plot 1</text>
<polygon points="132.0,144.0 130.82443,146.38196 128.19577,146.76392 130.09789,148.61804 129.64885,151.23608 132.0,150.0 134.35115,151.23608 133.90211,148.61804 135.80424,146.76392 133.17558,146.38196 131.99998,144.0 130.82443,146.38196 " style="fill:rgb(127.5,127.5,0.0);opacity:1.0" />
<text x="144.0" y="152.0" stroke="#000000" stroke-width="1.2" transform="rotate(-0.0,144.0,152.0)">Plot 2</text>
</svg>