<svg height="660.0" width="1000.0" version="4.0" xmlns="http://www.w3.org/2000/svg" xmlns:xlink= "http://www.w3.org/1999/xlink">
<rect width="100%" height="100%" fill="white"/>
<rect x="100.0" y="66.0" width="800.0" height="528.0" style="fill:rgb(255,255,255);stroke-width:2.0;stroke:rgb(0,0,0);opacity:1" />
<line x1="163.63637" y1="597.0" x2="163.63637" y2="594.0" style="stroke:rgb(0.0,0.0,0.0);stroke-width:2.0;opacity:1.0;stroke-linecap:round" />
<text x="154.09636" y="609.0" stroke="#000000" stroke-width="0.7" transform="rotate(-0.0,154.09636,609.0)">10.0</text>
<line x1="235.35353" y1="597.0" x2="235.35353" y2="594.0" style="stroke:rgb(0.0,0.0,0.0);stroke-width:2.0;opacity:1.0;stroke-linecap:round" />
<text x="225.49353" y="609.0" stroke="#000000" stroke-width="0.7" transform="rotate(-0.0,225.49353,609.0)">20.0</text>
<line x1="307.0707" y1="597.0" x2="307.0707" y2="594.0" style="stroke:rgb(0.0,0.0,0.0);stroke-width:2.0;opacity:1.0;stroke-linecap:round" />
<text x="297.2107" y="609.0" stroke="#000000" stroke-width="0.7" transform="rotate(-0.0,297.2107,609.0)">30.0</text>
<line x1="378.78787" y1="597.0" x2="378.78787" y2="594.0" style="stroke:rgb(0.0,0.0,0.0);stroke-width:2.0;opacity:1.0;stroke-linecap:round" />
<text x="368.92786" y="609.0" stroke="#000000" stroke-width="0.7" transform="rotate(-0.0,368.92786,609.0)">40.0</text>
<line x1="450.50504" y1="597.0" x2="450.50504" y2="594.0" style="stroke:rgb(0.0,0.0,0.0);stroke-width:2.0;opacity:1.0;stroke-linecap:round" />
<text x="440.64502" y="609.0" stroke="#000000" stroke-width="0.7" transform="rotate(-0.0,440.64502,609.0)">49.0</text>
<line x1="522.22217" y1="597.0" x2="522.22217" y2="594.0" style="stroke:rgb(0.0,0.0,0.0);stroke-width:2.0;opacity:1.0;stroke-linecap:round" />
<text x="512.3622" y="609.0" stroke="#000000" stroke-width="0.7" transform="rotate(-0.0,512.3622,609.0)">59.0</text>
<line x1="593.93933" y1="597.0" x2="593.93933" y2="594.0" style="stroke:rgb(0.0,0.0,0.0);stroke-width:2.0;opacity:1.0;stroke-linecap:round" />
<text x="584.07935" y="609.0" stroke="#000000" stroke-width="0.7" transform="rotate(-0.0,584.07935,609.0)">69.0</text>
<line x1="665.65656" y1="597.0" x2="665.65656" y2="594.0" style="stroke:rgb(0.0,0.0,0.0);stroke-width:2.0;opacity:1.0;stroke-linecap:round" />
<text x="655.7966" y="609.0" stroke="#000000" stroke-width="0.7" transform="rotate(-0.0,655.7966,609.0)">80.0</text>
<line x1="737.3737" y1="597.0" x2="737.3737" y2="594.0" style="stroke:rgb(0.0,0.0,0.0);stroke-width:2.0;opacity:1.0;stroke-linecap:round" />
<text x="727.51373" y="609.0" stroke="#000000" stroke-width="0.7" transform="rotate(-0.0,727.51373,609.0)">90.0</text>
<line x1="809.0909" y1="597.0" x2="809.0909" y2="594.0" style="stroke:rgb(0.0,0.0,0.0);stroke-width:2.0;opacity:1.0;stroke-linecap:round" />
<text x="799.2309" y="609.0" stroke="#000000" stroke-width="0.7" transform="rotate(-0.0,799.2309,609.0)">99.0</text>
<line x1="880.80804" y1="597.0" x2="880.80804" y2="594.0" style="stroke:rgb(0.0,0.0,0.0);stroke-width:2.0;opacity:1.0;stroke-linecap:round" />
<text x="869.82806" y="609.0" stroke="#000000" stroke-width="0.7" transform="rotate(-0.0,869.82806,609.0)">109.0</text>
<line x1="97.0" y1="573.3244" x2="100.0" y2="573.3244" style="stroke:rgb(0.0,0.0,0.0);stroke-width:2.0;opacity:1.0;stroke-linecap:round" />
<text x="62.16" y="577.3244" stroke="#000000" stroke-width="0.7" transform="rotate(-0.0,62.16,577.3244)">0.0</text>
<line x1="97.0" y1="352.95355" x2="100.0" y2="352.95355" style="stroke:rgb(0.0,0.0,0.0);stroke-width:2.0;opacity:1.0;stroke-linecap:round" />
<text x="57.04" y="356.95355" stroke="#000000" stroke-width="0.7" transform="rotate(-0.0,57.04,356.95355)">100.0</text>
<line x1="97.0" y1="132.5827" x2="100.0" y2="132.5827" style="stroke:rgb(0.0,0.0,0.0);stroke-width:2.0;opacity:1.0;stroke-linecap:round" />
<text x="56.4" y="136.5827" stroke="#000000" stroke-width="0.7" transform="rotate(-0.0,56.4,136.5827)">200.0</text>
<circle cx="106.26263" cy="563.8535" r="5.0"  style="fill:rgb(214.2,214.2,0.0);opacity:1.0" />
<circle cx="113.43434" cy="561.25146" r="5.0"  style="fill:rgb(212.94482,212.94482,1.494243);opacity:1.0" />
<circle cx="120.606064" cy="542.3862" r="5.0"  style="fill:rgb(203.84457,203.84457,12.327878);opacity:1.0" />
<circle cx="127.77778" cy="543.355" r="5.0"  style="fill:rgb(204.31186,204.31186,11.771585);opacity:1.0" />
<circle cx="134.9495" cy="544.8413" r="5.0"  style="fill:rgb(205.02885,205.02885,10.918027);opacity:1.0" />
<circle cx="142.12122" cy="555.03064" r="5.0"  style="fill:rgb(209.94402,209.94402,5.066641);opacity:1.0" />
<circle cx="149.29294" cy="518.93835" r="5.0"  style="fill:rgb(192.53372,192.53372,25.793186);opacity:1.0" />
<circle cx="156.46465" cy="533.88257" r="5.0"  style="fill:rgb(199.74257,199.74257,17.211227);opacity:1.0" />
<circle cx="163.63637" cy="517.75214" r="5.0"  style="fill:rgb(191.96152,191.96152,26.474382);opacity:1.0" />
<circle cx="170.80807" cy="542.7763" r="5.0"  style="fill:rgb(204.03275,204.03275,12.103871);opacity:1.0" />
<circle cx="177.9798" cy="518.9187" r="5.0"  style="fill:rgb(192.52425,192.52425,25.804478);opacity:1.0" />
<circle cx="185.15152" cy="503.23666" r="5.0"  style="fill:rgb(184.95953,184.95953,34.810093);opacity:1.0" />
<circle cx="192.32323" cy="529.9344" r="5.0"  style="fill:rgb(197.83801,197.83801,19.478542);opacity:1.0" />
<circle cx="199.49495" cy="523.436" r="5.0"  style="fill:rgb(194.7033,194.7033,23.210356);opacity:1.0" />
<circle cx="206.66666" cy="503.75674" r="5.0"  style="fill:rgb(185.2104,185.2104,34.51143);opacity:1.0" />
<circle cx="213.83838" cy="482.01886" r="5.0"  style="fill:rgb(174.72443,174.72443,46.994728);opacity:1.0" />
<circle cx="221.0101" cy="508.239" r="5.0"  style="fill:rgb(187.37256,187.37256,31.937428);opacity:1.0" />
<circle cx="228.18181" cy="481.7727" r="5.0"  style="fill:rgb(174.6057,174.6057,47.136066);opacity:1.0" />
<circle cx="235.35353" cy="497.60504" r="5.0"  style="fill:rgb(182.24294,182.24294,38.044125);opacity:1.0" />
<circle cx="242.52525" cy="494.9198" r="5.0"  style="fill:rgb(180.9476,180.9476,39.586178);opacity:1.0" />
<circle cx="249.69696" cy="456.00287" r="5.0"  style="fill:rgb(162.17477,162.17477,61.93478);opacity:1.0" />
<circle cx="256.86868" cy="457.83188" r="5.0"  style="fill:rgb(163.05707,163.05707,60.884438);opacity:1.0" />
<circle cx="264.0404" cy="488.07013" r="5.0"  style="fill:rgb(177.64346,177.64346,43.51969);opacity:1.0" />
<circle cx="271.2121" cy="441.1026" r="5.0"  style="fill:rgb(154.98715,154.98715,70.49148);opacity:1.0" />
<circle cx="278.38385" cy="478.5647" r="5.0"  style="fill:rgb(173.05821,173.05821,48.978313);opacity:1.0" />
<circle cx="285.55554" cy="450.10202" r="5.0"  style="fill:rgb(159.32832,159.32832,65.32342);opacity:1.0" />
<circle cx="292.72726" cy="468.2642" r="5.0"  style="fill:rgb(168.08943,168.08943,54.89353);opacity:1.0" />
<circle cx="299.899" cy="461.88358" r="5.0"  style="fill:rgb(165.01154,165.01154,58.557693);opacity:1.0" />
<circle cx="307.0707" cy="443.59406" r="5.0"  style="fill:rgb(156.18901,156.18901,69.0607);opacity:1.0" />
<circle cx="314.24243" cy="434.7584" r="5.0"  style="fill:rgb(151.92682,151.92682,74.13472);opacity:1.0" />
<circle cx="321.41412" cy="413.1787" r="5.0"  style="fill:rgb(141.51718,141.51718,86.52716);opacity:1.0" />
<circle cx="328.58588" cy="426.0235" r="5.0"  style="fill:rgb(147.71327,147.71327,79.15086);opacity:1.0" />
<circle cx="335.75757" cy="416.2328" r="5.0"  style="fill:rgb(142.99043,142.99043,84.7733);opacity:1.0" />
<circle cx="342.9293" cy="416.2472" r="5.0"  style="fill:rgb(142.99736,142.99736,84.765045);opacity:1.0" />
<circle cx="350.101" cy="400.30237" r="5.0"  style="fill:rgb(135.30586,135.30586,93.92159);opacity:1.0" />
<circle cx="357.27274" cy="412.63663" r="5.0"  style="fill:rgb(141.25568,141.25568,86.83846);opacity:1.0" />
<circle cx="364.44443" cy="419.63934" r="5.0"  style="fill:rgb(144.63368,144.63368,82.81703);opacity:1.0" />
<circle cx="371.61615" cy="384.86157" r="5.0"  style="fill:rgb(127.85751,127.85751,102.788666);opacity:1.0" />
<circle cx="378.78787" cy="416.94897" r="5.0"  style="fill:rgb(143.3359,143.3359,84.362015);opacity:1.0" />
<circle cx="385.9596" cy="411.96863" r="5.0"  style="fill:rgb(140.93346,140.93346,87.22207);opacity:1.0" />
<circle cx="393.13132" cy="370.28986" r="5.0"  style="fill:rgb(120.828354,120.828354,111.15671);opacity:1.0" />
<circle cx="400.30304" cy="392.36896" r="5.0"  style="fill:rgb(131.47893,131.47893,98.47745);opacity:1.0" />
<circle cx="407.47473" cy="386.84058" r="5.0"  style="fill:rgb(128.81215,128.81215,101.6522);opacity:1.0" />
<circle cx="414.64645" cy="384.5187" r="5.0"  style="fill:rgb(127.692116,127.692116,102.98558);opacity:1.0" />
<circle cx="421.81818" cy="351.62057" r="5.0"  style="fill:rgb(111.82264,111.82264,121.87781);opacity:1.0" />
<circle cx="428.9899" cy="371.36414" r="5.0"  style="fill:rgb(121.34658,121.34658,110.53979);opacity:1.0" />
<circle cx="436.16162" cy="368.4666" r="5.0"  style="fill:rgb(119.94887,119.94887,112.20372);opacity:1.0" />
<circle cx="443.33334" cy="364.37463" r="5.0"  style="fill:rgb(117.97497,117.97497,114.553604);opacity:1.0" />
<circle cx="450.50504" cy="365.0678" r="5.0"  style="fill:rgb(118.309364,118.309364,114.15552);opacity:1.0" />
<circle cx="457.67676" cy="328.41718" r="5.0"  style="fill:rgb(100.629745,100.629745,135.20268);opacity:1.0" />
<circle cx="464.84848" cy="354.15527" r="5.0"  style="fill:rgb(113.04533,113.04533,120.42222);opacity:1.0" />
<circle cx="472.0202" cy="323.32394" r="5.0"  style="fill:rgb(98.17286,98.17286,138.12755);opacity:1.0" />
<circle cx="479.19193" cy="313.9379" r="5.0"  style="fill:rgb(93.6452,93.6452,143.51761);opacity:1.0" />
<circle cx="486.36365" cy="312.83093" r="5.0"  style="fill:rgb(93.11122,93.11122,144.1533);opacity:1.0" />
<circle cx="493.53534" cy="319.11966" r="5.0"  style="fill:rgb(96.14478,96.14478,140.54192);opacity:1.0" />
<circle cx="500.70706" cy="335.45828" r="5.0"  style="fill:rgb(104.026245,104.026245,131.15924);opacity:1.0" />
<circle cx="507.87878" cy="299.11014" r="5.0"  style="fill:rgb(86.49255,86.49255,152.03267);opacity:1.0" />
<circle cx="515.05054" cy="298.62558" r="5.0"  style="fill:rgb(86.25881,86.25881,152.31093);opacity:1.0" />
<circle cx="522.2222" cy="327.44122" r="5.0"  style="fill:rgb(100.15896,100.15896,135.76314);opacity:1.0" />
<circle cx="529.3939" cy="300.58557" r="5.0"  style="fill:rgb(87.20427,87.20427,151.1854);opacity:1.0" />
<circle cx="536.5657" cy="305.05362" r="5.0"  style="fill:rgb(89.35958,89.35958,148.61954);opacity:1.0" />
<circle cx="543.73737" cy="283.62213" r="5.0"  style="fill:rgb(79.021416,79.021416,160.92688);opacity:1.0" />
<circle cx="550.90906" cy="282.29395" r="5.0"  style="fill:rgb(78.38073,78.38073,161.6896);opacity:1.0" />
<circle cx="558.0808" cy="302.1704" r="5.0"  style="fill:rgb(87.96877,87.96877,150.27527);opacity:1.0" />
<circle cx="565.25256" cy="279.44016" r="5.0"  style="fill:rgb(77.004105,77.004105,163.32845);opacity:1.0" />
<circle cx="572.4242" cy="292.0427" r="5.0"  style="fill:rgb(83.08334,83.08334,156.09126);opacity:1.0" />
<circle cx="579.59595" cy="262.71164" r="5.0"  style="fill:rgb(68.93457,68.93457,172.93503);opacity:1.0" />
<circle cx="586.7677" cy="270.08017" r="5.0"  style="fill:rgb(72.48902,72.48902,168.70355);opacity:1.0" />
<circle cx="593.9394" cy="249.46915" r="5.0"  style="fill:rgb(62.546627,62.546627,180.53973);opacity:1.0" />
<circle cx="601.1111" cy="278.7451" r="5.0"  style="fill:rgb(76.66882,76.66882,163.72758);opacity:1.0" />
<circle cx="608.28284" cy="262.44696" r="5.0"  style="fill:rgb(68.80689,68.80689,173.08704);opacity:1.0" />
<circle cx="615.4545" cy="239.45047" r="5.0"  style="fill:rgb(57.713802,57.713802,186.29309);opacity:1.0" />
<circle cx="622.6263" cy="239.2298" r="5.0"  style="fill:rgb(57.60735,57.60735,186.41982);opacity:1.0" />
<circle cx="629.798" cy="252.28778" r="5.0"  style="fill:rgb(63.906284,63.906284,178.9211);opacity:1.0" />
<circle cx="636.96967" cy="227.49017" r="5.0"  style="fill:rgb(51.944366,51.944366,193.16147);opacity:1.0" />
<circle cx="644.1414" cy="255.78696" r="5.0"  style="fill:rgb(65.59422,65.59422,176.91164);opacity:1.0" />
<circle cx="651.3131" cy="248.48566" r="5.0"  style="fill:rgb(62.07221,62.07221,181.1045);opacity:1.0" />
<circle cx="658.48486" cy="219.84637" r="5.0"  style="fill:rgb(48.25714,48.25714,197.55103);opacity:1.0" />
<circle cx="665.65656" cy="199.61966" r="5.0"  style="fill:rgb(38.50013,38.50013,209.1665);opacity:1.0" />
<circle cx="672.8283" cy="225.77432" r="5.0"  style="fill:rgb(51.116676,51.116676,194.14682);opacity:1.0" />
<circle cx="680.0" cy="215.35498" r="5.0"  style="fill:rgb(46.090565,46.090565,200.13028);opacity:1.0" />
<circle cx="687.1717" cy="200.70609" r="5.0"  style="fill:rgb(39.024204,39.024204,208.54262);opacity:1.0" />
<circle cx="694.34344" cy="181.65903" r="5.0"  style="fill:rgb(29.836245,29.836245,219.48067);opacity:1.0" />
<circle cx="701.51514" cy="210.95767" r="5.0"  style="fill:rgb(43.969395,43.969395,202.65549);opacity:1.0" />
<circle cx="708.6869" cy="199.47952" r="5.0"  style="fill:rgb(38.43254,38.43254,209.24698);opacity:1.0" />
<circle cx="715.8586" cy="194.79102" r="5.0"  style="fill:rgb(36.170887,36.170887,211.93942);opacity:1.0" />
<circle cx="723.0303" cy="172.70502" r="5.0"  style="fill:rgb(25.516996,25.516996,224.62262);opacity:1.0" />
<circle cx="730.202" cy="160.43988" r="5.0"  style="fill:rgb(19.60051,19.60051,231.66606);opacity:1.0" />
<circle cx="737.3737" cy="171.62222" r="5.0"  style="fill:rgb(24.994673,24.994673,225.24443);opacity:1.0" />
<circle cx="744.5455" cy="157.23706" r="5.0"  style="fill:rgb(18.055536,18.055536,233.50531);opacity:1.0" />
<circle cx="751.71716" cy="179.38089" r="5.0"  style="fill:rgb(28.73731,28.73731,220.78891);opacity:1.0" />
<circle cx="758.8889" cy="179.74487" r="5.0"  style="fill:rgb(28.912899,28.912899,220.57988);opacity:1.0" />
<circle cx="766.0606" cy="173.41357" r="5.0"  style="fill:rgb(25.858791,25.858791,224.21573);opacity:1.0" />
<circle cx="773.2323" cy="157.52606" r="5.0"  style="fill:rgb(18.194942,18.194942,233.33936);opacity:1.0" />
<circle cx="780.40405" cy="163.52661" r="5.0"  style="fill:rgb(21.089497,21.089497,229.89345);opacity:1.0" />
<circle cx="787.57574" cy="156.71237" r="5.0"  style="fill:rgb(17.802437,17.802437,233.80663);opacity:1.0" />
<circle cx="794.7475" cy="163.13077" r="5.0"  style="fill:rgb(20.89855,20.89855,230.12077);opacity:1.0" />
<circle cx="801.9192" cy="139.15955" r="5.0"  style="fill:rgb(9.335269,9.335269,243.88658);opacity:1.0" />
<circle cx="809.0909" cy="119.80713" r="5.0"  style="fill:rgb(0.0,0.0,255.0);opacity:1.0" />
<polygon points="106.26263,555.4189 111.26263,564.0791 101.26263,564.0791" style="fill:rgb(127.5,127.5,0.0);opacity:1.0" />
<polygon points="113.43434,574.90314 118.43434,583.56335 108.43434,583.56335" style="fill:rgb(127.5,127.5,0.0);opacity:1.0" />
<polygon points="120.606064,566.045 125.606064,574.70526 115.606064,574.70526" style="fill:rgb(127.5,127.5,0.0);opacity:1.0" />
<polygon points="127.77778,556.2442 132.77777,564.9044 122.77778,564.9044" style="fill:rgb(127.5,127.5,0.0);opacity:1.0" />
<polygon points="134.9495,569.0577 139.9495,577.71796 129.9495,577.71796" style="fill:rgb(127.5,127.5,0.0);opacity:1.0" />
<polygon points="142.12122,533.5934 147.12122,542.2536 137.12122,542.2536" style="fill:rgb(127.5,127.5,0.0);opacity:1.0" />
<polygon points="149.29294,528.30145 154.29294,536.96173 144.29294,536.96173" style="fill:rgb(127.5,127.5,0.0);opacity:1.0" />
<polygon points="156.46465,526.0647 161.46465,534.725 151.46465,534.725" style="fill:rgb(127.5,127.5,0.0);opacity:1.0" />
<polygon points="163.63637,547.53345 168.63637,556.19366 158.63637,556.19366" style="fill:rgb(127.5,127.5,0.0);opacity:1.0" />
<polygon points="170.80807,536.4807 175.80807,545.141 165.80807,545.141" style="fill:rgb(127.5,127.5,0.0);opacity:1.0" />
<polygon points="177.9798,525.12744 182.9798,533.7877 172.9798,533.7877" style="fill:rgb(127.5,127.5,0.0);opacity:1.0" />
<polygon points="185.15152,553.1777 190.15152,561.8379 180.15152,561.8379" style="fill:rgb(127.5,127.5,0.0);opacity:1.0" />
<polygon points="192.32323,552.9414 197.32323,561.6017 187.32323,561.6017" style="fill:rgb(127.5,127.5,0.0);opacity:1.0" />
<polygon points="199.49495,555.76447 204.49495,564.4247 194.49495,564.4247" style="fill:rgb(127.5,127.5,0.0);opacity:1.0" />
<polygon points="206.66666,544.1085 211.66666,552.7688 201.66666,552.7688" style="fill:rgb(127.5,127.5,0.0);opacity:1.0" />
<polygon points="213.83838,550.5146 218.83838,559.1748 208.83838,559.1748" style="fill:rgb(127.5,127.5,0.0);opacity:1.0" />
<polygon points="221.0101,527.7148 226.0101,536.375 216.0101,536.375" style="fill:rgb(127.5,127.5,0.0);opacity:1.0" />
<polygon points="228.18181,530.1952 233.18181,538.85547 223.18181,538.85547" style="fill:rgb(127.5,127.5,0.0);opacity:1.0" />
<polygon points="235.35353,527.8533 240.35353,536.51355 230.35353,536.51355" style="fill:rgb(127.5,127.5,0.0);opacity:1.0" />
<polygon points="242.52525,519.8264 247.52525,528.48663 237.52525,528.48663" style="fill:rgb(127.5,127.5,0.0);opacity:1.0" />
<polygon points="249.69696,539.5819 254.69696,548.2422 244.69696,548.2422" style="fill:rgb(127.5,127.5,0.0);opacity:1.0" />
<polygon points="256.86868,501.27502 261.86868,509.93527 251.86868,509.93527" style="fill:rgb(127.5,127.5,0.0);opacity:1.0" />
<polygon points="264.0404,518.4411 269.0404,527.1013 259.0404,527.1013" style="fill:rgb(127.5,127.5,0.0);opacity:1.0" />
<polygon points="271.2121,496.44382 276.2121,505.10406 266.2121,505.10406" style="fill:rgb(127.5,127.5,0.0);opacity:1.0" />
<polygon points="278.38385,490.11075 283.38385,498.771 273.38385,498.771" style="fill:rgb(127.5,127.5,0.0);opacity:1.0" />
<polygon points="285.55554,520.88806 290.55554,529.54834 280.55554,529.54834" style="fill:rgb(127.5,127.5,0.0);opacity:1.0" />
<polygon points="292.72726,484.43787 297.72726,493.09814 287.72726,493.09814" style="fill:rgb(127.5,127.5,0.0);opacity:1.0" />
<polygon points="299.899,500.31735 304.899,508.9776 294.899,508.9776" style="fill:rgb(127.5,127.5,0.0);opacity:1.0" />
<polygon points="307.0707,521.78015 312.0707,530.4404 302.0707,530.4404" style="fill:rgb(127.5,127.5,0.0);opacity:1.0" />
<polygon points="314.24243,500.4904 319.24243,509.15063 309.24243,509.15063" style="fill:rgb(127.5,127.5,0.0);opacity:1.0" />
<polygon points="321.41412,514.532 326.41412,523.1922 316.41412,523.1922" style="fill:rgb(127.5,127.5,0.0);opacity:1.0" />
<polygon points="328.58588,487.90625 333.58588,496.56653 323.58588,496.56653" style="fill:rgb(127.5,127.5,0.0);opacity:1.0" />
<polygon points="335.75757,497.5564 340.75757,506.21664 330.75757,506.21664" style="fill:rgb(127.5,127.5,0.0);opacity:1.0" />
<polygon points="342.9293,473.07495 347.9293,481.7352 337.9293,481.7352" style="fill:rgb(127.5,127.5,0.0);opacity:1.0" />
<polygon points="350.101,490.8903 355.101,499.55054 345.101,499.55054" style="fill:rgb(127.5,127.5,0.0);opacity:1.0" />
<polygon points="357.27274,471.62042 362.27274,480.28067 352.27274,480.28067" style="fill:rgb(127.5,127.5,0.0);opacity:1.0" />
<polygon points="364.44443,504.12762 369.44443,512.78784 359.44443,512.78784" style="fill:rgb(127.5,127.5,0.0);opacity:1.0" />
<polygon points="371.61615,503.4265 376.61615,512.0868 366.61615,512.0868" style="fill:rgb(127.5,127.5,0.0);opacity:1.0" />
<polygon points="378.78787,466.08252 383.78787,474.7428 373.78787,474.7428" style="fill:rgb(127.5,127.5,0.0);opacity:1.0" />
<polygon points="385.9596,474.068 390.9596,482.72824 380.9596,482.72824" style="fill:rgb(127.5,127.5,0.0);opacity:1.0" />
<polygon points="393.13132,491.7526 398.13132,500.41284 388.13132,500.41284" style="fill:rgb(127.5,127.5,0.0);opacity:1.0" />
<polygon points="400.30304,462.47552 405.30304,471.13577 395.30304,471.13577" style="fill:rgb(127.5,127.5,0.0);opacity:1.0" />
<polygon points="407.47473,448.87045 412.47473,457.5307 402.47473,457.5307" style="fill:rgb(127.5,127.5,0.0);opacity:1.0" />
<polygon points="414.64645,449.518 419.64645,458.17828 409.64645,458.17828" style="fill:rgb(127.5,127.5,0.0);opacity:1.0" />
<polygon points="421.81818,448.0044 426.81818,456.6646 416.81818,456.6646" style="fill:rgb(127.5,127.5,0.0);opacity:1.0" />
<polygon points="428.9899,475.40967 433.9899,484.06992 423.9899,484.06992" style="fill:rgb(127.5,127.5,0.0);opacity:1.0" />
<polygon points="436.16162,458.51874 441.16162,467.17902 431.16162,467.17902" style="fill:rgb(127.5,127.5,0.0);opacity:1.0" />
<polygon points="443.33334,481.20767 448.33334,489.86792 438.33334,489.86792" style="fill:rgb(127.5,127.5,0.0);opacity:1.0" />
<polygon points="450.50504,443.04938 455.50504,451.70963 445.50504,451.70963" style="fill:rgb(127.5,127.5,0.0);opacity:1.0" />
<polygon points="457.67676,476.30023 462.67676,484.9605 452.67676,484.9605" style="fill:rgb(127.5,127.5,0.0);opacity:1.0" />
<polygon points="464.84848,453.3785 469.84848,462.03876 459.84848,462.03876" style="fill:rgb(127.5,127.5,0.0);opacity:1.0" />
<polygon points="472.0202,446.70007 477.0202,455.3603 467.0202,455.3603" style="fill:rgb(127.5,127.5,0.0);opacity:1.0" />
<polygon points="479.19193,455.0559 484.19193,463.71616 474.19193,463.71616" style="fill:rgb(127.5,127.5,0.0);opacity:1.0" />
<polygon points="486.36365,458.45667 491.36365,467.11688 481.36365,467.11688" style="fill:rgb(127.5,127.5,0.0);opacity:1.0" />
<polygon points="493.53534,462.98004 498.53534,471.6403 488.53534,471.6403" style="fill:rgb(127.5,127.5,0.0);opacity:1.0" />
<polygon points="500.70706,440.21948 505.70706,448.87973 495.70706,448.87973" style="fill:rgb(127.5,127.5,0.0);opacity:1.0" />
<polygon points="507.87878,434.4671 512.8788,443.12738 502.87878,443.12738" style="fill:rgb(127.5,127.5,0.0);opacity:1.0" />
<polygon points="515.05054,450.3548 520.05054,459.015 510.0505,459.015" style="fill:rgb(127.5,127.5,0.0);opacity:1.0" />
<polygon points="522.2222,431.30133 527.2222,439.96158 517.2222,439.96158" style="fill:rgb(127.5,127.5,0.0);opacity:1.0" />
<polygon points="529.3939,445.27686 534.3939,453.93707 524.3939,453.93707" style="fill:rgb(127.5,127.5,0.0);opacity:1.0" />
<polygon points="536.5657,411.89624 541.5657,420.5565 531.5657,420.5565" style="fill:rgb(127.5,127.5,0.0);opacity:1.0" />
<polygon points="543.73737,430.11346 548.73737,438.77368 538.73737,438.77368" style="fill:rgb(127.5,127.5,0.0);opacity:1.0" />
<polygon points="550.90906,418.1988 555.90906,426.85904 545.90906,426.85904" style="fill:rgb(127.5,127.5,0.0);opacity:1.0" />
<polygon points="558.0808,445.14154 563.0808,453.80182 553.0808,453.80182" style="fill:rgb(127.5,127.5,0.0);opacity:1.0" />
<polygon points="565.25256,422.45978 570.25256,431.12003 560.25256,431.12003" style="fill:rgb(127.5,127.5,0.0);opacity:1.0" />
<polygon points="572.4242,432.27374 577.4242,440.934 567.4242,440.934" style="fill:rgb(127.5,127.5,0.0);opacity:1.0" />
<polygon points="579.59595,437.77066 584.59595,446.4309 574.59595,446.4309" style="fill:rgb(127.5,127.5,0.0);opacity:1.0" />
<polygon points="586.7677,416.80548 591.7677,425.4657 581.7677,425.4657" style="fill:rgb(127.5,127.5,0.0);opacity:1.0" />
<polygon points="593.9394,397.34988 598.9394,406.01013 588.9394,406.01013" style="fill:rgb(127.5,127.5,0.0);opacity:1.0" />
<polygon points="601.1111,421.99835 606.1111,430.6586 596.1111,430.6586" style="fill:rgb(127.5,127.5,0.0);opacity:1.0" />
<polygon points="608.28284,409.0904 613.28284,417.75067 603.28284,417.75067" style="fill:rgb(127.5,127.5,0.0);opacity:1.0" />
<polygon points="615.4545,386.82498 620.4545,395.48523 610.4545,395.48523" style="fill:rgb(127.5,127.5,0.0);opacity:1.0" />
<polygon points="622.6263,420.961 627.6263,429.62128 617.6263,429.62128" style="fill:rgb(127.5,127.5,0.0);opacity:1.0" />
<polygon points="629.798,397.3365 634.798,405.99673 624.798,405.99673" style="fill:rgb(127.5,127.5,0.0);opacity:1.0" />
<polygon points="636.96967,380.71326 641.96967,389.37354 631.96967,389.37354" style="fill:rgb(127.5,127.5,0.0);opacity:1.0" />
<polygon points="644.1414,392.8825 649.1414,401.5428 639.1414,401.5428" style="fill:rgb(127.5,127.5,0.0);opacity:1.0" />
<polygon points="651.3131,386.0132 656.3131,394.67346 646.3131,394.67346" style="fill:rgb(127.5,127.5,0.0);opacity:1.0" />
<polygon points="658.48486,377.59576 663.48486,386.25598 653.48486,386.25598" style="fill:rgb(127.5,127.5,0.0);opacity:1.0" />
<polygon points="665.65656,389.81708 670.65656,398.47736 660.65656,398.47736" style="fill:rgb(127.5,127.5,0.0);opacity:1.0" />
<polygon points="672.8283,398.98138 677.8283,407.64166 667.8283,407.64166" style="fill:rgb(127.5,127.5,0.0);opacity:1.0" />
<polygon points="680.0,407.42133 685.0,416.08157 675.0,416.08157" style="fill:rgb(127.5,127.5,0.0);opacity:1.0" />
<polygon points="687.1717,389.34216 692.1717,398.00238 682.1717,398.00238" style="fill:rgb(127.5,127.5,0.0);opacity:1.0" />
<polygon points="694.34344,402.8044 699.34344,411.46466 689.34344,411.46466" style="fill:rgb(127.5,127.5,0.0);opacity:1.0" />
<polygon points="701.51514,385.4037 706.51514,394.06393 696.51514,394.06393" style="fill:rgb(127.5,127.5,0.0);opacity:1.0" />
<polygon points="708.6869,380.79224 713.6869,389.45248 703.6869,389.45248" style="fill:rgb(127.5,127.5,0.0);opacity:1.0" />
<polygon points="715.8586,389.66278 720.8586,398.32306 710.8586,398.32306" style="fill:rgb(127.5,127.5,0.0);opacity:1.0" />
<polygon points="723.0303,361.51538 728.0303,370.17566 718.0303,370.17566" style="fill:rgb(127.5,127.5,0.0);opacity:1.0" />
<polygon points="730.202,353.40054 735.202,362.0608 725.202,362.0608" style="fill:rgb(127.5,127.5,0.0);opacity:1.0" />
<polygon points="737.3737,358.43945 742.3737,367.0997 732.3737,367.0997" style="fill:rgb(127.5,127.5,0.0);opacity:1.0" />
<polygon points="744.5455,365.21423 749.5455,373.87445 739.5455,373.87445" style="fill:rgb(127.5,127.5,0.0);opacity:1.0" />
<polygon points="751.71716,353.9853 756.71716,362.64554 746.71716,362.64554" style="fill:rgb(127.5,127.5,0.0);opacity:1.0" />
<polygon points="758.8889,344.67358 763.8889,353.33386 753.8889,353.33386" style="fill:rgb(127.5,127.5,0.0);opacity:1.0" />
<polygon points="766.0606,377.29663 771.0606,385.95685 761.0606,385.95685" style="fill:rgb(127.5,127.5,0.0);opacity:1.0" />
<polygon points="773.2323,375.31042 778.2323,383.97064 768.2323,383.97064" style="fill:rgb(127.5,127.5,0.0);opacity:1.0" />
<polygon points="780.40405,359.97894 785.40405,368.6392 775.40405,368.6392" style="fill:rgb(127.5,127.5,0.0);opacity:1.0" />
<polygon points="787.57574,358.33514 792.57574,366.9954 782.57574,366.9954" style="fill:rgb(127.5,127.5,0.0);opacity:1.0" />
<polygon points="794.7475,366.29053 799.7475,374.9508 789.7475,374.9508" style="fill:rgb(127.5,127.5,0.0);opacity:1.0" />
<polygon points="801.9192,341.2471 806.9192,349.90735 796.9192,349.90735" style="fill:rgb(127.5,127.5,0.0);opacity:1.0" />
<polygon points="809.0909,333.14948 814.0909,341.80975 804.0909,341.80975" style="fill:rgb(127.5,127.5,0.0);opacity:1.0" />
<text x="456.15" y="58.5" stroke="#000000" stroke-width="1.2" transform="rotate(-0.0,456.15,58.5)">SCATTER PLOT</text>
<text x="476.8" y="630.4" stroke="#000000" stroke-width="1.2" transform="rotate(-0.0,476.8,630.4)">X-AXIS</text>
<text x="50.0" y="376.6" stroke="#000000" stroke-width="1.2" transform="rotate(-90.0,50.0,376.6)">Y-AXIS</text>
<rect x="120.0" y="86.0" width="67.880005" height="40.0" style="fill:rgb(255.0,255.0,255.0);stroke-width:2.0;stroke:rgb(0.0,0.0,0.0);opacity:0.7" />
<circle cx="132.0" cy="98.0" r="4.0"  style="fill:rgb(214.2,214.2,0.0);opacity:1.0" />
<text x="144.0" y="102.0" stroke="#000000" stroke-width="1.2" transform="rotate(-0.0,144.0,102.0)">Plot 1</text>
<polygon points="132.0,110.0 135.4641,116.0 128.5359,116.0" style="fill:rgb(127.5,127.5,0.0);opacity:1.0" />
<text x="144.0" y="118.0" stroke="#000000" stroke-width="1.2" transform="rotate(-0.0,144.0,118.0)">Plot 2</text>
</svg>