<svg height="660.0" width="1000.0" version="4.0" xmlns="http://www.w3.org/2000/svg" xmlns:xlink= "http://www.w3.org/1999/xlink">
<rect width="100%" height="100%" fill="white"/>
<rect x="100.0" y="66.0" width="800.0" height="528.0" style="fill:rgb(255,255,255);stroke-width:2.0;stroke:rgb(0,0,0);opacity:1" />
<line x1="105.0" y1="597.0" x2="105.0" y2="594.0" style="stroke:rgb(0.0,0.0,0.0);stroke-width:2.0;opacity:1.0;stroke-linecap:round" />
<text x="82.14" y="610.0" stroke="#000000" stroke-width="0.7" transform="rotate(-0.0,82.14,610.0)">40.0</text>
<line x1="170.83334" y1="597.0" x2="170.83334" y2="594.0" style="stroke:rgb(0.0,0.0,0.0);stroke-width:2.0;opacity:1.0;stroke-linecap:round" />
<text x="147.97333" y="610.0" stroke="#000000" stroke-width="0.7" transform="rotate(-0.0,147.97333,610.0)">50.0</text>
<line x1="236.66667" y1="597.0" x2="236.66667" y2="594.0" style="stroke:rgb(0.0,0.0,0.0);stroke-width:2.0;opacity:1.0;stroke-linecap:round" />
<text x="213.80667" y="610.0" stroke="#000000" stroke-width="0.7" transform="rotate(-0.0,213.80667,610.0)">60.0</text>
<line x1="302.5" y1="597.0" x2="302.5" y2="594.0" style="stroke:rgb(0.0,0.0,0.0);stroke-width:2.0;opacity:1.0;stroke-linecap:round" />
<text x="279.64" y="610.0" stroke="#000000" stroke-width="0.7" transform="rotate(-0.0,279.64,610.0)">70.0</text>
<line x1="368.33334" y1="597.0" x2="368.33334" y2="594.0" style="stroke:rgb(0.0,0.0,0.0);stroke-width:2.0;opacity:1.0;stroke-linecap:round" />
<text x="345.47333" y="610.0" stroke="#000000" stroke-width="0.7" transform="rotate(-0.0,345.47333,610.0)">80.0</text>
<line x1="434.1667" y1="597.0" x2="434.1667" y2="594.0" style="stroke:rgb(0.0,0.0,0.0);stroke-width:2.0;opacity:1.0;stroke-linecap:round" />
<text x="411.3067" y="610.0" stroke="#000000" stroke-width="0.7" transform="rotate(-0.0,411.3067,610.0)">90.0</text>
<line x1="500.0" y1="597.0" x2="500.0" y2="594.0" style="stroke:rgb(0.0,0.0,0.0);stroke-width:2.0;opacity:1.0;stroke-linecap:round" />
<text x="476.02" y="610.0" stroke="#000000" stroke-width="0.7" transform="rotate(-0.0,476.02,610.0)">100.0</text>
<line x1="565.8334" y1="597.0" x2="565.8334" y2="594.0" style="stroke:rgb(0.0,0.0,0.0);stroke-width:2.0;opacity:1.0;stroke-linecap:round" />
<text x="542.17334" y="610.0" stroke="#000000" stroke-width="0.7" transform="rotate(-0.0,542.17334,610.0)">110.0</text>
<line x1="631.6667" y1="597.0" x2="631.6667" y2="594.0" style="stroke:rgb(0.0,0.0,0.0);stroke-width:2.0;opacity:1.0;stroke-linecap:round" />
<text x="607.68665" y="610.0" stroke="#000000" stroke-width="0.7" transform="rotate(-0.0,607.68665,610.0)">120.0</text>
<line x1="697.5" y1="597.0" x2="697.5" y2="594.0" style="stroke:rgb(0.0,0.0,0.0);stroke-width:2.0;opacity:1.0;stroke-linecap:round" />
<text x="673.52" y="610.0" stroke="#000000" stroke-width="0.7" transform="rotate(-0.0,673.52,610.0)">130.0</text>
<line x1="763.3334" y1="597.0" x2="763.3334" y2="594.0" style="stroke:rgb(0.0,0.0,0.0);stroke-width:2.0;opacity:1.0;stroke-linecap:round" />
<text x="739.3534" y="610.0" stroke="#000000" stroke-width="0.7" transform="rotate(-0.0,739.3534,610.0)">140.0</text>
<line x1="829.1667" y1="597.0" x2="829.1667" y2="594.0" style="stroke:rgb(0.0,0.0,0.0);stroke-width:2.0;opacity:1.0;stroke-linecap:round" />
<text x="805.1867" y="610.0" stroke="#000000" stroke-width="0.7" transform="rotate(-0.0,805.1867,610.0)">150.0</text>
<line x1="895.0" y1="597.0" x2="895.0" y2="594.0" style="stroke:rgb(0.0,0.0,0.0);stroke-width:2.0;opacity:1.0;stroke-linecap:round" />
<text x="871.02" y="610.0" stroke="#000000" stroke-width="0.7" transform="rotate(-0.0,871.02,610.0)">160.0</text>
<line x1="97.0" y1="594.0" x2="100.0" y2="594.0" style="stroke:rgb(0.0,0.0,0.0);stroke-width:2.0;opacity:1.0;stroke-linecap:round" />
<text x="62.16" y="598.0" stroke="#000000" stroke-width="0.7" transform="rotate(-0.0,62.16,598.0)">0.0</text>
<line x1="97.0" y1="521.60736" x2="100.0" y2="521.60736" style="stroke:rgb(0.0,0.0,0.0);stroke-width:2.0;opacity:1.0;stroke-linecap:round" />
<text x="57.04" y="525.60736" stroke="#000000" stroke-width="0.7" transform="rotate(-0.0,57.04,525.60736)">100.0</text>
<line x1="97.0" y1="449.21472" x2="100.0" y2="449.21472" style="stroke:rgb(0.0,0.0,0.0);stroke-width:2.0;opacity:1.0;stroke-linecap:round" />
<text x="56.4" y="453.21472" stroke="#000000" stroke-width="0.7" transform="rotate(-0.0,56.4,453.21472)">200.0</text>
<line x1="97.0" y1="376.82208" x2="100.0" y2="376.82208" style="stroke:rgb(0.0,0.0,0.0);stroke-width:2.0;opacity:1.0;stroke-linecap:round" />
<text x="56.4" y="380.82208" stroke="#000000" stroke-width="0.7" transform="rotate(-0.0,56.4,380.82208)">300.0</text>
<line x1="97.0" y1="304.42944" x2="100.0" y2="304.42944" style="stroke:rgb(0.0,0.0,0.0);stroke-width:2.0;opacity:1.0;stroke-linecap:round" />
<text x="56.4" y="308.42944" stroke="#000000" stroke-width="0.7" transform="rotate(-0.0,56.4,308.42944)">400.0</text>
<line x1="97.0" y1="232.0368" x2="100.0" y2="232.0368" style="stroke:rgb(0.0,0.0,0.0);stroke-width:2.0;opacity:1.0;stroke-linecap:round" />
<text x="56.4" y="236.0368" stroke="#000000" stroke-width="0.7" transform="rotate(-0.0,56.4,236.0368)">500.0</text>
<line x1="97.0" y1="159.64417" x2="100.0" y2="159.64417" style="stroke:rgb(0.0,0.0,0.0);stroke-width:2.0;opacity:1.0;stroke-linecap:round" />
<text x="56.4" y="163.64417" stroke="#000000" stroke-width="0.7" transform="rotate(-0.0,56.4,163.64417)">600.0</text>
<line x1="97.0" y1="87.251526" x2="100.0" y2="87.251526" style="stroke:rgb(0.0,0.0,0.0);stroke-width:2.0;opacity:1.0;stroke-linecap:round" />
<text x="56.4" y="91.251526" stroke="#000000" stroke-width="0.7" transform="rotate(-0.0,56.4,91.251526)">700.0</text>
<rect x="105.0" y="594.0" width="16.0" height="0.0" style="fill:rgb(0.0,0.0,255.0);stroke-width:0;stroke:rgb(0,0,0);opacity:1.0" />
<rect x="121.0" y="592.5521" width="16.0" height="1.4478528" style="fill:rgb(0.0,0.0,255.0);stroke-width:0;stroke:rgb(0,0,0);opacity:1.0" />
<rect x="137.0" y="592.5521" width="16.0" height="1.4478528" style="fill:rgb(0.0,0.0,255.0);stroke-width:0;stroke:rgb(0,0,0);opacity:1.0" />
<rect x="153.0" y="592.5521" width="16.0" height="1.4478528" style="fill:rgb(0.0,0.0,255.0);stroke-width:0;stroke:rgb(0,0,0);opacity:1.0" />
<rect x="169.0" y="588.9325" width="16.0" height="5.067485" style="fill:rgb(0.0,0.0,255.0);stroke-width:0;stroke:rgb(0,0,0);opacity:1.0" />
<rect x="185.0" y="586.76074" width="16.0" height="7.2392645" style="fill:rgb(0.0,0.0,255.0);stroke-width:0;stroke:rgb(0,0,0);opacity:1.0" />
<rect x="201.0" y="591.1043" width="16.0" height="2.8957057" style="fill:rgb(0.0,0.0,255.0);stroke-width:0;stroke:rgb(0,0,0);opacity:1.0" />
<rect x="217.0" y="582.4172" width="16.0" height="11.582823" style="fill:rgb(0.0,0.0,255.0);stroke-width:0;stroke:rgb(0,0,0);opacity:1.0" />
<rect x="233.0" y="580.9693" width="16.0" height="13.030676" style="fill:rgb(0.0,0.0,255.0);stroke-width:0;stroke:rgb(0,0,0);opacity:1.0" />
<rect x="249.0" y="572.2822" width="16.0" height="21.717793" style="fill:rgb(0.0,0.0,255.0);stroke-width:0;stroke:rgb(0,0,0);opacity:1.0" />
<rect x="265.0" y="554.90796" width="16.0" height="39.092026" style="fill:rgb(0.0,0.0,255.0);stroke-width:0;stroke:rgb(0,0,0);opacity:1.0" />
<rect x="281.0" y="549.1166" width="16.0" height="44.88344" style="fill:rgb(0.0,0.0,255.0);stroke-width:0;stroke:rgb(0,0,0);opacity:1.0" />
<rect x="297.0" y="536.0859" width="16.0" height="57.914116" style="fill:rgb(0.0,0.0,255.0);stroke-width:0;stroke:rgb(0,0,0);opacity:1.0" />
<rect x="313.0" y="502.06134" width="16.0" height="91.93866" style="fill:rgb(0.0,0.0,255.0);stroke-width:0;stroke:rgb(0,0,0);opacity:1.0" />
<rect x="329.0" y="498.4417" width="16.0" height="95.55829" style="fill:rgb(0.0,0.0,255.0);stroke-width:0;stroke:rgb(0,0,0);opacity:1.0" />
<rect x="345.0" y="436.18402" width="16.0" height="157.81596" style="fill:rgb(0.0,0.0,255.0);stroke-width:0;stroke:rgb(0,0,0);opacity:1.0" />
<rect x="361.0" y="435.4601" width="16.0" height="158.53989" style="fill:rgb(0.0,0.0,255.0);stroke-width:0;stroke:rgb(0,0,0);opacity:1.0" />
<rect x="377.0" y="358.7239" width="16.0" height="235.2761" style="fill:rgb(0.0,0.0,255.0);stroke-width:0;stroke:rgb(0,0,0);opacity:1.0" />
<rect x="393.0" y="309.49692" width="16.0" height="284.50308" style="fill:rgb(0.0,0.0,255.0);stroke-width:0;stroke:rgb(0,0,0);opacity:1.0" />
<rect x="409.0" y="277.64417" width="16.0" height="316.35583" style="fill:rgb(0.0,0.0,255.0);stroke-width:0;stroke:rgb(0,0,0);opacity:1.0" />
<rect x="425.0" y="212.49078" width="16.0" height="381.50922" style="fill:rgb(0.0,0.0,255.0);stroke-width:0;stroke:rgb(0,0,0);opacity:1.0" />
<rect x="441.0" y="194.39261" width="16.0" height="399.6074" style="fill:rgb(0.0,0.0,255.0);stroke-width:0;stroke:rgb(0,0,0);opacity:1.0" />
<rect x="457.0" y="174.84659" width="16.0" height="419.1534" style="fill:rgb(0.0,0.0,255.0);stroke-width:0;stroke:rgb(0,0,0);opacity:1.0" />
<rect x="473.0" y="146.61346" width="16.0" height="447.38654" style="fill:rgb(0.0,0.0,255.0);stroke-width:0;stroke:rgb(0,0,0);opacity:1.0" />
<rect x="489.0" y="135.75458" width="16.0" height="458.24542" style="fill:rgb(0.0,0.0,255.0);stroke-width:0;stroke:rgb(0,0,0);opacity:1.0" />
<rect x="505.0" y="122.0" width="16.0" height="472.00003" style="fill:rgb(0.0,0.0,255.0);stroke-width:0;stroke:rgb(0,0,0);opacity:1.0" />
<rect x="521.0" y="127.79138" width="16.0" height="466.20862" style="fill:rgb(0.0,0.0,255.0);stroke-width:0;stroke:rgb(0,0,0);opacity:1.0" />
<rect x="537.0" y="169.77911" width="16.0" height="424.2209" style="fill:rgb(0.0,0.0,255.0);stroke-width:0;stroke:rgb(0,0,0);opacity:1.0" />
<rect x="553.0" y="206.69937" width="16.0" height="387.30063" style="fill:rgb(0.0,0.0,255.0);stroke-width:0;stroke:rgb(0,0,0);opacity:1.0" />
<rect x="569.0" y="238.55212" width="16.0" height="355.44788" style="fill:rgb(0.0,0.0,255.0);stroke-width:0;stroke:rgb(0,0,0);opacity:1.0" />
<rect x="585.0" y="273.3006" width="16.0" height="320.6994" style="fill:rgb(0.0,0.0,255.0);stroke-width:0;stroke:rgb(0,0,0);opacity:1.0" />
<rect x="601.0" y="326.14722" width="16.0" height="267.85278" style="fill:rgb(0.0,0.0,255.0);stroke-width:0;stroke:rgb(0,0,0);opacity:1.0" />
<rect x="617.0" y="371.75458" width="16.0" height="222.2454" style="fill:rgb(0.0,0.0,255.0);stroke-width:0;stroke:rgb(0,0,0);opacity:1.0" />
<rect x="633.0" y="447.04294" width="16.0" height="146.95706" style="fill:rgb(0.0,0.0,255.0);stroke-width:0;stroke:rgb(0,0,0);opacity:1.0" />
<rect x="649.0" y="452.1104" width="16.0" height="141.88957" style="fill:rgb(0.0,0.0,255.0);stroke-width:0;stroke:rgb(0,0,0);opacity:1.0" />
<rect x="665.0" y="502.78528" width="16.0" height="91.21473" style="fill:rgb(0.0,0.0,255.0);stroke-width:0;stroke:rgb(0,0,0);opacity:1.0" />
<rect x="681.0" y="514.3681" width="16.0" height="79.631905" style="fill:rgb(0.0,0.0,255.0);stroke-width:0;stroke:rgb(0,0,0);opacity:1.0" />
<rect x="697.0" y="518.7117" width="16.0" height="75.288345" style="fill:rgb(0.0,0.0,255.0);stroke-width:0;stroke:rgb(0,0,0);opacity:1.0" />
<rect x="713.0" y="554.90796" width="16.0" height="39.092026" style="fill:rgb(0.0,0.0,255.0);stroke-width:0;stroke:rgb(0,0,0);opacity:1.0" />
<rect x="729.0" y="557.8037" width="16.0" height="36.19632" style="fill:rgb(0.0,0.0,255.0);stroke-width:0;stroke:rgb(0,0,0);opacity:1.0" />
<rect x="745.0" y="565.76685" width="16.0" height="28.233131" style="fill:rgb(0.0,0.0,255.0);stroke-width:0;stroke:rgb(0,0,0);opacity:1.0" />
<rect x="761.0" y="580.2454" width="16.0" height="13.754602" style="fill:rgb(0.0,0.0,255.0);stroke-width:0;stroke:rgb(0,0,0);opacity:1.0" />
<rect x="777.0" y="585.31287" width="16.0" height="8.687117" style="fill:rgb(0.0,0.0,255.0);stroke-width:0;stroke:rgb(0,0,0);opacity:1.0" />
<rect x="793.0" y="591.1043" width="16.0" height="2.8957057" style="fill:rgb(0.0,0.0,255.0);stroke-width:0;stroke:rgb(0,0,0);opacity:1.0" />
<rect x="809.0" y="594.0" width="16.0" height="0.0" style="fill:rgb(0.0,0.0,255.0);stroke-width:0;stroke:rgb(0,0,0);opacity:1.0" />
<rect x="825.0" y="591.82825" width="16.0" height="2.1717792" style="fill:rgb(0.0,0.0,255.0);stroke-width:0;stroke:rgb(0,0,0);opacity:1.0" />
<rect x="841.0" y="591.1043" width="16.0" height="2.8957057" style="fill:rgb(0.0,0.0,255.0);stroke-width:0;stroke:rgb(0,0,0);opacity:1.0" />
<rect x="857.0" y="593.27606" width="16.0" height="0.7239264" style="fill:rgb(0.0,0.0,255.0);stroke-width:0;stroke:rgb(0,0,0);opacity:1.0" />
<rect x="873.0" y="594.0" width="16.0" height="0.0" style="fill:rgb(0.0,0.0,255.0);stroke-width:0;stroke:rgb(0,0,0);opacity:1.0" />
<rect x="889.0" y="594.0" width="16.0" height="0.0" style="fill:rgb(0.0,0.0,255.0);stroke-width:0;stroke:rgb(0,0,0);opacity:1.0" />
<text x="459.825" y="58.5" stroke="#000000" stroke-width="1.2" transform="rotate(-0.0,459.825,58.5)">HISTOGRAM</text>
<text x="485.65" y="630.4" stroke="#000000" stroke-width="1.2" transform="rotate(-0.0,485.65,630.4)">X</text>
<text x="50.0" y="390.1" stroke="#000000" stroke-width="1.2" transform="rotate(-90.0,50.0,390.1)">Frequency</text>
<rect x="120.0" y="86.0" width="67.23999" height="24.0" style="fill:rgb(255.0,255.0,255.0);stroke-width:2.0;stroke:rgb(0.0,0.0,0.0);opacity:0.7" />
<rect x="128.0" y="94.0" width="8.0" height="8.0" style="fill:rgb(0.0,0.0,255.0);stroke-width:0;stroke:rgb(0,0,0);opacity:1.0" />
<text x="144.0" y="102.0" stroke="#000000" stroke-width="1.2" transform="rotate(-0.0,144.0,102.0)">Plot 1</text>
</svg>