<svg height="660.0" width="1000.0" version="4.0" xmlns="http://www.w3.org/2000/svg" xmlns:xlink= "http://www.w3.org/1999/xlink">
<rect width="100%" height="100%" fill="white"/>
<rect x="100.0" y="66.0" width="800.0" height="528.0" style="fill:rgb(255,255,255);stroke-width:2.0;stroke:rgb(0,0,0);opacity:1" />
<line x1="105.0" y1="597.0" x2="105.0" y2="594.0" style="stroke:rgb(0.0,0.0,0.0);stroke-width:2.0;opacity:1.0;stroke-linecap:round" />
<text x="82.14" y="610.0" stroke="#000000" stroke-width="0.7" transform="rotate(-0.0,82.14,610.0)">50.0</text>
<line x1="176.81818" y1="597.0" x2="176.81818" y2="594.0" style="stroke:rgb(0.0,0.0,0.0);stroke-width:2.0;opacity:1.0;stroke-linecap:round" />
<text x="153.95819" y="610.0" stroke="#000000" stroke-width="0.7" transform="rotate(-0.0,153.95819,610.0)">60.0</text>
<line x1="248.63637" y1="597.0" x2="248.63637" y2="594.0" style="stroke:rgb(0.0,0.0,0.0);stroke-width:2.0;opacity:1.0;stroke-linecap:round" />
<text x="225.77637" y="610.0" stroke="#000000" stroke-width="0.7" transform="rotate(-0.0,225.77637,610.0)">70.0</text>
<line x1="320.45456" y1="597.0" x2="320.45456" y2="594.0" style="stroke:rgb(0.0,0.0,0.0);stroke-width:2.0;opacity:1.0;stroke-linecap:round" />
<text x="297.59454" y="610.0" stroke="#000000" stroke-width="0.7" transform="rotate(-0.0,297.59454,610.0)">80.0</text>
<line x1="392.27274" y1="597.0" x2="392.27274" y2="594.0" style="stroke:rgb(0.0,0.0,0.0);stroke-width:2.0;opacity:1.0;stroke-linecap:round" />
<text x="369.41272" y="610.0" stroke="#000000" stroke-width="0.7" transform="rotate(-0.0,369.41272,610.0)">90.0</text>
<line x1="464.0909" y1="597.0" x2="464.0909" y2="594.0" style="stroke:rgb(0.0,0.0,0.0);stroke-width:2.0;opacity:1.0;stroke-linecap:round" />
<text x="440.1109" y="610.0" stroke="#000000" stroke-width="0.7" transform="rotate(-0.0,440.1109,610.0)">100.0</text>
<line x1="535.9091" y1="597.0" x2="535.9091" y2="594.0" style="stroke:rgb(0.0,0.0,0.0);stroke-width:2.0;opacity:1.0;stroke-linecap:round" />
<text x="512.24915" y="610.0" stroke="#000000" stroke-width="0.7" transform="rotate(-0.0,512.24915,610.0)">110.0</text>
<line x1="607.7273" y1="597.0" x2="607.7273" y2="594.0" style="stroke:rgb(0.0,0.0,0.0);stroke-width:2.0;opacity:1.0;stroke-linecap:round" />
<text x="583.7473" y="610.0" stroke="#000000" stroke-width="0.7" transform="rotate(-0.0,583.7473,610.0)">120.0</text>
<line x1="679.5455" y1="597.0" x2="679.5455" y2="594.0" style="stroke:rgb(0.0,0.0,0.0);stroke-width:2.0;opacity:1.0;stroke-linecap:round" />
<text x="655.5655" y="610.0" stroke="#000000" stroke-width="0.7" transform="rotate(-0.0,655.5655,610.0)">130.0</text>
<line x1="751.36365" y1="597.0" x2="751.36365" y2="594.0" style="stroke:rgb(0.0,0.0,0.0);stroke-width:2.0;opacity:1.0;stroke-linecap:round" />
<text x="727.38367" y="610.0" stroke="#000000" stroke-width="0.7" transform="rotate(-0.0,727.38367,610.0)">140.0</text>
<line x1="823.1818" y1="597.0" x2="823.1818" y2="594.0" style="stroke:rgb(0.0,0.0,0.0);stroke-width:2.0;opacity:1.0;stroke-linecap:round" />
<text x="799.20184" y="610.0" stroke="#000000" stroke-width="0.7" transform="rotate(-0.0,799.20184,610.0)">150.0</text>
<line x1="895.00006" y1="597.0" x2="895.00006" y2="594.0" style="stroke:rgb(0.0,0.0,0.0);stroke-width:2.0;opacity:1.0;stroke-linecap:round" />
<text x="871.0201" y="610.0" stroke="#000000" stroke-width="0.7" transform="rotate(-0.0,871.0201,610.0)">160.0</text>
<line x1="97.0" y1="594.0" x2="100.0" y2="594.0" style="stroke:rgb(0.0,0.0,0.0);stroke-width:2.0;opacity:1.0;stroke-linecap:round" />
<text x="62.16" y="598.0" stroke="#000000" stroke-width="0.7" transform="rotate(-0.0,62.16,598.0)">0.0</text>
<line x1="97.0" y1="512.6207" x2="100.0" y2="512.6207" style="stroke:rgb(0.0,0.0,0.0);stroke-width:2.0;opacity:1.0;stroke-linecap:round" />
<text x="57.04" y="516.62067" stroke="#000000" stroke-width="0.7" transform="rotate(-0.0,57.04,516.62067)">100.0</text>
<line x1="97.0" y1="431.2414" x2="100.0" y2="431.2414" style="stroke:rgb(0.0,0.0,0.0);stroke-width:2.0;opacity:1.0;stroke-linecap:round" />
<text x="56.4" y="435.2414" stroke="#000000" stroke-width="0.7" transform="rotate(-0.0,56.4,435.2414)">200.0</text>
<line x1="97.0" y1="349.86206" x2="100.0" y2="349.86206" style="stroke:rgb(0.0,0.0,0.0);stroke-width:2.0;opacity:1.0;stroke-linecap:round" />
<text x="56.4" y="353.86206" stroke="#000000" stroke-width="0.7" transform="rotate(-0.0,56.4,353.86206)">300.0</text>
<line x1="97.0" y1="268.48276" x2="100.0" y2="268.48276" style="stroke:rgb(0.0,0.0,0.0);stroke-width:2.0;opacity:1.0;stroke-linecap:round" />
<text x="56.4" y="272.48276" stroke="#000000" stroke-width="0.7" transform="rotate(-0.0,56.4,272.48276)">400.0</text>
<line x1="97.0" y1="187.10345" x2="100.0" y2="187.10345" style="stroke:rgb(0.0,0.0,0.0);stroke-width:2.0;opacity:1.0;stroke-linecap:round" />
<text x="56.4" y="191.10345" stroke="#000000" stroke-width="0.7" transform="rotate(-0.0,56.4,191.10345)">500.0</text>
<line x1="97.0" y1="105.72412" x2="100.0" y2="105.72412" style="stroke:rgb(0.0,0.0,0.0);stroke-width:2.0;opacity:1.0;stroke-linecap:round" />
<text x="56.4" y="109.72415" stroke="#000000" stroke-width="0.7" transform="rotate(-0.0,56.4,109.72415)">600.0</text>
<rect x="105.0" y="592.37244" width="16.0" height="1.6275862" style="fill:rgb(0.0,0.0,255.0);stroke-width:0;stroke:rgb(0,0,0);opacity:1.0" />
<rect x="121.0" y="590.7448" width="16.0" height="3.2551725" style="fill:rgb(0.0,0.0,255.0);stroke-width:0;stroke:rgb(0,0,0);opacity:1.0" />
<rect x="137.0" y="590.7448" width="16.0" height="3.2551725" style="fill:rgb(0.0,0.0,255.0);stroke-width:0;stroke:rgb(0,0,0);opacity:1.0" />
<rect x="153.0" y="588.30347" width="16.0" height="5.696552" style="fill:rgb(0.0,0.0,255.0);stroke-width:0;stroke:rgb(0,0,0);opacity:1.0" />
<rect x="169.0" y="580.1655" width="16.0" height="13.834483" style="fill:rgb(0.0,0.0,255.0);stroke-width:0;stroke:rgb(0,0,0);opacity:1.0" />
<rect x="185.0" y="572.8414" width="16.0" height="21.15862" style="fill:rgb(0.0,0.0,255.0);stroke-width:0;stroke:rgb(0,0,0);opacity:1.0" />
<rect x="201.0" y="567.9586" width="16.0" height="26.04138" style="fill:rgb(0.0,0.0,255.0);stroke-width:0;stroke:rgb(0,0,0);opacity:1.0" />
<rect x="217.0" y="547.6138" width="16.0" height="46.386208" style="fill:rgb(0.0,0.0,255.0);stroke-width:0;stroke:rgb(0,0,0);opacity:1.0" />
<rect x="233.0" y="537.84827" width="16.0" height="56.151726" style="fill:rgb(0.0,0.0,255.0);stroke-width:0;stroke:rgb(0,0,0);opacity:1.0" />
<rect x="249.0" y="528.08276" width="16.0" height="65.917244" style="fill:rgb(0.0,0.0,255.0);stroke-width:0;stroke:rgb(0,0,0);opacity:1.0" />
<rect x="265.0" y="466.2345" width="16.0" height="127.76552" style="fill:rgb(0.0,0.0,255.0);stroke-width:0;stroke:rgb(0,0,0);opacity:1.0" />
<rect x="281.0" y="469.48965" width="16.0" height="124.510345" style="fill:rgb(0.0,0.0,255.0);stroke-width:0;stroke:rgb(0,0,0);opacity:1.0" />
<rect x="297.0" y="445.07587" width="16.0" height="148.92415" style="fill:rgb(0.0,0.0,255.0);stroke-width:0;stroke:rgb(0,0,0);opacity:1.0" />
<rect x="313.0" y="413.33792" width="16.0" height="180.66208" style="fill:rgb(0.0,0.0,255.0);stroke-width:0;stroke:rgb(0,0,0);opacity:1.0" />
<rect x="329.0" y="370.2069" width="16.0" height="223.7931" style="fill:rgb(0.0,0.0,255.0);stroke-width:0;stroke:rgb(0,0,0);opacity:1.0" />
<rect x="345.0" y="297.7793" width="16.0" height="296.2207" style="fill:rgb(0.0,0.0,255.0);stroke-width:0;stroke:rgb(0,0,0);opacity:1.0" />
<rect x="361.0" y="270.92413" width="16.0" height="323.07587" style="fill:rgb(0.0,0.0,255.0);stroke-width:0;stroke:rgb(0,0,0);opacity:1.0" />
<rect x="377.0" y="244.06897" width="16.0" height="349.93103" style="fill:rgb(0.0,0.0,255.0);stroke-width:0;stroke:rgb(0,0,0);opacity:1.0" />
<rect x="393.0" y="204.19308" width="16.0" height="389.80692" style="fill:rgb(0.0,0.0,255.0);stroke-width:0;stroke:rgb(0,0,0);opacity:1.0" />
<rect x="409.0" y="178.1517" width="16.0" height="415.8483" style="fill:rgb(0.0,0.0,255.0);stroke-width:0;stroke:rgb(0,0,0);opacity:1.0" />
<rect x="425.0" y="148.85516" width="16.0" height="445.14484" style="fill:rgb(0.0,0.0,255.0);stroke-width:0;stroke:rgb(0,0,0);opacity:1.0" />
<rect x="441.0" y="126.88275" width="16.0" height="467.11725" style="fill:rgb(0.0,0.0,255.0);stroke-width:0;stroke:rgb(0,0,0);opacity:1.0" />
<rect x="457.0" y="122.0" width="16.0" height="472.0" style="fill:rgb(0.0,0.0,255.0);stroke-width:0;stroke:rgb(0,0,0);opacity:1.0" />
<rect x="473.0" y="140.71722" width="16.0" height="453.28278" style="fill:rgb(0.0,0.0,255.0);stroke-width:0;stroke:rgb(0,0,0);opacity:1.0" />
<rect x="489.0" y="139.90344" width="16.0" height="454.09656" style="fill:rgb(0.0,0.0,255.0);stroke-width:0;stroke:rgb(0,0,0);opacity:1.0" />
<rect x="505.0" y="155.36551" width="16.0" height="438.6345" style="fill:rgb(0.0,0.0,255.0);stroke-width:0;stroke:rgb(0,0,0);opacity:1.0" />
<rect x="521.0" y="200.93793" width="16.0" height="393.06207" style="fill:rgb(0.0,0.0,255.0);stroke-width:0;stroke:rgb(0,0,0);opacity:1.0" />
<rect x="537.0" y="214.7724" width="16.0" height="379.2276" style="fill:rgb(0.0,0.0,255.0);stroke-width:0;stroke:rgb(0,0,0);opacity:1.0" />
<rect x="553.0" y="270.11035" width="16.0" height="323.88965" style="fill:rgb(0.0,0.0,255.0);stroke-width:0;stroke:rgb(0,0,0);opacity:1.0" />
<rect x="569.0" y="301.0345" width="16.0" height="292.9655" style="fill:rgb(0.0,0.0,255.0);stroke-width:0;stroke:rgb(0,0,0);opacity:1.0" />
<rect x="585.0" y="319.7517" width="16.0" height="274.2483" style="fill:rgb(0.0,0.0,255.0);stroke-width:0;stroke:rgb(0,0,0);opacity:1.0" />
<rect x="601.0" y="373.46207" width="16.0" height="220.53793" style="fill:rgb(0.0,0.0,255.0);stroke-width:0;stroke:rgb(0,0,0);opacity:1.0" />
<rect x="617.0" y="406.0138" width="16.0" height="187.9862" style="fill:rgb(0.0,0.0,255.0);stroke-width:0;stroke:rgb(0,0,0);opacity:1.0" />
<rect x="633.0" y="472.7448" width="16.0" height="121.25517" style="fill:rgb(0.0,0.0,255.0);stroke-width:0;stroke:rgb(0,0,0);opacity:1.0" />
<rect x="649.0" y="506.11035" width="16.0" height="87.889656" style="fill:rgb(0.0,0.0,255.0);stroke-width:0;stroke:rgb(0,0,0);opacity:1.0" />
<rect x="665.0" y="496.34482" width="16.0" height="97.655174" style="fill:rgb(0.0,0.0,255.0);stroke-width:0;stroke:rgb(0,0,0);opacity:1.0" />
<rect x="681.0" y="525.64136" width="16.0" height="68.35862" style="fill:rgb(0.0,0.0,255.0);stroke-width:0;stroke:rgb(0,0,0);opacity:1.0" />
<rect x="697.0" y="549.2414" width="16.0" height="44.75862" style="fill:rgb(0.0,0.0,255.0);stroke-width:0;stroke:rgb(0,0,0);opacity:1.0" />
<rect x="713.0" y="562.2621" width="16.0" height="31.737932" style="fill:rgb(0.0,0.0,255.0);stroke-width:0;stroke:rgb(0,0,0);opacity:1.0" />
<rect x="729.0" y="577.7241" width="16.0" height="16.275862" style="fill:rgb(0.0,0.0,255.0);stroke-width:0;stroke:rgb(0,0,0);opacity:1.0" />
<rect x="745.0" y="577.7241" width="16.0" height="16.275862" style="fill:rgb(0.0,0.0,255.0);stroke-width:0;stroke:rgb(0,0,0);opacity:1.0" />
<rect x="761.0" y="589.11725" width="16.0" height="4.8827586" style="fill:rgb(0.0,0.0,255.0);stroke-width:0;stroke:rgb(0,0,0);opacity:1.0" />
<rect x="777.0" y="585.0483" width="16.0" height="8.951724" style="fill:rgb(0.0,0.0,255.0);stroke-width:0;stroke:rgb(0,0,0);opacity:1.0" />
<rect x="793.0" y="588.30347" width="16.0" height="5.696552" style="fill:rgb(0.0,0.0,255.0);stroke-width:0;stroke:rgb(0,0,0);opacity:1.0" />
<rect x="809.0" y="592.37244" width="16.0" height="1.6275862" style="fill:rgb(0.0,0.0,255.0);stroke-width:0;stroke:rgb(0,0,0);opacity:1.0" />
<rect x="825.0" y="591.5586" width="16.0" height="2.4413793" style="fill:rgb(0.0,0.0,255.0);stroke-width:0;stroke:rgb(0,0,0);opacity:1.0" />
<rect x="841.0" y="591.5586" width="16.0" height="2.4413793" style="fill:rgb(0.0,0.0,255.0);stroke-width:0;stroke:rgb(0,0,0);opacity:1.0" />
<rect x="857.0" y="594.0" width="16.0" height="0.0" style="fill:rgb(0.0,0.0,255.0);stroke-width:0;stroke:rgb(0,0,0);opacity:1.0" />
<rect x="873.0" y="593.1862" width="16.0" height="0.8137931" style="fill:rgb(0.0,0.0,255.0);stroke-width:0;stroke:rgb(0,0,0);opacity:1.0" />
<rect x="889.0" y="593.1862" width="16.0" height="0.8137931" style="fill:rgb(0.0,0.0,255.0);stroke-width:0;stroke:rgb(0,0,0);opacity:1.0" />
<text x="459.825" y="58.5" stroke="#000000" stroke-width="1.2" transform="rotate(-0.0,459.825,58.5)">HISTOGRAM</text>
<text x="476.8" y="630.4" stroke="#000000" stroke-width="1.2" transform="rotate(-0.0,476.8,630.4)">X-AXIS</text>
<text x="50.0" y="376.6" stroke="#000000" stroke-width="1.2" transform="rotate(-90.0,50.0,376.6)">Y-AXIS</text>
</svg>