<svg height="660.0" width="1000.0" version="4.0" xmlns="http://www.w3.org/2000/svg" xmlns:xlink= "http://www.w3.org/1999/xlink">
<rect width="100%" height="100%" fill="white"/>
<rect x="100.0" y="66.0" width="800.0" height="528.0" style="fill:rgb(255,255,255);stroke-width:2.0;stroke:rgb(0,0,0);opacity:1" />
<line x1="105.0" y1="597.0" x2="105.0" y2="594.0" style="stroke:rgb(0.0,0.0,0.0);stroke-width:2.0;opacity:1.0;stroke-linecap:round" />
<text x="82.14" y="610.0" stroke="#000000" stroke-width="0.7" transform="rotate(-0.0,82.14,610.0)">40.0</text>
<line x1="148.88889" y1="597.0" x2="148.88889" y2="594.0" style="stroke:rgb(0.0,0.0,0.0);stroke-width:2.0;opacity:1.0;stroke-linecap:round" />
<text x="126.028885" y="610.0" stroke="#000000" stroke-width="0.7" transform="rotate(-0.0,126.028885,610.0)">50.0</text>
<line x1="192.77777" y1="597.0" x2="192.77777" y2="594.0" style="stroke:rgb(0.0,0.0,0.0);stroke-width:2.0;opacity:1.0;stroke-linecap:round" />
<text x="169.91779" y="610.0" stroke="#000000" stroke-width="0.7" transform="rotate(-0.0,169.91779,610.0)">60.0</text>
<line x1="236.66667" y1="597.0" x2="236.66667" y2="594.0" style="stroke:rgb(0.0,0.0,0.0);stroke-width:2.0;opacity:1.0;stroke-linecap:round" />
<text x="213.80667" y="610.0" stroke="#000000" stroke-width="0.7" transform="rotate(-0.0,213.80667,610.0)">70.0</text>
<line x1="280.55554" y1="597.0" x2="280.55554" y2="594.0" style="stroke:rgb(0.0,0.0,0.0);stroke-width:2.0;opacity:1.0;stroke-linecap:round" />
<text x="257.69556" y="610.0" stroke="#000000" stroke-width="0.7" transform="rotate(-0.0,257.69556,610.0)">80.0</text>
<line x1="324.44446" y1="597.0" x2="324.44446" y2="594.0" style="stroke:rgb(0.0,0.0,0.0);stroke-width:2.0;opacity:1.0;stroke-linecap:round" />
<text x="301.58444" y="610.0" stroke="#000000" stroke-width="0.7" transform="rotate(-0.0,301.58444,610.0)">90.0</text>
<line x1="368.33334" y1="597.0" x2="368.33334" y2="594.0" style="stroke:rgb(0.0,0.0,0.0);stroke-width:2.0;opacity:1.0;stroke-linecap:round" />
<text x="344.35333" y="610.0" stroke="#000000" stroke-width="0.7" transform="rotate(-0.0,344.35333,610.0)">100.0</text>
<line x1="412.22223" y1="597.0" x2="412.22223" y2="594.0" style="stroke:rgb(0.0,0.0,0.0);stroke-width:2.0;opacity:1.0;stroke-linecap:round" />
<text x="388.56223" y="610.0" stroke="#000000" stroke-width="0.7" transform="rotate(-0.0,388.56223,610.0)">110.0</text>
<line x1="456.1111" y1="597.0" x2="456.1111" y2="594.0" style="stroke:rgb(0.0,0.0,0.0);stroke-width:2.0;opacity:1.0;stroke-linecap:round" />
<text x="432.1311" y="610.0" stroke="#000000" stroke-width="0.7" transform="rotate(-0.0,432.1311,610.0)">120.0</text>
<line x1="500.0" y1="597.0" x2="500.0" y2="594.0" style="stroke:rgb(0.0,0.0,0.0);stroke-width:2.0;opacity:1.0;stroke-linecap:round" />
<text x="476.02" y="610.0" stroke="#000000" stroke-width="0.7" transform="rotate(-0.0,476.02,610.0)">130.0</text>
<line x1="543.8889" y1="597.0" x2="543.8889" y2="594.0" style="stroke:rgb(0.0,0.0,0.0);stroke-width:2.0;opacity:1.0;stroke-linecap:round" />
<text x="519.9089" y="610.0" stroke="#000000" stroke-width="0.7" transform="rotate(-0.0,519.9089,610.0)">140.0</text>
<line x1="587.7778" y1="597.0" x2="587.7778" y2="594.0" style="stroke:rgb(0.0,0.0,0.0);stroke-width:2.0;opacity:1.0;stroke-linecap:round" />
<text x="563.7977" y="610.0" stroke="#000000" stroke-width="0.7" transform="rotate(-0.0,563.7977,610.0)">150.0</text>
<line x1="631.6667" y1="597.0" x2="631.6667" y2="594.0" style="stroke:rgb(0.0,0.0,0.0);stroke-width:2.0;opacity:1.0;stroke-linecap:round" />
<text x="607.68665" y="610.0" stroke="#000000" stroke-width="0.7" transform="rotate(-0.0,607.68665,610.0)">160.0</text>
<line x1="675.55554" y1="597.0" x2="675.55554" y2="594.0" style="stroke:rgb(0.0,0.0,0.0);stroke-width:2.0;opacity:1.0;stroke-linecap:round" />
<text x="651.57556" y="610.0" stroke="#000000" stroke-width="0.7" transform="rotate(-0.0,651.57556,610.0)">170.0</text>
<line x1="719.44446" y1="597.0" x2="719.44446" y2="594.0" style="stroke:rgb(0.0,0.0,0.0);stroke-width:2.0;opacity:1.0;stroke-linecap:round" />
<text x="695.4645" y="610.0" stroke="#000000" stroke-width="0.7" transform="rotate(-0.0,695.4645,610.0)">180.0</text>
<line x1="763.3333" y1="597.0" x2="763.3333" y2="594.0" style="stroke:rgb(0.0,0.0,0.0);stroke-width:2.0;opacity:1.0;stroke-linecap:round" />
<text x="739.35333" y="610.0" stroke="#000000" stroke-width="0.7" transform="rotate(-0.0,739.35333,610.0)">190.0</text>
<line x1="807.2222" y1="597.0" x2="807.2222" y2="594.0" style="stroke:rgb(0.0,0.0,0.0);stroke-width:2.0;opacity:1.0;stroke-linecap:round" />
<text x="782.92224" y="610.0" stroke="#000000" stroke-width="0.7" transform="rotate(-0.0,782.92224,610.0)">200.0</text>
<line x1="851.1111" y1="597.0" x2="851.1111" y2="594.0" style="stroke:rgb(0.0,0.0,0.0);stroke-width:2.0;opacity:1.0;stroke-linecap:round" />
<text x="827.1311" y="610.0" stroke="#000000" stroke-width="0.7" transform="rotate(-0.0,827.1311,610.0)">210.0</text>
<line x1="895.0" y1="597.0" x2="895.0" y2="594.0" style="stroke:rgb(0.0,0.0,0.0);stroke-width:2.0;opacity:1.0;stroke-linecap:round" />
<text x="870.7" y="610.0" stroke="#000000" stroke-width="0.7" transform="rotate(-0.0,870.7,610.0)">220.0</text>
<line x1="97.0" y1="594.0" x2="100.0" y2="594.0" style="stroke:rgb(0.0,0.0,0.0);stroke-width:2.0;opacity:1.0;stroke-linecap:round" />
<text x="62.16" y="598.0" stroke="#000000" stroke-width="0.7" transform="rotate(-0.0,62.16,598.0)">0.0</text>
<line x1="97.0" y1="545.29" x2="100.0" y2="545.29" style="stroke:rgb(0.0,0.0,0.0);stroke-width:2.0;opacity:1.0;stroke-linecap:round" />
<text x="57.04" y="549.29" stroke="#000000" stroke-width="0.7" transform="rotate(-0.0,57.04,549.29)">100.0</text>
<line x1="97.0" y1="496.58" x2="100.0" y2="496.58" style="stroke:rgb(0.0,0.0,0.0);stroke-width:2.0;opacity:1.0;stroke-linecap:round" />
<text x="56.4" y="500.57996" stroke="#000000" stroke-width="0.7" transform="rotate(-0.0,56.4,500.57996)">200.0</text>
<line x1="97.0" y1="447.86996" x2="100.0" y2="447.86996" style="stroke:rgb(0.0,0.0,0.0);stroke-width:2.0;opacity:1.0;stroke-linecap:round" />
<text x="56.4" y="451.87" stroke="#000000" stroke-width="0.7" transform="rotate(-0.0,56.4,451.87)">300.0</text>
<line x1="97.0" y1="399.15997" x2="100.0" y2="399.15997" style="stroke:rgb(0.0,0.0,0.0);stroke-width:2.0;opacity:1.0;stroke-linecap:round" />
<text x="56.4" y="403.15997" stroke="#000000" stroke-width="0.7" transform="rotate(-0.0,56.4,403.15997)">400.0</text>
<line x1="97.0" y1="350.44995" x2="100.0" y2="350.44995" style="stroke:rgb(0.0,0.0,0.0);stroke-width:2.0;opacity:1.0;stroke-linecap:round" />
<text x="56.4" y="354.44995" stroke="#000000" stroke-width="0.7" transform="rotate(-0.0,56.4,354.44995)">500.0</text>
<line x1="97.0" y1="301.73993" x2="100.0" y2="301.73993" style="stroke:rgb(0.0,0.0,0.0);stroke-width:2.0;opacity:1.0;stroke-linecap:round" />
<text x="56.4" y="305.73993" stroke="#000000" stroke-width="0.7" transform="rotate(-0.0,56.4,305.73993)">600.0</text>
<line x1="97.0" y1="253.0299" x2="100.0" y2="253.0299" style="stroke:rgb(0.0,0.0,0.0);stroke-width:2.0;opacity:1.0;stroke-linecap:round" />
<text x="56.4" y="257.0299" stroke="#000000" stroke-width="0.7" transform="rotate(-0.0,56.4,257.0299)">700.0</text>
<line x1="97.0" y1="204.31989" x2="100.0" y2="204.31989" style="stroke:rgb(0.0,0.0,0.0);stroke-width:2.0;opacity:1.0;stroke-linecap:round" />
<text x="56.4" y="208.31989" stroke="#000000" stroke-width="0.7" transform="rotate(-0.0,56.4,208.31989)">800.0</text>
<line x1="97.0" y1="155.60986" x2="100.0" y2="155.60986" style="stroke:rgb(0.0,0.0,0.0);stroke-width:2.0;opacity:1.0;stroke-linecap:round" />
<text x="56.4" y="159.60986" stroke="#000000" stroke-width="0.7" transform="rotate(-0.0,56.4,159.60986)">900.0</text>
<line x1="97.0" y1="106.89984" x2="100.0" y2="106.89984" style="stroke:rgb(0.0,0.0,0.0);stroke-width:2.0;opacity:1.0;stroke-linecap:round" />
<text x="54.16" y="110.89984" stroke="#000000" stroke-width="0.7" transform="rotate(-0.0,54.16,110.89984)">1000.0</text>
<line x1="105.0" y1="594.0" x2="105.0" y2="594.0" style="stroke:rgb(0.0,0.0,255.0);stroke-width:2.0;opacity:1.0;stroke-linecap:round" />
<line x1="105.0" y1="594.0" x2="105.0" y2="594.0" style="stroke:rgb(164.985,164.985,0.0);stroke-width:2.0;opacity:1.0;stroke-linecap:round" />
<line x1="121.0" y1="594.0" x2="121.0" y2="593.5129" style="stroke:rgb(0.0,0.0,255.0);stroke-width:2.0;opacity:1.0;stroke-linecap:round" />
<line x1="105.0" y1="594.0" x2="121.0" y2="594.0" style="stroke:rgb(0.0,0.0,255.0);stroke-width:2.0;opacity:1.0;stroke-linecap:round" />
<line x1="121.0" y1="594.0" x2="121.0" y2="593.5129" style="stroke:rgb(164.985,164.985,0.0);stroke-width:2.0;opacity:1.0;stroke-linecap:round" />
<line x1="105.0" y1="594.0" x2="121.0" y2="594.0" style="stroke:rgb(164.985,164.985,0.0);stroke-width:2.0;opacity:1.0;stroke-linecap:round" />
<line x1="137.0" y1="593.5129" x2="137.0" y2="592.5387" style="stroke:rgb(0.0,0.0,255.0);stroke-width:2.0;opacity:1.0;stroke-linecap:round" />
<line x1="121.0" y1="593.5129" x2="137.0" y2="593.5129" style="stroke:rgb(0.0,0.0,255.0);stroke-width:2.0;opacity:1.0;stroke-linecap:round" />
<line x1="137.0" y1="593.5129" x2="137.0" y2="592.5387" style="stroke:rgb(164.985,164.985,0.0);stroke-width:2.0;opacity:1.0;stroke-linecap:round" />
<line x1="121.0" y1="593.5129" x2="137.0" y2="593.5129" style="stroke:rgb(164.985,164.985,0.0);stroke-width:2.0;opacity:1.0;stroke-linecap:round" />
<line x1="153.0" y1="592.5387" x2="153.0" y2="592.0516" style="stroke:rgb(0.0,0.0,255.0);stroke-width:2.0;opacity:1.0;stroke-linecap:round" />
<line x1="137.0" y1="592.5387" x2="153.0" y2="592.5387" style="stroke:rgb(0.0,0.0,255.0);stroke-width:2.0;opacity:1.0;stroke-linecap:round" />
<line x1="153.0" y1="592.5387" x2="153.0" y2="592.0516" style="stroke:rgb(164.985,164.985,0.0);stroke-width:2.0;opacity:1.0;stroke-linecap:round" />
<line x1="137.0" y1="592.5387" x2="153.0" y2="592.5387" style="stroke:rgb(164.985,164.985,0.0);stroke-width:2.0;opacity:1.0;stroke-linecap:round" />
<line x1="169.0" y1="592.0516" x2="169.0" y2="585.7193" style="stroke:rgb(0.0,0.0,255.0);stroke-width:2.0;opacity:1.0;stroke-linecap:round" />
<line x1="153.0" y1="592.0516" x2="169.0" y2="592.0516" style="stroke:rgb(0.0,0.0,255.0);stroke-width:2.0;opacity:1.0;stroke-linecap:round" />
<line x1="169.0" y1="592.0516" x2="169.0" y2="585.7193" style="stroke:rgb(164.985,164.985,0.0);stroke-width:2.0;opacity:1.0;stroke-linecap:round" />
<line x1="153.0" y1="592.0516" x2="169.0" y2="592.0516" style="stroke:rgb(164.985,164.985,0.0);stroke-width:2.0;opacity:1.0;stroke-linecap:round" />
<line x1="185.0" y1="585.7193" x2="185.0" y2="581.8225" style="stroke:rgb(0.0,0.0,255.0);stroke-width:2.0;opacity:1.0;stroke-linecap:round" />
<line x1="169.0" y1="585.7193" x2="185.0" y2="585.7193" style="stroke:rgb(0.0,0.0,255.0);stroke-width:2.0;opacity:1.0;stroke-linecap:round" />
<line x1="185.0" y1="585.7193" x2="185.0" y2="581.8225" style="stroke:rgb(164.985,164.985,0.0);stroke-width:2.0;opacity:1.0;stroke-linecap:round" />
<line x1="169.0" y1="585.7193" x2="185.0" y2="585.7193" style="stroke:rgb(164.985,164.985,0.0);stroke-width:2.0;opacity:1.0;stroke-linecap:round" />
<line x1="201.0" y1="581.8225" x2="201.0" y2="561.8514" style="stroke:rgb(0.0,0.0,255.0);stroke-width:2.0;opacity:1.0;stroke-linecap:round" />
<line x1="185.0" y1="581.8225" x2="201.0" y2="581.8225" style="stroke:rgb(0.0,0.0,255.0);stroke-width:2.0;opacity:1.0;stroke-linecap:round" />
<line x1="201.0" y1="581.8225" x2="201.0" y2="561.8514" style="stroke:rgb(164.985,164.985,0.0);stroke-width:2.0;opacity:1.0;stroke-linecap:round" />
<line x1="185.0" y1="581.8225" x2="201.0" y2="581.8225" style="stroke:rgb(164.985,164.985,0.0);stroke-width:2.0;opacity:1.0;stroke-linecap:round" />
<line x1="217.0" y1="561.8514" x2="217.0" y2="553.5707" style="stroke:rgb(0.0,0.0,255.0);stroke-width:2.0;opacity:1.0;stroke-linecap:round" />
<line x1="201.0" y1="561.8514" x2="217.0" y2="561.8514" style="stroke:rgb(0.0,0.0,255.0);stroke-width:2.0;opacity:1.0;stroke-linecap:round" />
<line x1="217.0" y1="561.8514" x2="217.0" y2="553.5707" style="stroke:rgb(164.985,164.985,0.0);stroke-width:2.0;opacity:1.0;stroke-linecap:round" />
<line x1="201.0" y1="561.8514" x2="217.0" y2="561.8514" style="stroke:rgb(164.985,164.985,0.0);stroke-width:2.0;opacity:1.0;stroke-linecap:round" />
<line x1="233.0" y1="553.5707" x2="233.0" y2="528.7286" style="stroke:rgb(0.0,0.0,255.0);stroke-width:2.0;opacity:1.0;stroke-linecap:round" />
<line x1="217.0" y1="553.5707" x2="233.0" y2="553.5707" style="stroke:rgb(0.0,0.0,255.0);stroke-width:2.0;opacity:1.0;stroke-linecap:round" />
<line x1="233.0" y1="553.5707" x2="233.0" y2="528.7286" style="stroke:rgb(164.985,164.985,0.0);stroke-width:2.0;opacity:1.0;stroke-linecap:round" />
<line x1="217.0" y1="553.5707" x2="233.0" y2="553.5707" style="stroke:rgb(164.985,164.985,0.0);stroke-width:2.0;opacity:1.0;stroke-linecap:round" />
<line x1="249.0" y1="528.7286" x2="249.0" y2="480.0186" style="stroke:rgb(0.0,0.0,255.0);stroke-width:2.0;opacity:1.0;stroke-linecap:round" />
<line x1="233.0" y1="528.7286" x2="249.0" y2="528.7286" style="stroke:rgb(0.0,0.0,255.0);stroke-width:2.0;opacity:1.0;stroke-linecap:round" />
<line x1="249.0" y1="528.7286" x2="249.0" y2="480.0186" style="stroke:rgb(164.985,164.985,0.0);stroke-width:2.0;opacity:1.0;stroke-linecap:round" />
<line x1="233.0" y1="528.7286" x2="249.0" y2="528.7286" style="stroke:rgb(164.985,164.985,0.0);stroke-width:2.0;opacity:1.0;stroke-linecap:round" />
<line x1="265.0" y1="480.0186" x2="265.0" y2="426.43756" style="stroke:rgb(0.0,0.0,255.0);stroke-width:2.0;opacity:1.0;stroke-linecap:round" />
<line x1="249.0" y1="480.0186" x2="265.0" y2="480.0186" style="stroke:rgb(0.0,0.0,255.0);stroke-width:2.0;opacity:1.0;stroke-linecap:round" />
<line x1="265.0" y1="480.0186" x2="265.0" y2="426.43756" style="stroke:rgb(164.985,164.985,0.0);stroke-width:2.0;opacity:1.0;stroke-linecap:round" />
<line x1="249.0" y1="480.0186" x2="265.0" y2="480.0186" style="stroke:rgb(164.985,164.985,0.0);stroke-width:2.0;opacity:1.0;stroke-linecap:round" />
<line x1="281.0" y1="426.43756" x2="281.0" y2="368.47266" style="stroke:rgb(0.0,0.0,255.0);stroke-width:2.0;opacity:1.0;stroke-linecap:round" />
<line x1="265.0" y1="426.43756" x2="281.0" y2="426.43756" style="stroke:rgb(0.0,0.0,255.0);stroke-width:2.0;opacity:1.0;stroke-linecap:round" />
<line x1="281.0" y1="426.43756" x2="281.0" y2="368.47266" style="stroke:rgb(164.985,164.985,0.0);stroke-width:2.0;opacity:1.0;stroke-linecap:round" />
<line x1="265.0" y1="426.43756" x2="281.0" y2="426.43756" style="stroke:rgb(164.985,164.985,0.0);stroke-width:2.0;opacity:1.0;stroke-linecap:round" />
<line x1="297.0" y1="368.47266" x2="297.0" y2="309.04645" style="stroke:rgb(0.0,0.0,255.0);stroke-width:2.0;opacity:1.0;stroke-linecap:round" />
<line x1="281.0" y1="368.47266" x2="297.0" y2="368.47266" style="stroke:rgb(0.0,0.0,255.0);stroke-width:2.0;opacity:1.0;stroke-linecap:round" />
<line x1="297.0" y1="368.47266" x2="297.0" y2="309.04645" style="stroke:rgb(164.985,164.985,0.0);stroke-width:2.0;opacity:1.0;stroke-linecap:round" />
<line x1="281.0" y1="368.47266" x2="297.0" y2="368.47266" style="stroke:rgb(164.985,164.985,0.0);stroke-width:2.0;opacity:1.0;stroke-linecap:round" />
<line x1="313.0" y1="309.04645" x2="313.0" y2="259.84933" style="stroke:rgb(0.0,0.0,255.0);stroke-width:2.0;opacity:1.0;stroke-linecap:round" />
<line x1="297.0" y1="309.04645" x2="313.0" y2="309.04645" style="stroke:rgb(0.0,0.0,255.0);stroke-width:2.0;opacity:1.0;stroke-linecap:round" />
<line x1="313.0" y1="309.04645" x2="313.0" y2="259.84933" style="stroke:rgb(164.985,164.985,0.0);stroke-width:2.0;opacity:1.0;stroke-linecap:round" />
<line x1="297.0" y1="309.04645" x2="313.0" y2="309.04645" style="stroke:rgb(164.985,164.985,0.0);stroke-width:2.0;opacity:1.0;stroke-linecap:round" />
<line x1="329.0" y1="259.84933" x2="329.0" y2="181.42621" style="stroke:rgb(0.0,0.0,255.0);stroke-width:2.0;opacity:1.0;stroke-linecap:round" />
<line x1="313.0" y1="259.84933" x2="329.0" y2="259.84933" style="stroke:rgb(0.0,0.0,255.0);stroke-width:2.0;opacity:1.0;stroke-linecap:round" />
<line x1="329.0" y1="259.84933" x2="329.0" y2="181.42621" style="stroke:rgb(164.985,164.985,0.0);stroke-width:2.0;opacity:1.0;stroke-linecap:round" />
<line x1="313.0" y1="259.84933" x2="329.0" y2="259.84933" style="stroke:rgb(164.985,164.985,0.0);stroke-width:2.0;opacity:1.0;stroke-linecap:round" />
<line x1="345.0" y1="181.42621" x2="345.0" y2="149.27762" style="stroke:rgb(0.0,0.0,255.0);stroke-width:2.0;opacity:1.0;stroke-linecap:round" />
<line x1="329.0" y1="181.42621" x2="345.0" y2="181.42621" style="stroke:rgb(0.0,0.0,255.0);stroke-width:2.0;opacity:1.0;stroke-linecap:round" />
<line x1="345.0" y1="181.42621" x2="345.0" y2="146.35498" style="stroke:rgb(164.985,164.985,0.0);stroke-width:2.0;opacity:1.0;stroke-linecap:round" />
<line x1="329.0" y1="181.42621" x2="345.0" y2="181.42621" style="stroke:rgb(164.985,164.985,0.0);stroke-width:2.0;opacity:1.0;stroke-linecap:round" />
<line x1="361.0" y1="149.27762" x2="361.0" y2="132.71619" style="stroke:rgb(0.0,0.0,255.0);stroke-width:2.0;opacity:1.0;stroke-linecap:round" />
<line x1="345.0" y1="149.27762" x2="361.0" y2="149.27762" style="stroke:rgb(0.0,0.0,255.0);stroke-width:2.0;opacity:1.0;stroke-linecap:round" />
<line x1="361.0" y1="147.81628" x2="361.0" y2="127.845215" style="stroke:rgb(164.985,164.985,0.0);stroke-width:2.0;opacity:1.0;stroke-linecap:round" />
<line x1="345.0" y1="147.81628" x2="361.0" y2="147.81628" style="stroke:rgb(164.985,164.985,0.0);stroke-width:2.0;opacity:1.0;stroke-linecap:round" />
<line x1="377.0" y1="132.71619" x2="377.0" y2="161.94223" style="stroke:rgb(0.0,0.0,255.0);stroke-width:2.0;opacity:1.0;stroke-linecap:round" />
<line x1="361.0" y1="132.71619" x2="377.0" y2="132.71619" style="stroke:rgb(0.0,0.0,255.0);stroke-width:2.0;opacity:1.0;stroke-linecap:round" />
<line x1="377.0" y1="130.28076" x2="377.0" y2="154.14865" style="stroke:rgb(164.985,164.985,0.0);stroke-width:2.0;opacity:1.0;stroke-linecap:round" />
<line x1="361.0" y1="130.28076" x2="377.0" y2="130.28076" style="stroke:rgb(164.985,164.985,0.0);stroke-width:2.0;opacity:1.0;stroke-linecap:round" />
<line x1="393.0" y1="161.94223" x2="393.0" y2="169.24872" style="stroke:rgb(0.0,0.0,255.0);stroke-width:2.0;opacity:1.0;stroke-linecap:round" />
<line x1="377.0" y1="161.94223" x2="393.0" y2="161.94223" style="stroke:rgb(0.0,0.0,255.0);stroke-width:2.0;opacity:1.0;stroke-linecap:round" />
<line x1="393.0" y1="158.04544" x2="393.0" y2="151.71313" style="stroke:rgb(164.985,164.985,0.0);stroke-width:2.0;opacity:1.0;stroke-linecap:round" />
<line x1="377.0" y1="158.04544" x2="393.0" y2="158.04544" style="stroke:rgb(164.985,164.985,0.0);stroke-width:2.0;opacity:1.0;stroke-linecap:round" />
<line x1="409.0" y1="169.24872" x2="409.0" y2="216.49744" style="stroke:rgb(0.0,0.0,255.0);stroke-width:2.0;opacity:1.0;stroke-linecap:round" />
<line x1="393.0" y1="169.24872" x2="409.0" y2="169.24872" style="stroke:rgb(0.0,0.0,255.0);stroke-width:2.0;opacity:1.0;stroke-linecap:round" />
<line x1="409.0" y1="160.48093" x2="409.0" y2="199.93604" style="stroke:rgb(164.985,164.985,0.0);stroke-width:2.0;opacity:1.0;stroke-linecap:round" />
<line x1="393.0" y1="160.48093" x2="409.0" y2="160.48093" style="stroke:rgb(164.985,164.985,0.0);stroke-width:2.0;opacity:1.0;stroke-linecap:round" />
<line x1="425.0" y1="216.49744" x2="425.0" y2="292.97214" style="stroke:rgb(0.0,0.0,255.0);stroke-width:2.0;opacity:1.0;stroke-linecap:round" />
<line x1="409.0" y1="216.49744" x2="425.0" y2="216.49744" style="stroke:rgb(0.0,0.0,255.0);stroke-width:2.0;opacity:1.0;stroke-linecap:round" />
<line x1="425.0" y1="208.21674" x2="425.0" y2="246.21054" style="stroke:rgb(164.985,164.985,0.0);stroke-width:2.0;opacity:1.0;stroke-linecap:round" />
<line x1="409.0" y1="208.21674" x2="425.0" y2="208.21674" style="stroke:rgb(164.985,164.985,0.0);stroke-width:2.0;opacity:1.0;stroke-linecap:round" />
<line x1="441.0" y1="292.97214" x2="441.0" y2="348.98865" style="stroke:rgb(0.0,0.0,255.0);stroke-width:2.0;opacity:1.0;stroke-linecap:round" />
<line x1="425.0" y1="292.97214" x2="441.0" y2="292.97214" style="stroke:rgb(0.0,0.0,255.0);stroke-width:2.0;opacity:1.0;stroke-linecap:round" />
<line x1="441.0" y1="269.59134" x2="441.0" y2="256.43964" style="stroke:rgb(164.985,164.985,0.0);stroke-width:2.0;opacity:1.0;stroke-linecap:round" />
<line x1="425.0" y1="269.59134" x2="441.0" y2="269.59134" style="stroke:rgb(164.985,164.985,0.0);stroke-width:2.0;opacity:1.0;stroke-linecap:round" />
<line x1="457.0" y1="348.98865" x2="457.0" y2="427.41177" style="stroke:rgb(0.0,0.0,255.0);stroke-width:2.0;opacity:1.0;stroke-linecap:round" />
<line x1="441.0" y1="348.98865" x2="457.0" y2="348.98865" style="stroke:rgb(0.0,0.0,255.0);stroke-width:2.0;opacity:1.0;stroke-linecap:round" />
<line x1="457.0" y1="302.71414" x2="457.0" y2="281.28174" style="stroke:rgb(164.985,164.985,0.0);stroke-width:2.0;opacity:1.0;stroke-linecap:round" />
<line x1="441.0" y1="302.71414" x2="457.0" y2="302.71414" style="stroke:rgb(164.985,164.985,0.0);stroke-width:2.0;opacity:1.0;stroke-linecap:round" />
<line x1="473.0" y1="427.41177" x2="473.0" y2="482.45407" style="stroke:rgb(0.0,0.0,255.0);stroke-width:2.0;opacity:1.0;stroke-linecap:round" />
<line x1="457.0" y1="427.41177" x2="473.0" y2="427.41177" style="stroke:rgb(0.0,0.0,255.0);stroke-width:2.0;opacity:1.0;stroke-linecap:round" />
<line x1="473.0" y1="354.34674" x2="473.0" y2="252.54285" style="stroke:rgb(164.985,164.985,0.0);stroke-width:2.0;opacity:1.0;stroke-linecap:round" />
<line x1="457.0" y1="354.34674" x2="473.0" y2="354.34674" style="stroke:rgb(164.985,164.985,0.0);stroke-width:2.0;opacity:1.0;stroke-linecap:round" />
<line x1="489.0" y1="482.45407" x2="489.0" y2="504.3736" style="stroke:rgb(0.0,0.0,255.0);stroke-width:2.0;opacity:1.0;stroke-linecap:round" />
<line x1="473.0" y1="482.45407" x2="489.0" y2="482.45407" style="stroke:rgb(0.0,0.0,255.0);stroke-width:2.0;opacity:1.0;stroke-linecap:round" />
<line x1="489.0" y1="367.49847" x2="489.0" y2="172.17133" style="stroke:rgb(164.985,164.985,0.0);stroke-width:2.0;opacity:1.0;stroke-linecap:round" />
<line x1="473.0" y1="367.49847" x2="489.0" y2="367.49847" style="stroke:rgb(164.985,164.985,0.0);stroke-width:2.0;opacity:1.0;stroke-linecap:round" />
<line x1="505.0" y1="504.3736" x2="505.0" y2="541.8803" style="stroke:rgb(0.0,0.0,255.0);stroke-width:2.0;opacity:1.0;stroke-linecap:round" />
<line x1="489.0" y1="504.3736" x2="505.0" y2="504.3736" style="stroke:rgb(0.0,0.0,255.0);stroke-width:2.0;opacity:1.0;stroke-linecap:round" />
<line x1="505.0" y1="338.27246" x2="505.0" y2="97.64502" style="stroke:rgb(164.985,164.985,0.0);stroke-width:2.0;opacity:1.0;stroke-linecap:round" />
<line x1="489.0" y1="338.27246" x2="505.0" y2="338.27246" style="stroke:rgb(164.985,164.985,0.0);stroke-width:2.0;opacity:1.0;stroke-linecap:round" />
<line x1="521.0" y1="541.8803" x2="521.0" y2="559.4159" style="stroke:rgb(0.0,0.0,255.0);stroke-width:2.0;opacity:1.0;stroke-linecap:round" />
<line x1="505.0" y1="541.8803" x2="521.0" y2="541.8803" style="stroke:rgb(0.0,0.0,255.0);stroke-width:2.0;opacity:1.0;stroke-linecap:round" />
<line x1="521.0" y1="319.76263" x2="521.0" y2="-9.517029" style="stroke:rgb(164.985,164.985,0.0);stroke-width:2.0;opacity:1.0;stroke-linecap:round" />
<line x1="505.0" y1="319.76263" x2="521.0" y2="319.76263" style="stroke:rgb(164.985,164.985,0.0);stroke-width:2.0;opacity:1.0;stroke-linecap:round" />
<line x1="537.0" y1="559.4159" x2="537.0" y2="581.3354" style="stroke:rgb(0.0,0.0,255.0);stroke-width:2.0;opacity:1.0;stroke-linecap:round" />
<line x1="521.0" y1="559.4159" x2="537.0" y2="559.4159" style="stroke:rgb(0.0,0.0,255.0);stroke-width:2.0;opacity:1.0;stroke-linecap:round" />
<line x1="537.0" y1="274.94943" x2="537.0" y2="-127.882324" style="stroke:rgb(164.985,164.985,0.0);stroke-width:2.0;opacity:1.0;stroke-linecap:round" />
<line x1="521.0" y1="274.94943" x2="537.0" y2="274.94943" style="stroke:rgb(164.985,164.985,0.0);stroke-width:2.0;opacity:1.0;stroke-linecap:round" />
<line x1="553.0" y1="581.3354" x2="553.0" y2="585.7193" style="stroke:rgb(0.0,0.0,255.0);stroke-width:2.0;opacity:1.0;stroke-linecap:round" />
<line x1="537.0" y1="581.3354" x2="553.0" y2="581.3354" style="stroke:rgb(0.0,0.0,255.0);stroke-width:2.0;opacity:1.0;stroke-linecap:round" />
<line x1="553.0" y1="226.72653" x2="553.0" y2="-257.93805" style="stroke:rgb(164.985,164.985,0.0);stroke-width:2.0;opacity:1.0;stroke-linecap:round" />
<line x1="537.0" y1="226.72653" x2="553.0" y2="226.72653" style="stroke:rgb(164.985,164.985,0.0);stroke-width:2.0;opacity:1.0;stroke-linecap:round" />
<line x1="569.0" y1="585.7193" x2="569.0" y2="590.59033" style="stroke:rgb(0.0,0.0,255.0);stroke-width:2.0;opacity:1.0;stroke-linecap:round" />
<line x1="553.0" y1="585.7193" x2="569.0" y2="585.7193" style="stroke:rgb(0.0,0.0,255.0);stroke-width:2.0;opacity:1.0;stroke-linecap:round" />
<line x1="569.0" y1="163.89062" x2="569.0" y2="-322.23523" style="stroke:rgb(164.985,164.985,0.0);stroke-width:2.0;opacity:1.0;stroke-linecap:round" />
<line x1="553.0" y1="163.89062" x2="569.0" y2="163.89062" style="stroke:rgb(164.985,164.985,0.0);stroke-width:2.0;opacity:1.0;stroke-linecap:round" />
<line x1="585.0" y1="590.59033" x2="585.0" y2="591.5645" style="stroke:rgb(0.0,0.0,255.0);stroke-width:2.0;opacity:1.0;stroke-linecap:round" />
<line x1="569.0" y1="590.59033" x2="585.0" y2="590.59033" style="stroke:rgb(0.0,0.0,255.0);stroke-width:2.0;opacity:1.0;stroke-linecap:round" />
<line x1="585.0" y1="134.17749" x2="585.0" y2="-347.56445" style="stroke:rgb(164.985,164.985,0.0);stroke-width:2.0;opacity:1.0;stroke-linecap:round" />
<line x1="569.0" y1="134.17749" x2="585.0" y2="134.17749" style="stroke:rgb(164.985,164.985,0.0);stroke-width:2.0;opacity:1.0;stroke-linecap:round" />
<line x1="601.0" y1="591.5645" x2="601.0" y2="592.5387" style="stroke:rgb(0.0,0.0,255.0);stroke-width:2.0;opacity:1.0;stroke-linecap:round" />
<line x1="585.0" y1="591.5645" x2="601.0" y2="591.5645" style="stroke:rgb(0.0,0.0,255.0);stroke-width:2.0;opacity:1.0;stroke-linecap:round" />
<line x1="601.0" y1="122.0" x2="601.0" y2="-303.72546" style="stroke:rgb(164.985,164.985,0.0);stroke-width:2.0;opacity:1.0;stroke-linecap:round" />
<line x1="585.0" y1="122.0" x2="601.0" y2="122.0" style="stroke:rgb(164.985,164.985,0.0);stroke-width:2.0;opacity:1.0;stroke-linecap:round" />
<line x1="617.0" y1="592.5387" x2="617.0" y2="593.0258" style="stroke:rgb(0.0,0.0,255.0);stroke-width:2.0;opacity:1.0;stroke-linecap:round" />
<line x1="601.0" y1="592.5387" x2="617.0" y2="592.5387" style="stroke:rgb(0.0,0.0,255.0);stroke-width:2.0;opacity:1.0;stroke-linecap:round" />
<line x1="617.0" y1="144.40662" x2="617.0" y2="-242.83801" style="stroke:rgb(164.985,164.985,0.0);stroke-width:2.0;opacity:1.0;stroke-linecap:round" />
<line x1="601.0" y1="144.40662" x2="617.0" y2="144.40662" style="stroke:rgb(164.985,164.985,0.0);stroke-width:2.0;opacity:1.0;stroke-linecap:round" />
<line x1="633.0" y1="593.0258" x2="633.0" y2="594.0" style="stroke:rgb(0.0,0.0,255.0);stroke-width:2.0;opacity:1.0;stroke-linecap:round" />
<line x1="617.0" y1="593.0258" x2="633.0" y2="593.0258" style="stroke:rgb(0.0,0.0,255.0);stroke-width:2.0;opacity:1.0;stroke-linecap:round" />
<line x1="633.0" y1="175.0939" x2="633.0" y2="-163.92773" style="stroke:rgb(164.985,164.985,0.0);stroke-width:2.0;opacity:1.0;stroke-linecap:round" />
<line x1="617.0" y1="175.0939" x2="633.0" y2="175.0939" style="stroke:rgb(164.985,164.985,0.0);stroke-width:2.0;opacity:1.0;stroke-linecap:round" />
<line x1="649.0" y1="594.0" x2="649.0" y2="594.0" style="stroke:rgb(0.0,0.0,255.0);stroke-width:2.0;opacity:1.0;stroke-linecap:round" />
<line x1="633.0" y1="594.0" x2="649.0" y2="594.0" style="stroke:rgb(0.0,0.0,255.0);stroke-width:2.0;opacity:1.0;stroke-linecap:round" />
<line x1="649.0" y1="215.03613" x2="649.0" y2="14.350891" style="stroke:rgb(164.985,164.985,0.0);stroke-width:2.0;opacity:1.0;stroke-linecap:round" />
<line x1="633.0" y1="215.03613" x2="649.0" y2="215.03613" style="stroke:rgb(164.985,164.985,0.0);stroke-width:2.0;opacity:1.0;stroke-linecap:round" />
<line x1="665.0" y1="594.0" x2="665.0" y2="594.0" style="stroke:rgb(0.0,0.0,255.0);stroke-width:2.0;opacity:1.0;stroke-linecap:round" />
<line x1="649.0" y1="594.0" x2="665.0" y2="594.0" style="stroke:rgb(0.0,0.0,255.0);stroke-width:2.0;opacity:1.0;stroke-linecap:round" />
<line x1="665.0" y1="304.17545" x2="665.0" y2="133.20331" style="stroke:rgb(164.985,164.985,0.0);stroke-width:2.0;opacity:1.0;stroke-linecap:round" />
<line x1="649.0" y1="304.17545" x2="665.0" y2="304.17545" style="stroke:rgb(164.985,164.985,0.0);stroke-width:2.0;opacity:1.0;stroke-linecap:round" />
<line x1="681.0" y1="594.0" x2="681.0" y2="594.0" style="stroke:rgb(0.0,0.0,255.0);stroke-width:2.0;opacity:1.0;stroke-linecap:round" />
<line x1="665.0" y1="594.0" x2="681.0" y2="594.0" style="stroke:rgb(0.0,0.0,255.0);stroke-width:2.0;opacity:1.0;stroke-linecap:round" />
<line x1="681.0" y1="363.60165" x2="681.0" y2="261.79773" style="stroke:rgb(164.985,164.985,0.0);stroke-width:2.0;opacity:1.0;stroke-linecap:round" />
<line x1="665.0" y1="363.60165" x2="681.0" y2="363.60165" style="stroke:rgb(164.985,164.985,0.0);stroke-width:2.0;opacity:1.0;stroke-linecap:round" />
<line x1="697.0" y1="594.0" x2="697.0" y2="594.0" style="stroke:rgb(0.0,0.0,255.0);stroke-width:2.0;opacity:1.0;stroke-linecap:round" />
<line x1="681.0" y1="594.0" x2="697.0" y2="594.0" style="stroke:rgb(0.0,0.0,255.0);stroke-width:2.0;opacity:1.0;stroke-linecap:round" />
<line x1="697.0" y1="427.89886" x2="697.0" y2="359.21777" style="stroke:rgb(164.985,164.985,0.0);stroke-width:2.0;opacity:1.0;stroke-linecap:round" />
<line x1="681.0" y1="427.89886" x2="697.0" y2="427.89886" style="stroke:rgb(164.985,164.985,0.0);stroke-width:2.0;opacity:1.0;stroke-linecap:round" />
<line x1="713.0" y1="594.0" x2="713.0" y2="594.0" style="stroke:rgb(0.0,0.0,255.0);stroke-width:2.0;opacity:1.0;stroke-linecap:round" />
<line x1="697.0" y1="594.0" x2="713.0" y2="594.0" style="stroke:rgb(0.0,0.0,255.0);stroke-width:2.0;opacity:1.0;stroke-linecap:round" />
<line x1="713.0" y1="476.6089" x2="713.0" y2="466.37976" style="stroke:rgb(164.985,164.985,0.0);stroke-width:2.0;opacity:1.0;stroke-linecap:round" />
<line x1="697.0" y1="476.6089" x2="713.0" y2="476.6089" style="stroke:rgb(164.985,164.985,0.0);stroke-width:2.0;opacity:1.0;stroke-linecap:round" />
<line x1="729.0" y1="594.0" x2="729.0" y2="594.0" style="stroke:rgb(0.0,0.0,255.0);stroke-width:2.0;opacity:1.0;stroke-linecap:round" />
<line x1="713.0" y1="594.0" x2="729.0" y2="594.0" style="stroke:rgb(0.0,0.0,255.0);stroke-width:2.0;opacity:1.0;stroke-linecap:round" />
<line x1="729.0" y1="530.1899" x2="729.0" y2="486.83798" style="stroke:rgb(164.985,164.985,0.0);stroke-width:2.0;opacity:1.0;stroke-linecap:round" />
<line x1="713.0" y1="530.1899" x2="729.0" y2="530.1899" style="stroke:rgb(164.985,164.985,0.0);stroke-width:2.0;opacity:1.0;stroke-linecap:round" />
<line x1="745.0" y1="594.0" x2="745.0" y2="594.0" style="stroke:rgb(0.0,0.0,255.0);stroke-width:2.0;opacity:1.0;stroke-linecap:round" />
<line x1="729.0" y1="594.0" x2="745.0" y2="594.0" style="stroke:rgb(0.0,0.0,255.0);stroke-width:2.0;opacity:1.0;stroke-linecap:round" />
<line x1="745.0" y1="540.419" x2="745.0" y2="554.0578" style="stroke:rgb(164.985,164.985,0.0);stroke-width:2.0;opacity:1.0;stroke-linecap:round" />
<line x1="729.0" y1="540.419" x2="745.0" y2="540.419" style="stroke:rgb(164.985,164.985,0.0);stroke-width:2.0;opacity:1.0;stroke-linecap:round" />
<line x1="761.0" y1="594.0" x2="761.0" y2="594.0" style="stroke:rgb(0.0,0.0,255.0);stroke-width:2.0;opacity:1.0;stroke-linecap:round" />
<line x1="745.0" y1="594.0" x2="761.0" y2="594.0" style="stroke:rgb(0.0,0.0,255.0);stroke-width:2.0;opacity:1.0;stroke-linecap:round" />
<line x1="761.0" y1="574.02893" x2="761.0" y2="564.774" style="stroke:rgb(164.985,164.985,0.0);stroke-width:2.0;opacity:1.0;stroke-linecap:round" />
<line x1="745.0" y1="574.02893" x2="761.0" y2="574.02893" style="stroke:rgb(164.985,164.985,0.0);stroke-width:2.0;opacity:1.0;stroke-linecap:round" />
<line x1="777.0" y1="594.0" x2="777.0" y2="594.0" style="stroke:rgb(0.0,0.0,255.0);stroke-width:2.0;opacity:1.0;stroke-linecap:round" />
<line x1="761.0" y1="594.0" x2="777.0" y2="594.0" style="stroke:rgb(0.0,0.0,255.0);stroke-width:2.0;opacity:1.0;stroke-linecap:round" />
<line x1="777.0" y1="579.38696" x2="777.0" y2="585.2322" style="stroke:rgb(164.985,164.985,0.0);stroke-width:2.0;opacity:1.0;stroke-linecap:round" />
<line x1="761.0" y1="579.38696" x2="777.0" y2="579.38696" style="stroke:rgb(164.985,164.985,0.0);stroke-width:2.0;opacity:1.0;stroke-linecap:round" />
<line x1="793.0" y1="594.0" x2="793.0" y2="594.0" style="stroke:rgb(0.0,0.0,255.0);stroke-width:2.0;opacity:1.0;stroke-linecap:round" />
<line x1="777.0" y1="594.0" x2="793.0" y2="594.0" style="stroke:rgb(0.0,0.0,255.0);stroke-width:2.0;opacity:1.0;stroke-linecap:round" />
<line x1="793.0" y1="589.6161" x2="793.0" y2="591.0774" style="stroke:rgb(164.985,164.985,0.0);stroke-width:2.0;opacity:1.0;stroke-linecap:round" />
<line x1="777.0" y1="589.6161" x2="793.0" y2="589.6161" style="stroke:rgb(164.985,164.985,0.0);stroke-width:2.0;opacity:1.0;stroke-linecap:round" />
<line x1="809.0" y1="594.0" x2="809.0" y2="594.0" style="stroke:rgb(0.0,0.0,255.0);stroke-width:2.0;opacity:1.0;stroke-linecap:round" />
<line x1="793.0" y1="594.0" x2="809.0" y2="594.0" style="stroke:rgb(0.0,0.0,255.0);stroke-width:2.0;opacity:1.0;stroke-linecap:round" />
<line x1="809.0" y1="592.5387" x2="809.0" y2="585.2322" style="stroke:rgb(164.985,164.985,0.0);stroke-width:2.0;opacity:1.0;stroke-linecap:round" />
<line x1="793.0" y1="592.5387" x2="809.0" y2="592.5387" style="stroke:rgb(164.985,164.985,0.0);stroke-width:2.0;opacity:1.0;stroke-linecap:round" />
<line x1="825.0" y1="594.0" x2="825.0" y2="594.0" style="stroke:rgb(0.0,0.0,255.0);stroke-width:2.0;opacity:1.0;stroke-linecap:round" />
<line x1="809.0" y1="594.0" x2="825.0" y2="594.0" style="stroke:rgb(0.0,0.0,255.0);stroke-width:2.0;opacity:1.0;stroke-linecap:round" />
<line x1="825.0" y1="589.6161" x2="825.0" y2="592.0516" style="stroke:rgb(164.985,164.985,0.0);stroke-width:2.0;opacity:1.0;stroke-linecap:round" />
<line x1="809.0" y1="589.6161" x2="825.0" y2="589.6161" style="stroke:rgb(164.985,164.985,0.0);stroke-width:2.0;opacity:1.0;stroke-linecap:round" />
<line x1="841.0" y1="594.0" x2="841.0" y2="594.0" style="stroke:rgb(0.0,0.0,255.0);stroke-width:2.0;opacity:1.0;stroke-linecap:round" />
<line x1="825.0" y1="594.0" x2="841.0" y2="594.0" style="stroke:rgb(0.0,0.0,255.0);stroke-width:2.0;opacity:1.0;stroke-linecap:round" />
<line x1="841.0" y1="593.0258" x2="841.0" y2="592.0516" style="stroke:rgb(164.985,164.985,0.0);stroke-width:2.0;opacity:1.0;stroke-linecap:round" />
<line x1="825.0" y1="593.0258" x2="841.0" y2="593.0258" style="stroke:rgb(164.985,164.985,0.0);stroke-width:2.0;opacity:1.0;stroke-linecap:round" />
<line x1="857.0" y1="594.0" x2="857.0" y2="594.0" style="stroke:rgb(0.0,0.0,255.0);stroke-width:2.0;opacity:1.0;stroke-linecap:round" />
<line x1="841.0" y1="594.0" x2="857.0" y2="594.0" style="stroke:rgb(0.0,0.0,255.0);stroke-width:2.0;opacity:1.0;stroke-linecap:round" />
<line x1="857.0" y1="593.0258" x2="857.0" y2="593.0258" style="stroke:rgb(164.985,164.985,0.0);stroke-width:2.0;opacity:1.0;stroke-linecap:round" />
<line x1="841.0" y1="593.0258" x2="857.0" y2="593.0258" style="stroke:rgb(164.985,164.985,0.0);stroke-width:2.0;opacity:1.0;stroke-linecap:round" />
<line x1="873.0" y1="594.0" x2="873.0" y2="594.0" style="stroke:rgb(0.0,0.0,255.0);stroke-width:2.0;opacity:1.0;stroke-linecap:round" />
<line x1="857.0" y1="594.0" x2="873.0" y2="594.0" style="stroke:rgb(0.0,0.0,255.0);stroke-width:2.0;opacity:1.0;stroke-linecap:round" />
<line x1="873.0" y1="593.5129" x2="873.0" y2="594.0" style="stroke:rgb(164.985,164.985,0.0);stroke-width:2.0;opacity:1.0;stroke-linecap:round" />
<line x1="857.0" y1="593.5129" x2="873.0" y2="593.5129" style="stroke:rgb(164.985,164.985,0.0);stroke-width:2.0;opacity:1.0;stroke-linecap:round" />
<line x1="889.0" y1="594.0" x2="889.0" y2="594.0" style="stroke:rgb(0.0,0.0,255.0);stroke-width:2.0;opacity:1.0;stroke-linecap:round" />
<line x1="873.0" y1="594.0" x2="889.0" y2="594.0" style="stroke:rgb(0.0,0.0,255.0);stroke-width:2.0;opacity:1.0;stroke-linecap:round" />
<line x1="889.0" y1="594.0" x2="889.0" y2="594.0" style="stroke:rgb(164.985,164.985,0.0);stroke-width:2.0;opacity:1.0;stroke-linecap:round" />
<line x1="873.0" y1="594.0" x2="889.0" y2="594.0" style="stroke:rgb(164.985,164.985,0.0);stroke-width:2.0;opacity:1.0;stroke-linecap:round" />
<line x1="889.0" y1="594.0" x2="905.0" y2="594.0" style="stroke:rgb(0.0,0.0,255.0);stroke-width:2.0;opacity:1.0;stroke-linecap:round" />
<line x1="889.0" y1="594.0" x2="905.0" y2="594.0" style="stroke:rgb(164.985,164.985,0.0);stroke-width:2.0;opacity:1.0;stroke-linecap:round" />
<line x1="905.0" y1="594.0" x2="905.0" y2="594.0" style="stroke:rgb(0.0,0.0,255.0);stroke-width:2.0;opacity:1.0;stroke-linecap:round" />
<line x1="905.0" y1="594.0" x2="905.0" y2="594.0" style="stroke:rgb(164.985,164.985,0.0);stroke-width:2.0;opacity:1.0;stroke-linecap:round" />
<text x="459.825" y="58.5" stroke="#000000" stroke-width="1.2" transform="rotate(-0.0,459.825,58.5)">HISTOGRAM</text>
<text x="476.8" y="630.4" stroke="#000000" stroke-width="1.2" transform="rotate(-0.0,476.8,630.4)">X-AXIS</text>
<text x="50.0" y="376.6" stroke="#000000" stroke-width="1.2" transform="rotate(-90.0,50.0,376.6)">Y-AXIS</text>
<rect x="120.0" y="86.0" width="67.880005" height="40.0" style="fill:rgb(255.0,255.0,255.0);stroke-width:2.0;stroke:rgb(0.0,0.0,0.0);opacity:0.7" />
<rect x="128.0" y="94.0" width="8.0" height="8.0" style="fill:rgb(0.0,0.0,255.0);stroke-width:0;stroke:rgb(0,0,0);opacity:1.0" />
<text x="144.0" y="102.0" stroke="#000000" stroke-width="1.2" transform="rotate(-0.0,144.0,102.0)">Plot 1</text>
<rect x="128.0" y="110.0" width="8.0" height="8.0" style="fill:rgb(164.985,164.985,0.0);stroke-width:0;stroke:rgb(0,0,0);opacity:1.0" />
<text x="144.0" y="118.0" stroke="#000000" stroke-width="1.2" transform="rotate(-0.0,144.0,118.0)">Plot 2</text>
</svg>