<svg height="660.0" width="1000.0" version="4.0" xmlns="http://www.w3.org/2000/svg" xmlns:xlink= "http://www.w3.org/1999/xlink">
<rect width="100%" height="100%" fill="white"/>
<rect x="100.0" y="66.0" width="800.0" height="528.0" style="fill:rgb(255,255,255);stroke-width:2.0;stroke:rgb(0,0,0);opacity:1" />
<line x1="105.0" y1="597.0" x2="105.0" y2="594.0" style="stroke:rgb(0.0,0.0,0.0);stroke-width:2.0;opacity:1.0;stroke-linecap:round" />
<text x="82.14" y="610.0" stroke="#000000" stroke-width="0.7" transform="rotate(-0.0,82.14,610.0)">30.0</text>
<line x1="165.76923" y1="597.0" x2="165.76923" y2="594.0" style="stroke:rgb(0.0,0.0,0.0);stroke-width:2.0;opacity:1.0;stroke-linecap:round" />
<text x="142.90923" y="610.0" stroke="#000000" stroke-width="0.7" transform="rotate(-0.0,142.90923,610.0)">40.0</text>
<line x1="226.53845" y1="597.0" x2="226.53845" y2="594.0" style="stroke:rgb(0.0,0.0,0.0);stroke-width:2.0;opacity:1.0;stroke-linecap:round" />
<text x="203.67847" y="610.0" stroke="#000000" stroke-width="0.7" transform="rotate(-0.0,203.67847,610.0)">50.0</text>
<line x1="287.30768" y1="597.0" x2="287.30768" y2="594.0" style="stroke:rgb(0.0,0.0,0.0);stroke-width:2.0;opacity:1.0;stroke-linecap:round" />
<text x="264.4477" y="610.0" stroke="#000000" stroke-width="0.7" transform="rotate(-0.0,264.4477,610.0)">60.0</text>
<line x1="348.0769" y1="597.0" x2="348.0769" y2="594.0" style="stroke:rgb(0.0,0.0,0.0);stroke-width:2.0;opacity:1.0;stroke-linecap:round" />
<text x="325.21692" y="610.0" stroke="#000000" stroke-width="0.7" transform="rotate(-0.0,325.21692,610.0)">70.0</text>
<line x1="408.84613" y1="597.0" x2="408.84613" y2="594.0" style="stroke:rgb(0.0,0.0,0.0);stroke-width:2.0;opacity:1.0;stroke-linecap:round" />
<text x="385.98615" y="610.0" stroke="#000000" stroke-width="0.7" transform="rotate(-0.0,385.98615,610.0)">80.0</text>
<line x1="469.6154" y1="597.0" x2="469.6154" y2="594.0" style="stroke:rgb(0.0,0.0,0.0);stroke-width:2.0;opacity:1.0;stroke-linecap:round" />
<text x="446.75537" y="610.0" stroke="#000000" stroke-width="0.7" transform="rotate(-0.0,446.75537,610.0)">90.0</text>
<line x1="530.38464" y1="597.0" x2="530.38464" y2="594.0" style="stroke:rgb(0.0,0.0,0.0);stroke-width:2.0;opacity:1.0;stroke-linecap:round" />
<text x="506.4046" y="610.0" stroke="#000000" stroke-width="0.7" transform="rotate(-0.0,506.4046,610.0)">100.0</text>
<line x1="591.1538" y1="597.0" x2="591.1538" y2="594.0" style="stroke:rgb(0.0,0.0,0.0);stroke-width:2.0;opacity:1.0;stroke-linecap:round" />
<text x="567.49384" y="610.0" stroke="#000000" stroke-width="0.7" transform="rotate(-0.0,567.49384,610.0)">110.0</text>
<line x1="651.92303" y1="597.0" x2="651.92303" y2="594.0" style="stroke:rgb(0.0,0.0,0.0);stroke-width:2.0;opacity:1.0;stroke-linecap:round" />
<text x="627.94305" y="610.0" stroke="#000000" stroke-width="0.7" transform="rotate(-0.0,627.94305,610.0)">120.0</text>
<line x1="712.69226" y1="597.0" x2="712.69226" y2="594.0" style="stroke:rgb(0.0,0.0,0.0);stroke-width:2.0;opacity:1.0;stroke-linecap:round" />
<text x="688.7123" y="610.0" stroke="#000000" stroke-width="0.7" transform="rotate(-0.0,688.7123,610.0)">130.0</text>
<line x1="773.46155" y1="597.0" x2="773.46155" y2="594.0" style="stroke:rgb(0.0,0.0,0.0);stroke-width:2.0;opacity:1.0;stroke-linecap:round" />
<text x="749.48157" y="610.0" stroke="#000000" stroke-width="0.7" transform="rotate(-0.0,749.48157,610.0)">140.0</text>
<line x1="834.2308" y1="597.0" x2="834.2308" y2="594.0" style="stroke:rgb(0.0,0.0,0.0);stroke-width:2.0;opacity:1.0;stroke-linecap:round" />
<text x="810.2508" y="610.0" stroke="#000000" stroke-width="0.7" transform="rotate(-0.0,810.2508,610.0)">150.0</text>
<line x1="895.0" y1="597.0" x2="895.0" y2="594.0" style="stroke:rgb(0.0,0.0,0.0);stroke-width:2.0;opacity:1.0;stroke-linecap:round" />
<text x="871.02" y="610.0" stroke="#000000" stroke-width="0.7" transform="rotate(-0.0,871.02,610.0)">160.0</text>
<line x1="97.0" y1="594.0" x2="100.0" y2="594.0" style="stroke:rgb(0.0,0.0,0.0);stroke-width:2.0;opacity:1.0;stroke-linecap:round" />
<text x="62.16" y="598.0" stroke="#000000" stroke-width="0.7" transform="rotate(-0.0,62.16,598.0)">0.0</text>
<line x1="97.0" y1="526.9545" x2="100.0" y2="526.9545" style="stroke:rgb(0.0,0.0,0.0);stroke-width:2.0;opacity:1.0;stroke-linecap:round" />
<text x="57.04" y="530.9545" stroke="#000000" stroke-width="0.7" transform="rotate(-0.0,57.04,530.9545)">100.0</text>
<line x1="97.0" y1="459.9091" x2="100.0" y2="459.9091" style="stroke:rgb(0.0,0.0,0.0);stroke-width:2.0;opacity:1.0;stroke-linecap:round" />
<text x="56.4" y="463.90906" stroke="#000000" stroke-width="0.7" transform="rotate(-0.0,56.4,463.90906)">200.0</text>
<line x1="97.0" y1="392.86365" x2="100.0" y2="392.86365" style="stroke:rgb(0.0,0.0,0.0);stroke-width:2.0;opacity:1.0;stroke-linecap:round" />
<text x="56.4" y="396.86365" stroke="#000000" stroke-width="0.7" transform="rotate(-0.0,56.4,396.86365)">300.0</text>
<line x1="97.0" y1="325.81818" x2="100.0" y2="325.81818" style="stroke:rgb(0.0,0.0,0.0);stroke-width:2.0;opacity:1.0;stroke-linecap:round" />
<text x="56.4" y="329.81818" stroke="#000000" stroke-width="0.7" transform="rotate(-0.0,56.4,329.81818)">400.0</text>
<line x1="97.0" y1="258.7727" x2="100.0" y2="258.7727" style="stroke:rgb(0.0,0.0,0.0);stroke-width:2.0;opacity:1.0;stroke-linecap:round" />
<text x="56.4" y="262.7727" stroke="#000000" stroke-width="0.7" transform="rotate(-0.0,56.4,262.7727)">500.0</text>
<line x1="97.0" y1="191.72723" x2="100.0" y2="191.72723" style="stroke:rgb(0.0,0.0,0.0);stroke-width:2.0;opacity:1.0;stroke-linecap:round" />
<text x="56.4" y="195.72723" stroke="#000000" stroke-width="0.7" transform="rotate(-0.0,56.4,195.72723)">600.0</text>
<line x1="97.0" y1="124.68176" x2="100.0" y2="124.68176" style="stroke:rgb(0.0,0.0,0.0);stroke-width:2.0;opacity:1.0;stroke-linecap:round" />
<text x="56.4" y="128.68176" stroke="#000000" stroke-width="0.7" transform="rotate(-0.0,56.4,128.68176)">700.0</text>
<rect x="105.0" y="594.0" width="16.0" height="0.0" style="fill:rgb(0.0,0.0,255.0);stroke-width:0;stroke:rgb(0,0,0);opacity:1.0" />
<rect x="121.0" y="593.3295" width="16.0" height="0.67045456" style="fill:rgb(0.0,0.0,255.0);stroke-width:0;stroke:rgb(0,0,0);opacity:1.0" />
<rect x="137.0" y="594.0" width="16.0" height="0.0" style="fill:rgb(0.0,0.0,255.0);stroke-width:0;stroke:rgb(0,0,0);opacity:1.0" />
<rect x="153.0" y="594.0" width="16.0" height="0.0" style="fill:rgb(0.0,0.0,255.0);stroke-width:0;stroke:rgb(0,0,0);opacity:1.0" />
<rect x="169.0" y="594.0" width="16.0" height="0.0" style="fill:rgb(0.0,0.0,255.0);stroke-width:0;stroke:rgb(0,0,0);opacity:1.0" />
<rect x="185.0" y="593.3295" width="16.0" height="0.67045456" style="fill:rgb(0.0,0.0,255.0);stroke-width:0;stroke:rgb(0,0,0);opacity:1.0" />
<rect x="201.0" y="594.0" width="16.0" height="0.0" style="fill:rgb(0.0,0.0,255.0);stroke-width:0;stroke:rgb(0,0,0);opacity:1.0" />
<rect x="217.0" y="593.3295" width="16.0" height="0.67045456" style="fill:rgb(0.0,0.0,255.0);stroke-width:0;stroke:rgb(0,0,0);opacity:1.0" />
<rect x="233.0" y="590.6477" width="16.0" height="3.3522727" style="fill:rgb(0.0,0.0,255.0);stroke-width:0;stroke:rgb(0,0,0);opacity:1.0" />
<rect x="249.0" y="588.63635" width="16.0" height="5.3636365" style="fill:rgb(0.0,0.0,255.0);stroke-width:0;stroke:rgb(0,0,0);opacity:1.0" />
<rect x="265.0" y="584.61365" width="16.0" height="9.386364" style="fill:rgb(0.0,0.0,255.0);stroke-width:0;stroke:rgb(0,0,0);opacity:1.0" />
<rect x="281.0" y="580.59094" width="16.0" height="13.409091" style="fill:rgb(0.0,0.0,255.0);stroke-width:0;stroke:rgb(0,0,0);opacity:1.0" />
<rect x="297.0" y="575.8977" width="16.0" height="18.102274" style="fill:rgb(0.0,0.0,255.0);stroke-width:0;stroke:rgb(0,0,0);opacity:1.0" />
<rect x="313.0" y="561.1477" width="16.0" height="32.852272" style="fill:rgb(0.0,0.0,255.0);stroke-width:0;stroke:rgb(0,0,0);opacity:1.0" />
<rect x="329.0" y="557.7955" width="16.0" height="36.204548" style="fill:rgb(0.0,0.0,255.0);stroke-width:0;stroke:rgb(0,0,0);opacity:1.0" />
<rect x="345.0" y="531.6477" width="16.0" height="62.352276" style="fill:rgb(0.0,0.0,255.0);stroke-width:0;stroke:rgb(0,0,0);opacity:1.0" />
<rect x="361.0" y="499.4659" width="16.0" height="94.534096" style="fill:rgb(0.0,0.0,255.0);stroke-width:0;stroke:rgb(0,0,0);opacity:1.0" />
<rect x="377.0" y="482.0341" width="16.0" height="111.96591" style="fill:rgb(0.0,0.0,255.0);stroke-width:0;stroke:rgb(0,0,0);opacity:1.0" />
<rect x="393.0" y="425.7159" width="16.0" height="168.28409" style="fill:rgb(0.0,0.0,255.0);stroke-width:0;stroke:rgb(0,0,0);opacity:1.0" />
<rect x="409.0" y="382.13635" width="16.0" height="211.86365" style="fill:rgb(0.0,0.0,255.0);stroke-width:0;stroke:rgb(0,0,0);opacity:1.0" />
<rect x="425.0" y="350.625" width="16.0" height="243.375" style="fill:rgb(0.0,0.0,255.0);stroke-width:0;stroke:rgb(0,0,0);opacity:1.0" />
<rect x="441.0" y="298.32953" width="16.0" height="295.67047" style="fill:rgb(0.0,0.0,255.0);stroke-width:0;stroke:rgb(0,0,0);opacity:1.0" />
<rect x="457.0" y="246.03409" width="16.0" height="347.9659" style="fill:rgb(0.0,0.0,255.0);stroke-width:0;stroke:rgb(0,0,0);opacity:1.0" />
<rect x="473.0" y="202.45453" width="16.0" height="391.54547" style="fill:rgb(0.0,0.0,255.0);stroke-width:0;stroke:rgb(0,0,0);opacity:1.0" />
<rect x="489.0" y="190.38635" width="16.0" height="403.61365" style="fill:rgb(0.0,0.0,255.0);stroke-width:0;stroke:rgb(0,0,0);opacity:1.0" />
<rect x="505.0" y="135.40906" width="16.0" height="458.5909" style="fill:rgb(0.0,0.0,255.0);stroke-width:0;stroke:rgb(0,0,0);opacity:1.0" />
<rect x="521.0" y="122.0" width="16.0" height="472.0" style="fill:rgb(0.0,0.0,255.0);stroke-width:0;stroke:rgb(0,0,0);opacity:1.0" />
<rect x="537.0" y="144.79541" width="16.0" height="449.20456" style="fill:rgb(0.0,0.0,255.0);stroke-width:0;stroke:rgb(0,0,0);opacity:1.0" />
<rect x="553.0" y="143.45453" width="16.0" height="450.54547" style="fill:rgb(0.0,0.0,255.0);stroke-width:0;stroke:rgb(0,0,0);opacity:1.0" />
<rect x="569.0" y="191.0568" width="16.0" height="402.9432" style="fill:rgb(0.0,0.0,255.0);stroke-width:0;stroke:rgb(0,0,0);opacity:1.0" />
<rect x="585.0" y="206.47726" width="16.0" height="387.52274" style="fill:rgb(0.0,0.0,255.0);stroke-width:0;stroke:rgb(0,0,0);opacity:1.0" />
<rect x="601.0" y="253.40909" width="16.0" height="340.5909" style="fill:rgb(0.0,0.0,255.0);stroke-width:0;stroke:rgb(0,0,0);opacity:1.0" />
<rect x="617.0" y="283.57953" width="16.0" height="310.42047" style="fill:rgb(0.0,0.0,255.0);stroke-width:0;stroke:rgb(0,0,0);opacity:1.0" />
<rect x="633.0" y="378.7841" width="16.0" height="215.21591" style="fill:rgb(0.0,0.0,255.0);stroke-width:0;stroke:rgb(0,0,0);opacity:1.0" />
<rect x="649.0" y="378.7841" width="16.0" height="215.21591" style="fill:rgb(0.0,0.0,255.0);stroke-width:0;stroke:rgb(0,0,0);opacity:1.0" />
<rect x="665.0" y="431.07953" width="16.0" height="162.92046" style="fill:rgb(0.0,0.0,255.0);stroke-width:0;stroke:rgb(0,0,0);opacity:1.0" />
<rect x="681.0" y="481.36365" width="16.0" height="112.63637" style="fill:rgb(0.0,0.0,255.0);stroke-width:0;stroke:rgb(0,0,0);opacity:1.0" />
<rect x="697.0" y="499.4659" width="16.0" height="94.534096" style="fill:rgb(0.0,0.0,255.0);stroke-width:0;stroke:rgb(0,0,0);opacity:1.0" />
<rect x="713.0" y="537.6818" width="16.0" height="56.318184" style="fill:rgb(0.0,0.0,255.0);stroke-width:0;stroke:rgb(0,0,0);opacity:1.0" />
<rect x="729.0" y="549.75" width="16.0" height="44.25" style="fill:rgb(0.0,0.0,255.0);stroke-width:0;stroke:rgb(0,0,0);opacity:1.0" />
<rect x="745.0" y="566.51135" width="16.0" height="27.488638" style="fill:rgb(0.0,0.0,255.0);stroke-width:0;stroke:rgb(0,0,0);opacity:1.0" />
<rect x="761.0" y="577.23865" width="16.0" height="16.761364" style="fill:rgb(0.0,0.0,255.0);stroke-width:0;stroke:rgb(0,0,0);opacity:1.0" />
<rect x="777.0" y="580.59094" width="16.0" height="13.409091" style="fill:rgb(0.0,0.0,255.0);stroke-width:0;stroke:rgb(0,0,0);opacity:1.0" />
<rect x="793.0" y="585.28406" width="16.0" height="8.715909" style="fill:rgb(0.0,0.0,255.0);stroke-width:0;stroke:rgb(0,0,0);opacity:1.0" />
<rect x="809.0" y="588.63635" width="16.0" height="5.3636365" style="fill:rgb(0.0,0.0,255.0);stroke-width:0;stroke:rgb(0,0,0);opacity:1.0" />
<rect x="825.0" y="590.6477" width="16.0" height="3.3522727" style="fill:rgb(0.0,0.0,255.0);stroke-width:0;stroke:rgb(0,0,0);opacity:1.0" />
<rect x="841.0" y="590.6477" width="16.0" height="3.3522727" style="fill:rgb(0.0,0.0,255.0);stroke-width:0;stroke:rgb(0,0,0);opacity:1.0" />
<rect x="857.0" y="592.65906" width="16.0" height="1.3409091" style="fill:rgb(0.0,0.0,255.0);stroke-width:0;stroke:rgb(0,0,0);opacity:1.0" />
<rect x="873.0" y="594.0" width="16.0" height="0.0" style="fill:rgb(0.0,0.0,255.0);stroke-width:0;stroke:rgb(0,0,0);opacity:1.0" />
<rect x="889.0" y="594.0" width="16.0" height="0.0" style="fill:rgb(0.0,0.0,255.0);stroke-width:0;stroke:rgb(0,0,0);opacity:1.0" />
<text x="459.825" y="58.5" stroke="#000000" stroke-width="1.2" transform="rotate(-0.0,459.825,58.5)">HISTOGRAM</text>
<text x="485.65" y="630.4" stroke="#000000" stroke-width="1.2" transform="rotate(-0.0,485.65,630.4)">X</text>
<text x="50.0" y="390.1" stroke="#000000" stroke-width="1.2" transform="rotate(-90.0,50.0,390.1)">Frequency</text>
<rect x="120.0" y="86.0" width="67.23999" height="24.0" style="fill:rgb(255.0,255.0,255.0);stroke-width:2.0;stroke:rgb(0.0,0.0,0.0);opacity:0.7" />
<rect x="128.0" y="94.0" width="8.0" height="8.0" style="fill:rgb(0.0,0.0,255.0);stroke-width:0;stroke:rgb(0,0,0);opacity:1.0" />
<text x="144.0" y="102.0" stroke="#000000" stroke-width="1.2" transform="rotate(-0.0,144.0,102.0)">Plot 1</text>
</svg>