<svg height="660.0" width="1000.0" version="4.0" xmlns="http://www.w3.org/2000/svg" xmlns:xlink= "http://www.w3.org/1999/xlink">
<rect width="100%" height="100%" fill="white"/>
<defs><style>@import url("https://fonts.googleapis.com/css?family=Roboto);</style></defs>
<line x1="105.0" y1="594.0" x2="105.0" y2="66.0" style="stroke:rgb(127.5,127.5,127.5);stroke-width:0.5;opacity:1.0;stroke-linecap:round" />
<line x1="170.83334" y1="594.0" x2="170.83334" y2="66.0" style="stroke:rgb(127.5,127.5,127.5);stroke-width:0.5;opacity:1.0;stroke-linecap:round" />
<line x1="236.66667" y1="594.0" x2="236.66667" y2="66.0" style="stroke:rgb(127.5,127.5,127.5);stroke-width:0.5;opacity:1.0;stroke-linecap:round" />
<line x1="302.5" y1="594.0" x2="302.5" y2="66.0" style="stroke:rgb(127.5,127.5,127.5);stroke-width:0.5;opacity:1.0;stroke-linecap:round" />
<line x1="368.33334" y1="594.0" x2="368.33334" y2="66.0" style="stroke:rgb(127.5,127.5,127.5);stroke-width:0.5;opacity:1.0;stroke-linecap:round" />
<line x1="434.1667" y1="594.0" x2="434.1667" y2="66.0" style="stroke:rgb(127.5,127.5,127.5);stroke-width:0.5;opacity:1.0;stroke-linecap:round" />
<line x1="500.0" y1="594.0" x2="500.0" y2="66.0" style="stroke:rgb(127.5,127.5,127.5);stroke-width:0.5;opacity:1.0;stroke-linecap:round" />
<line x1="565.8334" y1="594.0" x2="565.8334" y2="66.0" style="stroke:rgb(127.5,127.5,127.5);stroke-width:0.5;opacity:1.0;stroke-linecap:round" />
<line x1="631.6667" y1="594.0" x2="631.6667" y2="66.0" style="stroke:rgb(127.5,127.5,127.5);stroke-width:0.5;opacity:1.0;stroke-linecap:round" />
<line x1="697.5" y1="594.0" x2="697.5" y2="66.0" style="stroke:rgb(127.5,127.5,127.5);stroke-width:0.5;opacity:1.0;stroke-linecap:round" />
<line x1="763.3334" y1="594.0" x2="763.3334" y2="66.0" style="stroke:rgb(127.5,127.5,127.5);stroke-width:0.5;opacity:1.0;stroke-linecap:round" />
<line x1="829.1667" y1="594.0" x2="829.1667" y2="66.0" style="stroke:rgb(127.5,127.5,127.5);stroke-width:0.5;opacity:1.0;stroke-linecap:round" />
<line x1="895.0" y1="594.0" x2="895.0" y2="66.0" style="stroke:rgb(127.5,127.5,127.5);stroke-width:0.5;opacity:1.0;stroke-linecap:round" />
<line x1="100.0" y1="594.0" x2="900.0" y2="594.0" style="stroke:rgb(127.5,127.5,127.5);stroke-width:0.5;opacity:1.0;stroke-linecap:round" />
<line x1="100.0" y1="523.23535" x2="900.0" y2="523.23535" style="stroke:rgb(127.5,127.5,127.5);stroke-width:0.5;opacity:1.0;stroke-linecap:round" />
<line x1="100.0" y1="452.47076" x2="900.0" y2="452.47076" style="stroke:rgb(127.5,127.5,127.5);stroke-width:0.5;opacity:1.0;stroke-linecap:round" />
<line x1="100.0" y1="381.70615" x2="900.0" y2="381.70615" style="stroke:rgb(127.5,127.5,127.5);stroke-width:0.5;opacity:1.0;stroke-linecap:round" />
<line x1="100.0" y1="310.94153" x2="900.0" y2="310.94153" style="stroke:rgb(127.5,127.5,127.5);stroke-width:0.5;opacity:1.0;stroke-linecap:round" />
<line x1="100.0" y1="240.17691" x2="900.0" y2="240.17691" style="stroke:rgb(127.5,127.5,127.5);stroke-width:0.5;opacity:1.0;stroke-linecap:round" />
<line x1="100.0" y1="169.4123" x2="900.0" y2="169.4123" style="stroke:rgb(127.5,127.5,127.5);stroke-width:0.5;opacity:1.0;stroke-linecap:round" />
<line x1="100.0" y1="98.647705" x2="900.0" y2="98.647705" style="stroke:rgb(127.5,127.5,127.5);stroke-width:0.5;opacity:1.0;stroke-linecap:round" />
<rect x="100.0" y="66.0" width="800.0" height="528.0" style="fill:rgb(255,255,255);stroke-width:2.0;stroke:rgb(0,0,0);opacity:1;fill-opacity:0;" />
<line x1="105.0" y1="600.0" x2="105.0" y2="594.0" style="stroke:rgb(0.0,0.0,0.0);stroke-width:2.0;opacity:1.0;stroke-linecap:round" />
<text font-size="12.0" font-family="Roboto" x="79.46" y="618.0" stroke="#000000" stroke-width="0.175" transform="rotate(-0.0,79.46,618.0)">40.0</text>
<line x1="170.83334" y1="600.0" x2="170.83334" y2="594.0" style="stroke:rgb(0.0,0.0,0.0);stroke-width:2.0;opacity:1.0;stroke-linecap:round" />
<text font-size="12.0" font-family="Roboto" x="145.29333" y="618.0" stroke="#000000" stroke-width="0.175" transform="rotate(-0.0,145.29333,618.0)">50.0</text>
<line x1="236.66667" y1="600.0" x2="236.66667" y2="594.0" style="stroke:rgb(0.0,0.0,0.0);stroke-width:2.0;opacity:1.0;stroke-linecap:round" />
<text font-size="12.0" font-family="Roboto" x="211.12668" y="618.0" stroke="#000000" stroke-width="0.175" transform="rotate(-0.0,211.12668,618.0)">60.0</text>
<line x1="302.5" y1="600.0" x2="302.5" y2="594.0" style="stroke:rgb(0.0,0.0,0.0);stroke-width:2.0;opacity:1.0;stroke-linecap:round" />
<text font-size="12.0" font-family="Roboto" x="276.96" y="618.0" stroke="#000000" stroke-width="0.175" transform="rotate(-0.0,276.96,618.0)">70.0</text>
<line x1="368.33334" y1="600.0" x2="368.33334" y2="594.0" style="stroke:rgb(0.0,0.0,0.0);stroke-width:2.0;opacity:1.0;stroke-linecap:round" />
<text font-size="12.0" font-family="Roboto" x="342.79333" y="618.0" stroke="#000000" stroke-width="0.175" transform="rotate(-0.0,342.79333,618.0)">80.0</text>
<line x1="434.1667" y1="600.0" x2="434.1667" y2="594.0" style="stroke:rgb(0.0,0.0,0.0);stroke-width:2.0;opacity:1.0;stroke-linecap:round" />
<text font-size="12.0" font-family="Roboto" x="408.62668" y="618.0" stroke="#000000" stroke-width="0.175" transform="rotate(-0.0,408.62668,618.0)">90.0</text>
<line x1="500.0" y1="600.0" x2="500.0" y2="594.0" style="stroke:rgb(0.0,0.0,0.0);stroke-width:2.0;opacity:1.0;stroke-linecap:round" />
<text font-size="12.0" font-family="Roboto" x="472.78" y="618.0" stroke="#000000" stroke-width="0.175" transform="rotate(-0.0,472.78,618.0)">100.0</text>
<line x1="565.8334" y1="600.0" x2="565.8334" y2="594.0" style="stroke:rgb(0.0,0.0,0.0);stroke-width:2.0;opacity:1.0;stroke-linecap:round" />
<text font-size="12.0" font-family="Roboto" x="539.0934" y="618.0" stroke="#000000" stroke-width="0.175" transform="rotate(-0.0,539.0934,618.0)">110.0</text>
<line x1="631.6667" y1="600.0" x2="631.6667" y2="594.0" style="stroke:rgb(0.0,0.0,0.0);stroke-width:2.0;opacity:1.0;stroke-linecap:round" />
<text font-size="12.0" font-family="Roboto" x="604.44666" y="618.0" stroke="#000000" stroke-width="0.175" transform="rotate(-0.0,604.44666,618.0)">120.0</text>
<line x1="697.5" y1="600.0" x2="697.5" y2="594.0" style="stroke:rgb(0.0,0.0,0.0);stroke-width:2.0;opacity:1.0;stroke-linecap:round" />
<text font-size="12.0" font-family="Roboto" x="670.28" y="618.0" stroke="#000000" stroke-width="0.175" transform="rotate(-0.0,670.28,618.0)">130.0</text>
<line x1="763.3334" y1="600.0" x2="763.3334" y2="594.0" style="stroke:rgb(0.0,0.0,0.0);stroke-width:2.0;opacity:1.0;stroke-linecap:round" />
<text font-size="12.0" font-family="Roboto" x="736.1134" y="618.0" stroke="#000000" stroke-width="0.175" transform="rotate(-0.0,736.1134,618.0)">140.0</text>
<line x1="829.1667" y1="600.0" x2="829.1667" y2="594.0" style="stroke:rgb(0.0,0.0,0.0);stroke-width:2.0;opacity:1.0;stroke-linecap:round" />
<text font-size="12.0" font-family="Roboto" x="801.9467" y="618.0" stroke="#000000" stroke-width="0.175" transform="rotate(-0.0,801.9467,618.0)">150.0</text>
<line x1="895.0" y1="600.0" x2="895.0" y2="594.0" style="stroke:rgb(0.0,0.0,0.0);stroke-width:2.0;opacity:1.0;stroke-linecap:round" />
<text font-size="12.0" font-family="Roboto" x="867.78" y="618.0" stroke="#000000" stroke-width="0.175" transform="rotate(-0.0,867.78,618.0)">160.0</text>
<line x1="94.0" y1="594.0" x2="100.0" y2="594.0" style="stroke:rgb(0.0,0.0,0.0);stroke-width:2.0;opacity:1.0;stroke-linecap:round" />
<text font-size="12.0" font-family="Roboto" x="55.24" y="598.0" stroke="#000000" stroke-width="0.175" transform="rotate(-0.0,55.24,598.0)">0.0</text>
<line x1="94.0" y1="523.23535" x2="100.0" y2="523.23535" style="stroke:rgb(0.0,0.0,0.0);stroke-width:2.0;opacity:1.0;stroke-linecap:round" />
<text font-size="12.0" font-family="Roboto" x="47.56" y="527.23535" stroke="#000000" stroke-width="0.175" transform="rotate(-0.0,47.56,527.23535)">100.0</text>
<line x1="94.0" y1="452.47076" x2="100.0" y2="452.47076" style="stroke:rgb(0.0,0.0,0.0);stroke-width:2.0;opacity:1.0;stroke-linecap:round" />
<text font-size="12.0" font-family="Roboto" x="46.6" y="456.47076" stroke="#000000" stroke-width="0.175" transform="rotate(-0.0,46.6,456.47076)">200.0</text>
<line x1="94.0" y1="381.70615" x2="100.0" y2="381.70615" style="stroke:rgb(0.0,0.0,0.0);stroke-width:2.0;opacity:1.0;stroke-linecap:round" />
<text font-size="12.0" font-family="Roboto" x="46.6" y="385.70615" stroke="#000000" stroke-width="0.175" transform="rotate(-0.0,46.6,385.70615)">300.0</text>
<line x1="94.0" y1="310.94153" x2="100.0" y2="310.94153" style="stroke:rgb(0.0,0.0,0.0);stroke-width:2.0;opacity:1.0;stroke-linecap:round" />
<text font-size="12.0" font-family="Roboto" x="46.6" y="314.94153" stroke="#000000" stroke-width="0.175" transform="rotate(-0.0,46.6,314.94153)">400.0</text>
<line x1="94.0" y1="240.17691" x2="100.0" y2="240.17691" style="stroke:rgb(0.0,0.0,0.0);stroke-width:2.0;opacity:1.0;stroke-linecap:round" />
<text font-size="12.0" font-family="Roboto" x="46.6" y="244.17691" stroke="#000000" stroke-width="0.175" transform="rotate(-0.0,46.6,244.17691)">500.0</text>
<line x1="94.0" y1="169.4123" x2="100.0" y2="169.4123" style="stroke:rgb(0.0,0.0,0.0);stroke-width:2.0;opacity:1.0;stroke-linecap:round" />
<text font-size="12.0" font-family="Roboto" x="46.6" y="173.4123" stroke="#000000" stroke-width="0.175" transform="rotate(-0.0,46.6,173.4123)">600.0</text>
<line x1="94.0" y1="98.647705" x2="100.0" y2="98.647705" style="stroke:rgb(0.0,0.0,0.0);stroke-width:2.0;opacity:1.0;stroke-linecap:round" />
<text font-size="12.0" font-family="Roboto" x="46.6" y="102.647675" stroke="#000000" stroke-width="0.175" transform="rotate(-0.0,46.6,102.647675)">700.0</text>
<rect x="105.0" y="591.8771" width="16.0" height="2.1229384" style="fill:rgb(0.0,0.0,255.0);stroke-width:0;stroke:rgb(0,0,0);opacity:1.0" />
<rect x="121.0" y="592.5847" width="16.0" height="1.4152923" style="fill:rgb(0.0,0.0,255.0);stroke-width:0;stroke:rgb(0,0,0);opacity:1.0" />
<rect x="137.0" y="589.0465" width="16.0" height="4.9535227" style="fill:rgb(0.0,0.0,255.0);stroke-width:0;stroke:rgb(0,0,0);opacity:1.0" />
<rect x="153.0" y="589.0465" width="16.0" height="4.9535227" style="fill:rgb(0.0,0.0,255.0);stroke-width:0;stroke:rgb(0,0,0);opacity:1.0" />
<rect x="169.0" y="590.4618" width="16.0" height="3.5382307" style="fill:rgb(0.0,0.0,255.0);stroke-width:0;stroke:rgb(0,0,0);opacity:1.0" />
<rect x="185.0" y="588.3388" width="16.0" height="5.661169" style="fill:rgb(0.0,0.0,255.0);stroke-width:0;stroke:rgb(0,0,0);opacity:1.0" />
<rect x="201.0" y="578.43176" width="16.0" height="15.568214" style="fill:rgb(0.0,0.0,255.0);stroke-width:0;stroke:rgb(0,0,0);opacity:1.0" />
<rect x="217.0" y="572.063" width="16.0" height="21.93703" style="fill:rgb(0.0,0.0,255.0);stroke-width:0;stroke:rgb(0,0,0);opacity:1.0" />
<rect x="233.0" y="562.15594" width="16.0" height="31.844076" style="fill:rgb(0.0,0.0,255.0);stroke-width:0;stroke:rgb(0,0,0);opacity:1.0" />
<rect x="249.0" y="550.8336" width="16.0" height="43.166412" style="fill:rgb(0.0,0.0,255.0);stroke-width:0;stroke:rgb(0,0,0);opacity:1.0" />
<rect x="265.0" y="535.2654" width="16.0" height="58.73463" style="fill:rgb(0.0,0.0,255.0);stroke-width:0;stroke:rgb(0,0,0);opacity:1.0" />
<rect x="281.0" y="512.6207" width="16.0" height="81.3793" style="fill:rgb(0.0,0.0,255.0);stroke-width:0;stroke:rgb(0,0,0);opacity:1.0" />
<rect x="297.0" y="501.29834" width="16.0" height="92.701645" style="fill:rgb(0.0,0.0,255.0);stroke-width:0;stroke:rgb(0,0,0);opacity:1.0" />
<rect x="313.0" y="441.85608" width="16.0" height="152.14392" style="fill:rgb(0.0,0.0,255.0);stroke-width:0;stroke:rgb(0,0,0);opacity:1.0" />
<rect x="329.0" y="436.90256" width="16.0" height="157.09744" style="fill:rgb(0.0,0.0,255.0);stroke-width:0;stroke:rgb(0,0,0);opacity:1.0" />
<rect x="345.0" y="364.72266" width="16.0" height="229.27734" style="fill:rgb(0.0,0.0,255.0);stroke-width:0;stroke:rgb(0,0,0);opacity:1.0" />
<rect x="361.0" y="316.60272" width="16.0" height="277.39728" style="fill:rgb(0.0,0.0,255.0);stroke-width:0;stroke:rgb(0,0,0);opacity:1.0" />
<rect x="377.0" y="271.31335" width="16.0" height="322.68665" style="fill:rgb(0.0,0.0,255.0);stroke-width:0;stroke:rgb(0,0,0);opacity:1.0" />
<rect x="393.0" y="223.19342" width="16.0" height="370.80658" style="fill:rgb(0.0,0.0,255.0);stroke-width:0;stroke:rgb(0,0,0);opacity:1.0" />
<rect x="409.0" y="197.71817" width="16.0" height="396.28183" style="fill:rgb(0.0,0.0,255.0);stroke-width:0;stroke:rgb(0,0,0);opacity:1.0" />
<rect x="425.0" y="177.19644" width="16.0" height="416.80356" style="fill:rgb(0.0,0.0,255.0);stroke-width:0;stroke:rgb(0,0,0);opacity:1.0" />
<rect x="441.0" y="137.56824" width="16.0" height="456.43176" style="fill:rgb(0.0,0.0,255.0);stroke-width:0;stroke:rgb(0,0,0);opacity:1.0" />
<rect x="457.0" y="142.52173" width="16.0" height="451.47824" style="fill:rgb(0.0,0.0,255.0);stroke-width:0;stroke:rgb(0,0,0);opacity:1.0" />
<rect x="473.0" y="122.0" width="16.0" height="471.99997" style="fill:rgb(0.0,0.0,255.0);stroke-width:0;stroke:rgb(0,0,0);opacity:1.0" />
<rect x="489.0" y="136.8606" width="16.0" height="457.1394" style="fill:rgb(0.0,0.0,255.0);stroke-width:0;stroke:rgb(0,0,0);opacity:1.0" />
<rect x="505.0" y="177.19644" width="16.0" height="416.80356" style="fill:rgb(0.0,0.0,255.0);stroke-width:0;stroke:rgb(0,0,0);opacity:1.0" />
<rect x="521.0" y="209.74814" width="16.0" height="384.25186" style="fill:rgb(0.0,0.0,255.0);stroke-width:0;stroke:rgb(0,0,0);opacity:1.0" />
<rect x="537.0" y="243.71518" width="16.0" height="350.28482" style="fill:rgb(0.0,0.0,255.0);stroke-width:0;stroke:rgb(0,0,0);opacity:1.0" />
<rect x="553.0" y="284.051" width="16.0" height="309.949" style="fill:rgb(0.0,0.0,255.0);stroke-width:0;stroke:rgb(0,0,0);opacity:1.0" />
<rect x="569.0" y="336.4168" width="16.0" height="257.5832" style="fill:rgb(0.0,0.0,255.0);stroke-width:0;stroke:rgb(0,0,0);opacity:1.0" />
<rect x="585.0" y="388.78262" width="16.0" height="205.21738" style="fill:rgb(0.0,0.0,255.0);stroke-width:0;stroke:rgb(0,0,0);opacity:1.0" />
<rect x="601.0" y="448.93256" width="16.0" height="145.06746" style="fill:rgb(0.0,0.0,255.0);stroke-width:0;stroke:rgb(0,0,0);opacity:1.0" />
<rect x="617.0" y="459.54724" width="16.0" height="134.45276" style="fill:rgb(0.0,0.0,255.0);stroke-width:0;stroke:rgb(0,0,0);opacity:1.0" />
<rect x="633.0" y="504.83658" width="16.0" height="89.163414" style="fill:rgb(0.0,0.0,255.0);stroke-width:0;stroke:rgb(0,0,0);opacity:1.0" />
<rect x="649.0" y="523.23535" width="16.0" height="70.76461" style="fill:rgb(0.0,0.0,255.0);stroke-width:0;stroke:rgb(0,0,0);opacity:1.0" />
<rect x="665.0" y="531.01953" width="16.0" height="62.980507" style="fill:rgb(0.0,0.0,255.0);stroke-width:0;stroke:rgb(0,0,0);opacity:1.0" />
<rect x="681.0" y="552.95654" width="16.0" height="41.043476" style="fill:rgb(0.0,0.0,255.0);stroke-width:0;stroke:rgb(0,0,0);opacity:1.0" />
<rect x="697.0" y="558.6177" width="16.0" height="35.382305" style="fill:rgb(0.0,0.0,255.0);stroke-width:0;stroke:rgb(0,0,0);opacity:1.0" />
<rect x="713.0" y="572.063" width="16.0" height="21.93703" style="fill:rgb(0.0,0.0,255.0);stroke-width:0;stroke:rgb(0,0,0);opacity:1.0" />
<rect x="729.0" y="584.09296" width="16.0" height="9.907045" style="fill:rgb(0.0,0.0,255.0);stroke-width:0;stroke:rgb(0,0,0);opacity:1.0" />
<rect x="745.0" y="586.9235" width="16.0" height="7.0764613" style="fill:rgb(0.0,0.0,255.0);stroke-width:0;stroke:rgb(0,0,0);opacity:1.0" />
<rect x="761.0" y="592.5847" width="16.0" height="1.4152923" style="fill:rgb(0.0,0.0,255.0);stroke-width:0;stroke:rgb(0,0,0);opacity:1.0" />
<rect x="777.0" y="591.8771" width="16.0" height="2.1229384" style="fill:rgb(0.0,0.0,255.0);stroke-width:0;stroke:rgb(0,0,0);opacity:1.0" />
<rect x="793.0" y="593.29236" width="16.0" height="0.70764613" style="fill:rgb(0.0,0.0,255.0);stroke-width:0;stroke:rgb(0,0,0);opacity:1.0" />
<rect x="809.0" y="591.8771" width="16.0" height="2.1229384" style="fill:rgb(0.0,0.0,255.0);stroke-width:0;stroke:rgb(0,0,0);opacity:1.0" />
<rect x="825.0" y="593.29236" width="16.0" height="0.70764613" style="fill:rgb(0.0,0.0,255.0);stroke-width:0;stroke:rgb(0,0,0);opacity:1.0" />
<rect x="841.0" y="594.0" width="16.0" height="0.0" style="fill:rgb(0.0,0.0,255.0);stroke-width:0;stroke:rgb(0,0,0);opacity:1.0" />
<rect x="857.0" y="594.0" width="16.0" height="0.0" style="fill:rgb(0.0,0.0,255.0);stroke-width:0;stroke:rgb(0,0,0);opacity:1.0" />
<rect x="873.0" y="594.0" width="16.0" height="0.0" style="fill:rgb(0.0,0.0,255.0);stroke-width:0;stroke:rgb(0,0,0);opacity:1.0" />
<text font-size="20.0" font-family="Roboto" x="450.6" y="56.0" stroke="#000000" stroke-width="0.3" transform="rotate(-0.0,450.6,56.0)">HISTOGRAM</text>
<text font-size="15.0" font-family="Roboto" x="484.725" y="635.4" stroke="#000000" stroke-width="0.3" transform="rotate(-0.0,484.725,635.4)">X</text>
<text font-size="15.0" font-family="Roboto" x="45.0" y="407.65" stroke="#000000" stroke-width="0.3" transform="rotate(-90.0,45.0,407.65)">Frequency</text>
<rect x="120.0" y="86.0" width="77.8" height="30.0" style="fill:rgb(255.0,255.0,255.0);stroke-width:2.0;stroke:rgb(0.0,0.0,0.0);opacity:0.7" />
<rect x="130.0" y="96.0" width="10.0" height="10.0" style="fill:rgb(0.0,0.0,255.0);stroke-width:0;stroke:rgb(0,0,0);opacity:1.0" />
<text font-size="10.0" font-family="Roboto" x="150.0" y="106.0" stroke="#000000" stroke-width="0.3" transform="rotate(-0.0,150.0,106.0)">Plot 1</text>
</svg>