<svg height="660.0" width="1000.0" version="4.0" xmlns="http://www.w3.org/2000/svg" xmlns:xlink= "http://www.w3.org/1999/xlink">
<rect width="100%" height="100%" fill="white"/>
<rect x="100.0" y="66.0" width="800.0" height="528.0" style="fill:rgb(255,255,255);stroke-width:2.0;stroke:rgb(0,0,0);opacity:1" />
<line x1="105.0" y1="597.0" x2="105.0" y2="594.0" style="stroke:rgb(0.0,0.0,0.0);stroke-width:2.0;opacity:1.0;stroke-linecap:round" />
<text x="82.14" y="610.0" stroke="#000000" stroke-width="0.7" transform="rotate(-0.0,82.14,610.0)">30.0</text>
<line x1="148.88889" y1="597.0" x2="148.88889" y2="594.0" style="stroke:rgb(0.0,0.0,0.0);stroke-width:2.0;opacity:1.0;stroke-linecap:round" />
<text x="126.028885" y="610.0" stroke="#000000" stroke-width="0.7" transform="rotate(-0.0,126.028885,610.0)">40.0</text>
<line x1="192.77777" y1="597.0" x2="192.77777" y2="594.0" style="stroke:rgb(0.0,0.0,0.0);stroke-width:2.0;opacity:1.0;stroke-linecap:round" />
<text x="169.91779" y="610.0" stroke="#000000" stroke-width="0.7" transform="rotate(-0.0,169.91779,610.0)">50.0</text>
<line x1="236.66667" y1="597.0" x2="236.66667" y2="594.0" style="stroke:rgb(0.0,0.0,0.0);stroke-width:2.0;opacity:1.0;stroke-linecap:round" />
<text x="213.80667" y="610.0" stroke="#000000" stroke-width="0.7" transform="rotate(-0.0,213.80667,610.0)">60.0</text>
<line x1="280.55554" y1="597.0" x2="280.55554" y2="594.0" style="stroke:rgb(0.0,0.0,0.0);stroke-width:2.0;opacity:1.0;stroke-linecap:round" />
<text x="257.69556" y="610.0" stroke="#000000" stroke-width="0.7" transform="rotate(-0.0,257.69556,610.0)">70.0</text>
<line x1="324.44446" y1="597.0" x2="324.44446" y2="594.0" style="stroke:rgb(0.0,0.0,0.0);stroke-width:2.0;opacity:1.0;stroke-linecap:round" />
<text x="301.58444" y="610.0" stroke="#000000" stroke-width="0.7" transform="rotate(-0.0,301.58444,610.0)">80.0</text>
<line x1="368.33334" y1="597.0" x2="368.33334" y2="594.0" style="stroke:rgb(0.0,0.0,0.0);stroke-width:2.0;opacity:1.0;stroke-linecap:round" />
<text x="345.47333" y="610.0" stroke="#000000" stroke-width="0.7" transform="rotate(-0.0,345.47333,610.0)">90.0</text>
<line x1="412.22223" y1="597.0" x2="412.22223" y2="594.0" style="stroke:rgb(0.0,0.0,0.0);stroke-width:2.0;opacity:1.0;stroke-linecap:round" />
<text x="388.24222" y="610.0" stroke="#000000" stroke-width="0.7" transform="rotate(-0.0,388.24222,610.0)">100.0</text>
<line x1="456.1111" y1="597.0" x2="456.1111" y2="594.0" style="stroke:rgb(0.0,0.0,0.0);stroke-width:2.0;opacity:1.0;stroke-linecap:round" />
<text x="432.4511" y="610.0" stroke="#000000" stroke-width="0.7" transform="rotate(-0.0,432.4511,610.0)">110.0</text>
<line x1="500.0" y1="597.0" x2="500.0" y2="594.0" style="stroke:rgb(0.0,0.0,0.0);stroke-width:2.0;opacity:1.0;stroke-linecap:round" />
<text x="476.02" y="610.0" stroke="#000000" stroke-width="0.7" transform="rotate(-0.0,476.02,610.0)">120.0</text>
<line x1="543.8889" y1="597.0" x2="543.8889" y2="594.0" style="stroke:rgb(0.0,0.0,0.0);stroke-width:2.0;opacity:1.0;stroke-linecap:round" />
<text x="519.9089" y="610.0" stroke="#000000" stroke-width="0.7" transform="rotate(-0.0,519.9089,610.0)">130.0</text>
<line x1="587.7778" y1="597.0" x2="587.7778" y2="594.0" style="stroke:rgb(0.0,0.0,0.0);stroke-width:2.0;opacity:1.0;stroke-linecap:round" />
<text x="563.7977" y="610.0" stroke="#000000" stroke-width="0.7" transform="rotate(-0.0,563.7977,610.0)">140.0</text>
<line x1="631.6667" y1="597.0" x2="631.6667" y2="594.0" style="stroke:rgb(0.0,0.0,0.0);stroke-width:2.0;opacity:1.0;stroke-linecap:round" />
<text x="607.68665" y="610.0" stroke="#000000" stroke-width="0.7" transform="rotate(-0.0,607.68665,610.0)">150.0</text>
<line x1="675.55554" y1="597.0" x2="675.55554" y2="594.0" style="stroke:rgb(0.0,0.0,0.0);stroke-width:2.0;opacity:1.0;stroke-linecap:round" />
<text x="651.57556" y="610.0" stroke="#000000" stroke-width="0.7" transform="rotate(-0.0,651.57556,610.0)">160.0</text>
<line x1="719.44446" y1="597.0" x2="719.44446" y2="594.0" style="stroke:rgb(0.0,0.0,0.0);stroke-width:2.0;opacity:1.0;stroke-linecap:round" />
<text x="695.4645" y="610.0" stroke="#000000" stroke-width="0.7" transform="rotate(-0.0,695.4645,610.0)">170.0</text>
<line x1="763.3333" y1="597.0" x2="763.3333" y2="594.0" style="stroke:rgb(0.0,0.0,0.0);stroke-width:2.0;opacity:1.0;stroke-linecap:round" />
<text x="739.35333" y="610.0" stroke="#000000" stroke-width="0.7" transform="rotate(-0.0,739.35333,610.0)">180.0</text>
<line x1="807.2222" y1="597.0" x2="807.2222" y2="594.0" style="stroke:rgb(0.0,0.0,0.0);stroke-width:2.0;opacity:1.0;stroke-linecap:round" />
<text x="783.24225" y="610.0" stroke="#000000" stroke-width="0.7" transform="rotate(-0.0,783.24225,610.0)">190.0</text>
<line x1="851.1111" y1="597.0" x2="851.1111" y2="594.0" style="stroke:rgb(0.0,0.0,0.0);stroke-width:2.0;opacity:1.0;stroke-linecap:round" />
<text x="826.8111" y="610.0" stroke="#000000" stroke-width="0.7" transform="rotate(-0.0,826.8111,610.0)">200.0</text>
<line x1="895.0" y1="597.0" x2="895.0" y2="594.0" style="stroke:rgb(0.0,0.0,0.0);stroke-width:2.0;opacity:1.0;stroke-linecap:round" />
<text x="871.02" y="610.0" stroke="#000000" stroke-width="0.7" transform="rotate(-0.0,871.02,610.0)">210.0</text>
<line x1="97.0" y1="594.0" x2="100.0" y2="594.0" style="stroke:rgb(0.0,0.0,0.0);stroke-width:2.0;opacity:1.0;stroke-linecap:round" />
<text x="62.16" y="598.0" stroke="#000000" stroke-width="0.7" transform="rotate(-0.0,62.16,598.0)">0.0</text>
<line x1="97.0" y1="545.68884" x2="100.0" y2="545.68884" style="stroke:rgb(0.0,0.0,0.0);stroke-width:2.0;opacity:1.0;stroke-linecap:round" />
<text x="57.04" y="549.68884" stroke="#000000" stroke-width="0.7" transform="rotate(-0.0,57.04,549.68884)">100.0</text>
<line x1="97.0" y1="497.3777" x2="100.0" y2="497.3777" style="stroke:rgb(0.0,0.0,0.0);stroke-width:2.0;opacity:1.0;stroke-linecap:round" />
<text x="56.4" y="501.3777" stroke="#000000" stroke-width="0.7" transform="rotate(-0.0,56.4,501.3777)">200.0</text>
<line x1="97.0" y1="449.06653" x2="100.0" y2="449.06653" style="stroke:rgb(0.0,0.0,0.0);stroke-width:2.0;opacity:1.0;stroke-linecap:round" />
<text x="56.4" y="453.06653" stroke="#000000" stroke-width="0.7" transform="rotate(-0.0,56.4,453.06653)">300.0</text>
<line x1="97.0" y1="400.75537" x2="100.0" y2="400.75537" style="stroke:rgb(0.0,0.0,0.0);stroke-width:2.0;opacity:1.0;stroke-linecap:round" />
<text x="56.4" y="404.75537" stroke="#000000" stroke-width="0.7" transform="rotate(-0.0,56.4,404.75537)">400.0</text>
<line x1="97.0" y1="352.4442" x2="100.0" y2="352.4442" style="stroke:rgb(0.0,0.0,0.0);stroke-width:2.0;opacity:1.0;stroke-linecap:round" />
<text x="56.4" y="356.4442" stroke="#000000" stroke-width="0.7" transform="rotate(-0.0,56.4,356.4442)">500.0</text>
<line x1="97.0" y1="304.13306" x2="100.0" y2="304.13306" style="stroke:rgb(0.0,0.0,0.0);stroke-width:2.0;opacity:1.0;stroke-linecap:round" />
<text x="56.4" y="308.13306" stroke="#000000" stroke-width="0.7" transform="rotate(-0.0,56.4,308.13306)">600.0</text>
<line x1="97.0" y1="255.8219" x2="100.0" y2="255.8219" style="stroke:rgb(0.0,0.0,0.0);stroke-width:2.0;opacity:1.0;stroke-linecap:round" />
<text x="56.4" y="259.8219" stroke="#000000" stroke-width="0.7" transform="rotate(-0.0,56.4,259.8219)">700.0</text>
<line x1="97.0" y1="207.51074" x2="100.0" y2="207.51074" style="stroke:rgb(0.0,0.0,0.0);stroke-width:2.0;opacity:1.0;stroke-linecap:round" />
<text x="56.4" y="211.51074" stroke="#000000" stroke-width="0.7" transform="rotate(-0.0,56.4,211.51074)">800.0</text>
<line x1="97.0" y1="159.19958" x2="100.0" y2="159.19958" style="stroke:rgb(0.0,0.0,0.0);stroke-width:2.0;opacity:1.0;stroke-linecap:round" />
<text x="56.4" y="163.19958" stroke="#000000" stroke-width="0.7" transform="rotate(-0.0,56.4,163.19958)">900.0</text>
<line x1="97.0" y1="110.88843" x2="100.0" y2="110.88843" style="stroke:rgb(0.0,0.0,0.0);stroke-width:2.0;opacity:1.0;stroke-linecap:round" />
<text x="54.16" y="114.88843" stroke="#000000" stroke-width="0.7" transform="rotate(-0.0,54.16,114.88843)">1000.0</text>
<rect x="105.0" y="594.0" width="16.0" height="0.0" style="fill:rgb(0.0,0.0,255.0);stroke-width:0;stroke:rgb(0,0,0);opacity:1.0" />
<rect x="105.0" y="594.0" width="16.0" height="0.0" style="fill:rgb(164.985,164.985,0.0);stroke-width:0;stroke:rgb(0,0,0);opacity:1.0" />
<rect x="121.0" y="594.0" width="16.0" height="0.0" style="fill:rgb(0.0,0.0,255.0);stroke-width:0;stroke:rgb(0,0,0);opacity:1.0" />
<rect x="121.0" y="594.0" width="16.0" height="0.0" style="fill:rgb(164.985,164.985,0.0);stroke-width:0;stroke:rgb(0,0,0);opacity:1.0" />
<rect x="137.0" y="593.03375" width="16.0" height="0.9662231" style="fill:rgb(0.0,0.0,255.0);stroke-width:0;stroke:rgb(0,0,0);opacity:1.0" />
<rect x="137.0" y="593.03375" width="16.0" height="0.0" style="fill:rgb(164.985,164.985,0.0);stroke-width:0;stroke:rgb(0,0,0);opacity:1.0" />
<rect x="153.0" y="594.0" width="16.0" height="0.0" style="fill:rgb(0.0,0.0,255.0);stroke-width:0;stroke:rgb(0,0,0);opacity:1.0" />
<rect x="153.0" y="594.0" width="16.0" height="0.0" style="fill:rgb(164.985,164.985,0.0);stroke-width:0;stroke:rgb(0,0,0);opacity:1.0" />
<rect x="169.0" y="593.5169" width="16.0" height="0.48311156" style="fill:rgb(0.0,0.0,255.0);stroke-width:0;stroke:rgb(0,0,0);opacity:1.0" />
<rect x="169.0" y="593.5169" width="16.0" height="0.0" style="fill:rgb(164.985,164.985,0.0);stroke-width:0;stroke:rgb(0,0,0);opacity:1.0" />
<rect x="185.0" y="591.5845" width="16.0" height="2.4155579" style="fill:rgb(0.0,0.0,255.0);stroke-width:0;stroke:rgb(0,0,0);opacity:1.0" />
<rect x="185.0" y="591.5845" width="16.0" height="0.0" style="fill:rgb(164.985,164.985,0.0);stroke-width:0;stroke:rgb(0,0,0);opacity:1.0" />
<rect x="201.0" y="590.13513" width="16.0" height="3.8648925" style="fill:rgb(0.0,0.0,255.0);stroke-width:0;stroke:rgb(0,0,0);opacity:1.0" />
<rect x="201.0" y="590.13513" width="16.0" height="0.0" style="fill:rgb(164.985,164.985,0.0);stroke-width:0;stroke:rgb(0,0,0);opacity:1.0" />
<rect x="217.0" y="587.71954" width="16.0" height="6.2804503" style="fill:rgb(0.0,0.0,255.0);stroke-width:0;stroke:rgb(0,0,0);opacity:1.0" />
<rect x="217.0" y="587.71954" width="16.0" height="0.0" style="fill:rgb(164.985,164.985,0.0);stroke-width:0;stroke:rgb(0,0,0);opacity:1.0" />
<rect x="233.0" y="576.608" width="16.0" height="17.392015" style="fill:rgb(0.0,0.0,255.0);stroke-width:0;stroke:rgb(0,0,0);opacity:1.0" />
<rect x="233.0" y="576.608" width="16.0" height="0.0" style="fill:rgb(164.985,164.985,0.0);stroke-width:0;stroke:rgb(0,0,0);opacity:1.0" />
<rect x="249.0" y="564.5302" width="16.0" height="29.469805" style="fill:rgb(0.0,0.0,255.0);stroke-width:0;stroke:rgb(0,0,0);opacity:1.0" />
<rect x="249.0" y="564.5302" width="16.0" height="0.0" style="fill:rgb(164.985,164.985,0.0);stroke-width:0;stroke:rgb(0,0,0);opacity:1.0" />
<rect x="265.0" y="552.93555" width="16.0" height="41.064484" style="fill:rgb(0.0,0.0,255.0);stroke-width:0;stroke:rgb(0,0,0);opacity:1.0" />
<rect x="265.0" y="552.93555" width="16.0" height="0.0" style="fill:rgb(164.985,164.985,0.0);stroke-width:0;stroke:rgb(0,0,0);opacity:1.0" />
<rect x="281.0" y="512.3541" width="16.0" height="81.64585" style="fill:rgb(0.0,0.0,255.0);stroke-width:0;stroke:rgb(0,0,0);opacity:1.0" />
<rect x="281.0" y="512.3541" width="16.0" height="0.0" style="fill:rgb(164.985,164.985,0.0);stroke-width:0;stroke:rgb(0,0,0);opacity:1.0" />
<rect x="297.0" y="485.2999" width="16.0" height="108.7001" style="fill:rgb(0.0,0.0,255.0);stroke-width:0;stroke:rgb(0,0,0);opacity:1.0" />
<rect x="297.0" y="485.2999" width="16.0" height="0.0" style="fill:rgb(164.985,164.985,0.0);stroke-width:0;stroke:rgb(0,0,0);opacity:1.0" />
<rect x="313.0" y="423.94473" width="16.0" height="170.05527" style="fill:rgb(0.0,0.0,255.0);stroke-width:0;stroke:rgb(0,0,0);opacity:1.0" />
<rect x="313.0" y="423.4616" width="16.0" height="0.48310852" style="fill:rgb(164.985,164.985,0.0);stroke-width:0;stroke:rgb(0,0,0);opacity:1.0" />
<rect x="329.0" y="379.49847" width="16.0" height="214.50153" style="fill:rgb(0.0,0.0,255.0);stroke-width:0;stroke:rgb(0,0,0);opacity:1.0" />
<rect x="329.0" y="379.49847" width="16.0" height="0.0" style="fill:rgb(164.985,164.985,0.0);stroke-width:0;stroke:rgb(0,0,0);opacity:1.0" />
<rect x="345.0" y="281.90994" width="16.0" height="312.09006" style="fill:rgb(0.0,0.0,255.0);stroke-width:0;stroke:rgb(0,0,0);opacity:1.0" />
<rect x="345.0" y="281.90994" width="16.0" height="0.0" style="fill:rgb(164.985,164.985,0.0);stroke-width:0;stroke:rgb(0,0,0);opacity:1.0" />
<rect x="361.0" y="235.53122" width="16.0" height="358.46878" style="fill:rgb(0.0,0.0,255.0);stroke-width:0;stroke:rgb(0,0,0);opacity:1.0" />
<rect x="361.0" y="235.53122" width="16.0" height="0.0" style="fill:rgb(164.985,164.985,0.0);stroke-width:0;stroke:rgb(0,0,0);opacity:1.0" />
<rect x="377.0" y="193.0174" width="16.0" height="400.9826" style="fill:rgb(0.0,0.0,255.0);stroke-width:0;stroke:rgb(0,0,0);opacity:1.0" />
<rect x="377.0" y="192.53427" width="16.0" height="0.48312378" style="fill:rgb(164.985,164.985,0.0);stroke-width:0;stroke:rgb(0,0,0);opacity:1.0" />
<rect x="393.0" y="152.91916" width="16.0" height="441.08084" style="fill:rgb(0.0,0.0,255.0);stroke-width:0;stroke:rgb(0,0,0);opacity:1.0" />
<rect x="393.0" y="152.43604" width="16.0" height="0.48312378" style="fill:rgb(164.985,164.985,0.0);stroke-width:0;stroke:rgb(0,0,0);opacity:1.0" />
<rect x="409.0" y="123.932495" width="16.0" height="470.06754" style="fill:rgb(0.0,0.0,255.0);stroke-width:0;stroke:rgb(0,0,0);opacity:1.0" />
<rect x="409.0" y="122.0" width="16.0" height="1.9324341" style="fill:rgb(164.985,164.985,0.0);stroke-width:0;stroke:rgb(0,0,0);opacity:1.0" />
<rect x="425.0" y="139.39203" width="16.0" height="454.60797" style="fill:rgb(0.0,0.0,255.0);stroke-width:0;stroke:rgb(0,0,0);opacity:1.0" />
<rect x="425.0" y="135.5271" width="16.0" height="3.8648987" style="fill:rgb(164.985,164.985,0.0);stroke-width:0;stroke:rgb(0,0,0);opacity:1.0" />
<rect x="441.0" y="165.48004" width="16.0" height="428.51996" style="fill:rgb(0.0,0.0,255.0);stroke-width:0;stroke:rgb(0,0,0);opacity:1.0" />
<rect x="441.0" y="153.88538" width="16.0" height="11.594666" style="fill:rgb(164.985,164.985,0.0);stroke-width:0;stroke:rgb(0,0,0);opacity:1.0" />
<rect x="457.0" y="254.37256" width="16.0" height="339.62744" style="fill:rgb(0.0,0.0,255.0);stroke-width:0;stroke:rgb(0,0,0);opacity:1.0" />
<rect x="457.0" y="236.49744" width="16.0" height="17.875122" style="fill:rgb(164.985,164.985,0.0);stroke-width:0;stroke:rgb(0,0,0);opacity:1.0" />
<rect x="473.0" y="298.81885" width="16.0" height="295.18115" style="fill:rgb(0.0,0.0,255.0);stroke-width:0;stroke:rgb(0,0,0);opacity:1.0" />
<rect x="473.0" y="269.34903" width="16.0" height="29.469818" style="fill:rgb(164.985,164.985,0.0);stroke-width:0;stroke:rgb(0,0,0);opacity:1.0" />
<rect x="489.0" y="368.3869" width="16.0" height="225.6131" style="fill:rgb(0.0,0.0,255.0);stroke-width:0;stroke:rgb(0,0,0);opacity:1.0" />
<rect x="489.0" y="317.6602" width="16.0" height="50.726715" style="fill:rgb(164.985,164.985,0.0);stroke-width:0;stroke:rgb(0,0,0);opacity:1.0" />
<rect x="505.0" y="444.2354" width="16.0" height="149.76459" style="fill:rgb(0.0,0.0,255.0);stroke-width:0;stroke:rgb(0,0,0);opacity:1.0" />
<rect x="505.0" y="362.10645" width="16.0" height="82.12897" style="fill:rgb(164.985,164.985,0.0);stroke-width:0;stroke:rgb(0,0,0);opacity:1.0" />
<rect x="521.0" y="479.01944" width="16.0" height="114.98055" style="fill:rgb(0.0,0.0,255.0);stroke-width:0;stroke:rgb(0,0,0);opacity:1.0" />
<rect x="521.0" y="353.41043" width="16.0" height="125.60902" style="fill:rgb(164.985,164.985,0.0);stroke-width:0;stroke:rgb(0,0,0);opacity:1.0" />
<rect x="537.0" y="518.6346" width="16.0" height="75.3654" style="fill:rgb(0.0,0.0,255.0);stroke-width:0;stroke:rgb(0,0,0);opacity:1.0" />
<rect x="537.0" y="345.68066" width="16.0" height="172.95393" style="fill:rgb(164.985,164.985,0.0);stroke-width:0;stroke:rgb(0,0,0);opacity:1.0" />
<rect x="553.0" y="551.9693" width="16.0" height="42.030704" style="fill:rgb(0.0,0.0,255.0);stroke-width:0;stroke:rgb(0,0,0);opacity:1.0" />
<rect x="553.0" y="329.25485" width="16.0" height="222.71445" style="fill:rgb(164.985,164.985,0.0);stroke-width:0;stroke:rgb(0,0,0);opacity:1.0" />
<rect x="569.0" y="572.7431" width="16.0" height="21.256908" style="fill:rgb(0.0,0.0,255.0);stroke-width:0;stroke:rgb(0,0,0);opacity:1.0" />
<rect x="569.0" y="276.1126" width="16.0" height="296.6305" style="fill:rgb(164.985,164.985,0.0);stroke-width:0;stroke:rgb(0,0,0);opacity:1.0" />
<rect x="585.0" y="580.956" width="16.0" height="13.044012" style="fill:rgb(0.0,0.0,255.0);stroke-width:0;stroke:rgb(0,0,0);opacity:1.0" />
<rect x="585.0" y="209.92633" width="16.0" height="371.02966" style="fill:rgb(164.985,164.985,0.0);stroke-width:0;stroke:rgb(0,0,0);opacity:1.0" />
<rect x="601.0" y="588.6858" width="16.0" height="5.314227" style="fill:rgb(0.0,0.0,255.0);stroke-width:0;stroke:rgb(0,0,0);opacity:1.0" />
<rect x="601.0" y="181.42273" width="16.0" height="407.26303" style="fill:rgb(164.985,164.985,0.0);stroke-width:0;stroke:rgb(0,0,0);opacity:1.0" />
<rect x="617.0" y="590.6182" width="16.0" height="3.3817809" style="fill:rgb(0.0,0.0,255.0);stroke-width:0;stroke:rgb(0,0,0);opacity:1.0" />
<rect x="617.0" y="151.95294" width="16.0" height="438.66528" style="fill:rgb(164.985,164.985,0.0);stroke-width:0;stroke:rgb(0,0,0);opacity:1.0" />
<rect x="633.0" y="592.06757" width="16.0" height="1.9324462" style="fill:rgb(0.0,0.0,255.0);stroke-width:0;stroke:rgb(0,0,0);opacity:1.0" />
<rect x="633.0" y="125.86487" width="16.0" height="466.20267" style="fill:rgb(164.985,164.985,0.0);stroke-width:0;stroke:rgb(0,0,0);opacity:1.0" />
<rect x="649.0" y="593.03375" width="16.0" height="0.9662231" style="fill:rgb(0.0,0.0,255.0);stroke-width:0;stroke:rgb(0,0,0);opacity:1.0" />
<rect x="649.0" y="158.23337" width="16.0" height="434.8004" style="fill:rgb(164.985,164.985,0.0);stroke-width:0;stroke:rgb(0,0,0);opacity:1.0" />
<rect x="665.0" y="594.0" width="16.0" height="0.0" style="fill:rgb(0.0,0.0,255.0);stroke-width:0;stroke:rgb(0,0,0);opacity:1.0" />
<rect x="665.0" y="179.97339" width="16.0" height="414.0266" style="fill:rgb(164.985,164.985,0.0);stroke-width:0;stroke:rgb(0,0,0);opacity:1.0" />
<rect x="681.0" y="594.0" width="16.0" height="0.0" style="fill:rgb(0.0,0.0,255.0);stroke-width:0;stroke:rgb(0,0,0);opacity:1.0" />
<rect x="681.0" y="235.0481" width="16.0" height="358.9519" style="fill:rgb(164.985,164.985,0.0);stroke-width:0;stroke:rgb(0,0,0);opacity:1.0" />
<rect x="697.0" y="594.0" width="16.0" height="0.0" style="fill:rgb(0.0,0.0,255.0);stroke-width:0;stroke:rgb(0,0,0);opacity:1.0" />
<rect x="697.0" y="306.06552" width="16.0" height="287.93448" style="fill:rgb(164.985,164.985,0.0);stroke-width:0;stroke:rgb(0,0,0);opacity:1.0" />
<rect x="713.0" y="594.0" width="16.0" height="0.0" style="fill:rgb(0.0,0.0,255.0);stroke-width:0;stroke:rgb(0,0,0);opacity:1.0" />
<rect x="713.0" y="378.53223" width="16.0" height="215.46776" style="fill:rgb(164.985,164.985,0.0);stroke-width:0;stroke:rgb(0,0,0);opacity:1.0" />
<rect x="729.0" y="594.0" width="16.0" height="0.0" style="fill:rgb(0.0,0.0,255.0);stroke-width:0;stroke:rgb(0,0,0);opacity:1.0" />
<rect x="729.0" y="437.95496" width="16.0" height="156.04503" style="fill:rgb(164.985,164.985,0.0);stroke-width:0;stroke:rgb(0,0,0);opacity:1.0" />
<rect x="745.0" y="594.0" width="16.0" height="0.0" style="fill:rgb(0.0,0.0,255.0);stroke-width:0;stroke:rgb(0,0,0);opacity:1.0" />
<rect x="745.0" y="486.2661" width="16.0" height="107.73388" style="fill:rgb(164.985,164.985,0.0);stroke-width:0;stroke:rgb(0,0,0);opacity:1.0" />
<rect x="761.0" y="594.0" width="16.0" height="0.0" style="fill:rgb(0.0,0.0,255.0);stroke-width:0;stroke:rgb(0,0,0);opacity:1.0" />
<rect x="761.0" y="529.74615" width="16.0" height="64.25384" style="fill:rgb(164.985,164.985,0.0);stroke-width:0;stroke:rgb(0,0,0);opacity:1.0" />
<rect x="777.0" y="594.0" width="16.0" height="0.0" style="fill:rgb(0.0,0.0,255.0);stroke-width:0;stroke:rgb(0,0,0);opacity:1.0" />
<rect x="777.0" y="554.868" width="16.0" height="39.13204" style="fill:rgb(164.985,164.985,0.0);stroke-width:0;stroke:rgb(0,0,0);opacity:1.0" />
<rect x="793.0" y="594.0" width="16.0" height="0.0" style="fill:rgb(0.0,0.0,255.0);stroke-width:0;stroke:rgb(0,0,0);opacity:1.0" />
<rect x="793.0" y="568.8782" width="16.0" height="25.121801" style="fill:rgb(164.985,164.985,0.0);stroke-width:0;stroke:rgb(0,0,0);opacity:1.0" />
<rect x="809.0" y="594.0" width="16.0" height="0.0" style="fill:rgb(0.0,0.0,255.0);stroke-width:0;stroke:rgb(0,0,0);opacity:1.0" />
<rect x="809.0" y="577.5742" width="16.0" height="16.425793" style="fill:rgb(164.985,164.985,0.0);stroke-width:0;stroke:rgb(0,0,0);opacity:1.0" />
<rect x="825.0" y="594.0" width="16.0" height="0.0" style="fill:rgb(0.0,0.0,255.0);stroke-width:0;stroke:rgb(0,0,0);opacity:1.0" />
<rect x="825.0" y="587.71954" width="16.0" height="6.2804503" style="fill:rgb(164.985,164.985,0.0);stroke-width:0;stroke:rgb(0,0,0);opacity:1.0" />
<rect x="841.0" y="594.0" width="16.0" height="0.0" style="fill:rgb(0.0,0.0,255.0);stroke-width:0;stroke:rgb(0,0,0);opacity:1.0" />
<rect x="841.0" y="590.13513" width="16.0" height="3.8648925" style="fill:rgb(164.985,164.985,0.0);stroke-width:0;stroke:rgb(0,0,0);opacity:1.0" />
<rect x="857.0" y="594.0" width="16.0" height="0.0" style="fill:rgb(0.0,0.0,255.0);stroke-width:0;stroke:rgb(0,0,0);opacity:1.0" />
<rect x="857.0" y="593.03375" width="16.0" height="0.9662231" style="fill:rgb(164.985,164.985,0.0);stroke-width:0;stroke:rgb(0,0,0);opacity:1.0" />
<rect x="873.0" y="594.0" width="16.0" height="0.0" style="fill:rgb(0.0,0.0,255.0);stroke-width:0;stroke:rgb(0,0,0);opacity:1.0" />
<rect x="873.0" y="594.0" width="16.0" height="0.0" style="fill:rgb(164.985,164.985,0.0);stroke-width:0;stroke:rgb(0,0,0);opacity:1.0" />
<rect x="889.0" y="594.0" width="16.0" height="0.0" style="fill:rgb(0.0,0.0,255.0);stroke-width:0;stroke:rgb(0,0,0);opacity:1.0" />
<rect x="889.0" y="594.0" width="16.0" height="0.0" style="fill:rgb(164.985,164.985,0.0);stroke-width:0;stroke:rgb(0,0,0);opacity:1.0" />
<text x="438.3" y="58.5" stroke="#000000" stroke-width="1.2" transform="rotate(-0.0,438.3,58.5)">HISTOGRAM STACKED</text>
<text x="485.65" y="630.4" stroke="#000000" stroke-width="1.2" transform="rotate(-0.0,485.65,630.4)">X</text>
<text x="50.0" y="390.1" stroke="#000000" stroke-width="1.2" transform="rotate(-90.0,50.0,390.1)">Frequency</text>
<rect x="120.0" y="86.0" width="67.880005" height="40.0" style="fill:rgb(255.0,255.0,255.0);stroke-width:2.0;stroke:rgb(0.0,0.0,0.0);opacity:0.7" />
<rect x="128.0" y="94.0" width="8.0" height="8.0" style="fill:rgb(0.0,0.0,255.0);stroke-width:0;stroke:rgb(0,0,0);opacity:1.0" />
<text x="144.0" y="102.0" stroke="#000000" stroke-width="1.2" transform="rotate(-0.0,144.0,102.0)">Plot 1</text>
<rect x="128.0" y="110.0" width="8.0" height="8.0" style="fill:rgb(164.985,164.985,0.0);stroke-width:0;stroke:rgb(0,0,0);opacity:1.0" />
<text x="144.0" y="118.0" stroke="#000000" stroke-width="1.2" transform="rotate(-0.0,144.0,118.0)">Plot 2</text>
</svg>