<svg height="660.0" width="1000.0" version="4.0" xmlns="http://www.w3.org/2000/svg" xmlns:xlink= "http://www.w3.org/1999/xlink">
<rect width="100%" height="100%" fill="white"/>
<defs><style>@import url("https://fonts.googleapis.com/css?family=Roboto");</style></defs>
<line x1="105.0" y1="594.0" x2="105.0" y2="66.0" style="stroke:rgb(127.5,127.5,127.5);stroke-width:0.5;opacity:1.0;stroke-linecap:round" />
<line x1="170.83334" y1="594.0" x2="170.83334" y2="66.0" style="stroke:rgb(127.5,127.5,127.5);stroke-width:0.5;opacity:1.0;stroke-linecap:round" />
<line x1="236.66667" y1="594.0" x2="236.66667" y2="66.0" style="stroke:rgb(127.5,127.5,127.5);stroke-width:0.5;opacity:1.0;stroke-linecap:round" />
<line x1="302.5" y1="594.0" x2="302.5" y2="66.0" style="stroke:rgb(127.5,127.5,127.5);stroke-width:0.5;opacity:1.0;stroke-linecap:round" />
<line x1="368.33334" y1="594.0" x2="368.33334" y2="66.0" style="stroke:rgb(127.5,127.5,127.5);stroke-width:0.5;opacity:1.0;stroke-linecap:round" />
<line x1="434.1667" y1="594.0" x2="434.1667" y2="66.0" style="stroke:rgb(127.5,127.5,127.5);stroke-width:0.5;opacity:1.0;stroke-linecap:round" />
<line x1="500.0" y1="594.0" x2="500.0" y2="66.0" style="stroke:rgb(127.5,127.5,127.5);stroke-width:0.5;opacity:1.0;stroke-linecap:round" />
<line x1="565.8334" y1="594.0" x2="565.8334" y2="66.0" style="stroke:rgb(127.5,127.5,127.5);stroke-width:0.5;opacity:1.0;stroke-linecap:round" />
<line x1="631.6667" y1="594.0" x2="631.6667" y2="66.0" style="stroke:rgb(127.5,127.5,127.5);stroke-width:0.5;opacity:1.0;stroke-linecap:round" />
<line x1="697.5" y1="594.0" x2="697.5" y2="66.0" style="stroke:rgb(127.5,127.5,127.5);stroke-width:0.5;opacity:1.0;stroke-linecap:round" />
<line x1="763.3334" y1="594.0" x2="763.3334" y2="66.0" style="stroke:rgb(127.5,127.5,127.5);stroke-width:0.5;opacity:1.0;stroke-linecap:round" />
<line x1="829.1667" y1="594.0" x2="829.1667" y2="66.0" style="stroke:rgb(127.5,127.5,127.5);stroke-width:0.5;opacity:1.0;stroke-linecap:round" />
<line x1="895.0" y1="594.0" x2="895.0" y2="66.0" style="stroke:rgb(127.5,127.5,127.5);stroke-width:0.5;opacity:1.0;stroke-linecap:round" />
<line x1="100.0" y1="594.0" x2="900.0" y2="594.0" style="stroke:rgb(127.5,127.5,127.5);stroke-width:0.5;opacity:1.0;stroke-linecap:round" />
<line x1="100.0" y1="523.23535" x2="900.0" y2="523.23535" style="stroke:rgb(127.5,127.5,127.5);stroke-width:0.5;opacity:1.0;stroke-linecap:round" />
<line x1="100.0" y1="452.47076" x2="900.0" y2="452.47076" style="stroke:rgb(127.5,127.5,127.5);stroke-width:0.5;opacity:1.0;stroke-linecap:round" />
<line x1="100.0" y1="381.70615" x2="900.0" y2="381.70615" style="stroke:rgb(127.5,127.5,127.5);stroke-width:0.5;opacity:1.0;stroke-linecap:round" />
<line x1="100.0" y1="310.94153" x2="900.0" y2="310.94153" style="stroke:rgb(127.5,127.5,127.5);stroke-width:0.5;opacity:1.0;stroke-linecap:round" />
<line x1="100.0" y1="240.17691" x2="900.0" y2="240.17691" style="stroke:rgb(127.5,127.5,127.5);stroke-width:0.5;opacity:1.0;stroke-linecap:round" />
<line x1="100.0" y1="169.4123" x2="900.0" y2="169.4123" style="stroke:rgb(127.5,127.5,127.5);stroke-width:0.5;opacity:1.0;stroke-linecap:round" />
<line x1="100.0" y1="98.647705" x2="900.0" y2="98.647705" style="stroke:rgb(127.5,127.5,127.5);stroke-width:0.5;opacity:1.0;stroke-linecap:round" />
<rect x="100.0" y="66.0" width="800.0" height="528.0" style="fill:rgb(255,255,255);stroke-width:2.0;stroke:rgb(0,0,0);opacity:1;fill-opacity:0;" />
<line x1="105.0" y1="600.0" x2="105.0" y2="594.0" style="stroke:rgb(0.0,0.0,0.0);stroke-width:2.0;opacity:1.0;stroke-linecap:round" />
<text font-size="12.0" font-family="Roboto" x="79.46" y="618.0" stroke="#000000" stroke-width="0.175" transform="rotate(-0.0,79.46,618.0)">40.0</text>
<line x1="170.83334" y1="600.0" x2="170.83334" y2="594.0" style="stroke:rgb(0.0,0.0,0.0);stroke-width:2.0;opacity:1.0;stroke-linecap:round" />
<text font-size="12.0" font-family="Roboto" x="145.29333" y="618.0" stroke="#000000" stroke-width="0.175" transform="rotate(-0.0,145.29333,618.0)">50.0</text>
<line x1="236.66667" y1="600.0" x2="236.66667" y2="594.0" style="stroke:rgb(0.0,0.0,0.0);stroke-width:2.0;opacity:1.0;stroke-linecap:round" />
<text font-size="12.0" font-family="Roboto" x="211.12668" y="618.0" stroke="#000000" stroke-width="0.175" transform="rotate(-0.0,211.12668,618.0)">60.0</text>
<line x1="302.5" y1="600.0" x2="302.5" y2="594.0" style="stroke:rgb(0.0,0.0,0.0);stroke-width:2.0;opacity:1.0;stroke-linecap:round" />
<text font-size="12.0" font-family="Roboto" x="276.96" y="618.0" stroke="#000000" stroke-width="0.175" transform="rotate(-0.0,276.96,618.0)">70.0</text>
<line x1="368.33334" y1="600.0" x2="368.33334" y2="594.0" style="stroke:rgb(0.0,0.0,0.0);stroke-width:2.0;opacity:1.0;stroke-linecap:round" />
<text font-size="12.0" font-family="Roboto" x="342.79333" y="618.0" stroke="#000000" stroke-width="0.175" transform="rotate(-0.0,342.79333,618.0)">80.0</text>
<line x1="434.1667" y1="600.0" x2="434.1667" y2="594.0" style="stroke:rgb(0.0,0.0,0.0);stroke-width:2.0;opacity:1.0;stroke-linecap:round" />
<text font-size="12.0" font-family="Roboto" x="408.62668" y="618.0" stroke="#000000" stroke-width="0.175" transform="rotate(-0.0,408.62668,618.0)">90.0</text>
<line x1="500.0" y1="600.0" x2="500.0" y2="594.0" style="stroke:rgb(0.0,0.0,0.0);stroke-width:2.0;opacity:1.0;stroke-linecap:round" />
<text font-size="12.0" font-family="Roboto" x="472.78" y="618.0" stroke="#000000" stroke-width="0.175" transform="rotate(-0.0,472.78,618.0)">100.0</text>
<line x1="565.8334" y1="600.0" x2="565.8334" y2="594.0" style="stroke:rgb(0.0,0.0,0.0);stroke-width:2.0;opacity:1.0;stroke-linecap:round" />
<text font-size="12.0" font-family="Roboto" x="539.0934" y="618.0" stroke="#000000" stroke-width="0.175" transform="rotate(-0.0,539.0934,618.0)">110.0</text>
<line x1="631.6667" y1="600.0" x2="631.6667" y2="594.0" style="stroke:rgb(0.0,0.0,0.0);stroke-width:2.0;opacity:1.0;stroke-linecap:round" />
<text font-size="12.0" font-family="Roboto" x="604.44666" y="618.0" stroke="#000000" stroke-width="0.175" transform="rotate(-0.0,604.44666,618.0)">120.0</text>
<line x1="697.5" y1="600.0" x2="697.5" y2="594.0" style="stroke:rgb(0.0,0.0,0.0);stroke-width:2.0;opacity:1.0;stroke-linecap:round" />
<text font-size="12.0" font-family="Roboto" x="670.28" y="618.0" stroke="#000000" stroke-width="0.175" transform="rotate(-0.0,670.28,618.0)">130.0</text>
<line x1="763.3334" y1="600.0" x2="763.3334" y2="594.0" style="stroke:rgb(0.0,0.0,0.0);stroke-width:2.0;opacity:1.0;stroke-linecap:round" />
<text font-size="12.0" font-family="Roboto" x="736.1134" y="618.0" stroke="#000000" stroke-width="0.175" transform="rotate(-0.0,736.1134,618.0)">140.0</text>
<line x1="829.1667" y1="600.0" x2="829.1667" y2="594.0" style="stroke:rgb(0.0,0.0,0.0);stroke-width:2.0;opacity:1.0;stroke-linecap:round" />
<text font-size="12.0" font-family="Roboto" x="801.9467" y="618.0" stroke="#000000" stroke-width="0.175" transform="rotate(-0.0,801.9467,618.0)">150.0</text>
<line x1="895.0" y1="600.0" x2="895.0" y2="594.0" style="stroke:rgb(0.0,0.0,0.0);stroke-width:2.0;opacity:1.0;stroke-linecap:round" />
<text font-size="12.0" font-family="Roboto" x="867.78" y="618.0" stroke="#000000" stroke-width="0.175" transform="rotate(-0.0,867.78,618.0)">160.0</text>
<line x1="94.0" y1="594.0" x2="100.0" y2="594.0" style="stroke:rgb(0.0,0.0,0.0);stroke-width:2.0;opacity:1.0;stroke-linecap:round" />
<text font-size="12.0" font-family="Roboto" x="55.24" y="598.0" stroke="#000000" stroke-width="0.175" transform="rotate(-0.0,55.24,598.0)">0.0</text>
<line x1="94.0" y1="523.23535" x2="100.0" y2="523.23535" style="stroke:rgb(0.0,0.0,0.0);stroke-width:2.0;opacity:1.0;stroke-linecap:round" />
<text font-size="12.0" font-family="Roboto" x="47.56" y="527.23535" stroke="#000000" stroke-width="0.175" transform="rotate(-0.0,47.56,527.23535)">100.0</text>
<line x1="94.0" y1="452.47076" x2="100.0" y2="452.47076" style="stroke:rgb(0.0,0.0,0.0);stroke-width:2.0;opacity:1.0;stroke-linecap:round" />
<text font-size="12.0" font-family="Roboto" x="46.6" y="456.47076" stroke="#000000" stroke-width="0.175" transform="rotate(-0.0,46.6,456.47076)">200.0</text>
<line x1="94.0" y1="381.70615" x2="100.0" y2="381.70615" style="stroke:rgb(0.0,0.0,0.0);stroke-width:2.0;opacity:1.0;stroke-linecap:round" />
<text font-size="12.0" font-family="Roboto" x="46.6" y="385.70615" stroke="#000000" stroke-width="0.175" transform="rotate(-0.0,46.6,385.70615)">300.0</text>
<line x1="94.0" y1="310.94153" x2="100.0" y2="310.94153" style="stroke:rgb(0.0,0.0,0.0);stroke-width:2.0;opacity:1.0;stroke-linecap:round" />
<text font-size="12.0" font-family="Roboto" x="46.6" y="314.94153" stroke="#000000" stroke-width="0.175" transform="rotate(-0.0,46.6,314.94153)">400.0</text>
<line x1="94.0" y1="240.17691" x2="100.0" y2="240.17691" style="stroke:rgb(0.0,0.0,0.0);stroke-width:2.0;opacity:1.0;stroke-linecap:round" />
<text font-size="12.0" font-family="Roboto" x="46.6" y="244.17691" stroke="#000000" stroke-width="0.175" transform="rotate(-0.0,46.6,244.17691)">500.0</text>
<line x1="94.0" y1="169.4123" x2="100.0" y2="169.4123" style="stroke:rgb(0.0,0.0,0.0);stroke-width:2.0;opacity:1.0;stroke-linecap:round" />
<text font-size="12.0" font-family="Roboto" x="46.6" y="173.4123" stroke="#000000" stroke-width="0.175" transform="rotate(-0.0,46.6,173.4123)">600.0</text>
<line x1="94.0" y1="98.647705" x2="100.0" y2="98.647705" style="stroke:rgb(0.0,0.0,0.0);stroke-width:2.0;opacity:1.0;stroke-linecap:round" />
<text font-size="12.0" font-family="Roboto" x="46.6" y="102.647675" stroke="#000000" stroke-width="0.175" transform="rotate(-0.0,46.6,102.647675)">700.0</text>
<line x1="105.0" y1="594.0" x2="105.0" y2="591.8771" style="stroke:rgb(0.0,0.0,255.0);stroke-width:2.0;opacity:1.0;stroke-linecap:round" />
<line x1="105.0" y1="591.8771" x2="121.0" y2="591.8771" style="stroke:rgb(0.0,0.0,255.0);stroke-width:2.0;opacity:1.0;stroke-linecap:round" />
<line x1="121.0" y1="591.8771" x2="121.0" y2="592.5847" style="stroke:rgb(0.0,0.0,255.0);stroke-width:2.0;opacity:1.0;stroke-linecap:round" />
<line x1="121.0" y1="592.5847" x2="137.0" y2="592.5847" style="stroke:rgb(0.0,0.0,255.0);stroke-width:2.0;opacity:1.0;stroke-linecap:round" />
<line x1="137.0" y1="592.5847" x2="137.0" y2="589.0465" style="stroke:rgb(0.0,0.0,255.0);stroke-width:2.0;opacity:1.0;stroke-linecap:round" />
<line x1="137.0" y1="589.0465" x2="153.0" y2="589.0465" style="stroke:rgb(0.0,0.0,255.0);stroke-width:2.0;opacity:1.0;stroke-linecap:round" />
<line x1="153.0" y1="589.0465" x2="153.0" y2="589.0465" style="stroke:rgb(0.0,0.0,255.0);stroke-width:2.0;opacity:1.0;stroke-linecap:round" />
<line x1="153.0" y1="589.0465" x2="169.0" y2="589.0465" style="stroke:rgb(0.0,0.0,255.0);stroke-width:2.0;opacity:1.0;stroke-linecap:round" />
<line x1="169.0" y1="589.0465" x2="169.0" y2="590.4618" style="stroke:rgb(0.0,0.0,255.0);stroke-width:2.0;opacity:1.0;stroke-linecap:round" />
<line x1="169.0" y1="590.4618" x2="185.0" y2="590.4618" style="stroke:rgb(0.0,0.0,255.0);stroke-width:2.0;opacity:1.0;stroke-linecap:round" />
<line x1="185.0" y1="590.4618" x2="185.0" y2="588.3388" style="stroke:rgb(0.0,0.0,255.0);stroke-width:2.0;opacity:1.0;stroke-linecap:round" />
<line x1="185.0" y1="588.3388" x2="201.0" y2="588.3388" style="stroke:rgb(0.0,0.0,255.0);stroke-width:2.0;opacity:1.0;stroke-linecap:round" />
<line x1="201.0" y1="588.3388" x2="201.0" y2="578.43176" style="stroke:rgb(0.0,0.0,255.0);stroke-width:2.0;opacity:1.0;stroke-linecap:round" />
<line x1="201.0" y1="578.43176" x2="217.0" y2="578.43176" style="stroke:rgb(0.0,0.0,255.0);stroke-width:2.0;opacity:1.0;stroke-linecap:round" />
<line x1="217.0" y1="578.43176" x2="217.0" y2="572.063" style="stroke:rgb(0.0,0.0,255.0);stroke-width:2.0;opacity:1.0;stroke-linecap:round" />
<line x1="217.0" y1="572.063" x2="233.0" y2="572.063" style="stroke:rgb(0.0,0.0,255.0);stroke-width:2.0;opacity:1.0;stroke-linecap:round" />
<line x1="233.0" y1="572.063" x2="233.0" y2="562.15594" style="stroke:rgb(0.0,0.0,255.0);stroke-width:2.0;opacity:1.0;stroke-linecap:round" />
<line x1="233.0" y1="562.15594" x2="249.0" y2="562.15594" style="stroke:rgb(0.0,0.0,255.0);stroke-width:2.0;opacity:1.0;stroke-linecap:round" />
<line x1="249.0" y1="562.15594" x2="249.0" y2="550.8336" style="stroke:rgb(0.0,0.0,255.0);stroke-width:2.0;opacity:1.0;stroke-linecap:round" />
<line x1="249.0" y1="550.8336" x2="265.0" y2="550.8336" style="stroke:rgb(0.0,0.0,255.0);stroke-width:2.0;opacity:1.0;stroke-linecap:round" />
<line x1="265.0" y1="550.8336" x2="265.0" y2="535.2654" style="stroke:rgb(0.0,0.0,255.0);stroke-width:2.0;opacity:1.0;stroke-linecap:round" />
<line x1="265.0" y1="535.2654" x2="281.0" y2="535.2654" style="stroke:rgb(0.0,0.0,255.0);stroke-width:2.0;opacity:1.0;stroke-linecap:round" />
<line x1="281.0" y1="535.2654" x2="281.0" y2="512.6207" style="stroke:rgb(0.0,0.0,255.0);stroke-width:2.0;opacity:1.0;stroke-linecap:round" />
<line x1="281.0" y1="512.6207" x2="297.0" y2="512.6207" style="stroke:rgb(0.0,0.0,255.0);stroke-width:2.0;opacity:1.0;stroke-linecap:round" />
<line x1="297.0" y1="512.6207" x2="297.0" y2="501.29834" style="stroke:rgb(0.0,0.0,255.0);stroke-width:2.0;opacity:1.0;stroke-linecap:round" />
<line x1="297.0" y1="501.29834" x2="313.0" y2="501.29834" style="stroke:rgb(0.0,0.0,255.0);stroke-width:2.0;opacity:1.0;stroke-linecap:round" />
<line x1="313.0" y1="501.29834" x2="313.0" y2="441.85608" style="stroke:rgb(0.0,0.0,255.0);stroke-width:2.0;opacity:1.0;stroke-linecap:round" />
<line x1="313.0" y1="441.85608" x2="329.0" y2="441.85608" style="stroke:rgb(0.0,0.0,255.0);stroke-width:2.0;opacity:1.0;stroke-linecap:round" />
<line x1="329.0" y1="441.85608" x2="329.0" y2="436.90256" style="stroke:rgb(0.0,0.0,255.0);stroke-width:2.0;opacity:1.0;stroke-linecap:round" />
<line x1="329.0" y1="436.90256" x2="345.0" y2="436.90256" style="stroke:rgb(0.0,0.0,255.0);stroke-width:2.0;opacity:1.0;stroke-linecap:round" />
<line x1="345.0" y1="436.90256" x2="345.0" y2="364.72266" style="stroke:rgb(0.0,0.0,255.0);stroke-width:2.0;opacity:1.0;stroke-linecap:round" />
<line x1="345.0" y1="364.72266" x2="361.0" y2="364.72266" style="stroke:rgb(0.0,0.0,255.0);stroke-width:2.0;opacity:1.0;stroke-linecap:round" />
<line x1="361.0" y1="364.72266" x2="361.0" y2="316.60272" style="stroke:rgb(0.0,0.0,255.0);stroke-width:2.0;opacity:1.0;stroke-linecap:round" />
<line x1="361.0" y1="316.60272" x2="377.0" y2="316.60272" style="stroke:rgb(0.0,0.0,255.0);stroke-width:2.0;opacity:1.0;stroke-linecap:round" />
<line x1="377.0" y1="316.60272" x2="377.0" y2="271.31335" style="stroke:rgb(0.0,0.0,255.0);stroke-width:2.0;opacity:1.0;stroke-linecap:round" />
<line x1="377.0" y1="271.31335" x2="393.0" y2="271.31335" style="stroke:rgb(0.0,0.0,255.0);stroke-width:2.0;opacity:1.0;stroke-linecap:round" />
<line x1="393.0" y1="271.31335" x2="393.0" y2="223.19342" style="stroke:rgb(0.0,0.0,255.0);stroke-width:2.0;opacity:1.0;stroke-linecap:round" />
<line x1="393.0" y1="223.19342" x2="409.0" y2="223.19342" style="stroke:rgb(0.0,0.0,255.0);stroke-width:2.0;opacity:1.0;stroke-linecap:round" />
<line x1="409.0" y1="223.19342" x2="409.0" y2="197.71817" style="stroke:rgb(0.0,0.0,255.0);stroke-width:2.0;opacity:1.0;stroke-linecap:round" />
<line x1="409.0" y1="197.71817" x2="425.0" y2="197.71817" style="stroke:rgb(0.0,0.0,255.0);stroke-width:2.0;opacity:1.0;stroke-linecap:round" />
<line x1="425.0" y1="197.71817" x2="425.0" y2="177.19644" style="stroke:rgb(0.0,0.0,255.0);stroke-width:2.0;opacity:1.0;stroke-linecap:round" />
<line x1="425.0" y1="177.19644" x2="441.0" y2="177.19644" style="stroke:rgb(0.0,0.0,255.0);stroke-width:2.0;opacity:1.0;stroke-linecap:round" />
<line x1="441.0" y1="177.19644" x2="441.0" y2="137.56824" style="stroke:rgb(0.0,0.0,255.0);stroke-width:2.0;opacity:1.0;stroke-linecap:round" />
<line x1="441.0" y1="137.56824" x2="457.0" y2="137.56824" style="stroke:rgb(0.0,0.0,255.0);stroke-width:2.0;opacity:1.0;stroke-linecap:round" />
<line x1="457.0" y1="137.56824" x2="457.0" y2="142.52173" style="stroke:rgb(0.0,0.0,255.0);stroke-width:2.0;opacity:1.0;stroke-linecap:round" />
<line x1="457.0" y1="142.52173" x2="473.0" y2="142.52173" style="stroke:rgb(0.0,0.0,255.0);stroke-width:2.0;opacity:1.0;stroke-linecap:round" />
<line x1="473.0" y1="142.52173" x2="473.0" y2="122.0" style="stroke:rgb(0.0,0.0,255.0);stroke-width:2.0;opacity:1.0;stroke-linecap:round" />
<line x1="473.0" y1="122.0" x2="489.0" y2="122.0" style="stroke:rgb(0.0,0.0,255.0);stroke-width:2.0;opacity:1.0;stroke-linecap:round" />
<line x1="489.0" y1="122.0" x2="489.0" y2="136.8606" style="stroke:rgb(0.0,0.0,255.0);stroke-width:2.0;opacity:1.0;stroke-linecap:round" />
<line x1="489.0" y1="136.8606" x2="505.0" y2="136.8606" style="stroke:rgb(0.0,0.0,255.0);stroke-width:2.0;opacity:1.0;stroke-linecap:round" />
<line x1="505.0" y1="136.8606" x2="505.0" y2="177.19644" style="stroke:rgb(0.0,0.0,255.0);stroke-width:2.0;opacity:1.0;stroke-linecap:round" />
<line x1="505.0" y1="177.19644" x2="521.0" y2="177.19644" style="stroke:rgb(0.0,0.0,255.0);stroke-width:2.0;opacity:1.0;stroke-linecap:round" />
<line x1="521.0" y1="177.19644" x2="521.0" y2="209.74814" style="stroke:rgb(0.0,0.0,255.0);stroke-width:2.0;opacity:1.0;stroke-linecap:round" />
<line x1="521.0" y1="209.74814" x2="537.0" y2="209.74814" style="stroke:rgb(0.0,0.0,255.0);stroke-width:2.0;opacity:1.0;stroke-linecap:round" />
<line x1="537.0" y1="209.74814" x2="537.0" y2="243.71518" style="stroke:rgb(0.0,0.0,255.0);stroke-width:2.0;opacity:1.0;stroke-linecap:round" />
<line x1="537.0" y1="243.71518" x2="553.0" y2="243.71518" style="stroke:rgb(0.0,0.0,255.0);stroke-width:2.0;opacity:1.0;stroke-linecap:round" />
<line x1="553.0" y1="243.71518" x2="553.0" y2="284.051" style="stroke:rgb(0.0,0.0,255.0);stroke-width:2.0;opacity:1.0;stroke-linecap:round" />
<line x1="553.0" y1="284.051" x2="569.0" y2="284.051" style="stroke:rgb(0.0,0.0,255.0);stroke-width:2.0;opacity:1.0;stroke-linecap:round" />
<line x1="569.0" y1="284.051" x2="569.0" y2="336.4168" style="stroke:rgb(0.0,0.0,255.0);stroke-width:2.0;opacity:1.0;stroke-linecap:round" />
<line x1="569.0" y1="336.4168" x2="585.0" y2="336.4168" style="stroke:rgb(0.0,0.0,255.0);stroke-width:2.0;opacity:1.0;stroke-linecap:round" />
<line x1="585.0" y1="336.4168" x2="585.0" y2="388.78262" style="stroke:rgb(0.0,0.0,255.0);stroke-width:2.0;opacity:1.0;stroke-linecap:round" />
<line x1="585.0" y1="388.78262" x2="601.0" y2="388.78262" style="stroke:rgb(0.0,0.0,255.0);stroke-width:2.0;opacity:1.0;stroke-linecap:round" />
<line x1="601.0" y1="388.78262" x2="601.0" y2="448.93256" style="stroke:rgb(0.0,0.0,255.0);stroke-width:2.0;opacity:1.0;stroke-linecap:round" />
<line x1="601.0" y1="448.93256" x2="617.0" y2="448.93256" style="stroke:rgb(0.0,0.0,255.0);stroke-width:2.0;opacity:1.0;stroke-linecap:round" />
<line x1="617.0" y1="448.93256" x2="617.0" y2="459.54724" style="stroke:rgb(0.0,0.0,255.0);stroke-width:2.0;opacity:1.0;stroke-linecap:round" />
<line x1="617.0" y1="459.54724" x2="633.0" y2="459.54724" style="stroke:rgb(0.0,0.0,255.0);stroke-width:2.0;opacity:1.0;stroke-linecap:round" />
<line x1="633.0" y1="459.54724" x2="633.0" y2="504.83658" style="stroke:rgb(0.0,0.0,255.0);stroke-width:2.0;opacity:1.0;stroke-linecap:round" />
<line x1="633.0" y1="504.83658" x2="649.0" y2="504.83658" style="stroke:rgb(0.0,0.0,255.0);stroke-width:2.0;opacity:1.0;stroke-linecap:round" />
<line x1="649.0" y1="504.83658" x2="649.0" y2="523.23535" style="stroke:rgb(0.0,0.0,255.0);stroke-width:2.0;opacity:1.0;stroke-linecap:round" />
<line x1="649.0" y1="523.23535" x2="665.0" y2="523.23535" style="stroke:rgb(0.0,0.0,255.0);stroke-width:2.0;opacity:1.0;stroke-linecap:round" />
<line x1="665.0" y1="523.23535" x2="665.0" y2="531.01953" style="stroke:rgb(0.0,0.0,255.0);stroke-width:2.0;opacity:1.0;stroke-linecap:round" />
<line x1="665.0" y1="531.01953" x2="681.0" y2="531.01953" style="stroke:rgb(0.0,0.0,255.0);stroke-width:2.0;opacity:1.0;stroke-linecap:round" />
<line x1="681.0" y1="531.01953" x2="681.0" y2="552.95654" style="stroke:rgb(0.0,0.0,255.0);stroke-width:2.0;opacity:1.0;stroke-linecap:round" />
<line x1="681.0" y1="552.95654" x2="697.0" y2="552.95654" style="stroke:rgb(0.0,0.0,255.0);stroke-width:2.0;opacity:1.0;stroke-linecap:round" />
<line x1="697.0" y1="552.95654" x2="697.0" y2="558.6177" style="stroke:rgb(0.0,0.0,255.0);stroke-width:2.0;opacity:1.0;stroke-linecap:round" />
<line x1="697.0" y1="558.6177" x2="713.0" y2="558.6177" style="stroke:rgb(0.0,0.0,255.0);stroke-width:2.0;opacity:1.0;stroke-linecap:round" />
<line x1="713.0" y1="558.6177" x2="713.0" y2="572.063" style="stroke:rgb(0.0,0.0,255.0);stroke-width:2.0;opacity:1.0;stroke-linecap:round" />
<line x1="713.0" y1="572.063" x2="729.0" y2="572.063" style="stroke:rgb(0.0,0.0,255.0);stroke-width:2.0;opacity:1.0;stroke-linecap:round" />
<line x1="729.0" y1="572.063" x2="729.0" y2="584.09296" style="stroke:rgb(0.0,0.0,255.0);stroke-width:2.0;opacity:1.0;stroke-linecap:round" />
<line x1="729.0" y1="584.09296" x2="745.0" y2="584.09296" style="stroke:rgb(0.0,0.0,255.0);stroke-width:2.0;opacity:1.0;stroke-linecap:round" />
<line x1="745.0" y1="584.09296" x2="745.0" y2="586.9235" style="stroke:rgb(0.0,0.0,255.0);stroke-width:2.0;opacity:1.0;stroke-linecap:round" />
<line x1="745.0" y1="586.9235" x2="761.0" y2="586.9235" style="stroke:rgb(0.0,0.0,255.0);stroke-width:2.0;opacity:1.0;stroke-linecap:round" />
<line x1="761.0" y1="586.9235" x2="761.0" y2="592.5847" style="stroke:rgb(0.0,0.0,255.0);stroke-width:2.0;opacity:1.0;stroke-linecap:round" />
<line x1="761.0" y1="592.5847" x2="777.0" y2="592.5847" style="stroke:rgb(0.0,0.0,255.0);stroke-width:2.0;opacity:1.0;stroke-linecap:round" />
<line x1="777.0" y1="592.5847" x2="777.0" y2="591.8771" style="stroke:rgb(0.0,0.0,255.0);stroke-width:2.0;opacity:1.0;stroke-linecap:round" />
<line x1="777.0" y1="591.8771" x2="793.0" y2="591.8771" style="stroke:rgb(0.0,0.0,255.0);stroke-width:2.0;opacity:1.0;stroke-linecap:round" />
<line x1="793.0" y1="591.8771" x2="793.0" y2="593.29236" style="stroke:rgb(0.0,0.0,255.0);stroke-width:2.0;opacity:1.0;stroke-linecap:round" />
<line x1="793.0" y1="593.29236" x2="809.0" y2="593.29236" style="stroke:rgb(0.0,0.0,255.0);stroke-width:2.0;opacity:1.0;stroke-linecap:round" />
<line x1="809.0" y1="593.29236" x2="809.0" y2="591.8771" style="stroke:rgb(0.0,0.0,255.0);stroke-width:2.0;opacity:1.0;stroke-linecap:round" />
<line x1="809.0" y1="591.8771" x2="825.0" y2="591.8771" style="stroke:rgb(0.0,0.0,255.0);stroke-width:2.0;opacity:1.0;stroke-linecap:round" />
<line x1="825.0" y1="591.8771" x2="825.0" y2="593.29236" style="stroke:rgb(0.0,0.0,255.0);stroke-width:2.0;opacity:1.0;stroke-linecap:round" />
<line x1="825.0" y1="593.29236" x2="841.0" y2="593.29236" style="stroke:rgb(0.0,0.0,255.0);stroke-width:2.0;opacity:1.0;stroke-linecap:round" />
<line x1="841.0" y1="593.29236" x2="841.0" y2="594.0" style="stroke:rgb(0.0,0.0,255.0);stroke-width:2.0;opacity:1.0;stroke-linecap:round" />
<line x1="841.0" y1="594.0" x2="857.0" y2="594.0" style="stroke:rgb(0.0,0.0,255.0);stroke-width:2.0;opacity:1.0;stroke-linecap:round" />
<line x1="857.0" y1="594.0" x2="857.0" y2="594.0" style="stroke:rgb(0.0,0.0,255.0);stroke-width:2.0;opacity:1.0;stroke-linecap:round" />
<line x1="857.0" y1="594.0" x2="873.0" y2="594.0" style="stroke:rgb(0.0,0.0,255.0);stroke-width:2.0;opacity:1.0;stroke-linecap:round" />
<line x1="873.0" y1="594.0" x2="873.0" y2="594.0" style="stroke:rgb(0.0,0.0,255.0);stroke-width:2.0;opacity:1.0;stroke-linecap:round" />
<line x1="873.0" y1="594.0" x2="889.0" y2="594.0" style="stroke:rgb(0.0,0.0,255.0);stroke-width:2.0;opacity:1.0;stroke-linecap:round" />
<line x1="889.0" y1="594.0" x2="889.0" y2="594.0" style="stroke:rgb(0.0,0.0,255.0);stroke-width:2.0;opacity:1.0;stroke-linecap:round" />
<text font-size="20.0" font-family="Roboto" x="434.6" y="56.0" stroke="#000000" stroke-width="0.3" transform="rotate(-0.0,434.6,56.0)">HISTOGRAM STEP</text>
<text font-size="15.0" font-family="Roboto" x="484.725" y="635.4" stroke="#000000" stroke-width="0.3" transform="rotate(-0.0,484.725,635.4)">X</text>
<text font-size="15.0" font-family="Roboto" x="45.0" y="407.65" stroke="#000000" stroke-width="0.3" transform="rotate(-90.0,45.0,407.65)">Frequency</text>
<rect x="120.0" y="86.0" width="77.8" height="30.0" style="fill:rgb(255.0,255.0,255.0);stroke-width:2.0;stroke:rgb(0.0,0.0,0.0);opacity:0.7" />
<rect x="130.0" y="96.0" width="10.0" height="10.0" style="fill:rgb(0.0,0.0,255.0);stroke-width:0;stroke:rgb(0,0,0);opacity:1.0" />
<text font-size="10.0" font-family="Roboto" x="150.0" y="106.0" stroke="#000000" stroke-width="0.3" transform="rotate(-0.0,150.0,106.0)">Plot 1</text>
</svg>