<svg height="660.0" width="1000.0" version="4.0" xmlns="http://www.w3.org/2000/svg" xmlns:xlink= "http://www.w3.org/1999/xlink">
<rect width="100%" height="100%" fill="white"/>
<rect x="100.0" y="66.0" width="800.0" height="528.0" style="fill:rgb(255,255,255);stroke-width:2.0;stroke:rgb(0,0,0);opacity:1" />
<line x1="105.0" y1="597.0" x2="105.0" y2="594.0" style="stroke:rgb(0.0,0.0,0.0);stroke-width:2.0;opacity:1.0;stroke-linecap:round" />
<text x="82.14" y="610.0" stroke="#000000" stroke-width="0.7" transform="rotate(-0.0,82.14,610.0)">30.0</text>
<line x1="148.88889" y1="597.0" x2="148.88889" y2="594.0" style="stroke:rgb(0.0,0.0,0.0);stroke-width:2.0;opacity:1.0;stroke-linecap:round" />
<text x="126.028885" y="610.0" stroke="#000000" stroke-width="0.7" transform="rotate(-0.0,126.028885,610.0)">40.0</text>
<line x1="192.77777" y1="597.0" x2="192.77777" y2="594.0" style="stroke:rgb(0.0,0.0,0.0);stroke-width:2.0;opacity:1.0;stroke-linecap:round" />
<text x="169.91779" y="610.0" stroke="#000000" stroke-width="0.7" transform="rotate(-0.0,169.91779,610.0)">50.0</text>
<line x1="236.66667" y1="597.0" x2="236.66667" y2="594.0" style="stroke:rgb(0.0,0.0,0.0);stroke-width:2.0;opacity:1.0;stroke-linecap:round" />
<text x="213.80667" y="610.0" stroke="#000000" stroke-width="0.7" transform="rotate(-0.0,213.80667,610.0)">60.0</text>
<line x1="280.55554" y1="597.0" x2="280.55554" y2="594.0" style="stroke:rgb(0.0,0.0,0.0);stroke-width:2.0;opacity:1.0;stroke-linecap:round" />
<text x="257.69556" y="610.0" stroke="#000000" stroke-width="0.7" transform="rotate(-0.0,257.69556,610.0)">70.0</text>
<line x1="324.44446" y1="597.0" x2="324.44446" y2="594.0" style="stroke:rgb(0.0,0.0,0.0);stroke-width:2.0;opacity:1.0;stroke-linecap:round" />
<text x="301.58444" y="610.0" stroke="#000000" stroke-width="0.7" transform="rotate(-0.0,301.58444,610.0)">80.0</text>
<line x1="368.33334" y1="597.0" x2="368.33334" y2="594.0" style="stroke:rgb(0.0,0.0,0.0);stroke-width:2.0;opacity:1.0;stroke-linecap:round" />
<text x="345.47333" y="610.0" stroke="#000000" stroke-width="0.7" transform="rotate(-0.0,345.47333,610.0)">90.0</text>
<line x1="412.22223" y1="597.0" x2="412.22223" y2="594.0" style="stroke:rgb(0.0,0.0,0.0);stroke-width:2.0;opacity:1.0;stroke-linecap:round" />
<text x="388.24222" y="610.0" stroke="#000000" stroke-width="0.7" transform="rotate(-0.0,388.24222,610.0)">100.0</text>
<line x1="456.1111" y1="597.0" x2="456.1111" y2="594.0" style="stroke:rgb(0.0,0.0,0.0);stroke-width:2.0;opacity:1.0;stroke-linecap:round" />
<text x="432.4511" y="610.0" stroke="#000000" stroke-width="0.7" transform="rotate(-0.0,432.4511,610.0)">110.0</text>
<line x1="500.0" y1="597.0" x2="500.0" y2="594.0" style="stroke:rgb(0.0,0.0,0.0);stroke-width:2.0;opacity:1.0;stroke-linecap:round" />
<text x="476.02" y="610.0" stroke="#000000" stroke-width="0.7" transform="rotate(-0.0,476.02,610.0)">120.0</text>
<line x1="543.8889" y1="597.0" x2="543.8889" y2="594.0" style="stroke:rgb(0.0,0.0,0.0);stroke-width:2.0;opacity:1.0;stroke-linecap:round" />
<text x="519.9089" y="610.0" stroke="#000000" stroke-width="0.7" transform="rotate(-0.0,519.9089,610.0)">130.0</text>
<line x1="587.7778" y1="597.0" x2="587.7778" y2="594.0" style="stroke:rgb(0.0,0.0,0.0);stroke-width:2.0;opacity:1.0;stroke-linecap:round" />
<text x="563.7977" y="610.0" stroke="#000000" stroke-width="0.7" transform="rotate(-0.0,563.7977,610.0)">140.0</text>
<line x1="631.6667" y1="597.0" x2="631.6667" y2="594.0" style="stroke:rgb(0.0,0.0,0.0);stroke-width:2.0;opacity:1.0;stroke-linecap:round" />
<text x="607.68665" y="610.0" stroke="#000000" stroke-width="0.7" transform="rotate(-0.0,607.68665,610.0)">150.0</text>
<line x1="675.55554" y1="597.0" x2="675.55554" y2="594.0" style="stroke:rgb(0.0,0.0,0.0);stroke-width:2.0;opacity:1.0;stroke-linecap:round" />
<text x="651.57556" y="610.0" stroke="#000000" stroke-width="0.7" transform="rotate(-0.0,651.57556,610.0)">160.0</text>
<line x1="719.44446" y1="597.0" x2="719.44446" y2="594.0" style="stroke:rgb(0.0,0.0,0.0);stroke-width:2.0;opacity:1.0;stroke-linecap:round" />
<text x="695.4645" y="610.0" stroke="#000000" stroke-width="0.7" transform="rotate(-0.0,695.4645,610.0)">170.0</text>
<line x1="763.3333" y1="597.0" x2="763.3333" y2="594.0" style="stroke:rgb(0.0,0.0,0.0);stroke-width:2.0;opacity:1.0;stroke-linecap:round" />
<text x="739.35333" y="610.0" stroke="#000000" stroke-width="0.7" transform="rotate(-0.0,739.35333,610.0)">180.0</text>
<line x1="807.2222" y1="597.0" x2="807.2222" y2="594.0" style="stroke:rgb(0.0,0.0,0.0);stroke-width:2.0;opacity:1.0;stroke-linecap:round" />
<text x="783.24225" y="610.0" stroke="#000000" stroke-width="0.7" transform="rotate(-0.0,783.24225,610.0)">190.0</text>
<line x1="851.1111" y1="597.0" x2="851.1111" y2="594.0" style="stroke:rgb(0.0,0.0,0.0);stroke-width:2.0;opacity:1.0;stroke-linecap:round" />
<text x="826.8111" y="610.0" stroke="#000000" stroke-width="0.7" transform="rotate(-0.0,826.8111,610.0)">200.0</text>
<line x1="895.0" y1="597.0" x2="895.0" y2="594.0" style="stroke:rgb(0.0,0.0,0.0);stroke-width:2.0;opacity:1.0;stroke-linecap:round" />
<text x="871.02" y="610.0" stroke="#000000" stroke-width="0.7" transform="rotate(-0.0,871.02,610.0)">210.0</text>
<line x1="97.0" y1="594.0" x2="100.0" y2="594.0" style="stroke:rgb(0.0,0.0,0.0);stroke-width:2.0;opacity:1.0;stroke-linecap:round" />
<text x="62.16" y="598.0" stroke="#000000" stroke-width="0.7" transform="rotate(-0.0,62.16,598.0)">0.0</text>
<line x1="97.0" y1="546.8" x2="100.0" y2="546.8" style="stroke:rgb(0.0,0.0,0.0);stroke-width:2.0;opacity:1.0;stroke-linecap:round" />
<text x="57.04" y="550.8" stroke="#000000" stroke-width="0.7" transform="rotate(-0.0,57.04,550.8)">100.0</text>
<line x1="97.0" y1="499.6" x2="100.0" y2="499.6" style="stroke:rgb(0.0,0.0,0.0);stroke-width:2.0;opacity:1.0;stroke-linecap:round" />
<text x="56.4" y="503.59998" stroke="#000000" stroke-width="0.7" transform="rotate(-0.0,56.4,503.59998)">200.0</text>
<line x1="97.0" y1="452.4" x2="100.0" y2="452.4" style="stroke:rgb(0.0,0.0,0.0);stroke-width:2.0;opacity:1.0;stroke-linecap:round" />
<text x="56.4" y="456.40002" stroke="#000000" stroke-width="0.7" transform="rotate(-0.0,56.4,456.40002)">300.0</text>
<line x1="97.0" y1="405.2" x2="100.0" y2="405.2" style="stroke:rgb(0.0,0.0,0.0);stroke-width:2.0;opacity:1.0;stroke-linecap:round" />
<text x="56.4" y="409.2" stroke="#000000" stroke-width="0.7" transform="rotate(-0.0,56.4,409.2)">400.0</text>
<line x1="97.0" y1="358.0" x2="100.0" y2="358.0" style="stroke:rgb(0.0,0.0,0.0);stroke-width:2.0;opacity:1.0;stroke-linecap:round" />
<text x="56.4" y="362.0" stroke="#000000" stroke-width="0.7" transform="rotate(-0.0,56.4,362.0)">500.0</text>
<line x1="97.0" y1="310.8" x2="100.0" y2="310.8" style="stroke:rgb(0.0,0.0,0.0);stroke-width:2.0;opacity:1.0;stroke-linecap:round" />
<text x="56.4" y="314.8" stroke="#000000" stroke-width="0.7" transform="rotate(-0.0,56.4,314.8)">600.0</text>
<line x1="97.0" y1="263.59998" x2="100.0" y2="263.59998" style="stroke:rgb(0.0,0.0,0.0);stroke-width:2.0;opacity:1.0;stroke-linecap:round" />
<text x="56.4" y="267.59998" stroke="#000000" stroke-width="0.7" transform="rotate(-0.0,56.4,267.59998)">700.0</text>
<line x1="97.0" y1="216.39996" x2="100.0" y2="216.39996" style="stroke:rgb(0.0,0.0,0.0);stroke-width:2.0;opacity:1.0;stroke-linecap:round" />
<text x="56.4" y="220.39996" stroke="#000000" stroke-width="0.7" transform="rotate(-0.0,56.4,220.39996)">800.0</text>
<line x1="97.0" y1="169.19995" x2="100.0" y2="169.19995" style="stroke:rgb(0.0,0.0,0.0);stroke-width:2.0;opacity:1.0;stroke-linecap:round" />
<text x="56.4" y="173.19995" stroke="#000000" stroke-width="0.7" transform="rotate(-0.0,56.4,173.19995)">900.0</text>
<line x1="97.0" y1="121.99994" x2="100.0" y2="121.99994" style="stroke:rgb(0.0,0.0,0.0);stroke-width:2.0;opacity:1.0;stroke-linecap:round" />
<text x="54.16" y="125.99994" stroke="#000000" stroke-width="0.7" transform="rotate(-0.0,54.16,125.99994)">1000.0</text>
<line x1="97.0" y1="74.79993" x2="100.0" y2="74.79993" style="stroke:rgb(0.0,0.0,0.0);stroke-width:2.0;opacity:1.0;stroke-linecap:round" />
<text x="54.8" y="78.79993" stroke="#000000" stroke-width="0.7" transform="rotate(-0.0,54.8,78.79993)">1100.0</text>
<line x1="105.0" y1="594.0" x2="105.0" y2="594.0" style="stroke:rgb(0.0,0.0,255.0);stroke-width:2.0;opacity:1.0;stroke-linecap:round" />
<line x1="105.0" y1="594.0" x2="105.0" y2="594.0" style="stroke:rgb(164.985,164.985,0.0);stroke-width:2.0;opacity:1.0;stroke-linecap:round" />
<line x1="105.0" y1="594.0" x2="121.0" y2="594.0" style="stroke:rgb(0.0,0.0,255.0);stroke-width:2.0;opacity:1.0;stroke-linecap:round" />
<line x1="121.0" y1="594.0" x2="121.0" y2="594.0" style="stroke:rgb(0.0,0.0,255.0);stroke-width:2.0;opacity:1.0;stroke-linecap:round" />
<line x1="121.0" y1="594.0" x2="137.0" y2="594.0" style="stroke:rgb(0.0,0.0,255.0);stroke-width:2.0;opacity:1.0;stroke-linecap:round" />
<line x1="137.0" y1="594.0" x2="137.0" y2="593.528" style="stroke:rgb(0.0,0.0,255.0);stroke-width:2.0;opacity:1.0;stroke-linecap:round" />
<line x1="137.0" y1="593.528" x2="153.0" y2="593.528" style="stroke:rgb(0.0,0.0,255.0);stroke-width:2.0;opacity:1.0;stroke-linecap:round" />
<line x1="153.0" y1="593.528" x2="153.0" y2="594.0" style="stroke:rgb(0.0,0.0,255.0);stroke-width:2.0;opacity:1.0;stroke-linecap:round" />
<line x1="153.0" y1="594.0" x2="169.0" y2="594.0" style="stroke:rgb(0.0,0.0,255.0);stroke-width:2.0;opacity:1.0;stroke-linecap:round" />
<line x1="169.0" y1="594.0" x2="169.0" y2="593.528" style="stroke:rgb(0.0,0.0,255.0);stroke-width:2.0;opacity:1.0;stroke-linecap:round" />
<line x1="169.0" y1="593.528" x2="185.0" y2="593.528" style="stroke:rgb(0.0,0.0,255.0);stroke-width:2.0;opacity:1.0;stroke-linecap:round" />
<line x1="185.0" y1="593.528" x2="185.0" y2="593.056" style="stroke:rgb(0.0,0.0,255.0);stroke-width:2.0;opacity:1.0;stroke-linecap:round" />
<line x1="185.0" y1="593.056" x2="201.0" y2="593.056" style="stroke:rgb(0.0,0.0,255.0);stroke-width:2.0;opacity:1.0;stroke-linecap:round" />
<line x1="201.0" y1="593.056" x2="201.0" y2="590.224" style="stroke:rgb(0.0,0.0,255.0);stroke-width:2.0;opacity:1.0;stroke-linecap:round" />
<line x1="201.0" y1="590.224" x2="217.0" y2="590.224" style="stroke:rgb(0.0,0.0,255.0);stroke-width:2.0;opacity:1.0;stroke-linecap:round" />
<line x1="217.0" y1="590.224" x2="217.0" y2="585.032" style="stroke:rgb(0.0,0.0,255.0);stroke-width:2.0;opacity:1.0;stroke-linecap:round" />
<line x1="217.0" y1="585.032" x2="233.0" y2="585.032" style="stroke:rgb(0.0,0.0,255.0);stroke-width:2.0;opacity:1.0;stroke-linecap:round" />
<line x1="233.0" y1="585.032" x2="233.0" y2="581.728" style="stroke:rgb(0.0,0.0,255.0);stroke-width:2.0;opacity:1.0;stroke-linecap:round" />
<line x1="233.0" y1="581.728" x2="249.0" y2="581.728" style="stroke:rgb(0.0,0.0,255.0);stroke-width:2.0;opacity:1.0;stroke-linecap:round" />
<line x1="249.0" y1="581.728" x2="249.0" y2="564.736" style="stroke:rgb(0.0,0.0,255.0);stroke-width:2.0;opacity:1.0;stroke-linecap:round" />
<line x1="249.0" y1="564.736" x2="265.0" y2="564.736" style="stroke:rgb(0.0,0.0,255.0);stroke-width:2.0;opacity:1.0;stroke-linecap:round" />
<line x1="265.0" y1="564.736" x2="265.0" y2="557.656" style="stroke:rgb(0.0,0.0,255.0);stroke-width:2.0;opacity:1.0;stroke-linecap:round" />
<line x1="265.0" y1="557.656" x2="281.0" y2="557.656" style="stroke:rgb(0.0,0.0,255.0);stroke-width:2.0;opacity:1.0;stroke-linecap:round" />
<line x1="281.0" y1="557.656" x2="281.0" y2="525.088" style="stroke:rgb(0.0,0.0,255.0);stroke-width:2.0;opacity:1.0;stroke-linecap:round" />
<line x1="281.0" y1="525.088" x2="297.0" y2="525.088" style="stroke:rgb(0.0,0.0,255.0);stroke-width:2.0;opacity:1.0;stroke-linecap:round" />
<line x1="297.0" y1="525.088" x2="297.0" y2="481.19202" style="stroke:rgb(0.0,0.0,255.0);stroke-width:2.0;opacity:1.0;stroke-linecap:round" />
<line x1="297.0" y1="481.19202" x2="313.0" y2="481.19202" style="stroke:rgb(0.0,0.0,255.0);stroke-width:2.0;opacity:1.0;stroke-linecap:round" />
<line x1="313.0" y1="481.19202" x2="313.0" y2="438.712" style="stroke:rgb(0.0,0.0,255.0);stroke-width:2.0;opacity:1.0;stroke-linecap:round" />
<line x1="313.0" y1="438.712" x2="329.0" y2="438.712" style="stroke:rgb(0.0,0.0,255.0);stroke-width:2.0;opacity:1.0;stroke-linecap:round" />
<line x1="329.0" y1="438.712" x2="329.0" y2="366.96802" style="stroke:rgb(0.0,0.0,255.0);stroke-width:2.0;opacity:1.0;stroke-linecap:round" />
<line x1="329.0" y1="366.96802" x2="345.0" y2="366.96802" style="stroke:rgb(0.0,0.0,255.0);stroke-width:2.0;opacity:1.0;stroke-linecap:round" />
<line x1="345.0" y1="366.96802" x2="345.0" y2="310.8" style="stroke:rgb(0.0,0.0,255.0);stroke-width:2.0;opacity:1.0;stroke-linecap:round" />
<line x1="345.0" y1="310.8" x2="361.0" y2="310.8" style="stroke:rgb(0.0,0.0,255.0);stroke-width:2.0;opacity:1.0;stroke-linecap:round" />
<line x1="361.0" y1="310.8" x2="361.0" y2="235.28" style="stroke:rgb(0.0,0.0,255.0);stroke-width:2.0;opacity:1.0;stroke-linecap:round" />
<line x1="361.0" y1="235.28" x2="377.0" y2="235.28" style="stroke:rgb(0.0,0.0,255.0);stroke-width:2.0;opacity:1.0;stroke-linecap:round" />
<line x1="377.0" y1="235.28" x2="377.0" y2="172.97598" style="stroke:rgb(0.0,0.0,255.0);stroke-width:2.0;opacity:1.0;stroke-linecap:round" />
<line x1="377.0" y1="172.97598" x2="393.0" y2="172.97598" style="stroke:rgb(0.0,0.0,255.0);stroke-width:2.0;opacity:1.0;stroke-linecap:round" />
<line x1="393.0" y1="172.97598" x2="393.0" y2="158.344" style="stroke:rgb(0.0,0.0,255.0);stroke-width:2.0;opacity:1.0;stroke-linecap:round" />
<line x1="377.0" y1="172.03198" x2="393.0" y2="172.03198" style="stroke:rgb(164.985,164.985,0.0);stroke-width:2.0;opacity:1.0;stroke-linecap:round" />
<line x1="393.0" y1="172.03198" x2="393.0" y2="157.4" style="stroke:rgb(164.985,164.985,0.0);stroke-width:2.0;opacity:1.0;stroke-linecap:round" />
<line x1="393.0" y1="158.344" x2="409.0" y2="158.344" style="stroke:rgb(0.0,0.0,255.0);stroke-width:2.0;opacity:1.0;stroke-linecap:round" />
<line x1="409.0" y1="158.344" x2="409.0" y2="140.40796" style="stroke:rgb(0.0,0.0,255.0);stroke-width:2.0;opacity:1.0;stroke-linecap:round" />
<line x1="393.0" y1="157.4" x2="409.0" y2="157.4" style="stroke:rgb(164.985,164.985,0.0);stroke-width:2.0;opacity:1.0;stroke-linecap:round" />
<line x1="409.0" y1="157.4" x2="409.0" y2="138.52002" style="stroke:rgb(164.985,164.985,0.0);stroke-width:2.0;opacity:1.0;stroke-linecap:round" />
<line x1="409.0" y1="140.40796" x2="425.0" y2="140.40796" style="stroke:rgb(0.0,0.0,255.0);stroke-width:2.0;opacity:1.0;stroke-linecap:round" />
<line x1="425.0" y1="140.40796" x2="425.0" y2="150.32" style="stroke:rgb(0.0,0.0,255.0);stroke-width:2.0;opacity:1.0;stroke-linecap:round" />
<line x1="409.0" y1="138.52002" x2="425.0" y2="138.52002" style="stroke:rgb(164.985,164.985,0.0);stroke-width:2.0;opacity:1.0;stroke-linecap:round" />
<line x1="425.0" y1="138.52002" x2="425.0" y2="145.59998" style="stroke:rgb(164.985,164.985,0.0);stroke-width:2.0;opacity:1.0;stroke-linecap:round" />
<line x1="425.0" y1="150.32" x2="441.0" y2="150.32" style="stroke:rgb(0.0,0.0,255.0);stroke-width:2.0;opacity:1.0;stroke-linecap:round" />
<line x1="441.0" y1="150.32" x2="441.0" y2="187.13599" style="stroke:rgb(0.0,0.0,255.0);stroke-width:2.0;opacity:1.0;stroke-linecap:round" />
<line x1="425.0" y1="145.59998" x2="441.0" y2="145.59998" style="stroke:rgb(164.985,164.985,0.0);stroke-width:2.0;opacity:1.0;stroke-linecap:round" />
<line x1="441.0" y1="145.59998" x2="441.0" y2="182.888" style="stroke:rgb(164.985,164.985,0.0);stroke-width:2.0;opacity:1.0;stroke-linecap:round" />
<line x1="441.0" y1="187.13599" x2="457.0" y2="187.13599" style="stroke:rgb(0.0,0.0,255.0);stroke-width:2.0;opacity:1.0;stroke-linecap:round" />
<line x1="457.0" y1="187.13599" x2="457.0" y2="242.35999" style="stroke:rgb(0.0,0.0,255.0);stroke-width:2.0;opacity:1.0;stroke-linecap:round" />
<line x1="441.0" y1="182.888" x2="457.0" y2="182.888" style="stroke:rgb(164.985,164.985,0.0);stroke-width:2.0;opacity:1.0;stroke-linecap:round" />
<line x1="457.0" y1="182.888" x2="457.0" y2="223.47998" style="stroke:rgb(164.985,164.985,0.0);stroke-width:2.0;opacity:1.0;stroke-linecap:round" />
<line x1="457.0" y1="242.35999" x2="473.0" y2="242.35999" style="stroke:rgb(0.0,0.0,255.0);stroke-width:2.0;opacity:1.0;stroke-linecap:round" />
<line x1="473.0" y1="242.35999" x2="473.0" y2="322.128" style="stroke:rgb(0.0,0.0,255.0);stroke-width:2.0;opacity:1.0;stroke-linecap:round" />
<line x1="457.0" y1="223.47998" x2="473.0" y2="223.47998" style="stroke:rgb(164.985,164.985,0.0);stroke-width:2.0;opacity:1.0;stroke-linecap:round" />
<line x1="473.0" y1="223.47998" x2="473.0" y2="287.19998" style="stroke:rgb(164.985,164.985,0.0);stroke-width:2.0;opacity:1.0;stroke-linecap:round" />
<line x1="473.0" y1="322.128" x2="489.0" y2="322.128" style="stroke:rgb(0.0,0.0,255.0);stroke-width:2.0;opacity:1.0;stroke-linecap:round" />
<line x1="489.0" y1="322.128" x2="489.0" y2="374.048" style="stroke:rgb(0.0,0.0,255.0);stroke-width:2.0;opacity:1.0;stroke-linecap:round" />
<line x1="473.0" y1="287.19998" x2="489.0" y2="287.19998" style="stroke:rgb(164.985,164.985,0.0);stroke-width:2.0;opacity:1.0;stroke-linecap:round" />
<line x1="489.0" y1="287.19998" x2="489.0" y2="326.848" style="stroke:rgb(164.985,164.985,0.0);stroke-width:2.0;opacity:1.0;stroke-linecap:round" />
<line x1="489.0" y1="374.048" x2="505.0" y2="374.048" style="stroke:rgb(0.0,0.0,255.0);stroke-width:2.0;opacity:1.0;stroke-linecap:round" />
<line x1="505.0" y1="374.048" x2="505.0" y2="425.496" style="stroke:rgb(0.0,0.0,255.0);stroke-width:2.0;opacity:1.0;stroke-linecap:round" />
<line x1="489.0" y1="326.848" x2="505.0" y2="326.848" style="stroke:rgb(164.985,164.985,0.0);stroke-width:2.0;opacity:1.0;stroke-linecap:round" />
<line x1="505.0" y1="326.848" x2="505.0" y2="349.504" style="stroke:rgb(164.985,164.985,0.0);stroke-width:2.0;opacity:1.0;stroke-linecap:round" />
<line x1="505.0" y1="425.496" x2="521.0" y2="425.496" style="stroke:rgb(0.0,0.0,255.0);stroke-width:2.0;opacity:1.0;stroke-linecap:round" />
<line x1="521.0" y1="425.496" x2="521.0" y2="496.296" style="stroke:rgb(0.0,0.0,255.0);stroke-width:2.0;opacity:1.0;stroke-linecap:round" />
<line x1="505.0" y1="349.504" x2="521.0" y2="349.504" style="stroke:rgb(164.985,164.985,0.0);stroke-width:2.0;opacity:1.0;stroke-linecap:round" />
<line x1="521.0" y1="349.504" x2="521.0" y2="358.472" style="stroke:rgb(164.985,164.985,0.0);stroke-width:2.0;opacity:1.0;stroke-linecap:round" />
<line x1="521.0" y1="496.296" x2="537.0" y2="496.296" style="stroke:rgb(0.0,0.0,255.0);stroke-width:2.0;opacity:1.0;stroke-linecap:round" />
<line x1="537.0" y1="496.296" x2="537.0" y2="526.504" style="stroke:rgb(0.0,0.0,255.0);stroke-width:2.0;opacity:1.0;stroke-linecap:round" />
<line x1="521.0" y1="358.472" x2="537.0" y2="358.472" style="stroke:rgb(164.985,164.985,0.0);stroke-width:2.0;opacity:1.0;stroke-linecap:round" />
<line x1="537.0" y1="358.472" x2="537.0" y2="363.19202" style="stroke:rgb(164.985,164.985,0.0);stroke-width:2.0;opacity:1.0;stroke-linecap:round" />
<line x1="537.0" y1="526.504" x2="553.0" y2="526.504" style="stroke:rgb(0.0,0.0,255.0);stroke-width:2.0;opacity:1.0;stroke-linecap:round" />
<line x1="553.0" y1="526.504" x2="553.0" y2="557.656" style="stroke:rgb(0.0,0.0,255.0);stroke-width:2.0;opacity:1.0;stroke-linecap:round" />
<line x1="537.0" y1="363.19202" x2="553.0" y2="363.19202" style="stroke:rgb(164.985,164.985,0.0);stroke-width:2.0;opacity:1.0;stroke-linecap:round" />
<line x1="553.0" y1="363.19202" x2="553.0" y2="328.736" style="stroke:rgb(164.985,164.985,0.0);stroke-width:2.0;opacity:1.0;stroke-linecap:round" />
<line x1="553.0" y1="557.656" x2="569.0" y2="557.656" style="stroke:rgb(0.0,0.0,255.0);stroke-width:2.0;opacity:1.0;stroke-linecap:round" />
<line x1="569.0" y1="557.656" x2="569.0" y2="569.456" style="stroke:rgb(0.0,0.0,255.0);stroke-width:2.0;opacity:1.0;stroke-linecap:round" />
<line x1="553.0" y1="328.736" x2="569.0" y2="328.736" style="stroke:rgb(164.985,164.985,0.0);stroke-width:2.0;opacity:1.0;stroke-linecap:round" />
<line x1="569.0" y1="328.736" x2="569.0" y2="271.15198" style="stroke:rgb(164.985,164.985,0.0);stroke-width:2.0;opacity:1.0;stroke-linecap:round" />
<line x1="569.0" y1="569.456" x2="585.0" y2="569.456" style="stroke:rgb(0.0,0.0,255.0);stroke-width:2.0;opacity:1.0;stroke-linecap:round" />
<line x1="585.0" y1="569.456" x2="585.0" y2="583.61597" style="stroke:rgb(0.0,0.0,255.0);stroke-width:2.0;opacity:1.0;stroke-linecap:round" />
<line x1="569.0" y1="271.15198" x2="585.0" y2="271.15198" style="stroke:rgb(164.985,164.985,0.0);stroke-width:2.0;opacity:1.0;stroke-linecap:round" />
<line x1="585.0" y1="271.15198" x2="585.0" y2="226.31198" style="stroke:rgb(164.985,164.985,0.0);stroke-width:2.0;opacity:1.0;stroke-linecap:round" />
<line x1="585.0" y1="583.61597" x2="601.0" y2="583.61597" style="stroke:rgb(0.0,0.0,255.0);stroke-width:2.0;opacity:1.0;stroke-linecap:round" />
<line x1="601.0" y1="583.61597" x2="601.0" y2="586.92" style="stroke:rgb(0.0,0.0,255.0);stroke-width:2.0;opacity:1.0;stroke-linecap:round" />
<line x1="585.0" y1="226.31198" x2="601.0" y2="226.31198" style="stroke:rgb(164.985,164.985,0.0);stroke-width:2.0;opacity:1.0;stroke-linecap:round" />
<line x1="601.0" y1="226.31198" x2="601.0" y2="177.69601" style="stroke:rgb(164.985,164.985,0.0);stroke-width:2.0;opacity:1.0;stroke-linecap:round" />
<line x1="601.0" y1="586.92" x2="617.0" y2="586.92" style="stroke:rgb(0.0,0.0,255.0);stroke-width:2.0;opacity:1.0;stroke-linecap:round" />
<line x1="617.0" y1="586.92" x2="617.0" y2="590.696" style="stroke:rgb(0.0,0.0,255.0);stroke-width:2.0;opacity:1.0;stroke-linecap:round" />
<line x1="601.0" y1="177.69601" x2="617.0" y2="177.69601" style="stroke:rgb(164.985,164.985,0.0);stroke-width:2.0;opacity:1.0;stroke-linecap:round" />
<line x1="617.0" y1="177.69601" x2="617.0" y2="122.0" style="stroke:rgb(164.985,164.985,0.0);stroke-width:2.0;opacity:1.0;stroke-linecap:round" />
<line x1="617.0" y1="590.696" x2="633.0" y2="590.696" style="stroke:rgb(0.0,0.0,255.0);stroke-width:2.0;opacity:1.0;stroke-linecap:round" />
<line x1="633.0" y1="590.696" x2="633.0" y2="593.056" style="stroke:rgb(0.0,0.0,255.0);stroke-width:2.0;opacity:1.0;stroke-linecap:round" />
<line x1="617.0" y1="122.0" x2="633.0" y2="122.0" style="stroke:rgb(164.985,164.985,0.0);stroke-width:2.0;opacity:1.0;stroke-linecap:round" />
<line x1="633.0" y1="122.0" x2="633.0" y2="137.57599" style="stroke:rgb(164.985,164.985,0.0);stroke-width:2.0;opacity:1.0;stroke-linecap:round" />
<line x1="633.0" y1="593.056" x2="649.0" y2="593.056" style="stroke:rgb(0.0,0.0,255.0);stroke-width:2.0;opacity:1.0;stroke-linecap:round" />
<line x1="649.0" y1="593.056" x2="649.0" y2="593.528" style="stroke:rgb(0.0,0.0,255.0);stroke-width:2.0;opacity:1.0;stroke-linecap:round" />
<line x1="633.0" y1="137.57599" x2="649.0" y2="137.57599" style="stroke:rgb(164.985,164.985,0.0);stroke-width:2.0;opacity:1.0;stroke-linecap:round" />
<line x1="649.0" y1="137.57599" x2="649.0" y2="159.28802" style="stroke:rgb(164.985,164.985,0.0);stroke-width:2.0;opacity:1.0;stroke-linecap:round" />
<line x1="649.0" y1="593.528" x2="665.0" y2="593.528" style="stroke:rgb(0.0,0.0,255.0);stroke-width:2.0;opacity:1.0;stroke-linecap:round" />
<line x1="665.0" y1="593.528" x2="665.0" y2="594.0" style="stroke:rgb(0.0,0.0,255.0);stroke-width:2.0;opacity:1.0;stroke-linecap:round" />
<line x1="649.0" y1="159.28802" x2="665.0" y2="159.28802" style="stroke:rgb(164.985,164.985,0.0);stroke-width:2.0;opacity:1.0;stroke-linecap:round" />
<line x1="665.0" y1="159.28802" x2="665.0" y2="194.216" style="stroke:rgb(164.985,164.985,0.0);stroke-width:2.0;opacity:1.0;stroke-linecap:round" />
<line x1="665.0" y1="594.0" x2="681.0" y2="594.0" style="stroke:rgb(0.0,0.0,255.0);stroke-width:2.0;opacity:1.0;stroke-linecap:round" />
<line x1="681.0" y1="594.0" x2="681.0" y2="593.528" style="stroke:rgb(0.0,0.0,255.0);stroke-width:2.0;opacity:1.0;stroke-linecap:round" />
<line x1="665.0" y1="194.216" x2="681.0" y2="194.216" style="stroke:rgb(164.985,164.985,0.0);stroke-width:2.0;opacity:1.0;stroke-linecap:round" />
<line x1="681.0" y1="194.216" x2="681.0" y2="282.00803" style="stroke:rgb(164.985,164.985,0.0);stroke-width:2.0;opacity:1.0;stroke-linecap:round" />
<line x1="681.0" y1="593.528" x2="697.0" y2="593.528" style="stroke:rgb(0.0,0.0,255.0);stroke-width:2.0;opacity:1.0;stroke-linecap:round" />
<line x1="697.0" y1="593.528" x2="697.0" y2="594.0" style="stroke:rgb(0.0,0.0,255.0);stroke-width:2.0;opacity:1.0;stroke-linecap:round" />
<line x1="681.0" y1="282.00803" x2="697.0" y2="282.00803" style="stroke:rgb(164.985,164.985,0.0);stroke-width:2.0;opacity:1.0;stroke-linecap:round" />
<line x1="697.0" y1="282.00803" x2="697.0" y2="312.216" style="stroke:rgb(164.985,164.985,0.0);stroke-width:2.0;opacity:1.0;stroke-linecap:round" />
<line x1="697.0" y1="594.0" x2="713.0" y2="594.0" style="stroke:rgb(0.0,0.0,255.0);stroke-width:2.0;opacity:1.0;stroke-linecap:round" />
<line x1="713.0" y1="594.0" x2="713.0" y2="594.0" style="stroke:rgb(0.0,0.0,255.0);stroke-width:2.0;opacity:1.0;stroke-linecap:round" />
<line x1="697.0" y1="312.216" x2="713.0" y2="312.216" style="stroke:rgb(164.985,164.985,0.0);stroke-width:2.0;opacity:1.0;stroke-linecap:round" />
<line x1="713.0" y1="312.216" x2="713.0" y2="413.69598" style="stroke:rgb(164.985,164.985,0.0);stroke-width:2.0;opacity:1.0;stroke-linecap:round" />
<line x1="713.0" y1="594.0" x2="729.0" y2="594.0" style="stroke:rgb(0.0,0.0,255.0);stroke-width:2.0;opacity:1.0;stroke-linecap:round" />
<line x1="729.0" y1="594.0" x2="729.0" y2="594.0" style="stroke:rgb(0.0,0.0,255.0);stroke-width:2.0;opacity:1.0;stroke-linecap:round" />
<line x1="713.0" y1="413.69598" x2="729.0" y2="413.69598" style="stroke:rgb(164.985,164.985,0.0);stroke-width:2.0;opacity:1.0;stroke-linecap:round" />
<line x1="729.0" y1="413.69598" x2="729.0" y2="450.512" style="stroke:rgb(164.985,164.985,0.0);stroke-width:2.0;opacity:1.0;stroke-linecap:round" />
<line x1="729.0" y1="594.0" x2="745.0" y2="594.0" style="stroke:rgb(0.0,0.0,255.0);stroke-width:2.0;opacity:1.0;stroke-linecap:round" />
<line x1="745.0" y1="594.0" x2="745.0" y2="594.0" style="stroke:rgb(0.0,0.0,255.0);stroke-width:2.0;opacity:1.0;stroke-linecap:round" />
<line x1="729.0" y1="450.512" x2="745.0" y2="450.512" style="stroke:rgb(164.985,164.985,0.0);stroke-width:2.0;opacity:1.0;stroke-linecap:round" />
<line x1="745.0" y1="450.512" x2="745.0" y2="480.248" style="stroke:rgb(164.985,164.985,0.0);stroke-width:2.0;opacity:1.0;stroke-linecap:round" />
<line x1="745.0" y1="594.0" x2="761.0" y2="594.0" style="stroke:rgb(0.0,0.0,255.0);stroke-width:2.0;opacity:1.0;stroke-linecap:round" />
<line x1="761.0" y1="594.0" x2="761.0" y2="594.0" style="stroke:rgb(0.0,0.0,255.0);stroke-width:2.0;opacity:1.0;stroke-linecap:round" />
<line x1="745.0" y1="480.248" x2="761.0" y2="480.248" style="stroke:rgb(164.985,164.985,0.0);stroke-width:2.0;opacity:1.0;stroke-linecap:round" />
<line x1="761.0" y1="480.248" x2="761.0" y2="533.112" style="stroke:rgb(164.985,164.985,0.0);stroke-width:2.0;opacity:1.0;stroke-linecap:round" />
<line x1="761.0" y1="594.0" x2="777.0" y2="594.0" style="stroke:rgb(0.0,0.0,255.0);stroke-width:2.0;opacity:1.0;stroke-linecap:round" />
<line x1="777.0" y1="594.0" x2="777.0" y2="594.0" style="stroke:rgb(0.0,0.0,255.0);stroke-width:2.0;opacity:1.0;stroke-linecap:round" />
<line x1="761.0" y1="533.112" x2="777.0" y2="533.112" style="stroke:rgb(164.985,164.985,0.0);stroke-width:2.0;opacity:1.0;stroke-linecap:round" />
<line x1="777.0" y1="533.112" x2="777.0" y2="552.464" style="stroke:rgb(164.985,164.985,0.0);stroke-width:2.0;opacity:1.0;stroke-linecap:round" />
<line x1="777.0" y1="594.0" x2="793.0" y2="594.0" style="stroke:rgb(0.0,0.0,255.0);stroke-width:2.0;opacity:1.0;stroke-linecap:round" />
<line x1="793.0" y1="594.0" x2="793.0" y2="594.0" style="stroke:rgb(0.0,0.0,255.0);stroke-width:2.0;opacity:1.0;stroke-linecap:round" />
<line x1="777.0" y1="552.464" x2="793.0" y2="552.464" style="stroke:rgb(164.985,164.985,0.0);stroke-width:2.0;opacity:1.0;stroke-linecap:round" />
<line x1="793.0" y1="552.464" x2="793.0" y2="571.344" style="stroke:rgb(164.985,164.985,0.0);stroke-width:2.0;opacity:1.0;stroke-linecap:round" />
<line x1="793.0" y1="594.0" x2="809.0" y2="594.0" style="stroke:rgb(0.0,0.0,255.0);stroke-width:2.0;opacity:1.0;stroke-linecap:round" />
<line x1="809.0" y1="594.0" x2="809.0" y2="594.0" style="stroke:rgb(0.0,0.0,255.0);stroke-width:2.0;opacity:1.0;stroke-linecap:round" />
<line x1="793.0" y1="571.344" x2="809.0" y2="571.344" style="stroke:rgb(164.985,164.985,0.0);stroke-width:2.0;opacity:1.0;stroke-linecap:round" />
<line x1="809.0" y1="571.344" x2="809.0" y2="582.2" style="stroke:rgb(164.985,164.985,0.0);stroke-width:2.0;opacity:1.0;stroke-linecap:round" />
<line x1="809.0" y1="594.0" x2="825.0" y2="594.0" style="stroke:rgb(0.0,0.0,255.0);stroke-width:2.0;opacity:1.0;stroke-linecap:round" />
<line x1="825.0" y1="594.0" x2="825.0" y2="594.0" style="stroke:rgb(0.0,0.0,255.0);stroke-width:2.0;opacity:1.0;stroke-linecap:round" />
<line x1="809.0" y1="582.2" x2="825.0" y2="582.2" style="stroke:rgb(164.985,164.985,0.0);stroke-width:2.0;opacity:1.0;stroke-linecap:round" />
<line x1="825.0" y1="582.2" x2="825.0" y2="588.808" style="stroke:rgb(164.985,164.985,0.0);stroke-width:2.0;opacity:1.0;stroke-linecap:round" />
<line x1="825.0" y1="594.0" x2="841.0" y2="594.0" style="stroke:rgb(0.0,0.0,255.0);stroke-width:2.0;opacity:1.0;stroke-linecap:round" />
<line x1="841.0" y1="594.0" x2="841.0" y2="594.0" style="stroke:rgb(0.0,0.0,255.0);stroke-width:2.0;opacity:1.0;stroke-linecap:round" />
<line x1="825.0" y1="588.808" x2="841.0" y2="588.808" style="stroke:rgb(164.985,164.985,0.0);stroke-width:2.0;opacity:1.0;stroke-linecap:round" />
<line x1="841.0" y1="588.808" x2="841.0" y2="592.112" style="stroke:rgb(164.985,164.985,0.0);stroke-width:2.0;opacity:1.0;stroke-linecap:round" />
<line x1="841.0" y1="594.0" x2="857.0" y2="594.0" style="stroke:rgb(0.0,0.0,255.0);stroke-width:2.0;opacity:1.0;stroke-linecap:round" />
<line x1="857.0" y1="594.0" x2="857.0" y2="594.0" style="stroke:rgb(0.0,0.0,255.0);stroke-width:2.0;opacity:1.0;stroke-linecap:round" />
<line x1="841.0" y1="592.112" x2="857.0" y2="592.112" style="stroke:rgb(164.985,164.985,0.0);stroke-width:2.0;opacity:1.0;stroke-linecap:round" />
<line x1="857.0" y1="592.112" x2="857.0" y2="591.64" style="stroke:rgb(164.985,164.985,0.0);stroke-width:2.0;opacity:1.0;stroke-linecap:round" />
<line x1="857.0" y1="594.0" x2="873.0" y2="594.0" style="stroke:rgb(0.0,0.0,255.0);stroke-width:2.0;opacity:1.0;stroke-linecap:round" />
<line x1="873.0" y1="594.0" x2="873.0" y2="594.0" style="stroke:rgb(0.0,0.0,255.0);stroke-width:2.0;opacity:1.0;stroke-linecap:round" />
<line x1="857.0" y1="591.64" x2="873.0" y2="591.64" style="stroke:rgb(164.985,164.985,0.0);stroke-width:2.0;opacity:1.0;stroke-linecap:round" />
<line x1="873.0" y1="591.64" x2="873.0" y2="594.0" style="stroke:rgb(164.985,164.985,0.0);stroke-width:2.0;opacity:1.0;stroke-linecap:round" />
<line x1="873.0" y1="594.0" x2="889.0" y2="594.0" style="stroke:rgb(0.0,0.0,255.0);stroke-width:2.0;opacity:1.0;stroke-linecap:round" />
<line x1="889.0" y1="594.0" x2="889.0" y2="594.0" style="stroke:rgb(0.0,0.0,255.0);stroke-width:2.0;opacity:1.0;stroke-linecap:round" />
<line x1="889.0" y1="594.0" x2="905.0" y2="594.0" style="stroke:rgb(0.0,0.0,255.0);stroke-width:2.0;opacity:1.0;stroke-linecap:round" />
<line x1="905.0" y1="594.0" x2="905.0" y2="594.0" style="stroke:rgb(0.0,0.0,255.0);stroke-width:2.0;opacity:1.0;stroke-linecap:round" />
<line x1="905.0" y1="594.0" x2="905.0" y2="594.0" style="stroke:rgb(164.985,164.985,0.0);stroke-width:2.0;opacity:1.0;stroke-linecap:round" />
<text x="426.3" y="58.5" stroke="#000000" stroke-width="1.2" transform="rotate(-0.0,426.3,58.5)">HISTOGRAM STACKED STEP</text>
<text x="485.65" y="630.4" stroke="#000000" stroke-width="1.2" transform="rotate(-0.0,485.65,630.4)">X</text>
<text x="50.0" y="390.1" stroke="#000000" stroke-width="1.2" transform="rotate(-90.0,50.0,390.1)">Frequency</text>
<rect x="120.0" y="86.0" width="67.880005" height="40.0" style="fill:rgb(255.0,255.0,255.0);stroke-width:2.0;stroke:rgb(0.0,0.0,0.0);opacity:0.7" />
<rect x="128.0" y="94.0" width="8.0" height="8.0" style="fill:rgb(0.0,0.0,255.0);stroke-width:0;stroke:rgb(0,0,0);opacity:1.0" />
<text x="144.0" y="102.0" stroke="#000000" stroke-width="1.2" transform="rotate(-0.0,144.0,102.0)">Plot 1</text>
<rect x="128.0" y="110.0" width="8.0" height="8.0" style="fill:rgb(164.985,164.985,0.0);stroke-width:0;stroke:rgb(0,0,0);opacity:1.0" />
<text x="144.0" y="118.0" stroke="#000000" stroke-width="1.2" transform="rotate(-0.0,144.0,118.0)">Plot 2</text>
</svg>