<svg height="660.0" width="1000.0" version="4.0" xmlns="http://www.w3.org/2000/svg" xmlns:xlink= "http://www.w3.org/1999/xlink">
<rect width="100%" height="100%" fill="white"/>
<line x1="105.0" y1="594.0" x2="105.0" y2="66.0" style="stroke:rgb(127.5,127.5,127.5);stroke-width:0.5;opacity:1.0;stroke-linecap:round" />
<line x1="151.47058" y1="594.0" x2="151.47058" y2="66.0" style="stroke:rgb(127.5,127.5,127.5);stroke-width:0.5;opacity:1.0;stroke-linecap:round" />
<line x1="197.94118" y1="594.0" x2="197.94118" y2="66.0" style="stroke:rgb(127.5,127.5,127.5);stroke-width:0.5;opacity:1.0;stroke-linecap:round" />
<line x1="244.41177" y1="594.0" x2="244.41177" y2="66.0" style="stroke:rgb(127.5,127.5,127.5);stroke-width:0.5;opacity:1.0;stroke-linecap:round" />
<line x1="290.88235" y1="594.0" x2="290.88235" y2="66.0" style="stroke:rgb(127.5,127.5,127.5);stroke-width:0.5;opacity:1.0;stroke-linecap:round" />
<line x1="337.35297" y1="594.0" x2="337.35297" y2="66.0" style="stroke:rgb(127.5,127.5,127.5);stroke-width:0.5;opacity:1.0;stroke-linecap:round" />
<line x1="383.82355" y1="594.0" x2="383.82355" y2="66.0" style="stroke:rgb(127.5,127.5,127.5);stroke-width:0.5;opacity:1.0;stroke-linecap:round" />
<line x1="430.29413" y1="594.0" x2="430.29413" y2="66.0" style="stroke:rgb(127.5,127.5,127.5);stroke-width:0.5;opacity:1.0;stroke-linecap:round" />
<line x1="476.7647" y1="594.0" x2="476.7647" y2="66.0" style="stroke:rgb(127.5,127.5,127.5);stroke-width:0.5;opacity:1.0;stroke-linecap:round" />
<line x1="523.23535" y1="594.0" x2="523.23535" y2="66.0" style="stroke:rgb(127.5,127.5,127.5);stroke-width:0.5;opacity:1.0;stroke-linecap:round" />
<line x1="569.70593" y1="594.0" x2="569.70593" y2="66.0" style="stroke:rgb(127.5,127.5,127.5);stroke-width:0.5;opacity:1.0;stroke-linecap:round" />
<line x1="616.1765" y1="594.0" x2="616.1765" y2="66.0" style="stroke:rgb(127.5,127.5,127.5);stroke-width:0.5;opacity:1.0;stroke-linecap:round" />
<line x1="662.6471" y1="594.0" x2="662.6471" y2="66.0" style="stroke:rgb(127.5,127.5,127.5);stroke-width:0.5;opacity:1.0;stroke-linecap:round" />
<line x1="709.1177" y1="594.0" x2="709.1177" y2="66.0" style="stroke:rgb(127.5,127.5,127.5);stroke-width:0.5;opacity:1.0;stroke-linecap:round" />
<line x1="755.58826" y1="594.0" x2="755.58826" y2="66.0" style="stroke:rgb(127.5,127.5,127.5);stroke-width:0.5;opacity:1.0;stroke-linecap:round" />
<line x1="802.05884" y1="594.0" x2="802.05884" y2="66.0" style="stroke:rgb(127.5,127.5,127.5);stroke-width:0.5;opacity:1.0;stroke-linecap:round" />
<line x1="848.5294" y1="594.0" x2="848.5294" y2="66.0" style="stroke:rgb(127.5,127.5,127.5);stroke-width:0.5;opacity:1.0;stroke-linecap:round" />
<line x1="895.0" y1="594.0" x2="895.0" y2="66.0" style="stroke:rgb(127.5,127.5,127.5);stroke-width:0.5;opacity:1.0;stroke-linecap:round" />
<line x1="100.0" y1="594.0" x2="900.0" y2="594.0" style="stroke:rgb(127.5,127.5,127.5);stroke-width:0.5;opacity:1.0;stroke-linecap:round" />
<line x1="100.0" y1="542.52783" x2="900.0" y2="542.52783" style="stroke:rgb(127.5,127.5,127.5);stroke-width:0.5;opacity:1.0;stroke-linecap:round" />
<line x1="100.0" y1="491.0556" x2="900.0" y2="491.0556" style="stroke:rgb(127.5,127.5,127.5);stroke-width:0.5;opacity:1.0;stroke-linecap:round" />
<line x1="100.0" y1="439.58344" x2="900.0" y2="439.58344" style="stroke:rgb(127.5,127.5,127.5);stroke-width:0.5;opacity:1.0;stroke-linecap:round" />
<line x1="100.0" y1="388.11124" x2="900.0" y2="388.11124" style="stroke:rgb(127.5,127.5,127.5);stroke-width:0.5;opacity:1.0;stroke-linecap:round" />
<line x1="100.0" y1="336.63904" x2="900.0" y2="336.63904" style="stroke:rgb(127.5,127.5,127.5);stroke-width:0.5;opacity:1.0;stroke-linecap:round" />
<line x1="100.0" y1="285.16684" x2="900.0" y2="285.16684" style="stroke:rgb(127.5,127.5,127.5);stroke-width:0.5;opacity:1.0;stroke-linecap:round" />
<line x1="100.0" y1="233.69464" x2="900.0" y2="233.69464" style="stroke:rgb(127.5,127.5,127.5);stroke-width:0.5;opacity:1.0;stroke-linecap:round" />
<line x1="100.0" y1="182.22244" x2="900.0" y2="182.22244" style="stroke:rgb(127.5,127.5,127.5);stroke-width:0.5;opacity:1.0;stroke-linecap:round" />
<line x1="100.0" y1="130.75024" x2="900.0" y2="130.75024" style="stroke:rgb(127.5,127.5,127.5);stroke-width:0.5;opacity:1.0;stroke-linecap:round" />
<line x1="100.0" y1="79.278076" x2="900.0" y2="79.278076" style="stroke:rgb(127.5,127.5,127.5);stroke-width:0.5;opacity:1.0;stroke-linecap:round" />
<rect x="100.0" y="66.0" width="800.0" height="528.0" style="fill:rgb(255,255,255);stroke-width:2.0;stroke:rgb(0,0,0);opacity:1;fill-opacity:0;" />
<line x1="105.0" y1="597.0" x2="105.0" y2="594.0" style="stroke:rgb(0.0,0.0,0.0);stroke-width:2.0;opacity:1.0;stroke-linecap:round" />
<text x="82.14" y="610.0" stroke="#000000" stroke-width="0.7" transform="rotate(-0.0,82.14,610.0)">40.0</text>
<line x1="151.47058" y1="597.0" x2="151.47058" y2="594.0" style="stroke:rgb(0.0,0.0,0.0);stroke-width:2.0;opacity:1.0;stroke-linecap:round" />
<text x="128.6106" y="610.0" stroke="#000000" stroke-width="0.7" transform="rotate(-0.0,128.6106,610.0)">50.0</text>
<line x1="197.94118" y1="597.0" x2="197.94118" y2="594.0" style="stroke:rgb(0.0,0.0,0.0);stroke-width:2.0;opacity:1.0;stroke-linecap:round" />
<text x="175.08118" y="610.0" stroke="#000000" stroke-width="0.7" transform="rotate(-0.0,175.08118,610.0)">60.0</text>
<line x1="244.41177" y1="597.0" x2="244.41177" y2="594.0" style="stroke:rgb(0.0,0.0,0.0);stroke-width:2.0;opacity:1.0;stroke-linecap:round" />
<text x="221.55177" y="610.0" stroke="#000000" stroke-width="0.7" transform="rotate(-0.0,221.55177,610.0)">70.0</text>
<line x1="290.88235" y1="597.0" x2="290.88235" y2="594.0" style="stroke:rgb(0.0,0.0,0.0);stroke-width:2.0;opacity:1.0;stroke-linecap:round" />
<text x="268.02234" y="610.0" stroke="#000000" stroke-width="0.7" transform="rotate(-0.0,268.02234,610.0)">80.0</text>
<line x1="337.35297" y1="597.0" x2="337.35297" y2="594.0" style="stroke:rgb(0.0,0.0,0.0);stroke-width:2.0;opacity:1.0;stroke-linecap:round" />
<text x="314.49295" y="610.0" stroke="#000000" stroke-width="0.7" transform="rotate(-0.0,314.49295,610.0)">90.0</text>
<line x1="383.82355" y1="597.0" x2="383.82355" y2="594.0" style="stroke:rgb(0.0,0.0,0.0);stroke-width:2.0;opacity:1.0;stroke-linecap:round" />
<text x="359.84354" y="610.0" stroke="#000000" stroke-width="0.7" transform="rotate(-0.0,359.84354,610.0)">100.0</text>
<line x1="430.29413" y1="597.0" x2="430.29413" y2="594.0" style="stroke:rgb(0.0,0.0,0.0);stroke-width:2.0;opacity:1.0;stroke-linecap:round" />
<text x="406.63412" y="610.0" stroke="#000000" stroke-width="0.7" transform="rotate(-0.0,406.63412,610.0)">110.0</text>
<line x1="476.7647" y1="597.0" x2="476.7647" y2="594.0" style="stroke:rgb(0.0,0.0,0.0);stroke-width:2.0;opacity:1.0;stroke-linecap:round" />
<text x="452.7847" y="610.0" stroke="#000000" stroke-width="0.7" transform="rotate(-0.0,452.7847,610.0)">120.0</text>
<line x1="523.23535" y1="597.0" x2="523.23535" y2="594.0" style="stroke:rgb(0.0,0.0,0.0);stroke-width:2.0;opacity:1.0;stroke-linecap:round" />
<text x="499.2553" y="610.0" stroke="#000000" stroke-width="0.7" transform="rotate(-0.0,499.2553,610.0)">130.0</text>
<line x1="569.70593" y1="597.0" x2="569.70593" y2="594.0" style="stroke:rgb(0.0,0.0,0.0);stroke-width:2.0;opacity:1.0;stroke-linecap:round" />
<text x="545.7259" y="610.0" stroke="#000000" stroke-width="0.7" transform="rotate(-0.0,545.7259,610.0)">140.0</text>
<line x1="616.1765" y1="597.0" x2="616.1765" y2="594.0" style="stroke:rgb(0.0,0.0,0.0);stroke-width:2.0;opacity:1.0;stroke-linecap:round" />
<text x="592.1965" y="610.0" stroke="#000000" stroke-width="0.7" transform="rotate(-0.0,592.1965,610.0)">150.0</text>
<line x1="662.6471" y1="597.0" x2="662.6471" y2="594.0" style="stroke:rgb(0.0,0.0,0.0);stroke-width:2.0;opacity:1.0;stroke-linecap:round" />
<text x="638.6671" y="610.0" stroke="#000000" stroke-width="0.7" transform="rotate(-0.0,638.6671,610.0)">160.0</text>
<line x1="709.1177" y1="597.0" x2="709.1177" y2="594.0" style="stroke:rgb(0.0,0.0,0.0);stroke-width:2.0;opacity:1.0;stroke-linecap:round" />
<text x="685.1377" y="610.0" stroke="#000000" stroke-width="0.7" transform="rotate(-0.0,685.1377,610.0)">170.0</text>
<line x1="755.58826" y1="597.0" x2="755.58826" y2="594.0" style="stroke:rgb(0.0,0.0,0.0);stroke-width:2.0;opacity:1.0;stroke-linecap:round" />
<text x="731.6083" y="610.0" stroke="#000000" stroke-width="0.7" transform="rotate(-0.0,731.6083,610.0)">180.0</text>
<line x1="802.05884" y1="597.0" x2="802.05884" y2="594.0" style="stroke:rgb(0.0,0.0,0.0);stroke-width:2.0;opacity:1.0;stroke-linecap:round" />
<text x="778.07886" y="610.0" stroke="#000000" stroke-width="0.7" transform="rotate(-0.0,778.07886,610.0)">190.0</text>
<line x1="848.5294" y1="597.0" x2="848.5294" y2="594.0" style="stroke:rgb(0.0,0.0,0.0);stroke-width:2.0;opacity:1.0;stroke-linecap:round" />
<text x="824.22943" y="610.0" stroke="#000000" stroke-width="0.7" transform="rotate(-0.0,824.22943,610.0)">200.0</text>
<line x1="895.0" y1="597.0" x2="895.0" y2="594.0" style="stroke:rgb(0.0,0.0,0.0);stroke-width:2.0;opacity:1.0;stroke-linecap:round" />
<text x="871.02" y="610.0" stroke="#000000" stroke-width="0.7" transform="rotate(-0.0,871.02,610.0)">210.0</text>
<line x1="97.0" y1="594.0" x2="100.0" y2="594.0" style="stroke:rgb(0.0,0.0,0.0);stroke-width:2.0;opacity:1.0;stroke-linecap:round" />
<text x="62.16" y="598.0" stroke="#000000" stroke-width="0.7" transform="rotate(-0.0,62.16,598.0)">0.0</text>
<line x1="97.0" y1="542.52783" x2="100.0" y2="542.52783" style="stroke:rgb(0.0,0.0,0.0);stroke-width:2.0;opacity:1.0;stroke-linecap:round" />
<text x="57.04" y="546.52783" stroke="#000000" stroke-width="0.7" transform="rotate(-0.0,57.04,546.52783)">100.0</text>
<line x1="97.0" y1="491.0556" x2="100.0" y2="491.0556" style="stroke:rgb(0.0,0.0,0.0);stroke-width:2.0;opacity:1.0;stroke-linecap:round" />
<text x="56.4" y="495.0556" stroke="#000000" stroke-width="0.7" transform="rotate(-0.0,56.4,495.0556)">200.0</text>
<line x1="97.0" y1="439.58344" x2="100.0" y2="439.58344" style="stroke:rgb(0.0,0.0,0.0);stroke-width:2.0;opacity:1.0;stroke-linecap:round" />
<text x="56.4" y="443.58344" stroke="#000000" stroke-width="0.7" transform="rotate(-0.0,56.4,443.58344)">300.0</text>
<line x1="97.0" y1="388.11124" x2="100.0" y2="388.11124" style="stroke:rgb(0.0,0.0,0.0);stroke-width:2.0;opacity:1.0;stroke-linecap:round" />
<text x="56.4" y="392.11124" stroke="#000000" stroke-width="0.7" transform="rotate(-0.0,56.4,392.11124)">400.0</text>
<line x1="97.0" y1="336.63904" x2="100.0" y2="336.63904" style="stroke:rgb(0.0,0.0,0.0);stroke-width:2.0;opacity:1.0;stroke-linecap:round" />
<text x="56.4" y="340.63904" stroke="#000000" stroke-width="0.7" transform="rotate(-0.0,56.4,340.63904)">500.0</text>
<line x1="97.0" y1="285.16684" x2="100.0" y2="285.16684" style="stroke:rgb(0.0,0.0,0.0);stroke-width:2.0;opacity:1.0;stroke-linecap:round" />
<text x="56.4" y="289.16684" stroke="#000000" stroke-width="0.7" transform="rotate(-0.0,56.4,289.16684)">600.0</text>
<line x1="97.0" y1="233.69464" x2="100.0" y2="233.69464" style="stroke:rgb(0.0,0.0,0.0);stroke-width:2.0;opacity:1.0;stroke-linecap:round" />
<text x="56.4" y="237.69464" stroke="#000000" stroke-width="0.7" transform="rotate(-0.0,56.4,237.69464)">700.0</text>
<line x1="97.0" y1="182.22244" x2="100.0" y2="182.22244" style="stroke:rgb(0.0,0.0,0.0);stroke-width:2.0;opacity:1.0;stroke-linecap:round" />
<text x="56.4" y="186.22244" stroke="#000000" stroke-width="0.7" transform="rotate(-0.0,56.4,186.22244)">800.0</text>
<line x1="97.0" y1="130.75024" x2="100.0" y2="130.75024" style="stroke:rgb(0.0,0.0,0.0);stroke-width:2.0;opacity:1.0;stroke-linecap:round" />
<text x="56.4" y="134.75024" stroke="#000000" stroke-width="0.7" transform="rotate(-0.0,56.4,134.75024)">900.0</text>
<line x1="97.0" y1="79.278076" x2="100.0" y2="79.278076" style="stroke:rgb(0.0,0.0,0.0);stroke-width:2.0;opacity:1.0;stroke-linecap:round" />
<text x="54.16" y="83.278076" stroke="#000000" stroke-width="0.7" transform="rotate(-0.0,54.16,83.278076)">1000.0</text>
<line x1="105.0" y1="594.0" x2="105.0" y2="594.0" style="stroke:rgb(0.0,0.0,255.0);stroke-width:2.0;opacity:1.0;stroke-linecap:round" />
<line x1="105.0" y1="594.0" x2="105.0" y2="594.0" style="stroke:rgb(164.985,164.985,0.0);stroke-width:2.0;opacity:1.0;stroke-linecap:round" />
<line x1="105.0" y1="594.0" x2="121.0" y2="594.0" style="stroke:rgb(0.0,0.0,255.0);stroke-width:2.0;opacity:1.0;stroke-linecap:round" />
<line x1="121.0" y1="594.0" x2="121.0" y2="591.9411" style="stroke:rgb(0.0,0.0,255.0);stroke-width:2.0;opacity:1.0;stroke-linecap:round" />
<line x1="121.0" y1="591.9411" x2="137.0" y2="591.9411" style="stroke:rgb(0.0,0.0,255.0);stroke-width:2.0;opacity:1.0;stroke-linecap:round" />
<line x1="137.0" y1="591.9411" x2="137.0" y2="591.9411" style="stroke:rgb(0.0,0.0,255.0);stroke-width:2.0;opacity:1.0;stroke-linecap:round" />
<line x1="137.0" y1="591.9411" x2="153.0" y2="591.9411" style="stroke:rgb(0.0,0.0,255.0);stroke-width:2.0;opacity:1.0;stroke-linecap:round" />
<line x1="153.0" y1="591.9411" x2="153.0" y2="588.3381" style="stroke:rgb(0.0,0.0,255.0);stroke-width:2.0;opacity:1.0;stroke-linecap:round" />
<line x1="153.0" y1="588.3381" x2="169.0" y2="588.3381" style="stroke:rgb(0.0,0.0,255.0);stroke-width:2.0;opacity:1.0;stroke-linecap:round" />
<line x1="169.0" y1="588.3381" x2="169.0" y2="589.8822" style="stroke:rgb(0.0,0.0,255.0);stroke-width:2.0;opacity:1.0;stroke-linecap:round" />
<line x1="169.0" y1="589.8822" x2="185.0" y2="589.8822" style="stroke:rgb(0.0,0.0,255.0);stroke-width:2.0;opacity:1.0;stroke-linecap:round" />
<line x1="185.0" y1="589.8822" x2="185.0" y2="582.1614" style="stroke:rgb(0.0,0.0,255.0);stroke-width:2.0;opacity:1.0;stroke-linecap:round" />
<line x1="185.0" y1="582.1614" x2="201.0" y2="582.1614" style="stroke:rgb(0.0,0.0,255.0);stroke-width:2.0;opacity:1.0;stroke-linecap:round" />
<line x1="201.0" y1="582.1614" x2="201.0" y2="572.8964" style="stroke:rgb(0.0,0.0,255.0);stroke-width:2.0;opacity:1.0;stroke-linecap:round" />
<line x1="201.0" y1="572.8964" x2="217.0" y2="572.8964" style="stroke:rgb(0.0,0.0,255.0);stroke-width:2.0;opacity:1.0;stroke-linecap:round" />
<line x1="217.0" y1="572.8964" x2="217.0" y2="556.94" style="stroke:rgb(0.0,0.0,255.0);stroke-width:2.0;opacity:1.0;stroke-linecap:round" />
<line x1="217.0" y1="556.94" x2="233.0" y2="556.94" style="stroke:rgb(0.0,0.0,255.0);stroke-width:2.0;opacity:1.0;stroke-linecap:round" />
<line x1="233.0" y1="556.94" x2="233.0" y2="539.43945" style="stroke:rgb(0.0,0.0,255.0);stroke-width:2.0;opacity:1.0;stroke-linecap:round" />
<line x1="233.0" y1="539.43945" x2="249.0" y2="539.43945" style="stroke:rgb(0.0,0.0,255.0);stroke-width:2.0;opacity:1.0;stroke-linecap:round" />
<line x1="249.0" y1="539.43945" x2="249.0" y2="511.12976" style="stroke:rgb(0.0,0.0,255.0);stroke-width:2.0;opacity:1.0;stroke-linecap:round" />
<line x1="249.0" y1="511.12976" x2="265.0" y2="511.12976" style="stroke:rgb(0.0,0.0,255.0);stroke-width:2.0;opacity:1.0;stroke-linecap:round" />
<line x1="265.0" y1="511.12976" x2="265.0" y2="471.4962" style="stroke:rgb(0.0,0.0,255.0);stroke-width:2.0;opacity:1.0;stroke-linecap:round" />
<line x1="265.0" y1="471.4962" x2="281.0" y2="471.4962" style="stroke:rgb(0.0,0.0,255.0);stroke-width:2.0;opacity:1.0;stroke-linecap:round" />
<line x1="281.0" y1="471.4962" x2="281.0" y2="431.8626" style="stroke:rgb(0.0,0.0,255.0);stroke-width:2.0;opacity:1.0;stroke-linecap:round" />
<line x1="281.0" y1="431.8626" x2="297.0" y2="431.8626" style="stroke:rgb(0.0,0.0,255.0);stroke-width:2.0;opacity:1.0;stroke-linecap:round" />
<line x1="297.0" y1="431.8626" x2="297.0" y2="349.50708" style="stroke:rgb(0.0,0.0,255.0);stroke-width:2.0;opacity:1.0;stroke-linecap:round" />
<line x1="281.0" y1="431.34787" x2="297.0" y2="431.34787" style="stroke:rgb(164.985,164.985,0.0);stroke-width:2.0;opacity:1.0;stroke-linecap:round" />
<line x1="297.0" y1="431.34787" x2="297.0" y2="349.50708" style="stroke:rgb(164.985,164.985,0.0);stroke-width:2.0;opacity:1.0;stroke-linecap:round" />
<line x1="297.0" y1="349.50708" x2="313.0" y2="349.50708" style="stroke:rgb(0.0,0.0,255.0);stroke-width:2.0;opacity:1.0;stroke-linecap:round" />
<line x1="313.0" y1="349.50708" x2="313.0" y2="281.04907" style="stroke:rgb(0.0,0.0,255.0);stroke-width:2.0;opacity:1.0;stroke-linecap:round" />
<line x1="313.0" y1="281.04907" x2="329.0" y2="281.04907" style="stroke:rgb(0.0,0.0,255.0);stroke-width:2.0;opacity:1.0;stroke-linecap:round" />
<line x1="329.0" y1="281.04907" x2="329.0" y2="225.97382" style="stroke:rgb(0.0,0.0,255.0);stroke-width:2.0;opacity:1.0;stroke-linecap:round" />
<line x1="329.0" y1="225.97382" x2="345.0" y2="225.97382" style="stroke:rgb(0.0,0.0,255.0);stroke-width:2.0;opacity:1.0;stroke-linecap:round" />
<line x1="345.0" y1="225.97382" x2="345.0" y2="179.13412" style="stroke:rgb(0.0,0.0,255.0);stroke-width:2.0;opacity:1.0;stroke-linecap:round" />
<line x1="345.0" y1="179.13412" x2="361.0" y2="179.13412" style="stroke:rgb(0.0,0.0,255.0);stroke-width:2.0;opacity:1.0;stroke-linecap:round" />
<line x1="361.0" y1="179.13412" x2="361.0" y2="130.23553" style="stroke:rgb(0.0,0.0,255.0);stroke-width:2.0;opacity:1.0;stroke-linecap:round" />
<line x1="361.0" y1="130.23553" x2="377.0" y2="130.23553" style="stroke:rgb(0.0,0.0,255.0);stroke-width:2.0;opacity:1.0;stroke-linecap:round" />
<line x1="377.0" y1="130.23553" x2="377.0" y2="132.80914" style="stroke:rgb(0.0,0.0,255.0);stroke-width:2.0;opacity:1.0;stroke-linecap:round" />
<line x1="361.0" y1="129.72083" x2="377.0" y2="129.72083" style="stroke:rgb(164.985,164.985,0.0);stroke-width:2.0;opacity:1.0;stroke-linecap:round" />
<line x1="377.0" y1="129.72083" x2="377.0" y2="130.75024" style="stroke:rgb(164.985,164.985,0.0);stroke-width:2.0;opacity:1.0;stroke-linecap:round" />
<line x1="377.0" y1="132.80914" x2="393.0" y2="132.80914" style="stroke:rgb(0.0,0.0,255.0);stroke-width:2.0;opacity:1.0;stroke-linecap:round" />
<line x1="393.0" y1="132.80914" x2="393.0" y2="124.57361" style="stroke:rgb(0.0,0.0,255.0);stroke-width:2.0;opacity:1.0;stroke-linecap:round" />
<line x1="377.0" y1="130.75024" x2="393.0" y2="130.75024" style="stroke:rgb(164.985,164.985,0.0);stroke-width:2.0;opacity:1.0;stroke-linecap:round" />
<line x1="393.0" y1="130.75024" x2="393.0" y2="122.0" style="stroke:rgb(164.985,164.985,0.0);stroke-width:2.0;opacity:1.0;stroke-linecap:round" />
<line x1="393.0" y1="124.57361" x2="409.0" y2="124.57361" style="stroke:rgb(0.0,0.0,255.0);stroke-width:2.0;opacity:1.0;stroke-linecap:round" />
<line x1="409.0" y1="124.57361" x2="409.0" y2="175.01636" style="stroke:rgb(0.0,0.0,255.0);stroke-width:2.0;opacity:1.0;stroke-linecap:round" />
<line x1="393.0" y1="122.0" x2="409.0" y2="122.0" style="stroke:rgb(164.985,164.985,0.0);stroke-width:2.0;opacity:1.0;stroke-linecap:round" />
<line x1="409.0" y1="122.0" x2="409.0" y2="167.29553" style="stroke:rgb(164.985,164.985,0.0);stroke-width:2.0;opacity:1.0;stroke-linecap:round" />
<line x1="409.0" y1="175.01636" x2="425.0" y2="175.01636" style="stroke:rgb(0.0,0.0,255.0);stroke-width:2.0;opacity:1.0;stroke-linecap:round" />
<line x1="425.0" y1="175.01636" x2="425.0" y2="217.22354" style="stroke:rgb(0.0,0.0,255.0);stroke-width:2.0;opacity:1.0;stroke-linecap:round" />
<line x1="409.0" y1="167.29553" x2="425.0" y2="167.29553" style="stroke:rgb(164.985,164.985,0.0);stroke-width:2.0;opacity:1.0;stroke-linecap:round" />
<line x1="425.0" y1="167.29553" x2="425.0" y2="203.84076" style="stroke:rgb(164.985,164.985,0.0);stroke-width:2.0;opacity:1.0;stroke-linecap:round" />
<line x1="425.0" y1="217.22354" x2="441.0" y2="217.22354" style="stroke:rgb(0.0,0.0,255.0);stroke-width:2.0;opacity:1.0;stroke-linecap:round" />
<line x1="441.0" y1="217.22354" x2="441.0" y2="275.38712" style="stroke:rgb(0.0,0.0,255.0);stroke-width:2.0;opacity:1.0;stroke-linecap:round" />
<line x1="425.0" y1="203.84076" x2="441.0" y2="203.84076" style="stroke:rgb(164.985,164.985,0.0);stroke-width:2.0;opacity:1.0;stroke-linecap:round" />
<line x1="441.0" y1="203.84076" x2="441.0" y2="255.31296" style="stroke:rgb(164.985,164.985,0.0);stroke-width:2.0;opacity:1.0;stroke-linecap:round" />
<line x1="441.0" y1="275.38712" x2="457.0" y2="275.38712" style="stroke:rgb(0.0,0.0,255.0);stroke-width:2.0;opacity:1.0;stroke-linecap:round" />
<line x1="457.0" y1="275.38712" x2="457.0" y2="339.72736" style="stroke:rgb(0.0,0.0,255.0);stroke-width:2.0;opacity:1.0;stroke-linecap:round" />
<line x1="441.0" y1="255.31296" x2="457.0" y2="255.31296" style="stroke:rgb(164.985,164.985,0.0);stroke-width:2.0;opacity:1.0;stroke-linecap:round" />
<line x1="457.0" y1="255.31296" x2="457.0" y2="297.00546" style="stroke:rgb(164.985,164.985,0.0);stroke-width:2.0;opacity:1.0;stroke-linecap:round" />
<line x1="457.0" y1="339.72736" x2="473.0" y2="339.72736" style="stroke:rgb(0.0,0.0,255.0);stroke-width:2.0;opacity:1.0;stroke-linecap:round" />
<line x1="473.0" y1="339.72736" x2="473.0" y2="427.7448" style="stroke:rgb(0.0,0.0,255.0);stroke-width:2.0;opacity:1.0;stroke-linecap:round" />
<line x1="457.0" y1="297.00546" x2="473.0" y2="297.00546" style="stroke:rgb(164.985,164.985,0.0);stroke-width:2.0;opacity:1.0;stroke-linecap:round" />
<line x1="473.0" y1="297.00546" x2="473.0" y2="365.97818" style="stroke:rgb(164.985,164.985,0.0);stroke-width:2.0;opacity:1.0;stroke-linecap:round" />
<line x1="473.0" y1="427.7448" x2="489.0" y2="427.7448" style="stroke:rgb(0.0,0.0,255.0);stroke-width:2.0;opacity:1.0;stroke-linecap:round" />
<line x1="489.0" y1="427.7448" x2="489.0" y2="465.31952" style="stroke:rgb(0.0,0.0,255.0);stroke-width:2.0;opacity:1.0;stroke-linecap:round" />
<line x1="473.0" y1="365.97818" x2="489.0" y2="365.97818" style="stroke:rgb(164.985,164.985,0.0);stroke-width:2.0;opacity:1.0;stroke-linecap:round" />
<line x1="489.0" y1="365.97818" x2="489.0" y2="375.7579" style="stroke:rgb(164.985,164.985,0.0);stroke-width:2.0;opacity:1.0;stroke-linecap:round" />
<line x1="489.0" y1="465.31952" x2="505.0" y2="465.31952" style="stroke:rgb(0.0,0.0,255.0);stroke-width:2.0;opacity:1.0;stroke-linecap:round" />
<line x1="505.0" y1="465.31952" x2="505.0" y2="507.52673" style="stroke:rgb(0.0,0.0,255.0);stroke-width:2.0;opacity:1.0;stroke-linecap:round" />
<line x1="489.0" y1="375.7579" x2="505.0" y2="375.7579" style="stroke:rgb(164.985,164.985,0.0);stroke-width:2.0;opacity:1.0;stroke-linecap:round" />
<line x1="505.0" y1="375.7579" x2="505.0" y2="345.3893" style="stroke:rgb(164.985,164.985,0.0);stroke-width:2.0;opacity:1.0;stroke-linecap:round" />
<line x1="505.0" y1="507.52673" x2="521.0" y2="507.52673" style="stroke:rgb(0.0,0.0,255.0);stroke-width:2.0;opacity:1.0;stroke-linecap:round" />
<line x1="521.0" y1="507.52673" x2="521.0" y2="529.145" style="stroke:rgb(0.0,0.0,255.0);stroke-width:2.0;opacity:1.0;stroke-linecap:round" />
<line x1="505.0" y1="345.3893" x2="521.0" y2="345.3893" style="stroke:rgb(164.985,164.985,0.0);stroke-width:2.0;opacity:1.0;stroke-linecap:round" />
<line x1="521.0" y1="345.3893" x2="521.0" y2="347.44818" style="stroke:rgb(164.985,164.985,0.0);stroke-width:2.0;opacity:1.0;stroke-linecap:round" />
<line x1="521.0" y1="529.145" x2="537.0" y2="529.145" style="stroke:rgb(0.0,0.0,255.0);stroke-width:2.0;opacity:1.0;stroke-linecap:round" />
<line x1="537.0" y1="529.145" x2="537.0" y2="553.337" style="stroke:rgb(0.0,0.0,255.0);stroke-width:2.0;opacity:1.0;stroke-linecap:round" />
<line x1="521.0" y1="347.44818" x2="537.0" y2="347.44818" style="stroke:rgb(164.985,164.985,0.0);stroke-width:2.0;opacity:1.0;stroke-linecap:round" />
<line x1="537.0" y1="347.44818" x2="537.0" y2="298.54962" style="stroke:rgb(164.985,164.985,0.0);stroke-width:2.0;opacity:1.0;stroke-linecap:round" />
<line x1="537.0" y1="553.337" x2="553.0" y2="553.337" style="stroke:rgb(0.0,0.0,255.0);stroke-width:2.0;opacity:1.0;stroke-linecap:round" />
<line x1="553.0" y1="553.337" x2="553.0" y2="564.6608" style="stroke:rgb(0.0,0.0,255.0);stroke-width:2.0;opacity:1.0;stroke-linecap:round" />
<line x1="537.0" y1="298.54962" x2="553.0" y2="298.54962" style="stroke:rgb(164.985,164.985,0.0);stroke-width:2.0;opacity:1.0;stroke-linecap:round" />
<line x1="553.0" y1="298.54962" x2="553.0" y2="270.23993" style="stroke:rgb(164.985,164.985,0.0);stroke-width:2.0;opacity:1.0;stroke-linecap:round" />
<line x1="553.0" y1="564.6608" x2="569.0" y2="564.6608" style="stroke:rgb(0.0,0.0,255.0);stroke-width:2.0;opacity:1.0;stroke-linecap:round" />
<line x1="569.0" y1="564.6608" x2="569.0" y2="582.1614" style="stroke:rgb(0.0,0.0,255.0);stroke-width:2.0;opacity:1.0;stroke-linecap:round" />
<line x1="553.0" y1="270.23993" x2="569.0" y2="270.23993" style="stroke:rgb(164.985,164.985,0.0);stroke-width:2.0;opacity:1.0;stroke-linecap:round" />
<line x1="569.0" y1="270.23993" x2="569.0" y2="181.70773" style="stroke:rgb(164.985,164.985,0.0);stroke-width:2.0;opacity:1.0;stroke-linecap:round" />
<line x1="569.0" y1="582.1614" x2="585.0" y2="582.1614" style="stroke:rgb(0.0,0.0,255.0);stroke-width:2.0;opacity:1.0;stroke-linecap:round" />
<line x1="585.0" y1="582.1614" x2="585.0" y2="588.3381" style="stroke:rgb(0.0,0.0,255.0);stroke-width:2.0;opacity:1.0;stroke-linecap:round" />
<line x1="569.0" y1="181.70773" x2="585.0" y2="181.70773" style="stroke:rgb(164.985,164.985,0.0);stroke-width:2.0;opacity:1.0;stroke-linecap:round" />
<line x1="585.0" y1="181.70773" x2="585.0" y2="153.39804" style="stroke:rgb(164.985,164.985,0.0);stroke-width:2.0;opacity:1.0;stroke-linecap:round" />
<line x1="585.0" y1="588.3381" x2="601.0" y2="588.3381" style="stroke:rgb(0.0,0.0,255.0);stroke-width:2.0;opacity:1.0;stroke-linecap:round" />
<line x1="601.0" y1="588.3381" x2="601.0" y2="593.4853" style="stroke:rgb(0.0,0.0,255.0);stroke-width:2.0;opacity:1.0;stroke-linecap:round" />
<line x1="585.0" y1="153.39804" x2="601.0" y2="153.39804" style="stroke:rgb(164.985,164.985,0.0);stroke-width:2.0;opacity:1.0;stroke-linecap:round" />
<line x1="601.0" y1="153.39804" x2="601.0" y2="136.41223" style="stroke:rgb(164.985,164.985,0.0);stroke-width:2.0;opacity:1.0;stroke-linecap:round" />
<line x1="601.0" y1="593.4853" x2="617.0" y2="593.4853" style="stroke:rgb(0.0,0.0,255.0);stroke-width:2.0;opacity:1.0;stroke-linecap:round" />
<line x1="617.0" y1="593.4853" x2="617.0" y2="592.4558" style="stroke:rgb(0.0,0.0,255.0);stroke-width:2.0;opacity:1.0;stroke-linecap:round" />
<line x1="601.0" y1="136.41223" x2="617.0" y2="136.41223" style="stroke:rgb(164.985,164.985,0.0);stroke-width:2.0;opacity:1.0;stroke-linecap:round" />
<line x1="617.0" y1="136.41223" x2="617.0" y2="134.86804" style="stroke:rgb(164.985,164.985,0.0);stroke-width:2.0;opacity:1.0;stroke-linecap:round" />
<line x1="617.0" y1="592.4558" x2="633.0" y2="592.4558" style="stroke:rgb(0.0,0.0,255.0);stroke-width:2.0;opacity:1.0;stroke-linecap:round" />
<line x1="633.0" y1="592.4558" x2="633.0" y2="591.9411" style="stroke:rgb(0.0,0.0,255.0);stroke-width:2.0;opacity:1.0;stroke-linecap:round" />
<line x1="617.0" y1="134.86804" x2="633.0" y2="134.86804" style="stroke:rgb(164.985,164.985,0.0);stroke-width:2.0;opacity:1.0;stroke-linecap:round" />
<line x1="633.0" y1="134.86804" x2="633.0" y2="138.47107" style="stroke:rgb(164.985,164.985,0.0);stroke-width:2.0;opacity:1.0;stroke-linecap:round" />
<line x1="633.0" y1="591.9411" x2="649.0" y2="591.9411" style="stroke:rgb(0.0,0.0,255.0);stroke-width:2.0;opacity:1.0;stroke-linecap:round" />
<line x1="649.0" y1="591.9411" x2="649.0" y2="594.0" style="stroke:rgb(0.0,0.0,255.0);stroke-width:2.0;opacity:1.0;stroke-linecap:round" />
<line x1="633.0" y1="138.47107" x2="649.0" y2="138.47107" style="stroke:rgb(164.985,164.985,0.0);stroke-width:2.0;opacity:1.0;stroke-linecap:round" />
<line x1="649.0" y1="138.47107" x2="649.0" y2="185.31079" style="stroke:rgb(164.985,164.985,0.0);stroke-width:2.0;opacity:1.0;stroke-linecap:round" />
<line x1="649.0" y1="594.0" x2="665.0" y2="594.0" style="stroke:rgb(0.0,0.0,255.0);stroke-width:2.0;opacity:1.0;stroke-linecap:round" />
<line x1="665.0" y1="594.0" x2="665.0" y2="594.0" style="stroke:rgb(0.0,0.0,255.0);stroke-width:2.0;opacity:1.0;stroke-linecap:round" />
<line x1="649.0" y1="185.31079" x2="665.0" y2="185.31079" style="stroke:rgb(164.985,164.985,0.0);stroke-width:2.0;opacity:1.0;stroke-linecap:round" />
<line x1="665.0" y1="185.31079" x2="665.0" y2="233.17993" style="stroke:rgb(164.985,164.985,0.0);stroke-width:2.0;opacity:1.0;stroke-linecap:round" />
<line x1="665.0" y1="594.0" x2="681.0" y2="594.0" style="stroke:rgb(0.0,0.0,255.0);stroke-width:2.0;opacity:1.0;stroke-linecap:round" />
<line x1="681.0" y1="594.0" x2="681.0" y2="594.0" style="stroke:rgb(0.0,0.0,255.0);stroke-width:2.0;opacity:1.0;stroke-linecap:round" />
<line x1="665.0" y1="233.17993" x2="681.0" y2="233.17993" style="stroke:rgb(164.985,164.985,0.0);stroke-width:2.0;opacity:1.0;stroke-linecap:round" />
<line x1="681.0" y1="233.17993" x2="681.0" y2="292.88766" style="stroke:rgb(164.985,164.985,0.0);stroke-width:2.0;opacity:1.0;stroke-linecap:round" />
<line x1="681.0" y1="594.0" x2="697.0" y2="594.0" style="stroke:rgb(0.0,0.0,255.0);stroke-width:2.0;opacity:1.0;stroke-linecap:round" />
<line x1="697.0" y1="594.0" x2="697.0" y2="594.0" style="stroke:rgb(0.0,0.0,255.0);stroke-width:2.0;opacity:1.0;stroke-linecap:round" />
<line x1="681.0" y1="292.88766" x2="697.0" y2="292.88766" style="stroke:rgb(164.985,164.985,0.0);stroke-width:2.0;opacity:1.0;stroke-linecap:round" />
<line x1="697.0" y1="292.88766" x2="697.0" y2="357.2279" style="stroke:rgb(164.985,164.985,0.0);stroke-width:2.0;opacity:1.0;stroke-linecap:round" />
<line x1="697.0" y1="594.0" x2="713.0" y2="594.0" style="stroke:rgb(0.0,0.0,255.0);stroke-width:2.0;opacity:1.0;stroke-linecap:round" />
<line x1="713.0" y1="594.0" x2="713.0" y2="594.0" style="stroke:rgb(0.0,0.0,255.0);stroke-width:2.0;opacity:1.0;stroke-linecap:round" />
<line x1="697.0" y1="357.2279" x2="713.0" y2="357.2279" style="stroke:rgb(164.985,164.985,0.0);stroke-width:2.0;opacity:1.0;stroke-linecap:round" />
<line x1="713.0" y1="357.2279" x2="713.0" y2="417.9651" style="stroke:rgb(164.985,164.985,0.0);stroke-width:2.0;opacity:1.0;stroke-linecap:round" />
<line x1="713.0" y1="594.0" x2="729.0" y2="594.0" style="stroke:rgb(0.0,0.0,255.0);stroke-width:2.0;opacity:1.0;stroke-linecap:round" />
<line x1="729.0" y1="594.0" x2="729.0" y2="594.0" style="stroke:rgb(0.0,0.0,255.0);stroke-width:2.0;opacity:1.0;stroke-linecap:round" />
<line x1="713.0" y1="417.9651" x2="729.0" y2="417.9651" style="stroke:rgb(164.985,164.985,0.0);stroke-width:2.0;opacity:1.0;stroke-linecap:round" />
<line x1="729.0" y1="417.9651" x2="729.0" y2="473.04034" style="stroke:rgb(164.985,164.985,0.0);stroke-width:2.0;opacity:1.0;stroke-linecap:round" />
<line x1="729.0" y1="594.0" x2="745.0" y2="594.0" style="stroke:rgb(0.0,0.0,255.0);stroke-width:2.0;opacity:1.0;stroke-linecap:round" />
<line x1="745.0" y1="594.0" x2="745.0" y2="594.0" style="stroke:rgb(0.0,0.0,255.0);stroke-width:2.0;opacity:1.0;stroke-linecap:round" />
<line x1="729.0" y1="473.04034" x2="745.0" y2="473.04034" style="stroke:rgb(164.985,164.985,0.0);stroke-width:2.0;opacity:1.0;stroke-linecap:round" />
<line x1="745.0" y1="473.04034" x2="745.0" y2="506.49725" style="stroke:rgb(164.985,164.985,0.0);stroke-width:2.0;opacity:1.0;stroke-linecap:round" />
<line x1="745.0" y1="594.0" x2="761.0" y2="594.0" style="stroke:rgb(0.0,0.0,255.0);stroke-width:2.0;opacity:1.0;stroke-linecap:round" />
<line x1="761.0" y1="594.0" x2="761.0" y2="594.0" style="stroke:rgb(0.0,0.0,255.0);stroke-width:2.0;opacity:1.0;stroke-linecap:round" />
<line x1="745.0" y1="506.49725" x2="761.0" y2="506.49725" style="stroke:rgb(164.985,164.985,0.0);stroke-width:2.0;opacity:1.0;stroke-linecap:round" />
<line x1="761.0" y1="506.49725" x2="761.0" y2="550.76337" style="stroke:rgb(164.985,164.985,0.0);stroke-width:2.0;opacity:1.0;stroke-linecap:round" />
<line x1="761.0" y1="594.0" x2="777.0" y2="594.0" style="stroke:rgb(0.0,0.0,255.0);stroke-width:2.0;opacity:1.0;stroke-linecap:round" />
<line x1="777.0" y1="594.0" x2="777.0" y2="594.0" style="stroke:rgb(0.0,0.0,255.0);stroke-width:2.0;opacity:1.0;stroke-linecap:round" />
<line x1="761.0" y1="550.76337" x2="777.0" y2="550.76337" style="stroke:rgb(164.985,164.985,0.0);stroke-width:2.0;opacity:1.0;stroke-linecap:round" />
<line x1="777.0" y1="550.76337" x2="777.0" y2="565.6903" style="stroke:rgb(164.985,164.985,0.0);stroke-width:2.0;opacity:1.0;stroke-linecap:round" />
<line x1="777.0" y1="594.0" x2="793.0" y2="594.0" style="stroke:rgb(0.0,0.0,255.0);stroke-width:2.0;opacity:1.0;stroke-linecap:round" />
<line x1="793.0" y1="594.0" x2="793.0" y2="594.0" style="stroke:rgb(0.0,0.0,255.0);stroke-width:2.0;opacity:1.0;stroke-linecap:round" />
<line x1="777.0" y1="565.6903" x2="793.0" y2="565.6903" style="stroke:rgb(164.985,164.985,0.0);stroke-width:2.0;opacity:1.0;stroke-linecap:round" />
<line x1="793.0" y1="565.6903" x2="793.0" y2="570.3228" style="stroke:rgb(164.985,164.985,0.0);stroke-width:2.0;opacity:1.0;stroke-linecap:round" />
<line x1="793.0" y1="594.0" x2="809.0" y2="594.0" style="stroke:rgb(0.0,0.0,255.0);stroke-width:2.0;opacity:1.0;stroke-linecap:round" />
<line x1="809.0" y1="594.0" x2="809.0" y2="594.0" style="stroke:rgb(0.0,0.0,255.0);stroke-width:2.0;opacity:1.0;stroke-linecap:round" />
<line x1="793.0" y1="570.3228" x2="809.0" y2="570.3228" style="stroke:rgb(164.985,164.985,0.0);stroke-width:2.0;opacity:1.0;stroke-linecap:round" />
<line x1="809.0" y1="570.3228" x2="809.0" y2="583.19086" style="stroke:rgb(164.985,164.985,0.0);stroke-width:2.0;opacity:1.0;stroke-linecap:round" />
<line x1="809.0" y1="594.0" x2="825.0" y2="594.0" style="stroke:rgb(0.0,0.0,255.0);stroke-width:2.0;opacity:1.0;stroke-linecap:round" />
<line x1="825.0" y1="594.0" x2="825.0" y2="594.0" style="stroke:rgb(0.0,0.0,255.0);stroke-width:2.0;opacity:1.0;stroke-linecap:round" />
<line x1="809.0" y1="583.19086" x2="825.0" y2="583.19086" style="stroke:rgb(164.985,164.985,0.0);stroke-width:2.0;opacity:1.0;stroke-linecap:round" />
<line x1="825.0" y1="583.19086" x2="825.0" y2="588.3381" style="stroke:rgb(164.985,164.985,0.0);stroke-width:2.0;opacity:1.0;stroke-linecap:round" />
<line x1="825.0" y1="594.0" x2="841.0" y2="594.0" style="stroke:rgb(0.0,0.0,255.0);stroke-width:2.0;opacity:1.0;stroke-linecap:round" />
<line x1="841.0" y1="594.0" x2="841.0" y2="594.0" style="stroke:rgb(0.0,0.0,255.0);stroke-width:2.0;opacity:1.0;stroke-linecap:round" />
<line x1="825.0" y1="588.3381" x2="841.0" y2="588.3381" style="stroke:rgb(164.985,164.985,0.0);stroke-width:2.0;opacity:1.0;stroke-linecap:round" />
<line x1="841.0" y1="588.3381" x2="841.0" y2="591.4264" style="stroke:rgb(164.985,164.985,0.0);stroke-width:2.0;opacity:1.0;stroke-linecap:round" />
<line x1="841.0" y1="594.0" x2="857.0" y2="594.0" style="stroke:rgb(0.0,0.0,255.0);stroke-width:2.0;opacity:1.0;stroke-linecap:round" />
<line x1="857.0" y1="594.0" x2="857.0" y2="594.0" style="stroke:rgb(0.0,0.0,255.0);stroke-width:2.0;opacity:1.0;stroke-linecap:round" />
<line x1="841.0" y1="591.4264" x2="857.0" y2="591.4264" style="stroke:rgb(164.985,164.985,0.0);stroke-width:2.0;opacity:1.0;stroke-linecap:round" />
<line x1="857.0" y1="591.4264" x2="857.0" y2="591.9411" style="stroke:rgb(164.985,164.985,0.0);stroke-width:2.0;opacity:1.0;stroke-linecap:round" />
<line x1="857.0" y1="594.0" x2="873.0" y2="594.0" style="stroke:rgb(0.0,0.0,255.0);stroke-width:2.0;opacity:1.0;stroke-linecap:round" />
<line x1="873.0" y1="594.0" x2="873.0" y2="594.0" style="stroke:rgb(0.0,0.0,255.0);stroke-width:2.0;opacity:1.0;stroke-linecap:round" />
<line x1="857.0" y1="591.9411" x2="873.0" y2="591.9411" style="stroke:rgb(164.985,164.985,0.0);stroke-width:2.0;opacity:1.0;stroke-linecap:round" />
<line x1="873.0" y1="591.9411" x2="873.0" y2="592.4558" style="stroke:rgb(164.985,164.985,0.0);stroke-width:2.0;opacity:1.0;stroke-linecap:round" />
<line x1="873.0" y1="594.0" x2="889.0" y2="594.0" style="stroke:rgb(0.0,0.0,255.0);stroke-width:2.0;opacity:1.0;stroke-linecap:round" />
<line x1="889.0" y1="594.0" x2="889.0" y2="594.0" style="stroke:rgb(0.0,0.0,255.0);stroke-width:2.0;opacity:1.0;stroke-linecap:round" />
<line x1="873.0" y1="592.4558" x2="889.0" y2="592.4558" style="stroke:rgb(164.985,164.985,0.0);stroke-width:2.0;opacity:1.0;stroke-linecap:round" />
<line x1="889.0" y1="592.4558" x2="889.0" y2="594.0" style="stroke:rgb(164.985,164.985,0.0);stroke-width:2.0;opacity:1.0;stroke-linecap:round" />
<line x1="889.0" y1="594.0" x2="905.0" y2="594.0" style="stroke:rgb(0.0,0.0,255.0);stroke-width:2.0;opacity:1.0;stroke-linecap:round" />
<line x1="905.0" y1="594.0" x2="905.0" y2="594.0" style="stroke:rgb(0.0,0.0,255.0);stroke-width:2.0;opacity:1.0;stroke-linecap:round" />
<line x1="905.0" y1="594.0" x2="905.0" y2="594.0" style="stroke:rgb(164.985,164.985,0.0);stroke-width:2.0;opacity:1.0;stroke-linecap:round" />
<text x="426.3" y="58.5" stroke="#000000" stroke-width="1.2" transform="rotate(-0.0,426.3,58.5)">HISTOGRAM STACKED STEP</text>
<text x="485.65" y="630.4" stroke="#000000" stroke-width="1.2" transform="rotate(-0.0,485.65,630.4)">X</text>
<text x="50.0" y="390.1" stroke="#000000" stroke-width="1.2" transform="rotate(-90.0,50.0,390.1)">Frequency</text>
<rect x="120.0" y="86.0" width="67.880005" height="40.0" style="fill:rgb(255.0,255.0,255.0);stroke-width:2.0;stroke:rgb(0.0,0.0,0.0);opacity:0.7" />
<rect x="128.0" y="94.0" width="8.0" height="8.0" style="fill:rgb(0.0,0.0,255.0);stroke-width:0;stroke:rgb(0,0,0);opacity:1.0" />
<text x="144.0" y="102.0" stroke="#000000" stroke-width="1.2" transform="rotate(-0.0,144.0,102.0)">Plot 1</text>
<rect x="128.0" y="110.0" width="8.0" height="8.0" style="fill:rgb(164.985,164.985,0.0);stroke-width:0;stroke:rgb(0,0,0);opacity:1.0" />
<text x="144.0" y="118.0" stroke="#000000" stroke-width="1.2" transform="rotate(-0.0,144.0,118.0)">Plot 2</text>
</svg>