<svg height="660.0" width="1000.0" version="4.0" xmlns="http://www.w3.org/2000/svg" xmlns:xlink= "http://www.w3.org/1999/xlink">
<rect width="100%" height="100%" fill="white"/>
<defs><style>@import url("https://fonts.googleapis.com/css?family=Roboto");</style></defs>
<line x1="105.0" y1="594.0" x2="105.0" y2="66.0" style="stroke:rgb(127.5,127.5,127.5);stroke-width:0.5;opacity:1.0;stroke-linecap:round" />
<line x1="151.47058" y1="594.0" x2="151.47058" y2="66.0" style="stroke:rgb(127.5,127.5,127.5);stroke-width:0.5;opacity:1.0;stroke-linecap:round" />
<line x1="197.94118" y1="594.0" x2="197.94118" y2="66.0" style="stroke:rgb(127.5,127.5,127.5);stroke-width:0.5;opacity:1.0;stroke-linecap:round" />
<line x1="244.41177" y1="594.0" x2="244.41177" y2="66.0" style="stroke:rgb(127.5,127.5,127.5);stroke-width:0.5;opacity:1.0;stroke-linecap:round" />
<line x1="290.88235" y1="594.0" x2="290.88235" y2="66.0" style="stroke:rgb(127.5,127.5,127.5);stroke-width:0.5;opacity:1.0;stroke-linecap:round" />
<line x1="337.35297" y1="594.0" x2="337.35297" y2="66.0" style="stroke:rgb(127.5,127.5,127.5);stroke-width:0.5;opacity:1.0;stroke-linecap:round" />
<line x1="383.82355" y1="594.0" x2="383.82355" y2="66.0" style="stroke:rgb(127.5,127.5,127.5);stroke-width:0.5;opacity:1.0;stroke-linecap:round" />
<line x1="430.29413" y1="594.0" x2="430.29413" y2="66.0" style="stroke:rgb(127.5,127.5,127.5);stroke-width:0.5;opacity:1.0;stroke-linecap:round" />
<line x1="476.7647" y1="594.0" x2="476.7647" y2="66.0" style="stroke:rgb(127.5,127.5,127.5);stroke-width:0.5;opacity:1.0;stroke-linecap:round" />
<line x1="523.23535" y1="594.0" x2="523.23535" y2="66.0" style="stroke:rgb(127.5,127.5,127.5);stroke-width:0.5;opacity:1.0;stroke-linecap:round" />
<line x1="569.70593" y1="594.0" x2="569.70593" y2="66.0" style="stroke:rgb(127.5,127.5,127.5);stroke-width:0.5;opacity:1.0;stroke-linecap:round" />
<line x1="616.1765" y1="594.0" x2="616.1765" y2="66.0" style="stroke:rgb(127.5,127.5,127.5);stroke-width:0.5;opacity:1.0;stroke-linecap:round" />
<line x1="662.6471" y1="594.0" x2="662.6471" y2="66.0" style="stroke:rgb(127.5,127.5,127.5);stroke-width:0.5;opacity:1.0;stroke-linecap:round" />
<line x1="709.1177" y1="594.0" x2="709.1177" y2="66.0" style="stroke:rgb(127.5,127.5,127.5);stroke-width:0.5;opacity:1.0;stroke-linecap:round" />
<line x1="755.58826" y1="594.0" x2="755.58826" y2="66.0" style="stroke:rgb(127.5,127.5,127.5);stroke-width:0.5;opacity:1.0;stroke-linecap:round" />
<line x1="802.05884" y1="594.0" x2="802.05884" y2="66.0" style="stroke:rgb(127.5,127.5,127.5);stroke-width:0.5;opacity:1.0;stroke-linecap:round" />
<line x1="848.5294" y1="594.0" x2="848.5294" y2="66.0" style="stroke:rgb(127.5,127.5,127.5);stroke-width:0.5;opacity:1.0;stroke-linecap:round" />
<line x1="895.0" y1="594.0" x2="895.0" y2="66.0" style="stroke:rgb(127.5,127.5,127.5);stroke-width:0.5;opacity:1.0;stroke-linecap:round" />
<line x1="100.0" y1="594.0" x2="900.0" y2="594.0" style="stroke:rgb(127.5,127.5,127.5);stroke-width:0.5;opacity:1.0;stroke-linecap:round" />
<line x1="100.0" y1="299.18427" x2="900.0" y2="299.18427" style="stroke:rgb(127.5,127.5,127.5);stroke-width:0.5;opacity:1.0;stroke-linecap:round" />
<rect x="100.0" y="66.0" width="800.0" height="528.0" style="fill:rgb(255,255,255);stroke-width:2.0;stroke:rgb(0,0,0);opacity:1;fill-opacity:0;" />
<line x1="105.0" y1="600.0" x2="105.0" y2="594.0" style="stroke:rgb(0.0,0.0,0.0);stroke-width:2.0;opacity:1.0;stroke-linecap:round" />
<text font-size="12.0" font-family="Roboto" x="79.46" y="618.0" stroke="#000000" stroke-width="0.175" transform="rotate(-0.0,79.46,618.0)">40.0</text>
<line x1="151.47058" y1="600.0" x2="151.47058" y2="594.0" style="stroke:rgb(0.0,0.0,0.0);stroke-width:2.0;opacity:1.0;stroke-linecap:round" />
<text font-size="12.0" font-family="Roboto" x="125.93059" y="618.0" stroke="#000000" stroke-width="0.175" transform="rotate(-0.0,125.93059,618.0)">50.0</text>
<line x1="197.94118" y1="600.0" x2="197.94118" y2="594.0" style="stroke:rgb(0.0,0.0,0.0);stroke-width:2.0;opacity:1.0;stroke-linecap:round" />
<text font-size="12.0" font-family="Roboto" x="172.40118" y="618.0" stroke="#000000" stroke-width="0.175" transform="rotate(-0.0,172.40118,618.0)">60.0</text>
<line x1="244.41177" y1="600.0" x2="244.41177" y2="594.0" style="stroke:rgb(0.0,0.0,0.0);stroke-width:2.0;opacity:1.0;stroke-linecap:round" />
<text font-size="12.0" font-family="Roboto" x="218.87177" y="618.0" stroke="#000000" stroke-width="0.175" transform="rotate(-0.0,218.87177,618.0)">70.0</text>
<line x1="290.88235" y1="600.0" x2="290.88235" y2="594.0" style="stroke:rgb(0.0,0.0,0.0);stroke-width:2.0;opacity:1.0;stroke-linecap:round" />
<text font-size="12.0" font-family="Roboto" x="265.34235" y="618.0" stroke="#000000" stroke-width="0.175" transform="rotate(-0.0,265.34235,618.0)">80.0</text>
<line x1="337.35297" y1="600.0" x2="337.35297" y2="594.0" style="stroke:rgb(0.0,0.0,0.0);stroke-width:2.0;opacity:1.0;stroke-linecap:round" />
<text font-size="12.0" font-family="Roboto" x="311.81296" y="618.0" stroke="#000000" stroke-width="0.175" transform="rotate(-0.0,311.81296,618.0)">90.0</text>
<line x1="383.82355" y1="600.0" x2="383.82355" y2="594.0" style="stroke:rgb(0.0,0.0,0.0);stroke-width:2.0;opacity:1.0;stroke-linecap:round" />
<text font-size="12.0" font-family="Roboto" x="356.60355" y="618.0" stroke="#000000" stroke-width="0.175" transform="rotate(-0.0,356.60355,618.0)">100.0</text>
<line x1="430.29413" y1="600.0" x2="430.29413" y2="594.0" style="stroke:rgb(0.0,0.0,0.0);stroke-width:2.0;opacity:1.0;stroke-linecap:round" />
<text font-size="12.0" font-family="Roboto" x="403.55414" y="618.0" stroke="#000000" stroke-width="0.175" transform="rotate(-0.0,403.55414,618.0)">110.0</text>
<line x1="476.7647" y1="600.0" x2="476.7647" y2="594.0" style="stroke:rgb(0.0,0.0,0.0);stroke-width:2.0;opacity:1.0;stroke-linecap:round" />
<text font-size="12.0" font-family="Roboto" x="449.5447" y="618.0" stroke="#000000" stroke-width="0.175" transform="rotate(-0.0,449.5447,618.0)">120.0</text>
<line x1="523.23535" y1="600.0" x2="523.23535" y2="594.0" style="stroke:rgb(0.0,0.0,0.0);stroke-width:2.0;opacity:1.0;stroke-linecap:round" />
<text font-size="12.0" font-family="Roboto" x="496.01532" y="618.0" stroke="#000000" stroke-width="0.175" transform="rotate(-0.0,496.01532,618.0)">130.0</text>
<line x1="569.70593" y1="600.0" x2="569.70593" y2="594.0" style="stroke:rgb(0.0,0.0,0.0);stroke-width:2.0;opacity:1.0;stroke-linecap:round" />
<text font-size="12.0" font-family="Roboto" x="542.4859" y="618.0" stroke="#000000" stroke-width="0.175" transform="rotate(-0.0,542.4859,618.0)">140.0</text>
<line x1="616.1765" y1="600.0" x2="616.1765" y2="594.0" style="stroke:rgb(0.0,0.0,0.0);stroke-width:2.0;opacity:1.0;stroke-linecap:round" />
<text font-size="12.0" font-family="Roboto" x="588.9565" y="618.0" stroke="#000000" stroke-width="0.175" transform="rotate(-0.0,588.9565,618.0)">150.0</text>
<line x1="662.6471" y1="600.0" x2="662.6471" y2="594.0" style="stroke:rgb(0.0,0.0,0.0);stroke-width:2.0;opacity:1.0;stroke-linecap:round" />
<text font-size="12.0" font-family="Roboto" x="635.4271" y="618.0" stroke="#000000" stroke-width="0.175" transform="rotate(-0.0,635.4271,618.0)">160.0</text>
<line x1="709.1177" y1="600.0" x2="709.1177" y2="594.0" style="stroke:rgb(0.0,0.0,0.0);stroke-width:2.0;opacity:1.0;stroke-linecap:round" />
<text font-size="12.0" font-family="Roboto" x="681.8977" y="618.0" stroke="#000000" stroke-width="0.175" transform="rotate(-0.0,681.8977,618.0)">170.0</text>
<line x1="755.58826" y1="600.0" x2="755.58826" y2="594.0" style="stroke:rgb(0.0,0.0,0.0);stroke-width:2.0;opacity:1.0;stroke-linecap:round" />
<text font-size="12.0" font-family="Roboto" x="728.3683" y="618.0" stroke="#000000" stroke-width="0.175" transform="rotate(-0.0,728.3683,618.0)">180.0</text>
<line x1="802.05884" y1="600.0" x2="802.05884" y2="594.0" style="stroke:rgb(0.0,0.0,0.0);stroke-width:2.0;opacity:1.0;stroke-linecap:round" />
<text font-size="12.0" font-family="Roboto" x="774.83887" y="618.0" stroke="#000000" stroke-width="0.175" transform="rotate(-0.0,774.83887,618.0)">190.0</text>
<line x1="848.5294" y1="600.0" x2="848.5294" y2="594.0" style="stroke:rgb(0.0,0.0,0.0);stroke-width:2.0;opacity:1.0;stroke-linecap:round" />
<text font-size="12.0" font-family="Roboto" x="820.8294" y="618.0" stroke="#000000" stroke-width="0.175" transform="rotate(-0.0,820.8294,618.0)">200.0</text>
<line x1="895.0" y1="600.0" x2="895.0" y2="594.0" style="stroke:rgb(0.0,0.0,0.0);stroke-width:2.0;opacity:1.0;stroke-linecap:round" />
<text font-size="12.0" font-family="Roboto" x="867.78" y="618.0" stroke="#000000" stroke-width="0.175" transform="rotate(-0.0,867.78,618.0)">210.0</text>
<line x1="94.0" y1="594.0" x2="100.0" y2="594.0" style="stroke:rgb(0.0,0.0,0.0);stroke-width:2.0;opacity:1.0;stroke-linecap:round" />
<text font-size="12.0" font-family="Roboto" x="55.24" y="598.0" stroke="#000000" stroke-width="0.175" transform="rotate(-0.0,55.24,598.0)">0.0</text>
<line x1="94.0" y1="299.18427" x2="100.0" y2="299.18427" style="stroke:rgb(0.0,0.0,0.0);stroke-width:2.0;opacity:1.0;stroke-linecap:round" />
<text font-size="12.0" font-family="Roboto" x="43.239998" y="303.18427" stroke="#000000" stroke-width="0.175" transform="rotate(-0.0,43.239998,303.18427)">1000.0</text>
<line x1="105.0" y1="594.0" x2="105.0" y2="592.82074" style="stroke:rgb(0.0,0.0,255.0);stroke-width:2.0;opacity:1.0;stroke-linecap:round" />
<line x1="105.0" y1="592.82074" x2="105.0" y2="592.52594" style="stroke:rgb(164.985,164.985,0.0);stroke-width:2.0;opacity:1.0;stroke-linecap:round" />
<line x1="105.0" y1="592.82074" x2="121.0" y2="592.82074" style="stroke:rgb(0.0,0.0,255.0);stroke-width:2.0;opacity:1.0;stroke-linecap:round" />
<line x1="121.0" y1="592.82074" x2="121.0" y2="592.52594" style="stroke:rgb(0.0,0.0,255.0);stroke-width:2.0;opacity:1.0;stroke-linecap:round" />
<line x1="105.0" y1="592.52594" x2="121.0" y2="592.52594" style="stroke:rgb(164.985,164.985,0.0);stroke-width:2.0;opacity:1.0;stroke-linecap:round" />
<line x1="121.0" y1="592.52594" x2="121.0" y2="592.52594" style="stroke:rgb(164.985,164.985,0.0);stroke-width:2.0;opacity:1.0;stroke-linecap:round" />
<line x1="121.0" y1="592.52594" x2="137.0" y2="592.52594" style="stroke:rgb(0.0,0.0,255.0);stroke-width:2.0;opacity:1.0;stroke-linecap:round" />
<line x1="137.0" y1="592.52594" x2="137.0" y2="590.4622" style="stroke:rgb(0.0,0.0,255.0);stroke-width:2.0;opacity:1.0;stroke-linecap:round" />
<line x1="137.0" y1="590.4622" x2="153.0" y2="590.4622" style="stroke:rgb(0.0,0.0,255.0);stroke-width:2.0;opacity:1.0;stroke-linecap:round" />
<line x1="153.0" y1="590.4622" x2="153.0" y2="591.6415" style="stroke:rgb(0.0,0.0,255.0);stroke-width:2.0;opacity:1.0;stroke-linecap:round" />
<line x1="153.0" y1="591.6415" x2="169.0" y2="591.6415" style="stroke:rgb(0.0,0.0,255.0);stroke-width:2.0;opacity:1.0;stroke-linecap:round" />
<line x1="169.0" y1="591.6415" x2="169.0" y2="587.21924" style="stroke:rgb(0.0,0.0,255.0);stroke-width:2.0;opacity:1.0;stroke-linecap:round" />
<line x1="169.0" y1="587.21924" x2="185.0" y2="587.21924" style="stroke:rgb(0.0,0.0,255.0);stroke-width:2.0;opacity:1.0;stroke-linecap:round" />
<line x1="185.0" y1="587.21924" x2="185.0" y2="580.4385" style="stroke:rgb(0.0,0.0,255.0);stroke-width:2.0;opacity:1.0;stroke-linecap:round" />
<line x1="185.0" y1="580.4385" x2="201.0" y2="580.4385" style="stroke:rgb(0.0,0.0,255.0);stroke-width:2.0;opacity:1.0;stroke-linecap:round" />
<line x1="201.0" y1="580.4385" x2="201.0" y2="572.77325" style="stroke:rgb(0.0,0.0,255.0);stroke-width:2.0;opacity:1.0;stroke-linecap:round" />
<line x1="185.0" y1="580.1437" x2="201.0" y2="580.1437" style="stroke:rgb(164.985,164.985,0.0);stroke-width:2.0;opacity:1.0;stroke-linecap:round" />
<line x1="201.0" y1="580.1437" x2="201.0" y2="571.2992" style="stroke:rgb(164.985,164.985,0.0);stroke-width:2.0;opacity:1.0;stroke-linecap:round" />
<line x1="201.0" y1="572.77325" x2="217.0" y2="572.77325" style="stroke:rgb(0.0,0.0,255.0);stroke-width:2.0;opacity:1.0;stroke-linecap:round" />
<line x1="217.0" y1="572.77325" x2="217.0" y2="562.1599" style="stroke:rgb(0.0,0.0,255.0);stroke-width:2.0;opacity:1.0;stroke-linecap:round" />
<line x1="201.0" y1="571.2992" x2="217.0" y2="571.2992" style="stroke:rgb(164.985,164.985,0.0);stroke-width:2.0;opacity:1.0;stroke-linecap:round" />
<line x1="217.0" y1="571.2992" x2="217.0" y2="560.98065" style="stroke:rgb(164.985,164.985,0.0);stroke-width:2.0;opacity:1.0;stroke-linecap:round" />
<line x1="217.0" y1="562.1599" x2="233.0" y2="562.1599" style="stroke:rgb(0.0,0.0,255.0);stroke-width:2.0;opacity:1.0;stroke-linecap:round" />
<line x1="233.0" y1="562.1599" x2="233.0" y2="542.1124" style="stroke:rgb(0.0,0.0,255.0);stroke-width:2.0;opacity:1.0;stroke-linecap:round" />
<line x1="217.0" y1="560.98065" x2="233.0" y2="560.98065" style="stroke:rgb(164.985,164.985,0.0);stroke-width:2.0;opacity:1.0;stroke-linecap:round" />
<line x1="233.0" y1="560.98065" x2="233.0" y2="535.92126" style="stroke:rgb(164.985,164.985,0.0);stroke-width:2.0;opacity:1.0;stroke-linecap:round" />
<line x1="233.0" y1="542.1124" x2="249.0" y2="542.1124" style="stroke:rgb(0.0,0.0,255.0);stroke-width:2.0;opacity:1.0;stroke-linecap:round" />
<line x1="249.0" y1="542.1124" x2="249.0" y2="520.5909" style="stroke:rgb(0.0,0.0,255.0);stroke-width:2.0;opacity:1.0;stroke-linecap:round" />
<line x1="233.0" y1="535.92126" x2="249.0" y2="535.92126" style="stroke:rgb(164.985,164.985,0.0);stroke-width:2.0;opacity:1.0;stroke-linecap:round" />
<line x1="249.0" y1="535.92126" x2="249.0" y2="512.63086" style="stroke:rgb(164.985,164.985,0.0);stroke-width:2.0;opacity:1.0;stroke-linecap:round" />
<line x1="249.0" y1="520.5909" x2="265.0" y2="520.5909" style="stroke:rgb(0.0,0.0,255.0);stroke-width:2.0;opacity:1.0;stroke-linecap:round" />
<line x1="265.0" y1="520.5909" x2="265.0" y2="496.12115" style="stroke:rgb(0.0,0.0,255.0);stroke-width:2.0;opacity:1.0;stroke-linecap:round" />
<line x1="249.0" y1="512.63086" x2="265.0" y2="512.63086" style="stroke:rgb(164.985,164.985,0.0);stroke-width:2.0;opacity:1.0;stroke-linecap:round" />
<line x1="265.0" y1="512.63086" x2="265.0" y2="481.08557" style="stroke:rgb(164.985,164.985,0.0);stroke-width:2.0;opacity:1.0;stroke-linecap:round" />
<line x1="265.0" y1="496.12115" x2="281.0" y2="496.12115" style="stroke:rgb(0.0,0.0,255.0);stroke-width:2.0;opacity:1.0;stroke-linecap:round" />
<line x1="281.0" y1="496.12115" x2="281.0" y2="448.95065" style="stroke:rgb(0.0,0.0,255.0);stroke-width:2.0;opacity:1.0;stroke-linecap:round" />
<line x1="265.0" y1="481.08557" x2="281.0" y2="481.08557" style="stroke:rgb(164.985,164.985,0.0);stroke-width:2.0;opacity:1.0;stroke-linecap:round" />
<line x1="281.0" y1="481.08557" x2="281.0" y2="420.64835" style="stroke:rgb(164.985,164.985,0.0);stroke-width:2.0;opacity:1.0;stroke-linecap:round" />
<line x1="281.0" y1="448.95065" x2="297.0" y2="448.95065" style="stroke:rgb(0.0,0.0,255.0);stroke-width:2.0;opacity:1.0;stroke-linecap:round" />
<line x1="297.0" y1="448.95065" x2="297.0" y2="413.86758" style="stroke:rgb(0.0,0.0,255.0);stroke-width:2.0;opacity:1.0;stroke-linecap:round" />
<line x1="281.0" y1="420.64835" x2="297.0" y2="420.64835" style="stroke:rgb(164.985,164.985,0.0);stroke-width:2.0;opacity:1.0;stroke-linecap:round" />
<line x1="297.0" y1="420.64835" x2="297.0" y2="373.77264" style="stroke:rgb(164.985,164.985,0.0);stroke-width:2.0;opacity:1.0;stroke-linecap:round" />
<line x1="297.0" y1="413.86758" x2="313.0" y2="413.86758" style="stroke:rgb(0.0,0.0,255.0);stroke-width:2.0;opacity:1.0;stroke-linecap:round" />
<line x1="313.0" y1="413.86758" x2="313.0" y2="383.7964" style="stroke:rgb(0.0,0.0,255.0);stroke-width:2.0;opacity:1.0;stroke-linecap:round" />
<line x1="297.0" y1="373.77264" x2="313.0" y2="373.77264" style="stroke:rgb(164.985,164.985,0.0);stroke-width:2.0;opacity:1.0;stroke-linecap:round" />
<line x1="313.0" y1="373.77264" x2="313.0" y2="324.5384" style="stroke:rgb(164.985,164.985,0.0);stroke-width:2.0;opacity:1.0;stroke-linecap:round" />
<line x1="313.0" y1="383.7964" x2="329.0" y2="383.7964" style="stroke:rgb(0.0,0.0,255.0);stroke-width:2.0;opacity:1.0;stroke-linecap:round" />
<line x1="329.0" y1="383.7964" x2="329.0" y2="347.53403" style="stroke:rgb(0.0,0.0,255.0);stroke-width:2.0;opacity:1.0;stroke-linecap:round" />
<line x1="313.0" y1="324.5384" x2="329.0" y2="324.5384" style="stroke:rgb(164.985,164.985,0.0);stroke-width:2.0;opacity:1.0;stroke-linecap:round" />
<line x1="329.0" y1="324.5384" x2="329.0" y2="258.20486" style="stroke:rgb(164.985,164.985,0.0);stroke-width:2.0;opacity:1.0;stroke-linecap:round" />
<line x1="329.0" y1="347.53403" x2="345.0" y2="347.53403" style="stroke:rgb(0.0,0.0,255.0);stroke-width:2.0;opacity:1.0;stroke-linecap:round" />
<line x1="345.0" y1="347.53403" x2="345.0" y2="329.8451" style="stroke:rgb(0.0,0.0,255.0);stroke-width:2.0;opacity:1.0;stroke-linecap:round" />
<line x1="329.0" y1="258.20486" x2="345.0" y2="258.20486" style="stroke:rgb(164.985,164.985,0.0);stroke-width:2.0;opacity:1.0;stroke-linecap:round" />
<line x1="345.0" y1="258.20486" x2="345.0" y2="212.50842" style="stroke:rgb(164.985,164.985,0.0);stroke-width:2.0;opacity:1.0;stroke-linecap:round" />
<line x1="345.0" y1="329.8451" x2="361.0" y2="329.8451" style="stroke:rgb(0.0,0.0,255.0);stroke-width:2.0;opacity:1.0;stroke-linecap:round" />
<line x1="361.0" y1="329.8451" x2="361.0" y2="328.0762" style="stroke:rgb(0.0,0.0,255.0);stroke-width:2.0;opacity:1.0;stroke-linecap:round" />
<line x1="345.0" y1="212.50842" x2="361.0" y2="212.50842" style="stroke:rgb(164.985,164.985,0.0);stroke-width:2.0;opacity:1.0;stroke-linecap:round" />
<line x1="361.0" y1="212.50842" x2="361.0" y2="175.06683" style="stroke:rgb(164.985,164.985,0.0);stroke-width:2.0;opacity:1.0;stroke-linecap:round" />
<line x1="361.0" y1="328.0762" x2="377.0" y2="328.0762" style="stroke:rgb(0.0,0.0,255.0);stroke-width:2.0;opacity:1.0;stroke-linecap:round" />
<line x1="377.0" y1="328.0762" x2="377.0" y2="326.6021" style="stroke:rgb(0.0,0.0,255.0);stroke-width:2.0;opacity:1.0;stroke-linecap:round" />
<line x1="361.0" y1="175.06683" x2="377.0" y2="175.06683" style="stroke:rgb(164.985,164.985,0.0);stroke-width:2.0;opacity:1.0;stroke-linecap:round" />
<line x1="377.0" y1="175.06683" x2="377.0" y2="143.81635" style="stroke:rgb(164.985,164.985,0.0);stroke-width:2.0;opacity:1.0;stroke-linecap:round" />
<line x1="377.0" y1="326.6021" x2="393.0" y2="326.6021" style="stroke:rgb(0.0,0.0,255.0);stroke-width:2.0;opacity:1.0;stroke-linecap:round" />
<line x1="393.0" y1="326.6021" x2="393.0" y2="356.67334" style="stroke:rgb(0.0,0.0,255.0);stroke-width:2.0;opacity:1.0;stroke-linecap:round" />
<line x1="377.0" y1="143.81635" x2="393.0" y2="143.81635" style="stroke:rgb(164.985,164.985,0.0);stroke-width:2.0;opacity:1.0;stroke-linecap:round" />
<line x1="393.0" y1="143.81635" x2="393.0" y2="122.0" style="stroke:rgb(164.985,164.985,0.0);stroke-width:2.0;opacity:1.0;stroke-linecap:round" />
<line x1="393.0" y1="356.67334" x2="409.0" y2="356.67334" style="stroke:rgb(0.0,0.0,255.0);stroke-width:2.0;opacity:1.0;stroke-linecap:round" />
<line x1="409.0" y1="356.67334" x2="409.0" y2="379.96375" style="stroke:rgb(0.0,0.0,255.0);stroke-width:2.0;opacity:1.0;stroke-linecap:round" />
<line x1="393.0" y1="122.0" x2="409.0" y2="122.0" style="stroke:rgb(164.985,164.985,0.0);stroke-width:2.0;opacity:1.0;stroke-linecap:round" />
<line x1="409.0" y1="122.0" x2="409.0" y2="124.65332" style="stroke:rgb(164.985,164.985,0.0);stroke-width:2.0;opacity:1.0;stroke-linecap:round" />
<line x1="409.0" y1="379.96375" x2="425.0" y2="379.96375" style="stroke:rgb(0.0,0.0,255.0);stroke-width:2.0;opacity:1.0;stroke-linecap:round" />
<line x1="425.0" y1="379.96375" x2="425.0" y2="418.2898" style="stroke:rgb(0.0,0.0,255.0);stroke-width:2.0;opacity:1.0;stroke-linecap:round" />
<line x1="409.0" y1="124.65332" x2="425.0" y2="124.65332" style="stroke:rgb(164.985,164.985,0.0);stroke-width:2.0;opacity:1.0;stroke-linecap:round" />
<line x1="425.0" y1="124.65332" x2="425.0" y2="148.82819" style="stroke:rgb(164.985,164.985,0.0);stroke-width:2.0;opacity:1.0;stroke-linecap:round" />
<line x1="425.0" y1="418.2898" x2="441.0" y2="418.2898" style="stroke:rgb(0.0,0.0,255.0);stroke-width:2.0;opacity:1.0;stroke-linecap:round" />
<line x1="441.0" y1="418.2898" x2="441.0" y2="450.71954" style="stroke:rgb(0.0,0.0,255.0);stroke-width:2.0;opacity:1.0;stroke-linecap:round" />
<line x1="425.0" y1="148.82819" x2="441.0" y2="148.82819" style="stroke:rgb(164.985,164.985,0.0);stroke-width:2.0;opacity:1.0;stroke-linecap:round" />
<line x1="441.0" y1="148.82819" x2="441.0" y2="186.2698" style="stroke:rgb(164.985,164.985,0.0);stroke-width:2.0;opacity:1.0;stroke-linecap:round" />
<line x1="441.0" y1="450.71954" x2="457.0" y2="450.71954" style="stroke:rgb(0.0,0.0,255.0);stroke-width:2.0;opacity:1.0;stroke-linecap:round" />
<line x1="457.0" y1="450.71954" x2="457.0" y2="505.8501" style="stroke:rgb(0.0,0.0,255.0);stroke-width:2.0;opacity:1.0;stroke-linecap:round" />
<line x1="441.0" y1="186.2698" x2="457.0" y2="186.2698" style="stroke:rgb(164.985,164.985,0.0);stroke-width:2.0;opacity:1.0;stroke-linecap:round" />
<line x1="457.0" y1="186.2698" x2="457.0" y2="260.5634" style="stroke:rgb(164.985,164.985,0.0);stroke-width:2.0;opacity:1.0;stroke-linecap:round" />
<line x1="457.0" y1="505.8501" x2="473.0" y2="505.8501" style="stroke:rgb(0.0,0.0,255.0);stroke-width:2.0;opacity:1.0;stroke-linecap:round" />
<line x1="473.0" y1="505.8501" x2="473.0" y2="520.2961" style="stroke:rgb(0.0,0.0,255.0);stroke-width:2.0;opacity:1.0;stroke-linecap:round" />
<line x1="457.0" y1="260.5634" x2="473.0" y2="260.5634" style="stroke:rgb(164.985,164.985,0.0);stroke-width:2.0;opacity:1.0;stroke-linecap:round" />
<line x1="473.0" y1="260.5634" x2="473.0" y2="287.39163" style="stroke:rgb(164.985,164.985,0.0);stroke-width:2.0;opacity:1.0;stroke-linecap:round" />
<line x1="473.0" y1="520.2961" x2="489.0" y2="520.2961" style="stroke:rgb(0.0,0.0,255.0);stroke-width:2.0;opacity:1.0;stroke-linecap:round" />
<line x1="489.0" y1="520.2961" x2="489.0" y2="548.0087" style="stroke:rgb(0.0,0.0,255.0);stroke-width:2.0;opacity:1.0;stroke-linecap:round" />
<line x1="473.0" y1="287.39163" x2="489.0" y2="287.39163" style="stroke:rgb(164.985,164.985,0.0);stroke-width:2.0;opacity:1.0;stroke-linecap:round" />
<line x1="489.0" y1="287.39163" x2="489.0" y2="349.00812" style="stroke:rgb(164.985,164.985,0.0);stroke-width:2.0;opacity:1.0;stroke-linecap:round" />
<line x1="489.0" y1="548.0087" x2="505.0" y2="548.0087" style="stroke:rgb(0.0,0.0,255.0);stroke-width:2.0;opacity:1.0;stroke-linecap:round" />
<line x1="505.0" y1="548.0087" x2="505.0" y2="558.62213" style="stroke:rgb(0.0,0.0,255.0);stroke-width:2.0;opacity:1.0;stroke-linecap:round" />
<line x1="489.0" y1="349.00812" x2="505.0" y2="349.00812" style="stroke:rgb(164.985,164.985,0.0);stroke-width:2.0;opacity:1.0;stroke-linecap:round" />
<line x1="505.0" y1="349.00812" x2="505.0" y2="398.83197" style="stroke:rgb(164.985,164.985,0.0);stroke-width:2.0;opacity:1.0;stroke-linecap:round" />
<line x1="505.0" y1="558.62213" x2="521.0" y2="558.62213" style="stroke:rgb(0.0,0.0,255.0);stroke-width:2.0;opacity:1.0;stroke-linecap:round" />
<line x1="521.0" y1="558.62213" x2="521.0" y2="570.70953" style="stroke:rgb(0.0,0.0,255.0);stroke-width:2.0;opacity:1.0;stroke-linecap:round" />
<line x1="505.0" y1="398.83197" x2="521.0" y2="398.83197" style="stroke:rgb(164.985,164.985,0.0);stroke-width:2.0;opacity:1.0;stroke-linecap:round" />
<line x1="521.0" y1="398.83197" x2="521.0" y2="444.82324" style="stroke:rgb(164.985,164.985,0.0);stroke-width:2.0;opacity:1.0;stroke-linecap:round" />
<line x1="521.0" y1="570.70953" x2="537.0" y2="570.70953" style="stroke:rgb(0.0,0.0,255.0);stroke-width:2.0;opacity:1.0;stroke-linecap:round" />
<line x1="537.0" y1="570.70953" x2="537.0" y2="577.78516" style="stroke:rgb(0.0,0.0,255.0);stroke-width:2.0;opacity:1.0;stroke-linecap:round" />
<line x1="521.0" y1="444.82324" x2="537.0" y2="444.82324" style="stroke:rgb(164.985,164.985,0.0);stroke-width:2.0;opacity:1.0;stroke-linecap:round" />
<line x1="537.0" y1="444.82324" x2="537.0" y2="487.2767" style="stroke:rgb(164.985,164.985,0.0);stroke-width:2.0;opacity:1.0;stroke-linecap:round" />
<line x1="537.0" y1="577.78516" x2="553.0" y2="577.78516" style="stroke:rgb(0.0,0.0,255.0);stroke-width:2.0;opacity:1.0;stroke-linecap:round" />
<line x1="553.0" y1="577.78516" x2="553.0" y2="588.6933" style="stroke:rgb(0.0,0.0,255.0);stroke-width:2.0;opacity:1.0;stroke-linecap:round" />
<line x1="537.0" y1="487.2767" x2="553.0" y2="487.2767" style="stroke:rgb(164.985,164.985,0.0);stroke-width:2.0;opacity:1.0;stroke-linecap:round" />
<line x1="553.0" y1="487.2767" x2="553.0" y2="522.9494" style="stroke:rgb(164.985,164.985,0.0);stroke-width:2.0;opacity:1.0;stroke-linecap:round" />
<line x1="553.0" y1="588.6933" x2="569.0" y2="588.6933" style="stroke:rgb(0.0,0.0,255.0);stroke-width:2.0;opacity:1.0;stroke-linecap:round" />
<line x1="569.0" y1="588.6933" x2="569.0" y2="591.0518" style="stroke:rgb(0.0,0.0,255.0);stroke-width:2.0;opacity:1.0;stroke-linecap:round" />
<line x1="553.0" y1="522.9494" x2="569.0" y2="522.9494" style="stroke:rgb(164.985,164.985,0.0);stroke-width:2.0;opacity:1.0;stroke-linecap:round" />
<line x1="569.0" y1="522.9494" x2="569.0" y2="546.82947" style="stroke:rgb(164.985,164.985,0.0);stroke-width:2.0;opacity:1.0;stroke-linecap:round" />
<line x1="569.0" y1="591.0518" x2="585.0" y2="591.0518" style="stroke:rgb(0.0,0.0,255.0);stroke-width:2.0;opacity:1.0;stroke-linecap:round" />
<line x1="585.0" y1="591.0518" x2="585.0" y2="593.11554" style="stroke:rgb(0.0,0.0,255.0);stroke-width:2.0;opacity:1.0;stroke-linecap:round" />
<line x1="569.0" y1="546.82947" x2="585.0" y2="546.82947" style="stroke:rgb(164.985,164.985,0.0);stroke-width:2.0;opacity:1.0;stroke-linecap:round" />
<line x1="585.0" y1="546.82947" x2="585.0" y2="572.47845" style="stroke:rgb(164.985,164.985,0.0);stroke-width:2.0;opacity:1.0;stroke-linecap:round" />
<line x1="585.0" y1="593.11554" x2="601.0" y2="593.11554" style="stroke:rgb(0.0,0.0,255.0);stroke-width:2.0;opacity:1.0;stroke-linecap:round" />
<line x1="601.0" y1="593.11554" x2="601.0" y2="593.4104" style="stroke:rgb(0.0,0.0,255.0);stroke-width:2.0;opacity:1.0;stroke-linecap:round" />
<line x1="585.0" y1="572.47845" x2="601.0" y2="572.47845" style="stroke:rgb(164.985,164.985,0.0);stroke-width:2.0;opacity:1.0;stroke-linecap:round" />
<line x1="601.0" y1="572.47845" x2="601.0" y2="579.554" style="stroke:rgb(164.985,164.985,0.0);stroke-width:2.0;opacity:1.0;stroke-linecap:round" />
<line x1="601.0" y1="593.4104" x2="617.0" y2="593.4104" style="stroke:rgb(0.0,0.0,255.0);stroke-width:2.0;opacity:1.0;stroke-linecap:round" />
<line x1="617.0" y1="593.4104" x2="617.0" y2="593.11554" style="stroke:rgb(0.0,0.0,255.0);stroke-width:2.0;opacity:1.0;stroke-linecap:round" />
<line x1="601.0" y1="579.554" x2="617.0" y2="579.554" style="stroke:rgb(164.985,164.985,0.0);stroke-width:2.0;opacity:1.0;stroke-linecap:round" />
<line x1="617.0" y1="579.554" x2="617.0" y2="580.4385" style="stroke:rgb(164.985,164.985,0.0);stroke-width:2.0;opacity:1.0;stroke-linecap:round" />
<line x1="617.0" y1="593.11554" x2="633.0" y2="593.11554" style="stroke:rgb(0.0,0.0,255.0);stroke-width:2.0;opacity:1.0;stroke-linecap:round" />
<line x1="633.0" y1="593.11554" x2="633.0" y2="594.0" style="stroke:rgb(0.0,0.0,255.0);stroke-width:2.0;opacity:1.0;stroke-linecap:round" />
<line x1="617.0" y1="580.4385" x2="633.0" y2="580.4385" style="stroke:rgb(164.985,164.985,0.0);stroke-width:2.0;opacity:1.0;stroke-linecap:round" />
<line x1="633.0" y1="580.4385" x2="633.0" y2="588.98816" style="stroke:rgb(164.985,164.985,0.0);stroke-width:2.0;opacity:1.0;stroke-linecap:round" />
<line x1="633.0" y1="594.0" x2="649.0" y2="594.0" style="stroke:rgb(0.0,0.0,255.0);stroke-width:2.0;opacity:1.0;stroke-linecap:round" />
<line x1="649.0" y1="594.0" x2="649.0" y2="594.0" style="stroke:rgb(0.0,0.0,255.0);stroke-width:2.0;opacity:1.0;stroke-linecap:round" />
<line x1="633.0" y1="588.98816" x2="649.0" y2="588.98816" style="stroke:rgb(164.985,164.985,0.0);stroke-width:2.0;opacity:1.0;stroke-linecap:round" />
<line x1="649.0" y1="588.98816" x2="649.0" y2="590.757" style="stroke:rgb(164.985,164.985,0.0);stroke-width:2.0;opacity:1.0;stroke-linecap:round" />
<line x1="649.0" y1="594.0" x2="665.0" y2="594.0" style="stroke:rgb(0.0,0.0,255.0);stroke-width:2.0;opacity:1.0;stroke-linecap:round" />
<line x1="665.0" y1="594.0" x2="665.0" y2="594.0" style="stroke:rgb(0.0,0.0,255.0);stroke-width:2.0;opacity:1.0;stroke-linecap:round" />
<line x1="649.0" y1="590.757" x2="665.0" y2="590.757" style="stroke:rgb(164.985,164.985,0.0);stroke-width:2.0;opacity:1.0;stroke-linecap:round" />
<line x1="665.0" y1="590.757" x2="665.0" y2="593.11554" style="stroke:rgb(164.985,164.985,0.0);stroke-width:2.0;opacity:1.0;stroke-linecap:round" />
<line x1="665.0" y1="594.0" x2="681.0" y2="594.0" style="stroke:rgb(0.0,0.0,255.0);stroke-width:2.0;opacity:1.0;stroke-linecap:round" />
<line x1="681.0" y1="594.0" x2="681.0" y2="594.0" style="stroke:rgb(0.0,0.0,255.0);stroke-width:2.0;opacity:1.0;stroke-linecap:round" />
<line x1="665.0" y1="593.11554" x2="681.0" y2="593.11554" style="stroke:rgb(164.985,164.985,0.0);stroke-width:2.0;opacity:1.0;stroke-linecap:round" />
<line x1="681.0" y1="593.11554" x2="681.0" y2="592.82074" style="stroke:rgb(164.985,164.985,0.0);stroke-width:2.0;opacity:1.0;stroke-linecap:round" />
<line x1="681.0" y1="594.0" x2="697.0" y2="594.0" style="stroke:rgb(0.0,0.0,255.0);stroke-width:2.0;opacity:1.0;stroke-linecap:round" />
<line x1="697.0" y1="594.0" x2="697.0" y2="594.0" style="stroke:rgb(0.0,0.0,255.0);stroke-width:2.0;opacity:1.0;stroke-linecap:round" />
<line x1="681.0" y1="592.82074" x2="697.0" y2="592.82074" style="stroke:rgb(164.985,164.985,0.0);stroke-width:2.0;opacity:1.0;stroke-linecap:round" />
<line x1="697.0" y1="592.82074" x2="697.0" y2="593.11554" style="stroke:rgb(164.985,164.985,0.0);stroke-width:2.0;opacity:1.0;stroke-linecap:round" />
<line x1="697.0" y1="594.0" x2="713.0" y2="594.0" style="stroke:rgb(0.0,0.0,255.0);stroke-width:2.0;opacity:1.0;stroke-linecap:round" />
<line x1="713.0" y1="594.0" x2="713.0" y2="594.0" style="stroke:rgb(0.0,0.0,255.0);stroke-width:2.0;opacity:1.0;stroke-linecap:round" />
<line x1="697.0" y1="593.11554" x2="713.0" y2="593.11554" style="stroke:rgb(164.985,164.985,0.0);stroke-width:2.0;opacity:1.0;stroke-linecap:round" />
<line x1="713.0" y1="593.11554" x2="713.0" y2="594.0" style="stroke:rgb(164.985,164.985,0.0);stroke-width:2.0;opacity:1.0;stroke-linecap:round" />
<line x1="713.0" y1="594.0" x2="729.0" y2="594.0" style="stroke:rgb(0.0,0.0,255.0);stroke-width:2.0;opacity:1.0;stroke-linecap:round" />
<line x1="729.0" y1="594.0" x2="729.0" y2="594.0" style="stroke:rgb(0.0,0.0,255.0);stroke-width:2.0;opacity:1.0;stroke-linecap:round" />
<line x1="729.0" y1="594.0" x2="745.0" y2="594.0" style="stroke:rgb(0.0,0.0,255.0);stroke-width:2.0;opacity:1.0;stroke-linecap:round" />
<line x1="745.0" y1="594.0" x2="745.0" y2="594.0" style="stroke:rgb(0.0,0.0,255.0);stroke-width:2.0;opacity:1.0;stroke-linecap:round" />
<line x1="745.0" y1="594.0" x2="761.0" y2="594.0" style="stroke:rgb(0.0,0.0,255.0);stroke-width:2.0;opacity:1.0;stroke-linecap:round" />
<line x1="761.0" y1="594.0" x2="761.0" y2="594.0" style="stroke:rgb(0.0,0.0,255.0);stroke-width:2.0;opacity:1.0;stroke-linecap:round" />
<line x1="761.0" y1="594.0" x2="777.0" y2="594.0" style="stroke:rgb(0.0,0.0,255.0);stroke-width:2.0;opacity:1.0;stroke-linecap:round" />
<line x1="777.0" y1="594.0" x2="777.0" y2="594.0" style="stroke:rgb(0.0,0.0,255.0);stroke-width:2.0;opacity:1.0;stroke-linecap:round" />
<line x1="777.0" y1="594.0" x2="793.0" y2="594.0" style="stroke:rgb(0.0,0.0,255.0);stroke-width:2.0;opacity:1.0;stroke-linecap:round" />
<line x1="793.0" y1="594.0" x2="793.0" y2="594.0" style="stroke:rgb(0.0,0.0,255.0);stroke-width:2.0;opacity:1.0;stroke-linecap:round" />
<line x1="793.0" y1="594.0" x2="809.0" y2="594.0" style="stroke:rgb(0.0,0.0,255.0);stroke-width:2.0;opacity:1.0;stroke-linecap:round" />
<line x1="809.0" y1="594.0" x2="809.0" y2="594.0" style="stroke:rgb(0.0,0.0,255.0);stroke-width:2.0;opacity:1.0;stroke-linecap:round" />
<line x1="809.0" y1="594.0" x2="825.0" y2="594.0" style="stroke:rgb(0.0,0.0,255.0);stroke-width:2.0;opacity:1.0;stroke-linecap:round" />
<line x1="825.0" y1="594.0" x2="825.0" y2="594.0" style="stroke:rgb(0.0,0.0,255.0);stroke-width:2.0;opacity:1.0;stroke-linecap:round" />
<line x1="825.0" y1="594.0" x2="841.0" y2="594.0" style="stroke:rgb(0.0,0.0,255.0);stroke-width:2.0;opacity:1.0;stroke-linecap:round" />
<line x1="841.0" y1="594.0" x2="841.0" y2="594.0" style="stroke:rgb(0.0,0.0,255.0);stroke-width:2.0;opacity:1.0;stroke-linecap:round" />
<line x1="841.0" y1="594.0" x2="857.0" y2="594.0" style="stroke:rgb(0.0,0.0,255.0);stroke-width:2.0;opacity:1.0;stroke-linecap:round" />
<line x1="857.0" y1="594.0" x2="857.0" y2="594.0" style="stroke:rgb(0.0,0.0,255.0);stroke-width:2.0;opacity:1.0;stroke-linecap:round" />
<line x1="857.0" y1="594.0" x2="873.0" y2="594.0" style="stroke:rgb(0.0,0.0,255.0);stroke-width:2.0;opacity:1.0;stroke-linecap:round" />
<line x1="873.0" y1="594.0" x2="873.0" y2="594.0" style="stroke:rgb(0.0,0.0,255.0);stroke-width:2.0;opacity:1.0;stroke-linecap:round" />
<line x1="873.0" y1="594.0" x2="889.0" y2="594.0" style="stroke:rgb(0.0,0.0,255.0);stroke-width:2.0;opacity:1.0;stroke-linecap:round" />
<line x1="889.0" y1="594.0" x2="889.0" y2="594.0" style="stroke:rgb(0.0,0.0,255.0);stroke-width:2.0;opacity:1.0;stroke-linecap:round" />
<line x1="889.0" y1="594.0" x2="905.0" y2="594.0" style="stroke:rgb(0.0,0.0,255.0);stroke-width:2.0;opacity:1.0;stroke-linecap:round" />
<line x1="905.0" y1="594.0" x2="905.0" y2="594.0" style="stroke:rgb(0.0,0.0,255.0);stroke-width:2.0;opacity:1.0;stroke-linecap:round" />
<line x1="905.0" y1="594.0" x2="905.0" y2="594.0" style="stroke:rgb(164.985,164.985,0.0);stroke-width:2.0;opacity:1.0;stroke-linecap:round" />
<text font-size="20.0" font-family="Roboto" x="405.9" y="56.0" stroke="#000000" stroke-width="0.3" transform="rotate(-0.0,405.9,56.0)">HISTOGRAM STACKED STEP</text>
<text font-size="15.0" font-family="Roboto" x="484.725" y="635.4" stroke="#000000" stroke-width="0.3" transform="rotate(-0.0,484.725,635.4)">X</text>
<text font-size="15.0" font-family="Roboto" x="45.0" y="407.65" stroke="#000000" stroke-width="0.3" transform="rotate(-90.0,45.0,407.65)">Frequency</text>
<rect x="120.0" y="86.0" width="78.600006" height="50.0" style="fill:rgb(255.0,255.0,255.0);stroke-width:2.0;stroke:rgb(0.0,0.0,0.0);opacity:0.7" />
<rect x="130.0" y="96.0" width="10.0" height="10.0" style="fill:rgb(0.0,0.0,255.0);stroke-width:0;stroke:rgb(0,0,0);opacity:1.0" />
<text font-size="10.0" font-family="Roboto" x="150.0" y="106.0" stroke="#000000" stroke-width="0.3" transform="rotate(-0.0,150.0,106.0)">Plot 1</text>
<rect x="130.0" y="116.0" width="10.0" height="10.0" style="fill:rgb(164.985,164.985,0.0);stroke-width:0;stroke:rgb(0,0,0);opacity:1.0" />
<text font-size="10.0" font-family="Roboto" x="150.0" y="126.0" stroke="#000000" stroke-width="0.3" transform="rotate(-0.0,150.0,126.0)">Plot 2</text>
</svg>