<svg height="660.00000000" width="1000.00000000" version="4.0" xmlns="http://www.w3.org/2000/svg" xmlns:xlink= "http://www.w3.org/1999/xlink">
<rect width="100%" height="100%" fill="white"/>
<defs><style>@import url("https://fonts.googleapis.com/css?family=Roboto");</style></defs>
<rect x="0.00000000" y="0.00000000" width="1000.00000000" height="660.00000000" style="fill:rgb(255.00000000,255.00000000,255.00000000);stroke-width:0;stroke:rgb(0,0,0);opacity:1.00000000" />
<line x1="519.50000000" y1="583.00000000" x2="519.50000000" y2="54.00000000" style="stroke:rgb(127.50000000,127.50000000,127.50000000);stroke-width:0.50000000;opacity:1.00000000;stroke-linecap:butt" />
<line x1="595.91003418" y1="583.00000000" x2="595.91003418" y2="54.00000000" style="stroke:rgb(127.50000000,127.50000000,127.50000000);stroke-width:0.50000000;opacity:1.00000000;stroke-linecap:butt" />
<line x1="672.32000732" y1="583.00000000" x2="672.32000732" y2="54.00000000" style="stroke:rgb(127.50000000,127.50000000,127.50000000);stroke-width:0.50000000;opacity:1.00000000;stroke-linecap:butt" />
<line x1="748.72998047" y1="583.00000000" x2="748.72998047" y2="54.00000000" style="stroke:rgb(127.50000000,127.50000000,127.50000000);stroke-width:0.50000000;opacity:1.00000000;stroke-linecap:butt" />
<line x1="825.14001465" y1="583.00000000" x2="825.14001465" y2="54.00000000" style="stroke:rgb(127.50000000,127.50000000,127.50000000);stroke-width:0.50000000;opacity:1.00000000;stroke-linecap:butt" />
<line x1="901.55004883" y1="583.00000000" x2="901.55004883" y2="54.00000000" style="stroke:rgb(127.50000000,127.50000000,127.50000000);stroke-width:0.50000000;opacity:1.00000000;stroke-linecap:butt" />
<line x1="443.08999634" y1="583.00000000" x2="443.08999634" y2="54.00000000" style="stroke:rgb(127.50000000,127.50000000,127.50000000);stroke-width:0.50000000;opacity:1.00000000;stroke-linecap:butt" />
<line x1="366.67999268" y1="583.00000000" x2="366.67999268" y2="54.00000000" style="stroke:rgb(127.50000000,127.50000000,127.50000000);stroke-width:0.50000000;opacity:1.00000000;stroke-linecap:butt" />
<line x1="290.26998901" y1="583.00000000" x2="290.26998901" y2="54.00000000" style="stroke:rgb(127.50000000,127.50000000,127.50000000);stroke-width:0.50000000;opacity:1.00000000;stroke-linecap:butt" />
<line x1="213.85998535" y1="583.00000000" x2="213.85998535" y2="54.00000000" style="stroke:rgb(127.50000000,127.50000000,127.50000000);stroke-width:0.50000000;opacity:1.00000000;stroke-linecap:butt" />
<line x1="137.44998169" y1="583.00000000" x2="137.44998169" y2="54.00000000" style="stroke:rgb(127.50000000,127.50000000,127.50000000);stroke-width:0.50000000;opacity:1.00000000;stroke-linecap:butt" />
<line x1="95.00000000" y1="318.49929810" x2="944.00000000" y2="318.49929810" style="stroke:rgb(127.50000000,127.50000000,127.50000000);stroke-width:0.50000000;opacity:1.00000000;stroke-linecap:butt" />
<line x1="95.00000000" y1="258.98681641" x2="944.00000000" y2="258.98681641" style="stroke:rgb(127.50000000,127.50000000,127.50000000);stroke-width:0.50000000;opacity:1.00000000;stroke-linecap:butt" />
<line x1="95.00000000" y1="199.47430420" x2="944.00000000" y2="199.47430420" style="stroke:rgb(127.50000000,127.50000000,127.50000000);stroke-width:0.50000000;opacity:1.00000000;stroke-linecap:butt" />
<line x1="95.00000000" y1="139.96179199" x2="944.00000000" y2="139.96179199" style="stroke:rgb(127.50000000,127.50000000,127.50000000);stroke-width:0.50000000;opacity:1.00000000;stroke-linecap:butt" />
<line x1="95.00000000" y1="80.44927979" x2="944.00000000" y2="80.44927979" style="stroke:rgb(127.50000000,127.50000000,127.50000000);stroke-width:0.50000000;opacity:1.00000000;stroke-linecap:butt" />
<line x1="95.00000000" y1="378.01177979" x2="944.00000000" y2="378.01177979" style="stroke:rgb(127.50000000,127.50000000,127.50000000);stroke-width:0.50000000;opacity:1.00000000;stroke-linecap:butt" />
<line x1="95.00000000" y1="437.52429199" x2="944.00000000" y2="437.52429199" style="stroke:rgb(127.50000000,127.50000000,127.50000000);stroke-width:0.50000000;opacity:1.00000000;stroke-linecap:butt" />
<line x1="95.00000000" y1="497.03680420" x2="944.00000000" y2="497.03680420" style="stroke:rgb(127.50000000,127.50000000,127.50000000);stroke-width:0.50000000;opacity:1.00000000;stroke-linecap:butt" />
<line x1="95.00000000" y1="556.54931641" x2="944.00000000" y2="556.54931641" style="stroke:rgb(127.50000000,127.50000000,127.50000000);stroke-width:0.50000000;opacity:1.00000000;stroke-linecap:butt" />
<rect x="94.00000000" y="53.00000000" width="851.00000000" height="531.00000000" style="fill:rgb(255,255,255);stroke-width:2.00000000;stroke:rgb(0.00000000,0.00000000,0.00000000);opacity:1;fill-opacity:0;" />
<line x1="519.50000000" y1="585.00000000" x2="519.50000000" y2="591.00000000" style="stroke:rgb(0.00000000,0.00000000,0.00000000);stroke-width:2.00000000;opacity:1.00000000;stroke-linecap:butt" />
<text font-size="12.00000000" font-family="Roboto" x="501.11999512" y="609.00000000" style="stroke:rgb(0.00000000,0.00000000,0.00000000);stroke-width:0.17500000;fill:rgb(0.00000000,0.00000000,0.00000000);opacity:1.00000000;" transform="rotate(-0.00000000,501.11999512,609.00000000)">0.0</text>
<line x1="595.91003418" y1="585.00000000" x2="595.91003418" y2="591.00000000" style="stroke:rgb(0.00000000,0.00000000,0.00000000);stroke-width:2.00000000;opacity:1.00000000;stroke-linecap:butt" />
<text font-size="12.00000000" font-family="Roboto" x="578.01000977" y="609.00000000" style="stroke:rgb(0.00000000,0.00000000,0.00000000);stroke-width:0.17500000;fill:rgb(0.00000000,0.00000000,0.00000000);opacity:1.00000000;" transform="rotate(-0.00000000,578.01000977,609.00000000)">1.0</text>
<line x1="672.32000732" y1="585.00000000" x2="672.32000732" y2="591.00000000" style="stroke:rgb(0.00000000,0.00000000,0.00000000);stroke-width:2.00000000;opacity:1.00000000;stroke-linecap:butt" />
<text font-size="12.00000000" font-family="Roboto" x="653.94000244" y="609.00000000" style="stroke:rgb(0.00000000,0.00000000,0.00000000);stroke-width:0.17500000;fill:rgb(0.00000000,0.00000000,0.00000000);opacity:1.00000000;" transform="rotate(-0.00000000,653.94000244,609.00000000)">2.0</text>
<line x1="748.72998047" y1="585.00000000" x2="748.72998047" y2="591.00000000" style="stroke:rgb(0.00000000,0.00000000,0.00000000);stroke-width:2.00000000;opacity:1.00000000;stroke-linecap:butt" />
<text font-size="12.00000000" font-family="Roboto" x="730.34997559" y="609.00000000" style="stroke:rgb(0.00000000,0.00000000,0.00000000);stroke-width:0.17500000;fill:rgb(0.00000000,0.00000000,0.00000000);opacity:1.00000000;" transform="rotate(-0.00000000,730.34997559,609.00000000)">3.0</text>
<line x1="825.14001465" y1="585.00000000" x2="825.14001465" y2="591.00000000" style="stroke:rgb(0.00000000,0.00000000,0.00000000);stroke-width:2.00000000;opacity:1.00000000;stroke-linecap:butt" />
<text font-size="12.00000000" font-family="Roboto" x="806.76000977" y="609.00000000" style="stroke:rgb(0.00000000,0.00000000,0.00000000);stroke-width:0.17500000;fill:rgb(0.00000000,0.00000000,0.00000000);opacity:1.00000000;" transform="rotate(-0.00000000,806.76000977,609.00000000)">4.0</text>
<line x1="901.55004883" y1="585.00000000" x2="901.55004883" y2="591.00000000" style="stroke:rgb(0.00000000,0.00000000,0.00000000);stroke-width:2.00000000;opacity:1.00000000;stroke-linecap:butt" />
<text font-size="12.00000000" font-family="Roboto" x="883.17004395" y="609.00000000" style="stroke:rgb(0.00000000,0.00000000,0.00000000);stroke-width:0.17500000;fill:rgb(0.00000000,0.00000000,0.00000000);opacity:1.00000000;" transform="rotate(-0.00000000,883.17004395,609.00000000)">5.0</text>
<line x1="443.08999634" y1="585.00000000" x2="443.08999634" y2="591.00000000" style="stroke:rgb(0.00000000,0.00000000,0.00000000);stroke-width:2.00000000;opacity:1.00000000;stroke-linecap:butt" />
<text font-size="12.00000000" font-family="Roboto" x="423.14999390" y="609.00000000" style="stroke:rgb(0.00000000,0.00000000,0.00000000);stroke-width:0.17500000;fill:rgb(0.00000000,0.00000000,0.00000000);opacity:1.00000000;" transform="rotate(-0.00000000,423.14999390,609.00000000)">-1.0</text>
<line x1="366.67999268" y1="585.00000000" x2="366.67999268" y2="591.00000000" style="stroke:rgb(0.00000000,0.00000000,0.00000000);stroke-width:2.00000000;opacity:1.00000000;stroke-linecap:butt" />
<text font-size="12.00000000" font-family="Roboto" x="346.26000977" y="609.00000000" style="stroke:rgb(0.00000000,0.00000000,0.00000000);stroke-width:0.17500000;fill:rgb(0.00000000,0.00000000,0.00000000);opacity:1.00000000;" transform="rotate(-0.00000000,346.26000977,609.00000000)">-2.0</text>
<line x1="290.26998901" y1="585.00000000" x2="290.26998901" y2="591.00000000" style="stroke:rgb(0.00000000,0.00000000,0.00000000);stroke-width:2.00000000;opacity:1.00000000;stroke-linecap:butt" />
<text font-size="12.00000000" font-family="Roboto" x="269.84997559" y="609.00000000" style="stroke:rgb(0.00000000,0.00000000,0.00000000);stroke-width:0.17500000;fill:rgb(0.00000000,0.00000000,0.00000000);opacity:1.00000000;" transform="rotate(-0.00000000,269.84997559,609.00000000)">-3.0</text>
<line x1="213.85998535" y1="585.00000000" x2="213.85998535" y2="591.00000000" style="stroke:rgb(0.00000000,0.00000000,0.00000000);stroke-width:2.00000000;opacity:1.00000000;stroke-linecap:butt" />
<text font-size="12.00000000" font-family="Roboto" x="193.43998718" y="609.00000000" style="stroke:rgb(0.00000000,0.00000000,0.00000000);stroke-width:0.17500000;fill:rgb(0.00000000,0.00000000,0.00000000);opacity:1.00000000;" transform="rotate(-0.00000000,193.43998718,609.00000000)">-4.0</text>
<line x1="137.44998169" y1="585.00000000" x2="137.44998169" y2="591.00000000" style="stroke:rgb(0.00000000,0.00000000,0.00000000);stroke-width:2.00000000;opacity:1.00000000;stroke-linecap:butt" />
<text font-size="12.00000000" font-family="Roboto" x="117.02998352" y="609.00000000" style="stroke:rgb(0.00000000,0.00000000,0.00000000);stroke-width:0.17500000;fill:rgb(0.00000000,0.00000000,0.00000000);opacity:1.00000000;" transform="rotate(-0.00000000,117.02998352,609.00000000)">-5.0</text>
<line x1="87.00000000" y1="318.49929810" x2="93.00000000" y2="318.49929810" style="stroke:rgb(0.00000000,0.00000000,0.00000000);stroke-width:2.00000000;opacity:1.00000000;stroke-linecap:butt" />
<text font-size="12.00000000" font-family="Roboto" x="46.24000168" y="324.49929810" style="stroke:rgb(0.00000000,0.00000000,0.00000000);stroke-width:0.17500000;fill:rgb(0.00000000,0.00000000,0.00000000);opacity:1.00000000;" transform="rotate(-0.00000000,46.24000168,324.49929810)">0.0</text>
<line x1="87.00000000" y1="258.98681641" x2="93.00000000" y2="258.98681641" style="stroke:rgb(0.00000000,0.00000000,0.00000000);stroke-width:2.00000000;opacity:1.00000000;stroke-linecap:butt" />
<text font-size="12.00000000" font-family="Roboto" x="43.00000000" y="264.98681641" style="stroke:rgb(0.00000000,0.00000000,0.00000000);stroke-width:0.17500000;fill:rgb(0.00000000,0.00000000,0.00000000);opacity:1.00000000;" transform="rotate(-0.00000000,43.00000000,264.98681641)">10.0</text>
<line x1="87.00000000" y1="199.47430420" x2="93.00000000" y2="199.47430420" style="stroke:rgb(0.00000000,0.00000000,0.00000000);stroke-width:2.00000000;opacity:1.00000000;stroke-linecap:butt" />
<text font-size="12.00000000" font-family="Roboto" x="43.00000000" y="205.47430420" style="stroke:rgb(0.00000000,0.00000000,0.00000000);stroke-width:0.17500000;fill:rgb(0.00000000,0.00000000,0.00000000);opacity:1.00000000;" transform="rotate(-0.00000000,43.00000000,205.47430420)">20.0</text>
<line x1="87.00000000" y1="139.96179199" x2="93.00000000" y2="139.96179199" style="stroke:rgb(0.00000000,0.00000000,0.00000000);stroke-width:2.00000000;opacity:1.00000000;stroke-linecap:butt" />
<text font-size="12.00000000" font-family="Roboto" x="43.00000000" y="145.96179199" style="stroke:rgb(0.00000000,0.00000000,0.00000000);stroke-width:0.17500000;fill:rgb(0.00000000,0.00000000,0.00000000);opacity:1.00000000;" transform="rotate(-0.00000000,43.00000000,145.96179199)">30.0</text>
<line x1="87.00000000" y1="80.44927979" x2="93.00000000" y2="80.44927979" style="stroke:rgb(0.00000000,0.00000000,0.00000000);stroke-width:2.00000000;opacity:1.00000000;stroke-linecap:butt" />
<text font-size="12.00000000" font-family="Roboto" x="43.00000000" y="86.44927979" style="stroke:rgb(0.00000000,0.00000000,0.00000000);stroke-width:0.17500000;fill:rgb(0.00000000,0.00000000,0.00000000);opacity:1.00000000;" transform="rotate(-0.00000000,43.00000000,86.44927979)">40.0</text>
<line x1="87.00000000" y1="378.01177979" x2="93.00000000" y2="378.01177979" style="stroke:rgb(0.00000000,0.00000000,0.00000000);stroke-width:2.00000000;opacity:1.00000000;stroke-linecap:butt" />
<text font-size="12.00000000" font-family="Roboto" x="43.00000000" y="384.01177979" style="stroke:rgb(0.00000000,0.00000000,0.00000000);stroke-width:0.17500000;fill:rgb(0.00000000,0.00000000,0.00000000);opacity:1.00000000;" transform="rotate(-0.00000000,43.00000000,384.01177979)">-10.0</text>
<line x1="87.00000000" y1="437.52429199" x2="93.00000000" y2="437.52429199" style="stroke:rgb(0.00000000,0.00000000,0.00000000);stroke-width:2.00000000;opacity:1.00000000;stroke-linecap:butt" />
<text font-size="12.00000000" font-family="Roboto" x="43.00000000" y="443.52429199" style="stroke:rgb(0.00000000,0.00000000,0.00000000);stroke-width:0.17500000;fill:rgb(0.00000000,0.00000000,0.00000000);opacity:1.00000000;" transform="rotate(-0.00000000,43.00000000,443.52429199)">-20.0</text>
<line x1="87.00000000" y1="497.03680420" x2="93.00000000" y2="497.03680420" style="stroke:rgb(0.00000000,0.00000000,0.00000000);stroke-width:2.00000000;opacity:1.00000000;stroke-linecap:butt" />
<text font-size="12.00000000" font-family="Roboto" x="43.00000000" y="503.03680420" style="stroke:rgb(0.00000000,0.00000000,0.00000000);stroke-width:0.17500000;fill:rgb(0.00000000,0.00000000,0.00000000);opacity:1.00000000;" transform="rotate(-0.00000000,43.00000000,503.03680420)">-30.0</text>
<line x1="87.00000000" y1="556.54931641" x2="93.00000000" y2="556.54931641" style="stroke:rgb(0.00000000,0.00000000,0.00000000);stroke-width:2.00000000;opacity:1.00000000;stroke-linecap:butt" />
<text font-size="12.00000000" font-family="Roboto" x="43.00000000" y="562.54931641" style="stroke:rgb(0.00000000,0.00000000,0.00000000);stroke-width:0.17500000;fill:rgb(0.00000000,0.00000000,0.00000000);opacity:1.00000000;" transform="rotate(-0.00000000,43.00000000,562.54931641)">-40.0</text>
<polyline points="137.45001221,319.68954468 139.36026001,319.69552612 141.27050781,319.70156860 143.18072510,319.70767212 145.09100342,319.71383667 147.00125122,319.72006226 148.91149902,319.72634888 150.82177734,319.73272705 152.73199463,319.73913574 154.64224243,319.74563599 156.55249023,319.75219727 158.46276855,319.75881958 160.37301636,319.76553345 162.28323364,319.77227783 164.19348145,319.77914429 166.10375977,319.78604126 168.01400757,319.79306030 169.92425537,319.80010986 171.83447266,319.80725098 173.74475098,319.81448364 175.65499878,319.82180786 177.56524658,319.82919312 179.47552490,319.83666992 181.38574219,319.84420776 183.29598999,319.85186768 185.20623779,319.85958862 187.11651611,319.86740112 189.02676392,319.87530518 190.93698120,319.88330078 192.84722900,319.89141846 194.75750732,319.89959717 196.66775513,319.90786743 198.57800293,319.91625977 200.48822021,319.92474365 202.39849854,319.93331909 204.30874634,319.94201660 206.21899414,319.95083618 208.12927246,319.95971680 210.03948975,319.96875000 211.94973755,319.97787476 213.85998535,319.98712158 215.77026367,319.99645996 217.68048096,320.00595093 219.59075928,320.01553345 221.50100708,320.02526855 223.41125488,320.03509521 225.32150269,320.04507446 227.23175049,320.05517578 229.14199829,320.06542969 231.05224609,320.07577515 232.96249390,320.08630371 234.87274170,320.09695435 236.78298950,320.10775757 238.69326782,320.11868286 240.60348511,320.12979126 242.51376343,320.14102173 244.42401123,320.15243530 246.33425903,320.16397095 248.24450684,320.17572021 250.15475464,320.18759155 252.06500244,320.19964600 253.97525024,320.21188354 255.88549805,320.22430420 257.79574585,320.23687744 259.70599365,320.24966431 261.61624146,320.26263428 263.52648926,320.27578735 265.43676758,320.28915405 267.34698486,320.30270386 269.25726318,320.31646729 271.16748047,320.33044434 273.07775879,320.34463501 274.98797607,320.35906982 276.89825439,320.37371826 278.80853271,320.38858032 280.71875000,320.40368652 282.62902832,320.41906738 284.53924561,320.43466187 286.44952393,320.45053101 288.35974121,320.46664429 290.27001953,320.48306274 292.18023682,320.49972534 294.09051514,320.51666260 296.00073242,320.53390503 297.91101074,320.55145264 299.82122803,320.56930542 301.73150635,320.58746338 303.64172363,320.60592651 305.55200195,320.62475586 307.46228027,320.64389038 309.37249756,320.66339111 311.28277588,320.68325806 313.19299316,320.70346069 315.10327148,320.72406006 317.01348877,320.74505615 318.92376709,320.76644897 320.83398438,320.78823853 322.74426270,320.81045532 324.65451050,320.83312988 326.56475830,320.85623169 328.47500610,320.87979126 330.38525391,320.90383911 332.29550171,320.92837524 334.20574951,320.95343018 336.11602783,320.97897339 338.02624512,321.00509644 339.93652344,321.03173828 341.84674072,321.05895996 343.75701904,321.08679199 345.66726685,321.11523438 347.57751465,321.14428711 349.48776245,321.17401123 351.39801025,321.20440674 353.30825806,321.23550415 355.21850586,321.26733398 357.12875366,321.29989624 359.03900146,321.33322144 360.94924927,321.36737061 362.85949707,321.40234375 364.76977539,321.43820190 366.67999268,321.47491455 368.59027100,321.51260376 370.50048828,321.55120850 372.41076660,321.59085083 374.32098389,321.63153076 376.23126221,321.67330933 378.14151001,321.71618652 380.05175781,321.76025391 381.96200562,321.80554199 383.87225342,321.85211182 385.78250122,321.90002441 387.69274902,321.94931030 389.60302734,322.00003052 391.51324463,322.05227661 393.42349243,322.10610962 395.33374023,322.16162109 397.24401855,322.21884155 399.15426636,322.27786255 401.06451416,322.33880615 402.97476196,322.40176392 404.88500977,322.46679688 406.79525757,322.53405762 408.70550537,322.60360718 410.61575317,322.67562866 412.52600098,322.75018311 414.43624878,322.82748413 416.34649658,322.90762329 418.25674438,322.99081421 420.16699219,323.07717896 422.07727051,323.16693115 423.98748779,323.26028442 425.89776611,323.35745239 427.80801392,323.45867920 429.71826172,323.56417847 431.62850952,323.67428589 433.53875732,323.78930664 435.44900513,323.90951538 437.35925293,324.03533936 439.26950073,324.16714478 441.17974854,324.30538940 443.08999634,324.45056152 445.00024414,324.60314941 446.91052246,324.76376343 448.82073975,324.93307495 450.73101807,325.11178589 452.64123535,325.30072021 454.55151367,325.50076294 456.46176147,325.71292114 458.37200928,325.93835449 460.28225708,326.17834473 462.19250488,326.43429565 464.10275269,326.70791626 466.01300049,327.00109863 467.92324829,327.31597900 469.83349609,327.65509033 471.74374390,328.02130127 473.65399170,328.41802979 475.56427002,328.84930420 477.47448730,329.31976318 479.38476562,329.83502197 481.29501343,330.40179443 483.20526123,331.02825928 485.11550903,331.72430420 487.02575684,332.50225830 488.93600464,333.37744141 490.84625244,334.36929321 492.75650024,335.50286865 494.66674805,336.81085205 496.57699585,338.33679199 498.48724365,340.14019775 500.39749146,342.30432129 502.30773926,344.94931030 504.21801758,348.25555420 506.12826538,352.50646973 508.03851318,358.17431641 509.94876099,366.10931396 511.85900879,378.01184082 513.76928711,397.84936523 515.67950439,437.52447510 517.58972168,556.54998779 521.41027832,80.45001221 523.32049561,199.47448730 525.23071289,239.14938354 527.14099121,258.98684692 529.05126953,270.88934326 530.96154785,278.82431030 532.87176514,284.49215698 534.78198242,288.74307251 536.69226074,292.04931641 538.60253906,294.69430542 540.51275635,296.85839844 542.42297363,298.66180420 544.33325195,300.18777466 546.24353027,301.49572754 548.15374756,302.62930298 550.06396484,303.62118530 551.97424316,304.49636841 553.88452148,305.27429199 555.79479980,305.97036743 557.70501709,306.59680176 559.61523438,307.16357422 561.52551270,307.67883301 563.43579102,308.14929199 565.34600830,308.58053589 567.25622559,308.97729492 569.16650391,309.34353638 571.07678223,309.68261719 572.98699951,309.99752808 574.89721680,310.29067993 576.80749512,310.56430054 578.71777344,310.82028198 580.62799072,311.06024170 582.53826904,311.28567505 584.44848633,311.49783325 586.35876465,311.69787598 588.26904297,311.88681030 590.17926025,312.06552124 592.08947754,312.23483276 593.99975586,312.39544678 595.91003418,312.54803467 597.82025146,312.69320679 599.73046875,312.83145142 601.64074707,312.96325684 603.55102539,313.08908081 605.46124268,313.20928955 607.37152100,313.32431030 609.28173828,313.43441772 611.19201660,313.53991699 613.10229492,313.64114380 615.01251221,313.73831177 616.92272949,313.83166504 618.83300781,313.92141724 620.74328613,314.00778198 622.65350342,314.09097290 624.56378174,314.17111206 626.47399902,314.24841309 628.38427734,314.32299805 630.29449463,314.39498901 632.20477295,314.46453857 634.11499023,314.53179932 636.02526855,314.59683228 637.93548584,314.65979004 639.84576416,314.72073364 641.75598145,314.77975464 643.66625977,314.83700562 645.57653809,314.89248657 647.48675537,314.94631958 649.39697266,314.99856567 651.30725098,315.04928589 653.21752930,315.09857178 655.12774658,315.14648438 657.03802490,315.19305420 658.94824219,315.23834229 660.85852051,315.28240967 662.76873779,315.32528687 664.67901611,315.36706543 666.58923340,315.40774536 668.49951172,315.44738770 670.40979004,315.48599243 672.32000732,315.52368164 674.23022461,315.56042480 676.14050293,315.59625244 678.05078125,315.63122559 679.96099854,315.66537476 681.87121582,315.69869995 683.78149414,315.73126221 685.69177246,315.76309204 687.60198975,315.79418945 689.51226807,315.82458496 691.42248535,315.85430908 693.33276367,315.88336182 695.24304199,315.91180420 697.15325928,315.93963623 699.06347656,315.96685791 700.97375488,315.99349976 702.88403320,316.01962280 704.79425049,316.04516602 706.70446777,316.07022095 708.61474609,316.09475708 710.52502441,316.11880493 712.43524170,316.14236450 714.34552002,316.16546631 716.25573730,316.18814087 718.16601562,316.21035767 720.07623291,316.23214722 721.98651123,316.25354004 723.89672852,316.27453613 725.80700684,316.29513550 727.71728516,316.31536865 729.62750244,316.33520508 731.53778076,316.35470581 733.44799805,316.37384033 735.35827637,316.39266968 737.26849365,316.41113281 739.17877197,316.42929077 741.08898926,316.44714355 742.99926758,316.46469116 744.90948486,316.48193359 746.81976318,316.49887085 748.72998047,316.51553345 750.64025879,316.53195190 752.55053711,316.54806519 754.46075439,316.56393433 756.37103271,316.57952881 758.28125000,316.59490967 760.19152832,316.61001587 762.10174561,316.62487793 764.01202393,316.63952637 765.92224121,316.65396118 767.83251953,316.66815186 769.74273682,316.68212891 771.65301514,316.69589233 773.56323242,316.70944214 775.47351074,316.72280884 777.38378906,316.73596191 779.29400635,316.74893188 781.20422363,316.76171875 783.11450195,316.77429199 785.02478027,316.78671265 786.93505859,316.79895020 788.84521484,316.81100464 790.75549316,316.82287598 792.66577148,316.83462524 794.57604980,316.84616089 796.48626709,316.85757446 798.39648438,316.86880493 800.30676270,316.87991333 802.21704102,316.89083862 804.12725830,316.90164185 806.03747559,316.91229248 807.94775391,316.92282104 809.85803223,316.93316650 811.76824951,316.94342041 813.67846680,316.95352173 815.58874512,316.96350098 817.49902344,316.97332764 819.40930176,316.98306274 821.31951904,316.99264526 823.22973633,317.00213623 825.14001465,317.01147461 827.05029297,317.02072144 828.96051025,317.02984619 830.87072754,317.03887939 832.78100586,317.04776001 834.69128418,317.05657959 836.60150146,317.06527710 838.51177979,317.07385254 840.42199707,317.08233643 842.33227539,317.09072876 844.24249268,317.09899902 846.15277100,317.10717773 848.06298828,317.11529541 849.97326660,317.12329102 851.88348389,317.13119507 853.79376221,317.13900757 855.70397949,317.14672852 857.61425781,317.15438843 859.52453613,317.16192627 861.43475342,317.16940308 863.34497070,317.17678833 865.25524902,317.18411255 867.16552734,317.19134521 869.07580566,317.19848633 870.98602295,317.20553589 872.89624023,317.21255493 874.80651855,317.21945190 876.71679688,317.22631836 878.62701416,317.23306274 880.53729248,317.23977661 882.44750977,317.24639893 884.35778809,317.25296021 886.26800537,317.25946045 888.17828369,317.26586914 890.08850098,317.27224731 891.99877930,317.27853394 893.90899658,317.28475952 895.81927490,317.29092407 897.72949219,317.29702759 899.63977051,317.30307007 901.54998779,317.30905151" style="stroke:rgb(255.00000000,164.98500061,0.00000000);stroke-width:1.50000000;opacity:1.00000000;stroke-linecap:butt;fill:none;" />
<text font-size="20.00000000" font-family="Roboto" x="476.00000000" y="36.00000000" style="stroke:rgb(0.00000000,0.00000000,0.00000000);stroke-width:0.30000001;fill:rgb(0.00000000,0.00000000,0.00000000);opacity:1.00000000;" transform="rotate(-0.00000000,476.00000000,36.00000000)">FUNCTION</text>
<text font-size="15.00000000" font-family="Roboto" x="490.95001221" y="646.00000000" style="stroke:rgb(0.00000000,0.00000000,0.00000000);stroke-width:0.30000001;fill:rgb(0.00000000,0.00000000,0.00000000);opacity:1.00000000;" transform="rotate(-0.00000000,490.95001221,646.00000000)">X-AXIS</text>
<text font-size="15.00000000" font-family="Roboto" x="31.00000000" y="347.20001221" style="stroke:rgb(0.00000000,0.00000000,0.00000000);stroke-width:0.30000001;fill:rgb(0.00000000,0.00000000,0.00000000);opacity:1.00000000;" transform="rotate(-90.00000000,31.00000000,347.20001221)">Y-AXIS</text>
<rect x="115.00000000" y="74.00000000" width="90.00000000" height="30.00000000" style="fill:rgb(255.00000000,255.00000000,255.00000000);stroke-width:2.00000000;stroke:rgb(0.00000000,0.00000000,0.00000000);opacity:0.69999999" />
<rect x="125.00000000" y="84.00000000" width="10.00000000" height="10.00000000" style="fill:rgb(255.00000000,164.98500061,0.00000000);stroke-width:0;stroke:rgb(0,0,0);opacity:1.00000000" />
<text font-size="10.00000000" font-family="Roboto" x="145.00000000" y="94.00000000" style="stroke:rgb(0.00000000,0.00000000,0.00000000);stroke-width:0.30000001;fill:rgb(0.00000000,0.00000000,0.00000000);opacity:1.00000000;" transform="rotate(-0.00000000,145.00000000,94.00000000)">Function</text>
</svg>