<svg height="1000.00000000" width="1000.00000000" version="4.0" xmlns="http://www.w3.org/2000/svg" xmlns:xlink= "http://www.w3.org/1999/xlink">
<rect width="100%" height="100%" fill="white"/>
<defs><style>@import url("https://fonts.googleapis.com/css?family=Roboto");</style></defs>
<rect x="0.00000000" y="0.00000000" width="1000.00000000" height="1000.00000000" style="fill:rgb(255.00000000,255.00000000,255.00000000);stroke-width:0;stroke:rgb(0,0,0);opacity:1.00000000" />
<line x1="155.03030396" y1="923.00000000" x2="155.03030396" y2="54.00000000" style="stroke:rgb(127.50000000,127.50000000,127.50000000);stroke-width:0.50000000;opacity:1.00000000;stroke-linecap:butt" />
<line x1="223.63636780" y1="923.00000000" x2="223.63636780" y2="54.00000000" style="stroke:rgb(127.50000000,127.50000000,127.50000000);stroke-width:0.50000000;opacity:1.00000000;stroke-linecap:butt" />
<line x1="292.24243164" y1="923.00000000" x2="292.24243164" y2="54.00000000" style="stroke:rgb(127.50000000,127.50000000,127.50000000);stroke-width:0.50000000;opacity:1.00000000;stroke-linecap:butt" />
<line x1="360.84851074" y1="923.00000000" x2="360.84851074" y2="54.00000000" style="stroke:rgb(127.50000000,127.50000000,127.50000000);stroke-width:0.50000000;opacity:1.00000000;stroke-linecap:butt" />
<line x1="429.45458984" y1="923.00000000" x2="429.45458984" y2="54.00000000" style="stroke:rgb(127.50000000,127.50000000,127.50000000);stroke-width:0.50000000;opacity:1.00000000;stroke-linecap:butt" />
<line x1="498.06066895" y1="923.00000000" x2="498.06066895" y2="54.00000000" style="stroke:rgb(127.50000000,127.50000000,127.50000000);stroke-width:0.50000000;opacity:1.00000000;stroke-linecap:butt" />
<line x1="566.66674805" y1="923.00000000" x2="566.66674805" y2="54.00000000" style="stroke:rgb(127.50000000,127.50000000,127.50000000);stroke-width:0.50000000;opacity:1.00000000;stroke-linecap:butt" />
<line x1="635.27282715" y1="923.00000000" x2="635.27282715" y2="54.00000000" style="stroke:rgb(127.50000000,127.50000000,127.50000000);stroke-width:0.50000000;opacity:1.00000000;stroke-linecap:butt" />
<line x1="703.87890625" y1="923.00000000" x2="703.87890625" y2="54.00000000" style="stroke:rgb(127.50000000,127.50000000,127.50000000);stroke-width:0.50000000;opacity:1.00000000;stroke-linecap:butt" />
<line x1="772.48498535" y1="923.00000000" x2="772.48498535" y2="54.00000000" style="stroke:rgb(127.50000000,127.50000000,127.50000000);stroke-width:0.50000000;opacity:1.00000000;stroke-linecap:butt" />
<line x1="841.09106445" y1="923.00000000" x2="841.09106445" y2="54.00000000" style="stroke:rgb(127.50000000,127.50000000,127.50000000);stroke-width:0.50000000;opacity:1.00000000;stroke-linecap:butt" />
<line x1="909.69714355" y1="923.00000000" x2="909.69714355" y2="54.00000000" style="stroke:rgb(127.50000000,127.50000000,127.50000000);stroke-width:0.50000000;opacity:1.00000000;stroke-linecap:butt" />
<line x1="95.00000000" y1="700.14074707" x2="944.00000000" y2="700.14074707" style="stroke:rgb(127.50000000,127.50000000,127.50000000);stroke-width:0.50000000;opacity:1.00000000;stroke-linecap:butt" />
<line x1="95.00000000" y1="470.48760986" x2="944.00000000" y2="470.48760986" style="stroke:rgb(127.50000000,127.50000000,127.50000000);stroke-width:0.50000000;opacity:1.00000000;stroke-linecap:butt" />
<line x1="95.00000000" y1="240.83447266" x2="944.00000000" y2="240.83447266" style="stroke:rgb(127.50000000,127.50000000,127.50000000);stroke-width:0.50000000;opacity:1.00000000;stroke-linecap:butt" />
<rect x="94.00000000" y="53.00000000" width="851.00000000" height="871.00000000" style="fill:rgb(255,255,255);stroke-width:2.00000000;stroke:rgb(0.00000000,0.00000000,0.00000000);opacity:1;fill-opacity:0;" />
<line x1="155.03030396" y1="925.00000000" x2="155.03030396" y2="931.00000000" style="stroke:rgb(0.00000000,0.00000000,0.00000000);stroke-width:2.00000000;opacity:1.00000000;stroke-linecap:butt" />
<text font-size="12.00000000" font-family="Roboto" x="134.97030640" y="949.00000000" style="stroke:rgb(0.00000000,0.00000000,0.00000000);stroke-width:0.17500000;fill:rgb(0.00000000,0.00000000,0.00000000);opacity:1.00000000;" transform="rotate(-0.00000000,134.97030640,949.00000000)">10.0</text>
<line x1="223.63636780" y1="925.00000000" x2="223.63636780" y2="931.00000000" style="stroke:rgb(0.00000000,0.00000000,0.00000000);stroke-width:2.00000000;opacity:1.00000000;stroke-linecap:butt" />
<text font-size="12.00000000" font-family="Roboto" x="203.09637451" y="949.00000000" style="stroke:rgb(0.00000000,0.00000000,0.00000000);stroke-width:0.17500000;fill:rgb(0.00000000,0.00000000,0.00000000);opacity:1.00000000;" transform="rotate(-0.00000000,203.09637451,949.00000000)">20.0</text>
<line x1="292.24243164" y1="925.00000000" x2="292.24243164" y2="931.00000000" style="stroke:rgb(0.00000000,0.00000000,0.00000000);stroke-width:2.00000000;opacity:1.00000000;stroke-linecap:butt" />
<text font-size="12.00000000" font-family="Roboto" x="271.70242310" y="949.00000000" style="stroke:rgb(0.00000000,0.00000000,0.00000000);stroke-width:0.17500000;fill:rgb(0.00000000,0.00000000,0.00000000);opacity:1.00000000;" transform="rotate(-0.00000000,271.70242310,949.00000000)">30.0</text>
<line x1="360.84851074" y1="925.00000000" x2="360.84851074" y2="931.00000000" style="stroke:rgb(0.00000000,0.00000000,0.00000000);stroke-width:2.00000000;opacity:1.00000000;stroke-linecap:butt" />
<text font-size="12.00000000" font-family="Roboto" x="340.30850220" y="949.00000000" style="stroke:rgb(0.00000000,0.00000000,0.00000000);stroke-width:0.17500000;fill:rgb(0.00000000,0.00000000,0.00000000);opacity:1.00000000;" transform="rotate(-0.00000000,340.30850220,949.00000000)">40.0</text>
<line x1="429.45458984" y1="925.00000000" x2="429.45458984" y2="931.00000000" style="stroke:rgb(0.00000000,0.00000000,0.00000000);stroke-width:2.00000000;opacity:1.00000000;stroke-linecap:butt" />
<text font-size="12.00000000" font-family="Roboto" x="408.91458130" y="949.00000000" style="stroke:rgb(0.00000000,0.00000000,0.00000000);stroke-width:0.17500000;fill:rgb(0.00000000,0.00000000,0.00000000);opacity:1.00000000;" transform="rotate(-0.00000000,408.91458130,949.00000000)">50.0</text>
<line x1="498.06066895" y1="925.00000000" x2="498.06066895" y2="931.00000000" style="stroke:rgb(0.00000000,0.00000000,0.00000000);stroke-width:2.00000000;opacity:1.00000000;stroke-linecap:butt" />
<text font-size="12.00000000" font-family="Roboto" x="477.52066040" y="949.00000000" style="stroke:rgb(0.00000000,0.00000000,0.00000000);stroke-width:0.17500000;fill:rgb(0.00000000,0.00000000,0.00000000);opacity:1.00000000;" transform="rotate(-0.00000000,477.52066040,949.00000000)">60.0</text>
<line x1="566.66674805" y1="925.00000000" x2="566.66674805" y2="931.00000000" style="stroke:rgb(0.00000000,0.00000000,0.00000000);stroke-width:2.00000000;opacity:1.00000000;stroke-linecap:butt" />
<text font-size="12.00000000" font-family="Roboto" x="546.12670898" y="949.00000000" style="stroke:rgb(0.00000000,0.00000000,0.00000000);stroke-width:0.17500000;fill:rgb(0.00000000,0.00000000,0.00000000);opacity:1.00000000;" transform="rotate(-0.00000000,546.12670898,949.00000000)">70.0</text>
<line x1="635.27282715" y1="925.00000000" x2="635.27282715" y2="931.00000000" style="stroke:rgb(0.00000000,0.00000000,0.00000000);stroke-width:2.00000000;opacity:1.00000000;stroke-linecap:butt" />
<text font-size="12.00000000" font-family="Roboto" x="614.73284912" y="949.00000000" style="stroke:rgb(0.00000000,0.00000000,0.00000000);stroke-width:0.17500000;fill:rgb(0.00000000,0.00000000,0.00000000);opacity:1.00000000;" transform="rotate(-0.00000000,614.73284912,949.00000000)">80.0</text>
<line x1="703.87890625" y1="925.00000000" x2="703.87890625" y2="931.00000000" style="stroke:rgb(0.00000000,0.00000000,0.00000000);stroke-width:2.00000000;opacity:1.00000000;stroke-linecap:butt" />
<text font-size="12.00000000" font-family="Roboto" x="683.33892822" y="949.00000000" style="stroke:rgb(0.00000000,0.00000000,0.00000000);stroke-width:0.17500000;fill:rgb(0.00000000,0.00000000,0.00000000);opacity:1.00000000;" transform="rotate(-0.00000000,683.33892822,949.00000000)">90.0</text>
<line x1="772.48498535" y1="925.00000000" x2="772.48498535" y2="931.00000000" style="stroke:rgb(0.00000000,0.00000000,0.00000000);stroke-width:2.00000000;opacity:1.00000000;stroke-linecap:butt" />
<text font-size="12.00000000" font-family="Roboto" x="750.26501465" y="949.00000000" style="stroke:rgb(0.00000000,0.00000000,0.00000000);stroke-width:0.17500000;fill:rgb(0.00000000,0.00000000,0.00000000);opacity:1.00000000;" transform="rotate(-0.00000000,750.26501465,949.00000000)">100.0</text>
<line x1="841.09106445" y1="925.00000000" x2="841.09106445" y2="931.00000000" style="stroke:rgb(0.00000000,0.00000000,0.00000000);stroke-width:2.00000000;opacity:1.00000000;stroke-linecap:butt" />
<text font-size="12.00000000" font-family="Roboto" x="819.35107422" y="949.00000000" style="stroke:rgb(0.00000000,0.00000000,0.00000000);stroke-width:0.17500000;fill:rgb(0.00000000,0.00000000,0.00000000);opacity:1.00000000;" transform="rotate(-0.00000000,819.35107422,949.00000000)">110.0</text>
<line x1="909.69714355" y1="925.00000000" x2="909.69714355" y2="931.00000000" style="stroke:rgb(0.00000000,0.00000000,0.00000000);stroke-width:2.00000000;opacity:1.00000000;stroke-linecap:butt" />
<text font-size="12.00000000" font-family="Roboto" x="887.47717285" y="949.00000000" style="stroke:rgb(0.00000000,0.00000000,0.00000000);stroke-width:0.17500000;fill:rgb(0.00000000,0.00000000,0.00000000);opacity:1.00000000;" transform="rotate(-0.00000000,887.47717285,949.00000000)">120.0</text>
<line x1="87.00000000" y1="700.14074707" x2="93.00000000" y2="700.14074707" style="stroke:rgb(0.00000000,0.00000000,0.00000000);stroke-width:2.00000000;opacity:1.00000000;stroke-linecap:butt" />
<text font-size="12.00000000" font-family="Roboto" x="43.00000000" y="706.14074707" style="stroke:rgb(0.00000000,0.00000000,0.00000000);stroke-width:0.17500000;fill:rgb(0.00000000,0.00000000,0.00000000);opacity:1.00000000;" transform="rotate(-0.00000000,43.00000000,706.14074707)">100.0</text>
<line x1="87.00000000" y1="470.48760986" x2="93.00000000" y2="470.48760986" style="stroke:rgb(0.00000000,0.00000000,0.00000000);stroke-width:2.00000000;opacity:1.00000000;stroke-linecap:butt" />
<text font-size="12.00000000" font-family="Roboto" x="43.00000000" y="476.48760986" style="stroke:rgb(0.00000000,0.00000000,0.00000000);stroke-width:0.17500000;fill:rgb(0.00000000,0.00000000,0.00000000);opacity:1.00000000;" transform="rotate(-0.00000000,43.00000000,476.48760986)">200.0</text>
<line x1="87.00000000" y1="240.83447266" x2="93.00000000" y2="240.83447266" style="stroke:rgb(0.00000000,0.00000000,0.00000000);stroke-width:2.00000000;opacity:1.00000000;stroke-linecap:butt" />
<text font-size="12.00000000" font-family="Roboto" x="43.00000000" y="246.83447266" style="stroke:rgb(0.00000000,0.00000000,0.00000000);stroke-width:0.17500000;fill:rgb(0.00000000,0.00000000,0.00000000);opacity:1.00000000;" transform="rotate(-0.00000000,43.00000000,246.83447266)">300.0</text>
<circle cx="100.14545441" cy="914.39355469" r="5.00000000"  style="fill:rgb(252.70318604,212.27067566,2.29680610);opacity:1.00000000" />
<circle cx="107.00605774" cy="912.27539062" r="5.00000000"  style="fill:rgb(251.50939941,211.26788330,3.49059939);opacity:1.00000000" />
<circle cx="113.86666870" cy="898.47509766" r="5.00000000"  style="fill:rgb(243.73146057,204.73442078,11.26853180);opacity:1.00000000" />
<circle cx="120.72727203" cy="900.26306152" r="5.00000000"  style="fill:rgb(244.73915100,205.58088684,10.26084995);opacity:1.00000000" />
<circle cx="127.58787537" cy="917.79858398" r="5.00000000"  style="fill:rgb(254.62228394,213.88270569,0.37771422);opacity:1.00000000" />
<circle cx="134.44848633" cy="918.46875000" r="5.00000000"  style="fill:rgb(255.00000000,214.19999695,0.00000000);opacity:1.00000000" />
<circle cx="141.30908203" cy="886.83038330" r="5.00000000"  style="fill:rgb(237.16842651,199.22146606,17.83158112);opacity:1.00000000" />
<circle cx="148.16970825" cy="882.30633545" r="5.00000000"  style="fill:rgb(234.61865234,197.07966614,20.38134766);opacity:1.00000000" />
<circle cx="155.03030396" cy="887.01489258" r="5.00000000"  style="fill:rgb(237.27239990,199.30880737,17.72759628);opacity:1.00000000" />
<circle cx="161.89089966" cy="869.93341064" r="5.00000000"  style="fill:rgb(227.64518738,191.22195435,27.35480309);opacity:1.00000000" />
<circle cx="168.75151062" cy="873.86083984" r="5.00000000"  style="fill:rgb(229.85871887,193.08131409,25.14127350);opacity:1.00000000" />
<circle cx="175.61212158" cy="860.96337891" r="5.00000000"  style="fill:rgb(222.58963013,186.97528076,32.41037369);opacity:1.00000000" />
<circle cx="182.47271729" cy="844.17749023" r="5.00000000"  style="fill:rgb(213.12904358,179.02839661,41.87096405);opacity:1.00000000" />
<circle cx="189.33334351" cy="855.00476074" r="5.00000000"  style="fill:rgb(219.23132324,184.15431213,35.76867676);opacity:1.00000000" />
<circle cx="196.19393921" cy="874.45050049" r="5.00000000"  style="fill:rgb(230.19107056,193.36050415,24.80893707);opacity:1.00000000" />
<circle cx="203.05453491" cy="849.06005859" r="5.00000000"  style="fill:rgb(215.88088989,181.33993530,39.11911774);opacity:1.00000000" />
<circle cx="209.91516113" cy="830.14013672" r="5.00000000"  style="fill:rgb(205.21746826,172.38267517,49.78252029);opacity:1.00000000" />
<circle cx="216.77575684" cy="855.82580566" r="5.00000000"  style="fill:rgb(219.69407654,184.54301453,35.30592728);opacity:1.00000000" />
<circle cx="223.63636780" cy="842.54974365" r="5.00000000"  style="fill:rgb(212.21162415,178.25775146,42.78838730);opacity:1.00000000" />
<circle cx="230.49696350" cy="829.12500000" r="5.00000000"  style="fill:rgb(204.64535522,171.90208435,50.35464096);opacity:1.00000000" />
<circle cx="237.35757446" cy="825.94519043" r="5.00000000"  style="fill:rgb(202.85317993,170.39665222,52.14681244);opacity:1.00000000" />
<circle cx="244.21818542" cy="823.55670166" r="5.00000000"  style="fill:rgb(201.50703430,169.26589966,53.49296951);opacity:1.00000000" />
<circle cx="251.07878113" cy="841.60974121" r="5.00000000"  style="fill:rgb(211.68180847,177.81271362,43.31819534);opacity:1.00000000" />
<circle cx="257.93939209" cy="802.34185791" r="5.00000000"  style="fill:rgb(189.55021667,159.22216797,65.44977570);opacity:1.00000000" />
<circle cx="264.79998779" cy="794.74865723" r="5.00000000"  style="fill:rgb(185.27067566,155.62734985,69.72933960);opacity:1.00000000" />
<circle cx="271.66061401" cy="816.60693359" r="5.00000000"  style="fill:rgb(197.59010315,165.97567749,57.40990067);opacity:1.00000000" />
<circle cx="278.52120972" cy="796.87713623" r="5.00000000"  style="fill:rgb(186.47027588,156.63502502,68.52972412);opacity:1.00000000" />
<circle cx="285.38183594" cy="811.93920898" r="5.00000000"  style="fill:rgb(194.95935059,163.76585388,60.04064941);opacity:1.00000000" />
<circle cx="292.24243164" cy="786.36865234" r="5.00000000"  style="fill:rgb(180.54762268,151.65998840,74.45237732);opacity:1.00000000" />
<circle cx="299.10302734" cy="767.56884766" r="5.00000000"  style="fill:rgb(169.95196533,142.75964355,85.04804230);opacity:1.00000000" />
<circle cx="305.96362305" cy="783.44702148" r="5.00000000"  style="fill:rgb(178.90097046,150.27680969,76.09902954);opacity:1.00000000" />
<circle cx="312.82424927" cy="758.24505615" r="5.00000000"  style="fill:rgb(164.69699097,138.34547424,90.30300140);opacity:1.00000000" />
<circle cx="319.68484497" cy="784.46386719" r="5.00000000"  style="fill:rgb(179.47406006,150.75822449,75.52593231);opacity:1.00000000" />
<circle cx="326.54547119" cy="776.21636963" r="5.00000000"  style="fill:rgb(174.82572937,146.85360718,80.17426300);opacity:1.00000000" />
<circle cx="333.40606689" cy="787.15722656" r="5.00000000"  style="fill:rgb(180.99206543,152.03334045,74.00792694);opacity:1.00000000" />
<circle cx="340.26666260" cy="739.20111084" r="5.00000000"  style="fill:rgb(153.96372986,129.32952881,101.03627014);opacity:1.00000000" />
<circle cx="347.12725830" cy="776.03497314" r="5.00000000"  style="fill:rgb(174.72351074,146.76774597,80.27648163);opacity:1.00000000" />
<circle cx="353.98788452" cy="762.44158936" r="5.00000000"  style="fill:rgb(167.06219482,140.33224487,87.93779755);opacity:1.00000000" />
<circle cx="360.84851074" cy="749.96392822" r="5.00000000"  style="fill:rgb(160.02972412,134.42495728,94.97029114);opacity:1.00000000" />
<circle cx="367.70910645" cy="736.68884277" r="5.00000000"  style="fill:rgb(152.54780579,128.14013672,102.45220184);opacity:1.00000000" />
<circle cx="374.56970215" cy="745.19116211" r="5.00000000"  style="fill:rgb(157.33976746,132.16540527,97.66024017);opacity:1.00000000" />
<circle cx="381.43032837" cy="746.37554932" r="5.00000000"  style="fill:rgb(158.00729370,132.72612000,96.99271393);opacity:1.00000000" />
<circle cx="388.29092407" cy="728.42120361" r="5.00000000"  style="fill:rgb(147.88810730,124.22601318,107.11189270);opacity:1.00000000" />
<circle cx="395.15151978" cy="734.94116211" r="5.00000000"  style="fill:rgb(151.56283569,127.31277466,103.43717194);opacity:1.00000000" />
<circle cx="402.01214600" cy="735.48046875" r="5.00000000"  style="fill:rgb(151.86677551,127.56807709,103.13323212);opacity:1.00000000" />
<circle cx="408.87274170" cy="700.78924561" r="5.00000000"  style="fill:rgb(132.31459045,111.14424896,122.68542480);opacity:1.00000000" />
<circle cx="415.73333740" cy="688.63000488" r="5.00000000"  style="fill:rgb(125.46157837,105.38771820,129.53842163);opacity:1.00000000" />
<circle cx="422.59396362" cy="715.86383057" r="5.00000000"  style="fill:rgb(140.81071472,118.28099823,114.18929291);opacity:1.00000000" />
<circle cx="429.45455933" cy="702.63531494" r="5.00000000"  style="fill:rgb(133.35502625,112.01822662,121.64496613);opacity:1.00000000" />
<circle cx="436.31518555" cy="685.84167480" r="5.00000000"  style="fill:rgb(123.89004517,104.06762695,131.10995483);opacity:1.00000000" />
<circle cx="443.17578125" cy="710.26403809" r="5.00000000"  style="fill:rgb(137.65463257,115.62989044,117.34537506);opacity:1.00000000" />
<circle cx="450.03637695" cy="676.98883057" r="5.00000000"  style="fill:rgb(118.90052795,99.87644196,136.09947205);opacity:1.00000000" />
<circle cx="456.89700317" cy="698.36126709" r="5.00000000"  style="fill:rgb(130.94616699,109.99478149,124.05383301);opacity:1.00000000" />
<circle cx="463.75759888" cy="699.78918457" r="5.00000000"  style="fill:rgb(131.75093079,110.67078400,123.24905396);opacity:1.00000000" />
<circle cx="470.61819458" cy="672.92175293" r="5.00000000"  style="fill:rgb(116.60830688,97.95097351,138.39169312);opacity:1.00000000" />
<circle cx="477.47882080" cy="685.90478516" r="5.00000000"  style="fill:rgb(123.92562103,104.09751892,131.07437134);opacity:1.00000000" />
<circle cx="484.33941650" cy="664.81237793" r="5.00000000"  style="fill:rgb(112.03784180,94.11178589,142.96215820);opacity:1.00000000" />
<circle cx="491.20001221" cy="676.97637939" r="5.00000000"  style="fill:rgb(118.89352417,99.87055969,136.10647583);opacity:1.00000000" />
<circle cx="498.06063843" cy="645.45989990" r="5.00000000"  style="fill:rgb(101.13066101,84.94975281,153.86933899);opacity:1.00000000" />
<circle cx="504.92123413" cy="668.08697510" r="5.00000000"  style="fill:rgb(113.88341522,95.66206360,141.11657715);opacity:1.00000000" />
<circle cx="511.78182983" cy="650.07812500" r="5.00000000"  style="fill:rgb(103.73352051,87.13615417,151.26647949);opacity:1.00000000" />
<circle cx="518.64245605" cy="618.26428223" r="5.00000000"  style="fill:rgb(85.80304718,72.07455444,169.19696045);opacity:1.00000000" />
<circle cx="525.50305176" cy="630.05932617" r="5.00000000"  style="fill:rgb(92.45080566,77.65867615,162.54919434);opacity:1.00000000" />
<circle cx="532.36364746" cy="644.53747559" r="5.00000000"  style="fill:rgb(100.61077118,84.51304626,154.38922119);opacity:1.00000000" />
<circle cx="539.22424316" cy="606.27215576" r="5.00000000"  style="fill:rgb(79.04422760,66.39714050,175.95578003);opacity:1.00000000" />
<circle cx="546.08483887" cy="613.75567627" r="5.00000000"  style="fill:rgb(83.26197052,69.94004822,171.73803711);opacity:1.00000000" />
<circle cx="552.94543457" cy="634.72924805" r="5.00000000"  style="fill:rgb(95.08281708,79.86956024,159.91719055);opacity:1.00000000" />
<circle cx="559.80609131" cy="610.05993652" r="5.00000000"  style="fill:rgb(81.17902374,68.19038391,173.82096863);opacity:1.00000000" />
<circle cx="566.66668701" cy="614.42761230" r="5.00000000"  style="fill:rgb(83.64068604,70.25817871,171.35931396);opacity:1.00000000" />
<circle cx="573.52728271" cy="622.54998779" r="5.00000000"  style="fill:rgb(88.21849823,74.10353088,166.78149414);opacity:1.00000000" />
<circle cx="580.38793945" cy="593.84167480" r="5.00000000"  style="fill:rgb(72.03831482,60.51218414,182.96168518);opacity:1.00000000" />
<circle cx="587.24853516" cy="601.91406250" r="5.00000000"  style="fill:rgb(76.58798981,64.33390808,178.41200256);opacity:1.00000000" />
<circle cx="594.10913086" cy="606.62573242" r="5.00000000"  style="fill:rgb(79.24346924,66.56451416,175.75653076);opacity:1.00000000" />
<circle cx="600.96972656" cy="571.34655762" r="5.00000000"  style="fill:rgb(59.35997391,49.86237717,195.64002991);opacity:1.00000000" />
<circle cx="607.83032227" cy="566.25073242" r="5.00000000"  style="fill:rgb(56.48792267,47.44985199,198.51208496);opacity:1.00000000" />
<circle cx="614.69091797" cy="558.54089355" r="5.00000000"  style="fill:rgb(52.14259720,43.79977798,202.85740662);opacity:1.00000000" />
<circle cx="621.55151367" cy="554.80554199" r="5.00000000"  style="fill:rgb(50.03734207,42.03136444,204.96266174);opacity:1.00000000" />
<circle cx="628.41217041" cy="565.03198242" r="5.00000000"  style="fill:rgb(55.80102539,46.87285995,199.19897461);opacity:1.00000000" />
<circle cx="635.27276611" cy="578.30456543" r="5.00000000"  style="fill:rgb(63.28154755,53.15649414,191.71846008);opacity:1.00000000" />
<circle cx="642.13336182" cy="536.66760254" r="5.00000000"  style="fill:rgb(39.81467438,33.44432449,215.18533325);opacity:1.00000000" />
<circle cx="648.99395752" cy="573.63586426" r="5.00000000"  style="fill:rgb(60.65021896,50.94618225,194.34977722);opacity:1.00000000" />
<circle cx="655.85455322" cy="568.18408203" r="5.00000000"  style="fill:rgb(57.57756424,48.36515427,197.42243958);opacity:1.00000000" />
<circle cx="662.71514893" cy="546.85961914" r="5.00000000"  style="fill:rgb(45.55897903,38.26953888,209.44102478);opacity:1.00000000" />
<circle cx="669.57580566" cy="548.81604004" r="5.00000000"  style="fill:rgb(46.66160202,39.19574356,208.33839417);opacity:1.00000000" />
<circle cx="676.43640137" cy="546.33367920" r="5.00000000"  style="fill:rgb(45.26254654,38.02053833,209.73745728);opacity:1.00000000" />
<circle cx="683.29699707" cy="512.49291992" r="5.00000000"  style="fill:rgb(26.18968391,21.99933434,228.81031799);opacity:1.00000000" />
<circle cx="690.15759277" cy="528.58544922" r="5.00000000"  style="fill:rgb(35.25952530,29.61799812,219.74047852);opacity:1.00000000" />
<circle cx="697.01818848" cy="517.58874512" r="5.00000000"  style="fill:rgb(29.06172180,24.41184425,225.93827820);opacity:1.00000000" />
<circle cx="703.87878418" cy="511.69897461" r="5.00000000"  style="fill:rgb(25.74223518,21.62347603,229.25776672);opacity:1.00000000" />
<circle cx="710.73944092" cy="496.90609741" r="5.00000000"  style="fill:rgb(17.40489006,14.62010670,237.59510803);opacity:1.00000000" />
<circle cx="717.60003662" cy="490.76144409" r="5.00000000"  style="fill:rgb(13.94172573,11.71104908,241.05827332);opacity:1.00000000" />
<circle cx="724.46063232" cy="517.72637939" r="5.00000000"  style="fill:rgb(29.13931465,24.47702217,225.86068726);opacity:1.00000000" />
<circle cx="731.32122803" cy="510.26336670" r="5.00000000"  style="fill:rgb(24.93312263,20.94382286,230.06687927);opacity:1.00000000" />
<circle cx="738.18182373" cy="471.37597656" r="5.00000000"  style="fill:rgb(3.01597404,2.53341818,251.98402405);opacity:1.00000000" />
<circle cx="745.04241943" cy="508.09494019" r="5.00000000"  style="fill:rgb(23.71098518,19.91722870,231.28901672);opacity:1.00000000" />
<circle cx="751.90307617" cy="490.10430908" r="5.00000000"  style="fill:rgb(13.57135201,11.39993572,241.42864990);opacity:1.00000000" />
<circle cx="758.76367188" cy="482.59289551" r="5.00000000"  style="fill:rgb(9.33787727,7.84381628,245.66212463);opacity:1.00000000" />
<circle cx="765.62426758" cy="466.02478027" r="5.00000000"  style="fill:rgb(0.00000000,0.00000000,255.00000000);opacity:1.00000000" />
<circle cx="772.48486328" cy="489.05310059" r="5.00000000"  style="fill:rgb(12.97888756,10.90226460,242.02111816);opacity:1.00000000" />
<polygon points="100.14545441,912.27233887 98.67599487,915.24981689 95.39017487,915.72723389 97.76781464,918.04486084 97.20652771,921.31744385 100.14545441,919.77233887 103.08438110,921.31744385 102.52309418,918.04486084 104.90073395,915.72723389 101.61491394,915.24981689 100.14545441,912.27233887 98.67599487,915.24981689 " style="fill:rgb(0.00000000,127.50000000,0.00000000);opacity:1.0" />
<polygon points="113.86666870,907.07824707 112.39720154,910.05572510 109.11138153,910.53320312 111.48902893,912.85083008 110.92774200,916.12335205 113.86666870,914.57824707 116.80558777,916.12335205 116.24430847,912.85083008 118.62194824,910.53320312 115.33612823,910.05572510 113.86666870,907.07824707 112.39720154,910.05572510 " style="fill:rgb(0.00000000,127.50000000,0.00000000);opacity:1.0" />
<polygon points="120.72727203,909.34588623 119.25781250,912.32336426 115.97199249,912.80078125 118.34963226,915.11840820 117.78834534,918.39099121 120.72727203,916.84588623 123.66619873,918.39099121 123.10491943,915.11840820 125.48255920,912.80078125 122.19673920,912.32336426 120.72727966,909.34588623 119.25781250,912.32336426 " style="fill:rgb(0.00000000,127.50000000,0.00000000);opacity:1.0" />
<polygon points="127.58787537,893.96276855 126.11840820,896.94024658 122.83259583,897.41772461 125.21023560,899.73535156 124.64894867,903.00787354 127.58787537,901.46276855 130.52679443,903.00787354 129.96551514,899.73535156 132.34315491,897.41772461 129.05734253,896.94024658 127.58787537,893.96276855 126.11841583,896.94024658 " style="fill:rgb(0.00000000,127.50000000,0.00000000);opacity:1.0" />
<polygon points="134.44848633,892.11541748 132.97901917,895.09289551 129.69320679,895.57031250 132.07084656,897.88793945 131.50955200,901.16052246 134.44848633,899.61541748 137.38742065,901.16052246 136.82612610,897.88793945 139.20376587,895.57031250 135.91795349,895.09289551 134.44848633,892.11541748 132.97901917,895.09289551 " style="fill:rgb(0.00000000,127.50000000,0.00000000);opacity:1.0" />
<polygon points="141.30908203,866.99761963 139.83963013,869.97509766 136.55380249,870.45251465 138.93145752,872.77014160 138.37016296,876.04272461 141.30908203,874.49761963 144.24801636,876.04272461 143.68673706,872.77014160 146.06437683,870.45251465 142.77854919,869.97509766 141.30908203,866.99761963 139.83963013,869.97509766 " style="fill:rgb(0.00000000,127.50000000,0.00000000);opacity:1.0" />
<polygon points="148.16970825,856.53002930 146.70024109,859.50750732 143.41441345,859.98498535 145.79205322,862.30261230 145.23077393,865.57513428 148.16970825,864.03002930 151.10862732,865.57513428 150.54733276,862.30261230 152.92498779,859.98498535 149.63916016,859.50750732 148.16970825,856.53002930 146.70024109,859.50750732 " style="fill:rgb(0.00000000,127.50000000,0.00000000);opacity:1.0" />
<polygon points="155.03030396,865.20294189 153.56083679,868.18041992 150.27502441,868.65783691 152.65266418,870.97546387 152.09136963,874.24804688 155.03030396,872.70294189 157.96923828,874.24804688 157.40794373,870.97546387 159.78558350,868.65783691 156.49975586,868.18041992 155.03030396,865.20294189 153.56083679,868.18041992 " style="fill:rgb(0.00000000,127.50000000,0.00000000);opacity:1.0" />
<polygon points="161.89089966,859.77221680 160.42144775,862.74963379 157.13562012,863.22711182 159.51327515,865.54473877 158.95198059,868.81726074 161.89089966,867.27221680 164.82983398,868.81726074 164.26855469,865.54473877 166.64619446,863.22711182 163.36036682,862.74963379 161.89089966,859.77221680 160.42144775,862.74963379 " style="fill:rgb(0.00000000,127.50000000,0.00000000);opacity:1.0" />
<polygon points="168.75151062,822.26196289 167.28204346,825.23937988 163.99623108,825.71685791 166.37387085,828.03448486 165.81259155,831.30700684 168.75149536,829.76196289 171.69042969,831.30700684 171.12915039,828.03454590 173.50677490,825.71685791 170.22097778,825.23937988 168.75149536,822.26196289 167.28205872,825.23937988 " style="fill:rgb(0.00000000,127.50000000,0.00000000);opacity:1.0" />
<polygon points="175.61212158,847.41693115 174.14266968,850.39440918 170.85684204,850.87182617 173.23448181,853.18945312 172.67320251,856.46203613 175.61212158,854.91693115 178.55105591,856.46203613 177.98976135,853.18945312 180.36740112,850.87182617 177.08160400,850.39440918 175.61212158,847.41693115 174.14266968,850.39440918 " style="fill:rgb(0.00000000,127.50000000,0.00000000);opacity:1.0" />
<polygon points="182.47271729,807.31726074 181.00326538,810.29467773 177.71743774,810.77215576 180.09509277,813.08978271 179.53379822,816.36230469 182.47271729,814.81726074 185.41165161,816.36230469 184.85037231,813.08978271 187.22799683,810.77215576 183.94219971,810.29467773 182.47271729,807.31726074 181.00326538,810.29467773 " style="fill:rgb(0.00000000,127.50000000,0.00000000);opacity:1.0" />
<polygon points="189.33334351,819.65338135 187.86387634,822.63085938 184.57806396,823.10827637 186.95568848,825.42590332 186.39440918,828.69848633 189.33332825,827.15338135 192.27226257,828.69848633 191.71096802,825.42590332 194.08862305,823.10827637 190.80281067,822.63085938 189.33334351,819.65338135 187.86389160,822.63085938 " style="fill:rgb(0.00000000,127.50000000,0.00000000);opacity:1.0" />
<polygon points="196.19393921,822.45928955 194.72448730,825.43676758 191.43865967,825.91418457 193.81629944,828.23181152 193.25502014,831.50439453 196.19393921,829.95928955 199.13287354,831.50433350 198.57157898,828.23181152 200.94921875,825.91418457 197.66342163,825.43676758 196.19393921,822.45928955 194.72448730,825.43670654 " style="fill:rgb(0.00000000,127.50000000,0.00000000);opacity:1.0" />
<polygon points="203.05453491,786.85913086 201.58508301,789.83654785 198.29925537,790.31402588 200.67691040,792.63165283 200.11561584,795.90417480 203.05453491,794.35906982 205.99346924,795.90417480 205.43215942,792.63165283 207.80981445,790.31402588 204.52398682,789.83654785 203.05453491,786.85913086 201.58509827,789.83654785 " style="fill:rgb(0.00000000,127.50000000,0.00000000);opacity:1.0" />
<polygon points="209.91516113,808.70800781 208.44569397,811.68542480 205.15988159,812.16290283 207.53750610,814.48052979 206.97622681,817.75305176 209.91514587,816.20800781 212.85408020,817.75305176 212.29278564,814.48052979 214.67044067,812.16290283 211.38462830,811.68542480 209.91516113,808.70800781 208.44570923,811.68542480 " style="fill:rgb(0.00000000,127.50000000,0.00000000);opacity:1.0" />
<polygon points="216.77575684,777.98522949 215.30630493,780.96264648 212.02047729,781.44012451 214.39813232,783.75775146 213.83682251,787.03027344 216.77575684,785.48516846 219.71467590,787.03027344 219.15338135,783.75775146 221.53103638,781.44012451 218.24520874,780.96264648 216.77575684,777.98522949 215.30630493,780.96264648 " style="fill:rgb(0.00000000,127.50000000,0.00000000);opacity:1.0" />
<polygon points="223.63636780,788.20263672 222.16690063,791.18011475 218.88108826,791.65759277 221.25872803,793.97521973 220.69744873,797.24774170 223.63636780,795.70263672 226.57528687,797.24774170 226.01400757,793.97521973 228.39164734,791.65759277 225.10581970,791.18011475 223.63638306,788.20263672 222.16690063,791.18011475 " style="fill:rgb(0.00000000,127.50000000,0.00000000);opacity:1.0" />
<polygon points="230.49696350,797.61346436 229.02749634,800.59094238 225.74168396,801.06835938 228.11932373,803.38598633 227.55804443,806.65856934 230.49696350,805.11346436 233.43588257,806.65856934 232.87460327,803.38598633 235.25222778,801.06835938 231.96643066,800.59094238 230.49696350,797.61352539 229.02751160,800.59094238 " style="fill:rgb(0.00000000,127.50000000,0.00000000);opacity:1.0" />
<polygon points="237.35757446,752.70886230 235.88810730,755.68627930 232.60229492,756.16375732 234.97993469,758.48138428 234.41864014,761.75390625 237.35758972,760.20886230 240.29649353,761.75390625 239.73521423,758.48138428 242.11285400,756.16375732 238.82701111,755.68627930 237.35758972,752.70886230 235.88809204,755.68634033 " style="fill:rgb(0.00000000,127.50000000,0.00000000);opacity:1.0" />
<polygon points="244.21818542,777.22491455 242.74871826,780.20239258 239.46290588,780.67980957 241.84054565,782.99749756 241.27925110,786.27001953 244.21820068,784.72491455 247.15710449,786.27001953 246.59582520,782.99743652 248.97346497,780.67987061 245.68762207,780.20239258 244.21820068,777.22491455 242.74870300,780.20239258 " style="fill:rgb(0.00000000,127.50000000,0.00000000);opacity:1.0" />
<polygon points="251.07878113,748.47717285 249.60931396,751.45458984 246.32350159,751.93206787 248.70114136,754.24969482 248.13984680,757.52221680 251.07879639,755.97717285 254.01770020,757.52221680 253.45642090,754.24969482 255.83406067,751.93206787 252.54821777,751.45458984 251.07879639,748.47717285 249.60929871,751.45465088 " style="fill:rgb(0.00000000,127.50000000,0.00000000);opacity:1.0" />
<polygon points="257.93939209,773.22918701 256.46990967,776.20666504 253.18411255,776.68408203 255.56175232,779.00170898 255.00045776,782.27429199 257.93939209,780.72918701 260.87829590,782.27429199 260.31701660,779.00170898 262.69467163,776.68408203 259.40881348,776.20666504 257.93939209,773.22918701 256.46990967,776.20666504 " style="fill:rgb(0.00000000,127.50000000,0.00000000);opacity:1.0" />
<polygon points="264.79998779,757.62164307 263.33053589,760.59912109 260.04473877,761.07653809 262.42236328,763.39416504 261.86108398,766.66668701 264.80001831,765.12164307 267.73892212,766.66674805 267.17764282,763.39416504 269.55529785,761.07653809 266.26943970,760.59906006 264.80001831,757.62164307 263.33050537,760.59912109 " style="fill:rgb(0.00000000,127.50000000,0.00000000);opacity:1.0" />
<polygon points="271.66061401,757.69537354 270.19116211,760.67285156 266.90533447,761.15026855 269.28295898,763.46795654 268.72167969,766.74047852 271.66064453,765.19537354 274.59954834,766.74047852 274.03826904,763.46789551 276.41589355,761.15032959 273.13006592,760.67285156 271.66064453,757.69537354 270.19113159,760.67285156 " style="fill:rgb(0.00000000,127.50000000,0.00000000);opacity:1.0" />
<polygon points="278.52120972,750.09039307 277.05175781,753.06787109 273.76593018,753.54528809 276.14355469,755.86291504 275.58227539,759.13549805 278.52124023,757.59039307 281.46014404,759.13549805 280.89886475,755.86291504 283.27648926,753.54528809 279.99066162,753.06787109 278.52124023,750.09039307 277.05172729,753.06787109 " style="fill:rgb(0.00000000,127.50000000,0.00000000);opacity:1.0" />
<polygon points="285.38183594,727.93743896 283.91235352,730.91491699 280.62652588,731.39233398 283.00418091,733.70996094 282.44287109,736.98248291 285.38183594,735.43743896 288.32073975,736.98254395 287.75946045,733.70996094 290.13708496,731.39233398 286.85125732,730.91485596 285.38183594,727.93743896 283.91235352,730.91491699 " style="fill:rgb(0.00000000,127.50000000,0.00000000);opacity:1.0" />
<polygon points="292.24243164,713.61676025 290.77294922,716.59423828 287.48715210,717.07165527 289.86480713,719.38934326 289.30349731,722.66186523 292.24243164,721.11676025 295.18133545,722.66186523 294.62005615,719.38928223 296.99771118,717.07171631 293.71185303,716.59423828 292.24243164,713.61676025 290.77294922,716.59423828 " style="fill:rgb(0.00000000,127.50000000,0.00000000);opacity:1.0" />
<polygon points="299.10302734,709.24182129 297.63354492,712.21929932 294.34774780,712.69671631 296.72540283,715.01440430 296.16409302,718.28686523 299.10302734,716.74182129 302.04193115,718.28692627 301.48065186,715.01434326 303.85830688,712.69677734 300.57244873,712.21923828 299.10302734,709.24182129 297.63354492,712.21929932 " style="fill:rgb(0.00000000,127.50000000,0.00000000);opacity:1.0" />
<polygon points="305.96362305,695.64947510 304.49417114,698.62695312 301.20837402,699.10437012 303.58599854,701.42199707 303.02471924,704.69451904 305.96365356,703.14947510 308.90255737,704.69458008 308.34127808,701.42199707 310.71893311,699.10437012 307.43307495,698.62689209 305.96365356,695.64947510 304.49414062,698.62695312 " style="fill:rgb(0.00000000,127.50000000,0.00000000);opacity:1.0" />
<polygon points="312.82424927,718.31152344 311.35479736,721.28900146 308.06896973,721.76647949 310.44659424,724.08410645 309.88531494,727.35662842 312.82427979,725.81152344 315.76318359,727.35662842 315.20190430,724.08404541 317.57952881,721.76647949 314.29370117,721.28900146 312.82427979,718.31152344 311.35476685,721.28900146 " style="fill:rgb(0.00000000,127.50000000,0.00000000);opacity:1.0" />
<polygon points="319.68484497,679.53479004 318.21539307,682.51226807 314.92956543,682.98974609 317.30718994,685.30737305 316.74591064,688.57989502 319.68487549,687.03479004 322.62377930,688.57989502 322.06250000,685.30737305 324.44012451,682.98974609 321.15429688,682.51226807 319.68487549,679.53479004 318.21536255,682.51232910 " style="fill:rgb(0.00000000,127.50000000,0.00000000);opacity:1.0" />
<polygon points="326.54547119,689.33264160 325.07598877,692.31011963 321.79016113,692.78759766 324.16781616,695.10522461 323.60650635,698.37774658 326.54547119,696.83264160 329.48437500,698.37774658 328.92309570,695.10522461 331.30072021,692.78759766 328.01489258,692.31011963 326.54547119,689.33264160 325.07598877,692.31018066 " style="fill:rgb(0.00000000,127.50000000,0.00000000);opacity:1.0" />
<polygon points="333.40606689,688.38232422 331.93658447,691.35980225 328.65078735,691.83728027 331.02844238,694.15490723 330.46713257,697.42742920 333.40606689,695.88232422 336.34497070,697.42742920 335.78369141,694.15490723 338.16134644,691.83728027 334.87548828,691.35980225 333.40606689,688.38232422 331.93658447,691.35986328 " style="fill:rgb(0.00000000,127.50000000,0.00000000);opacity:1.0" />
<polygon points="340.26666260,686.04479980 338.79718018,689.02221680 335.51138306,689.49969482 337.88903809,691.81732178 337.32772827,695.08984375 340.26666260,693.54479980 343.20556641,695.08984375 342.64428711,691.81726074 345.02194214,689.49969482 341.73608398,689.02221680 340.26666260,686.04479980 338.79718018,689.02221680 " style="fill:rgb(0.00000000,127.50000000,0.00000000);opacity:1.0" />
<polygon points="347.12725830,651.81542969 345.65780640,654.79284668 342.37200928,655.27032471 344.74963379,657.58795166 344.18835449,660.86047363 347.12725830,659.31542969 350.06619263,660.86047363 349.50494385,657.58795166 351.88253784,655.27032471 348.59674072,654.79284668 347.12725830,651.81542969 345.65780640,654.79284668 " style="fill:rgb(0.00000000,127.50000000,0.00000000);opacity:1.0" />
<polygon points="353.98788452,677.96923828 352.51843262,680.94671631 349.23260498,681.42419434 351.61026001,683.74182129 351.04895020,687.01434326 353.98788452,685.46923828 356.92678833,687.01434326 356.36550903,683.74182129 358.74316406,681.42419434 355.45733643,680.94671631 353.98791504,677.96923828 352.51843262,680.94671631 " style="fill:rgb(0.00000000,127.50000000,0.00000000);opacity:1.0" />
<polygon points="360.84851074,659.11010742 359.37905884,662.08752441 356.09323120,662.56506348 358.47085571,664.88262939 357.90960693,668.15521240 360.84848022,666.61010742 363.78744507,668.15515137 363.22613525,664.88269043 365.60375977,662.56500244 362.31799316,662.08758545 360.84848022,659.11010742 359.37905884,662.08752441 " style="fill:rgb(0.00000000,127.50000000,0.00000000);opacity:1.0" />
<polygon points="367.70910645,636.53100586 366.23965454,639.50848389 362.95382690,639.98596191 365.33145142,642.30358887 364.77020264,645.57611084 367.70907593,644.03100586 370.64804077,645.57611084 370.08673096,642.30358887 372.46438599,639.98596191 369.17858887,639.50854492 367.70907593,636.53100586 366.23965454,639.50848389 " style="fill:rgb(0.00000000,127.50000000,0.00000000);opacity:1.0" />
<polygon points="374.56970215,653.05468750 373.10025024,656.03210449 369.81442261,656.50958252 372.19204712,658.82714844 371.63079834,662.09973145 374.56967163,660.55468750 377.50863647,662.09973145 376.94732666,658.82727051 379.32498169,656.50952148 376.03918457,656.03210449 374.56967163,653.05468750 373.10025024,656.03210449 " style="fill:rgb(0.00000000,127.50000000,0.00000000);opacity:1.0" />
<polygon points="381.43032837,627.77490234 379.96087646,630.75231934 376.67504883,631.22985840 379.05267334,633.54742432 378.49142456,636.81994629 381.43029785,635.27490234 384.36926270,636.81994629 383.80795288,633.54748535 386.18560791,631.22979736 382.89981079,630.75238037 381.43029785,627.77490234 379.96087646,630.75231934 " style="fill:rgb(0.00000000,127.50000000,0.00000000);opacity:1.0" />
<polygon points="388.29092407,609.96765137 386.82147217,612.94506836 383.53564453,613.42254639 385.91326904,615.74011230 385.35202026,619.01269531 388.29089355,617.46765137 391.22985840,619.01269531 390.66854858,615.74023438 393.04620361,613.42248535 389.76040649,612.94506836 388.29089355,609.96765137 386.82147217,612.94506836 " style="fill:rgb(0.00000000,127.50000000,0.00000000);opacity:1.0" />
<polygon points="395.15151978,601.57922363 393.68206787,604.55664062 390.39624023,605.03411865 392.77386475,607.35168457 392.21261597,610.62426758 395.15148926,609.07922363 398.09045410,610.62426758 397.52914429,607.35180664 399.90679932,605.03405762 396.62100220,604.55664062 395.15148926,601.57922363 393.68206787,604.55664062 " style="fill:rgb(0.00000000,127.50000000,0.00000000);opacity:1.0" />
<polygon points="402.01214600,608.24072266 400.54269409,611.21813965 397.25686646,611.69567871 399.63449097,614.01324463 399.07324219,617.28576660 402.01211548,615.74072266 404.95108032,617.28576660 404.38977051,614.01330566 406.76742554,611.69561768 403.48162842,611.21820068 402.01211548,608.24072266 400.54269409,611.21813965 " style="fill:rgb(0.00000000,127.50000000,0.00000000);opacity:1.0" />
<polygon points="408.87274170,582.72473145 407.40328979,585.70214844 404.11746216,586.17962646 406.49508667,588.49719238 405.93383789,591.76977539 408.87271118,590.22473145 411.81167603,591.76977539 411.25036621,588.49731445 413.62802124,586.17956543 410.34222412,585.70214844 408.87271118,582.72473145 407.40328979,585.70214844 " style="fill:rgb(0.00000000,127.50000000,0.00000000);opacity:1.0" />
<polygon points="415.73333740,606.74200439 414.26388550,609.71948242 410.97805786,610.19689941 413.35568237,612.51452637 412.79443359,615.78710938 415.73330688,614.24200439 418.67227173,615.78710938 418.11096191,612.51458740 420.48861694,610.19689941 417.20281982,609.71948242 415.73330688,606.74200439 414.26388550,609.71948242 " style="fill:rgb(0.00000000,127.50000000,0.00000000);opacity:1.0" />
<polygon points="422.59396362,581.25634766 421.12451172,584.23376465 417.83868408,584.71124268 420.21630859,587.02880859 419.65505981,590.30139160 422.59393311,588.75634766 425.53289795,590.30139160 424.97158813,587.02893066 427.34924316,584.71118164 424.06344604,584.23376465 422.59393311,581.25634766 421.12451172,584.23376465 " style="fill:rgb(0.00000000,127.50000000,0.00000000);opacity:1.0" />
<polygon points="429.45455933,585.00805664 427.98510742,587.98547363 424.69927979,588.46295166 427.07690430,590.78051758 426.51565552,594.05310059 429.45452881,592.50805664 432.39349365,594.05310059 431.83218384,590.78063965 434.20983887,588.46289062 430.92404175,587.98547363 429.45452881,585.00805664 427.98510742,587.98547363 " style="fill:rgb(0.00000000,127.50000000,0.00000000);opacity:1.0" />
<polygon points="436.31518555,575.57568359 434.84573364,578.55310059 431.55990601,579.03057861 433.93753052,581.34814453 433.37628174,584.62072754 436.31515503,583.07568359 439.25411987,584.62072754 438.69281006,581.34826660 441.07046509,579.03051758 437.78466797,578.55310059 436.31515503,575.57568359 434.84573364,578.55310059 " style="fill:rgb(0.00000000,127.50000000,0.00000000);opacity:1.0" />
<polygon points="443.17578125,555.95050049 441.70632935,558.92797852 438.42050171,559.40539551 440.79812622,561.72302246 440.23687744,564.99560547 443.17575073,563.45050049 446.11471558,564.99560547 445.55340576,561.72308350 447.93106079,559.40539551 444.64526367,558.92797852 443.17575073,555.95050049 441.70632935,558.92797852 " style="fill:rgb(0.00000000,127.50000000,0.00000000);opacity:1.0" />
<polygon points="450.03637695,561.98095703 448.56692505,564.95843506 445.28109741,565.43591309 447.65872192,567.75354004 447.09747314,571.02606201 450.03634644,569.48095703 452.97531128,571.02606201 452.41400146,567.75354004 454.79165649,565.43591309 451.50585938,564.95849609 450.03634644,561.98095703 448.56692505,564.95843506 " style="fill:rgb(0.00000000,127.50000000,0.00000000);opacity:1.0" />
<polygon points="456.89700317,537.89276123 455.42755127,540.87023926 452.14172363,541.34765625 454.51934814,543.66528320 453.95809937,546.93786621 456.89697266,545.39276123 459.83593750,546.93786621 459.27462769,543.66534424 461.65228271,541.34765625 458.36648560,540.87023926 456.89697266,537.89276123 455.42755127,540.87023926 " style="fill:rgb(0.00000000,127.50000000,0.00000000);opacity:1.0" />
<polygon points="463.75759888,523.65673828 462.28814697,526.63421631 459.00231934,527.11169434 461.37994385,529.42932129 460.81869507,532.70184326 463.75756836,531.15673828 466.69653320,532.70184326 466.13522339,529.42932129 468.51287842,527.11169434 465.22708130,526.63427734 463.75756836,523.65673828 462.28814697,526.63421631 " style="fill:rgb(0.00000000,127.50000000,0.00000000);opacity:1.0" />
<polygon points="470.61819458,545.65649414 469.14874268,548.63397217 465.86291504,549.11145020 468.24053955,551.42907715 467.67929077,554.70159912 470.61816406,553.15649414 473.55712891,554.70159912 472.99581909,551.42907715 475.37347412,549.11145020 472.08767700,548.63403320 470.61816406,545.65649414 469.14874268,548.63397217 " style="fill:rgb(0.00000000,127.50000000,0.00000000);opacity:1.0" />
<polygon points="477.47882080,550.97357178 476.00936890,553.95104980 472.72354126,554.42846680 475.10116577,556.74609375 474.53991699,560.01867676 477.47879028,558.47357178 480.41775513,560.01867676 479.85644531,556.74615479 482.23410034,554.42846680 478.94830322,553.95104980 477.47879028,550.97357178 476.00936890,553.95104980 " style="fill:rgb(0.00000000,127.50000000,0.00000000);opacity:1.0" />
<polygon points="484.33941650,512.38342285 482.86996460,515.36083984 479.58413696,515.83837891 481.96176147,518.15594482 481.40051270,521.42846680 484.33938599,519.88342285 487.27835083,521.42846680 486.71704102,518.15600586 489.09469604,515.83831787 485.80889893,515.36090088 484.33938599,512.38342285 482.86996460,515.36083984 " style="fill:rgb(0.00000000,127.50000000,0.00000000);opacity:1.0" />
<polygon points="491.20001221,525.80554199 489.73056030,528.78302002 486.44473267,529.26049805 488.82235718,531.57812500 488.26110840,534.85064697 491.19998169,533.30554199 494.13894653,534.85064697 493.57763672,531.57812500 495.95529175,529.26049805 492.66949463,528.78308105 491.19998169,525.80554199 489.73056030,528.78302002 " style="fill:rgb(0.00000000,127.50000000,0.00000000);opacity:1.0" />
<polygon points="498.06063843,514.37231445 496.59118652,517.34973145 493.30535889,517.82727051 495.68298340,520.14483643 495.12173462,523.41735840 498.06060791,521.87231445 500.99957275,523.41735840 500.43826294,520.14489746 502.81591797,517.82720947 499.53012085,517.34979248 498.06060791,514.37231445 496.59118652,517.34973145 " style="fill:rgb(0.00000000,127.50000000,0.00000000);opacity:1.0" />
<polygon points="504.92123413,502.06204224 503.45178223,505.03948975 500.16595459,505.51696777 502.54357910,507.83456421 501.98233032,511.10711670 504.92120361,509.56204224 507.86016846,511.10711670 507.29885864,507.83462524 509.67651367,505.51693726 506.39071655,505.03952026 504.92120361,502.06204224 503.45178223,505.03948975 " style="fill:rgb(0.00000000,127.50000000,0.00000000);opacity:1.0" />
<polygon points="511.78182983,503.01797485 510.31237793,505.99542236 507.02655029,506.47290039 509.40417480,508.79049683 508.84292603,512.06304932 511.78179932,510.51797485 514.72076416,512.06304932 514.15942383,508.79055786 516.53710938,506.47286987 513.25134277,505.99545288 511.78179932,503.01797485 510.31237793,505.99542236 " style="fill:rgb(0.00000000,127.50000000,0.00000000);opacity:1.0" />
<polygon points="518.64245605,491.09814453 517.17297363,494.07559204 513.88720703,494.55307007 516.26477051,496.87066650 515.70355225,500.14321899 518.64245605,498.59814453 521.58142090,500.14321899 521.02008057,496.87072754 523.39770508,494.55303955 520.11193848,494.07562256 518.64245605,491.09814453 517.17297363,494.07559204 " style="fill:rgb(0.00000000,127.50000000,0.00000000);opacity:1.0" />
<polygon points="525.50305176,484.77307129 524.03356934,487.75048828 520.74780273,488.22799683 523.12536621,490.54559326 522.56414795,493.81814575 525.50305176,492.27307129 528.44201660,493.81814575 527.88067627,490.54565430 530.25830078,488.22796631 526.97253418,487.75054932 525.50305176,484.77307129 524.03356934,487.75048828 " style="fill:rgb(0.00000000,127.50000000,0.00000000);opacity:1.0" />
<polygon points="532.36364746,457.50946045 530.89416504,460.48693848 527.60839844,460.96435547 529.98596191,463.28198242 529.42474365,466.55456543 532.36364746,465.00946045 535.30261230,466.55456543 534.74127197,463.28204346 537.11889648,460.96435547 533.83312988,460.48693848 532.36364746,457.50946045 530.89416504,460.48693848 " style="fill:rgb(0.00000000,127.50000000,0.00000000);opacity:1.0" />
<polygon points="539.22424316,466.38781738 537.75482178,469.36523438 534.46899414,469.84277344 536.84661865,472.16033936 536.28540039,475.43286133 539.22424316,473.88781738 542.16320801,475.43286133 541.60192871,472.16040039 543.97955322,469.84271240 540.69372559,469.36529541 539.22424316,466.38781738 537.75482178,469.36523438 " style="fill:rgb(0.00000000,127.50000000,0.00000000);opacity:1.0" />
<polygon points="546.08483887,442.51898193 544.61541748,445.49645996 541.32958984,445.97387695 543.70721436,448.29150391 543.14599609,451.56408691 546.08483887,450.01898193 549.02380371,451.56408691 548.46252441,448.29156494 550.84014893,445.97387695 547.55432129,445.49645996 546.08483887,442.51898193 544.61541748,445.49645996 " style="fill:rgb(0.00000000,127.50000000,0.00000000);opacity:1.0" />
<polygon points="552.94543457,440.26306152 551.47601318,443.24047852 548.19018555,443.71801758 550.56781006,446.03558350 550.00659180,449.30810547 552.94543457,447.76306152 555.88439941,449.30810547 555.32312012,446.03564453 557.70074463,443.71795654 554.41491699,443.24053955 552.94543457,440.26306152 551.47601318,443.24047852 " style="fill:rgb(0.00000000,127.50000000,0.00000000);opacity:1.0" />
<polygon points="559.80609131,471.35791016 558.33666992,474.33532715 555.05078125,474.81280518 557.42846680,477.13037109 556.86718750,480.40295410 559.80603027,478.85791016 562.74499512,480.40295410 562.18371582,477.13049316 564.56140137,474.81274414 561.27557373,474.33532715 559.80603027,471.35791016 558.33666992,474.33532715 " style="fill:rgb(0.00000000,127.50000000,0.00000000);opacity:1.0" />
<polygon points="566.66668701,446.02239990 565.19726562,448.99987793 561.91137695,449.47729492 564.28906250,451.79492188 563.72778320,455.06750488 566.66662598,453.52239990 569.60559082,455.06750488 569.04431152,451.79498291 571.42199707,449.47729492 568.13616943,448.99987793 566.66662598,446.02239990 565.19726562,448.99987793 " style="fill:rgb(0.00000000,127.50000000,0.00000000);opacity:1.0" />
<polygon points="573.52728271,417.87414551 572.05786133,420.85162354 568.77197266,421.32910156 571.14965820,423.64672852 570.58837891,426.91925049 573.52722168,425.37414551 576.46618652,426.91925049 575.90490723,423.64672852 578.28259277,421.32910156 574.99676514,420.85168457 573.52722168,417.87414551 572.05786133,420.85162354 " style="fill:rgb(0.00000000,127.50000000,0.00000000);opacity:1.0" />
<polygon points="580.38793945,432.79687500 578.91845703,435.77429199 575.63262939,436.25183105 578.01025391,438.56939697 577.44897461,441.84191895 580.38787842,440.29687500 583.32684326,441.84191895 582.76550293,438.56945801 585.14318848,436.25177002 581.85742188,435.77435303 580.38787842,432.79687500 578.91845703,435.77429199 " style="fill:rgb(0.00000000,127.50000000,0.00000000);opacity:1.0" />
<polygon points="587.24853516,427.08459473 585.77905273,430.06201172 582.49322510,430.53955078 584.87084961,432.85711670 584.30957031,436.12963867 587.24847412,434.58459473 590.18743896,436.12963867 589.62609863,432.85717773 592.00378418,430.53948975 588.71801758,430.06207275 587.24847412,427.08459473 585.77905273,430.06201172 " style="fill:rgb(0.00000000,127.50000000,0.00000000);opacity:1.0" />
<polygon points="594.10913086,393.68804932 592.63964844,396.66552734 589.35382080,397.14294434 591.73144531,399.46057129 591.17016602,402.73315430 594.10913086,401.18804932 597.04803467,402.73315430 596.48675537,399.46057129 598.86437988,397.14294434 595.57855225,396.66546631 594.10913086,393.68798828 592.63958740,396.66552734 " style="fill:rgb(0.00000000,127.50000000,0.00000000);opacity:1.0" />
<polygon points="600.96972656,386.78222656 599.50024414,389.75970459 596.21447754,390.23712158 598.59210205,392.55474854 598.03076172,395.82733154 600.96972656,394.28222656 603.90869141,395.82733154 603.34741211,392.55474854 605.72503662,390.23712158 602.43920898,389.75964355 600.96972656,386.78216553 599.50024414,389.75970459 " style="fill:rgb(0.00000000,127.50000000,0.00000000);opacity:1.0" />
<polygon points="607.83032227,412.36334229 606.36083984,415.34082031 603.07507324,415.81823730 605.45263672,418.13586426 604.89141846,421.40844727 607.83032227,419.86334229 610.76922607,421.40844727 610.20794678,418.13586426 612.58557129,415.81823730 609.29980469,415.34082031 607.83032227,412.36340332 606.36083984,415.34082031 " style="fill:rgb(0.00000000,127.50000000,0.00000000);opacity:1.0" />
<polygon points="614.69091797,400.25708008 613.22143555,403.23455811 609.93560791,403.71197510 612.31329346,406.02966309 611.75195312,409.30218506 614.69097900,407.75708008 617.62982178,409.30218506 617.06860352,406.02954102 619.44622803,403.71203613 616.16033936,403.23449707 614.69097900,400.25708008 613.22137451,403.23455811 " style="fill:rgb(0.00000000,127.50000000,0.00000000);opacity:1.0" />
<polygon points="621.55151367,376.82568359 620.08203125,379.80316162 616.79620361,380.28057861 619.17388916,382.59826660 618.61254883,385.87078857 621.55157471,384.32568359 624.49041748,385.87078857 623.92919922,382.59814453 626.30682373,380.28063965 623.02093506,379.80310059 621.55157471,376.82568359 620.08197021,379.80316162 " style="fill:rgb(0.00000000,127.50000000,0.00000000);opacity:1.0" />
<polygon points="628.41217041,403.44860840 626.94268799,406.42608643 623.65686035,406.90350342 626.03454590,409.22119141 625.47320557,412.49371338 628.41223145,410.94860840 631.35107422,412.49377441 630.78985596,409.22106934 633.16748047,406.90356445 629.88159180,406.42602539 628.41223145,403.44860840 626.94262695,406.42608643 " style="fill:rgb(0.00000000,127.50000000,0.00000000);opacity:1.0" />
<polygon points="635.27276611,389.14892578 633.80328369,392.12640381 630.51745605,392.60382080 632.89514160,394.92150879 632.33380127,398.19403076 635.27282715,396.64892578 638.21166992,398.19403076 637.65045166,394.92138672 640.02807617,392.60388184 636.74218750,392.12634277 635.27282715,389.14892578 633.80322266,392.12640381 " style="fill:rgb(0.00000000,127.50000000,0.00000000);opacity:1.0" />
<polygon points="642.13336182,347.80816650 640.66387939,350.78564453 637.37805176,351.26306152 639.75573730,353.58074951 639.19439697,356.85327148 642.13342285,355.30816650 645.07226562,356.85327148 644.51104736,353.58062744 646.88867188,351.26312256 643.60278320,350.78558350 642.13342285,347.80816650 640.66381836,350.78564453 " style="fill:rgb(0.00000000,127.50000000,0.00000000);opacity:1.0" />
<polygon points="648.99395752,363.35522461 647.52447510,366.33270264 644.23864746,366.81011963 646.61633301,369.12780762 646.05499268,372.40032959 648.99401855,370.85522461 651.93286133,372.40032959 651.37164307,369.12768555 653.74926758,366.81018066 650.46337891,366.33264160 648.99401855,363.35522461 647.52441406,366.33270264 " style="fill:rgb(0.00000000,127.50000000,0.00000000);opacity:1.0" />
<polygon points="655.85455322,364.05957031 654.38507080,367.03704834 651.09924316,367.51446533 653.47692871,369.83215332 652.91558838,373.10467529 655.85461426,371.55957031 658.79345703,373.10467529 658.23223877,369.83203125 660.60986328,367.51452637 657.32397461,367.03698730 655.85461426,364.05957031 654.38500977,367.03704834 " style="fill:rgb(0.00000000,127.50000000,0.00000000);opacity:1.0" />
<polygon points="662.71514893,348.29040527 661.24566650,351.26788330 657.95983887,351.74530029 660.33752441,354.06298828 659.77618408,357.33551025 662.71520996,355.79040527 665.65405273,357.33551025 665.09283447,354.06286621 667.47045898,351.74536133 664.18457031,351.26782227 662.71520996,348.29040527 661.24560547,351.26788330 " style="fill:rgb(0.00000000,127.50000000,0.00000000);opacity:1.0" />
<polygon points="669.57580566,346.66833496 668.10632324,349.64581299 664.82049561,350.12322998 667.19818115,352.44091797 666.63684082,355.71343994 669.57586670,354.16833496 672.51470947,355.71343994 671.95349121,352.44079590 674.33111572,350.12329102 671.04522705,349.64575195 669.57586670,346.66833496 668.10626221,349.64581299 " style="fill:rgb(0.00000000,127.50000000,0.00000000);opacity:1.0" />
<polygon points="676.43640137,349.95141602 674.96691895,352.92889404 671.68109131,353.40631104 674.05877686,355.72399902 673.49743652,358.99652100 676.43646240,357.45141602 679.37530518,358.99652100 678.81408691,355.72387695 681.19171143,353.40637207 677.90582275,352.92883301 676.43646240,349.95141602 674.96685791,352.92889404 " style="fill:rgb(0.00000000,127.50000000,0.00000000);opacity:1.0" />
<polygon points="683.29699707,339.59814453 681.82751465,342.57562256 678.54168701,343.05303955 680.91937256,345.37072754 680.35803223,348.64324951 683.29705811,347.09814453 686.23590088,348.64324951 685.67468262,345.37060547 688.05230713,343.05310059 684.76641846,342.57556152 683.29705811,339.59814453 681.82745361,342.57562256 " style="fill:rgb(0.00000000,127.50000000,0.00000000);opacity:1.0" />
<polygon points="690.15759277,327.20007324 688.68811035,330.17755127 685.40228271,330.65496826 687.77996826,332.97265625 687.21862793,336.24517822 690.15765381,334.70007324 693.09649658,336.24517822 692.53527832,332.97253418 694.91290283,330.65502930 691.62701416,330.17749023 690.15765381,327.20007324 688.68804932,330.17755127 " style="fill:rgb(0.00000000,127.50000000,0.00000000);opacity:1.0" />
<polygon points="697.01818848,327.18542480 695.54870605,330.16290283 692.26287842,330.64031982 694.64056396,332.95800781 694.07922363,336.23052979 697.01824951,334.68542480 699.95709229,336.23052979 699.39587402,332.95788574 701.77349854,330.64038086 698.48760986,330.16284180 697.01824951,327.18542480 695.54864502,330.16290283 " style="fill:rgb(0.00000000,127.50000000,0.00000000);opacity:1.0" />
<polygon points="703.87878418,296.93005371 702.40930176,299.90753174 699.12347412,300.38494873 701.50115967,302.70263672 700.93981934,305.97515869 703.87884521,304.43005371 706.81768799,305.97515869 706.25646973,302.70251465 708.63409424,300.38500977 705.34820557,299.90747070 703.87884521,296.93005371 702.40924072,299.90753174 " style="fill:rgb(0.00000000,127.50000000,0.00000000);opacity:1.0" />
<polygon points="710.73944092,280.86633301 709.26995850,283.84381104 705.98413086,284.32122803 708.36181641,286.63891602 707.80047607,289.91143799 710.73950195,288.36633301 713.67834473,289.91143799 713.11712646,286.63879395 715.49475098,284.32128906 712.20886230,283.84375000 710.73950195,280.86633301 709.26989746,283.84381104 " style="fill:rgb(0.00000000,127.50000000,0.00000000);opacity:1.0" />
<polygon points="717.60003662,300.37268066 716.13055420,303.35015869 712.84472656,303.82757568 715.22241211,306.14526367 714.66107178,309.41778564 717.60009766,307.87268066 720.53894043,309.41778564 719.97772217,306.14514160 722.35534668,303.82763672 719.06945801,303.35009766 717.60009766,300.37268066 716.13049316,303.35015869 " style="fill:rgb(0.00000000,127.50000000,0.00000000);opacity:1.0" />
<polygon points="724.46063232,284.27246094 722.99114990,287.24993896 719.70532227,287.72735596 722.08300781,290.04504395 721.52166748,293.31756592 724.46069336,291.77246094 727.39953613,293.31756592 726.83831787,290.04492188 729.21594238,287.72741699 725.93005371,287.24987793 724.46069336,284.27246094 722.99108887,287.24993896 " style="fill:rgb(0.00000000,127.50000000,0.00000000);opacity:1.0" />
<polygon points="731.32122803,275.75134277 729.85174561,278.72882080 726.56591797,279.20623779 728.94360352,281.52392578 728.38226318,284.79644775 731.32128906,283.25134277 734.26013184,284.79644775 733.69891357,281.52380371 736.07653809,279.20629883 732.79064941,278.72875977 731.32128906,275.75134277 729.85168457,278.72882080 " style="fill:rgb(0.00000000,127.50000000,0.00000000);opacity:1.0" />
<polygon points="738.18182373,258.04327393 736.71234131,261.02075195 733.42651367,261.49816895 735.80419922,263.81585693 735.24285889,267.08837891 738.18188477,265.54327393 741.12072754,267.08837891 740.55950928,263.81573486 742.93713379,261.49822998 739.65124512,261.02069092 738.18188477,258.04327393 736.71228027,261.02075195 " style="fill:rgb(0.00000000,127.50000000,0.00000000);opacity:1.0" />
<polygon points="745.04241943,273.36004639 743.57293701,276.33752441 740.28710938,276.81494141 742.66479492,279.13262939 742.10345459,282.40515137 745.04248047,280.86004639 747.98132324,282.40515137 747.42010498,279.13250732 749.79772949,276.81500244 746.51184082,276.33746338 745.04248047,273.36004639 743.57287598,276.33752441 " style="fill:rgb(0.00000000,127.50000000,0.00000000);opacity:1.0" />
<polygon points="751.90307617,251.47052002 750.43359375,254.44799805 747.14776611,254.92541504 749.52545166,257.24310303 748.96411133,260.51562500 751.90313721,258.97052002 754.84197998,260.51562500 754.28076172,257.24298096 756.65838623,254.92547607 753.37249756,254.44793701 751.90313721,251.47052002 750.43353271,254.44799805 " style="fill:rgb(0.00000000,127.50000000,0.00000000);opacity:1.0" />
<polygon points="758.76367188,272.45336914 757.29418945,275.43084717 754.00836182,275.90826416 756.38604736,278.22595215 755.82470703,281.49847412 758.76373291,279.95336914 761.70257568,281.49847412 761.14135742,278.22583008 763.51898193,275.90832520 760.23309326,275.43078613 758.76373291,272.45336914 757.29412842,275.43084717 " style="fill:rgb(0.00000000,127.50000000,0.00000000);opacity:1.0" />
<polygon points="765.62426758,258.36566162 764.15478516,261.34313965 760.86895752,261.82055664 763.24664307,264.13824463 762.68530273,267.41076660 765.62432861,265.86566162 768.56317139,267.41076660 768.00195312,264.13812256 770.37957764,261.82061768 767.09368896,261.34307861 765.62432861,258.36566162 764.15472412,261.34313965 " style="fill:rgb(0.00000000,127.50000000,0.00000000);opacity:1.0" />
<polygon points="772.48486328,224.15869141 771.01538086,227.13616943 767.72955322,227.61358643 770.10723877,229.93127441 769.54589844,233.20379639 772.48492432,231.65869141 775.42376709,233.20379639 774.86254883,229.93115234 777.24017334,227.61364746 773.95428467,227.13610840 772.48492432,224.15869141 771.01531982,227.13616943 " style="fill:rgb(0.00000000,127.50000000,0.00000000);opacity:1.0" />
<text font-size="20.00000000" font-family="Roboto" x="465.20001221" y="36.00000000" style="stroke:rgb(0.00000000,0.00000000,0.00000000);stroke-width:0.30000001;fill:rgb(0.00000000,0.00000000,0.00000000);opacity:1.00000000;" transform="rotate(-0.00000000,465.20001221,36.00000000)">SCATTER PLOT</text>
<text font-size="15.00000000" font-family="Roboto" x="490.95001221" y="986.00000000" style="stroke:rgb(0.00000000,0.00000000,0.00000000);stroke-width:0.30000001;fill:rgb(0.00000000,0.00000000,0.00000000);opacity:1.00000000;" transform="rotate(-0.00000000,490.95001221,986.00000000)">X-AXIS</text>
<text font-size="15.00000000" font-family="Roboto" x="31.00000000" y="517.20001221" style="stroke:rgb(0.00000000,0.00000000,0.00000000);stroke-width:0.30000001;fill:rgb(0.00000000,0.00000000,0.00000000);opacity:1.00000000;" transform="rotate(-90.00000000,31.00000000,517.20001221)">Y-AXIS</text>
<rect x="115.00000000" y="74.00000000" width="78.59999847" height="50.00000000" style="fill:rgb(255.00000000,255.00000000,255.00000000);stroke-width:2.00000000;stroke:rgb(0.00000000,0.00000000,0.00000000);opacity:0.69999999" />
<circle cx="130.00000000" cy="89.00000000" r="5.00000000"  style="fill:rgb(255.00000000,214.19999695,0.00000000);opacity:1.00000000" />
<text font-size="10.00000000" font-family="Roboto" x="145.00000000" y="94.00000000" style="stroke:rgb(0.00000000,0.00000000,0.00000000);stroke-width:0.30000001;fill:rgb(0.00000000,0.00000000,0.00000000);opacity:1.00000000;" transform="rotate(-0.00000000,145.00000000,94.00000000)">Plot 1</text>
<polygon points="130.00000000,104.00000000 128.53053284,106.97747803 125.24472046,107.45489502 127.62237549,109.77258301 127.06105804,113.04510498 130.00004578,111.50000000 132.93893433,113.04510498 132.37765503,109.77252197 134.75531006,107.45489502 131.46945190,106.97741699 129.99998474,103.99993896 128.53050232,106.97747803 " style="fill:rgb(0.00000000,127.50000000,0.00000000);opacity:1.0" />
<text font-size="10.00000000" font-family="Roboto" x="145.00000000" y="114.00000000" style="stroke:rgb(0.00000000,0.00000000,0.00000000);stroke-width:0.30000001;fill:rgb(0.00000000,0.00000000,0.00000000);opacity:1.00000000;" transform="rotate(-0.00000000,145.00000000,114.00000000)">Plot 2</text>
</svg>