<svg height="660.00000000" width="1000.00000000" version="4.0" xmlns="http://www.w3.org/2000/svg" xmlns:xlink= "http://www.w3.org/1999/xlink">
<rect width="100%" height="100%" fill="white"/>
<defs><style>@import url("https://fonts.googleapis.com/css?family=Roboto");</style></defs>
<rect x="0.00000000" y="0.00000000" width="1000.00000000" height="660.00000000" style="fill:rgb(255.00000000,255.00000000,255.00000000);stroke-width:0;stroke:rgb(0,0,0);opacity:1.00000000" />
<line x1="100.00000000" y1="583.00000000" x2="100.00000000" y2="54.00000000" style="stroke:rgb(127.50000000,127.50000000,127.50000000);stroke-width:0.50000000;opacity:1.00000000;stroke-linecap:butt" />
<line x1="169.91667175" y1="583.00000000" x2="169.91667175" y2="54.00000000" style="stroke:rgb(127.50000000,127.50000000,127.50000000);stroke-width:0.50000000;opacity:1.00000000;stroke-linecap:butt" />
<line x1="239.83334351" y1="583.00000000" x2="239.83334351" y2="54.00000000" style="stroke:rgb(127.50000000,127.50000000,127.50000000);stroke-width:0.50000000;opacity:1.00000000;stroke-linecap:butt" />
<line x1="309.75000000" y1="583.00000000" x2="309.75000000" y2="54.00000000" style="stroke:rgb(127.50000000,127.50000000,127.50000000);stroke-width:0.50000000;opacity:1.00000000;stroke-linecap:butt" />
<line x1="379.66668701" y1="583.00000000" x2="379.66668701" y2="54.00000000" style="stroke:rgb(127.50000000,127.50000000,127.50000000);stroke-width:0.50000000;opacity:1.00000000;stroke-linecap:butt" />
<line x1="449.58334351" y1="583.00000000" x2="449.58334351" y2="54.00000000" style="stroke:rgb(127.50000000,127.50000000,127.50000000);stroke-width:0.50000000;opacity:1.00000000;stroke-linecap:butt" />
<line x1="519.50000000" y1="583.00000000" x2="519.50000000" y2="54.00000000" style="stroke:rgb(127.50000000,127.50000000,127.50000000);stroke-width:0.50000000;opacity:1.00000000;stroke-linecap:butt" />
<line x1="589.41668701" y1="583.00000000" x2="589.41668701" y2="54.00000000" style="stroke:rgb(127.50000000,127.50000000,127.50000000);stroke-width:0.50000000;opacity:1.00000000;stroke-linecap:butt" />
<line x1="659.33337402" y1="583.00000000" x2="659.33337402" y2="54.00000000" style="stroke:rgb(127.50000000,127.50000000,127.50000000);stroke-width:0.50000000;opacity:1.00000000;stroke-linecap:butt" />
<line x1="729.25000000" y1="583.00000000" x2="729.25000000" y2="54.00000000" style="stroke:rgb(127.50000000,127.50000000,127.50000000);stroke-width:0.50000000;opacity:1.00000000;stroke-linecap:butt" />
<line x1="799.16668701" y1="583.00000000" x2="799.16668701" y2="54.00000000" style="stroke:rgb(127.50000000,127.50000000,127.50000000);stroke-width:0.50000000;opacity:1.00000000;stroke-linecap:butt" />
<line x1="869.08337402" y1="583.00000000" x2="869.08337402" y2="54.00000000" style="stroke:rgb(127.50000000,127.50000000,127.50000000);stroke-width:0.50000000;opacity:1.00000000;stroke-linecap:butt" />
<line x1="939.00000000" y1="583.00000000" x2="939.00000000" y2="54.00000000" style="stroke:rgb(127.50000000,127.50000000,127.50000000);stroke-width:0.50000000;opacity:1.00000000;stroke-linecap:butt" />
<line x1="95.00000000" y1="509.97851562" x2="944.00000000" y2="509.97851562" style="stroke:rgb(127.50000000,127.50000000,127.50000000);stroke-width:0.50000000;opacity:1.00000000;stroke-linecap:butt" />
<line x1="95.00000000" y1="436.95706177" x2="944.00000000" y2="436.95706177" style="stroke:rgb(127.50000000,127.50000000,127.50000000);stroke-width:0.50000000;opacity:1.00000000;stroke-linecap:butt" />
<line x1="95.00000000" y1="363.93560791" x2="944.00000000" y2="363.93560791" style="stroke:rgb(127.50000000,127.50000000,127.50000000);stroke-width:0.50000000;opacity:1.00000000;stroke-linecap:butt" />
<line x1="95.00000000" y1="290.91412354" x2="944.00000000" y2="290.91412354" style="stroke:rgb(127.50000000,127.50000000,127.50000000);stroke-width:0.50000000;opacity:1.00000000;stroke-linecap:butt" />
<line x1="95.00000000" y1="217.89263916" x2="944.00000000" y2="217.89263916" style="stroke:rgb(127.50000000,127.50000000,127.50000000);stroke-width:0.50000000;opacity:1.00000000;stroke-linecap:butt" />
<line x1="95.00000000" y1="144.87115479" x2="944.00000000" y2="144.87115479" style="stroke:rgb(127.50000000,127.50000000,127.50000000);stroke-width:0.50000000;opacity:1.00000000;stroke-linecap:butt" />
<line x1="95.00000000" y1="71.84967041" x2="944.00000000" y2="71.84967041" style="stroke:rgb(127.50000000,127.50000000,127.50000000);stroke-width:0.50000000;opacity:1.00000000;stroke-linecap:butt" />
<rect x="94.00000000" y="53.00000000" width="851.00000000" height="531.00000000" style="fill:rgb(255,255,255);stroke-width:2.00000000;stroke:rgb(0.00000000,0.00000000,0.00000000);opacity:1;fill-opacity:0;" />
<line x1="100.00000000" y1="585.00000000" x2="100.00000000" y2="591.00000000" style="stroke:rgb(0.00000000,0.00000000,0.00000000);stroke-width:2.00000000;opacity:1.00000000;stroke-linecap:butt" />
<text font-size="12.00000000" font-family="Roboto" x="79.45999908" y="609.00000000" style="stroke:rgb(0.00000000,0.00000000,0.00000000);stroke-width:0.17500000;fill:rgb(0.00000000,0.00000000,0.00000000);opacity:1.00000000;" transform="rotate(-0.00000000,79.45999908,609.00000000)">40.0</text>
<line x1="169.91667175" y1="585.00000000" x2="169.91667175" y2="591.00000000" style="stroke:rgb(0.00000000,0.00000000,0.00000000);stroke-width:2.00000000;opacity:1.00000000;stroke-linecap:butt" />
<text font-size="12.00000000" font-family="Roboto" x="149.37667847" y="609.00000000" style="stroke:rgb(0.00000000,0.00000000,0.00000000);stroke-width:0.17500000;fill:rgb(0.00000000,0.00000000,0.00000000);opacity:1.00000000;" transform="rotate(-0.00000000,149.37667847,609.00000000)">50.0</text>
<line x1="239.83334351" y1="585.00000000" x2="239.83334351" y2="591.00000000" style="stroke:rgb(0.00000000,0.00000000,0.00000000);stroke-width:2.00000000;opacity:1.00000000;stroke-linecap:butt" />
<text font-size="12.00000000" font-family="Roboto" x="219.29333496" y="609.00000000" style="stroke:rgb(0.00000000,0.00000000,0.00000000);stroke-width:0.17500000;fill:rgb(0.00000000,0.00000000,0.00000000);opacity:1.00000000;" transform="rotate(-0.00000000,219.29333496,609.00000000)">60.0</text>
<line x1="309.75000000" y1="585.00000000" x2="309.75000000" y2="591.00000000" style="stroke:rgb(0.00000000,0.00000000,0.00000000);stroke-width:2.00000000;opacity:1.00000000;stroke-linecap:butt" />
<text font-size="12.00000000" font-family="Roboto" x="289.20999146" y="609.00000000" style="stroke:rgb(0.00000000,0.00000000,0.00000000);stroke-width:0.17500000;fill:rgb(0.00000000,0.00000000,0.00000000);opacity:1.00000000;" transform="rotate(-0.00000000,289.20999146,609.00000000)">70.0</text>
<line x1="379.66668701" y1="585.00000000" x2="379.66668701" y2="591.00000000" style="stroke:rgb(0.00000000,0.00000000,0.00000000);stroke-width:2.00000000;opacity:1.00000000;stroke-linecap:butt" />
<text font-size="12.00000000" font-family="Roboto" x="359.12667847" y="609.00000000" style="stroke:rgb(0.00000000,0.00000000,0.00000000);stroke-width:0.17500000;fill:rgb(0.00000000,0.00000000,0.00000000);opacity:1.00000000;" transform="rotate(-0.00000000,359.12667847,609.00000000)">80.0</text>
<line x1="449.58334351" y1="585.00000000" x2="449.58334351" y2="591.00000000" style="stroke:rgb(0.00000000,0.00000000,0.00000000);stroke-width:2.00000000;opacity:1.00000000;stroke-linecap:butt" />
<text font-size="12.00000000" font-family="Roboto" x="429.04333496" y="609.00000000" style="stroke:rgb(0.00000000,0.00000000,0.00000000);stroke-width:0.17500000;fill:rgb(0.00000000,0.00000000,0.00000000);opacity:1.00000000;" transform="rotate(-0.00000000,429.04333496,609.00000000)">90.0</text>
<line x1="519.50000000" y1="585.00000000" x2="519.50000000" y2="591.00000000" style="stroke:rgb(0.00000000,0.00000000,0.00000000);stroke-width:2.00000000;opacity:1.00000000;stroke-linecap:butt" />
<text font-size="12.00000000" font-family="Roboto" x="497.27999878" y="609.00000000" style="stroke:rgb(0.00000000,0.00000000,0.00000000);stroke-width:0.17500000;fill:rgb(0.00000000,0.00000000,0.00000000);opacity:1.00000000;" transform="rotate(-0.00000000,497.27999878,609.00000000)">100.0</text>
<line x1="589.41668701" y1="585.00000000" x2="589.41668701" y2="591.00000000" style="stroke:rgb(0.00000000,0.00000000,0.00000000);stroke-width:2.00000000;opacity:1.00000000;stroke-linecap:butt" />
<text font-size="12.00000000" font-family="Roboto" x="567.67669678" y="609.00000000" style="stroke:rgb(0.00000000,0.00000000,0.00000000);stroke-width:0.17500000;fill:rgb(0.00000000,0.00000000,0.00000000);opacity:1.00000000;" transform="rotate(-0.00000000,567.67669678,609.00000000)">110.0</text>
<line x1="659.33337402" y1="585.00000000" x2="659.33337402" y2="591.00000000" style="stroke:rgb(0.00000000,0.00000000,0.00000000);stroke-width:2.00000000;opacity:1.00000000;stroke-linecap:butt" />
<text font-size="12.00000000" font-family="Roboto" x="637.11340332" y="609.00000000" style="stroke:rgb(0.00000000,0.00000000,0.00000000);stroke-width:0.17500000;fill:rgb(0.00000000,0.00000000,0.00000000);opacity:1.00000000;" transform="rotate(-0.00000000,637.11340332,609.00000000)">120.0</text>
<line x1="729.25000000" y1="585.00000000" x2="729.25000000" y2="591.00000000" style="stroke:rgb(0.00000000,0.00000000,0.00000000);stroke-width:2.00000000;opacity:1.00000000;stroke-linecap:butt" />
<text font-size="12.00000000" font-family="Roboto" x="707.03002930" y="609.00000000" style="stroke:rgb(0.00000000,0.00000000,0.00000000);stroke-width:0.17500000;fill:rgb(0.00000000,0.00000000,0.00000000);opacity:1.00000000;" transform="rotate(-0.00000000,707.03002930,609.00000000)">130.0</text>
<line x1="799.16668701" y1="585.00000000" x2="799.16668701" y2="591.00000000" style="stroke:rgb(0.00000000,0.00000000,0.00000000);stroke-width:2.00000000;opacity:1.00000000;stroke-linecap:butt" />
<text font-size="12.00000000" font-family="Roboto" x="776.94671631" y="609.00000000" style="stroke:rgb(0.00000000,0.00000000,0.00000000);stroke-width:0.17500000;fill:rgb(0.00000000,0.00000000,0.00000000);opacity:1.00000000;" transform="rotate(-0.00000000,776.94671631,609.00000000)">140.0</text>
<line x1="869.08337402" y1="585.00000000" x2="869.08337402" y2="591.00000000" style="stroke:rgb(0.00000000,0.00000000,0.00000000);stroke-width:2.00000000;opacity:1.00000000;stroke-linecap:butt" />
<text font-size="12.00000000" font-family="Roboto" x="846.86340332" y="609.00000000" style="stroke:rgb(0.00000000,0.00000000,0.00000000);stroke-width:0.17500000;fill:rgb(0.00000000,0.00000000,0.00000000);opacity:1.00000000;" transform="rotate(-0.00000000,846.86340332,609.00000000)">150.0</text>
<line x1="939.00000000" y1="585.00000000" x2="939.00000000" y2="591.00000000" style="stroke:rgb(0.00000000,0.00000000,0.00000000);stroke-width:2.00000000;opacity:1.00000000;stroke-linecap:butt" />
<text font-size="12.00000000" font-family="Roboto" x="916.78002930" y="609.00000000" style="stroke:rgb(0.00000000,0.00000000,0.00000000);stroke-width:0.17500000;fill:rgb(0.00000000,0.00000000,0.00000000);opacity:1.00000000;" transform="rotate(-0.00000000,916.78002930,609.00000000)">160.0</text>
<line x1="87.00000000" y1="583.00000000" x2="93.00000000" y2="583.00000000" style="stroke:rgb(0.00000000,0.00000000,0.00000000);stroke-width:2.00000000;opacity:1.00000000;stroke-linecap:butt" />
<text font-size="12.00000000" font-family="Roboto" x="46.24000168" y="589.00000000" style="stroke:rgb(0.00000000,0.00000000,0.00000000);stroke-width:0.17500000;fill:rgb(0.00000000,0.00000000,0.00000000);opacity:1.00000000;" transform="rotate(-0.00000000,46.24000168,589.00000000)">0.0</text>
<line x1="87.00000000" y1="509.97851562" x2="93.00000000" y2="509.97851562" style="stroke:rgb(0.00000000,0.00000000,0.00000000);stroke-width:2.00000000;opacity:1.00000000;stroke-linecap:butt" />
<text font-size="12.00000000" font-family="Roboto" x="43.00000000" y="515.97851562" style="stroke:rgb(0.00000000,0.00000000,0.00000000);stroke-width:0.17500000;fill:rgb(0.00000000,0.00000000,0.00000000);opacity:1.00000000;" transform="rotate(-0.00000000,43.00000000,515.97851562)">100.0</text>
<line x1="87.00000000" y1="436.95706177" x2="93.00000000" y2="436.95706177" style="stroke:rgb(0.00000000,0.00000000,0.00000000);stroke-width:2.00000000;opacity:1.00000000;stroke-linecap:butt" />
<text font-size="12.00000000" font-family="Roboto" x="43.00000000" y="442.95706177" style="stroke:rgb(0.00000000,0.00000000,0.00000000);stroke-width:0.17500000;fill:rgb(0.00000000,0.00000000,0.00000000);opacity:1.00000000;" transform="rotate(-0.00000000,43.00000000,442.95706177)">200.0</text>
<line x1="87.00000000" y1="363.93560791" x2="93.00000000" y2="363.93560791" style="stroke:rgb(0.00000000,0.00000000,0.00000000);stroke-width:2.00000000;opacity:1.00000000;stroke-linecap:butt" />
<text font-size="12.00000000" font-family="Roboto" x="43.00000000" y="369.93560791" style="stroke:rgb(0.00000000,0.00000000,0.00000000);stroke-width:0.17500000;fill:rgb(0.00000000,0.00000000,0.00000000);opacity:1.00000000;" transform="rotate(-0.00000000,43.00000000,369.93560791)">300.0</text>
<line x1="87.00000000" y1="290.91412354" x2="93.00000000" y2="290.91412354" style="stroke:rgb(0.00000000,0.00000000,0.00000000);stroke-width:2.00000000;opacity:1.00000000;stroke-linecap:butt" />
<text font-size="12.00000000" font-family="Roboto" x="43.00000000" y="296.91412354" style="stroke:rgb(0.00000000,0.00000000,0.00000000);stroke-width:0.17500000;fill:rgb(0.00000000,0.00000000,0.00000000);opacity:1.00000000;" transform="rotate(-0.00000000,43.00000000,296.91412354)">400.0</text>
<line x1="87.00000000" y1="217.89263916" x2="93.00000000" y2="217.89263916" style="stroke:rgb(0.00000000,0.00000000,0.00000000);stroke-width:2.00000000;opacity:1.00000000;stroke-linecap:butt" />
<text font-size="12.00000000" font-family="Roboto" x="43.00000000" y="223.89263916" style="stroke:rgb(0.00000000,0.00000000,0.00000000);stroke-width:0.17500000;fill:rgb(0.00000000,0.00000000,0.00000000);opacity:1.00000000;" transform="rotate(-0.00000000,43.00000000,223.89263916)">500.0</text>
<line x1="87.00000000" y1="144.87115479" x2="93.00000000" y2="144.87115479" style="stroke:rgb(0.00000000,0.00000000,0.00000000);stroke-width:2.00000000;opacity:1.00000000;stroke-linecap:butt" />
<text font-size="12.00000000" font-family="Roboto" x="43.00000000" y="150.87115479" style="stroke:rgb(0.00000000,0.00000000,0.00000000);stroke-width:0.17500000;fill:rgb(0.00000000,0.00000000,0.00000000);opacity:1.00000000;" transform="rotate(-0.00000000,43.00000000,150.87115479)">600.0</text>
<line x1="87.00000000" y1="71.84967041" x2="93.00000000" y2="71.84967041" style="stroke:rgb(0.00000000,0.00000000,0.00000000);stroke-width:2.00000000;opacity:1.00000000;stroke-linecap:butt" />
<text font-size="12.00000000" font-family="Roboto" x="43.00000000" y="77.84967041" style="stroke:rgb(0.00000000,0.00000000,0.00000000);stroke-width:0.17500000;fill:rgb(0.00000000,0.00000000,0.00000000);opacity:1.00000000;" transform="rotate(-0.00000000,43.00000000,77.84967041)">700.0</text>
<polyline points="117.00000000,583.00000000 117.00000000,581.53955078 134.00000000,581.53955078 134.00000000,581.53955078 151.00000000,581.53955078 151.00000000,581.53955078 168.00000000,581.53955078 168.00000000,577.88848877 185.00000000,577.88848877 185.00000000,575.69787598 202.00000000,575.69787598 202.00000000,580.07916260 219.00000000,580.07916260 219.00000000,571.31658936 236.00000000,571.31658936 236.00000000,569.85614014 253.00000000,569.85614014 253.00000000,561.09356689 270.00000000,561.09356689 270.00000000,543.56842041 287.00000000,543.56842041 287.00000000,537.72668457 304.00000000,537.72668457 304.00000000,524.58282471 321.00000000,524.58282471 321.00000000,490.26272583 338.00000000,490.26272583 338.00000000,486.61166382 355.00000000,486.61166382 355.00000000,423.81317139 372.00000000,423.81317139 372.00000000,423.08297729 389.00000000,423.08297729 389.00000000,345.68023682 406.00000000,345.68023682 406.00000000,296.02560425 423.00000000,296.02560425 423.00000000,263.89617920 440.00000000,263.89617920 440.00000000,198.17684937 457.00000000,198.17684937 457.00000000,179.92147827 474.00000000,179.92147827 474.00000000,160.20568848 491.00000000,160.20568848 491.00000000,131.72729492 508.00000000,131.72729492 508.00000000,120.77404785 525.00000000,120.77404785 525.00000000,106.90002441 542.00000000,106.90002441 542.00000000,112.74169922 559.00000000,112.74169922 559.00000000,155.09417725 576.00000000,155.09417725 576.00000000,192.33511353 593.00000000,192.33511353 593.00000000,224.46456909 610.00000000,224.46456909 610.00000000,259.51489258 627.00000000,259.51489258 627.00000000,312.82055664 644.00000000,312.82055664 644.00000000,358.82409668 661.00000000,358.82409668 661.00000000,434.76641846 678.00000000,434.76641846 678.00000000,439.87792969 695.00000000,439.87792969 695.00000000,490.99295044 712.00000000,490.99295044 712.00000000,502.67639160 729.00000000,502.67639160 729.00000000,507.05767822 746.00000000,507.05767822 746.00000000,543.56842041 763.00000000,543.56842041 763.00000000,546.48925781 780.00000000,546.48925781 780.00000000,554.52160645 797.00000000,554.52160645 797.00000000,569.12591553 814.00000000,569.12591553 814.00000000,574.23742676 831.00000000,574.23742676 831.00000000,580.07916260 848.00000000,580.07916260 848.00000000,583.00000000" style="stroke:rgb(0.00000000,0.00000000,255.00000000);stroke-width:2.00000000;opacity:1.00000000;stroke-linecap:butt;fill:none;" />
<polyline points="865.00000000,583.00000000 865.00000000,580.80932617 882.00000000,580.80932617 882.00000000,580.07916260 899.00000000,580.07916260 899.00000000,582.26977539 916.00000000,582.26977539 916.00000000,583.00000000" style="stroke:rgb(0.00000000,0.00000000,255.00000000);stroke-width:2.00000000;opacity:1.00000000;stroke-linecap:butt;fill:none;" />
<text font-size="20.00000000" font-family="Roboto" x="454.10000610" y="36.00000000" style="stroke:rgb(0.00000000,0.00000000,0.00000000);stroke-width:0.30000001;fill:rgb(0.00000000,0.00000000,0.00000000);opacity:1.00000000;" transform="rotate(-0.00000000,454.10000610,36.00000000)">HISTOGRAM STEP</text>
<text font-size="15.00000000" font-family="Roboto" x="504.22500610" y="646.00000000" style="stroke:rgb(0.00000000,0.00000000,0.00000000);stroke-width:0.30000001;fill:rgb(0.00000000,0.00000000,0.00000000);opacity:1.00000000;" transform="rotate(-0.00000000,504.22500610,646.00000000)">X</text>
<text font-size="15.00000000" font-family="Roboto" x="31.00000000" y="357.32501221" style="stroke:rgb(0.00000000,0.00000000,0.00000000);stroke-width:0.30000001;fill:rgb(0.00000000,0.00000000,0.00000000);opacity:1.00000000;" transform="rotate(-90.00000000,31.00000000,357.32501221)">Frequency</text>
<rect x="115.00000000" y="74.00000000" width="77.80000305" height="30.00000000" style="fill:rgb(255.00000000,255.00000000,255.00000000);stroke-width:2.00000000;stroke:rgb(0.00000000,0.00000000,0.00000000);opacity:0.69999999" />
<rect x="125.00000000" y="84.00000000" width="10.00000000" height="10.00000000" style="fill:rgb(0.00000000,0.00000000,255.00000000);stroke-width:0;stroke:rgb(0,0,0);opacity:1.00000000" />
<text font-size="10.00000000" font-family="Roboto" x="145.00000000" y="94.00000000" style="stroke:rgb(0.00000000,0.00000000,0.00000000);stroke-width:0.30000001;fill:rgb(0.00000000,0.00000000,0.00000000);opacity:1.00000000;" transform="rotate(-0.00000000,145.00000000,94.00000000)">Plot 1</text>
</svg>