<svg height="660.00000000" width="1000.00000000" version="4.0" xmlns="http://www.w3.org/2000/svg" xmlns:xlink= "http://www.w3.org/1999/xlink">
<rect width="100%" height="100%" fill="white"/>
<defs><style>@import url("https://fonts.googleapis.com/css?family=Roboto");</style></defs>
<rect x="0.00000000" y="0.00000000" width="1000.00000000" height="660.00000000" style="fill:rgb(255.00000000,255.00000000,255.00000000);stroke-width:0;stroke:rgb(0,0,0);opacity:1.00000000" />
<line x1="100.00000000" y1="583.00000000" x2="100.00000000" y2="54.00000000" style="stroke:rgb(127.50000000,127.50000000,127.50000000);stroke-width:0.50000000;opacity:1.00000000;stroke-linecap:butt" />
<line x1="149.35293579" y1="583.00000000" x2="149.35293579" y2="54.00000000" style="stroke:rgb(127.50000000,127.50000000,127.50000000);stroke-width:0.50000000;opacity:1.00000000;stroke-linecap:butt" />
<line x1="198.70588684" y1="583.00000000" x2="198.70588684" y2="54.00000000" style="stroke:rgb(127.50000000,127.50000000,127.50000000);stroke-width:0.50000000;opacity:1.00000000;stroke-linecap:butt" />
<line x1="248.05882263" y1="583.00000000" x2="248.05882263" y2="54.00000000" style="stroke:rgb(127.50000000,127.50000000,127.50000000);stroke-width:0.50000000;opacity:1.00000000;stroke-linecap:butt" />
<line x1="297.41177368" y1="583.00000000" x2="297.41177368" y2="54.00000000" style="stroke:rgb(127.50000000,127.50000000,127.50000000);stroke-width:0.50000000;opacity:1.00000000;stroke-linecap:butt" />
<line x1="346.76470947" y1="583.00000000" x2="346.76470947" y2="54.00000000" style="stroke:rgb(127.50000000,127.50000000,127.50000000);stroke-width:0.50000000;opacity:1.00000000;stroke-linecap:butt" />
<line x1="396.11764526" y1="583.00000000" x2="396.11764526" y2="54.00000000" style="stroke:rgb(127.50000000,127.50000000,127.50000000);stroke-width:0.50000000;opacity:1.00000000;stroke-linecap:butt" />
<line x1="445.47058105" y1="583.00000000" x2="445.47058105" y2="54.00000000" style="stroke:rgb(127.50000000,127.50000000,127.50000000);stroke-width:0.50000000;opacity:1.00000000;stroke-linecap:butt" />
<line x1="494.82354736" y1="583.00000000" x2="494.82354736" y2="54.00000000" style="stroke:rgb(127.50000000,127.50000000,127.50000000);stroke-width:0.50000000;opacity:1.00000000;stroke-linecap:butt" />
<line x1="544.17651367" y1="583.00000000" x2="544.17651367" y2="54.00000000" style="stroke:rgb(127.50000000,127.50000000,127.50000000);stroke-width:0.50000000;opacity:1.00000000;stroke-linecap:butt" />
<line x1="593.52941895" y1="583.00000000" x2="593.52941895" y2="54.00000000" style="stroke:rgb(127.50000000,127.50000000,127.50000000);stroke-width:0.50000000;opacity:1.00000000;stroke-linecap:butt" />
<line x1="642.88238525" y1="583.00000000" x2="642.88238525" y2="54.00000000" style="stroke:rgb(127.50000000,127.50000000,127.50000000);stroke-width:0.50000000;opacity:1.00000000;stroke-linecap:butt" />
<line x1="692.23529053" y1="583.00000000" x2="692.23529053" y2="54.00000000" style="stroke:rgb(127.50000000,127.50000000,127.50000000);stroke-width:0.50000000;opacity:1.00000000;stroke-linecap:butt" />
<line x1="741.58825684" y1="583.00000000" x2="741.58825684" y2="54.00000000" style="stroke:rgb(127.50000000,127.50000000,127.50000000);stroke-width:0.50000000;opacity:1.00000000;stroke-linecap:butt" />
<line x1="790.94116211" y1="583.00000000" x2="790.94116211" y2="54.00000000" style="stroke:rgb(127.50000000,127.50000000,127.50000000);stroke-width:0.50000000;opacity:1.00000000;stroke-linecap:butt" />
<line x1="840.29412842" y1="583.00000000" x2="840.29412842" y2="54.00000000" style="stroke:rgb(127.50000000,127.50000000,127.50000000);stroke-width:0.50000000;opacity:1.00000000;stroke-linecap:butt" />
<line x1="889.64709473" y1="583.00000000" x2="889.64709473" y2="54.00000000" style="stroke:rgb(127.50000000,127.50000000,127.50000000);stroke-width:0.50000000;opacity:1.00000000;stroke-linecap:butt" />
<line x1="939.00000000" y1="583.00000000" x2="939.00000000" y2="54.00000000" style="stroke:rgb(127.50000000,127.50000000,127.50000000);stroke-width:0.50000000;opacity:1.00000000;stroke-linecap:butt" />
<line x1="95.00000000" y1="531.08068848" x2="944.00000000" y2="531.08068848" style="stroke:rgb(127.50000000,127.50000000,127.50000000);stroke-width:0.50000000;opacity:1.00000000;stroke-linecap:butt" />
<line x1="95.00000000" y1="479.16137695" x2="944.00000000" y2="479.16137695" style="stroke:rgb(127.50000000,127.50000000,127.50000000);stroke-width:0.50000000;opacity:1.00000000;stroke-linecap:butt" />
<line x1="95.00000000" y1="427.24209595" x2="944.00000000" y2="427.24209595" style="stroke:rgb(127.50000000,127.50000000,127.50000000);stroke-width:0.50000000;opacity:1.00000000;stroke-linecap:butt" />
<line x1="95.00000000" y1="375.32278442" x2="944.00000000" y2="375.32278442" style="stroke:rgb(127.50000000,127.50000000,127.50000000);stroke-width:0.50000000;opacity:1.00000000;stroke-linecap:butt" />
<line x1="95.00000000" y1="323.40347290" x2="944.00000000" y2="323.40347290" style="stroke:rgb(127.50000000,127.50000000,127.50000000);stroke-width:0.50000000;opacity:1.00000000;stroke-linecap:butt" />
<line x1="95.00000000" y1="271.48416138" x2="944.00000000" y2="271.48416138" style="stroke:rgb(127.50000000,127.50000000,127.50000000);stroke-width:0.50000000;opacity:1.00000000;stroke-linecap:butt" />
<line x1="95.00000000" y1="219.56484985" x2="944.00000000" y2="219.56484985" style="stroke:rgb(127.50000000,127.50000000,127.50000000);stroke-width:0.50000000;opacity:1.00000000;stroke-linecap:butt" />
<line x1="95.00000000" y1="167.64553833" x2="944.00000000" y2="167.64553833" style="stroke:rgb(127.50000000,127.50000000,127.50000000);stroke-width:0.50000000;opacity:1.00000000;stroke-linecap:butt" />
<line x1="95.00000000" y1="115.72619629" x2="944.00000000" y2="115.72619629" style="stroke:rgb(127.50000000,127.50000000,127.50000000);stroke-width:0.50000000;opacity:1.00000000;stroke-linecap:butt" />
<line x1="95.00000000" y1="63.80694580" x2="944.00000000" y2="63.80694580" style="stroke:rgb(127.50000000,127.50000000,127.50000000);stroke-width:0.50000000;opacity:1.00000000;stroke-linecap:butt" />
<rect x="94.00000000" y="53.00000000" width="851.00000000" height="531.00000000" style="fill:rgb(255,255,255);stroke-width:2.00000000;stroke:rgb(0.00000000,0.00000000,0.00000000);opacity:1;fill-opacity:0;" />
<line x1="100.00000000" y1="585.00000000" x2="100.00000000" y2="591.00000000" style="stroke:rgb(0.00000000,0.00000000,0.00000000);stroke-width:2.00000000;opacity:1.00000000;stroke-linecap:butt" />
<text font-size="12.00000000" font-family="Roboto" x="79.45999908" y="609.00000000" style="stroke:rgb(0.00000000,0.00000000,0.00000000);stroke-width:0.17500000;fill:rgb(0.00000000,0.00000000,0.00000000);opacity:1.00000000;" transform="rotate(-0.00000000,79.45999908,609.00000000)">40.0</text>
<line x1="149.35293579" y1="585.00000000" x2="149.35293579" y2="591.00000000" style="stroke:rgb(0.00000000,0.00000000,0.00000000);stroke-width:2.00000000;opacity:1.00000000;stroke-linecap:butt" />
<text font-size="12.00000000" font-family="Roboto" x="128.81294250" y="609.00000000" style="stroke:rgb(0.00000000,0.00000000,0.00000000);stroke-width:0.17500000;fill:rgb(0.00000000,0.00000000,0.00000000);opacity:1.00000000;" transform="rotate(-0.00000000,128.81294250,609.00000000)">50.0</text>
<line x1="198.70588684" y1="585.00000000" x2="198.70588684" y2="591.00000000" style="stroke:rgb(0.00000000,0.00000000,0.00000000);stroke-width:2.00000000;opacity:1.00000000;stroke-linecap:butt" />
<text font-size="12.00000000" font-family="Roboto" x="178.16589355" y="609.00000000" style="stroke:rgb(0.00000000,0.00000000,0.00000000);stroke-width:0.17500000;fill:rgb(0.00000000,0.00000000,0.00000000);opacity:1.00000000;" transform="rotate(-0.00000000,178.16589355,609.00000000)">60.0</text>
<line x1="248.05882263" y1="585.00000000" x2="248.05882263" y2="591.00000000" style="stroke:rgb(0.00000000,0.00000000,0.00000000);stroke-width:2.00000000;opacity:1.00000000;stroke-linecap:butt" />
<text font-size="12.00000000" font-family="Roboto" x="227.51882935" y="609.00000000" style="stroke:rgb(0.00000000,0.00000000,0.00000000);stroke-width:0.17500000;fill:rgb(0.00000000,0.00000000,0.00000000);opacity:1.00000000;" transform="rotate(-0.00000000,227.51882935,609.00000000)">70.0</text>
<line x1="297.41177368" y1="585.00000000" x2="297.41177368" y2="591.00000000" style="stroke:rgb(0.00000000,0.00000000,0.00000000);stroke-width:2.00000000;opacity:1.00000000;stroke-linecap:butt" />
<text font-size="12.00000000" font-family="Roboto" x="276.87176514" y="609.00000000" style="stroke:rgb(0.00000000,0.00000000,0.00000000);stroke-width:0.17500000;fill:rgb(0.00000000,0.00000000,0.00000000);opacity:1.00000000;" transform="rotate(-0.00000000,276.87176514,609.00000000)">80.0</text>
<line x1="346.76470947" y1="585.00000000" x2="346.76470947" y2="591.00000000" style="stroke:rgb(0.00000000,0.00000000,0.00000000);stroke-width:2.00000000;opacity:1.00000000;stroke-linecap:butt" />
<text font-size="12.00000000" font-family="Roboto" x="326.22470093" y="609.00000000" style="stroke:rgb(0.00000000,0.00000000,0.00000000);stroke-width:0.17500000;fill:rgb(0.00000000,0.00000000,0.00000000);opacity:1.00000000;" transform="rotate(-0.00000000,326.22470093,609.00000000)">90.0</text>
<line x1="396.11764526" y1="585.00000000" x2="396.11764526" y2="591.00000000" style="stroke:rgb(0.00000000,0.00000000,0.00000000);stroke-width:2.00000000;opacity:1.00000000;stroke-linecap:butt" />
<text font-size="12.00000000" font-family="Roboto" x="373.89764404" y="609.00000000" style="stroke:rgb(0.00000000,0.00000000,0.00000000);stroke-width:0.17500000;fill:rgb(0.00000000,0.00000000,0.00000000);opacity:1.00000000;" transform="rotate(-0.00000000,373.89764404,609.00000000)">100.0</text>
<line x1="445.47058105" y1="585.00000000" x2="445.47058105" y2="591.00000000" style="stroke:rgb(0.00000000,0.00000000,0.00000000);stroke-width:2.00000000;opacity:1.00000000;stroke-linecap:butt" />
<text font-size="12.00000000" font-family="Roboto" x="423.73059082" y="609.00000000" style="stroke:rgb(0.00000000,0.00000000,0.00000000);stroke-width:0.17500000;fill:rgb(0.00000000,0.00000000,0.00000000);opacity:1.00000000;" transform="rotate(-0.00000000,423.73059082,609.00000000)">110.0</text>
<line x1="494.82354736" y1="585.00000000" x2="494.82354736" y2="591.00000000" style="stroke:rgb(0.00000000,0.00000000,0.00000000);stroke-width:2.00000000;opacity:1.00000000;stroke-linecap:butt" />
<text font-size="12.00000000" font-family="Roboto" x="472.60354614" y="609.00000000" style="stroke:rgb(0.00000000,0.00000000,0.00000000);stroke-width:0.17500000;fill:rgb(0.00000000,0.00000000,0.00000000);opacity:1.00000000;" transform="rotate(-0.00000000,472.60354614,609.00000000)">120.0</text>
<line x1="544.17651367" y1="585.00000000" x2="544.17651367" y2="591.00000000" style="stroke:rgb(0.00000000,0.00000000,0.00000000);stroke-width:2.00000000;opacity:1.00000000;stroke-linecap:butt" />
<text font-size="12.00000000" font-family="Roboto" x="521.95648193" y="609.00000000" style="stroke:rgb(0.00000000,0.00000000,0.00000000);stroke-width:0.17500000;fill:rgb(0.00000000,0.00000000,0.00000000);opacity:1.00000000;" transform="rotate(-0.00000000,521.95648193,609.00000000)">130.0</text>
<line x1="593.52941895" y1="585.00000000" x2="593.52941895" y2="591.00000000" style="stroke:rgb(0.00000000,0.00000000,0.00000000);stroke-width:2.00000000;opacity:1.00000000;stroke-linecap:butt" />
<text font-size="12.00000000" font-family="Roboto" x="571.30944824" y="609.00000000" style="stroke:rgb(0.00000000,0.00000000,0.00000000);stroke-width:0.17500000;fill:rgb(0.00000000,0.00000000,0.00000000);opacity:1.00000000;" transform="rotate(-0.00000000,571.30944824,609.00000000)">140.0</text>
<line x1="642.88238525" y1="585.00000000" x2="642.88238525" y2="591.00000000" style="stroke:rgb(0.00000000,0.00000000,0.00000000);stroke-width:2.00000000;opacity:1.00000000;stroke-linecap:butt" />
<text font-size="12.00000000" font-family="Roboto" x="620.66241455" y="609.00000000" style="stroke:rgb(0.00000000,0.00000000,0.00000000);stroke-width:0.17500000;fill:rgb(0.00000000,0.00000000,0.00000000);opacity:1.00000000;" transform="rotate(-0.00000000,620.66241455,609.00000000)">150.0</text>
<line x1="692.23529053" y1="585.00000000" x2="692.23529053" y2="591.00000000" style="stroke:rgb(0.00000000,0.00000000,0.00000000);stroke-width:2.00000000;opacity:1.00000000;stroke-linecap:butt" />
<text font-size="12.00000000" font-family="Roboto" x="670.01531982" y="609.00000000" style="stroke:rgb(0.00000000,0.00000000,0.00000000);stroke-width:0.17500000;fill:rgb(0.00000000,0.00000000,0.00000000);opacity:1.00000000;" transform="rotate(-0.00000000,670.01531982,609.00000000)">160.0</text>
<line x1="741.58825684" y1="585.00000000" x2="741.58825684" y2="591.00000000" style="stroke:rgb(0.00000000,0.00000000,0.00000000);stroke-width:2.00000000;opacity:1.00000000;stroke-linecap:butt" />
<text font-size="12.00000000" font-family="Roboto" x="719.36828613" y="609.00000000" style="stroke:rgb(0.00000000,0.00000000,0.00000000);stroke-width:0.17500000;fill:rgb(0.00000000,0.00000000,0.00000000);opacity:1.00000000;" transform="rotate(-0.00000000,719.36828613,609.00000000)">170.0</text>
<line x1="790.94116211" y1="585.00000000" x2="790.94116211" y2="591.00000000" style="stroke:rgb(0.00000000,0.00000000,0.00000000);stroke-width:2.00000000;opacity:1.00000000;stroke-linecap:butt" />
<text font-size="12.00000000" font-family="Roboto" x="768.72119141" y="609.00000000" style="stroke:rgb(0.00000000,0.00000000,0.00000000);stroke-width:0.17500000;fill:rgb(0.00000000,0.00000000,0.00000000);opacity:1.00000000;" transform="rotate(-0.00000000,768.72119141,609.00000000)">180.0</text>
<line x1="840.29412842" y1="585.00000000" x2="840.29412842" y2="591.00000000" style="stroke:rgb(0.00000000,0.00000000,0.00000000);stroke-width:2.00000000;opacity:1.00000000;stroke-linecap:butt" />
<text font-size="12.00000000" font-family="Roboto" x="818.07415771" y="609.00000000" style="stroke:rgb(0.00000000,0.00000000,0.00000000);stroke-width:0.17500000;fill:rgb(0.00000000,0.00000000,0.00000000);opacity:1.00000000;" transform="rotate(-0.00000000,818.07415771,609.00000000)">190.0</text>
<line x1="889.64709473" y1="585.00000000" x2="889.64709473" y2="591.00000000" style="stroke:rgb(0.00000000,0.00000000,0.00000000);stroke-width:2.00000000;opacity:1.00000000;stroke-linecap:butt" />
<text font-size="12.00000000" font-family="Roboto" x="866.94708252" y="609.00000000" style="stroke:rgb(0.00000000,0.00000000,0.00000000);stroke-width:0.17500000;fill:rgb(0.00000000,0.00000000,0.00000000);opacity:1.00000000;" transform="rotate(-0.00000000,866.94708252,609.00000000)">200.0</text>
<line x1="939.00000000" y1="585.00000000" x2="939.00000000" y2="591.00000000" style="stroke:rgb(0.00000000,0.00000000,0.00000000);stroke-width:2.00000000;opacity:1.00000000;stroke-linecap:butt" />
<text font-size="12.00000000" font-family="Roboto" x="916.78002930" y="609.00000000" style="stroke:rgb(0.00000000,0.00000000,0.00000000);stroke-width:0.17500000;fill:rgb(0.00000000,0.00000000,0.00000000);opacity:1.00000000;" transform="rotate(-0.00000000,916.78002930,609.00000000)">210.0</text>
<line x1="87.00000000" y1="583.00000000" x2="93.00000000" y2="583.00000000" style="stroke:rgb(0.00000000,0.00000000,0.00000000);stroke-width:2.00000000;opacity:1.00000000;stroke-linecap:butt" />
<text font-size="12.00000000" font-family="Roboto" x="46.24000168" y="589.00000000" style="stroke:rgb(0.00000000,0.00000000,0.00000000);stroke-width:0.17500000;fill:rgb(0.00000000,0.00000000,0.00000000);opacity:1.00000000;" transform="rotate(-0.00000000,46.24000168,589.00000000)">0.0</text>
<line x1="87.00000000" y1="531.08068848" x2="93.00000000" y2="531.08068848" style="stroke:rgb(0.00000000,0.00000000,0.00000000);stroke-width:2.00000000;opacity:1.00000000;stroke-linecap:butt" />
<text font-size="12.00000000" font-family="Roboto" x="43.00000000" y="537.08068848" style="stroke:rgb(0.00000000,0.00000000,0.00000000);stroke-width:0.17500000;fill:rgb(0.00000000,0.00000000,0.00000000);opacity:1.00000000;" transform="rotate(-0.00000000,43.00000000,537.08068848)">100.0</text>
<line x1="87.00000000" y1="479.16137695" x2="93.00000000" y2="479.16137695" style="stroke:rgb(0.00000000,0.00000000,0.00000000);stroke-width:2.00000000;opacity:1.00000000;stroke-linecap:butt" />
<text font-size="12.00000000" font-family="Roboto" x="43.00000000" y="485.16137695" style="stroke:rgb(0.00000000,0.00000000,0.00000000);stroke-width:0.17500000;fill:rgb(0.00000000,0.00000000,0.00000000);opacity:1.00000000;" transform="rotate(-0.00000000,43.00000000,485.16137695)">200.0</text>
<line x1="87.00000000" y1="427.24209595" x2="93.00000000" y2="427.24209595" style="stroke:rgb(0.00000000,0.00000000,0.00000000);stroke-width:2.00000000;opacity:1.00000000;stroke-linecap:butt" />
<text font-size="12.00000000" font-family="Roboto" x="43.00000000" y="433.24209595" style="stroke:rgb(0.00000000,0.00000000,0.00000000);stroke-width:0.17500000;fill:rgb(0.00000000,0.00000000,0.00000000);opacity:1.00000000;" transform="rotate(-0.00000000,43.00000000,433.24209595)">300.0</text>
<line x1="87.00000000" y1="375.32278442" x2="93.00000000" y2="375.32278442" style="stroke:rgb(0.00000000,0.00000000,0.00000000);stroke-width:2.00000000;opacity:1.00000000;stroke-linecap:butt" />
<text font-size="12.00000000" font-family="Roboto" x="43.00000000" y="381.32278442" style="stroke:rgb(0.00000000,0.00000000,0.00000000);stroke-width:0.17500000;fill:rgb(0.00000000,0.00000000,0.00000000);opacity:1.00000000;" transform="rotate(-0.00000000,43.00000000,381.32278442)">400.0</text>
<line x1="87.00000000" y1="323.40347290" x2="93.00000000" y2="323.40347290" style="stroke:rgb(0.00000000,0.00000000,0.00000000);stroke-width:2.00000000;opacity:1.00000000;stroke-linecap:butt" />
<text font-size="12.00000000" font-family="Roboto" x="43.00000000" y="329.40347290" style="stroke:rgb(0.00000000,0.00000000,0.00000000);stroke-width:0.17500000;fill:rgb(0.00000000,0.00000000,0.00000000);opacity:1.00000000;" transform="rotate(-0.00000000,43.00000000,329.40347290)">500.0</text>
<line x1="87.00000000" y1="271.48416138" x2="93.00000000" y2="271.48416138" style="stroke:rgb(0.00000000,0.00000000,0.00000000);stroke-width:2.00000000;opacity:1.00000000;stroke-linecap:butt" />
<text font-size="12.00000000" font-family="Roboto" x="43.00000000" y="277.48416138" style="stroke:rgb(0.00000000,0.00000000,0.00000000);stroke-width:0.17500000;fill:rgb(0.00000000,0.00000000,0.00000000);opacity:1.00000000;" transform="rotate(-0.00000000,43.00000000,277.48416138)">600.0</text>
<line x1="87.00000000" y1="219.56484985" x2="93.00000000" y2="219.56484985" style="stroke:rgb(0.00000000,0.00000000,0.00000000);stroke-width:2.00000000;opacity:1.00000000;stroke-linecap:butt" />
<text font-size="12.00000000" font-family="Roboto" x="43.00000000" y="225.56484985" style="stroke:rgb(0.00000000,0.00000000,0.00000000);stroke-width:0.17500000;fill:rgb(0.00000000,0.00000000,0.00000000);opacity:1.00000000;" transform="rotate(-0.00000000,43.00000000,225.56484985)">700.0</text>
<line x1="87.00000000" y1="167.64553833" x2="93.00000000" y2="167.64553833" style="stroke:rgb(0.00000000,0.00000000,0.00000000);stroke-width:2.00000000;opacity:1.00000000;stroke-linecap:butt" />
<text font-size="12.00000000" font-family="Roboto" x="43.00000000" y="173.64553833" style="stroke:rgb(0.00000000,0.00000000,0.00000000);stroke-width:0.17500000;fill:rgb(0.00000000,0.00000000,0.00000000);opacity:1.00000000;" transform="rotate(-0.00000000,43.00000000,173.64553833)">800.0</text>
<line x1="87.00000000" y1="115.72619629" x2="93.00000000" y2="115.72619629" style="stroke:rgb(0.00000000,0.00000000,0.00000000);stroke-width:2.00000000;opacity:1.00000000;stroke-linecap:butt" />
<text font-size="12.00000000" font-family="Roboto" x="43.00000000" y="121.72619629" style="stroke:rgb(0.00000000,0.00000000,0.00000000);stroke-width:0.17500000;fill:rgb(0.00000000,0.00000000,0.00000000);opacity:1.00000000;" transform="rotate(-0.00000000,43.00000000,121.72619629)">900.0</text>
<line x1="87.00000000" y1="63.80694580" x2="93.00000000" y2="63.80694580" style="stroke:rgb(0.00000000,0.00000000,0.00000000);stroke-width:2.00000000;opacity:1.00000000;stroke-linecap:butt" />
<text font-size="12.00000000" font-family="Roboto" x="43.00000000" y="69.80694580" style="stroke:rgb(0.00000000,0.00000000,0.00000000);stroke-width:0.17500000;fill:rgb(0.00000000,0.00000000,0.00000000);opacity:1.00000000;" transform="rotate(-0.00000000,43.00000000,69.80694580)">1000.0</text>
<polyline points="287.00000000,419.45419312 287.00000000,418.93499756 304.00000000,418.93499756" style="stroke:rgb(255.00000000,164.98500061,0.00000000);stroke-width:2.00000000;opacity:1.00000000;stroke-linecap:butt;fill:none;" />
<polyline points="372.00000000,115.20703125 372.00000000,114.68786621 389.00000000,114.68786621 389.00000000,115.20703125" style="stroke:rgb(255.00000000,164.98500061,0.00000000);stroke-width:2.00000000;opacity:1.00000000;stroke-linecap:butt;fill:none;" />
<polyline points="389.00000000,115.72625732 406.00000000,115.72625732" style="stroke:rgb(255.00000000,164.98500061,0.00000000);stroke-width:2.00000000;opacity:1.00000000;stroke-linecap:butt;fill:none;" />
<polyline points="406.00000000,109.49597168 406.00000000,106.89996338 423.00000000,106.89996338 423.00000000,109.49597168" style="stroke:rgb(255.00000000,164.98500061,0.00000000);stroke-width:2.00000000;opacity:1.00000000;stroke-linecap:butt;fill:none;" />
<polyline points="423.00000000,152.58895874 440.00000000,152.58895874 440.00000000,160.37686157" style="stroke:rgb(255.00000000,164.98500061,0.00000000);stroke-width:2.00000000;opacity:1.00000000;stroke-linecap:butt;fill:none;" />
<polyline points="440.00000000,189.45166016 457.00000000,189.45166016 457.00000000,202.95068359" style="stroke:rgb(255.00000000,164.98500061,0.00000000);stroke-width:2.00000000;opacity:1.00000000;stroke-linecap:butt;fill:none;" />
<polyline points="457.00000000,241.37097168 474.00000000,241.37097168 474.00000000,261.61950684" style="stroke:rgb(255.00000000,164.98500061,0.00000000);stroke-width:2.00000000;opacity:1.00000000;stroke-linecap:butt;fill:none;" />
<polyline points="474.00000000,283.42562866 491.00000000,283.42562866 491.00000000,326.51864624" style="stroke:rgb(255.00000000,164.98500061,0.00000000);stroke-width:2.00000000;opacity:1.00000000;stroke-linecap:butt;fill:none;" />
<polyline points="491.00000000,352.99749756 508.00000000,352.99749756 508.00000000,362.86215210 525.00000000,362.86215210 525.00000000,332.22976685 542.00000000,332.22976685 542.00000000,334.30651855 559.00000000,334.30651855 559.00000000,284.98321533 576.00000000,284.98321533 576.00000000,256.42758179 593.00000000,256.42758179 593.00000000,167.12637329 610.00000000,167.12637329 610.00000000,138.57073975 627.00000000,138.57073975 627.00000000,121.43737793 644.00000000,121.43737793 644.00000000,119.87976074 661.00000000,119.87976074 661.00000000,123.51416016 678.00000000,123.51416016 678.00000000,170.76071167 695.00000000,170.76071167 695.00000000,219.04568481 712.00000000,219.04568481 712.00000000,279.27206421 729.00000000,279.27206421 729.00000000,344.17120361 746.00000000,344.17120361 746.00000000,405.43597412 763.00000000,405.43597412 763.00000000,460.98962402 780.00000000,460.98962402 780.00000000,494.73718262 797.00000000,494.73718262 797.00000000,539.38781738 814.00000000,539.38781738 814.00000000,554.44439697 831.00000000,554.44439697 831.00000000,559.11712646 848.00000000,559.11712646 848.00000000,572.09692383 865.00000000,572.09692383 865.00000000,577.28887939 882.00000000,577.28887939 882.00000000,580.40405273 899.00000000,580.40405273 899.00000000,580.92321777 916.00000000,580.92321777 916.00000000,581.44244385 933.00000000,581.44244385 933.00000000,583.00000000" style="stroke:rgb(255.00000000,164.98500061,0.00000000);stroke-width:2.00000000;opacity:1.00000000;stroke-linecap:butt;fill:none;" />
<polyline points="117.00000000,583.00000000 117.00000000,580.92321777 134.00000000,580.92321777 134.00000000,580.92321777 151.00000000,580.92321777 151.00000000,577.28887939 168.00000000,577.28887939 168.00000000,578.84643555 185.00000000,578.84643555 185.00000000,571.05859375 202.00000000,571.05859375 202.00000000,561.71307373 219.00000000,561.71307373 219.00000000,545.61810303 236.00000000,545.61810303 236.00000000,527.96557617 253.00000000,527.96557617 253.00000000,499.40991211 270.00000000,499.40991211 270.00000000,459.43206787 287.00000000,459.43206787 287.00000000,419.45419312 304.00000000,419.45419312 304.00000000,336.38330078 321.00000000,336.38330078 321.00000000,267.33062744 338.00000000,267.33062744 338.00000000,211.77697754 355.00000000,211.77697754 355.00000000,164.53039551 372.00000000,164.53039551 372.00000000,115.20703125 389.00000000,115.20703125 389.00000000,117.80303955 406.00000000,117.80303955 406.00000000,109.49597168 423.00000000,109.49597168 423.00000000,160.37686157 440.00000000,160.37686157 440.00000000,202.95068359 457.00000000,202.95068359 457.00000000,261.61950684 474.00000000,261.61950684 474.00000000,326.51864624 491.00000000,326.51864624 491.00000000,415.30065918 508.00000000,415.30065918 508.00000000,453.20172119 525.00000000,453.20172119 525.00000000,495.77557373 542.00000000,495.77557373 542.00000000,517.58166504 559.00000000,517.58166504 559.00000000,541.98376465 576.00000000,541.98376465 576.00000000,553.40600586 593.00000000,553.40600586 593.00000000,571.05859375 610.00000000,571.05859375 610.00000000,577.28887939 627.00000000,577.28887939 627.00000000,582.48083496 644.00000000,582.48083496 644.00000000,581.44244385 661.00000000,581.44244385 661.00000000,580.92321777 678.00000000,580.92321777 678.00000000,583.00000000" style="stroke:rgb(0.00000000,0.00000000,255.00000000);stroke-width:2.00000000;opacity:1.00000000;stroke-linecap:butt;fill:none;" />
<text font-size="20.00000000" font-family="Roboto" x="425.39999390" y="36.00000000" style="stroke:rgb(0.00000000,0.00000000,0.00000000);stroke-width:0.30000001;fill:rgb(0.00000000,0.00000000,0.00000000);opacity:1.00000000;" transform="rotate(-0.00000000,425.39999390,36.00000000)">HISTOGRAM STACKED STEP</text>
<text font-size="15.00000000" font-family="Roboto" x="504.22500610" y="646.00000000" style="stroke:rgb(0.00000000,0.00000000,0.00000000);stroke-width:0.30000001;fill:rgb(0.00000000,0.00000000,0.00000000);opacity:1.00000000;" transform="rotate(-0.00000000,504.22500610,646.00000000)">X</text>
<text font-size="15.00000000" font-family="Roboto" x="31.00000000" y="357.32501221" style="stroke:rgb(0.00000000,0.00000000,0.00000000);stroke-width:0.30000001;fill:rgb(0.00000000,0.00000000,0.00000000);opacity:1.00000000;" transform="rotate(-90.00000000,31.00000000,357.32501221)">Frequency</text>
<rect x="115.00000000" y="74.00000000" width="78.59999847" height="50.00000000" style="fill:rgb(255.00000000,255.00000000,255.00000000);stroke-width:2.00000000;stroke:rgb(0.00000000,0.00000000,0.00000000);opacity:0.69999999" />
<rect x="125.00000000" y="84.00000000" width="10.00000000" height="10.00000000" style="fill:rgb(0.00000000,0.00000000,255.00000000);stroke-width:0;stroke:rgb(0,0,0);opacity:1.00000000" />
<text font-size="10.00000000" font-family="Roboto" x="145.00000000" y="94.00000000" style="stroke:rgb(0.00000000,0.00000000,0.00000000);stroke-width:0.30000001;fill:rgb(0.00000000,0.00000000,0.00000000);opacity:1.00000000;" transform="rotate(-0.00000000,145.00000000,94.00000000)">Plot 1</text>
<rect x="125.00000000" y="104.00000000" width="10.00000000" height="10.00000000" style="fill:rgb(255.00000000,164.98500061,0.00000000);stroke-width:0;stroke:rgb(0,0,0);opacity:1.00000000" />
<text font-size="10.00000000" font-family="Roboto" x="145.00000000" y="114.00000000" style="stroke:rgb(0.00000000,0.00000000,0.00000000);stroke-width:0.30000001;fill:rgb(0.00000000,0.00000000,0.00000000);opacity:1.00000000;" transform="rotate(-0.00000000,145.00000000,114.00000000)">Plot 2</text>
</svg>