<svg height="660.00000000" width="1000.00000000" version="4.0" xmlns="http://www.w3.org/2000/svg" xmlns:xlink= "http://www.w3.org/1999/xlink">
<rect width="100%" height="100%" fill="white"/>
<defs><style>@import url("https://fonts.googleapis.com/css?family=Roboto");</style></defs>
<rect x="0.00000000" y="0.00000000" width="1000.00000000" height="660.00000000" style="fill:rgb(255.00000000,255.00000000,255.00000000);stroke-width:0;stroke:rgb(0,0,0);opacity:1.00000000" />
<line x1="100.00000000" y1="583.00000000" x2="100.00000000" y2="54.00000000" style="stroke:rgb(127.50000000,127.50000000,127.50000000);stroke-width:0.50000000;opacity:1.00000000;stroke-linecap:butt" />
<line x1="183.89999390" y1="583.00000000" x2="183.89999390" y2="54.00000000" style="stroke:rgb(127.50000000,127.50000000,127.50000000);stroke-width:0.50000000;opacity:1.00000000;stroke-linecap:butt" />
<line x1="267.79998779" y1="583.00000000" x2="267.79998779" y2="54.00000000" style="stroke:rgb(127.50000000,127.50000000,127.50000000);stroke-width:0.50000000;opacity:1.00000000;stroke-linecap:butt" />
<line x1="351.70001221" y1="583.00000000" x2="351.70001221" y2="54.00000000" style="stroke:rgb(127.50000000,127.50000000,127.50000000);stroke-width:0.50000000;opacity:1.00000000;stroke-linecap:butt" />
<line x1="435.60000610" y1="583.00000000" x2="435.60000610" y2="54.00000000" style="stroke:rgb(127.50000000,127.50000000,127.50000000);stroke-width:0.50000000;opacity:1.00000000;stroke-linecap:butt" />
<line x1="519.50000000" y1="583.00000000" x2="519.50000000" y2="54.00000000" style="stroke:rgb(127.50000000,127.50000000,127.50000000);stroke-width:0.50000000;opacity:1.00000000;stroke-linecap:butt" />
<line x1="603.40002441" y1="583.00000000" x2="603.40002441" y2="54.00000000" style="stroke:rgb(127.50000000,127.50000000,127.50000000);stroke-width:0.50000000;opacity:1.00000000;stroke-linecap:butt" />
<line x1="687.29998779" y1="583.00000000" x2="687.29998779" y2="54.00000000" style="stroke:rgb(127.50000000,127.50000000,127.50000000);stroke-width:0.50000000;opacity:1.00000000;stroke-linecap:butt" />
<line x1="771.20001221" y1="583.00000000" x2="771.20001221" y2="54.00000000" style="stroke:rgb(127.50000000,127.50000000,127.50000000);stroke-width:0.50000000;opacity:1.00000000;stroke-linecap:butt" />
<line x1="855.10003662" y1="583.00000000" x2="855.10003662" y2="54.00000000" style="stroke:rgb(127.50000000,127.50000000,127.50000000);stroke-width:0.50000000;opacity:1.00000000;stroke-linecap:butt" />
<line x1="939.00000000" y1="583.00000000" x2="939.00000000" y2="54.00000000" style="stroke:rgb(127.50000000,127.50000000,127.50000000);stroke-width:0.50000000;opacity:1.00000000;stroke-linecap:butt" />
<line x1="95.00000000" y1="273.84414673" x2="944.00000000" y2="273.84414673" style="stroke:rgb(127.50000000,127.50000000,127.50000000);stroke-width:0.50000000;opacity:1.00000000;stroke-linecap:butt" />
<rect x="94.00000000" y="53.00000000" width="851.00000000" height="531.00000000" style="fill:rgb(255,255,255);stroke-width:2.00000000;stroke:rgb(0.00000000,0.00000000,0.00000000);opacity:1;fill-opacity:0;" />
<line x1="100.00000000" y1="585.00000000" x2="100.00000000" y2="591.00000000" style="stroke:rgb(0.00000000,0.00000000,0.00000000);stroke-width:2.00000000;opacity:1.00000000;stroke-linecap:butt" />
<text font-size="12.00000000" font-family="Roboto" x="81.62000275" y="609.00000000" style="stroke:rgb(0.00000000,0.00000000,0.00000000);stroke-width:0.17500000;fill:rgb(0.00000000,0.00000000,0.00000000);opacity:1.00000000;" transform="rotate(-0.00000000,81.62000275,609.00000000)">0.0</text>
<line x1="183.89999390" y1="585.00000000" x2="183.89999390" y2="591.00000000" style="stroke:rgb(0.00000000,0.00000000,0.00000000);stroke-width:2.00000000;opacity:1.00000000;stroke-linecap:butt" />
<text font-size="12.00000000" font-family="Roboto" x="166.00000000" y="609.00000000" style="stroke:rgb(0.00000000,0.00000000,0.00000000);stroke-width:0.17500000;fill:rgb(0.00000000,0.00000000,0.00000000);opacity:1.00000000;" transform="rotate(-0.00000000,166.00000000,609.00000000)">1.0</text>
<line x1="267.79998779" y1="585.00000000" x2="267.79998779" y2="591.00000000" style="stroke:rgb(0.00000000,0.00000000,0.00000000);stroke-width:2.00000000;opacity:1.00000000;stroke-linecap:butt" />
<text font-size="12.00000000" font-family="Roboto" x="249.41999817" y="609.00000000" style="stroke:rgb(0.00000000,0.00000000,0.00000000);stroke-width:0.17500000;fill:rgb(0.00000000,0.00000000,0.00000000);opacity:1.00000000;" transform="rotate(-0.00000000,249.41999817,609.00000000)">2.0</text>
<line x1="351.70001221" y1="585.00000000" x2="351.70001221" y2="591.00000000" style="stroke:rgb(0.00000000,0.00000000,0.00000000);stroke-width:2.00000000;opacity:1.00000000;stroke-linecap:butt" />
<text font-size="12.00000000" font-family="Roboto" x="333.32000732" y="609.00000000" style="stroke:rgb(0.00000000,0.00000000,0.00000000);stroke-width:0.17500000;fill:rgb(0.00000000,0.00000000,0.00000000);opacity:1.00000000;" transform="rotate(-0.00000000,333.32000732,609.00000000)">3.0</text>
<line x1="435.60000610" y1="585.00000000" x2="435.60000610" y2="591.00000000" style="stroke:rgb(0.00000000,0.00000000,0.00000000);stroke-width:2.00000000;opacity:1.00000000;stroke-linecap:butt" />
<text font-size="12.00000000" font-family="Roboto" x="417.22000122" y="609.00000000" style="stroke:rgb(0.00000000,0.00000000,0.00000000);stroke-width:0.17500000;fill:rgb(0.00000000,0.00000000,0.00000000);opacity:1.00000000;" transform="rotate(-0.00000000,417.22000122,609.00000000)">4.0</text>
<line x1="519.50000000" y1="585.00000000" x2="519.50000000" y2="591.00000000" style="stroke:rgb(0.00000000,0.00000000,0.00000000);stroke-width:2.00000000;opacity:1.00000000;stroke-linecap:butt" />
<text font-size="12.00000000" font-family="Roboto" x="501.11999512" y="609.00000000" style="stroke:rgb(0.00000000,0.00000000,0.00000000);stroke-width:0.17500000;fill:rgb(0.00000000,0.00000000,0.00000000);opacity:1.00000000;" transform="rotate(-0.00000000,501.11999512,609.00000000)">5.0</text>
<line x1="603.40002441" y1="585.00000000" x2="603.40002441" y2="591.00000000" style="stroke:rgb(0.00000000,0.00000000,0.00000000);stroke-width:2.00000000;opacity:1.00000000;stroke-linecap:butt" />
<text font-size="12.00000000" font-family="Roboto" x="585.02001953" y="609.00000000" style="stroke:rgb(0.00000000,0.00000000,0.00000000);stroke-width:0.17500000;fill:rgb(0.00000000,0.00000000,0.00000000);opacity:1.00000000;" transform="rotate(-0.00000000,585.02001953,609.00000000)">6.0</text>
<line x1="687.29998779" y1="585.00000000" x2="687.29998779" y2="591.00000000" style="stroke:rgb(0.00000000,0.00000000,0.00000000);stroke-width:2.00000000;opacity:1.00000000;stroke-linecap:butt" />
<text font-size="12.00000000" font-family="Roboto" x="668.91998291" y="609.00000000" style="stroke:rgb(0.00000000,0.00000000,0.00000000);stroke-width:0.17500000;fill:rgb(0.00000000,0.00000000,0.00000000);opacity:1.00000000;" transform="rotate(-0.00000000,668.91998291,609.00000000)">7.0</text>
<line x1="771.20001221" y1="585.00000000" x2="771.20001221" y2="591.00000000" style="stroke:rgb(0.00000000,0.00000000,0.00000000);stroke-width:2.00000000;opacity:1.00000000;stroke-linecap:butt" />
<text font-size="12.00000000" font-family="Roboto" x="752.82000732" y="609.00000000" style="stroke:rgb(0.00000000,0.00000000,0.00000000);stroke-width:0.17500000;fill:rgb(0.00000000,0.00000000,0.00000000);opacity:1.00000000;" transform="rotate(-0.00000000,752.82000732,609.00000000)">8.0</text>
<line x1="855.10003662" y1="585.00000000" x2="855.10003662" y2="591.00000000" style="stroke:rgb(0.00000000,0.00000000,0.00000000);stroke-width:2.00000000;opacity:1.00000000;stroke-linecap:butt" />
<text font-size="12.00000000" font-family="Roboto" x="836.72003174" y="609.00000000" style="stroke:rgb(0.00000000,0.00000000,0.00000000);stroke-width:0.17500000;fill:rgb(0.00000000,0.00000000,0.00000000);opacity:1.00000000;" transform="rotate(-0.00000000,836.72003174,609.00000000)">9.0</text>
<line x1="939.00000000" y1="585.00000000" x2="939.00000000" y2="591.00000000" style="stroke:rgb(0.00000000,0.00000000,0.00000000);stroke-width:2.00000000;opacity:1.00000000;stroke-linecap:butt" />
<text font-size="12.00000000" font-family="Roboto" x="918.94000244" y="609.00000000" style="stroke:rgb(0.00000000,0.00000000,0.00000000);stroke-width:0.17500000;fill:rgb(0.00000000,0.00000000,0.00000000);opacity:1.00000000;" transform="rotate(-0.00000000,918.94000244,609.00000000)">10.0</text>
<line x1="87.00000000" y1="583.00000000" x2="93.00000000" y2="583.00000000" style="stroke:rgb(0.00000000,0.00000000,0.00000000);stroke-width:2.00000000;opacity:1.00000000;stroke-linecap:butt" />
<text font-size="12.00000000" font-family="Roboto" x="46.24000168" y="589.00000000" style="stroke:rgb(0.00000000,0.00000000,0.00000000);stroke-width:0.17500000;fill:rgb(0.00000000,0.00000000,0.00000000);opacity:1.00000000;" transform="rotate(-0.00000000,46.24000168,589.00000000)">0.0</text>
<line x1="87.00000000" y1="273.84414673" x2="93.00000000" y2="273.84414673" style="stroke:rgb(0.00000000,0.00000000,0.00000000);stroke-width:2.00000000;opacity:1.00000000;stroke-linecap:butt" />
<text font-size="12.00000000" font-family="Roboto" x="43.00000000" y="279.84414673" style="stroke:rgb(0.00000000,0.00000000,0.00000000);stroke-width:0.17500000;fill:rgb(0.00000000,0.00000000,0.00000000);opacity:1.00000000;" transform="rotate(-0.00000000,43.00000000,279.84414673)">100.0</text>
<polyline points="142.00000000,113.08306885 163.00000000,113.08306885 163.00000000,113.08306885 184.00000000,113.08306885 184.00000000,113.08306885 205.00000000,113.08306885 205.00000000,113.08306885 226.00000000,113.08306885 226.00000000,106.89996338 247.00000000,106.89996338 247.00000000,113.08306885 268.00000000,113.08306885 268.00000000,113.08306885 289.00000000,113.08306885 289.00000000,113.08306885 310.00000000,113.08306885 310.00000000,113.08306885 331.00000000,113.08306885 331.00000000,113.08306885 352.00000000,113.08306885 352.00000000,109.99151611 373.00000000,109.99151611 373.00000000,113.08306885 394.00000000,113.08306885 394.00000000,113.08306885 415.00000000,113.08306885 415.00000000,113.08306885 436.00000000,113.08306885 436.00000000,113.08306885 457.00000000,113.08306885 457.00000000,113.08306885 478.00000000,113.08306885 478.00000000,109.99151611 499.00000000,109.99151611 499.00000000,113.08306885 520.00000000,113.08306885 520.00000000,113.08312988 541.00000000,113.08312988 541.00000000,113.08312988 562.00000000,113.08312988 562.00000000,113.08312988 583.00000000,113.08312988 583.00000000,113.08306885 604.00000000,113.08306885" style="stroke:rgb(137.70001221,0.00000000,0.00000000);stroke-width:2.00000000;opacity:1.00000000;stroke-linecap:butt;fill:none;" />
<polyline points="100.00000000,215.10452271 100.00000000,106.89996338 121.00000000,106.89996338 121.00000000,113.08306885 142.00000000,113.08306885 142.00000000,128.54089355 163.00000000,128.54089355 163.00000000,150.18176270 184.00000000,150.18176270 184.00000000,174.91424561" style="stroke:rgb(127.50000000,0.00000000,127.50000000);stroke-width:2.00000000;opacity:1.00000000;stroke-linecap:butt;fill:none;" />
<polyline points="184.00000000,174.91424561 205.00000000,174.91424561 205.00000000,181.09735107" style="stroke:rgb(127.50000000,0.00000000,127.50000000);stroke-width:2.00000000;opacity:1.00000000;stroke-linecap:butt;fill:none;" />
<polyline points="268.00000000,292.39346313 289.00000000,292.39346313 289.00000000,301.66815186" style="stroke:rgb(127.50000000,0.00000000,127.50000000);stroke-width:2.00000000;opacity:1.00000000;stroke-linecap:butt;fill:none;" />
<polyline points="289.00000000,317.12594604 310.00000000,317.12594604 310.00000000,338.76684570 331.00000000,338.76684570 331.00000000,348.04153442 352.00000000,348.04153442 352.00000000,348.04153442 373.00000000,348.04153442 373.00000000,348.04153442 394.00000000,348.04153442 394.00000000,341.85842896 415.00000000,341.85842896 415.00000000,323.30908203 436.00000000,323.30908203 436.00000000,298.57659912 457.00000000,298.57659912 457.00000000,273.84411621 478.00000000,273.84411621 478.00000000,239.83697510 499.00000000,239.83697510 499.00000000,212.01293945 520.00000000,212.01293945 520.00000000,181.09738159 541.00000000,181.09738159 541.00000000,156.36492920 562.00000000,156.36492920 562.00000000,131.63244629 583.00000000,131.63244629 583.00000000,116.17462158 604.00000000,116.17462158 604.00000000,113.08306885 625.00000000,113.08306885 625.00000000,249.11166382" style="stroke:rgb(127.50000000,0.00000000,127.50000000);stroke-width:2.00000000;opacity:1.00000000;stroke-linecap:butt;fill:none;" />
<polyline points="100.00000000,453.15454102 100.00000000,215.10452271 121.00000000,215.10452271 121.00000000,187.28048706 142.00000000,187.28048706 142.00000000,178.00579834 163.00000000,178.00579834 163.00000000,174.91424561 184.00000000,174.91424561 184.00000000,181.09735107 205.00000000,181.09735107 205.00000000,202.73828125 226.00000000,202.73828125 226.00000000,230.56231689 247.00000000,230.56231689 247.00000000,264.56945801 268.00000000,264.56945801 268.00000000,301.66815186 289.00000000,301.66815186 289.00000000,348.04153442 310.00000000,348.04153442 310.00000000,378.95712280" style="stroke:rgb(255.00000000,164.98500061,0.00000000);stroke-width:2.00000000;opacity:1.00000000;stroke-linecap:butt;fill:none;" />
<polyline points="310.00000000,394.41491699 331.00000000,394.41491699 331.00000000,403.68957520" style="stroke:rgb(255.00000000,164.98500061,0.00000000);stroke-width:2.00000000;opacity:1.00000000;stroke-linecap:butt;fill:none;" />
<polyline points="394.00000000,514.98571777 415.00000000,514.98571777 415.00000000,521.16882324 436.00000000,521.16882324 436.00000000,518.07727051 457.00000000,518.07727051 457.00000000,508.80258179 478.00000000,508.80258179 478.00000000,477.88699341 499.00000000,477.88699341 499.00000000,446.97143555 520.00000000,446.97143555 520.00000000,412.96429443 541.00000000,412.96429443 541.00000000,372.77401733 562.00000000,372.77401733 562.00000000,323.30908203 583.00000000,323.30908203 583.00000000,283.11880493 604.00000000,283.11880493 604.00000000,249.11166382 625.00000000,249.11166382 625.00000000,484.07012939" style="stroke:rgb(255.00000000,164.98500061,0.00000000);stroke-width:2.00000000;opacity:1.00000000;stroke-linecap:butt;fill:none;" />
<polyline points="100.00000000,583.00000000 100.00000000,453.15454102 121.00000000,453.15454102 121.00000000,422.23895264 142.00000000,422.23895264 142.00000000,397.50646973 163.00000000,397.50646973 163.00000000,372.77398682 184.00000000,372.77398682 184.00000000,354.22467041 205.00000000,354.22467041 205.00000000,348.04153442 226.00000000,348.04153442 226.00000000,344.94998169 247.00000000,344.94998169 247.00000000,348.04153442 268.00000000,348.04153442 268.00000000,357.31622314 289.00000000,357.31622314 289.00000000,378.95712280 310.00000000,378.95712280 310.00000000,403.68957520 331.00000000,403.68957520 331.00000000,431.51361084 352.00000000,431.51361084 352.00000000,459.33764648 373.00000000,459.33764648 373.00000000,493.34478760 394.00000000,493.34478760 394.00000000,521.16882324 415.00000000,521.16882324 415.00000000,545.90130615 436.00000000,545.90130615 436.00000000,567.54223633 457.00000000,567.54223633 457.00000000,583.00000000" style="stroke:rgb(0.00000000,0.00000000,255.00000000);stroke-width:2.00000000;opacity:1.00000000;stroke-linecap:butt;fill:none;" />
<polyline points="520.00000000,583.00000000 520.00000000,579.90844727 541.00000000,579.90844727 541.00000000,564.45062256 562.00000000,564.45062256 562.00000000,539.71820068 583.00000000,539.71820068 583.00000000,514.98571777 604.00000000,514.98571777 604.00000000,484.07012939 625.00000000,484.07012939 625.00000000,583.00000000" style="stroke:rgb(0.00000000,0.00000000,255.00000000);stroke-width:2.00000000;opacity:1.00000000;stroke-linecap:butt;fill:none;" />
<text font-size="20.00000000" font-family="Roboto" x="405.00000000" y="36.00000000" style="stroke:rgb(0.00000000,0.00000000,0.00000000);stroke-width:0.30000001;fill:rgb(0.00000000,0.00000000,0.00000000);opacity:1.00000000;" transform="rotate(-0.00000000,405.00000000,36.00000000)">HISTOGRAM MULTI STACKED STEP</text>
<text font-size="15.00000000" font-family="Roboto" x="504.22500610" y="646.00000000" style="stroke:rgb(0.00000000,0.00000000,0.00000000);stroke-width:0.30000001;fill:rgb(0.00000000,0.00000000,0.00000000);opacity:1.00000000;" transform="rotate(-0.00000000,504.22500610,646.00000000)">X</text>
<text font-size="15.00000000" font-family="Roboto" x="31.00000000" y="357.32501221" style="stroke:rgb(0.00000000,0.00000000,0.00000000);stroke-width:0.30000001;fill:rgb(0.00000000,0.00000000,0.00000000);opacity:1.00000000;" transform="rotate(-90.00000000,31.00000000,357.32501221)">Frequency</text>
<rect x="115.00000000" y="74.00000000" width="78.59999847" height="90.00000000" style="fill:rgb(255.00000000,255.00000000,255.00000000);stroke-width:2.00000000;stroke:rgb(0.00000000,0.00000000,0.00000000);opacity:0.69999999" />
<rect x="125.00000000" y="84.00000000" width="10.00000000" height="10.00000000" style="fill:rgb(0.00000000,0.00000000,255.00000000);stroke-width:0;stroke:rgb(0,0,0);opacity:1.00000000" />
<text font-size="10.00000000" font-family="Roboto" x="145.00000000" y="94.00000000" style="stroke:rgb(0.00000000,0.00000000,0.00000000);stroke-width:0.30000001;fill:rgb(0.00000000,0.00000000,0.00000000);opacity:1.00000000;" transform="rotate(-0.00000000,145.00000000,94.00000000)">Plot 1</text>
<rect x="125.00000000" y="104.00000000" width="10.00000000" height="10.00000000" style="fill:rgb(255.00000000,164.98500061,0.00000000);stroke-width:0;stroke:rgb(0,0,0);opacity:1.00000000" />
<text font-size="10.00000000" font-family="Roboto" x="145.00000000" y="114.00000000" style="stroke:rgb(0.00000000,0.00000000,0.00000000);stroke-width:0.30000001;fill:rgb(0.00000000,0.00000000,0.00000000);opacity:1.00000000;" transform="rotate(-0.00000000,145.00000000,114.00000000)">Plot 2</text>
<rect x="125.00000000" y="124.00000000" width="10.00000000" height="10.00000000" style="fill:rgb(127.50000000,0.00000000,127.50000000);stroke-width:0;stroke:rgb(0,0,0);opacity:1.00000000" />
<text font-size="10.00000000" font-family="Roboto" x="145.00000000" y="134.00000000" style="stroke:rgb(0.00000000,0.00000000,0.00000000);stroke-width:0.30000001;fill:rgb(0.00000000,0.00000000,0.00000000);opacity:1.00000000;" transform="rotate(-0.00000000,145.00000000,134.00000000)">Plot 3</text>
<rect x="125.00000000" y="144.00000000" width="10.00000000" height="10.00000000" style="fill:rgb(137.70001221,0.00000000,0.00000000);stroke-width:0;stroke:rgb(0,0,0);opacity:1.00000000" />
<text font-size="10.00000000" font-family="Roboto" x="145.00000000" y="154.00000000" style="stroke:rgb(0.00000000,0.00000000,0.00000000);stroke-width:0.30000001;fill:rgb(0.00000000,0.00000000,0.00000000);opacity:1.00000000;" transform="rotate(-0.00000000,145.00000000,154.00000000)">Plot 3</text>
</svg>