<svg height="660.00000000" width="1000.00000000" version="4.0" xmlns="http://www.w3.org/2000/svg" xmlns:xlink= "http://www.w3.org/1999/xlink">
<rect width="100%" height="100%" fill="white"/>
<defs><style>@import url("https://fonts.googleapis.com/css?family=Roboto");</style></defs>
<rect x="0.00000000" y="0.00000000" width="1000.00000000" height="660.00000000" style="fill:rgb(255.00000000,255.00000000,255.00000000);stroke-width:0;stroke:rgb(0,0,0);opacity:1.00000000" />
<line x1="519.50000000" y1="583.00000000" x2="519.50000000" y2="54.00000000" style="stroke:rgb(127.50000000,127.50000000,127.50000000);stroke-width:0.50000000;opacity:1.00000000;stroke-linecap:butt" />
<line x1="595.91003418" y1="583.00000000" x2="595.91003418" y2="54.00000000" style="stroke:rgb(127.50000000,127.50000000,127.50000000);stroke-width:0.50000000;opacity:1.00000000;stroke-linecap:butt" />
<line x1="672.32000732" y1="583.00000000" x2="672.32000732" y2="54.00000000" style="stroke:rgb(127.50000000,127.50000000,127.50000000);stroke-width:0.50000000;opacity:1.00000000;stroke-linecap:butt" />
<line x1="748.72998047" y1="583.00000000" x2="748.72998047" y2="54.00000000" style="stroke:rgb(127.50000000,127.50000000,127.50000000);stroke-width:0.50000000;opacity:1.00000000;stroke-linecap:butt" />
<line x1="825.14001465" y1="583.00000000" x2="825.14001465" y2="54.00000000" style="stroke:rgb(127.50000000,127.50000000,127.50000000);stroke-width:0.50000000;opacity:1.00000000;stroke-linecap:butt" />
<line x1="901.55004883" y1="583.00000000" x2="901.55004883" y2="54.00000000" style="stroke:rgb(127.50000000,127.50000000,127.50000000);stroke-width:0.50000000;opacity:1.00000000;stroke-linecap:butt" />
<line x1="443.08999634" y1="583.00000000" x2="443.08999634" y2="54.00000000" style="stroke:rgb(127.50000000,127.50000000,127.50000000);stroke-width:0.50000000;opacity:1.00000000;stroke-linecap:butt" />
<line x1="366.67999268" y1="583.00000000" x2="366.67999268" y2="54.00000000" style="stroke:rgb(127.50000000,127.50000000,127.50000000);stroke-width:0.50000000;opacity:1.00000000;stroke-linecap:butt" />
<line x1="290.26998901" y1="583.00000000" x2="290.26998901" y2="54.00000000" style="stroke:rgb(127.50000000,127.50000000,127.50000000);stroke-width:0.50000000;opacity:1.00000000;stroke-linecap:butt" />
<line x1="213.85998535" y1="583.00000000" x2="213.85998535" y2="54.00000000" style="stroke:rgb(127.50000000,127.50000000,127.50000000);stroke-width:0.50000000;opacity:1.00000000;stroke-linecap:butt" />
<line x1="137.44998169" y1="583.00000000" x2="137.44998169" y2="54.00000000" style="stroke:rgb(127.50000000,127.50000000,127.50000000);stroke-width:0.50000000;opacity:1.00000000;stroke-linecap:butt" />
<line x1="95.00000000" y1="318.50000000" x2="944.00000000" y2="318.50000000" style="stroke:rgb(127.50000000,127.50000000,127.50000000);stroke-width:0.50000000;opacity:1.00000000;stroke-linecap:butt" />
<line x1="95.00000000" y1="258.98645020" x2="944.00000000" y2="258.98645020" style="stroke:rgb(127.50000000,127.50000000,127.50000000);stroke-width:0.50000000;opacity:1.00000000;stroke-linecap:butt" />
<line x1="95.00000000" y1="199.47290039" x2="944.00000000" y2="199.47290039" style="stroke:rgb(127.50000000,127.50000000,127.50000000);stroke-width:0.50000000;opacity:1.00000000;stroke-linecap:butt" />
<line x1="95.00000000" y1="139.95935059" x2="944.00000000" y2="139.95935059" style="stroke:rgb(127.50000000,127.50000000,127.50000000);stroke-width:0.50000000;opacity:1.00000000;stroke-linecap:butt" />
<line x1="95.00000000" y1="80.44580078" x2="944.00000000" y2="80.44580078" style="stroke:rgb(127.50000000,127.50000000,127.50000000);stroke-width:0.50000000;opacity:1.00000000;stroke-linecap:butt" />
<line x1="95.00000000" y1="378.01354980" x2="944.00000000" y2="378.01354980" style="stroke:rgb(127.50000000,127.50000000,127.50000000);stroke-width:0.50000000;opacity:1.00000000;stroke-linecap:butt" />
<line x1="95.00000000" y1="437.52709961" x2="944.00000000" y2="437.52709961" style="stroke:rgb(127.50000000,127.50000000,127.50000000);stroke-width:0.50000000;opacity:1.00000000;stroke-linecap:butt" />
<line x1="95.00000000" y1="497.04064941" x2="944.00000000" y2="497.04064941" style="stroke:rgb(127.50000000,127.50000000,127.50000000);stroke-width:0.50000000;opacity:1.00000000;stroke-linecap:butt" />
<line x1="95.00000000" y1="556.55419922" x2="944.00000000" y2="556.55419922" style="stroke:rgb(127.50000000,127.50000000,127.50000000);stroke-width:0.50000000;opacity:1.00000000;stroke-linecap:butt" />
<rect x="94.00000000" y="53.00000000" width="851.00000000" height="531.00000000" style="fill:rgb(255,255,255);stroke-width:2.00000000;stroke:rgb(0.00000000,0.00000000,0.00000000);opacity:1;fill-opacity:0;" />
<line x1="519.50000000" y1="585.00000000" x2="519.50000000" y2="591.00000000" style="stroke:rgb(0.00000000,0.00000000,0.00000000);stroke-width:2.00000000;opacity:1.00000000;stroke-linecap:butt" />
<text font-size="12.00000000" font-family="Roboto" x="501.11999512" y="609.00000000" style="stroke:rgb(0.00000000,0.00000000,0.00000000);stroke-width:0.17500000;fill:rgb(0.00000000,0.00000000,0.00000000);opacity:1.00000000;" transform="rotate(-0.00000000,501.11999512,609.00000000)">0.0</text>
<line x1="595.91003418" y1="585.00000000" x2="595.91003418" y2="591.00000000" style="stroke:rgb(0.00000000,0.00000000,0.00000000);stroke-width:2.00000000;opacity:1.00000000;stroke-linecap:butt" />
<text font-size="12.00000000" font-family="Roboto" x="578.01000977" y="609.00000000" style="stroke:rgb(0.00000000,0.00000000,0.00000000);stroke-width:0.17500000;fill:rgb(0.00000000,0.00000000,0.00000000);opacity:1.00000000;" transform="rotate(-0.00000000,578.01000977,609.00000000)">1.0</text>
<line x1="672.32000732" y1="585.00000000" x2="672.32000732" y2="591.00000000" style="stroke:rgb(0.00000000,0.00000000,0.00000000);stroke-width:2.00000000;opacity:1.00000000;stroke-linecap:butt" />
<text font-size="12.00000000" font-family="Roboto" x="653.94000244" y="609.00000000" style="stroke:rgb(0.00000000,0.00000000,0.00000000);stroke-width:0.17500000;fill:rgb(0.00000000,0.00000000,0.00000000);opacity:1.00000000;" transform="rotate(-0.00000000,653.94000244,609.00000000)">2.0</text>
<line x1="748.72998047" y1="585.00000000" x2="748.72998047" y2="591.00000000" style="stroke:rgb(0.00000000,0.00000000,0.00000000);stroke-width:2.00000000;opacity:1.00000000;stroke-linecap:butt" />
<text font-size="12.00000000" font-family="Roboto" x="730.34997559" y="609.00000000" style="stroke:rgb(0.00000000,0.00000000,0.00000000);stroke-width:0.17500000;fill:rgb(0.00000000,0.00000000,0.00000000);opacity:1.00000000;" transform="rotate(-0.00000000,730.34997559,609.00000000)">3.0</text>
<line x1="825.14001465" y1="585.00000000" x2="825.14001465" y2="591.00000000" style="stroke:rgb(0.00000000,0.00000000,0.00000000);stroke-width:2.00000000;opacity:1.00000000;stroke-linecap:butt" />
<text font-size="12.00000000" font-family="Roboto" x="806.76000977" y="609.00000000" style="stroke:rgb(0.00000000,0.00000000,0.00000000);stroke-width:0.17500000;fill:rgb(0.00000000,0.00000000,0.00000000);opacity:1.00000000;" transform="rotate(-0.00000000,806.76000977,609.00000000)">4.0</text>
<line x1="901.55004883" y1="585.00000000" x2="901.55004883" y2="591.00000000" style="stroke:rgb(0.00000000,0.00000000,0.00000000);stroke-width:2.00000000;opacity:1.00000000;stroke-linecap:butt" />
<text font-size="12.00000000" font-family="Roboto" x="883.17004395" y="609.00000000" style="stroke:rgb(0.00000000,0.00000000,0.00000000);stroke-width:0.17500000;fill:rgb(0.00000000,0.00000000,0.00000000);opacity:1.00000000;" transform="rotate(-0.00000000,883.17004395,609.00000000)">5.0</text>
<line x1="443.08999634" y1="585.00000000" x2="443.08999634" y2="591.00000000" style="stroke:rgb(0.00000000,0.00000000,0.00000000);stroke-width:2.00000000;opacity:1.00000000;stroke-linecap:butt" />
<text font-size="12.00000000" font-family="Roboto" x="423.14999390" y="609.00000000" style="stroke:rgb(0.00000000,0.00000000,0.00000000);stroke-width:0.17500000;fill:rgb(0.00000000,0.00000000,0.00000000);opacity:1.00000000;" transform="rotate(-0.00000000,423.14999390,609.00000000)">-1.0</text>
<line x1="366.67999268" y1="585.00000000" x2="366.67999268" y2="591.00000000" style="stroke:rgb(0.00000000,0.00000000,0.00000000);stroke-width:2.00000000;opacity:1.00000000;stroke-linecap:butt" />
<text font-size="12.00000000" font-family="Roboto" x="346.26000977" y="609.00000000" style="stroke:rgb(0.00000000,0.00000000,0.00000000);stroke-width:0.17500000;fill:rgb(0.00000000,0.00000000,0.00000000);opacity:1.00000000;" transform="rotate(-0.00000000,346.26000977,609.00000000)">-2.0</text>
<line x1="290.26998901" y1="585.00000000" x2="290.26998901" y2="591.00000000" style="stroke:rgb(0.00000000,0.00000000,0.00000000);stroke-width:2.00000000;opacity:1.00000000;stroke-linecap:butt" />
<text font-size="12.00000000" font-family="Roboto" x="269.84997559" y="609.00000000" style="stroke:rgb(0.00000000,0.00000000,0.00000000);stroke-width:0.17500000;fill:rgb(0.00000000,0.00000000,0.00000000);opacity:1.00000000;" transform="rotate(-0.00000000,269.84997559,609.00000000)">-3.0</text>
<line x1="213.85998535" y1="585.00000000" x2="213.85998535" y2="591.00000000" style="stroke:rgb(0.00000000,0.00000000,0.00000000);stroke-width:2.00000000;opacity:1.00000000;stroke-linecap:butt" />
<text font-size="12.00000000" font-family="Roboto" x="193.43998718" y="609.00000000" style="stroke:rgb(0.00000000,0.00000000,0.00000000);stroke-width:0.17500000;fill:rgb(0.00000000,0.00000000,0.00000000);opacity:1.00000000;" transform="rotate(-0.00000000,193.43998718,609.00000000)">-4.0</text>
<line x1="137.44998169" y1="585.00000000" x2="137.44998169" y2="591.00000000" style="stroke:rgb(0.00000000,0.00000000,0.00000000);stroke-width:2.00000000;opacity:1.00000000;stroke-linecap:butt" />
<text font-size="12.00000000" font-family="Roboto" x="117.02998352" y="609.00000000" style="stroke:rgb(0.00000000,0.00000000,0.00000000);stroke-width:0.17500000;fill:rgb(0.00000000,0.00000000,0.00000000);opacity:1.00000000;" transform="rotate(-0.00000000,117.02998352,609.00000000)">-5.0</text>
<line x1="87.00000000" y1="318.50000000" x2="93.00000000" y2="318.50000000" style="stroke:rgb(0.00000000,0.00000000,0.00000000);stroke-width:2.00000000;opacity:1.00000000;stroke-linecap:butt" />
<text font-size="12.00000000" font-family="Roboto" x="46.24000168" y="324.50000000" style="stroke:rgb(0.00000000,0.00000000,0.00000000);stroke-width:0.17500000;fill:rgb(0.00000000,0.00000000,0.00000000);opacity:1.00000000;" transform="rotate(-0.00000000,46.24000168,324.50000000)">0.0</text>
<line x1="87.00000000" y1="258.98645020" x2="93.00000000" y2="258.98645020" style="stroke:rgb(0.00000000,0.00000000,0.00000000);stroke-width:2.00000000;opacity:1.00000000;stroke-linecap:butt" />
<text font-size="12.00000000" font-family="Roboto" x="43.00000000" y="264.98645020" style="stroke:rgb(0.00000000,0.00000000,0.00000000);stroke-width:0.17500000;fill:rgb(0.00000000,0.00000000,0.00000000);opacity:1.00000000;" transform="rotate(-0.00000000,43.00000000,264.98645020)">0.25</text>
<line x1="87.00000000" y1="199.47290039" x2="93.00000000" y2="199.47290039" style="stroke:rgb(0.00000000,0.00000000,0.00000000);stroke-width:2.00000000;opacity:1.00000000;stroke-linecap:butt" />
<text font-size="12.00000000" font-family="Roboto" x="46.24000168" y="205.47290039" style="stroke:rgb(0.00000000,0.00000000,0.00000000);stroke-width:0.17500000;fill:rgb(0.00000000,0.00000000,0.00000000);opacity:1.00000000;" transform="rotate(-0.00000000,46.24000168,205.47290039)">0.5</text>
<line x1="87.00000000" y1="139.95935059" x2="93.00000000" y2="139.95935059" style="stroke:rgb(0.00000000,0.00000000,0.00000000);stroke-width:2.00000000;opacity:1.00000000;stroke-linecap:butt" />
<text font-size="12.00000000" font-family="Roboto" x="43.00000000" y="145.95935059" style="stroke:rgb(0.00000000,0.00000000,0.00000000);stroke-width:0.17500000;fill:rgb(0.00000000,0.00000000,0.00000000);opacity:1.00000000;" transform="rotate(-0.00000000,43.00000000,145.95935059)">0.75</text>
<line x1="87.00000000" y1="80.44580078" x2="93.00000000" y2="80.44580078" style="stroke:rgb(0.00000000,0.00000000,0.00000000);stroke-width:2.00000000;opacity:1.00000000;stroke-linecap:butt" />
<text font-size="12.00000000" font-family="Roboto" x="47.20000076" y="86.44580078" style="stroke:rgb(0.00000000,0.00000000,0.00000000);stroke-width:0.17500000;fill:rgb(0.00000000,0.00000000,0.00000000);opacity:1.00000000;" transform="rotate(-0.00000000,47.20000076,86.44580078)">1.0</text>
<line x1="87.00000000" y1="378.01354980" x2="93.00000000" y2="378.01354980" style="stroke:rgb(0.00000000,0.00000000,0.00000000);stroke-width:2.00000000;opacity:1.00000000;stroke-linecap:butt" />
<text font-size="12.00000000" font-family="Roboto" x="43.00000000" y="384.01354980" style="stroke:rgb(0.00000000,0.00000000,0.00000000);stroke-width:0.17500000;fill:rgb(0.00000000,0.00000000,0.00000000);opacity:1.00000000;" transform="rotate(-0.00000000,43.00000000,384.01354980)">-0.25</text>
<line x1="87.00000000" y1="437.52709961" x2="93.00000000" y2="437.52709961" style="stroke:rgb(0.00000000,0.00000000,0.00000000);stroke-width:2.00000000;opacity:1.00000000;stroke-linecap:butt" />
<text font-size="12.00000000" font-family="Roboto" x="43.00000000" y="443.52709961" style="stroke:rgb(0.00000000,0.00000000,0.00000000);stroke-width:0.17500000;fill:rgb(0.00000000,0.00000000,0.00000000);opacity:1.00000000;" transform="rotate(-0.00000000,43.00000000,443.52709961)">-0.5</text>
<line x1="87.00000000" y1="497.04064941" x2="93.00000000" y2="497.04064941" style="stroke:rgb(0.00000000,0.00000000,0.00000000);stroke-width:2.00000000;opacity:1.00000000;stroke-linecap:butt" />
<text font-size="12.00000000" font-family="Roboto" x="43.00000000" y="503.04064941" style="stroke:rgb(0.00000000,0.00000000,0.00000000);stroke-width:0.17500000;fill:rgb(0.00000000,0.00000000,0.00000000);opacity:1.00000000;" transform="rotate(-0.00000000,43.00000000,503.04064941)">-0.75</text>
<line x1="87.00000000" y1="556.55419922" x2="93.00000000" y2="556.55419922" style="stroke:rgb(0.00000000,0.00000000,0.00000000);stroke-width:2.00000000;opacity:1.00000000;stroke-linecap:butt" />
<text font-size="12.00000000" font-family="Roboto" x="43.11999893" y="562.55419922" style="stroke:rgb(0.00000000,0.00000000,0.00000000);stroke-width:0.17500000;fill:rgb(0.00000000,0.00000000,0.00000000);opacity:1.00000000;" transform="rotate(-0.00000000,43.11999893,562.55419922)">-1.0</text>
<polyline points="137.45001221,90.22607422 139.36026001,88.60937500 141.27050781,87.13641357 143.18072510,85.80804443 145.09100342,84.62512207 147.00125122,83.58831787 148.91149902,82.69830322 150.82177734,81.95568848 152.73199463,81.36096191 154.64224243,80.91436768 156.55249023,80.61627197 158.46276855,80.46679688 160.37301636,80.46618652 162.28323364,80.61425781 164.19348145,80.91107178 166.10375977,81.35632324 168.01400757,81.94976807 169.92425537,82.69110107 171.83447266,83.57971191 173.74475098,84.61523438 175.65499878,85.79687500 177.56524658,87.12402344 179.47552490,88.59570312 181.38574219,90.21105957 183.29598999,91.96911621 185.20623779,93.86877441 187.11651611,95.90881348 189.02676392,98.08789062 190.93698120,100.40478516 192.84722900,102.85791016 194.75750732,105.44592285 196.66775513,108.16699219 198.57800293,111.01959229 200.48822021,114.00177002 202.39849854,117.11181641 204.30874634,120.34771729 206.21899414,123.70739746 208.12927246,127.18890381 210.03948975,130.78991699 211.94973755,134.50823975 213.85998535,138.34155273 215.77026367,142.28753662 217.68048096,146.34350586 219.59075928,150.50720215 221.50100708,154.77581787 223.41125488,159.14678955 225.32150269,163.61734009 227.23175049,168.18466187 229.14199829,172.84594727 231.05224609,177.59826660 232.96249390,182.43862915 234.87274170,187.36407471 236.78298950,192.37139893 238.69326782,197.45758057 240.60348511,202.61938477 242.51376343,207.85366821 244.42401123,213.15710449 246.33425903,218.52630615 248.24450684,223.95806885 250.15475464,229.44885254 252.06500244,234.99530029 253.97525024,240.59399414 255.88549805,246.24130249 257.79574585,251.93380737 259.70599365,257.66787720 261.61624146,263.44003296 263.52648926,269.24658203 265.43676758,275.08386230 267.34698486,280.94830322 269.25726318,286.83624268 271.16748047,292.74392700 273.07775879,298.66775513 274.98797607,304.60391235 276.89825439,310.54879761 278.80853271,316.49865723 280.71875000,322.44973755 282.62902832,328.39837646 284.53924561,334.34078979 286.44952393,340.27337646 288.35974121,346.19232178 290.27001953,352.09390259 292.18023682,357.97454834 294.09051514,363.83050537 296.00073242,369.65814209 297.91101074,375.45385742 299.82122803,381.21386719 301.73150635,386.93475342 303.64172363,392.61282349 305.55200195,398.24462891 307.46228027,403.82659912 309.37249756,409.35519409 311.28277588,414.82705688 313.19299316,420.23867798 315.10327148,425.58673096 317.01348877,430.86788940 318.92376709,436.07876587 320.83398438,441.21618652 322.74426270,446.27688599 324.65451050,451.25778198 326.56475830,456.15570068 328.47500610,460.96752930 330.38525391,465.69039917 332.29550171,470.32122803 334.20574951,474.85717773 336.11602783,479.29544067 338.02624512,483.63317871 339.93652344,487.86773682 341.84674072,491.99639893 343.75701904,496.01669312 345.66726685,499.92602539 347.57751465,503.72195435 349.48776245,507.40216064 351.39801025,510.96423340 353.30825806,514.40612793 355.21850586,517.72552490 357.12875366,520.92041016 359.03900146,523.98883057 360.94924927,526.92877197 362.85949707,529.73846436 364.76977539,532.41613770 366.67999268,534.96014404 368.59027100,537.36889648 370.50048828,539.64080811 372.41076660,541.77453613 374.32098389,543.76873779 376.23126221,545.62213135 378.14151001,547.33355713 380.05175781,548.90203857 381.96200562,550.32647705 383.87225342,551.60601807 385.78250122,552.73992920 387.69274902,553.72741699 389.60302734,554.56787109 391.51324463,555.26086426 393.42349243,555.80578613 395.33374023,556.20245361 397.24401855,556.45056152 399.15426636,556.54998779 401.06451416,556.50061035 402.97476196,556.30249023 404.88500977,555.95574951 406.79525757,555.46063232 408.70550537,554.81738281 410.61575317,554.02648926 412.52600098,553.08837891 414.43624878,552.00366211 416.34649658,550.77294922 418.25674438,549.39715576 420.16699219,547.87707520 422.07727051,546.21356201 423.98748779,544.40777588 425.89776611,542.46081543 427.80801392,540.37384033 429.71826172,538.14825439 431.62850952,535.78540039 433.53875732,533.28668213 435.44900513,530.65380859 437.35925293,527.88824463 439.26950073,524.99188232 441.17974854,521.96649170 443.08999634,518.81390381 445.00024414,515.53613281 446.91052246,512.13525391 448.82073975,508.61334229 450.73101807,504.97259521 452.64123535,501.21533203 454.55151367,497.34387207 456.46176147,493.36062622 458.37200928,489.26812744 460.28225708,485.06884766 462.19250488,480.76550293 464.10275269,476.36077881 466.01300049,471.85736084 467.92324829,467.25811768 469.83349609,462.56585693 471.74374390,457.78363037 473.65399170,452.91430664 475.56427002,447.96099854 477.47448730,442.92678833 479.38476562,437.81478882 481.29501343,432.62823486 483.20526123,427.37036133 485.11550903,422.04443359 487.02575684,416.65380859 488.93600464,411.20184326 490.84625244,405.69192505 492.75650024,400.12753296 494.66674805,394.51211548 496.57699585,388.84918213 498.48724365,383.14230347 500.39749146,377.39501953 502.30773926,371.61090088 504.21801758,365.79364014 506.12826538,359.94677734 508.03851318,354.07403564 509.94876099,348.17907715 511.85900879,342.26553345 513.76928711,336.33715820 515.67950439,330.39764404 517.58972168,324.45065308 519.50000000,318.49996948 521.41027832,312.54928589 523.32049561,306.60232544 525.23071289,300.66281128 527.14099121,294.73443604 529.05126953,288.82089233 530.96154785,282.92590332 532.87176514,277.05316162 534.78198242,271.20632935 536.69226074,265.38903809 538.60253906,259.60494995 540.51275635,253.85766602 542.42297363,248.15078735 544.33325195,242.48785400 546.24353027,236.87243652 548.15374756,231.30804443 550.06396484,225.79812622 551.97424316,220.34616089 553.88452148,214.95553589 555.79479980,209.62960815 557.70501709,204.37173462 559.61523438,199.18518066 561.52551270,194.07318115 563.43579102,189.03897095 565.34600830,184.08566284 567.25622559,179.21636963 569.16650391,174.43408203 571.07678223,169.74188232 572.98699951,165.14260864 574.89721680,160.63922119 576.80749512,156.23446655 578.71777344,151.93109131 580.62799072,147.73187256 582.53826904,143.63934326 584.44848633,139.65612793 586.35876465,135.78466797 588.26904297,132.02734375 590.17926025,128.38665771 592.08947754,124.86474609 593.99975586,121.46380615 595.91003418,118.18603516 597.82025146,115.03350830 599.73046875,112.00805664 601.64074707,109.11169434 603.55102539,106.34619141 605.46124268,103.71331787 607.37152100,101.21459961 609.28173828,98.85174561 611.19201660,96.62615967 613.10229492,94.53918457 615.01251221,92.59222412 616.92272949,90.78643799 618.83300781,89.12292480 620.74328613,87.60284424 622.65350342,86.22698975 624.56378174,84.99633789 626.47399902,83.91162109 628.38427734,82.97351074 630.29449463,82.18261719 632.20477295,81.53936768 634.11499023,81.04425049 636.02526855,80.69750977 637.93548584,80.49938965 639.84576416,80.45001221 641.75598145,80.54943848 643.66625977,80.79754639 645.57653809,81.19421387 647.48675537,81.73919678 649.39697266,82.43212891 651.30725098,83.27258301 653.21752930,84.26013184 655.12774658,85.39398193 657.03802490,86.67352295 658.94824219,88.09796143 660.85852051,89.66644287 662.76873779,91.37786865 664.67901611,93.23132324 666.58923340,95.22546387 668.49951172,97.35919189 670.40979004,99.63110352 672.32000732,102.03985596 674.23022461,104.58386230 676.14050293,107.26153564 678.05078125,110.07122803 679.96099854,113.01123047 681.87121582,116.07958984 683.78149414,119.27453613 685.69177246,122.59393311 687.60198975,126.03576660 689.51226807,129.59790039 691.42248535,133.27807617 693.33276367,137.07397461 695.24304199,140.98333740 697.15325928,145.00360107 699.06347656,149.13232422 700.97375488,153.36682129 702.88403320,157.70458984 704.79425049,162.14285278 706.70446777,166.67877197 708.61474609,171.30963135 710.52502441,176.03247070 712.43524170,180.84432983 714.34552002,185.74224854 716.25573730,190.72311401 718.16601562,195.78384399 720.07623291,200.92123413 721.98651123,206.13217163 723.89672852,211.41329956 725.80700684,216.76132202 727.71728516,222.17300415 729.62750244,227.64480591 731.53778076,233.17343140 733.44799805,238.75540161 735.35827637,244.38717651 737.26849365,250.06530762 739.17877197,255.78613281 741.08898926,261.54620361 742.99926758,267.34191895 744.90948486,273.16949463 746.81976318,279.02548218 748.72998047,284.90609741 750.64025879,290.80773926 752.55053711,296.72668457 754.46075439,302.65921021 756.37103271,308.60168457 758.28125000,314.55032349 760.19152832,320.50137329 762.10174561,326.45126343 764.01202393,332.39611816 765.92224121,338.33230591 767.83251953,344.25613403 769.74273682,350.16381836 771.65301514,356.05175781 773.56323242,361.91613770 775.47351074,367.75347900 777.38378906,373.56002808 779.29400635,379.33212280 781.20422363,385.06622314 783.11450195,390.75869751 785.02478027,396.40606689 786.93505859,402.00473022 788.84521484,407.55114746 790.75549316,413.04199219 792.66577148,418.47369385 794.57604980,423.84295654 796.48626709,429.14636230 798.39648438,434.38061523 800.30676270,439.54244995 802.21704102,444.62860107 804.12725830,449.63598633 806.03747559,454.56140137 807.94775391,459.40173340 809.85803223,464.15411377 811.76824951,468.81533813 813.67846680,473.38269043 815.58874512,477.85327148 817.49902344,482.22418213 819.40930176,486.49282837 821.31951904,490.65646362 823.22973633,494.71252441 825.14001465,498.65841675 827.05029297,502.49176025 828.96051025,506.21011353 830.87072754,509.81115723 832.78100586,513.29260254 834.69128418,516.65228271 836.60150146,519.88818359 838.51177979,522.99822998 840.42199707,525.98046875 842.33227539,528.83300781 844.24249268,531.55407715 846.15277100,534.14208984 848.06298828,536.59521484 849.97326660,538.91210938 851.88348389,541.09118652 853.79376221,543.13122559 855.70397949,545.03088379 857.61425781,546.78894043 859.52453613,548.40429688 861.43475342,549.87597656 863.34497070,551.20312500 865.25524902,552.38476562 867.16552734,553.42028809 869.07580566,554.30895996 870.98602295,555.05023193 872.89624023,555.64367676 874.80651855,556.08892822 876.71679688,556.38574219 878.62701416,556.53381348 880.53729248,556.53320312 882.44750977,556.38372803 884.35778809,556.08563232 886.26800537,555.63903809 888.17828369,555.04431152 890.08850098,554.30163574 891.99877930,553.41168213 893.90899658,552.37487793 895.81927490,551.19195557 897.72949219,549.86352539 899.63977051,548.39056396 901.54998779,546.77392578" style="stroke:rgb(134.89498901,206.04000854,235.11000061);stroke-width:3.00000000;opacity:1.00000000;stroke-linecap:butt;fill:none;" />
<text font-size="20.00000000" font-family="Roboto" x="476.00000000" y="36.00000000" style="stroke:rgb(0.00000000,0.00000000,0.00000000);stroke-width:0.30000001;fill:rgb(0.00000000,0.00000000,0.00000000);opacity:1.00000000;" transform="rotate(-0.00000000,476.00000000,36.00000000)">FUNCTION</text>
<text font-size="15.00000000" font-family="Roboto" x="490.95001221" y="646.00000000" style="stroke:rgb(0.00000000,0.00000000,0.00000000);stroke-width:0.30000001;fill:rgb(0.00000000,0.00000000,0.00000000);opacity:1.00000000;" transform="rotate(-0.00000000,490.95001221,646.00000000)">X-AXIS</text>
<text font-size="15.00000000" font-family="Roboto" x="31.00000000" y="347.20001221" style="stroke:rgb(0.00000000,0.00000000,0.00000000);stroke-width:0.30000001;fill:rgb(0.00000000,0.00000000,0.00000000);opacity:1.00000000;" transform="rotate(-90.00000000,31.00000000,347.20001221)">Y-AXIS</text>
<rect x="115.00000000" y="74.00000000" width="79.09999847" height="30.00000000" style="fill:rgb(255.00000000,255.00000000,255.00000000);stroke-width:2.00000000;stroke:rgb(0.00000000,0.00000000,0.00000000);opacity:0.69999999" />
<rect x="125.00000000" y="84.00000000" width="10.00000000" height="10.00000000" style="fill:rgb(134.89498901,206.04000854,235.11000061);stroke-width:0;stroke:rgb(0,0,0);opacity:1.00000000" />
<text font-size="10.00000000" font-family="Roboto" x="145.00000000" y="94.00000000" style="stroke:rgb(0.00000000,0.00000000,0.00000000);stroke-width:0.30000001;fill:rgb(0.00000000,0.00000000,0.00000000);opacity:1.00000000;" transform="rotate(-0.00000000,145.00000000,94.00000000)">sin(x)</text>
<polyline points="180.00000000,75.00000000 585.00000000,75.00000000" style="stroke:rgb(0.00000000,0.00000000,0.00000000);stroke-width:5.00000000;opacity:1.00000000;stroke-linecap:butt;fill:none;" />
<polyline points="575.60308838,78.42022705 585.00000000,75.00000000 575.60308838,71.57977295" style="stroke:rgb(0.00000000,0.00000000,0.00000000);stroke-width:5.00000000;opacity:1.00000000;stroke-linecap:butt;fill:none;" />
<polyline points="189.39692688,71.57977295 180.00000000,75.00000000 189.39692688,78.42022705" style="stroke:rgb(0.00000000,0.00000000,0.00000000);stroke-width:5.00000000;opacity:1.00000000;stroke-linecap:butt;fill:none;" />
</svg>