<svg height="400.00000000" width="400.00000000" version="4.0" xmlns="http://www.w3.org/2000/svg" xmlns:xlink= "http://www.w3.org/1999/xlink">
<rect width="100%" height="100%" fill="white"/>
<defs><style>@import url("https://fonts.googleapis.com/css?family=Roboto");</style></defs>
<rect x="0.00000000" y="0.00000000" width="400.00000000" height="400.00000000" style="fill:rgb(255.00000000,255.00000000,255.00000000);stroke-width:0;stroke:rgb(0,0,0);opacity:1.00000000" />
<line x1="219.50000000" y1="323.00000000" x2="219.50000000" y2="54.00000000" style="stroke:rgb(127.50000000,127.50000000,127.50000000);stroke-width:0.50000000;opacity:1.00000000;stroke-linecap:butt" />
<line x1="247.51249695" y1="323.00000000" x2="247.51249695" y2="54.00000000" style="stroke:rgb(127.50000000,127.50000000,127.50000000);stroke-width:0.50000000;opacity:1.00000000;stroke-linecap:butt" />
<line x1="275.52499390" y1="323.00000000" x2="275.52499390" y2="54.00000000" style="stroke:rgb(127.50000000,127.50000000,127.50000000);stroke-width:0.50000000;opacity:1.00000000;stroke-linecap:butt" />
<line x1="303.53747559" y1="323.00000000" x2="303.53747559" y2="54.00000000" style="stroke:rgb(127.50000000,127.50000000,127.50000000);stroke-width:0.50000000;opacity:1.00000000;stroke-linecap:butt" />
<line x1="331.54998779" y1="323.00000000" x2="331.54998779" y2="54.00000000" style="stroke:rgb(127.50000000,127.50000000,127.50000000);stroke-width:0.50000000;opacity:1.00000000;stroke-linecap:butt" />
<line x1="191.48750305" y1="323.00000000" x2="191.48750305" y2="54.00000000" style="stroke:rgb(127.50000000,127.50000000,127.50000000);stroke-width:0.50000000;opacity:1.00000000;stroke-linecap:butt" />
<line x1="163.47500610" y1="323.00000000" x2="163.47500610" y2="54.00000000" style="stroke:rgb(127.50000000,127.50000000,127.50000000);stroke-width:0.50000000;opacity:1.00000000;stroke-linecap:butt" />
<line x1="135.46250916" y1="323.00000000" x2="135.46250916" y2="54.00000000" style="stroke:rgb(127.50000000,127.50000000,127.50000000);stroke-width:0.50000000;opacity:1.00000000;stroke-linecap:butt" />
<line x1="107.45000458" y1="323.00000000" x2="107.45000458" y2="54.00000000" style="stroke:rgb(127.50000000,127.50000000,127.50000000);stroke-width:0.50000000;opacity:1.00000000;stroke-linecap:butt" />
<line x1="95.00000000" y1="309.54998779" x2="344.00000000" y2="309.54998779" style="stroke:rgb(127.50000000,127.50000000,127.50000000);stroke-width:0.50000000;opacity:1.00000000;stroke-linecap:butt" />
<line x1="95.00000000" y1="158.23750305" x2="344.00000000" y2="158.23750305" style="stroke:rgb(127.50000000,127.50000000,127.50000000);stroke-width:0.50000000;opacity:1.00000000;stroke-linecap:butt" />
<rect x="94.00000000" y="53.00000000" width="251.00000000" height="271.00000000" style="fill:rgb(255,255,255);stroke-width:2.00000000;stroke:rgb(0.00000000,0.00000000,0.00000000);opacity:1;fill-opacity:0;" />
<line x1="219.50000000" y1="325.00000000" x2="219.50000000" y2="331.00000000" style="stroke:rgb(0.00000000,0.00000000,0.00000000);stroke-width:2.00000000;opacity:1.00000000;stroke-linecap:butt" />
<text font-size="12.00000000" font-family="Roboto" x="201.11999512" y="349.00000000" style="stroke:rgb(0.00000000,0.00000000,0.00000000);stroke-width:0.17500000;fill:rgb(0.00000000,0.00000000,0.00000000);opacity:1.00000000;" transform="rotate(-0.00000000,201.11999512,349.00000000)">0.0</text>
<line x1="247.51249695" y1="325.00000000" x2="247.51249695" y2="331.00000000" style="stroke:rgb(0.00000000,0.00000000,0.00000000);stroke-width:2.00000000;opacity:1.00000000;stroke-linecap:butt" />
<text font-size="12.00000000" font-family="Roboto" x="229.61250305" y="349.00000000" style="stroke:rgb(0.00000000,0.00000000,0.00000000);stroke-width:0.17500000;fill:rgb(0.00000000,0.00000000,0.00000000);opacity:1.00000000;" transform="rotate(-0.00000000,229.61250305,349.00000000)">1.0</text>
<line x1="275.52499390" y1="325.00000000" x2="275.52499390" y2="331.00000000" style="stroke:rgb(0.00000000,0.00000000,0.00000000);stroke-width:2.00000000;opacity:1.00000000;stroke-linecap:butt" />
<text font-size="12.00000000" font-family="Roboto" x="257.14498901" y="349.00000000" style="stroke:rgb(0.00000000,0.00000000,0.00000000);stroke-width:0.17500000;fill:rgb(0.00000000,0.00000000,0.00000000);opacity:1.00000000;" transform="rotate(-0.00000000,257.14498901,349.00000000)">2.0</text>
<line x1="303.53747559" y1="325.00000000" x2="303.53747559" y2="331.00000000" style="stroke:rgb(0.00000000,0.00000000,0.00000000);stroke-width:2.00000000;opacity:1.00000000;stroke-linecap:butt" />
<text font-size="12.00000000" font-family="Roboto" x="285.15747070" y="349.00000000" style="stroke:rgb(0.00000000,0.00000000,0.00000000);stroke-width:0.17500000;fill:rgb(0.00000000,0.00000000,0.00000000);opacity:1.00000000;" transform="rotate(-0.00000000,285.15747070,349.00000000)">3.0</text>
<line x1="331.54998779" y1="325.00000000" x2="331.54998779" y2="331.00000000" style="stroke:rgb(0.00000000,0.00000000,0.00000000);stroke-width:2.00000000;opacity:1.00000000;stroke-linecap:butt" />
<text font-size="12.00000000" font-family="Roboto" x="313.16998291" y="349.00000000" style="stroke:rgb(0.00000000,0.00000000,0.00000000);stroke-width:0.17500000;fill:rgb(0.00000000,0.00000000,0.00000000);opacity:1.00000000;" transform="rotate(-0.00000000,313.16998291,349.00000000)">4.0</text>
<line x1="191.48750305" y1="325.00000000" x2="191.48750305" y2="331.00000000" style="stroke:rgb(0.00000000,0.00000000,0.00000000);stroke-width:2.00000000;opacity:1.00000000;stroke-linecap:butt" />
<text font-size="12.00000000" font-family="Roboto" x="171.54750061" y="349.00000000" style="stroke:rgb(0.00000000,0.00000000,0.00000000);stroke-width:0.17500000;fill:rgb(0.00000000,0.00000000,0.00000000);opacity:1.00000000;" transform="rotate(-0.00000000,171.54750061,349.00000000)">-1.0</text>
<line x1="163.47500610" y1="325.00000000" x2="163.47500610" y2="331.00000000" style="stroke:rgb(0.00000000,0.00000000,0.00000000);stroke-width:2.00000000;opacity:1.00000000;stroke-linecap:butt" />
<text font-size="12.00000000" font-family="Roboto" x="143.05500793" y="349.00000000" style="stroke:rgb(0.00000000,0.00000000,0.00000000);stroke-width:0.17500000;fill:rgb(0.00000000,0.00000000,0.00000000);opacity:1.00000000;" transform="rotate(-0.00000000,143.05500793,349.00000000)">-2.0</text>
<line x1="135.46250916" y1="325.00000000" x2="135.46250916" y2="331.00000000" style="stroke:rgb(0.00000000,0.00000000,0.00000000);stroke-width:2.00000000;opacity:1.00000000;stroke-linecap:butt" />
<text font-size="12.00000000" font-family="Roboto" x="115.04250336" y="349.00000000" style="stroke:rgb(0.00000000,0.00000000,0.00000000);stroke-width:0.17500000;fill:rgb(0.00000000,0.00000000,0.00000000);opacity:1.00000000;" transform="rotate(-0.00000000,115.04250336,349.00000000)">-3.0</text>
<line x1="107.45000458" y1="325.00000000" x2="107.45000458" y2="331.00000000" style="stroke:rgb(0.00000000,0.00000000,0.00000000);stroke-width:2.00000000;opacity:1.00000000;stroke-linecap:butt" />
<text font-size="12.00000000" font-family="Roboto" x="87.03000641" y="349.00000000" style="stroke:rgb(0.00000000,0.00000000,0.00000000);stroke-width:0.17500000;fill:rgb(0.00000000,0.00000000,0.00000000);opacity:1.00000000;" transform="rotate(-0.00000000,87.03000641,349.00000000)">-4.0</text>
<line x1="87.00000000" y1="309.54998779" x2="93.00000000" y2="309.54998779" style="stroke:rgb(0.00000000,0.00000000,0.00000000);stroke-width:2.00000000;opacity:1.00000000;stroke-linecap:butt" />
<text font-size="12.00000000" font-family="Roboto" x="43.00000000" y="315.54998779" style="stroke:rgb(0.00000000,0.00000000,0.00000000);stroke-width:0.17500000;fill:rgb(0.00000000,0.00000000,0.00000000);opacity:1.00000000;" transform="rotate(-0.00000000,43.00000000,315.54998779)">10.0</text>
<line x1="87.00000000" y1="158.23750305" x2="93.00000000" y2="158.23750305" style="stroke:rgb(0.00000000,0.00000000,0.00000000);stroke-width:2.00000000;opacity:1.00000000;stroke-linecap:butt" />
<text font-size="12.00000000" font-family="Roboto" x="43.00000000" y="164.23750305" style="stroke:rgb(0.00000000,0.00000000,0.00000000);stroke-width:0.17500000;fill:rgb(0.00000000,0.00000000,0.00000000);opacity:1.00000000;" transform="rotate(-0.00000000,43.00000000,164.23750305)">20.0</text>
<polyline points="107.44999695,67.45001221 108.01024628,69.86492920 108.57049561,72.26779175 109.13074493,74.65850830 109.69099426,77.03713989 110.25124359,79.40368652 110.81149292,81.75808716 111.37174988,84.10046387 111.93199921,86.43066406 112.49224854,88.74877930 113.05249786,91.05477905 113.61274719,93.34866333 114.17299652,95.63043213 114.73324585,97.90014648 115.29349518,100.15771484 115.85374451,102.40319824 116.41399384,104.63653564 116.97424316,106.85784912 117.53449249,109.06701660 118.09474182,111.26403809 118.65499878,113.44903564 119.21524811,115.62188721 119.77549744,117.78259277 120.33574677,119.93121338 120.89599609,122.06774902 121.45624542,124.19219971 122.01649475,126.30450439 122.57674408,128.40472412 123.13699341,130.49285889 123.69724274,132.56884766 124.25749207,134.63275146 124.81774139,136.68453979 125.37799072,138.72424316 125.93824768,140.75183105 126.49849701,142.76733398 127.05874634,144.77070618 127.61899567,146.76196289 128.17924500,148.74113464 128.73950195,150.70819092 129.29974365,152.66314697 129.85998535,154.60597229 130.42024231,156.53674316 130.98049927,158.45539856 131.54074097,160.36192322 132.10098267,162.25633240 132.66125488,164.13868713 133.22149658,166.00891113 133.78173828,167.86703491 134.34199524,169.71304321 134.90225220,171.54695129 135.46249390,173.36875916 136.02273560,175.17845154 136.58299255,176.97602844 137.14324951,178.76152039 137.70349121,180.53489685 138.26373291,182.29618835 138.82398987,184.04536438 139.38424683,185.78242493 139.94448853,187.50740051 140.50474548,189.22024536 141.06500244,190.92098999 141.62524414,192.60966492 142.18548584,194.28619385 142.74574280,195.95065308 143.30599976,197.60296631 143.86624146,199.24317932 144.42648315,200.87130737 144.98674011,202.48733521 145.54699707,204.09123230 146.10723877,205.68304443 146.66748047,207.26275635 147.22775269,208.83036804 147.78799438,210.38583374 148.34823608,211.92924500 148.90849304,213.46052551 149.46875000,214.97969055 150.02899170,216.48675537 150.58923340,217.98173523 151.14950562,219.46459961 151.70974731,220.93533325 152.26998901,222.39399719 152.83024597,223.84054565 153.39050293,225.27497864 153.95074463,226.69731140 154.51100159,228.10757446 155.07125854,229.50569153 155.63150024,230.89170837 156.19174194,232.26564026 156.75199890,233.62744141 157.31224060,234.97714233 157.87249756,236.31475830 158.43273926,237.64024353 158.99299622,238.95364380 159.55323792,240.25492859 160.11349487,241.54411316 160.67373657,242.82118225 161.23399353,244.08616638 161.79425049,245.33903503 162.35449219,246.57978821 162.91474915,247.80844116 163.47500610,249.02499390 164.03524780,250.22943115 164.59548950,251.42178345 165.15574646,252.60202026 165.71600342,253.77015686 166.27624512,254.92617798 166.83650208,256.07012939 167.39674377,257.20190430 167.95700073,258.32165527 168.51724243,259.42926025 169.07749939,260.52474976 169.63774109,261.60815430 170.19799805,262.67944336 170.75823975,263.73861694 171.31849670,264.78570557 171.87875366,265.82067871 172.43899536,266.84356689 172.99923706,267.85430908 173.55949402,268.85299683 174.11975098,269.83953857 174.67999268,270.81399536 175.24024963,271.77636719 175.80049133,272.72656250 176.36074829,273.66473389 176.92098999,274.59075928 177.48124695,275.50469971 178.04150391,276.40649414 178.60174561,277.29620361 179.16198730,278.17382812 179.72224426,279.03933716 180.28250122,279.89276123 180.84274292,280.73406982 181.40299988,281.56323242 181.96324158,282.38031006 182.52349854,283.18530273 183.08374023,283.97817993 183.64399719,284.75897217 184.20425415,285.52761841 184.76449585,286.28417969 185.32475281,287.02862549 185.88499451,287.76098633 186.44525146,288.48126221 187.00549316,289.18939209 187.56573486,289.88543701 188.12599182,290.56933594 188.68624878,291.24118042 189.24649048,291.90090942 189.80674744,292.54852295 190.36700439,293.18402100 190.92724609,293.80743408 191.48748779,294.41876221 192.04774475,295.01794434 192.60800171,295.60504150 193.16824341,296.18002319 193.72850037,296.74291992 194.28874207,297.29370117 194.84899902,297.83236694 195.40924072,298.35891724 195.96949768,298.87341309 196.52975464,299.37573242 197.08999634,299.86599731 197.65023804,300.34414673 198.21049500,300.81018066 198.77075195,301.26412964 199.33099365,301.70596313 199.89125061,302.13568115 200.45149231,302.55328369 201.01174927,302.95883179 201.57199097,303.35223389 202.13224792,303.73355103 202.69250488,304.10275269 203.25274658,304.45983887 203.81298828,304.80484009 204.37324524,305.13772583 204.93350220,305.45849609 205.49374390,305.76718140 206.05400085,306.06375122 206.61425781,306.34820557 207.17449951,306.62060547 207.73474121,306.88085938 208.29499817,307.12899780 208.85525513,307.36505127 209.41549683,307.58898926 209.97573853,307.80084229 210.53599548,308.00054932 211.09625244,308.18817139 211.65649414,308.36370850 212.21675110,308.52713013 212.77700806,308.67843628 213.33724976,308.81765747 213.89749146,308.94476318 214.45774841,309.05975342 215.01800537,309.16262817 215.57824707,309.25341797 216.13848877,309.33209229 216.69874573,309.39868164 217.25900269,309.45315552 217.81924438,309.49554443 218.37948608,309.52578735 218.93975830,309.54394531 219.50000000,309.54998779 220.06024170,309.54394531 220.62049866,309.52578735 221.18075562,309.49554443 221.74099731,309.45315552 222.30123901,309.39868164 222.86149597,309.33212280 223.42175293,309.25341797 223.98199463,309.16262817 224.54225159,309.05975342 225.10249329,308.94476318 225.66275024,308.81765747 226.22299194,308.67843628 226.78324890,308.52713013 227.34350586,308.36370850 227.90374756,308.18817139 228.46400452,308.00054932 229.02424622,307.80084229 229.58450317,307.58898926 230.14474487,307.36505127 230.70500183,307.12899780 231.26524353,306.88085938 231.82550049,306.62060547 232.38574219,306.34820557 232.94599915,306.06375122 233.50625610,305.76718140 234.06649780,305.45849609 234.62675476,305.13772583 235.18699646,304.80484009 235.74725342,304.45983887 236.30749512,304.10275269 236.86775208,303.73355103 237.42799377,303.35223389 237.98825073,302.95883179 238.54849243,302.55331421 239.10874939,302.13568115 239.66900635,301.70596313 240.22924805,301.26412964 240.78948975,300.81018066 241.34974670,300.34414673 241.91000366,299.86602783 242.47024536,299.37576294 243.03050232,298.87341309 243.59074402,298.35891724 244.15100098,297.83236694 244.71124268,297.29370117 245.27149963,296.74291992 245.83175659,296.18002319 246.39199829,295.60504150 246.95225525,295.01794434 247.51249695,294.41876221 248.07275391,293.80743408 248.63299561,293.18402100 249.19325256,292.54852295 249.75349426,291.90090942 250.31375122,291.24118042 250.87399292,290.56933594 251.43424988,289.88543701 251.99450684,289.18939209 252.55474854,288.48126221 253.11500549,287.76098633 253.67524719,287.02865601 254.23550415,286.28417969 254.79574585,285.52764893 255.35600281,284.75897217 255.91624451,283.97821045 256.47650146,283.18530273 257.03674316,282.38031006 257.59698486,281.56323242 258.15725708,280.73406982 258.71749878,279.89276123 259.27774048,279.03936768 259.83801270,278.17382812 260.39825439,277.29623413 260.95849609,276.40652466 261.51873779,275.50469971 262.07897949,274.59075928 262.63925171,273.66473389 263.19949341,272.72659302 263.75976562,271.77636719 264.32000732,270.81402588 264.88024902,269.83953857 265.44049072,268.85299683 266.00073242,267.85430908 266.56100464,266.84356689 267.12124634,265.82067871 267.68151855,264.78570557 268.24176025,263.73864746 268.80200195,262.67944336 269.36224365,261.60815430 269.92248535,260.52474976 270.48272705,259.42926025 271.04299927,258.32165527 271.60324097,257.20193481 272.16351318,256.07012939 272.72375488,254.92619324 273.28399658,253.77017212 273.84423828,252.60203552 274.40451050,251.42179871 274.96475220,250.22946167 275.52499390,249.02499390 276.08526611,247.80844116 276.64550781,246.57978821 277.20574951,245.33903503 277.76599121,244.08616638 278.32623291,242.82119751 278.88650513,241.54411316 279.44674683,240.25494385 280.00701904,238.95364380 280.56726074,237.64025879 281.12750244,236.31475830 281.68774414,234.97717285 282.24798584,233.62745667 282.80822754,232.26564026 283.36849976,230.89170837 283.92874146,229.50569153 284.48901367,228.10757446 285.04925537,226.69734192 285.60949707,225.27500916 286.16973877,223.84054565 286.73001099,222.39401245 287.29025269,220.93536377 287.85049438,219.46459961 288.41076660,217.98173523 288.97100830,216.48678589 289.53125000,214.97969055 290.09149170,213.46052551 290.65176392,211.92924500 291.21200562,210.38583374 291.77224731,208.83036804 292.33251953,207.26278687 292.89276123,205.68307495 293.45300293,204.09126282 294.01324463,202.48733521 294.57348633,200.87130737 295.13375854,199.24319458 295.69400024,197.60296631 296.25424194,195.95065308 296.81451416,194.28619385 297.37475586,192.60968018 297.93499756,190.92098999 298.49523926,189.22024536 299.05551147,187.50740051 299.61575317,185.78242493 300.17599487,184.04536438 300.73626709,182.29618835 301.29650879,180.53494263 301.85675049,178.76155090 302.41699219,176.97605896 302.97723389,175.17848206 303.53750610,173.36875916 304.09774780,171.54695129 304.65802002,169.71304321 305.21826172,167.86703491 305.77850342,166.00891113 306.33874512,164.13868713 306.89898682,162.25639343 307.45925903,160.36192322 308.01950073,158.45539856 308.57974243,156.53674316 309.14001465,154.60603333 309.70025635,152.66317749 310.26049805,150.70820618 310.82073975,148.74116516 311.38098145,146.76199341 311.94125366,144.77070618 312.50149536,142.76733398 313.06176758,140.75183105 313.62200928,138.72424316 314.18225098,136.68453979 314.74249268,134.63275146 315.30273438,132.56884766 315.86300659,130.49285889 316.42324829,128.40472412 316.98348999,126.30456543 317.54376221,124.19219971 318.10400391,122.06781006 318.66424561,119.93127441 319.22448730,117.78259277 319.78475952,115.62188721 320.34500122,113.44903564 320.90524292,111.26406860 321.46551514,109.06701660 322.02575684,106.85784912 322.58599854,104.63659668 323.14624023,102.40319824 323.70648193,100.15774536 324.26675415,97.90014648 324.82699585,95.63049316 325.38723755,93.34866333 325.94750977,91.05477905 326.50775146,88.74877930 327.06799316,86.43066406 327.62823486,84.10046387 328.18850708,81.75811768 328.74874878,79.40368652 329.30902100,77.03720093 329.86926270,74.65856934 330.42950439,72.26782227 330.98974609,69.86499023 331.54998779,67.45001221" style="stroke:rgb(255.00000000,164.98500061,0.00000000);stroke-width:1.50000000;opacity:1.00000000;stroke-linecap:butt;fill:none;" />
<text font-size="20.00000000" font-family="Roboto" x="176.00000000" y="36.00000000" style="stroke:rgb(0.00000000,0.00000000,0.00000000);stroke-width:0.30000001;fill:rgb(0.00000000,0.00000000,0.00000000);opacity:1.00000000;" transform="rotate(-0.00000000,176.00000000,36.00000000)">FUNCTION</text>
<text font-size="15.00000000" font-family="Roboto" x="190.94999695" y="386.00000000" style="stroke:rgb(0.00000000,0.00000000,0.00000000);stroke-width:0.30000001;fill:rgb(0.00000000,0.00000000,0.00000000);opacity:1.00000000;" transform="rotate(-0.00000000,190.94999695,386.00000000)">X-AXIS</text>
<text font-size="15.00000000" font-family="Roboto" x="31.00000000" y="217.19999695" style="stroke:rgb(0.00000000,0.00000000,0.00000000);stroke-width:0.30000001;fill:rgb(0.00000000,0.00000000,0.00000000);opacity:1.00000000;" transform="rotate(-90.00000000,31.00000000,217.19999695)">Y-AXIS</text>
<rect x="115.00000000" y="74.00000000" width="90.00000000" height="30.00000000" style="fill:rgb(255.00000000,255.00000000,255.00000000);stroke-width:2.00000000;stroke:rgb(0.00000000,0.00000000,0.00000000);opacity:0.69999999" />
<rect x="125.00000000" y="84.00000000" width="10.00000000" height="10.00000000" style="fill:rgb(255.00000000,164.98500061,0.00000000);stroke-width:0;stroke:rgb(0,0,0);opacity:1.00000000" />
<text font-size="10.00000000" font-family="Roboto" x="145.00000000" y="94.00000000" style="stroke:rgb(0.00000000,0.00000000,0.00000000);stroke-width:0.30000001;fill:rgb(0.00000000,0.00000000,0.00000000);opacity:1.00000000;" transform="rotate(-0.00000000,145.00000000,94.00000000)">Function</text>
</svg>