<svg height="400.00000000" width="400.00000000" version="4.0" xmlns="http://www.w3.org/2000/svg" xmlns:xlink= "http://www.w3.org/1999/xlink">
<rect width="100%" height="100%" fill="white"/>
<defs><style>@import url("https://fonts.googleapis.com/css?family=Roboto");</style></defs>
<rect x="0.00000000" y="0.00000000" width="400.00000000" height="400.00000000" style="fill:rgb(255.00000000,255.00000000,255.00000000);stroke-width:0;stroke:rgb(0,0,0);opacity:1.00000000" />
<line x1="107.44999695" y1="323.00000000" x2="107.44999695" y2="54.00000000" style="stroke:rgb(127.50000000,127.50000000,127.50000000);stroke-width:0.50000000;opacity:1.00000000;stroke-linecap:butt" />
<line x1="132.35000610" y1="323.00000000" x2="132.35000610" y2="54.00000000" style="stroke:rgb(127.50000000,127.50000000,127.50000000);stroke-width:0.50000000;opacity:1.00000000;stroke-linecap:butt" />
<line x1="157.25000000" y1="323.00000000" x2="157.25000000" y2="54.00000000" style="stroke:rgb(127.50000000,127.50000000,127.50000000);stroke-width:0.50000000;opacity:1.00000000;stroke-linecap:butt" />
<line x1="182.15000916" y1="323.00000000" x2="182.15000916" y2="54.00000000" style="stroke:rgb(127.50000000,127.50000000,127.50000000);stroke-width:0.50000000;opacity:1.00000000;stroke-linecap:butt" />
<line x1="207.05001831" y1="323.00000000" x2="207.05001831" y2="54.00000000" style="stroke:rgb(127.50000000,127.50000000,127.50000000);stroke-width:0.50000000;opacity:1.00000000;stroke-linecap:butt" />
<line x1="231.95001221" y1="323.00000000" x2="231.95001221" y2="54.00000000" style="stroke:rgb(127.50000000,127.50000000,127.50000000);stroke-width:0.50000000;opacity:1.00000000;stroke-linecap:butt" />
<line x1="256.85000610" y1="323.00000000" x2="256.85000610" y2="54.00000000" style="stroke:rgb(127.50000000,127.50000000,127.50000000);stroke-width:0.50000000;opacity:1.00000000;stroke-linecap:butt" />
<line x1="281.75000000" y1="323.00000000" x2="281.75000000" y2="54.00000000" style="stroke:rgb(127.50000000,127.50000000,127.50000000);stroke-width:0.50000000;opacity:1.00000000;stroke-linecap:butt" />
<line x1="306.64999390" y1="323.00000000" x2="306.64999390" y2="54.00000000" style="stroke:rgb(127.50000000,127.50000000,127.50000000);stroke-width:0.50000000;opacity:1.00000000;stroke-linecap:butt" />
<line x1="331.54998779" y1="323.00000000" x2="331.54998779" y2="54.00000000" style="stroke:rgb(127.50000000,127.50000000,127.50000000);stroke-width:0.50000000;opacity:1.00000000;stroke-linecap:butt" />
<line x1="95.00000000" y1="167.13555908" x2="344.00000000" y2="167.13555908" style="stroke:rgb(127.50000000,127.50000000,127.50000000);stroke-width:0.50000000;opacity:1.00000000;stroke-linecap:butt" />
<line x1="95.00000000" y1="131.89758301" x2="344.00000000" y2="131.89758301" style="stroke:rgb(127.50000000,127.50000000,127.50000000);stroke-width:0.50000000;opacity:1.00000000;stroke-linecap:butt" />
<line x1="95.00000000" y1="96.65957642" x2="344.00000000" y2="96.65957642" style="stroke:rgb(127.50000000,127.50000000,127.50000000);stroke-width:0.50000000;opacity:1.00000000;stroke-linecap:butt" />
<line x1="95.00000000" y1="61.42156982" x2="344.00000000" y2="61.42156982" style="stroke:rgb(127.50000000,127.50000000,127.50000000);stroke-width:0.50000000;opacity:1.00000000;stroke-linecap:butt" />
<line x1="95.00000000" y1="202.37355042" x2="344.00000000" y2="202.37355042" style="stroke:rgb(127.50000000,127.50000000,127.50000000);stroke-width:0.50000000;opacity:1.00000000;stroke-linecap:butt" />
<line x1="95.00000000" y1="237.61154175" x2="344.00000000" y2="237.61154175" style="stroke:rgb(127.50000000,127.50000000,127.50000000);stroke-width:0.50000000;opacity:1.00000000;stroke-linecap:butt" />
<line x1="95.00000000" y1="272.84954834" x2="344.00000000" y2="272.84954834" style="stroke:rgb(127.50000000,127.50000000,127.50000000);stroke-width:0.50000000;opacity:1.00000000;stroke-linecap:butt" />
<line x1="95.00000000" y1="308.08752441" x2="344.00000000" y2="308.08752441" style="stroke:rgb(127.50000000,127.50000000,127.50000000);stroke-width:0.50000000;opacity:1.00000000;stroke-linecap:butt" />
<rect x="94.00000000" y="53.00000000" width="251.00000000" height="271.00000000" style="fill:rgb(255,255,255);stroke-width:2.00000000;stroke:rgb(0.00000000,0.00000000,0.00000000);opacity:1;fill-opacity:0;" />
<line x1="107.44999695" y1="325.00000000" x2="107.44999695" y2="331.00000000" style="stroke:rgb(0.00000000,0.00000000,0.00000000);stroke-width:2.00000000;opacity:1.00000000;stroke-linecap:butt" />
<text font-size="12.00000000" font-family="Roboto" x="89.55000305" y="349.00000000" style="stroke:rgb(0.00000000,0.00000000,0.00000000);stroke-width:0.17500000;fill:rgb(0.00000000,0.00000000,0.00000000);opacity:1.00000000;" transform="rotate(-0.00000000,89.55000305,349.00000000)">1.0</text>
<line x1="132.35000610" y1="325.00000000" x2="132.35000610" y2="331.00000000" style="stroke:rgb(0.00000000,0.00000000,0.00000000);stroke-width:2.00000000;opacity:1.00000000;stroke-linecap:butt" />
<text font-size="12.00000000" font-family="Roboto" x="113.97000122" y="349.00000000" style="stroke:rgb(0.00000000,0.00000000,0.00000000);stroke-width:0.17500000;fill:rgb(0.00000000,0.00000000,0.00000000);opacity:1.00000000;" transform="rotate(-0.00000000,113.97000122,349.00000000)">2.0</text>
<line x1="157.25000000" y1="325.00000000" x2="157.25000000" y2="331.00000000" style="stroke:rgb(0.00000000,0.00000000,0.00000000);stroke-width:2.00000000;opacity:1.00000000;stroke-linecap:butt" />
<text font-size="12.00000000" font-family="Roboto" x="138.86999512" y="349.00000000" style="stroke:rgb(0.00000000,0.00000000,0.00000000);stroke-width:0.17500000;fill:rgb(0.00000000,0.00000000,0.00000000);opacity:1.00000000;" transform="rotate(-0.00000000,138.86999512,349.00000000)">3.0</text>
<line x1="182.15000916" y1="325.00000000" x2="182.15000916" y2="331.00000000" style="stroke:rgb(0.00000000,0.00000000,0.00000000);stroke-width:2.00000000;opacity:1.00000000;stroke-linecap:butt" />
<text font-size="12.00000000" font-family="Roboto" x="163.77001953" y="349.00000000" style="stroke:rgb(0.00000000,0.00000000,0.00000000);stroke-width:0.17500000;fill:rgb(0.00000000,0.00000000,0.00000000);opacity:1.00000000;" transform="rotate(-0.00000000,163.77001953,349.00000000)">4.0</text>
<line x1="207.05001831" y1="325.00000000" x2="207.05001831" y2="331.00000000" style="stroke:rgb(0.00000000,0.00000000,0.00000000);stroke-width:2.00000000;opacity:1.00000000;stroke-linecap:butt" />
<text font-size="12.00000000" font-family="Roboto" x="188.67001343" y="349.00000000" style="stroke:rgb(0.00000000,0.00000000,0.00000000);stroke-width:0.17500000;fill:rgb(0.00000000,0.00000000,0.00000000);opacity:1.00000000;" transform="rotate(-0.00000000,188.67001343,349.00000000)">5.0</text>
<line x1="231.95001221" y1="325.00000000" x2="231.95001221" y2="331.00000000" style="stroke:rgb(0.00000000,0.00000000,0.00000000);stroke-width:2.00000000;opacity:1.00000000;stroke-linecap:butt" />
<text font-size="12.00000000" font-family="Roboto" x="213.57000732" y="349.00000000" style="stroke:rgb(0.00000000,0.00000000,0.00000000);stroke-width:0.17500000;fill:rgb(0.00000000,0.00000000,0.00000000);opacity:1.00000000;" transform="rotate(-0.00000000,213.57000732,349.00000000)">6.0</text>
<line x1="256.85000610" y1="325.00000000" x2="256.85000610" y2="331.00000000" style="stroke:rgb(0.00000000,0.00000000,0.00000000);stroke-width:2.00000000;opacity:1.00000000;stroke-linecap:butt" />
<text font-size="12.00000000" font-family="Roboto" x="238.47000122" y="349.00000000" style="stroke:rgb(0.00000000,0.00000000,0.00000000);stroke-width:0.17500000;fill:rgb(0.00000000,0.00000000,0.00000000);opacity:1.00000000;" transform="rotate(-0.00000000,238.47000122,349.00000000)">7.0</text>
<line x1="281.75000000" y1="325.00000000" x2="281.75000000" y2="331.00000000" style="stroke:rgb(0.00000000,0.00000000,0.00000000);stroke-width:2.00000000;opacity:1.00000000;stroke-linecap:butt" />
<text font-size="12.00000000" font-family="Roboto" x="263.36999512" y="349.00000000" style="stroke:rgb(0.00000000,0.00000000,0.00000000);stroke-width:0.17500000;fill:rgb(0.00000000,0.00000000,0.00000000);opacity:1.00000000;" transform="rotate(-0.00000000,263.36999512,349.00000000)">8.0</text>
<line x1="306.64999390" y1="325.00000000" x2="306.64999390" y2="331.00000000" style="stroke:rgb(0.00000000,0.00000000,0.00000000);stroke-width:2.00000000;opacity:1.00000000;stroke-linecap:butt" />
<text font-size="12.00000000" font-family="Roboto" x="288.26998901" y="349.00000000" style="stroke:rgb(0.00000000,0.00000000,0.00000000);stroke-width:0.17500000;fill:rgb(0.00000000,0.00000000,0.00000000);opacity:1.00000000;" transform="rotate(-0.00000000,288.26998901,349.00000000)">9.0</text>
<line x1="331.54998779" y1="325.00000000" x2="331.54998779" y2="331.00000000" style="stroke:rgb(0.00000000,0.00000000,0.00000000);stroke-width:2.00000000;opacity:1.00000000;stroke-linecap:butt" />
<text font-size="12.00000000" font-family="Roboto" x="311.48999023" y="349.00000000" style="stroke:rgb(0.00000000,0.00000000,0.00000000);stroke-width:0.17500000;fill:rgb(0.00000000,0.00000000,0.00000000);opacity:1.00000000;" transform="rotate(-0.00000000,311.48999023,349.00000000)">10.0</text>
<line x1="87.00000000" y1="167.13555908" x2="93.00000000" y2="167.13555908" style="stroke:rgb(0.00000000,0.00000000,0.00000000);stroke-width:2.00000000;opacity:1.00000000;stroke-linecap:butt" />
<text font-size="12.00000000" font-family="Roboto" x="46.24000168" y="173.13555908" style="stroke:rgb(0.00000000,0.00000000,0.00000000);stroke-width:0.17500000;fill:rgb(0.00000000,0.00000000,0.00000000);opacity:1.00000000;" transform="rotate(-0.00000000,46.24000168,173.13555908)">0.0</text>
<line x1="87.00000000" y1="131.89758301" x2="93.00000000" y2="131.89758301" style="stroke:rgb(0.00000000,0.00000000,0.00000000);stroke-width:2.00000000;opacity:1.00000000;stroke-linecap:butt" />
<text font-size="12.00000000" font-family="Roboto" x="47.20000076" y="137.89758301" style="stroke:rgb(0.00000000,0.00000000,0.00000000);stroke-width:0.17500000;fill:rgb(0.00000000,0.00000000,0.00000000);opacity:1.00000000;" transform="rotate(-0.00000000,47.20000076,137.89758301)">1.0</text>
<line x1="87.00000000" y1="96.65957642" x2="93.00000000" y2="96.65957642" style="stroke:rgb(0.00000000,0.00000000,0.00000000);stroke-width:2.00000000;opacity:1.00000000;stroke-linecap:butt" />
<text font-size="12.00000000" font-family="Roboto" x="46.24000168" y="102.65957642" style="stroke:rgb(0.00000000,0.00000000,0.00000000);stroke-width:0.17500000;fill:rgb(0.00000000,0.00000000,0.00000000);opacity:1.00000000;" transform="rotate(-0.00000000,46.24000168,102.65957642)">2.0</text>
<line x1="87.00000000" y1="61.42156982" x2="93.00000000" y2="61.42156982" style="stroke:rgb(0.00000000,0.00000000,0.00000000);stroke-width:2.00000000;opacity:1.00000000;stroke-linecap:butt" />
<text font-size="12.00000000" font-family="Roboto" x="46.24000168" y="67.42156982" style="stroke:rgb(0.00000000,0.00000000,0.00000000);stroke-width:0.17500000;fill:rgb(0.00000000,0.00000000,0.00000000);opacity:1.00000000;" transform="rotate(-0.00000000,46.24000168,67.42156982)">3.0</text>
<line x1="87.00000000" y1="202.37355042" x2="93.00000000" y2="202.37355042" style="stroke:rgb(0.00000000,0.00000000,0.00000000);stroke-width:2.00000000;opacity:1.00000000;stroke-linecap:butt" />
<text font-size="12.00000000" font-family="Roboto" x="43.11999893" y="208.37355042" style="stroke:rgb(0.00000000,0.00000000,0.00000000);stroke-width:0.17500000;fill:rgb(0.00000000,0.00000000,0.00000000);opacity:1.00000000;" transform="rotate(-0.00000000,43.11999893,208.37355042)">-1.0</text>
<line x1="87.00000000" y1="237.61154175" x2="93.00000000" y2="237.61154175" style="stroke:rgb(0.00000000,0.00000000,0.00000000);stroke-width:2.00000000;opacity:1.00000000;stroke-linecap:butt" />
<text font-size="12.00000000" font-family="Roboto" x="43.00000000" y="243.61154175" style="stroke:rgb(0.00000000,0.00000000,0.00000000);stroke-width:0.17500000;fill:rgb(0.00000000,0.00000000,0.00000000);opacity:1.00000000;" transform="rotate(-0.00000000,43.00000000,243.61154175)">-2.0</text>
<line x1="87.00000000" y1="272.84954834" x2="93.00000000" y2="272.84954834" style="stroke:rgb(0.00000000,0.00000000,0.00000000);stroke-width:2.00000000;opacity:1.00000000;stroke-linecap:butt" />
<text font-size="12.00000000" font-family="Roboto" x="43.00000000" y="278.84954834" style="stroke:rgb(0.00000000,0.00000000,0.00000000);stroke-width:0.17500000;fill:rgb(0.00000000,0.00000000,0.00000000);opacity:1.00000000;" transform="rotate(-0.00000000,43.00000000,278.84954834)">-3.0</text>
<line x1="87.00000000" y1="308.08752441" x2="93.00000000" y2="308.08752441" style="stroke:rgb(0.00000000,0.00000000,0.00000000);stroke-width:2.00000000;opacity:1.00000000;stroke-linecap:butt" />
<text font-size="12.00000000" font-family="Roboto" x="43.00000000" y="314.08752441" style="stroke:rgb(0.00000000,0.00000000,0.00000000);stroke-width:0.17500000;fill:rgb(0.00000000,0.00000000,0.00000000);opacity:1.00000000;" transform="rotate(-0.00000000,43.00000000,314.08752441)">-4.0</text>
<polyline points="107.44999695,240.45645142 108.01025391,252.78677368 108.57049561,264.17175293 109.13075256,274.50927734 109.69100189,283.69741821 110.25125122,291.63668823 110.81150055,298.23208618 111.37174988,303.39495850 111.93199921,307.04559326 112.49224854,309.11553955 113.05250549,309.54998779 113.61274719,308.31027222 114.17300415,305.37622070 114.73324585,300.74847412 115.29350281,294.45043945 115.85374451,286.53048706 116.41400146,277.06298828 116.97425079,266.14996338 117.53450012,253.92135620 118.09474945,240.53515625 118.65499878,226.17698669 119.21524811,211.05900574 119.77549744,195.41717529 120.33575439,179.50930786 120.89599609,163.61108398 121.45625305,148.01123047 122.01650238,133.00683594 122.57675171,118.89709473 123.13700104,105.97644043 123.69725037,94.52746582 124.25750732,84.81344604 124.81774902,77.07025146 125.37800598,71.49838257 125.93824768,68.25570679 126.49850464,67.45001221 127.05874634,69.13281250 127.61900330,73.29415894 128.17924500,79.85864258 128.73950195,88.68344116 129.29974365,99.55789185 129.86000061,112.20538330 130.42025757,126.28775024 130.98049927,141.41192627 131.54075623,157.13859558 132.10099792,172.99407959 132.66125488,188.48390198 133.22149658,203.10763550 133.78175354,216.37651062 134.34199524,227.83062744 134.90225220,237.05786133 135.46249390,243.71078491 136.02275085,247.52365112 136.58300781,248.32711792 137.14324951,246.05976868 137.70350647,240.77667236 138.26374817,232.65325928 138.82400513,221.98410034 139.38424683,209.17732239 139.94450378,194.74279785 140.50476074,179.27508545 141.06500244,163.43132019 141.62524414,147.90484619 142.18550110,133.39462280 142.74575806,120.57348633 143.30599976,110.05429077 143.86625671,102.35739136 144.42651367,97.88052368 144.98675537,96.87304688 145.54699707,99.41632080 146.10725403,105.41174316 146.66751099,114.57754517 147.22775269,126.45608521 147.78800964,140.43072510 148.34825134,155.75323486 148.90850830,171.58042908 149.46875000,187.01910400 150.02900696,201.17517090 150.58924866,213.20776367 151.14950562,222.38185120 151.70974731,228.11822510 152.27000427,230.03593445 152.83026123,227.98480225 153.39050293,222.06436157 153.95074463,212.62768555 154.51100159,200.26808167 155.07125854,185.78823853 155.63150024,170.15423584 156.19175720,154.43418884 156.75199890,139.72634888 157.31225586,127.08242798 157.87249756,117.42907715 158.43275452,111.49401855 158.99301147,109.74468994 159.55325317,112.34271240 160.11349487,119.12023926 160.67375183,129.58056641 161.23400879,142.92608643 161.79425049,158.11114502 162.35450745,173.91844177 162.91476440,189.05398560 163.47500610,202.25241089 164.03524780,212.38638306 164.59550476,218.56768799 165.15576172,220.23368835 165.71600342,217.20825195 166.27624512,209.73074341 166.83650208,198.44862366 167.39675903,184.37083435 167.95700073,168.78645325 168.51724243,153.15170288 169.07751465,138.95602417 169.63775635,127.57873535 170.19799805,120.14965820 170.75825500,117.42846680 171.31851196,119.71691895 171.87875366,126.81268311 172.43899536,138.01477051 172.99925232,152.18109131 173.55950928,167.83529663 174.11975098,183.31494141 174.67999268,196.94686890 175.24024963,207.22901917 175.80050659,213.00395203 176.36074829,213.59890747 176.92100525,208.91709900 177.48124695,199.46604919 178.04150391,186.31610107 178.60174561,170.99119568 179.16200256,155.30058289 179.72225952,141.12820435 180.28250122,130.20581055 180.84275818,123.89434814 181.40299988,123.00372314 181.96325684,127.67492676 182.52349854,137.34332275 183.08374023,150.79074097 183.64399719,166.28826904 184.20425415,181.80787659 184.76449585,195.28576660 185.32475281,204.89942932 185.88500977,209.32249451 186.44525146,207.92105103 187.00549316,200.86032104 187.56576538,189.10292053 188.12600708,174.29319763 188.68624878,158.53900146 189.24650574,144.11799622 189.80676270,133.14736938 190.36700439,127.26678467 190.92724609,127.37927246 191.48750305,133.49682617 192.04776001,144.71495056 192.60800171,159.32920837 193.16824341,175.08113098 193.72850037,189.49925232 194.28875732,200.28791809 194.84899902,205.69995117 195.40925598,204.83393860 195.96951294,197.80282593 196.52975464,185.74000549 197.09001160,170.63507080 197.65023804,155.01866150 198.21051025,141.54370117 198.77075195,132.53369141 199.33099365,129.57025146 199.89125061,133.19851685 200.45150757,142.80633545 201.01174927,156.70617676 201.57200623,172.41448975 202.13226318,187.08496094 202.69250488,198.02278137 203.25276184,203.18768311 203.81301880,201.59059143 204.37324524,193.50442505 204.93350220,180.43997192 205.49374390,164.88444519 206.05400085,149.84049988 206.61425781,138.25030518 207.17449951,132.41339111 207.73475647,133.51416016 208.29501343,141.35983276 208.85525513,154.38873291 209.41549683,169.96035767 209.97576904,184.87619019 210.53601074,196.03376770 211.09625244,201.07905579 211.65649414,198.92153931 212.21675110,189.99330139 212.77700806,176.18855286 213.33724976,160.48316956 213.89750671,146.30563354 214.45776367,136.78955078 215.01800537,134.06933594 215.57824707,138.78082275 216.13850403,149.88604736 216.69876099,164.87609863 217.25900269,180.31829834 217.81925964,192.63446045 218.37951660,198.93424988 218.93975830,197.71148682 219.50000000,189.22937012 220.06024170,175.49284363 220.62051392,159.79901123 221.18075562,145.95970154 221.74099731,137.37564087 222.30125427,136.18756104 222.86151123,142.71734619 223.42176819,155.35218811 223.98200989,170.91526794 224.54226685,185.44723511 225.10250854,195.20889282 225.66276550,197.65505981 226.22300720,192.12268066 226.78324890,180.03990173 227.34350586,164.58718872 227.90376282,149.88031006 228.46400452,139.87963867 229.02426147,137.31228638 229.58450317,142.90386963 230.14476013,155.14239502 230.70501709,170.65614319 231.26525879,185.12196350 231.82551575,194.46572876 232.38577271,196.02230835 232.94599915,189.32255554 233.50625610,176.26695251 234.06651306,160.61845398 234.62675476,146.93597412 235.18701172,139.24761963 235.74725342,139.84854126 236.30751038,148.58529663 236.86775208,162.85893250 237.42800903,178.36921692 237.98826599,190.39501953 238.54850769,195.23667908 239.10876465,191.37677002 239.66900635,179.98994446 240.22924805,164.62104797 240.78950500,150.10568237 241.34974670,141.05718994 241.91000366,140.38577271 242.47026062,148.33210754 243.03050232,162.34498596 243.59075928,177.86741638 244.15100098,189.80206299 244.71125793,194.18960571 245.27151489,189.54664612 245.83175659,177.40461731 246.39201355,161.84176636 246.95227051,148.13771057 247.51249695,140.98657227 248.07275391,142.86920166 248.63301086,153.15805054 249.19325256,168.28634644 249.75350952,182.95324707 250.31375122,191.97206116 250.87400818,192.11816406 251.43426514,183.31500244 251.99450684,168.71200562 252.55476379,153.59130859 253.11500549,143.47265625 253.67526245,142.08746338 254.23551941,149.97116089 254.79574585,164.21388245 255.35600281,179.49874878 255.91625977,190.06774902 256.47650146,191.90051270 257.03674316,184.27505493 257.59701538,170.09515381 258.15725708,154.82316589 258.71752930,144.39375305 259.27777100,142.89916992 259.83801270,150.95010376 260.39825439,165.38224792 260.95849609,180.46115112 261.51876831,190.14396667 262.07901001,190.51225281 262.63925171,181.39369202 263.19952393,166.48730469 263.75976562,151.89982605 264.32000732,143.65856934 264.88024902,145.20346069 265.44049072,155.91217041 266.00076294,171.30334473 266.56100464,184.87741089 267.12127686,190.85401917 267.68151855,186.65736389 268.24176025,174.07044983 268.80200195,158.52389526 269.36224365,146.78271484 269.92248535,143.99841309 270.48275757,151.41882324 271.04302979,165.77871704 271.60327148,180.69418335 272.16351318,189.48036194 272.72375488,188.16290283 273.28399658,177.31628418 273.84426880,161.86468506 274.40451050,148.88264465 274.96478271,144.36145020 275.52502441,150.41613770 276.08526611,164.24641418 276.64550781,179.38488770 277.20574951,188.69659424 277.76599121,187.75433350 278.32626343,176.98529053 278.88650513,161.53053284 279.44677734,148.82919312 280.00701904,145.04234314 280.56726074,152.03393555 281.12750244,166.40135193 281.68774414,181.08271790 282.24801636,188.80784607 282.80828857,185.71604919 283.36853027,173.33279419 283.92877197,157.87118530 284.48901367,147.14816284 285.04925537,146.62730408 285.60952759,156.59565735 286.16976929,171.94998169 286.73004150,184.76594543 287.29025269,188.38107300 287.85049438,180.88941956 288.41076660,166.20179749 288.97100830,152.05442810 289.53125000,145.95257568 290.09149170,151.16540527 290.65173340,164.92070007 291.21200562,179.82502747 291.77227783,187.81028748 292.33251953,184.51760864 292.89276123,171.72677612 293.45300293,156.45236206 294.01324463,147.13041687 294.57351685,148.94921875 295.13375854,160.91421509 295.69403076,176.33140564 296.25427246,186.51507568 296.81451416,185.68481445 297.37475586,174.29357910 297.93499756,158.84172058 298.49526978,148.20858765 299.05554199,148.54855347 299.61578369,159.68385315 300.17602539,175.13375854 300.73626709,185.84402466 301.29650879,185.49371338 301.85675049,174.27116394 302.41699219,158.83648682 302.97723389,148.41308594 303.53750610,149.27352905 304.09774780,160.91735840 304.65802002,176.29820251 305.21826172,186.04548645 305.77850342,184.17880249 306.33874512,171.82778931 306.89901733,156.61286926 307.45925903,147.98294067 308.01953125,151.33596802 308.57977295,164.58898926 309.14001465,179.40600586 309.70025635,186.40933228 310.26049805,181.13146973 310.82077026,166.92552185 311.38101196,152.89765930 311.94128418,148.09550476 312.50152588,155.64526367 313.06176758,170.65205383 313.62200928,183.31399536 314.18225098,185.30923462 314.74252319,175.30470276 315.30279541,159.91456604 315.86300659,149.37965393 316.42324829,150.75424194 316.98352051,163.13333130 317.54376221,178.17698669 318.10400391,185.68890381 318.66424561,180.54135132 319.22448730,166.23742676 319.78475952,152.59298706 320.34503174,149.02761841 320.90527344,158.02758789 321.46551514,173.34397888 322.02575684,184.27229309 322.58599854,183.12896729 323.14627075,170.70336914 323.70651245,155.78584290 324.26678467,148.99108887 324.82702637,155.18826294 325.38726807,169.94564819 325.94750977,182.63342285 326.50775146,184.05973816 327.06802368,173.17181396 327.62826538,157.90617371 328.18853760,149.45590210 328.74877930,154.05603027 329.30902100,168.32032776 329.86926270,181.66261292 330.42950439,184.12670898 330.98974609,173.85116577 331.54998779,158.55180359" style="stroke:rgb(255.00000000,164.98500061,0.00000000);stroke-width:1.50000000;opacity:1.00000000;stroke-linecap:butt;fill:none;" />
<text font-size="20.00000000" font-family="Roboto" x="176.00000000" y="36.00000000" style="stroke:rgb(0.00000000,0.00000000,0.00000000);stroke-width:0.30000001;fill:rgb(0.00000000,0.00000000,0.00000000);opacity:1.00000000;" transform="rotate(-0.00000000,176.00000000,36.00000000)">FUNCTION</text>
<text font-size="15.00000000" font-family="Roboto" x="190.94999695" y="386.00000000" style="stroke:rgb(0.00000000,0.00000000,0.00000000);stroke-width:0.30000001;fill:rgb(0.00000000,0.00000000,0.00000000);opacity:1.00000000;" transform="rotate(-0.00000000,190.94999695,386.00000000)">X-AXIS</text>
<text font-size="15.00000000" font-family="Roboto" x="31.00000000" y="217.19999695" style="stroke:rgb(0.00000000,0.00000000,0.00000000);stroke-width:0.30000001;fill:rgb(0.00000000,0.00000000,0.00000000);opacity:1.00000000;" transform="rotate(-90.00000000,31.00000000,217.19999695)">Y-AXIS</text>
<rect x="115.00000000" y="74.00000000" width="90.00000000" height="30.00000000" style="fill:rgb(255.00000000,255.00000000,255.00000000);stroke-width:2.00000000;stroke:rgb(0.00000000,0.00000000,0.00000000);opacity:0.69999999" />
<rect x="125.00000000" y="84.00000000" width="10.00000000" height="10.00000000" style="fill:rgb(255.00000000,164.98500061,0.00000000);stroke-width:0;stroke:rgb(0,0,0);opacity:1.00000000" />
<text font-size="10.00000000" font-family="Roboto" x="145.00000000" y="94.00000000" style="stroke:rgb(0.00000000,0.00000000,0.00000000);stroke-width:0.30000001;fill:rgb(0.00000000,0.00000000,0.00000000);opacity:1.00000000;" transform="rotate(-0.00000000,145.00000000,94.00000000)">Function</text>
</svg>