<svg height="400.00000000" width="800.00000000" version="4.0" xmlns="http://www.w3.org/2000/svg" xmlns:xlink= "http://www.w3.org/1999/xlink">
<rect width="100%" height="100%" fill="white"/>
<defs><style>@import url("https://fonts.googleapis.com/css?family=Roboto");</style></defs>
<rect x="0.00000000" y="0.00000000" width="800.00000000" height="400.00000000" style="fill:rgb(0.00000000,0.00000000,0.00000000);stroke-width:0;stroke:rgb(0,0,0);opacity:0.00000000" />
<line x1="419.50000000" y1="323.00000000" x2="419.50000000" y2="54.00000000" style="stroke:rgb(127.50000000,127.50000000,127.50000000);stroke-width:0.50000000;opacity:1.00000000;stroke-linecap:butt" />
<line x1="477.91000366" y1="323.00000000" x2="477.91000366" y2="54.00000000" style="stroke:rgb(127.50000000,127.50000000,127.50000000);stroke-width:0.50000000;opacity:1.00000000;stroke-linecap:butt" />
<line x1="536.32000732" y1="323.00000000" x2="536.32000732" y2="54.00000000" style="stroke:rgb(127.50000000,127.50000000,127.50000000);stroke-width:0.50000000;opacity:1.00000000;stroke-linecap:butt" />
<line x1="594.72998047" y1="323.00000000" x2="594.72998047" y2="54.00000000" style="stroke:rgb(127.50000000,127.50000000,127.50000000);stroke-width:0.50000000;opacity:1.00000000;stroke-linecap:butt" />
<line x1="653.14001465" y1="323.00000000" x2="653.14001465" y2="54.00000000" style="stroke:rgb(127.50000000,127.50000000,127.50000000);stroke-width:0.50000000;opacity:1.00000000;stroke-linecap:butt" />
<line x1="711.54998779" y1="323.00000000" x2="711.54998779" y2="54.00000000" style="stroke:rgb(127.50000000,127.50000000,127.50000000);stroke-width:0.50000000;opacity:1.00000000;stroke-linecap:butt" />
<line x1="361.08999634" y1="323.00000000" x2="361.08999634" y2="54.00000000" style="stroke:rgb(127.50000000,127.50000000,127.50000000);stroke-width:0.50000000;opacity:1.00000000;stroke-linecap:butt" />
<line x1="302.67999268" y1="323.00000000" x2="302.67999268" y2="54.00000000" style="stroke:rgb(127.50000000,127.50000000,127.50000000);stroke-width:0.50000000;opacity:1.00000000;stroke-linecap:butt" />
<line x1="244.26998901" y1="323.00000000" x2="244.26998901" y2="54.00000000" style="stroke:rgb(127.50000000,127.50000000,127.50000000);stroke-width:0.50000000;opacity:1.00000000;stroke-linecap:butt" />
<line x1="185.85998535" y1="323.00000000" x2="185.85998535" y2="54.00000000" style="stroke:rgb(127.50000000,127.50000000,127.50000000);stroke-width:0.50000000;opacity:1.00000000;stroke-linecap:butt" />
<line x1="127.44999695" y1="323.00000000" x2="127.44999695" y2="54.00000000" style="stroke:rgb(127.50000000,127.50000000,127.50000000);stroke-width:0.50000000;opacity:1.00000000;stroke-linecap:butt" />
<line x1="95.00000000" y1="190.38800049" x2="744.00000000" y2="190.38800049" style="stroke:rgb(127.50000000,127.50000000,127.50000000);stroke-width:0.50000000;opacity:1.00000000;stroke-linecap:butt" />
<line x1="95.00000000" y1="107.34197998" x2="744.00000000" y2="107.34197998" style="stroke:rgb(127.50000000,127.50000000,127.50000000);stroke-width:0.50000000;opacity:1.00000000;stroke-linecap:butt" />
<line x1="95.00000000" y1="273.43402100" x2="744.00000000" y2="273.43402100" style="stroke:rgb(127.50000000,127.50000000,127.50000000);stroke-width:0.50000000;opacity:1.00000000;stroke-linecap:butt" />
<rect x="94.00000000" y="53.00000000" width="651.00000000" height="271.00000000" style="fill:rgb(255,255,255);stroke-width:2.00000000;stroke:rgb(0.00000000,0.00000000,0.00000000);opacity:1;fill-opacity:0;" />
<line x1="419.50000000" y1="325.00000000" x2="419.50000000" y2="331.00000000" style="stroke:rgb(0.00000000,0.00000000,0.00000000);stroke-width:2.00000000;opacity:1.00000000;stroke-linecap:butt" />
<text font-size="12.00000000" font-family="Roboto" x="401.11999512" y="349.00000000" style="stroke:rgb(0.00000000,0.00000000,0.00000000);stroke-width:0.17500000;fill:rgb(0.00000000,0.00000000,0.00000000);opacity:1.00000000;" transform="rotate(-0.00000000,401.11999512,349.00000000)">0.0</text>
<line x1="477.91000366" y1="325.00000000" x2="477.91000366" y2="331.00000000" style="stroke:rgb(0.00000000,0.00000000,0.00000000);stroke-width:2.00000000;opacity:1.00000000;stroke-linecap:butt" />
<text font-size="12.00000000" font-family="Roboto" x="460.01000977" y="349.00000000" style="stroke:rgb(0.00000000,0.00000000,0.00000000);stroke-width:0.17500000;fill:rgb(0.00000000,0.00000000,0.00000000);opacity:1.00000000;" transform="rotate(-0.00000000,460.01000977,349.00000000)">1.0</text>
<line x1="536.32000732" y1="325.00000000" x2="536.32000732" y2="331.00000000" style="stroke:rgb(0.00000000,0.00000000,0.00000000);stroke-width:2.00000000;opacity:1.00000000;stroke-linecap:butt" />
<text font-size="12.00000000" font-family="Roboto" x="517.94000244" y="349.00000000" style="stroke:rgb(0.00000000,0.00000000,0.00000000);stroke-width:0.17500000;fill:rgb(0.00000000,0.00000000,0.00000000);opacity:1.00000000;" transform="rotate(-0.00000000,517.94000244,349.00000000)">2.0</text>
<line x1="594.72998047" y1="325.00000000" x2="594.72998047" y2="331.00000000" style="stroke:rgb(0.00000000,0.00000000,0.00000000);stroke-width:2.00000000;opacity:1.00000000;stroke-linecap:butt" />
<text font-size="12.00000000" font-family="Roboto" x="576.34997559" y="349.00000000" style="stroke:rgb(0.00000000,0.00000000,0.00000000);stroke-width:0.17500000;fill:rgb(0.00000000,0.00000000,0.00000000);opacity:1.00000000;" transform="rotate(-0.00000000,576.34997559,349.00000000)">3.0</text>
<line x1="653.14001465" y1="325.00000000" x2="653.14001465" y2="331.00000000" style="stroke:rgb(0.00000000,0.00000000,0.00000000);stroke-width:2.00000000;opacity:1.00000000;stroke-linecap:butt" />
<text font-size="12.00000000" font-family="Roboto" x="634.76000977" y="349.00000000" style="stroke:rgb(0.00000000,0.00000000,0.00000000);stroke-width:0.17500000;fill:rgb(0.00000000,0.00000000,0.00000000);opacity:1.00000000;" transform="rotate(-0.00000000,634.76000977,349.00000000)">4.0</text>
<line x1="711.54998779" y1="325.00000000" x2="711.54998779" y2="331.00000000" style="stroke:rgb(0.00000000,0.00000000,0.00000000);stroke-width:2.00000000;opacity:1.00000000;stroke-linecap:butt" />
<text font-size="12.00000000" font-family="Roboto" x="693.16998291" y="349.00000000" style="stroke:rgb(0.00000000,0.00000000,0.00000000);stroke-width:0.17500000;fill:rgb(0.00000000,0.00000000,0.00000000);opacity:1.00000000;" transform="rotate(-0.00000000,693.16998291,349.00000000)">5.0</text>
<line x1="361.08999634" y1="325.00000000" x2="361.08999634" y2="331.00000000" style="stroke:rgb(0.00000000,0.00000000,0.00000000);stroke-width:2.00000000;opacity:1.00000000;stroke-linecap:butt" />
<text font-size="12.00000000" font-family="Roboto" x="341.14999390" y="349.00000000" style="stroke:rgb(0.00000000,0.00000000,0.00000000);stroke-width:0.17500000;fill:rgb(0.00000000,0.00000000,0.00000000);opacity:1.00000000;" transform="rotate(-0.00000000,341.14999390,349.00000000)">-1.0</text>
<line x1="302.67999268" y1="325.00000000" x2="302.67999268" y2="331.00000000" style="stroke:rgb(0.00000000,0.00000000,0.00000000);stroke-width:2.00000000;opacity:1.00000000;stroke-linecap:butt" />
<text font-size="12.00000000" font-family="Roboto" x="282.26000977" y="349.00000000" style="stroke:rgb(0.00000000,0.00000000,0.00000000);stroke-width:0.17500000;fill:rgb(0.00000000,0.00000000,0.00000000);opacity:1.00000000;" transform="rotate(-0.00000000,282.26000977,349.00000000)">-2.0</text>
<line x1="244.26998901" y1="325.00000000" x2="244.26998901" y2="331.00000000" style="stroke:rgb(0.00000000,0.00000000,0.00000000);stroke-width:2.00000000;opacity:1.00000000;stroke-linecap:butt" />
<text font-size="12.00000000" font-family="Roboto" x="223.84999084" y="349.00000000" style="stroke:rgb(0.00000000,0.00000000,0.00000000);stroke-width:0.17500000;fill:rgb(0.00000000,0.00000000,0.00000000);opacity:1.00000000;" transform="rotate(-0.00000000,223.84999084,349.00000000)">-3.0</text>
<line x1="185.85998535" y1="325.00000000" x2="185.85998535" y2="331.00000000" style="stroke:rgb(0.00000000,0.00000000,0.00000000);stroke-width:2.00000000;opacity:1.00000000;stroke-linecap:butt" />
<text font-size="12.00000000" font-family="Roboto" x="165.44000244" y="349.00000000" style="stroke:rgb(0.00000000,0.00000000,0.00000000);stroke-width:0.17500000;fill:rgb(0.00000000,0.00000000,0.00000000);opacity:1.00000000;" transform="rotate(-0.00000000,165.44000244,349.00000000)">-4.0</text>
<line x1="127.44999695" y1="325.00000000" x2="127.44999695" y2="331.00000000" style="stroke:rgb(0.00000000,0.00000000,0.00000000);stroke-width:2.00000000;opacity:1.00000000;stroke-linecap:butt" />
<text font-size="12.00000000" font-family="Roboto" x="107.02999878" y="349.00000000" style="stroke:rgb(0.00000000,0.00000000,0.00000000);stroke-width:0.17500000;fill:rgb(0.00000000,0.00000000,0.00000000);opacity:1.00000000;" transform="rotate(-0.00000000,107.02999878,349.00000000)">-5.0</text>
<line x1="87.00000000" y1="190.38800049" x2="93.00000000" y2="190.38800049" style="stroke:rgb(0.00000000,0.00000000,0.00000000);stroke-width:2.00000000;opacity:1.00000000;stroke-linecap:butt" />
<text font-size="12.00000000" font-family="Roboto" x="46.24000168" y="196.38800049" style="stroke:rgb(0.00000000,0.00000000,0.00000000);stroke-width:0.17500000;fill:rgb(0.00000000,0.00000000,0.00000000);opacity:1.00000000;" transform="rotate(-0.00000000,46.24000168,196.38800049)">0.0</text>
<line x1="87.00000000" y1="107.34197998" x2="93.00000000" y2="107.34197998" style="stroke:rgb(0.00000000,0.00000000,0.00000000);stroke-width:2.00000000;opacity:1.00000000;stroke-linecap:butt" />
<text font-size="12.00000000" font-family="Roboto" x="43.00000000" y="113.34197998" style="stroke:rgb(0.00000000,0.00000000,0.00000000);stroke-width:0.17500000;fill:rgb(0.00000000,0.00000000,0.00000000);opacity:1.00000000;" transform="rotate(-0.00000000,43.00000000,113.34197998)">100.0</text>
<line x1="87.00000000" y1="273.43402100" x2="93.00000000" y2="273.43402100" style="stroke:rgb(0.00000000,0.00000000,0.00000000);stroke-width:2.00000000;opacity:1.00000000;stroke-linecap:butt" />
<text font-size="12.00000000" font-family="Roboto" x="43.00000000" y="279.43402100" style="stroke:rgb(0.00000000,0.00000000,0.00000000);stroke-width:0.17500000;fill:rgb(0.00000000,0.00000000,0.00000000);opacity:1.00000000;" transform="rotate(-0.00000000,43.00000000,279.43402100)">-100.0</text>
<polyline points="127.45001221,169.62649536 128.91027832,169.83358765 130.37054443,170.03964233 131.83074951,170.24465942 133.29101562,170.44863892 134.75128174,170.65159607 136.21151733,170.85350037 137.67178345,171.05436707 139.13201904,171.25419617 140.59225464,171.45298767 142.05252075,171.65074158 143.51278687,171.84745789 144.97302246,172.04313660 146.43325806,172.23776245 147.89352417,172.43136597 149.35375977,172.62393188 150.81402588,172.81546021 152.27429199,173.00595093 153.73449707,173.19538879 155.19476318,173.38380432 156.65502930,173.57118225 158.11526489,173.75750732 159.57553101,173.94281006 161.03576660,174.12705994 162.49600220,174.31028748 163.95626831,174.49246216 165.41653442,174.67361450 166.87678528,174.85372925 168.33700562,175.03279114 169.79727173,175.21081543 171.25752258,175.38781738 172.71777344,175.56376648 174.17803955,175.73867798 175.63825989,175.91255188 177.09851074,176.08540344 178.55877686,176.25720215 180.01902771,176.42796326 181.47927856,176.59768677 182.93951416,176.76637268 184.39976501,176.93402100 185.86001587,177.10063171 187.32028198,177.26620483 188.78051758,177.43074036 190.24076843,177.59423828 191.70101929,177.75669861 193.16127014,177.91812134 194.62152100,178.07850647 196.08177185,178.23783875 197.54202271,178.39614868 199.00225830,178.55342102 200.46252441,178.70965576 201.92277527,178.86483765 203.38301086,179.01899719 204.84327698,179.17211914 206.30351257,179.32418823 207.76376343,179.47523499 209.22402954,179.62522888 210.68426514,179.77420044 212.14451599,179.92211914 213.60476685,180.06901550 215.06501770,180.21485901 216.52526855,180.35968018 217.98551941,180.50344849 219.44577026,180.64617920 220.90600586,180.78787231 222.36627197,180.92854309 223.82652283,181.06816101 225.28675842,181.20674133 226.74702454,181.34428406 228.20727539,181.48078918 229.66751099,181.61625671 231.12777710,181.75070190 232.58801270,181.88407898 234.04826355,182.01644897 235.50852966,182.14776611 236.96876526,182.27803040 238.42901611,182.40727234 239.88926697,182.53547668 241.34951782,182.66264343 242.80976868,182.78877258 244.27001953,182.91386414 245.73027039,183.03790283 247.19050598,183.16091919 248.65077209,183.28289795 250.11102295,183.40382385 251.57125854,183.52372742 253.03152466,183.64259338 254.49176025,183.76040649 255.95201111,183.87719727 257.41229248,183.99293518 258.87249756,184.10765076 260.33276367,184.22131348 261.79302979,184.33393860 263.25326538,184.44554138 264.71350098,184.55609131 266.17376709,184.66560364 267.63403320,184.77409363 269.09423828,184.88153076 270.55450439,184.98793030 272.01477051,185.09329224 273.47500610,185.19761658 274.93527222,185.30091858 276.39550781,185.40316772 277.85577393,185.50437927 279.31604004,185.60455322 280.77624512,185.70368958 282.23651123,185.80178833 283.69677734,185.89884949 285.15701294,185.99487305 286.61724854,186.08984375 288.07751465,186.18379211 289.53778076,186.27670288 290.99798584,186.36857605 292.45825195,186.45941162 293.91851807,186.54919434 295.37875366,186.63795471 296.83901978,186.72567749 298.29925537,186.81234741 299.75952148,186.89799500 301.21978760,186.98258972 302.67999268,187.06616211 304.14025879,187.14868164 305.60052490,187.23017883 307.06076050,187.31062317 308.52099609,187.39004517 309.98126221,187.46841431 311.44152832,187.54574585 312.90176392,187.62205505 314.36199951,187.69731140 315.82226562,187.77153015 317.28250122,187.84471130 318.74276733,187.91685486 320.20300293,187.98797607 321.66326904,188.05804443 323.12350464,188.12707520 324.58374023,188.19506836 326.04400635,188.26202393 327.50427246,188.32794189 328.96450806,188.39282227 330.42474365,188.45666504 331.88500977,188.51947021 333.34527588,188.58123779 334.80551147,188.64195251 336.26574707,188.70164490 337.72601318,188.76029968 339.18624878,188.81791687 340.64651489,188.87448120 342.10675049,188.93002319 343.56701660,188.98452759 345.02725220,189.03797913 346.48748779,189.09040833 347.94775391,189.14178467 349.40802002,189.19213867 350.86825562,189.24143982 352.32849121,189.28971863 353.78875732,189.33694458 355.24902344,189.38314819 356.70925903,189.42829895 358.16949463,189.47241211 359.62976074,189.51550293 361.08999634,189.55754089 362.55026245,189.59854126 364.01049805,189.63850403 365.47076416,189.67744446 366.93099976,189.71533203 368.39126587,189.75218201 369.85150146,189.78799438 371.31176758,189.82276917 372.77200317,189.85650635 374.23226929,189.88920593 375.69250488,189.92086792 377.15277100,189.95149231 378.61300659,189.98107910 380.07324219,190.00962830 381.53350830,190.03712463 382.99374390,190.06359863 384.45401001,190.08903503 385.91424561,190.11343384 387.37451172,190.13677979 388.83474731,190.15910339 390.29501343,190.18038940 391.75524902,190.20062256 393.21551514,190.21983337 394.67575073,190.23799133 396.13601685,190.25512695 397.59625244,190.27120972 399.05651855,190.28627014 400.51675415,190.30027771 401.97702026,190.31326294 403.43725586,190.32519531 404.89749146,190.33609009 406.35775757,190.34596252 407.81799316,190.35478210 409.27825928,190.36256409 410.73849487,190.36930847 412.19876099,190.37503052 413.65899658,190.37969971 415.11926270,190.38333130 416.57949829,190.38592529 418.03976440,190.38748169 419.50000000,190.38800049 420.96026611,190.38748169 422.42050171,190.38592529 423.88076782,190.38333130 425.34100342,190.37969971 426.80123901,190.37503052 428.26150513,190.36930847 429.72174072,190.36256409 431.18200684,190.35478210 432.64224243,190.34596252 434.10250854,190.33609009 435.56274414,190.32519531 437.02301025,190.31326294 438.48324585,190.30027771 439.94351196,190.28627014 441.40374756,190.27120972 442.86401367,190.25512695 444.32424927,190.23799133 445.78451538,190.21983337 447.24475098,190.20062256 448.70501709,190.18038940 450.16525269,190.15910339 451.62548828,190.13677979 453.08575439,190.11343384 454.54598999,190.08903503 456.00625610,190.06359863 457.46649170,190.03712463 458.92675781,190.00962830 460.38699341,189.98107910 461.84725952,189.95149231 463.30749512,189.92086792 464.76776123,189.88920593 466.22799683,189.85650635 467.68826294,189.82276917 469.14849854,189.78799438 470.60876465,189.75218201 472.06900024,189.71533203 473.52923584,189.67744446 474.98950195,189.63850403 476.44973755,189.59854126 477.91000366,189.55754089 479.37023926,189.51550293 480.83050537,189.47241211 482.29074097,189.42829895 483.75100708,189.38314819 485.21124268,189.33694458 486.67150879,189.28971863 488.13174438,189.24143982 489.59197998,189.19213867 491.05224609,189.14178467 492.51251221,189.09040833 493.97274780,189.03797913 495.43298340,188.98452759 496.89324951,188.93002319 498.35351562,188.87448120 499.81375122,188.81791687 501.27398682,188.76029968 502.73425293,188.70164490 504.19448853,188.64195251 505.65475464,188.58122253 507.11499023,188.51947021 508.57525635,188.45666504 510.03549194,188.39282227 511.49572754,188.32794189 512.95599365,188.26202393 514.41625977,188.19506836 515.87646484,188.12707520 517.33673096,188.05804443 518.79699707,187.98797607 520.25726318,187.91685486 521.71752930,187.84471130 523.17773438,187.77153015 524.63800049,187.69731140 526.09826660,187.62205505 527.55847168,187.54574585 529.01873779,187.46841431 530.47900391,187.39004517 531.93920898,187.31062317 533.39947510,187.23017883 534.85974121,187.14868164 536.32000732,187.06616211 537.78027344,186.98258972 539.24047852,186.89799500 540.70074463,186.81234741 542.16101074,186.72566223 543.62121582,186.63795471 545.08148193,186.54919434 546.54174805,186.45939636 548.00201416,186.36857605 549.46228027,186.27670288 550.92248535,186.18379211 552.38275146,186.08984375 553.84301758,185.99485779 555.30322266,185.89884949 556.76348877,185.80178833 558.22375488,185.70368958 559.68395996,185.60455322 561.14422607,185.50437927 562.60449219,185.40316772 564.06475830,185.30091858 565.52502441,185.19761658 566.98522949,185.09329224 568.44549561,184.98793030 569.90576172,184.88153076 571.36596680,184.77409363 572.82623291,184.66560364 574.28649902,184.55609131 575.74676514,184.44554138 577.20697021,184.33393860 578.66723633,184.22131348 580.12750244,184.10765076 581.58776855,183.99293518 583.04797363,183.87719727 584.50823975,183.76040649 585.96850586,183.64257812 587.42871094,183.52372742 588.88897705,183.40382385 590.34924316,183.28289795 591.80950928,183.16091919 593.26977539,183.03790283 594.72998047,182.91386414 596.19024658,182.78877258 597.65051270,182.66264343 599.11071777,182.53547668 600.57098389,182.40727234 602.03125000,182.27803040 603.49145508,182.14775085 604.95178223,182.01643372 606.41198730,181.88407898 607.87225342,181.75068665 609.33251953,181.61625671 610.79272461,181.48078918 612.25299072,181.34428406 613.71325684,181.20674133 615.17346191,181.06816101 616.63372803,180.92854309 618.09399414,180.78787231 619.55426025,180.64617920 621.01446533,180.50344849 622.47473145,180.35966492 623.93499756,180.21485901 625.39526367,180.06901550 626.85546875,179.92211914 628.31573486,179.77420044 629.77600098,179.62522888 631.23626709,179.47523499 632.69647217,179.32418823 634.15673828,179.17211914 635.61700439,179.01899719 637.07727051,178.86483765 638.53747559,178.70965576 639.99774170,178.55342102 641.45800781,178.39614868 642.91821289,178.23783875 644.37847900,178.07850647 645.83874512,177.91812134 647.29895020,177.75669861 648.75927734,177.59423828 650.21948242,177.43074036 651.67974854,177.26620483 653.14001465,177.10063171 654.60021973,176.93402100 656.06048584,176.76637268 657.52075195,176.59768677 658.98095703,176.42796326 660.44122314,176.25720215 661.90148926,176.08540344 663.36175537,175.91255188 664.82202148,175.73867798 666.28222656,175.56376648 667.74249268,175.38781738 669.20275879,175.21081543 670.66296387,175.03279114 672.12322998,174.85371399 673.58349609,174.67361450 675.04370117,174.49246216 676.50402832,174.31028748 677.96423340,174.12705994 679.42449951,173.94281006 680.88476562,173.75750732 682.34497070,173.57118225 683.80523682,173.38380432 685.26550293,173.19538879 686.72570801,173.00595093 688.18603516,172.81546021 689.64624023,172.62393188 691.10644531,172.43136597 692.56677246,172.23776245 694.02697754,172.04312134 695.48724365,171.84744263 696.94750977,171.65074158 698.40771484,171.45298767 699.86798096,171.25419617 701.32824707,171.05436707 702.78845215,170.85350037 704.24871826,170.65159607 705.70898438,170.44863892 707.16925049,170.24465942 708.62951660,170.03964233 710.08972168,169.83358765 711.54998779,169.62649536" style="stroke:rgb(134.89498901,206.04000854,235.11000061);stroke-width:1.50000000;opacity:1.00000000;stroke-linecap:butt;fill:none;" />
<polyline points="127.45001221,294.19555664 128.91027832,292.64620972 130.37054443,291.11233521 131.83074951,289.59393311 133.29101562,288.09085083 134.75128174,286.60299683 136.21151733,285.13034058 137.67178345,283.67279053 139.13201904,282.23028564 140.59225464,280.80270386 142.05252075,279.38998413 143.51278687,277.99206543 144.97302246,276.60888672 146.43325806,275.24032593 147.89352417,273.88632202 149.35375977,272.54681396 150.81402588,271.22167969 152.27429199,269.91088867 153.73449707,268.61437988 155.19476318,267.33197021 156.65502930,266.06369019 158.11526489,264.80944824 159.57553101,263.56909180 161.03576660,262.34265137 162.49600220,261.12994385 163.95626831,259.93093872 165.41653442,258.74557495 166.87678528,257.57376099 168.33700562,256.41540527 169.79727173,255.27046204 171.25752258,254.13880920 172.71777344,253.02038574 174.17803955,251.91513062 175.63825989,250.82298279 177.09851074,249.74380493 178.55877686,248.67755127 180.01902771,247.62416077 181.47927856,246.58352661 182.93951416,245.55560303 184.39976501,244.54025269 185.86001587,243.53746033 187.32028198,242.54711914 188.78051758,241.56916809 190.24076843,240.60351562 191.70101929,239.65008545 193.16127014,238.70878601 194.62152100,237.77957153 196.08177185,236.86233521 197.54202271,235.95701599 199.00225830,235.06353760 200.46252441,234.18180847 201.92277527,233.31175232 203.38301086,232.45330811 204.84327698,231.60638428 206.30351257,230.77090454 207.76376343,229.94677734 209.22402954,229.13395691 210.68426514,228.33233643 212.14451599,227.54187012 213.60476685,226.76243591 215.06501770,225.99398804 216.52526855,225.23643494 217.98551941,224.48971558 219.44577026,223.75372314 220.90600586,223.02841187 222.36627197,222.31369019 223.82652283,221.60946655 225.28675842,220.91567993 226.74702454,220.23225403 228.20727539,219.55909729 229.66751099,218.89614868 231.12777710,218.24331665 232.58801270,217.60052490 234.04826355,216.96769714 235.50852966,216.34475708 236.96876526,215.73164368 238.42901611,215.12823486 239.88926697,214.53451538 241.34951782,213.95034790 242.80976868,213.37567139 244.27001953,212.81042480 245.73027039,212.25451660 247.19050598,211.70788574 248.65077209,211.17044067 250.11102295,210.64208984 251.57125854,210.12278748 253.03152466,209.61242676 254.49176025,209.11094666 255.95201111,208.61825562 257.41229248,208.13430786 258.87249756,207.65898132 260.33276367,207.19223022 261.79302979,206.73394775 263.25326538,206.28408813 264.71350098,205.84255981 266.17376709,205.40927124 267.63403320,204.98416138 269.09423828,204.56716919 270.55450439,204.15817261 272.01477051,203.75712585 273.47500610,203.36395264 274.93527222,202.97854614 276.39550781,202.60086060 277.85577393,202.23078918 279.31604004,201.86828613 280.77624512,201.51324463 282.23651123,201.16561890 283.69677734,200.82528687 285.15701294,200.49221802 286.61724854,200.16629028 288.07751465,199.84747314 289.53778076,199.53564453 290.99798584,199.23074341 292.45825195,198.93269348 293.91851807,198.64141846 295.37875366,198.35684204 296.83901978,198.07888794 298.29925537,197.80747986 299.75952148,197.54251099 301.21978760,197.28395081 302.67999268,197.03167725 304.14025879,196.78564453 305.60052490,196.54576111 307.06076050,196.31195068 308.52099609,196.08413696 309.98126221,195.86222839 311.44152832,195.64616394 312.90176392,195.43585205 314.36199951,195.23124695 315.82226562,195.03222656 317.28250122,194.83874512 318.74276733,194.65071106 320.20300293,194.46804810 321.66326904,194.29067993 323.12350464,194.11853027 324.58374023,193.95152283 326.04400635,193.78956604 327.50427246,193.63259888 328.96450806,193.48052979 330.42474365,193.33329773 331.88500977,193.19081116 333.34527588,193.05299377 334.80551147,192.91976929 336.26574707,192.79106140 337.72601318,192.66677856 339.18624878,192.54687500 340.64651489,192.43124390 342.10675049,192.31982422 343.56701660,192.21252441 345.02725220,192.10926819 346.48748779,192.00999451 347.94775391,191.91461182 349.40802002,191.82302856 350.86825562,191.73519897 352.32849121,191.65103149 353.78875732,191.57043457 355.24902344,191.49334717 356.70925903,191.41967773 358.16949463,191.34936523 359.62976074,191.28231812 361.08999634,191.21846008 362.55026245,191.15771484 364.01049805,191.10002136 365.47076416,191.04527283 366.93099976,190.99340820 368.39126587,190.94435120 369.85150146,190.89801025 371.31176758,190.85432434 372.77200317,190.81320190 374.23226929,190.77456665 375.69250488,190.73835754 377.15277100,190.70446777 378.61300659,190.67285156 380.07324219,190.64340210 381.53350830,190.61605835 382.99374390,190.59074402 384.45401001,190.56738281 385.91424561,190.54588318 387.37451172,190.52616882 388.83474731,190.50816345 390.29501343,190.49180603 391.75524902,190.47700500 393.21551514,190.46366882 394.67575073,190.45175171 396.13601685,190.44114685 397.59625244,190.43179321 399.05651855,190.42359924 400.51675415,190.41650391 401.97702026,190.41041565 403.43725586,190.40527344 404.89749146,190.40097046 406.35775757,190.39746094 407.81799316,190.39463806 409.27825928,190.39245605 410.73849487,190.39080811 412.19876099,190.38961792 413.65899658,190.38882446 415.11926270,190.38835144 416.57949829,190.38810730 418.03976440,190.38801575 419.50000000,190.38800049 420.96026611,190.38798523 422.42050171,190.38789368 423.88076782,190.38764954 425.34100342,190.38717651 426.80123901,190.38638306 428.26150513,190.38519287 429.72174072,190.38354492 431.18200684,190.38136292 432.64224243,190.37854004 434.10250854,190.37503052 435.56274414,190.37072754 437.02301025,190.36558533 438.48324585,190.35949707 439.94351196,190.35240173 441.40374756,190.34420776 442.86401367,190.33485413 444.32424927,190.32424927 445.78451538,190.31233215 447.24475098,190.29899597 448.70501709,190.28419495 450.16525269,190.26783752 451.62548828,190.24983215 453.08575439,190.23011780 454.54598999,190.20861816 456.00625610,190.18525696 457.46649170,190.15994263 458.92675781,190.13259888 460.38699341,190.10314941 461.84725952,190.07153320 463.30749512,190.03764343 464.76776123,190.00143433 466.22799683,189.96279907 467.68826294,189.92167664 469.14849854,189.87799072 470.60876465,189.83164978 472.06900024,189.78259277 473.52923584,189.73072815 474.98950195,189.67597961 476.44973755,189.61828613 477.91000366,189.55754089 479.37023926,189.49368286 480.83050537,189.42663574 482.29074097,189.35632324 483.75100708,189.28265381 485.21124268,189.20556641 486.67150879,189.12496948 488.13174438,189.04080200 489.59197998,188.95297241 491.05224609,188.86138916 492.51251221,188.76600647 493.97274780,188.66673279 495.43298340,188.56347656 496.89324951,188.45617676 498.35351562,188.34475708 499.81375122,188.22912598 501.27398682,188.10922241 502.73425293,187.98493958 504.19448853,187.85623169 505.65475464,187.72300720 507.11499023,187.58518982 508.57525635,187.44270325 510.03549194,187.29547119 511.49572754,187.14340210 512.95599365,186.98643494 514.41625977,186.82447815 515.87646484,186.65747070 517.33673096,186.48532104 518.79699707,186.30795288 520.25726318,186.12528992 521.71752930,185.93725586 523.17773438,185.74377441 524.63800049,185.54475403 526.09826660,185.34013367 527.55847168,185.12983704 529.01873779,184.91377258 530.47900391,184.69187927 531.93920898,184.46405029 533.39947510,184.23023987 534.85974121,183.99035645 536.32000732,183.74432373 537.78027344,183.49205017 539.24047852,183.23347473 540.70074463,182.96852112 542.16101074,182.69711304 543.62121582,182.41914368 545.08148193,182.13456726 546.54174805,181.84330750 548.00201416,181.54525757 549.46228027,181.24035645 550.92248535,180.92854309 552.38275146,180.60971069 553.84301758,180.28378296 555.30322266,179.95071411 556.76348877,179.61038208 558.22375488,179.26275635 559.68395996,178.90771484 561.14422607,178.54521179 562.60449219,178.17514038 564.06475830,177.79745483 565.52502441,177.41206360 566.98522949,177.01887512 568.44549561,176.61782837 569.90576172,176.20883179 571.36596680,175.79182434 572.82623291,175.36672974 574.28649902,174.93344116 575.74676514,174.49191284 577.20697021,174.04205322 578.66723633,173.58377075 580.12750244,173.11701965 581.58776855,172.64169312 583.04797363,172.15773010 584.50823975,171.66505432 585.96850586,171.16357422 587.42871094,170.65321350 588.88897705,170.13389587 590.34924316,169.60556030 591.80950928,169.06811523 593.26977539,168.52146912 594.72998047,167.96557617 596.19024658,167.40032959 597.65051270,166.82565308 599.11071777,166.24150085 600.57098389,165.64775085 602.03125000,165.04435730 603.49145508,164.43122864 604.95178223,163.80828857 606.41198730,163.17547607 607.87225342,162.53268433 609.33251953,161.87985229 610.79272461,161.21688843 612.25299072,160.54373169 613.71325684,159.86032104 615.17346191,159.16653442 616.63372803,158.46231079 618.09399414,157.74758911 619.55426025,157.02226257 621.01446533,156.28628540 622.47473145,155.53955078 623.93499756,154.78201294 625.39526367,154.01356506 626.85546875,153.23413086 628.31573486,152.44366455 629.77600098,151.64202881 631.23626709,150.82920837 632.69647217,150.00509644 634.15673828,149.16961670 635.61700439,148.32269287 637.07727051,147.46423340 638.53747559,146.59417725 639.99774170,145.71246338 641.45800781,144.81896973 642.91821289,143.91366577 644.37847900,142.99642944 645.83874512,142.06719971 647.29895020,141.12591553 648.75927734,140.17248535 650.21948242,139.20684814 651.67974854,138.22888184 653.14001465,137.23852539 654.60021973,136.23574829 656.06048584,135.22039795 657.52075195,134.19244385 658.98095703,133.15185547 660.44122314,132.09844971 661.90148926,131.03219604 663.36175537,129.95300293 664.82202148,128.86083984 666.28222656,127.75561523 667.74249268,126.63720703 669.20275879,125.50555420 670.66296387,124.36059570 672.12322998,123.20220947 673.58349609,122.03042603 675.04370117,120.84506226 676.50402832,119.64605713 677.96423340,118.43334961 679.42449951,117.20687866 680.88476562,115.96655273 682.34497070,114.71231079 683.80523682,113.44403076 685.26550293,112.16162109 686.72570801,110.86508179 688.18603516,109.55429077 689.64624023,108.22918701 691.10644531,106.88967896 692.56677246,105.53567505 694.02697754,104.16711426 695.48724365,102.78390503 696.94750977,101.38601685 698.40771484,99.97329712 699.86798096,98.54571533 701.32824707,97.10317993 702.78845215,95.64562988 704.24871826,94.17300415 705.70898438,92.68515015 707.16925049,91.18206787 708.62951660,89.66363525 710.08972168,88.12976074 711.54998779,86.58044434" style="stroke:rgb(255.00000000,164.98500061,0.00000000);stroke-width:1.50000000;opacity:1.00000000;stroke-linecap:butt;fill:none;" />
<polyline points="216.52526855,69.28967285 217.98551941,72.73709106 219.44577026,76.11038208 220.90600586,79.41058350 222.36627197,82.63879395 223.82652283,85.79608154 225.28675842,88.88345337 226.74702454,91.90197754 228.20727539,94.85266113 229.66751099,97.73651123 231.12777710,100.55462646 232.58801270,103.30792236 234.04826355,105.99743652 235.50852966,108.62420654 236.96876526,111.18911743 238.42901611,113.69323730 239.88926697,116.13751221 241.34951782,118.52285767 242.80976868,120.85028076 244.27001953,123.12072754 245.73027039,125.33508301 247.19050598,127.49432373 248.65077209,129.59936523 250.11102295,131.65112305 251.57125854,133.65048218 253.03152466,135.59838867 254.49176025,137.49566650 255.95201111,139.34326172 257.41229248,141.14202881 258.87249756,142.89282227 260.33276367,144.59649658 261.79302979,146.25393677 263.25326538,147.86596680 264.71350098,149.43344116 266.17376709,150.95715332 267.63403320,152.43795776 269.09423828,153.87664795 270.55450439,155.27406311 272.01477051,156.63096619 273.47500610,157.94815063 274.93527222,159.22640991 276.39550781,160.46650696 277.85577393,161.66923523 279.31604004,162.83532715 280.77624512,163.96553040 282.23651123,165.06062317 283.69677734,166.12129211 285.15701294,167.14831543 286.61724854,168.14239502 288.07751465,169.10421753 289.53778076,170.03451538 290.99798584,170.93395996 292.45825195,171.80328369 293.91851807,172.64314270 295.37875366,173.45419312 296.83901978,174.23712158 298.29925537,174.99258423 299.75952148,175.72123718 301.21978760,176.42370605 302.67999268,177.10063171 304.14025879,177.75265503 305.60052490,178.38037109 307.06076050,178.98440552 308.52099609,179.56535339 309.98126221,180.12382507 311.44152832,180.66040039 312.90176392,181.17565918 314.36199951,181.67016602 315.82226562,182.14448547 317.28250122,182.59919739 318.74276733,183.03482056 320.20300293,183.45191956 321.66326904,183.85101318 323.12350464,184.23262024 324.58374023,184.59729004 326.04400635,184.94549561 327.50427246,185.27777100 328.96450806,185.59457397 330.42474365,185.89642334 331.88500977,186.18379211 333.34527588,186.45715332 334.80551147,186.71694946 336.26574707,186.96365356 337.72601318,187.19770813 339.18624878,187.41955566 340.64651489,187.62962341 342.10675049,187.82833862 343.56701660,188.01612854 345.02725220,188.19337463 346.48748779,188.36050415 347.94775391,188.51791382 349.40802002,188.66595459 350.86825562,188.80503845 352.32849121,188.93551636 353.78875732,189.05776978 355.24902344,189.17211914 356.70925903,189.27894592 358.16949463,189.37857056 359.62976074,189.47132874 361.08999634,189.55754089 362.55026245,189.63752747 364.01049805,189.71157837 365.47076416,189.78002930 366.93099976,189.84313965 368.39126587,189.90119934 369.85150146,189.95449829 371.31176758,190.00329590 372.77200317,190.04785156 374.23226929,190.08840942 375.69250488,190.12524414 377.15277100,190.15855408 378.61300659,190.18861389 380.07324219,190.21560669 381.53350830,190.23976135 382.99374390,190.26127625 384.45401001,190.28038025 385.91424561,190.29722595 387.37451172,190.31201172 388.83474731,190.32490540 390.29501343,190.33609009 391.75524902,190.34571838 393.21551514,190.35394287 394.67575073,190.36090088 396.13601685,190.36674500 397.59625244,190.37158203 399.05651855,190.37553406 400.51675415,190.37873840 401.97702026,190.38127136 403.43725586,190.38325500 404.89749146,190.38475037 406.35775757,190.38587952 407.81799316,190.38667297 409.27825928,190.38722229 410.73849487,190.38757324 412.19876099,190.38780212 413.65899658,190.38792419 415.11926270,190.38796997 416.57949829,190.38800049 418.03976440,190.38800049 419.50000000,190.38800049 420.96026611,190.38800049 422.42050171,190.38800049 423.88076782,190.38796997 425.34100342,190.38792419 426.80123901,190.38780212 428.26150513,190.38757324 429.72174072,190.38722229 431.18200684,190.38667297 432.64224243,190.38587952 434.10250854,190.38475037 435.56274414,190.38325500 437.02301025,190.38127136 438.48324585,190.37873840 439.94351196,190.37553406 441.40374756,190.37158203 442.86401367,190.36674500 444.32424927,190.36090088 445.78451538,190.35394287 447.24475098,190.34571838 448.70501709,190.33609009 450.16525269,190.32490540 451.62548828,190.31201172 453.08575439,190.29722595 454.54598999,190.28038025 456.00625610,190.26127625 457.46649170,190.23976135 458.92675781,190.21560669 460.38699341,190.18861389 461.84725952,190.15855408 463.30749512,190.12524414 464.76776123,190.08840942 466.22799683,190.04783630 467.68826294,190.00329590 469.14849854,189.95449829 470.60876465,189.90119934 472.06900024,189.84313965 473.52923584,189.78002930 474.98950195,189.71157837 476.44973755,189.63752747 477.91000366,189.55754089 479.37023926,189.47132874 480.83050537,189.37857056 482.29074097,189.27894592 483.75100708,189.17211914 485.21124268,189.05776978 486.67150879,188.93551636 488.13174438,188.80503845 489.59197998,188.66595459 491.05224609,188.51791382 492.51251221,188.36050415 493.97274780,188.19337463 495.43298340,188.01612854 496.89324951,187.82833862 498.35351562,187.62962341 499.81375122,187.41955566 501.27398682,187.19770813 502.73425293,186.96365356 504.19448853,186.71694946 505.65475464,186.45713806 507.11499023,186.18379211 508.57525635,185.89642334 510.03549194,185.59457397 511.49572754,185.27775574 512.95599365,184.94549561 514.41625977,184.59727478 515.87646484,184.23262024 517.33673096,183.85099792 518.79699707,183.45190430 520.25726318,183.03482056 521.71752930,182.59918213 523.17773438,182.14448547 524.63800049,181.67016602 526.09826660,181.17564392 527.55847168,180.66040039 529.01873779,180.12382507 530.47900391,179.56535339 531.93920898,178.98440552 533.39947510,178.38037109 534.85974121,177.75263977 536.32000732,177.10063171 537.78027344,176.42370605 539.24047852,175.72122192 540.70074463,174.99258423 542.16101074,174.23712158 543.62121582,173.45419312 545.08148193,172.64312744 546.54174805,171.80328369 548.00201416,170.93395996 549.46228027,170.03450012 550.92248535,169.10421753 552.38275146,168.14237976 553.84301758,167.14830017 555.30322266,166.12129211 556.76348877,165.06060791 558.22375488,163.96553040 559.68395996,162.83531189 561.14422607,161.66921997 562.60449219,160.46650696 564.06475830,159.22639465 565.52502441,157.94815063 566.98522949,156.63095093 568.44549561,155.27404785 569.90576172,153.87664795 571.36596680,152.43794250 572.82623291,150.95715332 574.28649902,149.43342590 575.74676514,147.86595154 577.20697021,146.25393677 578.66723633,144.59648132 580.12750244,142.89282227 581.58776855,141.14199829 583.04797363,139.34326172 584.50823975,137.49566650 585.96850586,135.59835815 587.42871094,133.65048218 588.88897705,131.65112305 590.34924316,129.59936523 591.80950928,127.49432373 593.26977539,125.33508301 594.72998047,123.12072754 596.19024658,120.85028076 597.65051270,118.52282715 599.11071777,116.13751221 600.57098389,113.69323730 602.03125000,111.18908691 603.49145508,108.62417603 604.95178223,105.99743652 606.41198730,103.30792236 607.87225342,100.55459595 609.33251953,97.73651123 610.79272461,94.85263062 612.25299072,91.90194702 613.71325684,88.88345337 615.17346191,85.79608154 616.63372803,82.63879395 618.09399414,79.41058350 619.55426025,76.11035156 621.01446533,72.73709106 622.47473145,69.28967285" style="stroke:rgb(255.00000000,0.00000000,0.00000000);stroke-width:1.50000000;opacity:1.00000000;stroke-linecap:butt;fill:none;" />
<polyline points="261.79302979,309.54998779 263.25326538,304.13442993 264.71350098,298.91760254 266.17376709,293.89398193 267.63403320,289.05810547 269.09423828,284.40472412 270.55450439,279.92855835 272.01477051,275.62451172 273.47500610,271.48764038 274.93527222,267.51293945 276.39550781,263.69567871 277.85577393,260.03100586 279.31604004,256.51440430 280.77624512,253.14135742 282.23651123,249.90734863 283.69677734,246.80809021 285.15701294,243.83927917 286.61724854,240.99676514 288.07751465,238.27653503 289.53778076,235.67451477 290.99798584,233.18687439 292.45825195,230.80975342 293.91851807,228.53945923 295.37875366,226.37234497 296.83901978,224.30484009 298.29925537,222.33348083 299.75952148,220.45486450 301.21978760,218.66567993 302.67999268,216.96273804 304.14025879,215.34280396 305.60052490,213.80288696 307.06076050,212.33992004 308.52099609,210.95101929 309.98126221,209.63333130 311.44152832,208.38406372 312.90176392,207.20053101 314.36199951,206.08010864 315.82226562,205.02023315 317.28250122,204.01841736 318.74276733,203.07223511 320.20300293,202.17935181 321.66326904,201.33746338 323.12350464,200.54437256 324.58374023,199.79791260 326.04400635,199.09600830 327.50427246,198.43661499 328.96450806,197.81781006 330.42474365,197.23764038 331.88500977,196.69430542 333.34527588,196.18600464 334.80551147,195.71102905 336.26574707,195.26770020 337.72601318,194.85441589 339.18624878,194.46961975 340.64651489,194.11181641 342.10675049,193.77955627 343.56701660,193.47143555 345.02725220,193.18614197 346.48748779,192.92236328 347.94775391,192.67886353 349.40802002,192.45445251 350.86825562,192.24798584 352.32849121,192.05834961 353.78875732,191.88452148 355.24902344,191.72546387 356.70925903,191.58023071 358.16949463,191.44790649 359.62976074,191.32759094 361.08999634,191.21846008 362.55026245,191.11972046 364.01049805,191.03059387 365.47076416,190.95037842 366.93099976,190.87837219 368.39126587,190.81394958 369.85150146,190.75648499 371.31176758,190.70538330 372.77200317,190.66012573 374.23226929,190.62017822 375.69250488,190.58506775 377.15277100,190.55435181 378.61300659,190.52757263 380.07324219,190.50436401 381.53350830,190.48435974 382.99374390,190.46719360 384.45401001,190.45257568 385.91424561,190.44020081 387.37451172,190.42979431 388.83474731,190.42112732 390.29501343,190.41395569 391.75524902,190.40808105 393.21551514,190.40332031 394.67575073,190.39952087 396.13601685,190.39649963 397.59625244,190.39416504 399.05651855,190.39236450 400.51675415,190.39100647 401.97702026,190.39001465 403.43725586,190.38931274 404.89749146,190.38880920 406.35775757,190.38847351 407.81799316,190.38825989 409.27825928,190.38813782 410.73849487,190.38806152 412.19876099,190.38803101 413.65899658,190.38801575 415.11926270,190.38800049 416.57949829,190.38800049 418.03976440,190.38800049 419.50000000,190.38800049 420.96026611,190.38800049 422.42050171,190.38800049 423.88076782,190.38800049 425.34100342,190.38798523 426.80123901,190.38796997 428.26150513,190.38793945 429.72174072,190.38786316 431.18200684,190.38774109 432.64224243,190.38752747 434.10250854,190.38719177 435.56274414,190.38668823 437.02301025,190.38598633 438.48324585,190.38499451 439.94351196,190.38363647 441.40374756,190.38183594 442.86401367,190.37950134 444.32424927,190.37648010 445.78451538,190.37268066 447.24475098,190.36791992 448.70501709,190.36204529 450.16525269,190.35487366 451.62548828,190.34620667 453.08575439,190.33580017 454.54598999,190.32342529 456.00625610,190.30880737 457.46649170,190.29164124 458.92675781,190.27163696 460.38699341,190.24842834 461.84725952,190.22164917 463.30749512,190.19093323 464.76776123,190.15582275 466.22799683,190.11587524 467.68826294,190.07061768 469.14849854,190.01951599 470.60876465,189.96205139 472.06900024,189.89762878 473.52923584,189.82562256 474.98950195,189.74540710 476.44973755,189.65628052 477.91000366,189.55754089 479.37023926,189.44841003 480.83050537,189.32809448 482.29074097,189.19577026 483.75100708,189.05053711 485.21124268,188.89147949 486.67150879,188.71765137 488.13174438,188.52801514 489.59197998,188.32154846 491.05224609,188.09713745 492.51251221,187.85363770 493.97274780,187.58985901 495.43298340,187.30456543 496.89324951,186.99644470 498.35351562,186.66418457 499.81375122,186.30638123 501.27398682,185.92158508 502.73425293,185.50830078 504.19448853,185.06497192 505.65475464,184.58998108 507.11499023,184.08169556 508.57525635,183.53834534 510.03549194,182.95819092 511.49572754,182.33937073 512.95599365,181.67999268 514.41625977,180.97808838 515.87646484,180.23162842 517.33673096,179.43853760 518.79699707,178.59664917 520.25726318,177.70375061 521.71752930,176.75758362 523.17773438,175.75576782 524.63800049,174.69589233 526.09826660,173.57545471 527.55847168,172.39193726 529.01873779,171.14266968 530.47900391,169.82498169 531.93920898,168.43606567 533.39947510,166.97311401 534.85974121,165.43316650 536.32000732,163.81326294 537.78027344,162.11029053 539.24047852,160.32112122 540.70074463,158.44252014 542.16101074,156.47114563 543.62121582,154.40365601 545.08148193,152.23652649 546.54174805,149.96621704 548.00201416,147.58912659 549.46228027,145.10147095 550.92248535,142.49945068 552.38275146,139.77920532 553.84301758,136.93670654 555.30322266,133.96789551 556.76348877,130.86862183 558.22375488,127.63464355 559.68395996,124.26153564 561.14422607,120.74493408 562.60449219,117.08032227 564.06475830,113.26303101 565.52502441,109.28836060 566.98522949,105.15142822 568.44549561,100.84741211 569.90576172,96.37127686 571.36596680,91.71786499 572.82623291,86.88201904 574.28649902,81.85836792 575.74676514,76.64151001 577.20697021,71.22601318" style="stroke:rgb(137.70001221,68.85000610,25.50000000);stroke-width:1.50000000;opacity:1.00000000;stroke-linecap:butt;fill:none;" />
<polyline points="285.15701294,67.45007324 286.61724854,75.25305176 288.07751465,82.63879395 289.53778076,89.62551880 290.99798584,96.23046875 292.45825195,102.47067261 293.91851807,108.36239624 295.37875366,113.92126465 296.83901978,119.16265869 298.29925537,124.10113525 299.75952148,128.75091553 301.21978760,133.12567139 302.67999268,137.23852539 304.14025879,141.10223389 305.60052490,144.72898865 307.06076050,148.13055420 308.52099609,151.31826782 309.98126221,154.30300903 311.44152832,157.09529114 312.90176392,159.70512390 314.36199951,162.14219666 315.82226562,164.41578674 317.28250122,166.53477478 318.74276733,168.50769043 320.20300293,170.34271240 321.66326904,172.04765320 323.12350464,173.62998962 324.58374023,175.09689331 326.04400635,176.45520020 327.50427246,177.71142578 328.96450806,178.87181091 330.42474365,179.94229126 331.88500977,180.92854309 333.34527588,181.83593750 334.80551147,182.66961670 336.26574707,183.43443298 337.72601318,184.13502502 339.18624878,184.77577209 340.64651489,185.36085510 342.10675049,185.89419556 343.56701660,186.37953186 345.02725220,186.82037354 346.48748779,187.22004700 347.94775391,187.58169556 349.40802002,187.90826416 350.86825562,188.20252991 352.32849121,188.46710205 353.78875732,188.70442200 355.24902344,188.91679382 356.70925903,189.10635376 358.16949463,189.27510071 359.62976074,189.42492676 361.08999634,189.55754089 362.55026245,189.67457581 364.01049805,189.77754211 365.47076416,189.86779785 366.93099976,189.94665527 368.39126587,190.01528931 369.85150146,190.07479858 371.31176758,190.12615967 372.77200317,190.17030334 374.23226929,190.20805359 375.69250488,190.24020386 377.15277100,190.26739502 378.61300659,190.29029846 380.07324219,190.30944824 381.53350830,190.32536316 382.99374390,190.33850098 384.45401001,190.34925842 385.91424561,190.35798645 387.37451172,190.36500549 388.83474731,190.37060547 390.29501343,190.37503052 391.75524902,190.37846375 393.21551514,190.38110352 394.67575073,190.38310242 396.13601685,190.38459778 397.59625244,190.38569641 399.05651855,190.38647461 400.51675415,190.38702393 401.97702026,190.38739014 403.43725586,190.38763428 404.89749146,190.38780212 406.35775757,190.38789368 407.81799316,190.38795471 409.27825928,190.38796997 410.73849487,190.38798523 412.19876099,190.38800049 413.65899658,190.38800049 415.11926270,190.38800049 416.57949829,190.38800049 418.03976440,190.38800049 419.50000000,190.38800049 420.96026611,190.38800049 422.42050171,190.38800049 423.88076782,190.38800049 425.34100342,190.38800049 426.80123901,190.38800049 428.26150513,190.38798523 429.72174072,190.38796997 431.18200684,190.38795471 432.64224243,190.38789368 434.10250854,190.38780212 435.56274414,190.38763428 437.02301025,190.38739014 438.48324585,190.38702393 439.94351196,190.38647461 441.40374756,190.38569641 442.86401367,190.38459778 444.32424927,190.38310242 445.78451538,190.38110352 447.24475098,190.37846375 448.70501709,190.37503052 450.16525269,190.37060547 451.62548828,190.36500549 453.08575439,190.35798645 454.54598999,190.34925842 456.00625610,190.33850098 457.46649170,190.32536316 458.92675781,190.30944824 460.38699341,190.29029846 461.84725952,190.26739502 463.30749512,190.24020386 464.76776123,190.20805359 466.22799683,190.17030334 467.68826294,190.12615967 469.14849854,190.07479858 470.60876465,190.01528931 472.06900024,189.94665527 473.52923584,189.86779785 474.98950195,189.77754211 476.44973755,189.67457581 477.91000366,189.55754089 479.37023926,189.42492676 480.83050537,189.27510071 482.29074097,189.10635376 483.75100708,188.91679382 485.21124268,188.70442200 486.67150879,188.46708679 488.13174438,188.20252991 489.59197998,187.90826416 491.05224609,187.58169556 492.51251221,187.22004700 493.97274780,186.82037354 495.43298340,186.37953186 496.89324951,185.89419556 498.35351562,185.36085510 499.81375122,184.77577209 501.27398682,184.13500977 502.73425293,183.43441772 504.19448853,182.66960144 505.65475464,181.83593750 507.11499023,180.92852783 508.57525635,179.94229126 510.03549194,178.87179565 511.49572754,177.71141052 512.95599365,176.45518494 514.41625977,175.09687805 515.87646484,173.62997437 517.33673096,172.04763794 518.79699707,170.34269714 520.25726318,168.50767517 521.71752930,166.53475952 523.17773438,164.41577148 524.63800049,162.14218140 526.09826660,159.70510864 527.55847168,157.09526062 529.01873779,154.30300903 530.47900391,151.31825256 531.93920898,148.13053894 533.39947510,144.72897339 534.85974121,141.10223389 536.32000732,137.23852539 537.78027344,133.12564087 539.24047852,128.75088501 540.70074463,124.10113525 542.16101074,119.16259766 543.62121582,113.92126465 545.08148193,108.36233521 546.54174805,102.47064209 548.00201416,96.23046875 549.46228027,89.62545776 550.92248535,82.63879395 552.38275146,75.25299072 553.84301758,67.45001221" style="stroke:rgb(127.50000000,0.00000000,127.50000000);stroke-width:1.50000000;opacity:1.00000000;stroke-linecap:butt;fill:none;" />
<polyline points="301.21978760,306.34417725 302.67999268,296.68692017 304.14025879,287.72735596 305.60052490,279.42306519 307.06076050,271.73358154 308.52099609,264.62048340 309.98126221,258.04736328 311.44152832,251.97950745 312.90176392,246.38424683 314.36199951,241.23043823 315.82226562,236.48867798 317.28250122,232.13114929 318.74276733,228.13153076 320.20300293,224.46499634 321.66326904,221.10809326 323.12350464,218.03872681 324.58374023,215.23605347 326.04400635,212.68049622 327.50427246,210.35360718 328.96450806,208.23809814 330.42474365,206.31770325 331.88500977,204.57719421 333.34527588,203.00228882 334.80551147,201.57966614 336.26574707,200.29684448 337.72601318,199.14218140 339.18624878,198.10481262 340.64651489,197.17465210 342.10675049,196.34228516 343.56701660,195.59901428 345.02725220,194.93673706 346.48748779,194.34794617 347.94775391,193.82572937 349.40802002,193.36369324 350.86825562,192.95593262 352.32849121,192.59704590 353.78875732,192.28202820 355.24902344,192.00633240 356.70925903,191.76577759 358.16949463,191.55653381 359.62976074,191.37515259 361.08999634,191.21846008 362.55026245,191.08358765 364.01049805,190.96794128 365.47076416,190.86918640 366.93099976,190.78520203 368.39126587,190.71411133 369.85150146,190.65422058 371.31176758,190.60401917 372.77200317,190.56216431 374.23226929,190.52745056 375.69250488,190.49885559 377.15277100,190.47543335 378.61300659,190.45639038 380.07324219,190.44102478 381.53350830,190.42871094 382.99374390,190.41893005 384.45401001,190.41125488 385.91424561,190.40525818 387.37451172,190.40065002 388.83474731,190.39712524 390.29501343,190.39448547 391.75524902,190.39253235 393.21551514,190.39109802 394.67575073,190.39007568 396.13601685,190.38935852 397.59625244,190.38887024 399.05651855,190.38853455 400.51675415,190.38832092 401.97702026,190.38818359 403.43725586,190.38809204 404.89749146,190.38804626 406.35775757,190.38803101 407.81799316,190.38801575 409.27825928,190.38800049 410.73849487,190.38800049 412.19876099,190.38800049 413.65899658,190.38800049 415.11926270,190.38800049 416.57949829,190.38800049 418.03976440,190.38800049 419.50000000,190.38800049 420.96026611,190.38800049 422.42050171,190.38800049 423.88076782,190.38800049 425.34100342,190.38800049 426.80123901,190.38800049 428.26150513,190.38800049 429.72174072,190.38800049 431.18200684,190.38798523 432.64224243,190.38796997 434.10250854,190.38795471 435.56274414,190.38790894 437.02301025,190.38781738 438.48324585,190.38768005 439.94351196,190.38746643 441.40374756,190.38713074 442.86401367,190.38664246 444.32424927,190.38592529 445.78451538,190.38490295 447.24475098,190.38346863 448.70501709,190.38151550 450.16525269,190.37887573 451.62548828,190.37535095 453.08575439,190.37074280 454.54598999,190.36474609 456.00625610,190.35707092 457.46649170,190.34729004 458.92675781,190.33497620 460.38699341,190.31961060 461.84725952,190.30056763 463.30749512,190.27714539 464.76776123,190.24855042 466.22799683,190.21383667 467.68826294,190.17198181 469.14849854,190.12178040 470.60876465,190.06187439 472.06900024,189.99079895 473.52923584,189.90681458 474.98950195,189.80805969 476.44973755,189.69241333 477.91000366,189.55754089 479.37023926,189.40084839 480.83050537,189.21945190 482.29074097,189.01022339 483.75100708,188.76966858 485.21124268,188.49397278 486.67150879,188.17895508 488.13174438,187.82006836 489.59197998,187.41230774 491.05224609,186.95027161 492.51251221,186.42805481 493.97274780,185.83926392 495.43298340,185.17698669 496.89324951,184.43371582 498.35351562,183.60134888 499.81375122,182.67118835 501.27398682,181.63381958 502.73425293,180.47915649 504.19448853,179.19631958 505.65475464,177.77369690 507.11499023,176.19879150 508.57525635,174.45828247 510.03549194,172.53788757 511.49572754,170.42237854 512.95599365,168.09548950 514.41625977,165.53993225 515.87646484,162.73725891 517.33673096,159.66789246 518.79699707,156.31098938 520.25726318,152.64443970 521.71752930,148.64483643 523.17773438,144.28729248 524.63800049,139.54553223 526.09826660,134.39172363 527.55847168,128.79644775 529.01873779,122.72863770 530.47900391,116.15545654 531.93920898,109.04238892 533.39947510,101.35290527 534.85974121,93.04855347 536.32000732,84.08908081 537.78027344,74.43173218" style="stroke:rgb(0.00000000,127.50000000,0.00000000);stroke-width:1.50000000;opacity:1.00000000;stroke-linecap:butt;fill:none;" />
<text font-size="20.00000000" font-family="Roboto" x="383.70001221" y="36.00000000" style="stroke:rgb(0.00000000,0.00000000,0.00000000);stroke-width:0.30000001;fill:rgb(0.00000000,0.00000000,0.00000000);opacity:1.00000000;" transform="rotate(-0.00000000,383.70001221,36.00000000)">y = x^n</text>
<text font-size="15.00000000" font-family="Roboto" x="404.52499390" y="386.00000000" style="stroke:rgb(0.00000000,0.00000000,0.00000000);stroke-width:0.30000001;fill:rgb(0.00000000,0.00000000,0.00000000);opacity:1.00000000;" transform="rotate(-0.00000000,404.52499390,386.00000000)">x</text>
<text font-size="15.00000000" font-family="Roboto" x="31.00000000" y="203.69999695" style="stroke:rgb(0.00000000,0.00000000,0.00000000);stroke-width:0.30000001;fill:rgb(0.00000000,0.00000000,0.00000000);opacity:1.00000000;" transform="rotate(-90.00000000,31.00000000,203.69999695)">y</text>
<rect x="115.00000000" y="74.00000000" width="63.59999847" height="130.00000000" style="fill:rgb(255.00000000,255.00000000,255.00000000);stroke-width:2.00000000;stroke:rgb(0.00000000,0.00000000,0.00000000);opacity:0.69999999" />
<rect x="125.00000000" y="84.00000000" width="10.00000000" height="10.00000000" style="fill:rgb(134.89498901,206.04000854,235.11000061);stroke-width:0;stroke:rgb(0,0,0);opacity:1.00000000" />
<text font-size="10.00000000" font-family="Roboto" x="145.00000000" y="94.00000000" style="stroke:rgb(0.00000000,0.00000000,0.00000000);stroke-width:0.30000001;fill:rgb(0.00000000,0.00000000,0.00000000);opacity:1.00000000;" transform="rotate(-0.00000000,145.00000000,94.00000000)">2</text>
<rect x="125.00000000" y="104.00000000" width="10.00000000" height="10.00000000" style="fill:rgb(255.00000000,164.98500061,0.00000000);stroke-width:0;stroke:rgb(0,0,0);opacity:1.00000000" />
<text font-size="10.00000000" font-family="Roboto" x="145.00000000" y="114.00000000" style="stroke:rgb(0.00000000,0.00000000,0.00000000);stroke-width:0.30000001;fill:rgb(0.00000000,0.00000000,0.00000000);opacity:1.00000000;" transform="rotate(-0.00000000,145.00000000,114.00000000)">3</text>
<rect x="125.00000000" y="124.00000000" width="10.00000000" height="10.00000000" style="fill:rgb(255.00000000,0.00000000,0.00000000);stroke-width:0;stroke:rgb(0,0,0);opacity:1.00000000" />
<text font-size="10.00000000" font-family="Roboto" x="145.00000000" y="134.00000000" style="stroke:rgb(0.00000000,0.00000000,0.00000000);stroke-width:0.30000001;fill:rgb(0.00000000,0.00000000,0.00000000);opacity:1.00000000;" transform="rotate(-0.00000000,145.00000000,134.00000000)">4</text>
<rect x="125.00000000" y="144.00000000" width="10.00000000" height="10.00000000" style="fill:rgb(137.70001221,68.85000610,25.50000000);stroke-width:0;stroke:rgb(0,0,0);opacity:1.00000000" />
<text font-size="10.00000000" font-family="Roboto" x="145.00000000" y="154.00000000" style="stroke:rgb(0.00000000,0.00000000,0.00000000);stroke-width:0.30000001;fill:rgb(0.00000000,0.00000000,0.00000000);opacity:1.00000000;" transform="rotate(-0.00000000,145.00000000,154.00000000)">5</text>
<rect x="125.00000000" y="164.00000000" width="10.00000000" height="10.00000000" style="fill:rgb(127.50000000,0.00000000,127.50000000);stroke-width:0;stroke:rgb(0,0,0);opacity:1.00000000" />
<text font-size="10.00000000" font-family="Roboto" x="145.00000000" y="174.00000000" style="stroke:rgb(0.00000000,0.00000000,0.00000000);stroke-width:0.30000001;fill:rgb(0.00000000,0.00000000,0.00000000);opacity:1.00000000;" transform="rotate(-0.00000000,145.00000000,174.00000000)">6</text>
<rect x="125.00000000" y="184.00000000" width="10.00000000" height="10.00000000" style="fill:rgb(0.00000000,127.50000000,0.00000000);stroke-width:0;stroke:rgb(0,0,0);opacity:1.00000000" />
<text font-size="10.00000000" font-family="Roboto" x="145.00000000" y="194.00000000" style="stroke:rgb(0.00000000,0.00000000,0.00000000);stroke-width:0.30000001;fill:rgb(0.00000000,0.00000000,0.00000000);opacity:1.00000000;" transform="rotate(-0.00000000,145.00000000,194.00000000)">7</text>
</svg>